%TF.GenerationSoftware,KiCad,Pcbnew,7.0.11+dfsg-1build4*%
%TF.CreationDate,2026-09-16T20:56:58-05:00*%
%TF.ProjectId,,58585858-5858-4585-9858-585858585858,rev?*%
%TF.SameCoordinates,Original*%
%TF.FileFunction,Legend,Bot*%
%TF.FilePolarity,Positive*%
%FSLAX46Y46*%
G04 Gerber Fmt 4.6, Leading zero omitted, Abs format (unit mm)*
G04 Created by KiCad (PCBNEW 7.0.11+dfsg-1build4) date 2026-09-16 20:56:58*
%MOMM*%
%LPD*%
G01*
G04 APERTURE LIST*
%ADD10C,0.150000*%
%ADD11C,0.120000*%
%TA.AperFunction,Profile*%
%ADD12C,0.050000*%
%TD*%
G04 APERTURE END LIST*
D10*
X180083333Y-158954819D02*
X180083333Y-159669104D01*
X180083333Y-159669104D02*
X180130952Y-159811961D01*
X180130952Y-159811961D02*
X180226190Y-159907200D01*
X180226190Y-159907200D02*
X180369047Y-159954819D01*
X180369047Y-159954819D02*
X180464285Y-159954819D01*
X179083333Y-159954819D02*
X179654761Y-159954819D01*
X179369047Y-159954819D02*
X179369047Y-158954819D01*
X179369047Y-158954819D02*
X179464285Y-159097676D01*
X179464285Y-159097676D02*
X179559523Y-159192914D01*
X179559523Y-159192914D02*
X179654761Y-159240533D01*
X166083333Y-158954819D02*
X166083333Y-159669104D01*
X166083333Y-159669104D02*
X166130952Y-159811961D01*
X166130952Y-159811961D02*
X166226190Y-159907200D01*
X166226190Y-159907200D02*
X166369047Y-159954819D01*
X166369047Y-159954819D02*
X166464285Y-159954819D01*
X165083333Y-159954819D02*
X165654761Y-159954819D01*
X165369047Y-159954819D02*
X165369047Y-158954819D01*
X165369047Y-158954819D02*
X165464285Y-159097676D01*
X165464285Y-159097676D02*
X165559523Y-159192914D01*
X165559523Y-159192914D02*
X165654761Y-159240533D01*
X152083333Y-158954819D02*
X152083333Y-159669104D01*
X152083333Y-159669104D02*
X152130952Y-159811961D01*
X152130952Y-159811961D02*
X152226190Y-159907200D01*
X152226190Y-159907200D02*
X152369047Y-159954819D01*
X152369047Y-159954819D02*
X152464285Y-159954819D01*
X151083333Y-159954819D02*
X151654761Y-159954819D01*
X151369047Y-159954819D02*
X151369047Y-158954819D01*
X151369047Y-158954819D02*
X151464285Y-159097676D01*
X151464285Y-159097676D02*
X151559523Y-159192914D01*
X151559523Y-159192914D02*
X151654761Y-159240533D01*
X138083333Y-158954819D02*
X138083333Y-159669104D01*
X138083333Y-159669104D02*
X138130952Y-159811961D01*
X138130952Y-159811961D02*
X138226190Y-159907200D01*
X138226190Y-159907200D02*
X138369047Y-159954819D01*
X138369047Y-159954819D02*
X138464285Y-159954819D01*
X137083333Y-159954819D02*
X137654761Y-159954819D01*
X137369047Y-159954819D02*
X137369047Y-158954819D01*
X137369047Y-158954819D02*
X137464285Y-159097676D01*
X137464285Y-159097676D02*
X137559523Y-159192914D01*
X137559523Y-159192914D02*
X137654761Y-159240533D01*
X124083333Y-158954819D02*
X124083333Y-159669104D01*
X124083333Y-159669104D02*
X124130952Y-159811961D01*
X124130952Y-159811961D02*
X124226190Y-159907200D01*
X124226190Y-159907200D02*
X124369047Y-159954819D01*
X124369047Y-159954819D02*
X124464285Y-159954819D01*
X123083333Y-159954819D02*
X123654761Y-159954819D01*
X123369047Y-159954819D02*
X123369047Y-158954819D01*
X123369047Y-158954819D02*
X123464285Y-159097676D01*
X123464285Y-159097676D02*
X123559523Y-159192914D01*
X123559523Y-159192914D02*
X123654761Y-159240533D01*
X110083333Y-158954819D02*
X110083333Y-159669104D01*
X110083333Y-159669104D02*
X110130952Y-159811961D01*
X110130952Y-159811961D02*
X110226190Y-159907200D01*
X110226190Y-159907200D02*
X110369047Y-159954819D01*
X110369047Y-159954819D02*
X110464285Y-159954819D01*
X109083333Y-159954819D02*
X109654761Y-159954819D01*
X109369047Y-159954819D02*
X109369047Y-158954819D01*
X109369047Y-158954819D02*
X109464285Y-159097676D01*
X109464285Y-159097676D02*
X109559523Y-159192914D01*
X109559523Y-159192914D02*
X109654761Y-159240533D01*
X96083333Y-158954819D02*
X96083333Y-159669104D01*
X96083333Y-159669104D02*
X96130952Y-159811961D01*
X96130952Y-159811961D02*
X96226190Y-159907200D01*
X96226190Y-159907200D02*
X96369047Y-159954819D01*
X96369047Y-159954819D02*
X96464285Y-159954819D01*
X95083333Y-159954819D02*
X95654761Y-159954819D01*
X95369047Y-159954819D02*
X95369047Y-158954819D01*
X95369047Y-158954819D02*
X95464285Y-159097676D01*
X95464285Y-159097676D02*
X95559523Y-159192914D01*
X95559523Y-159192914D02*
X95654761Y-159240533D01*
X180083333Y-142954819D02*
X180083333Y-143669104D01*
X180083333Y-143669104D02*
X180130952Y-143811961D01*
X180130952Y-143811961D02*
X180226190Y-143907200D01*
X180226190Y-143907200D02*
X180369047Y-143954819D01*
X180369047Y-143954819D02*
X180464285Y-143954819D01*
X179083333Y-143954819D02*
X179654761Y-143954819D01*
X179369047Y-143954819D02*
X179369047Y-142954819D01*
X179369047Y-142954819D02*
X179464285Y-143097676D01*
X179464285Y-143097676D02*
X179559523Y-143192914D01*
X179559523Y-143192914D02*
X179654761Y-143240533D01*
X166083333Y-142954819D02*
X166083333Y-143669104D01*
X166083333Y-143669104D02*
X166130952Y-143811961D01*
X166130952Y-143811961D02*
X166226190Y-143907200D01*
X166226190Y-143907200D02*
X166369047Y-143954819D01*
X166369047Y-143954819D02*
X166464285Y-143954819D01*
X165083333Y-143954819D02*
X165654761Y-143954819D01*
X165369047Y-143954819D02*
X165369047Y-142954819D01*
X165369047Y-142954819D02*
X165464285Y-143097676D01*
X165464285Y-143097676D02*
X165559523Y-143192914D01*
X165559523Y-143192914D02*
X165654761Y-143240533D01*
X152083333Y-142954819D02*
X152083333Y-143669104D01*
X152083333Y-143669104D02*
X152130952Y-143811961D01*
X152130952Y-143811961D02*
X152226190Y-143907200D01*
X152226190Y-143907200D02*
X152369047Y-143954819D01*
X152369047Y-143954819D02*
X152464285Y-143954819D01*
X151083333Y-143954819D02*
X151654761Y-143954819D01*
X151369047Y-143954819D02*
X151369047Y-142954819D01*
X151369047Y-142954819D02*
X151464285Y-143097676D01*
X151464285Y-143097676D02*
X151559523Y-143192914D01*
X151559523Y-143192914D02*
X151654761Y-143240533D01*
X138083333Y-142954819D02*
X138083333Y-143669104D01*
X138083333Y-143669104D02*
X138130952Y-143811961D01*
X138130952Y-143811961D02*
X138226190Y-143907200D01*
X138226190Y-143907200D02*
X138369047Y-143954819D01*
X138369047Y-143954819D02*
X138464285Y-143954819D01*
X137083333Y-143954819D02*
X137654761Y-143954819D01*
X137369047Y-143954819D02*
X137369047Y-142954819D01*
X137369047Y-142954819D02*
X137464285Y-143097676D01*
X137464285Y-143097676D02*
X137559523Y-143192914D01*
X137559523Y-143192914D02*
X137654761Y-143240533D01*
X124083333Y-142954819D02*
X124083333Y-143669104D01*
X124083333Y-143669104D02*
X124130952Y-143811961D01*
X124130952Y-143811961D02*
X124226190Y-143907200D01*
X124226190Y-143907200D02*
X124369047Y-143954819D01*
X124369047Y-143954819D02*
X124464285Y-143954819D01*
X123083333Y-143954819D02*
X123654761Y-143954819D01*
X123369047Y-143954819D02*
X123369047Y-142954819D01*
X123369047Y-142954819D02*
X123464285Y-143097676D01*
X123464285Y-143097676D02*
X123559523Y-143192914D01*
X123559523Y-143192914D02*
X123654761Y-143240533D01*
X110083333Y-142954819D02*
X110083333Y-143669104D01*
X110083333Y-143669104D02*
X110130952Y-143811961D01*
X110130952Y-143811961D02*
X110226190Y-143907200D01*
X110226190Y-143907200D02*
X110369047Y-143954819D01*
X110369047Y-143954819D02*
X110464285Y-143954819D01*
X109083333Y-143954819D02*
X109654761Y-143954819D01*
X109369047Y-143954819D02*
X109369047Y-142954819D01*
X109369047Y-142954819D02*
X109464285Y-143097676D01*
X109464285Y-143097676D02*
X109559523Y-143192914D01*
X109559523Y-143192914D02*
X109654761Y-143240533D01*
X96083333Y-142954819D02*
X96083333Y-143669104D01*
X96083333Y-143669104D02*
X96130952Y-143811961D01*
X96130952Y-143811961D02*
X96226190Y-143907200D01*
X96226190Y-143907200D02*
X96369047Y-143954819D01*
X96369047Y-143954819D02*
X96464285Y-143954819D01*
X95083333Y-143954819D02*
X95654761Y-143954819D01*
X95369047Y-143954819D02*
X95369047Y-142954819D01*
X95369047Y-142954819D02*
X95464285Y-143097676D01*
X95464285Y-143097676D02*
X95559523Y-143192914D01*
X95559523Y-143192914D02*
X95654761Y-143240533D01*
X180083333Y-126954819D02*
X180083333Y-127669104D01*
X180083333Y-127669104D02*
X180130952Y-127811961D01*
X180130952Y-127811961D02*
X180226190Y-127907200D01*
X180226190Y-127907200D02*
X180369047Y-127954819D01*
X180369047Y-127954819D02*
X180464285Y-127954819D01*
X179083333Y-127954819D02*
X179654761Y-127954819D01*
X179369047Y-127954819D02*
X179369047Y-126954819D01*
X179369047Y-126954819D02*
X179464285Y-127097676D01*
X179464285Y-127097676D02*
X179559523Y-127192914D01*
X179559523Y-127192914D02*
X179654761Y-127240533D01*
X166083333Y-126954819D02*
X166083333Y-127669104D01*
X166083333Y-127669104D02*
X166130952Y-127811961D01*
X166130952Y-127811961D02*
X166226190Y-127907200D01*
X166226190Y-127907200D02*
X166369047Y-127954819D01*
X166369047Y-127954819D02*
X166464285Y-127954819D01*
X165083333Y-127954819D02*
X165654761Y-127954819D01*
X165369047Y-127954819D02*
X165369047Y-126954819D01*
X165369047Y-126954819D02*
X165464285Y-127097676D01*
X165464285Y-127097676D02*
X165559523Y-127192914D01*
X165559523Y-127192914D02*
X165654761Y-127240533D01*
X152083333Y-126954819D02*
X152083333Y-127669104D01*
X152083333Y-127669104D02*
X152130952Y-127811961D01*
X152130952Y-127811961D02*
X152226190Y-127907200D01*
X152226190Y-127907200D02*
X152369047Y-127954819D01*
X152369047Y-127954819D02*
X152464285Y-127954819D01*
X151083333Y-127954819D02*
X151654761Y-127954819D01*
X151369047Y-127954819D02*
X151369047Y-126954819D01*
X151369047Y-126954819D02*
X151464285Y-127097676D01*
X151464285Y-127097676D02*
X151559523Y-127192914D01*
X151559523Y-127192914D02*
X151654761Y-127240533D01*
X138083333Y-126954819D02*
X138083333Y-127669104D01*
X138083333Y-127669104D02*
X138130952Y-127811961D01*
X138130952Y-127811961D02*
X138226190Y-127907200D01*
X138226190Y-127907200D02*
X138369047Y-127954819D01*
X138369047Y-127954819D02*
X138464285Y-127954819D01*
X137083333Y-127954819D02*
X137654761Y-127954819D01*
X137369047Y-127954819D02*
X137369047Y-126954819D01*
X137369047Y-126954819D02*
X137464285Y-127097676D01*
X137464285Y-127097676D02*
X137559523Y-127192914D01*
X137559523Y-127192914D02*
X137654761Y-127240533D01*
X124083333Y-126954819D02*
X124083333Y-127669104D01*
X124083333Y-127669104D02*
X124130952Y-127811961D01*
X124130952Y-127811961D02*
X124226190Y-127907200D01*
X124226190Y-127907200D02*
X124369047Y-127954819D01*
X124369047Y-127954819D02*
X124464285Y-127954819D01*
X123083333Y-127954819D02*
X123654761Y-127954819D01*
X123369047Y-127954819D02*
X123369047Y-126954819D01*
X123369047Y-126954819D02*
X123464285Y-127097676D01*
X123464285Y-127097676D02*
X123559523Y-127192914D01*
X123559523Y-127192914D02*
X123654761Y-127240533D01*
X110083333Y-126954819D02*
X110083333Y-127669104D01*
X110083333Y-127669104D02*
X110130952Y-127811961D01*
X110130952Y-127811961D02*
X110226190Y-127907200D01*
X110226190Y-127907200D02*
X110369047Y-127954819D01*
X110369047Y-127954819D02*
X110464285Y-127954819D01*
X109083333Y-127954819D02*
X109654761Y-127954819D01*
X109369047Y-127954819D02*
X109369047Y-126954819D01*
X109369047Y-126954819D02*
X109464285Y-127097676D01*
X109464285Y-127097676D02*
X109559523Y-127192914D01*
X109559523Y-127192914D02*
X109654761Y-127240533D01*
X96083333Y-126954819D02*
X96083333Y-127669104D01*
X96083333Y-127669104D02*
X96130952Y-127811961D01*
X96130952Y-127811961D02*
X96226190Y-127907200D01*
X96226190Y-127907200D02*
X96369047Y-127954819D01*
X96369047Y-127954819D02*
X96464285Y-127954819D01*
X95083333Y-127954819D02*
X95654761Y-127954819D01*
X95369047Y-127954819D02*
X95369047Y-126954819D01*
X95369047Y-126954819D02*
X95464285Y-127097676D01*
X95464285Y-127097676D02*
X95559523Y-127192914D01*
X95559523Y-127192914D02*
X95654761Y-127240533D01*
X180083333Y-110954819D02*
X180083333Y-111669104D01*
X180083333Y-111669104D02*
X180130952Y-111811961D01*
X180130952Y-111811961D02*
X180226190Y-111907200D01*
X180226190Y-111907200D02*
X180369047Y-111954819D01*
X180369047Y-111954819D02*
X180464285Y-111954819D01*
X179083333Y-111954819D02*
X179654761Y-111954819D01*
X179369047Y-111954819D02*
X179369047Y-110954819D01*
X179369047Y-110954819D02*
X179464285Y-111097676D01*
X179464285Y-111097676D02*
X179559523Y-111192914D01*
X179559523Y-111192914D02*
X179654761Y-111240533D01*
X166083333Y-110954819D02*
X166083333Y-111669104D01*
X166083333Y-111669104D02*
X166130952Y-111811961D01*
X166130952Y-111811961D02*
X166226190Y-111907200D01*
X166226190Y-111907200D02*
X166369047Y-111954819D01*
X166369047Y-111954819D02*
X166464285Y-111954819D01*
X165083333Y-111954819D02*
X165654761Y-111954819D01*
X165369047Y-111954819D02*
X165369047Y-110954819D01*
X165369047Y-110954819D02*
X165464285Y-111097676D01*
X165464285Y-111097676D02*
X165559523Y-111192914D01*
X165559523Y-111192914D02*
X165654761Y-111240533D01*
X152083333Y-110954819D02*
X152083333Y-111669104D01*
X152083333Y-111669104D02*
X152130952Y-111811961D01*
X152130952Y-111811961D02*
X152226190Y-111907200D01*
X152226190Y-111907200D02*
X152369047Y-111954819D01*
X152369047Y-111954819D02*
X152464285Y-111954819D01*
X151083333Y-111954819D02*
X151654761Y-111954819D01*
X151369047Y-111954819D02*
X151369047Y-110954819D01*
X151369047Y-110954819D02*
X151464285Y-111097676D01*
X151464285Y-111097676D02*
X151559523Y-111192914D01*
X151559523Y-111192914D02*
X151654761Y-111240533D01*
X138083333Y-110954819D02*
X138083333Y-111669104D01*
X138083333Y-111669104D02*
X138130952Y-111811961D01*
X138130952Y-111811961D02*
X138226190Y-111907200D01*
X138226190Y-111907200D02*
X138369047Y-111954819D01*
X138369047Y-111954819D02*
X138464285Y-111954819D01*
X137083333Y-111954819D02*
X137654761Y-111954819D01*
X137369047Y-111954819D02*
X137369047Y-110954819D01*
X137369047Y-110954819D02*
X137464285Y-111097676D01*
X137464285Y-111097676D02*
X137559523Y-111192914D01*
X137559523Y-111192914D02*
X137654761Y-111240533D01*
X124083333Y-110954819D02*
X124083333Y-111669104D01*
X124083333Y-111669104D02*
X124130952Y-111811961D01*
X124130952Y-111811961D02*
X124226190Y-111907200D01*
X124226190Y-111907200D02*
X124369047Y-111954819D01*
X124369047Y-111954819D02*
X124464285Y-111954819D01*
X123083333Y-111954819D02*
X123654761Y-111954819D01*
X123369047Y-111954819D02*
X123369047Y-110954819D01*
X123369047Y-110954819D02*
X123464285Y-111097676D01*
X123464285Y-111097676D02*
X123559523Y-111192914D01*
X123559523Y-111192914D02*
X123654761Y-111240533D01*
X110083333Y-110954819D02*
X110083333Y-111669104D01*
X110083333Y-111669104D02*
X110130952Y-111811961D01*
X110130952Y-111811961D02*
X110226190Y-111907200D01*
X110226190Y-111907200D02*
X110369047Y-111954819D01*
X110369047Y-111954819D02*
X110464285Y-111954819D01*
X109083333Y-111954819D02*
X109654761Y-111954819D01*
X109369047Y-111954819D02*
X109369047Y-110954819D01*
X109369047Y-110954819D02*
X109464285Y-111097676D01*
X109464285Y-111097676D02*
X109559523Y-111192914D01*
X109559523Y-111192914D02*
X109654761Y-111240533D01*
X96083333Y-110954819D02*
X96083333Y-111669104D01*
X96083333Y-111669104D02*
X96130952Y-111811961D01*
X96130952Y-111811961D02*
X96226190Y-111907200D01*
X96226190Y-111907200D02*
X96369047Y-111954819D01*
X96369047Y-111954819D02*
X96464285Y-111954819D01*
X95083333Y-111954819D02*
X95654761Y-111954819D01*
X95369047Y-111954819D02*
X95369047Y-110954819D01*
X95369047Y-110954819D02*
X95464285Y-111097676D01*
X95464285Y-111097676D02*
X95559523Y-111192914D01*
X95559523Y-111192914D02*
X95654761Y-111240533D01*
X180083333Y-94954819D02*
X180083333Y-95669104D01*
X180083333Y-95669104D02*
X180130952Y-95811961D01*
X180130952Y-95811961D02*
X180226190Y-95907200D01*
X180226190Y-95907200D02*
X180369047Y-95954819D01*
X180369047Y-95954819D02*
X180464285Y-95954819D01*
X179083333Y-95954819D02*
X179654761Y-95954819D01*
X179369047Y-95954819D02*
X179369047Y-94954819D01*
X179369047Y-94954819D02*
X179464285Y-95097676D01*
X179464285Y-95097676D02*
X179559523Y-95192914D01*
X179559523Y-95192914D02*
X179654761Y-95240533D01*
X166083333Y-94954819D02*
X166083333Y-95669104D01*
X166083333Y-95669104D02*
X166130952Y-95811961D01*
X166130952Y-95811961D02*
X166226190Y-95907200D01*
X166226190Y-95907200D02*
X166369047Y-95954819D01*
X166369047Y-95954819D02*
X166464285Y-95954819D01*
X165083333Y-95954819D02*
X165654761Y-95954819D01*
X165369047Y-95954819D02*
X165369047Y-94954819D01*
X165369047Y-94954819D02*
X165464285Y-95097676D01*
X165464285Y-95097676D02*
X165559523Y-95192914D01*
X165559523Y-95192914D02*
X165654761Y-95240533D01*
X152083333Y-94954819D02*
X152083333Y-95669104D01*
X152083333Y-95669104D02*
X152130952Y-95811961D01*
X152130952Y-95811961D02*
X152226190Y-95907200D01*
X152226190Y-95907200D02*
X152369047Y-95954819D01*
X152369047Y-95954819D02*
X152464285Y-95954819D01*
X151083333Y-95954819D02*
X151654761Y-95954819D01*
X151369047Y-95954819D02*
X151369047Y-94954819D01*
X151369047Y-94954819D02*
X151464285Y-95097676D01*
X151464285Y-95097676D02*
X151559523Y-95192914D01*
X151559523Y-95192914D02*
X151654761Y-95240533D01*
X138083333Y-94954819D02*
X138083333Y-95669104D01*
X138083333Y-95669104D02*
X138130952Y-95811961D01*
X138130952Y-95811961D02*
X138226190Y-95907200D01*
X138226190Y-95907200D02*
X138369047Y-95954819D01*
X138369047Y-95954819D02*
X138464285Y-95954819D01*
X137083333Y-95954819D02*
X137654761Y-95954819D01*
X137369047Y-95954819D02*
X137369047Y-94954819D01*
X137369047Y-94954819D02*
X137464285Y-95097676D01*
X137464285Y-95097676D02*
X137559523Y-95192914D01*
X137559523Y-95192914D02*
X137654761Y-95240533D01*
X124083333Y-94954819D02*
X124083333Y-95669104D01*
X124083333Y-95669104D02*
X124130952Y-95811961D01*
X124130952Y-95811961D02*
X124226190Y-95907200D01*
X124226190Y-95907200D02*
X124369047Y-95954819D01*
X124369047Y-95954819D02*
X124464285Y-95954819D01*
X123083333Y-95954819D02*
X123654761Y-95954819D01*
X123369047Y-95954819D02*
X123369047Y-94954819D01*
X123369047Y-94954819D02*
X123464285Y-95097676D01*
X123464285Y-95097676D02*
X123559523Y-95192914D01*
X123559523Y-95192914D02*
X123654761Y-95240533D01*
X110083333Y-94954819D02*
X110083333Y-95669104D01*
X110083333Y-95669104D02*
X110130952Y-95811961D01*
X110130952Y-95811961D02*
X110226190Y-95907200D01*
X110226190Y-95907200D02*
X110369047Y-95954819D01*
X110369047Y-95954819D02*
X110464285Y-95954819D01*
X109083333Y-95954819D02*
X109654761Y-95954819D01*
X109369047Y-95954819D02*
X109369047Y-94954819D01*
X109369047Y-94954819D02*
X109464285Y-95097676D01*
X109464285Y-95097676D02*
X109559523Y-95192914D01*
X109559523Y-95192914D02*
X109654761Y-95240533D01*
X96083333Y-94954819D02*
X96083333Y-95669104D01*
X96083333Y-95669104D02*
X96130952Y-95811961D01*
X96130952Y-95811961D02*
X96226190Y-95907200D01*
X96226190Y-95907200D02*
X96369047Y-95954819D01*
X96369047Y-95954819D02*
X96464285Y-95954819D01*
X95083333Y-95954819D02*
X95654761Y-95954819D01*
X95369047Y-95954819D02*
X95369047Y-94954819D01*
X95369047Y-94954819D02*
X95464285Y-95097676D01*
X95464285Y-95097676D02*
X95559523Y-95192914D01*
X95559523Y-95192914D02*
X95654761Y-95240533D01*
X180083333Y-78954819D02*
X180083333Y-79669104D01*
X180083333Y-79669104D02*
X180130952Y-79811961D01*
X180130952Y-79811961D02*
X180226190Y-79907200D01*
X180226190Y-79907200D02*
X180369047Y-79954819D01*
X180369047Y-79954819D02*
X180464285Y-79954819D01*
X179083333Y-79954819D02*
X179654761Y-79954819D01*
X179369047Y-79954819D02*
X179369047Y-78954819D01*
X179369047Y-78954819D02*
X179464285Y-79097676D01*
X179464285Y-79097676D02*
X179559523Y-79192914D01*
X179559523Y-79192914D02*
X179654761Y-79240533D01*
X166083333Y-78954819D02*
X166083333Y-79669104D01*
X166083333Y-79669104D02*
X166130952Y-79811961D01*
X166130952Y-79811961D02*
X166226190Y-79907200D01*
X166226190Y-79907200D02*
X166369047Y-79954819D01*
X166369047Y-79954819D02*
X166464285Y-79954819D01*
X165083333Y-79954819D02*
X165654761Y-79954819D01*
X165369047Y-79954819D02*
X165369047Y-78954819D01*
X165369047Y-78954819D02*
X165464285Y-79097676D01*
X165464285Y-79097676D02*
X165559523Y-79192914D01*
X165559523Y-79192914D02*
X165654761Y-79240533D01*
X152083333Y-78954819D02*
X152083333Y-79669104D01*
X152083333Y-79669104D02*
X152130952Y-79811961D01*
X152130952Y-79811961D02*
X152226190Y-79907200D01*
X152226190Y-79907200D02*
X152369047Y-79954819D01*
X152369047Y-79954819D02*
X152464285Y-79954819D01*
X151083333Y-79954819D02*
X151654761Y-79954819D01*
X151369047Y-79954819D02*
X151369047Y-78954819D01*
X151369047Y-78954819D02*
X151464285Y-79097676D01*
X151464285Y-79097676D02*
X151559523Y-79192914D01*
X151559523Y-79192914D02*
X151654761Y-79240533D01*
X138083333Y-78954819D02*
X138083333Y-79669104D01*
X138083333Y-79669104D02*
X138130952Y-79811961D01*
X138130952Y-79811961D02*
X138226190Y-79907200D01*
X138226190Y-79907200D02*
X138369047Y-79954819D01*
X138369047Y-79954819D02*
X138464285Y-79954819D01*
X137083333Y-79954819D02*
X137654761Y-79954819D01*
X137369047Y-79954819D02*
X137369047Y-78954819D01*
X137369047Y-78954819D02*
X137464285Y-79097676D01*
X137464285Y-79097676D02*
X137559523Y-79192914D01*
X137559523Y-79192914D02*
X137654761Y-79240533D01*
X124083333Y-78954819D02*
X124083333Y-79669104D01*
X124083333Y-79669104D02*
X124130952Y-79811961D01*
X124130952Y-79811961D02*
X124226190Y-79907200D01*
X124226190Y-79907200D02*
X124369047Y-79954819D01*
X124369047Y-79954819D02*
X124464285Y-79954819D01*
X123083333Y-79954819D02*
X123654761Y-79954819D01*
X123369047Y-79954819D02*
X123369047Y-78954819D01*
X123369047Y-78954819D02*
X123464285Y-79097676D01*
X123464285Y-79097676D02*
X123559523Y-79192914D01*
X123559523Y-79192914D02*
X123654761Y-79240533D01*
X110083333Y-78954819D02*
X110083333Y-79669104D01*
X110083333Y-79669104D02*
X110130952Y-79811961D01*
X110130952Y-79811961D02*
X110226190Y-79907200D01*
X110226190Y-79907200D02*
X110369047Y-79954819D01*
X110369047Y-79954819D02*
X110464285Y-79954819D01*
X109083333Y-79954819D02*
X109654761Y-79954819D01*
X109369047Y-79954819D02*
X109369047Y-78954819D01*
X109369047Y-78954819D02*
X109464285Y-79097676D01*
X109464285Y-79097676D02*
X109559523Y-79192914D01*
X109559523Y-79192914D02*
X109654761Y-79240533D01*
X96083333Y-78954819D02*
X96083333Y-79669104D01*
X96083333Y-79669104D02*
X96130952Y-79811961D01*
X96130952Y-79811961D02*
X96226190Y-79907200D01*
X96226190Y-79907200D02*
X96369047Y-79954819D01*
X96369047Y-79954819D02*
X96464285Y-79954819D01*
X95083333Y-79954819D02*
X95654761Y-79954819D01*
X95369047Y-79954819D02*
X95369047Y-78954819D01*
X95369047Y-78954819D02*
X95464285Y-79097676D01*
X95464285Y-79097676D02*
X95559523Y-79192914D01*
X95559523Y-79192914D02*
X95654761Y-79240533D01*
D11*
%TO.C,J1*%
X190150000Y-160450000D02*
X188650000Y-160450000D01*
X190150000Y-158710000D02*
X190150000Y-160450000D01*
X189910000Y-160210000D02*
X178590000Y-160210000D01*
X189910000Y-158650000D02*
X178590000Y-158650000D01*
X189910000Y-153090000D02*
X189910000Y-160210000D01*
X189910000Y-153090000D02*
X178590000Y-153090000D01*
X178590000Y-153090000D02*
X178590000Y-160210000D01*
X189182109Y-157157742D02*
G75*
G03*
X189182000Y-155942000I-1432109J607742D01*
G01*
X187722989Y-158105492D02*
G75*
G03*
X188358000Y-157981999I27013J1555480D01*
G01*
X187142413Y-157981385D02*
G75*
G03*
X187750000Y-158105000I607587J1431385D01*
G01*
X188357742Y-155117891D02*
G75*
G03*
X187142000Y-155118000I-607742J-1432109D01*
G01*
X186317892Y-155942258D02*
G75*
G03*
X186318001Y-157158000I1432111J-607743D01*
G01*
X185805000Y-156550000D02*
G75*
G03*
X182695000Y-156550000I-1555000J0D01*
G01*
X182695000Y-156550000D02*
G75*
G03*
X185805000Y-156550000I1555000J0D01*
G01*
X182305000Y-156550000D02*
G75*
G03*
X179195000Y-156550000I-1555000J0D01*
G01*
X179195000Y-156550000D02*
G75*
G03*
X182305000Y-156550000I1555000J0D01*
G01*
X176150000Y-160450000D02*
X174650000Y-160450000D01*
X176150000Y-158710000D02*
X176150000Y-160450000D01*
X175910000Y-160210000D02*
X164590000Y-160210000D01*
X175910000Y-158650000D02*
X164590000Y-158650000D01*
X175910000Y-153090000D02*
X175910000Y-160210000D01*
X175910000Y-153090000D02*
X164590000Y-153090000D01*
X164590000Y-153090000D02*
X164590000Y-160210000D01*
X175182109Y-157157742D02*
G75*
G03*
X175182000Y-155942000I-1432109J607742D01*
G01*
X173722989Y-158105492D02*
G75*
G03*
X174358000Y-157981999I27013J1555480D01*
G01*
X173142413Y-157981385D02*
G75*
G03*
X173750000Y-158105000I607587J1431385D01*
G01*
X174357742Y-155117891D02*
G75*
G03*
X173142000Y-155118000I-607742J-1432109D01*
G01*
X172317892Y-155942258D02*
G75*
G03*
X172318001Y-157158000I1432111J-607743D01*
G01*
X171805000Y-156550000D02*
G75*
G03*
X168695000Y-156550000I-1555000J0D01*
G01*
X168695000Y-156550000D02*
G75*
G03*
X171805000Y-156550000I1555000J0D01*
G01*
X168305000Y-156550000D02*
G75*
G03*
X165195000Y-156550000I-1555000J0D01*
G01*
X165195000Y-156550000D02*
G75*
G03*
X168305000Y-156550000I1555000J0D01*
G01*
X162150000Y-160450000D02*
X160650000Y-160450000D01*
X162150000Y-158710000D02*
X162150000Y-160450000D01*
X161910000Y-160210000D02*
X150590000Y-160210000D01*
X161910000Y-158650000D02*
X150590000Y-158650000D01*
X161910000Y-153090000D02*
X161910000Y-160210000D01*
X161910000Y-153090000D02*
X150590000Y-153090000D01*
X150590000Y-153090000D02*
X150590000Y-160210000D01*
X161182109Y-157157742D02*
G75*
G03*
X161182000Y-155942000I-1432109J607742D01*
G01*
X159722989Y-158105492D02*
G75*
G03*
X160358000Y-157981999I27013J1555480D01*
G01*
X159142413Y-157981385D02*
G75*
G03*
X159750000Y-158105000I607587J1431385D01*
G01*
X160357742Y-155117891D02*
G75*
G03*
X159142000Y-155118000I-607742J-1432109D01*
G01*
X158317892Y-155942258D02*
G75*
G03*
X158318001Y-157158000I1432111J-607743D01*
G01*
X157805000Y-156550000D02*
G75*
G03*
X154695000Y-156550000I-1555000J0D01*
G01*
X154695000Y-156550000D02*
G75*
G03*
X157805000Y-156550000I1555000J0D01*
G01*
X154305000Y-156550000D02*
G75*
G03*
X151195000Y-156550000I-1555000J0D01*
G01*
X151195000Y-156550000D02*
G75*
G03*
X154305000Y-156550000I1555000J0D01*
G01*
X148150000Y-160450000D02*
X146650000Y-160450000D01*
X148150000Y-158710000D02*
X148150000Y-160450000D01*
X147910000Y-160210000D02*
X136590000Y-160210000D01*
X147910000Y-158650000D02*
X136590000Y-158650000D01*
X147910000Y-153090000D02*
X147910000Y-160210000D01*
X147910000Y-153090000D02*
X136590000Y-153090000D01*
X136590000Y-153090000D02*
X136590000Y-160210000D01*
X147182109Y-157157742D02*
G75*
G03*
X147182000Y-155942000I-1432109J607742D01*
G01*
X145722989Y-158105492D02*
G75*
G03*
X146358000Y-157981999I27013J1555480D01*
G01*
X145142413Y-157981385D02*
G75*
G03*
X145750000Y-158105000I607587J1431385D01*
G01*
X146357742Y-155117891D02*
G75*
G03*
X145142000Y-155118000I-607742J-1432109D01*
G01*
X144317892Y-155942258D02*
G75*
G03*
X144318001Y-157158000I1432111J-607743D01*
G01*
X143805000Y-156550000D02*
G75*
G03*
X140695000Y-156550000I-1555000J0D01*
G01*
X140695000Y-156550000D02*
G75*
G03*
X143805000Y-156550000I1555000J0D01*
G01*
X140305000Y-156550000D02*
G75*
G03*
X137195000Y-156550000I-1555000J0D01*
G01*
X137195000Y-156550000D02*
G75*
G03*
X140305000Y-156550000I1555000J0D01*
G01*
X134150000Y-160450000D02*
X132650000Y-160450000D01*
X134150000Y-158710000D02*
X134150000Y-160450000D01*
X133910000Y-160210000D02*
X122590000Y-160210000D01*
X133910000Y-158650000D02*
X122590000Y-158650000D01*
X133910000Y-153090000D02*
X133910000Y-160210000D01*
X133910000Y-153090000D02*
X122590000Y-153090000D01*
X122590000Y-153090000D02*
X122590000Y-160210000D01*
X133182109Y-157157742D02*
G75*
G03*
X133182000Y-155942000I-1432109J607742D01*
G01*
X131722989Y-158105492D02*
G75*
G03*
X132358000Y-157981999I27013J1555480D01*
G01*
X131142413Y-157981385D02*
G75*
G03*
X131750000Y-158105000I607587J1431385D01*
G01*
X132357742Y-155117891D02*
G75*
G03*
X131142000Y-155118000I-607742J-1432109D01*
G01*
X130317892Y-155942258D02*
G75*
G03*
X130318001Y-157158000I1432111J-607743D01*
G01*
X129805000Y-156550000D02*
G75*
G03*
X126695000Y-156550000I-1555000J0D01*
G01*
X126695000Y-156550000D02*
G75*
G03*
X129805000Y-156550000I1555000J0D01*
G01*
X126305000Y-156550000D02*
G75*
G03*
X123195000Y-156550000I-1555000J0D01*
G01*
X123195000Y-156550000D02*
G75*
G03*
X126305000Y-156550000I1555000J0D01*
G01*
X120150000Y-160450000D02*
X118650000Y-160450000D01*
X120150000Y-158710000D02*
X120150000Y-160450000D01*
X119910000Y-160210000D02*
X108590000Y-160210000D01*
X119910000Y-158650000D02*
X108590000Y-158650000D01*
X119910000Y-153090000D02*
X119910000Y-160210000D01*
X119910000Y-153090000D02*
X108590000Y-153090000D01*
X108590000Y-153090000D02*
X108590000Y-160210000D01*
X119182109Y-157157742D02*
G75*
G03*
X119182000Y-155942000I-1432109J607742D01*
G01*
X117722989Y-158105492D02*
G75*
G03*
X118358000Y-157981999I27013J1555480D01*
G01*
X117142413Y-157981385D02*
G75*
G03*
X117750000Y-158105000I607587J1431385D01*
G01*
X118357742Y-155117891D02*
G75*
G03*
X117142000Y-155118000I-607742J-1432109D01*
G01*
X116317892Y-155942258D02*
G75*
G03*
X116318001Y-157158000I1432111J-607743D01*
G01*
X115805000Y-156550000D02*
G75*
G03*
X112695000Y-156550000I-1555000J0D01*
G01*
X112695000Y-156550000D02*
G75*
G03*
X115805000Y-156550000I1555000J0D01*
G01*
X112305000Y-156550000D02*
G75*
G03*
X109195000Y-156550000I-1555000J0D01*
G01*
X109195000Y-156550000D02*
G75*
G03*
X112305000Y-156550000I1555000J0D01*
G01*
X106150000Y-160450000D02*
X104650000Y-160450000D01*
X106150000Y-158710000D02*
X106150000Y-160450000D01*
X105910000Y-160210000D02*
X94590000Y-160210000D01*
X105910000Y-158650000D02*
X94590000Y-158650000D01*
X105910000Y-153090000D02*
X105910000Y-160210000D01*
X105910000Y-153090000D02*
X94590000Y-153090000D01*
X94590000Y-153090000D02*
X94590000Y-160210000D01*
X105182109Y-157157742D02*
G75*
G03*
X105182000Y-155942000I-1432109J607742D01*
G01*
X103722989Y-158105492D02*
G75*
G03*
X104358000Y-157981999I27013J1555480D01*
G01*
X103142413Y-157981385D02*
G75*
G03*
X103750000Y-158105000I607587J1431385D01*
G01*
X104357742Y-155117891D02*
G75*
G03*
X103142000Y-155118000I-607742J-1432109D01*
G01*
X102317892Y-155942258D02*
G75*
G03*
X102318001Y-157158000I1432111J-607743D01*
G01*
X101805000Y-156550000D02*
G75*
G03*
X98695000Y-156550000I-1555000J0D01*
G01*
X98695000Y-156550000D02*
G75*
G03*
X101805000Y-156550000I1555000J0D01*
G01*
X98305000Y-156550000D02*
G75*
G03*
X95195000Y-156550000I-1555000J0D01*
G01*
X95195000Y-156550000D02*
G75*
G03*
X98305000Y-156550000I1555000J0D01*
G01*
X190150000Y-144450000D02*
X188650000Y-144450000D01*
X190150000Y-142710000D02*
X190150000Y-144450000D01*
X189910000Y-144210000D02*
X178590000Y-144210000D01*
X189910000Y-142650000D02*
X178590000Y-142650000D01*
X189910000Y-137090000D02*
X189910000Y-144210000D01*
X189910000Y-137090000D02*
X178590000Y-137090000D01*
X178590000Y-137090000D02*
X178590000Y-144210000D01*
X189182109Y-141157742D02*
G75*
G03*
X189182000Y-139942000I-1432109J607742D01*
G01*
X187722989Y-142105492D02*
G75*
G03*
X188358000Y-141981999I27013J1555480D01*
G01*
X187142413Y-141981385D02*
G75*
G03*
X187750000Y-142105000I607587J1431385D01*
G01*
X188357742Y-139117891D02*
G75*
G03*
X187142000Y-139118000I-607742J-1432109D01*
G01*
X186317892Y-139942258D02*
G75*
G03*
X186318001Y-141158000I1432111J-607743D01*
G01*
X185805000Y-140550000D02*
G75*
G03*
X182695000Y-140550000I-1555000J0D01*
G01*
X182695000Y-140550000D02*
G75*
G03*
X185805000Y-140550000I1555000J0D01*
G01*
X182305000Y-140550000D02*
G75*
G03*
X179195000Y-140550000I-1555000J0D01*
G01*
X179195000Y-140550000D02*
G75*
G03*
X182305000Y-140550000I1555000J0D01*
G01*
X176150000Y-144450000D02*
X174650000Y-144450000D01*
X176150000Y-142710000D02*
X176150000Y-144450000D01*
X175910000Y-144210000D02*
X164590000Y-144210000D01*
X175910000Y-142650000D02*
X164590000Y-142650000D01*
X175910000Y-137090000D02*
X175910000Y-144210000D01*
X175910000Y-137090000D02*
X164590000Y-137090000D01*
X164590000Y-137090000D02*
X164590000Y-144210000D01*
X175182109Y-141157742D02*
G75*
G03*
X175182000Y-139942000I-1432109J607742D01*
G01*
X173722989Y-142105492D02*
G75*
G03*
X174358000Y-141981999I27013J1555480D01*
G01*
X173142413Y-141981385D02*
G75*
G03*
X173750000Y-142105000I607587J1431385D01*
G01*
X174357742Y-139117891D02*
G75*
G03*
X173142000Y-139118000I-607742J-1432109D01*
G01*
X172317892Y-139942258D02*
G75*
G03*
X172318001Y-141158000I1432111J-607743D01*
G01*
X171805000Y-140550000D02*
G75*
G03*
X168695000Y-140550000I-1555000J0D01*
G01*
X168695000Y-140550000D02*
G75*
G03*
X171805000Y-140550000I1555000J0D01*
G01*
X168305000Y-140550000D02*
G75*
G03*
X165195000Y-140550000I-1555000J0D01*
G01*
X165195000Y-140550000D02*
G75*
G03*
X168305000Y-140550000I1555000J0D01*
G01*
X162150000Y-144450000D02*
X160650000Y-144450000D01*
X162150000Y-142710000D02*
X162150000Y-144450000D01*
X161910000Y-144210000D02*
X150590000Y-144210000D01*
X161910000Y-142650000D02*
X150590000Y-142650000D01*
X161910000Y-137090000D02*
X161910000Y-144210000D01*
X161910000Y-137090000D02*
X150590000Y-137090000D01*
X150590000Y-137090000D02*
X150590000Y-144210000D01*
X161182109Y-141157742D02*
G75*
G03*
X161182000Y-139942000I-1432109J607742D01*
G01*
X159722989Y-142105492D02*
G75*
G03*
X160358000Y-141981999I27013J1555480D01*
G01*
X159142413Y-141981385D02*
G75*
G03*
X159750000Y-142105000I607587J1431385D01*
G01*
X160357742Y-139117891D02*
G75*
G03*
X159142000Y-139118000I-607742J-1432109D01*
G01*
X158317892Y-139942258D02*
G75*
G03*
X158318001Y-141158000I1432111J-607743D01*
G01*
X157805000Y-140550000D02*
G75*
G03*
X154695000Y-140550000I-1555000J0D01*
G01*
X154695000Y-140550000D02*
G75*
G03*
X157805000Y-140550000I1555000J0D01*
G01*
X154305000Y-140550000D02*
G75*
G03*
X151195000Y-140550000I-1555000J0D01*
G01*
X151195000Y-140550000D02*
G75*
G03*
X154305000Y-140550000I1555000J0D01*
G01*
X148150000Y-144450000D02*
X146650000Y-144450000D01*
X148150000Y-142710000D02*
X148150000Y-144450000D01*
X147910000Y-144210000D02*
X136590000Y-144210000D01*
X147910000Y-142650000D02*
X136590000Y-142650000D01*
X147910000Y-137090000D02*
X147910000Y-144210000D01*
X147910000Y-137090000D02*
X136590000Y-137090000D01*
X136590000Y-137090000D02*
X136590000Y-144210000D01*
X147182109Y-141157742D02*
G75*
G03*
X147182000Y-139942000I-1432109J607742D01*
G01*
X145722989Y-142105492D02*
G75*
G03*
X146358000Y-141981999I27013J1555480D01*
G01*
X145142413Y-141981385D02*
G75*
G03*
X145750000Y-142105000I607587J1431385D01*
G01*
X146357742Y-139117891D02*
G75*
G03*
X145142000Y-139118000I-607742J-1432109D01*
G01*
X144317892Y-139942258D02*
G75*
G03*
X144318001Y-141158000I1432111J-607743D01*
G01*
X143805000Y-140550000D02*
G75*
G03*
X140695000Y-140550000I-1555000J0D01*
G01*
X140695000Y-140550000D02*
G75*
G03*
X143805000Y-140550000I1555000J0D01*
G01*
X140305000Y-140550000D02*
G75*
G03*
X137195000Y-140550000I-1555000J0D01*
G01*
X137195000Y-140550000D02*
G75*
G03*
X140305000Y-140550000I1555000J0D01*
G01*
X134150000Y-144450000D02*
X132650000Y-144450000D01*
X134150000Y-142710000D02*
X134150000Y-144450000D01*
X133910000Y-144210000D02*
X122590000Y-144210000D01*
X133910000Y-142650000D02*
X122590000Y-142650000D01*
X133910000Y-137090000D02*
X133910000Y-144210000D01*
X133910000Y-137090000D02*
X122590000Y-137090000D01*
X122590000Y-137090000D02*
X122590000Y-144210000D01*
X133182109Y-141157742D02*
G75*
G03*
X133182000Y-139942000I-1432109J607742D01*
G01*
X131722989Y-142105492D02*
G75*
G03*
X132358000Y-141981999I27013J1555480D01*
G01*
X131142413Y-141981385D02*
G75*
G03*
X131750000Y-142105000I607587J1431385D01*
G01*
X132357742Y-139117891D02*
G75*
G03*
X131142000Y-139118000I-607742J-1432109D01*
G01*
X130317892Y-139942258D02*
G75*
G03*
X130318001Y-141158000I1432111J-607743D01*
G01*
X129805000Y-140550000D02*
G75*
G03*
X126695000Y-140550000I-1555000J0D01*
G01*
X126695000Y-140550000D02*
G75*
G03*
X129805000Y-140550000I1555000J0D01*
G01*
X126305000Y-140550000D02*
G75*
G03*
X123195000Y-140550000I-1555000J0D01*
G01*
X123195000Y-140550000D02*
G75*
G03*
X126305000Y-140550000I1555000J0D01*
G01*
X120150000Y-144450000D02*
X118650000Y-144450000D01*
X120150000Y-142710000D02*
X120150000Y-144450000D01*
X119910000Y-144210000D02*
X108590000Y-144210000D01*
X119910000Y-142650000D02*
X108590000Y-142650000D01*
X119910000Y-137090000D02*
X119910000Y-144210000D01*
X119910000Y-137090000D02*
X108590000Y-137090000D01*
X108590000Y-137090000D02*
X108590000Y-144210000D01*
X119182109Y-141157742D02*
G75*
G03*
X119182000Y-139942000I-1432109J607742D01*
G01*
X117722989Y-142105492D02*
G75*
G03*
X118358000Y-141981999I27013J1555480D01*
G01*
X117142413Y-141981385D02*
G75*
G03*
X117750000Y-142105000I607587J1431385D01*
G01*
X118357742Y-139117891D02*
G75*
G03*
X117142000Y-139118000I-607742J-1432109D01*
G01*
X116317892Y-139942258D02*
G75*
G03*
X116318001Y-141158000I1432111J-607743D01*
G01*
X115805000Y-140550000D02*
G75*
G03*
X112695000Y-140550000I-1555000J0D01*
G01*
X112695000Y-140550000D02*
G75*
G03*
X115805000Y-140550000I1555000J0D01*
G01*
X112305000Y-140550000D02*
G75*
G03*
X109195000Y-140550000I-1555000J0D01*
G01*
X109195000Y-140550000D02*
G75*
G03*
X112305000Y-140550000I1555000J0D01*
G01*
X106150000Y-144450000D02*
X104650000Y-144450000D01*
X106150000Y-142710000D02*
X106150000Y-144450000D01*
X105910000Y-144210000D02*
X94590000Y-144210000D01*
X105910000Y-142650000D02*
X94590000Y-142650000D01*
X105910000Y-137090000D02*
X105910000Y-144210000D01*
X105910000Y-137090000D02*
X94590000Y-137090000D01*
X94590000Y-137090000D02*
X94590000Y-144210000D01*
X105182109Y-141157742D02*
G75*
G03*
X105182000Y-139942000I-1432109J607742D01*
G01*
X103722989Y-142105492D02*
G75*
G03*
X104358000Y-141981999I27013J1555480D01*
G01*
X103142413Y-141981385D02*
G75*
G03*
X103750000Y-142105000I607587J1431385D01*
G01*
X104357742Y-139117891D02*
G75*
G03*
X103142000Y-139118000I-607742J-1432109D01*
G01*
X102317892Y-139942258D02*
G75*
G03*
X102318001Y-141158000I1432111J-607743D01*
G01*
X101805000Y-140550000D02*
G75*
G03*
X98695000Y-140550000I-1555000J0D01*
G01*
X98695000Y-140550000D02*
G75*
G03*
X101805000Y-140550000I1555000J0D01*
G01*
X98305000Y-140550000D02*
G75*
G03*
X95195000Y-140550000I-1555000J0D01*
G01*
X95195000Y-140550000D02*
G75*
G03*
X98305000Y-140550000I1555000J0D01*
G01*
X190150000Y-128450000D02*
X188650000Y-128450000D01*
X190150000Y-126710000D02*
X190150000Y-128450000D01*
X189910000Y-128210000D02*
X178590000Y-128210000D01*
X189910000Y-126650000D02*
X178590000Y-126650000D01*
X189910000Y-121090000D02*
X189910000Y-128210000D01*
X189910000Y-121090000D02*
X178590000Y-121090000D01*
X178590000Y-121090000D02*
X178590000Y-128210000D01*
X189182109Y-125157742D02*
G75*
G03*
X189182000Y-123942000I-1432109J607742D01*
G01*
X187722989Y-126105492D02*
G75*
G03*
X188358000Y-125981999I27013J1555480D01*
G01*
X187142413Y-125981385D02*
G75*
G03*
X187750000Y-126105000I607587J1431385D01*
G01*
X188357742Y-123117891D02*
G75*
G03*
X187142000Y-123118000I-607742J-1432109D01*
G01*
X186317892Y-123942258D02*
G75*
G03*
X186318001Y-125158000I1432111J-607743D01*
G01*
X185805000Y-124550000D02*
G75*
G03*
X182695000Y-124550000I-1555000J0D01*
G01*
X182695000Y-124550000D02*
G75*
G03*
X185805000Y-124550000I1555000J0D01*
G01*
X182305000Y-124550000D02*
G75*
G03*
X179195000Y-124550000I-1555000J0D01*
G01*
X179195000Y-124550000D02*
G75*
G03*
X182305000Y-124550000I1555000J0D01*
G01*
X176150000Y-128450000D02*
X174650000Y-128450000D01*
X176150000Y-126710000D02*
X176150000Y-128450000D01*
X175910000Y-128210000D02*
X164590000Y-128210000D01*
X175910000Y-126650000D02*
X164590000Y-126650000D01*
X175910000Y-121090000D02*
X175910000Y-128210000D01*
X175910000Y-121090000D02*
X164590000Y-121090000D01*
X164590000Y-121090000D02*
X164590000Y-128210000D01*
X175182109Y-125157742D02*
G75*
G03*
X175182000Y-123942000I-1432109J607742D01*
G01*
X173722989Y-126105492D02*
G75*
G03*
X174358000Y-125981999I27013J1555480D01*
G01*
X173142413Y-125981385D02*
G75*
G03*
X173750000Y-126105000I607587J1431385D01*
G01*
X174357742Y-123117891D02*
G75*
G03*
X173142000Y-123118000I-607742J-1432109D01*
G01*
X172317892Y-123942258D02*
G75*
G03*
X172318001Y-125158000I1432111J-607743D01*
G01*
X171805000Y-124550000D02*
G75*
G03*
X168695000Y-124550000I-1555000J0D01*
G01*
X168695000Y-124550000D02*
G75*
G03*
X171805000Y-124550000I1555000J0D01*
G01*
X168305000Y-124550000D02*
G75*
G03*
X165195000Y-124550000I-1555000J0D01*
G01*
X165195000Y-124550000D02*
G75*
G03*
X168305000Y-124550000I1555000J0D01*
G01*
X162150000Y-128450000D02*
X160650000Y-128450000D01*
X162150000Y-126710000D02*
X162150000Y-128450000D01*
X161910000Y-128210000D02*
X150590000Y-128210000D01*
X161910000Y-126650000D02*
X150590000Y-126650000D01*
X161910000Y-121090000D02*
X161910000Y-128210000D01*
X161910000Y-121090000D02*
X150590000Y-121090000D01*
X150590000Y-121090000D02*
X150590000Y-128210000D01*
X161182109Y-125157742D02*
G75*
G03*
X161182000Y-123942000I-1432109J607742D01*
G01*
X159722989Y-126105492D02*
G75*
G03*
X160358000Y-125981999I27013J1555480D01*
G01*
X159142413Y-125981385D02*
G75*
G03*
X159750000Y-126105000I607587J1431385D01*
G01*
X160357742Y-123117891D02*
G75*
G03*
X159142000Y-123118000I-607742J-1432109D01*
G01*
X158317892Y-123942258D02*
G75*
G03*
X158318001Y-125158000I1432111J-607743D01*
G01*
X157805000Y-124550000D02*
G75*
G03*
X154695000Y-124550000I-1555000J0D01*
G01*
X154695000Y-124550000D02*
G75*
G03*
X157805000Y-124550000I1555000J0D01*
G01*
X154305000Y-124550000D02*
G75*
G03*
X151195000Y-124550000I-1555000J0D01*
G01*
X151195000Y-124550000D02*
G75*
G03*
X154305000Y-124550000I1555000J0D01*
G01*
X148150000Y-128450000D02*
X146650000Y-128450000D01*
X148150000Y-126710000D02*
X148150000Y-128450000D01*
X147910000Y-128210000D02*
X136590000Y-128210000D01*
X147910000Y-126650000D02*
X136590000Y-126650000D01*
X147910000Y-121090000D02*
X147910000Y-128210000D01*
X147910000Y-121090000D02*
X136590000Y-121090000D01*
X136590000Y-121090000D02*
X136590000Y-128210000D01*
X147182109Y-125157742D02*
G75*
G03*
X147182000Y-123942000I-1432109J607742D01*
G01*
X145722989Y-126105492D02*
G75*
G03*
X146358000Y-125981999I27013J1555480D01*
G01*
X145142413Y-125981385D02*
G75*
G03*
X145750000Y-126105000I607587J1431385D01*
G01*
X146357742Y-123117891D02*
G75*
G03*
X145142000Y-123118000I-607742J-1432109D01*
G01*
X144317892Y-123942258D02*
G75*
G03*
X144318001Y-125158000I1432111J-607743D01*
G01*
X143805000Y-124550000D02*
G75*
G03*
X140695000Y-124550000I-1555000J0D01*
G01*
X140695000Y-124550000D02*
G75*
G03*
X143805000Y-124550000I1555000J0D01*
G01*
X140305000Y-124550000D02*
G75*
G03*
X137195000Y-124550000I-1555000J0D01*
G01*
X137195000Y-124550000D02*
G75*
G03*
X140305000Y-124550000I1555000J0D01*
G01*
X134150000Y-128450000D02*
X132650000Y-128450000D01*
X134150000Y-126710000D02*
X134150000Y-128450000D01*
X133910000Y-128210000D02*
X122590000Y-128210000D01*
X133910000Y-126650000D02*
X122590000Y-126650000D01*
X133910000Y-121090000D02*
X133910000Y-128210000D01*
X133910000Y-121090000D02*
X122590000Y-121090000D01*
X122590000Y-121090000D02*
X122590000Y-128210000D01*
X133182109Y-125157742D02*
G75*
G03*
X133182000Y-123942000I-1432109J607742D01*
G01*
X131722989Y-126105492D02*
G75*
G03*
X132358000Y-125981999I27013J1555480D01*
G01*
X131142413Y-125981385D02*
G75*
G03*
X131750000Y-126105000I607587J1431385D01*
G01*
X132357742Y-123117891D02*
G75*
G03*
X131142000Y-123118000I-607742J-1432109D01*
G01*
X130317892Y-123942258D02*
G75*
G03*
X130318001Y-125158000I1432111J-607743D01*
G01*
X129805000Y-124550000D02*
G75*
G03*
X126695000Y-124550000I-1555000J0D01*
G01*
X126695000Y-124550000D02*
G75*
G03*
X129805000Y-124550000I1555000J0D01*
G01*
X126305000Y-124550000D02*
G75*
G03*
X123195000Y-124550000I-1555000J0D01*
G01*
X123195000Y-124550000D02*
G75*
G03*
X126305000Y-124550000I1555000J0D01*
G01*
X120150000Y-128450000D02*
X118650000Y-128450000D01*
X120150000Y-126710000D02*
X120150000Y-128450000D01*
X119910000Y-128210000D02*
X108590000Y-128210000D01*
X119910000Y-126650000D02*
X108590000Y-126650000D01*
X119910000Y-121090000D02*
X119910000Y-128210000D01*
X119910000Y-121090000D02*
X108590000Y-121090000D01*
X108590000Y-121090000D02*
X108590000Y-128210000D01*
X119182109Y-125157742D02*
G75*
G03*
X119182000Y-123942000I-1432109J607742D01*
G01*
X117722989Y-126105492D02*
G75*
G03*
X118358000Y-125981999I27013J1555480D01*
G01*
X117142413Y-125981385D02*
G75*
G03*
X117750000Y-126105000I607587J1431385D01*
G01*
X118357742Y-123117891D02*
G75*
G03*
X117142000Y-123118000I-607742J-1432109D01*
G01*
X116317892Y-123942258D02*
G75*
G03*
X116318001Y-125158000I1432111J-607743D01*
G01*
X115805000Y-124550000D02*
G75*
G03*
X112695000Y-124550000I-1555000J0D01*
G01*
X112695000Y-124550000D02*
G75*
G03*
X115805000Y-124550000I1555000J0D01*
G01*
X112305000Y-124550000D02*
G75*
G03*
X109195000Y-124550000I-1555000J0D01*
G01*
X109195000Y-124550000D02*
G75*
G03*
X112305000Y-124550000I1555000J0D01*
G01*
X106150000Y-128450000D02*
X104650000Y-128450000D01*
X106150000Y-126710000D02*
X106150000Y-128450000D01*
X105910000Y-128210000D02*
X94590000Y-128210000D01*
X105910000Y-126650000D02*
X94590000Y-126650000D01*
X105910000Y-121090000D02*
X105910000Y-128210000D01*
X105910000Y-121090000D02*
X94590000Y-121090000D01*
X94590000Y-121090000D02*
X94590000Y-128210000D01*
X105182109Y-125157742D02*
G75*
G03*
X105182000Y-123942000I-1432109J607742D01*
G01*
X103722989Y-126105492D02*
G75*
G03*
X104358000Y-125981999I27013J1555480D01*
G01*
X103142413Y-125981385D02*
G75*
G03*
X103750000Y-126105000I607587J1431385D01*
G01*
X104357742Y-123117891D02*
G75*
G03*
X103142000Y-123118000I-607742J-1432109D01*
G01*
X102317892Y-123942258D02*
G75*
G03*
X102318001Y-125158000I1432111J-607743D01*
G01*
X101805000Y-124550000D02*
G75*
G03*
X98695000Y-124550000I-1555000J0D01*
G01*
X98695000Y-124550000D02*
G75*
G03*
X101805000Y-124550000I1555000J0D01*
G01*
X98305000Y-124550000D02*
G75*
G03*
X95195000Y-124550000I-1555000J0D01*
G01*
X95195000Y-124550000D02*
G75*
G03*
X98305000Y-124550000I1555000J0D01*
G01*
X190150000Y-112450000D02*
X188650000Y-112450000D01*
X190150000Y-110710000D02*
X190150000Y-112450000D01*
X189910000Y-112210000D02*
X178590000Y-112210000D01*
X189910000Y-110650000D02*
X178590000Y-110650000D01*
X189910000Y-105090000D02*
X189910000Y-112210000D01*
X189910000Y-105090000D02*
X178590000Y-105090000D01*
X178590000Y-105090000D02*
X178590000Y-112210000D01*
X189182109Y-109157742D02*
G75*
G03*
X189182000Y-107942000I-1432109J607742D01*
G01*
X187722989Y-110105492D02*
G75*
G03*
X188358000Y-109981999I27013J1555480D01*
G01*
X187142413Y-109981385D02*
G75*
G03*
X187750000Y-110105000I607587J1431385D01*
G01*
X188357742Y-107117891D02*
G75*
G03*
X187142000Y-107118000I-607742J-1432109D01*
G01*
X186317892Y-107942258D02*
G75*
G03*
X186318001Y-109158000I1432111J-607743D01*
G01*
X185805000Y-108550000D02*
G75*
G03*
X182695000Y-108550000I-1555000J0D01*
G01*
X182695000Y-108550000D02*
G75*
G03*
X185805000Y-108550000I1555000J0D01*
G01*
X182305000Y-108550000D02*
G75*
G03*
X179195000Y-108550000I-1555000J0D01*
G01*
X179195000Y-108550000D02*
G75*
G03*
X182305000Y-108550000I1555000J0D01*
G01*
X176150000Y-112450000D02*
X174650000Y-112450000D01*
X176150000Y-110710000D02*
X176150000Y-112450000D01*
X175910000Y-112210000D02*
X164590000Y-112210000D01*
X175910000Y-110650000D02*
X164590000Y-110650000D01*
X175910000Y-105090000D02*
X175910000Y-112210000D01*
X175910000Y-105090000D02*
X164590000Y-105090000D01*
X164590000Y-105090000D02*
X164590000Y-112210000D01*
X175182109Y-109157742D02*
G75*
G03*
X175182000Y-107942000I-1432109J607742D01*
G01*
X173722989Y-110105492D02*
G75*
G03*
X174358000Y-109981999I27013J1555480D01*
G01*
X173142413Y-109981385D02*
G75*
G03*
X173750000Y-110105000I607587J1431385D01*
G01*
X174357742Y-107117891D02*
G75*
G03*
X173142000Y-107118000I-607742J-1432109D01*
G01*
X172317892Y-107942258D02*
G75*
G03*
X172318001Y-109158000I1432111J-607743D01*
G01*
X171805000Y-108550000D02*
G75*
G03*
X168695000Y-108550000I-1555000J0D01*
G01*
X168695000Y-108550000D02*
G75*
G03*
X171805000Y-108550000I1555000J0D01*
G01*
X168305000Y-108550000D02*
G75*
G03*
X165195000Y-108550000I-1555000J0D01*
G01*
X165195000Y-108550000D02*
G75*
G03*
X168305000Y-108550000I1555000J0D01*
G01*
X162150000Y-112450000D02*
X160650000Y-112450000D01*
X162150000Y-110710000D02*
X162150000Y-112450000D01*
X161910000Y-112210000D02*
X150590000Y-112210000D01*
X161910000Y-110650000D02*
X150590000Y-110650000D01*
X161910000Y-105090000D02*
X161910000Y-112210000D01*
X161910000Y-105090000D02*
X150590000Y-105090000D01*
X150590000Y-105090000D02*
X150590000Y-112210000D01*
X161182109Y-109157742D02*
G75*
G03*
X161182000Y-107942000I-1432109J607742D01*
G01*
X159722989Y-110105492D02*
G75*
G03*
X160358000Y-109981999I27013J1555480D01*
G01*
X159142413Y-109981385D02*
G75*
G03*
X159750000Y-110105000I607587J1431385D01*
G01*
X160357742Y-107117891D02*
G75*
G03*
X159142000Y-107118000I-607742J-1432109D01*
G01*
X158317892Y-107942258D02*
G75*
G03*
X158318001Y-109158000I1432111J-607743D01*
G01*
X157805000Y-108550000D02*
G75*
G03*
X154695000Y-108550000I-1555000J0D01*
G01*
X154695000Y-108550000D02*
G75*
G03*
X157805000Y-108550000I1555000J0D01*
G01*
X154305000Y-108550000D02*
G75*
G03*
X151195000Y-108550000I-1555000J0D01*
G01*
X151195000Y-108550000D02*
G75*
G03*
X154305000Y-108550000I1555000J0D01*
G01*
X148150000Y-112450000D02*
X146650000Y-112450000D01*
X148150000Y-110710000D02*
X148150000Y-112450000D01*
X147910000Y-112210000D02*
X136590000Y-112210000D01*
X147910000Y-110650000D02*
X136590000Y-110650000D01*
X147910000Y-105090000D02*
X147910000Y-112210000D01*
X147910000Y-105090000D02*
X136590000Y-105090000D01*
X136590000Y-105090000D02*
X136590000Y-112210000D01*
X147182109Y-109157742D02*
G75*
G03*
X147182000Y-107942000I-1432109J607742D01*
G01*
X145722989Y-110105492D02*
G75*
G03*
X146358000Y-109981999I27013J1555480D01*
G01*
X145142413Y-109981385D02*
G75*
G03*
X145750000Y-110105000I607587J1431385D01*
G01*
X146357742Y-107117891D02*
G75*
G03*
X145142000Y-107118000I-607742J-1432109D01*
G01*
X144317892Y-107942258D02*
G75*
G03*
X144318001Y-109158000I1432111J-607743D01*
G01*
X143805000Y-108550000D02*
G75*
G03*
X140695000Y-108550000I-1555000J0D01*
G01*
X140695000Y-108550000D02*
G75*
G03*
X143805000Y-108550000I1555000J0D01*
G01*
X140305000Y-108550000D02*
G75*
G03*
X137195000Y-108550000I-1555000J0D01*
G01*
X137195000Y-108550000D02*
G75*
G03*
X140305000Y-108550000I1555000J0D01*
G01*
X134150000Y-112450000D02*
X132650000Y-112450000D01*
X134150000Y-110710000D02*
X134150000Y-112450000D01*
X133910000Y-112210000D02*
X122590000Y-112210000D01*
X133910000Y-110650000D02*
X122590000Y-110650000D01*
X133910000Y-105090000D02*
X133910000Y-112210000D01*
X133910000Y-105090000D02*
X122590000Y-105090000D01*
X122590000Y-105090000D02*
X122590000Y-112210000D01*
X133182109Y-109157742D02*
G75*
G03*
X133182000Y-107942000I-1432109J607742D01*
G01*
X131722989Y-110105492D02*
G75*
G03*
X132358000Y-109981999I27013J1555480D01*
G01*
X131142413Y-109981385D02*
G75*
G03*
X131750000Y-110105000I607587J1431385D01*
G01*
X132357742Y-107117891D02*
G75*
G03*
X131142000Y-107118000I-607742J-1432109D01*
G01*
X130317892Y-107942258D02*
G75*
G03*
X130318001Y-109158000I1432111J-607743D01*
G01*
X129805000Y-108550000D02*
G75*
G03*
X126695000Y-108550000I-1555000J0D01*
G01*
X126695000Y-108550000D02*
G75*
G03*
X129805000Y-108550000I1555000J0D01*
G01*
X126305000Y-108550000D02*
G75*
G03*
X123195000Y-108550000I-1555000J0D01*
G01*
X123195000Y-108550000D02*
G75*
G03*
X126305000Y-108550000I1555000J0D01*
G01*
X120150000Y-112450000D02*
X118650000Y-112450000D01*
X120150000Y-110710000D02*
X120150000Y-112450000D01*
X119910000Y-112210000D02*
X108590000Y-112210000D01*
X119910000Y-110650000D02*
X108590000Y-110650000D01*
X119910000Y-105090000D02*
X119910000Y-112210000D01*
X119910000Y-105090000D02*
X108590000Y-105090000D01*
X108590000Y-105090000D02*
X108590000Y-112210000D01*
X119182109Y-109157742D02*
G75*
G03*
X119182000Y-107942000I-1432109J607742D01*
G01*
X117722989Y-110105492D02*
G75*
G03*
X118358000Y-109981999I27013J1555480D01*
G01*
X117142413Y-109981385D02*
G75*
G03*
X117750000Y-110105000I607587J1431385D01*
G01*
X118357742Y-107117891D02*
G75*
G03*
X117142000Y-107118000I-607742J-1432109D01*
G01*
X116317892Y-107942258D02*
G75*
G03*
X116318001Y-109158000I1432111J-607743D01*
G01*
X115805000Y-108550000D02*
G75*
G03*
X112695000Y-108550000I-1555000J0D01*
G01*
X112695000Y-108550000D02*
G75*
G03*
X115805000Y-108550000I1555000J0D01*
G01*
X112305000Y-108550000D02*
G75*
G03*
X109195000Y-108550000I-1555000J0D01*
G01*
X109195000Y-108550000D02*
G75*
G03*
X112305000Y-108550000I1555000J0D01*
G01*
X106150000Y-112450000D02*
X104650000Y-112450000D01*
X106150000Y-110710000D02*
X106150000Y-112450000D01*
X105910000Y-112210000D02*
X94590000Y-112210000D01*
X105910000Y-110650000D02*
X94590000Y-110650000D01*
X105910000Y-105090000D02*
X105910000Y-112210000D01*
X105910000Y-105090000D02*
X94590000Y-105090000D01*
X94590000Y-105090000D02*
X94590000Y-112210000D01*
X105182109Y-109157742D02*
G75*
G03*
X105182000Y-107942000I-1432109J607742D01*
G01*
X103722989Y-110105492D02*
G75*
G03*
X104358000Y-109981999I27013J1555480D01*
G01*
X103142413Y-109981385D02*
G75*
G03*
X103750000Y-110105000I607587J1431385D01*
G01*
X104357742Y-107117891D02*
G75*
G03*
X103142000Y-107118000I-607742J-1432109D01*
G01*
X102317892Y-107942258D02*
G75*
G03*
X102318001Y-109158000I1432111J-607743D01*
G01*
X101805000Y-108550000D02*
G75*
G03*
X98695000Y-108550000I-1555000J0D01*
G01*
X98695000Y-108550000D02*
G75*
G03*
X101805000Y-108550000I1555000J0D01*
G01*
X98305000Y-108550000D02*
G75*
G03*
X95195000Y-108550000I-1555000J0D01*
G01*
X95195000Y-108550000D02*
G75*
G03*
X98305000Y-108550000I1555000J0D01*
G01*
X190150000Y-96450000D02*
X188650000Y-96450000D01*
X190150000Y-94710000D02*
X190150000Y-96450000D01*
X189910000Y-96210000D02*
X178590000Y-96210000D01*
X189910000Y-94650000D02*
X178590000Y-94650000D01*
X189910000Y-89090000D02*
X189910000Y-96210000D01*
X189910000Y-89090000D02*
X178590000Y-89090000D01*
X178590000Y-89090000D02*
X178590000Y-96210000D01*
X189182109Y-93157742D02*
G75*
G03*
X189182000Y-91942000I-1432109J607742D01*
G01*
X187722989Y-94105492D02*
G75*
G03*
X188358000Y-93981999I27013J1555480D01*
G01*
X187142413Y-93981385D02*
G75*
G03*
X187750000Y-94105000I607587J1431385D01*
G01*
X188357742Y-91117891D02*
G75*
G03*
X187142000Y-91118000I-607742J-1432109D01*
G01*
X186317892Y-91942258D02*
G75*
G03*
X186318001Y-93158000I1432111J-607743D01*
G01*
X185805000Y-92550000D02*
G75*
G03*
X182695000Y-92550000I-1555000J0D01*
G01*
X182695000Y-92550000D02*
G75*
G03*
X185805000Y-92550000I1555000J0D01*
G01*
X182305000Y-92550000D02*
G75*
G03*
X179195000Y-92550000I-1555000J0D01*
G01*
X179195000Y-92550000D02*
G75*
G03*
X182305000Y-92550000I1555000J0D01*
G01*
X176150000Y-96450000D02*
X174650000Y-96450000D01*
X176150000Y-94710000D02*
X176150000Y-96450000D01*
X175910000Y-96210000D02*
X164590000Y-96210000D01*
X175910000Y-94650000D02*
X164590000Y-94650000D01*
X175910000Y-89090000D02*
X175910000Y-96210000D01*
X175910000Y-89090000D02*
X164590000Y-89090000D01*
X164590000Y-89090000D02*
X164590000Y-96210000D01*
X175182109Y-93157742D02*
G75*
G03*
X175182000Y-91942000I-1432109J607742D01*
G01*
X173722989Y-94105492D02*
G75*
G03*
X174358000Y-93981999I27013J1555480D01*
G01*
X173142413Y-93981385D02*
G75*
G03*
X173750000Y-94105000I607587J1431385D01*
G01*
X174357742Y-91117891D02*
G75*
G03*
X173142000Y-91118000I-607742J-1432109D01*
G01*
X172317892Y-91942258D02*
G75*
G03*
X172318001Y-93158000I1432111J-607743D01*
G01*
X171805000Y-92550000D02*
G75*
G03*
X168695000Y-92550000I-1555000J0D01*
G01*
X168695000Y-92550000D02*
G75*
G03*
X171805000Y-92550000I1555000J0D01*
G01*
X168305000Y-92550000D02*
G75*
G03*
X165195000Y-92550000I-1555000J0D01*
G01*
X165195000Y-92550000D02*
G75*
G03*
X168305000Y-92550000I1555000J0D01*
G01*
X162150000Y-96450000D02*
X160650000Y-96450000D01*
X162150000Y-94710000D02*
X162150000Y-96450000D01*
X161910000Y-96210000D02*
X150590000Y-96210000D01*
X161910000Y-94650000D02*
X150590000Y-94650000D01*
X161910000Y-89090000D02*
X161910000Y-96210000D01*
X161910000Y-89090000D02*
X150590000Y-89090000D01*
X150590000Y-89090000D02*
X150590000Y-96210000D01*
X161182109Y-93157742D02*
G75*
G03*
X161182000Y-91942000I-1432109J607742D01*
G01*
X159722989Y-94105492D02*
G75*
G03*
X160358000Y-93981999I27013J1555480D01*
G01*
X159142413Y-93981385D02*
G75*
G03*
X159750000Y-94105000I607587J1431385D01*
G01*
X160357742Y-91117891D02*
G75*
G03*
X159142000Y-91118000I-607742J-1432109D01*
G01*
X158317892Y-91942258D02*
G75*
G03*
X158318001Y-93158000I1432111J-607743D01*
G01*
X157805000Y-92550000D02*
G75*
G03*
X154695000Y-92550000I-1555000J0D01*
G01*
X154695000Y-92550000D02*
G75*
G03*
X157805000Y-92550000I1555000J0D01*
G01*
X154305000Y-92550000D02*
G75*
G03*
X151195000Y-92550000I-1555000J0D01*
G01*
X151195000Y-92550000D02*
G75*
G03*
X154305000Y-92550000I1555000J0D01*
G01*
X148150000Y-96450000D02*
X146650000Y-96450000D01*
X148150000Y-94710000D02*
X148150000Y-96450000D01*
X147910000Y-96210000D02*
X136590000Y-96210000D01*
X147910000Y-94650000D02*
X136590000Y-94650000D01*
X147910000Y-89090000D02*
X147910000Y-96210000D01*
X147910000Y-89090000D02*
X136590000Y-89090000D01*
X136590000Y-89090000D02*
X136590000Y-96210000D01*
X147182109Y-93157742D02*
G75*
G03*
X147182000Y-91942000I-1432109J607742D01*
G01*
X145722989Y-94105492D02*
G75*
G03*
X146358000Y-93981999I27013J1555480D01*
G01*
X145142413Y-93981385D02*
G75*
G03*
X145750000Y-94105000I607587J1431385D01*
G01*
X146357742Y-91117891D02*
G75*
G03*
X145142000Y-91118000I-607742J-1432109D01*
G01*
X144317892Y-91942258D02*
G75*
G03*
X144318001Y-93158000I1432111J-607743D01*
G01*
X143805000Y-92550000D02*
G75*
G03*
X140695000Y-92550000I-1555000J0D01*
G01*
X140695000Y-92550000D02*
G75*
G03*
X143805000Y-92550000I1555000J0D01*
G01*
X140305000Y-92550000D02*
G75*
G03*
X137195000Y-92550000I-1555000J0D01*
G01*
X137195000Y-92550000D02*
G75*
G03*
X140305000Y-92550000I1555000J0D01*
G01*
X134150000Y-96450000D02*
X132650000Y-96450000D01*
X134150000Y-94710000D02*
X134150000Y-96450000D01*
X133910000Y-96210000D02*
X122590000Y-96210000D01*
X133910000Y-94650000D02*
X122590000Y-94650000D01*
X133910000Y-89090000D02*
X133910000Y-96210000D01*
X133910000Y-89090000D02*
X122590000Y-89090000D01*
X122590000Y-89090000D02*
X122590000Y-96210000D01*
X133182109Y-93157742D02*
G75*
G03*
X133182000Y-91942000I-1432109J607742D01*
G01*
X131722989Y-94105492D02*
G75*
G03*
X132358000Y-93981999I27013J1555480D01*
G01*
X131142413Y-93981385D02*
G75*
G03*
X131750000Y-94105000I607587J1431385D01*
G01*
X132357742Y-91117891D02*
G75*
G03*
X131142000Y-91118000I-607742J-1432109D01*
G01*
X130317892Y-91942258D02*
G75*
G03*
X130318001Y-93158000I1432111J-607743D01*
G01*
X129805000Y-92550000D02*
G75*
G03*
X126695000Y-92550000I-1555000J0D01*
G01*
X126695000Y-92550000D02*
G75*
G03*
X129805000Y-92550000I1555000J0D01*
G01*
X126305000Y-92550000D02*
G75*
G03*
X123195000Y-92550000I-1555000J0D01*
G01*
X123195000Y-92550000D02*
G75*
G03*
X126305000Y-92550000I1555000J0D01*
G01*
X120150000Y-96450000D02*
X118650000Y-96450000D01*
X120150000Y-94710000D02*
X120150000Y-96450000D01*
X119910000Y-96210000D02*
X108590000Y-96210000D01*
X119910000Y-94650000D02*
X108590000Y-94650000D01*
X119910000Y-89090000D02*
X119910000Y-96210000D01*
X119910000Y-89090000D02*
X108590000Y-89090000D01*
X108590000Y-89090000D02*
X108590000Y-96210000D01*
X119182109Y-93157742D02*
G75*
G03*
X119182000Y-91942000I-1432109J607742D01*
G01*
X117722989Y-94105492D02*
G75*
G03*
X118358000Y-93981999I27013J1555480D01*
G01*
X117142413Y-93981385D02*
G75*
G03*
X117750000Y-94105000I607587J1431385D01*
G01*
X118357742Y-91117891D02*
G75*
G03*
X117142000Y-91118000I-607742J-1432109D01*
G01*
X116317892Y-91942258D02*
G75*
G03*
X116318001Y-93158000I1432111J-607743D01*
G01*
X115805000Y-92550000D02*
G75*
G03*
X112695000Y-92550000I-1555000J0D01*
G01*
X112695000Y-92550000D02*
G75*
G03*
X115805000Y-92550000I1555000J0D01*
G01*
X112305000Y-92550000D02*
G75*
G03*
X109195000Y-92550000I-1555000J0D01*
G01*
X109195000Y-92550000D02*
G75*
G03*
X112305000Y-92550000I1555000J0D01*
G01*
X106150000Y-96450000D02*
X104650000Y-96450000D01*
X106150000Y-94710000D02*
X106150000Y-96450000D01*
X105910000Y-96210000D02*
X94590000Y-96210000D01*
X105910000Y-94650000D02*
X94590000Y-94650000D01*
X105910000Y-89090000D02*
X105910000Y-96210000D01*
X105910000Y-89090000D02*
X94590000Y-89090000D01*
X94590000Y-89090000D02*
X94590000Y-96210000D01*
X105182109Y-93157742D02*
G75*
G03*
X105182000Y-91942000I-1432109J607742D01*
G01*
X103722989Y-94105492D02*
G75*
G03*
X104358000Y-93981999I27013J1555480D01*
G01*
X103142413Y-93981385D02*
G75*
G03*
X103750000Y-94105000I607587J1431385D01*
G01*
X104357742Y-91117891D02*
G75*
G03*
X103142000Y-91118000I-607742J-1432109D01*
G01*
X102317892Y-91942258D02*
G75*
G03*
X102318001Y-93158000I1432111J-607743D01*
G01*
X101805000Y-92550000D02*
G75*
G03*
X98695000Y-92550000I-1555000J0D01*
G01*
X98695000Y-92550000D02*
G75*
G03*
X101805000Y-92550000I1555000J0D01*
G01*
X98305000Y-92550000D02*
G75*
G03*
X95195000Y-92550000I-1555000J0D01*
G01*
X95195000Y-92550000D02*
G75*
G03*
X98305000Y-92550000I1555000J0D01*
G01*
X190150000Y-80450000D02*
X188650000Y-80450000D01*
X190150000Y-78710000D02*
X190150000Y-80450000D01*
X189910000Y-80210000D02*
X178590000Y-80210000D01*
X189910000Y-78650000D02*
X178590000Y-78650000D01*
X189910000Y-73090000D02*
X189910000Y-80210000D01*
X189910000Y-73090000D02*
X178590000Y-73090000D01*
X178590000Y-73090000D02*
X178590000Y-80210000D01*
X189182109Y-77157742D02*
G75*
G03*
X189182000Y-75942000I-1432109J607742D01*
G01*
X187722989Y-78105492D02*
G75*
G03*
X188358000Y-77981999I27013J1555480D01*
G01*
X187142413Y-77981385D02*
G75*
G03*
X187750000Y-78105000I607587J1431385D01*
G01*
X188357742Y-75117891D02*
G75*
G03*
X187142000Y-75118000I-607742J-1432109D01*
G01*
X186317892Y-75942258D02*
G75*
G03*
X186318001Y-77158000I1432111J-607743D01*
G01*
X185805000Y-76550000D02*
G75*
G03*
X182695000Y-76550000I-1555000J0D01*
G01*
X182695000Y-76550000D02*
G75*
G03*
X185805000Y-76550000I1555000J0D01*
G01*
X182305000Y-76550000D02*
G75*
G03*
X179195000Y-76550000I-1555000J0D01*
G01*
X179195000Y-76550000D02*
G75*
G03*
X182305000Y-76550000I1555000J0D01*
G01*
X176150000Y-80450000D02*
X174650000Y-80450000D01*
X176150000Y-78710000D02*
X176150000Y-80450000D01*
X175910000Y-80210000D02*
X164590000Y-80210000D01*
X175910000Y-78650000D02*
X164590000Y-78650000D01*
X175910000Y-73090000D02*
X175910000Y-80210000D01*
X175910000Y-73090000D02*
X164590000Y-73090000D01*
X164590000Y-73090000D02*
X164590000Y-80210000D01*
X175182109Y-77157742D02*
G75*
G03*
X175182000Y-75942000I-1432109J607742D01*
G01*
X173722989Y-78105492D02*
G75*
G03*
X174358000Y-77981999I27013J1555480D01*
G01*
X173142413Y-77981385D02*
G75*
G03*
X173750000Y-78105000I607587J1431385D01*
G01*
X174357742Y-75117891D02*
G75*
G03*
X173142000Y-75118000I-607742J-1432109D01*
G01*
X172317892Y-75942258D02*
G75*
G03*
X172318001Y-77158000I1432111J-607743D01*
G01*
X171805000Y-76550000D02*
G75*
G03*
X168695000Y-76550000I-1555000J0D01*
G01*
X168695000Y-76550000D02*
G75*
G03*
X171805000Y-76550000I1555000J0D01*
G01*
X168305000Y-76550000D02*
G75*
G03*
X165195000Y-76550000I-1555000J0D01*
G01*
X165195000Y-76550000D02*
G75*
G03*
X168305000Y-76550000I1555000J0D01*
G01*
X162150000Y-80450000D02*
X160650000Y-80450000D01*
X162150000Y-78710000D02*
X162150000Y-80450000D01*
X161910000Y-80210000D02*
X150590000Y-80210000D01*
X161910000Y-78650000D02*
X150590000Y-78650000D01*
X161910000Y-73090000D02*
X161910000Y-80210000D01*
X161910000Y-73090000D02*
X150590000Y-73090000D01*
X150590000Y-73090000D02*
X150590000Y-80210000D01*
X161182109Y-77157742D02*
G75*
G03*
X161182000Y-75942000I-1432109J607742D01*
G01*
X159722989Y-78105492D02*
G75*
G03*
X160358000Y-77981999I27013J1555480D01*
G01*
X159142413Y-77981385D02*
G75*
G03*
X159750000Y-78105000I607587J1431385D01*
G01*
X160357742Y-75117891D02*
G75*
G03*
X159142000Y-75118000I-607742J-1432109D01*
G01*
X158317892Y-75942258D02*
G75*
G03*
X158318001Y-77158000I1432111J-607743D01*
G01*
X157805000Y-76550000D02*
G75*
G03*
X154695000Y-76550000I-1555000J0D01*
G01*
X154695000Y-76550000D02*
G75*
G03*
X157805000Y-76550000I1555000J0D01*
G01*
X154305000Y-76550000D02*
G75*
G03*
X151195000Y-76550000I-1555000J0D01*
G01*
X151195000Y-76550000D02*
G75*
G03*
X154305000Y-76550000I1555000J0D01*
G01*
X148150000Y-80450000D02*
X146650000Y-80450000D01*
X148150000Y-78710000D02*
X148150000Y-80450000D01*
X147910000Y-80210000D02*
X136590000Y-80210000D01*
X147910000Y-78650000D02*
X136590000Y-78650000D01*
X147910000Y-73090000D02*
X147910000Y-80210000D01*
X147910000Y-73090000D02*
X136590000Y-73090000D01*
X136590000Y-73090000D02*
X136590000Y-80210000D01*
X147182109Y-77157742D02*
G75*
G03*
X147182000Y-75942000I-1432109J607742D01*
G01*
X145722989Y-78105492D02*
G75*
G03*
X146358000Y-77981999I27013J1555480D01*
G01*
X145142413Y-77981385D02*
G75*
G03*
X145750000Y-78105000I607587J1431385D01*
G01*
X146357742Y-75117891D02*
G75*
G03*
X145142000Y-75118000I-607742J-1432109D01*
G01*
X144317892Y-75942258D02*
G75*
G03*
X144318001Y-77158000I1432111J-607743D01*
G01*
X143805000Y-76550000D02*
G75*
G03*
X140695000Y-76550000I-1555000J0D01*
G01*
X140695000Y-76550000D02*
G75*
G03*
X143805000Y-76550000I1555000J0D01*
G01*
X140305000Y-76550000D02*
G75*
G03*
X137195000Y-76550000I-1555000J0D01*
G01*
X137195000Y-76550000D02*
G75*
G03*
X140305000Y-76550000I1555000J0D01*
G01*
X134150000Y-80450000D02*
X132650000Y-80450000D01*
X134150000Y-78710000D02*
X134150000Y-80450000D01*
X133910000Y-80210000D02*
X122590000Y-80210000D01*
X133910000Y-78650000D02*
X122590000Y-78650000D01*
X133910000Y-73090000D02*
X133910000Y-80210000D01*
X133910000Y-73090000D02*
X122590000Y-73090000D01*
X122590000Y-73090000D02*
X122590000Y-80210000D01*
X133182109Y-77157742D02*
G75*
G03*
X133182000Y-75942000I-1432109J607742D01*
G01*
X131722989Y-78105492D02*
G75*
G03*
X132358000Y-77981999I27013J1555480D01*
G01*
X131142413Y-77981385D02*
G75*
G03*
X131750000Y-78105000I607587J1431385D01*
G01*
X132357742Y-75117891D02*
G75*
G03*
X131142000Y-75118000I-607742J-1432109D01*
G01*
X130317892Y-75942258D02*
G75*
G03*
X130318001Y-77158000I1432111J-607743D01*
G01*
X129805000Y-76550000D02*
G75*
G03*
X126695000Y-76550000I-1555000J0D01*
G01*
X126695000Y-76550000D02*
G75*
G03*
X129805000Y-76550000I1555000J0D01*
G01*
X126305000Y-76550000D02*
G75*
G03*
X123195000Y-76550000I-1555000J0D01*
G01*
X123195000Y-76550000D02*
G75*
G03*
X126305000Y-76550000I1555000J0D01*
G01*
X120150000Y-80450000D02*
X118650000Y-80450000D01*
X120150000Y-78710000D02*
X120150000Y-80450000D01*
X119910000Y-80210000D02*
X108590000Y-80210000D01*
X119910000Y-78650000D02*
X108590000Y-78650000D01*
X119910000Y-73090000D02*
X119910000Y-80210000D01*
X119910000Y-73090000D02*
X108590000Y-73090000D01*
X108590000Y-73090000D02*
X108590000Y-80210000D01*
X119182109Y-77157742D02*
G75*
G03*
X119182000Y-75942000I-1432109J607742D01*
G01*
X117722989Y-78105492D02*
G75*
G03*
X118358000Y-77981999I27013J1555480D01*
G01*
X117142413Y-77981385D02*
G75*
G03*
X117750000Y-78105000I607587J1431385D01*
G01*
X118357742Y-75117891D02*
G75*
G03*
X117142000Y-75118000I-607742J-1432109D01*
G01*
X116317892Y-75942258D02*
G75*
G03*
X116318001Y-77158000I1432111J-607743D01*
G01*
X115805000Y-76550000D02*
G75*
G03*
X112695000Y-76550000I-1555000J0D01*
G01*
X112695000Y-76550000D02*
G75*
G03*
X115805000Y-76550000I1555000J0D01*
G01*
X112305000Y-76550000D02*
G75*
G03*
X109195000Y-76550000I-1555000J0D01*
G01*
X109195000Y-76550000D02*
G75*
G03*
X112305000Y-76550000I1555000J0D01*
G01*
X106150000Y-80450000D02*
X104650000Y-80450000D01*
X106150000Y-78710000D02*
X106150000Y-80450000D01*
X105910000Y-80210000D02*
X94590000Y-80210000D01*
X105910000Y-78650000D02*
X94590000Y-78650000D01*
X105910000Y-73090000D02*
X105910000Y-80210000D01*
X105910000Y-73090000D02*
X94590000Y-73090000D01*
X94590000Y-73090000D02*
X94590000Y-80210000D01*
X105182109Y-77157742D02*
G75*
G03*
X105182000Y-75942000I-1432109J607742D01*
G01*
X103722989Y-78105492D02*
G75*
G03*
X104358000Y-77981999I27013J1555480D01*
G01*
X103142413Y-77981385D02*
G75*
G03*
X103750000Y-78105000I607587J1431385D01*
G01*
X104357742Y-75117891D02*
G75*
G03*
X103142000Y-75118000I-607742J-1432109D01*
G01*
X102317892Y-75942258D02*
G75*
G03*
X102318001Y-77158000I1432111J-607743D01*
G01*
X101805000Y-76550000D02*
G75*
G03*
X98695000Y-76550000I-1555000J0D01*
G01*
X98695000Y-76550000D02*
G75*
G03*
X101805000Y-76550000I1555000J0D01*
G01*
X98305000Y-76550000D02*
G75*
G03*
X95195000Y-76550000I-1555000J0D01*
G01*
X95195000Y-76550000D02*
G75*
G03*
X98305000Y-76550000I1555000J0D01*
G01*
%TD*%
D12*
X177250000Y-144750000D02*
X191250000Y-144750000D01*
X191250000Y-160750000D01*
X177250000Y-160750000D01*
X177250000Y-144750000D01*
X163250000Y-144750000D02*
X177250000Y-144750000D01*
X177250000Y-160750000D01*
X163250000Y-160750000D01*
X163250000Y-144750000D01*
X149250000Y-144750000D02*
X163250000Y-144750000D01*
X163250000Y-160750000D01*
X149250000Y-160750000D01*
X149250000Y-144750000D01*
X135250000Y-144750000D02*
X149250000Y-144750000D01*
X149250000Y-160750000D01*
X135250000Y-160750000D01*
X135250000Y-144750000D01*
X121250000Y-144750000D02*
X135250000Y-144750000D01*
X135250000Y-160750000D01*
X121250000Y-160750000D01*
X121250000Y-144750000D01*
X107250000Y-144750000D02*
X121250000Y-144750000D01*
X121250000Y-160750000D01*
X107250000Y-160750000D01*
X107250000Y-144750000D01*
X93250000Y-144750000D02*
X107250000Y-144750000D01*
X107250000Y-160750000D01*
X93250000Y-160750000D01*
X93250000Y-144750000D01*
X177250000Y-128750000D02*
X191250000Y-128750000D01*
X191250000Y-144750000D01*
X177250000Y-144750000D01*
X177250000Y-128750000D01*
X163250000Y-128750000D02*
X177250000Y-128750000D01*
X177250000Y-144750000D01*
X163250000Y-144750000D01*
X163250000Y-128750000D01*
X149250000Y-128750000D02*
X163250000Y-128750000D01*
X163250000Y-144750000D01*
X149250000Y-144750000D01*
X149250000Y-128750000D01*
X135250000Y-128750000D02*
X149250000Y-128750000D01*
X149250000Y-144750000D01*
X135250000Y-144750000D01*
X135250000Y-128750000D01*
X121250000Y-128750000D02*
X135250000Y-128750000D01*
X135250000Y-144750000D01*
X121250000Y-144750000D01*
X121250000Y-128750000D01*
X107250000Y-128750000D02*
X121250000Y-128750000D01*
X121250000Y-144750000D01*
X107250000Y-144750000D01*
X107250000Y-128750000D01*
X93250000Y-128750000D02*
X107250000Y-128750000D01*
X107250000Y-144750000D01*
X93250000Y-144750000D01*
X93250000Y-128750000D01*
X177250000Y-112750000D02*
X191250000Y-112750000D01*
X191250000Y-128750000D01*
X177250000Y-128750000D01*
X177250000Y-112750000D01*
X163250000Y-112750000D02*
X177250000Y-112750000D01*
X177250000Y-128750000D01*
X163250000Y-128750000D01*
X163250000Y-112750000D01*
X149250000Y-112750000D02*
X163250000Y-112750000D01*
X163250000Y-128750000D01*
X149250000Y-128750000D01*
X149250000Y-112750000D01*
X135250000Y-112750000D02*
X149250000Y-112750000D01*
X149250000Y-128750000D01*
X135250000Y-128750000D01*
X135250000Y-112750000D01*
X121250000Y-112750000D02*
X135250000Y-112750000D01*
X135250000Y-128750000D01*
X121250000Y-128750000D01*
X121250000Y-112750000D01*
X107250000Y-112750000D02*
X121250000Y-112750000D01*
X121250000Y-128750000D01*
X107250000Y-128750000D01*
X107250000Y-112750000D01*
X93250000Y-112750000D02*
X107250000Y-112750000D01*
X107250000Y-128750000D01*
X93250000Y-128750000D01*
X93250000Y-112750000D01*
X177250000Y-96750000D02*
X191250000Y-96750000D01*
X191250000Y-112750000D01*
X177250000Y-112750000D01*
X177250000Y-96750000D01*
X163250000Y-96750000D02*
X177250000Y-96750000D01*
X177250000Y-112750000D01*
X163250000Y-112750000D01*
X163250000Y-96750000D01*
X149250000Y-96750000D02*
X163250000Y-96750000D01*
X163250000Y-112750000D01*
X149250000Y-112750000D01*
X149250000Y-96750000D01*
X135250000Y-96750000D02*
X149250000Y-96750000D01*
X149250000Y-112750000D01*
X135250000Y-112750000D01*
X135250000Y-96750000D01*
X121250000Y-96750000D02*
X135250000Y-96750000D01*
X135250000Y-112750000D01*
X121250000Y-112750000D01*
X121250000Y-96750000D01*
X107250000Y-96750000D02*
X121250000Y-96750000D01*
X121250000Y-112750000D01*
X107250000Y-112750000D01*
X107250000Y-96750000D01*
X93250000Y-96750000D02*
X107250000Y-96750000D01*
X107250000Y-112750000D01*
X93250000Y-112750000D01*
X93250000Y-96750000D01*
X177250000Y-80750000D02*
X191250000Y-80750000D01*
X191250000Y-96750000D01*
X177250000Y-96750000D01*
X177250000Y-80750000D01*
X163250000Y-80750000D02*
X177250000Y-80750000D01*
X177250000Y-96750000D01*
X163250000Y-96750000D01*
X163250000Y-80750000D01*
X149250000Y-80750000D02*
X163250000Y-80750000D01*
X163250000Y-96750000D01*
X149250000Y-96750000D01*
X149250000Y-80750000D01*
X135250000Y-80750000D02*
X149250000Y-80750000D01*
X149250000Y-96750000D01*
X135250000Y-96750000D01*
X135250000Y-80750000D01*
X121250000Y-80750000D02*
X135250000Y-80750000D01*
X135250000Y-96750000D01*
X121250000Y-96750000D01*
X121250000Y-80750000D01*
X107250000Y-80750000D02*
X121250000Y-80750000D01*
X121250000Y-96750000D01*
X107250000Y-96750000D01*
X107250000Y-80750000D01*
X93250000Y-80750000D02*
X107250000Y-80750000D01*
X107250000Y-96750000D01*
X93250000Y-96750000D01*
X93250000Y-80750000D01*
X177250000Y-64750000D02*
X191250000Y-64750000D01*
X191250000Y-80750000D01*
X177250000Y-80750000D01*
X177250000Y-64750000D01*
X163250000Y-64750000D02*
X177250000Y-64750000D01*
X177250000Y-80750000D01*
X163250000Y-80750000D01*
X163250000Y-64750000D01*
X149250000Y-64750000D02*
X163250000Y-64750000D01*
X163250000Y-80750000D01*
X149250000Y-80750000D01*
X149250000Y-64750000D01*
X135250000Y-64750000D02*
X149250000Y-64750000D01*
X149250000Y-80750000D01*
X135250000Y-80750000D01*
X135250000Y-64750000D01*
X121250000Y-64750000D02*
X135250000Y-64750000D01*
X135250000Y-80750000D01*
X121250000Y-80750000D01*
X121250000Y-64750000D01*
X107250000Y-64750000D02*
X121250000Y-64750000D01*
X121250000Y-80750000D01*
X107250000Y-80750000D01*
X107250000Y-64750000D01*
X93250000Y-64750000D02*
X107250000Y-64750000D01*
X107250000Y-80750000D01*
X93250000Y-80750000D01*
X93250000Y-64750000D01*
M02*
