%TF.GenerationSoftware,KiCad,Pcbnew,7.0.11+dfsg-1build4*%
%TF.CreationDate,2026-09-16T20:56:58-05:00*%
%TF.ProjectId,,58585858-5858-4585-9858-585858585858,rev?*%
%TF.SameCoordinates,Original*%
%TF.FileFunction,Paste,Top*%
%TF.FilePolarity,Positive*%
%FSLAX46Y46*%
G04 Gerber Fmt 4.6, Leading zero omitted, Abs format (unit mm)*
G04 Created by KiCad (PCBNEW 7.0.11+dfsg-1build4) date 2026-09-16 20:56:58*
%MOMM*%
%LPD*%
G01*
G04 APERTURE LIST*
%TA.AperFunction,Profile*%
%ADD10C,0.050000*%
%TD*%
G04 APERTURE END LIST*
D10*
X177250000Y-144750000D02*
X191250000Y-144750000D01*
X191250000Y-160750000D01*
X177250000Y-160750000D01*
X177250000Y-144750000D01*
X163250000Y-144750000D02*
X177250000Y-144750000D01*
X177250000Y-160750000D01*
X163250000Y-160750000D01*
X163250000Y-144750000D01*
X149250000Y-144750000D02*
X163250000Y-144750000D01*
X163250000Y-160750000D01*
X149250000Y-160750000D01*
X149250000Y-144750000D01*
X135250000Y-144750000D02*
X149250000Y-144750000D01*
X149250000Y-160750000D01*
X135250000Y-160750000D01*
X135250000Y-144750000D01*
X121250000Y-144750000D02*
X135250000Y-144750000D01*
X135250000Y-160750000D01*
X121250000Y-160750000D01*
X121250000Y-144750000D01*
X107250000Y-144750000D02*
X121250000Y-144750000D01*
X121250000Y-160750000D01*
X107250000Y-160750000D01*
X107250000Y-144750000D01*
X93250000Y-144750000D02*
X107250000Y-144750000D01*
X107250000Y-160750000D01*
X93250000Y-160750000D01*
X93250000Y-144750000D01*
X177250000Y-128750000D02*
X191250000Y-128750000D01*
X191250000Y-144750000D01*
X177250000Y-144750000D01*
X177250000Y-128750000D01*
X163250000Y-128750000D02*
X177250000Y-128750000D01*
X177250000Y-144750000D01*
X163250000Y-144750000D01*
X163250000Y-128750000D01*
X149250000Y-128750000D02*
X163250000Y-128750000D01*
X163250000Y-144750000D01*
X149250000Y-144750000D01*
X149250000Y-128750000D01*
X135250000Y-128750000D02*
X149250000Y-128750000D01*
X149250000Y-144750000D01*
X135250000Y-144750000D01*
X135250000Y-128750000D01*
X121250000Y-128750000D02*
X135250000Y-128750000D01*
X135250000Y-144750000D01*
X121250000Y-144750000D01*
X121250000Y-128750000D01*
X107250000Y-128750000D02*
X121250000Y-128750000D01*
X121250000Y-144750000D01*
X107250000Y-144750000D01*
X107250000Y-128750000D01*
X93250000Y-128750000D02*
X107250000Y-128750000D01*
X107250000Y-144750000D01*
X93250000Y-144750000D01*
X93250000Y-128750000D01*
X177250000Y-112750000D02*
X191250000Y-112750000D01*
X191250000Y-128750000D01*
X177250000Y-128750000D01*
X177250000Y-112750000D01*
X163250000Y-112750000D02*
X177250000Y-112750000D01*
X177250000Y-128750000D01*
X163250000Y-128750000D01*
X163250000Y-112750000D01*
X149250000Y-112750000D02*
X163250000Y-112750000D01*
X163250000Y-128750000D01*
X149250000Y-128750000D01*
X149250000Y-112750000D01*
X135250000Y-112750000D02*
X149250000Y-112750000D01*
X149250000Y-128750000D01*
X135250000Y-128750000D01*
X135250000Y-112750000D01*
X121250000Y-112750000D02*
X135250000Y-112750000D01*
X135250000Y-128750000D01*
X121250000Y-128750000D01*
X121250000Y-112750000D01*
X107250000Y-112750000D02*
X121250000Y-112750000D01*
X121250000Y-128750000D01*
X107250000Y-128750000D01*
X107250000Y-112750000D01*
X93250000Y-112750000D02*
X107250000Y-112750000D01*
X107250000Y-128750000D01*
X93250000Y-128750000D01*
X93250000Y-112750000D01*
X177250000Y-96750000D02*
X191250000Y-96750000D01*
X191250000Y-112750000D01*
X177250000Y-112750000D01*
X177250000Y-96750000D01*
X163250000Y-96750000D02*
X177250000Y-96750000D01*
X177250000Y-112750000D01*
X163250000Y-112750000D01*
X163250000Y-96750000D01*
X149250000Y-96750000D02*
X163250000Y-96750000D01*
X163250000Y-112750000D01*
X149250000Y-112750000D01*
X149250000Y-96750000D01*
X135250000Y-96750000D02*
X149250000Y-96750000D01*
X149250000Y-112750000D01*
X135250000Y-112750000D01*
X135250000Y-96750000D01*
X121250000Y-96750000D02*
X135250000Y-96750000D01*
X135250000Y-112750000D01*
X121250000Y-112750000D01*
X121250000Y-96750000D01*
X107250000Y-96750000D02*
X121250000Y-96750000D01*
X121250000Y-112750000D01*
X107250000Y-112750000D01*
X107250000Y-96750000D01*
X93250000Y-96750000D02*
X107250000Y-96750000D01*
X107250000Y-112750000D01*
X93250000Y-112750000D01*
X93250000Y-96750000D01*
X177250000Y-80750000D02*
X191250000Y-80750000D01*
X191250000Y-96750000D01*
X177250000Y-96750000D01*
X177250000Y-80750000D01*
X163250000Y-80750000D02*
X177250000Y-80750000D01*
X177250000Y-96750000D01*
X163250000Y-96750000D01*
X163250000Y-80750000D01*
X149250000Y-80750000D02*
X163250000Y-80750000D01*
X163250000Y-96750000D01*
X149250000Y-96750000D01*
X149250000Y-80750000D01*
X135250000Y-80750000D02*
X149250000Y-80750000D01*
X149250000Y-96750000D01*
X135250000Y-96750000D01*
X135250000Y-80750000D01*
X121250000Y-80750000D02*
X135250000Y-80750000D01*
X135250000Y-96750000D01*
X121250000Y-96750000D01*
X121250000Y-80750000D01*
X107250000Y-80750000D02*
X121250000Y-80750000D01*
X121250000Y-96750000D01*
X107250000Y-96750000D01*
X107250000Y-80750000D01*
X93250000Y-80750000D02*
X107250000Y-80750000D01*
X107250000Y-96750000D01*
X93250000Y-96750000D01*
X93250000Y-80750000D01*
X177250000Y-64750000D02*
X191250000Y-64750000D01*
X191250000Y-80750000D01*
X177250000Y-80750000D01*
X177250000Y-64750000D01*
X163250000Y-64750000D02*
X177250000Y-64750000D01*
X177250000Y-80750000D01*
X163250000Y-80750000D01*
X163250000Y-64750000D01*
X149250000Y-64750000D02*
X163250000Y-64750000D01*
X163250000Y-80750000D01*
X149250000Y-80750000D01*
X149250000Y-64750000D01*
X135250000Y-64750000D02*
X149250000Y-64750000D01*
X149250000Y-80750000D01*
X135250000Y-80750000D01*
X135250000Y-64750000D01*
X121250000Y-64750000D02*
X135250000Y-64750000D01*
X135250000Y-80750000D01*
X121250000Y-80750000D01*
X121250000Y-64750000D01*
X107250000Y-64750000D02*
X121250000Y-64750000D01*
X121250000Y-80750000D01*
X107250000Y-80750000D01*
X107250000Y-64750000D01*
X93250000Y-64750000D02*
X107250000Y-64750000D01*
X107250000Y-80750000D01*
X93250000Y-80750000D01*
X93250000Y-64750000D01*
M02*
