M48
; DRILL file {KiCad 7.0.11+dfsg-1build4} date mié 16 sep 2026 20:56:56
; FORMAT={-:-/ absolute / metric / decimal}
; #@! TF.CreationDate,2026-09-16T20:56:56-05:00
; #@! TF.GenerationSoftware,Kicad,Pcbnew,7.0.11+dfsg-1build4
; #@! TF.FileFunction,Plated,1,2,PTH
FMAT,2
METRIC
; #@! TA.AperFunction,Plated,PTH,ComponentDrill
T1C0.900
; #@! TA.AperFunction,Plated,PTH,ComponentDrill
T2C1.200
%
G90
G05
T2
X96.75Y-76.55
X96.75Y-92.55
X96.75Y-108.55
X96.75Y-124.55
X96.75Y-140.55
X96.75Y-156.55
X100.25Y-76.55
X100.25Y-92.55
X100.25Y-108.55
X100.25Y-124.55
X100.25Y-140.55
X100.25Y-156.55
X103.75Y-76.55
X103.75Y-92.55
X103.75Y-108.55
X103.75Y-124.55
X103.75Y-140.55
X103.75Y-156.55
X110.75Y-76.55
X110.75Y-92.55
X110.75Y-108.55
X110.75Y-124.55
X110.75Y-140.55
X110.75Y-156.55
X114.25Y-76.55
X114.25Y-92.55
X114.25Y-108.55
X114.25Y-124.55
X114.25Y-140.55
X114.25Y-156.55
X117.75Y-76.55
X117.75Y-92.55
X117.75Y-108.55
X117.75Y-124.55
X117.75Y-140.55
X117.75Y-156.55
X124.75Y-76.55
X124.75Y-92.55
X124.75Y-108.55
X124.75Y-124.55
X124.75Y-140.55
X124.75Y-156.55
X128.25Y-76.55
X128.25Y-92.55
X128.25Y-108.55
X128.25Y-124.55
X128.25Y-140.55
X128.25Y-156.55
X131.75Y-76.55
X131.75Y-92.55
X131.75Y-108.55
X131.75Y-124.55
X131.75Y-140.55
X131.75Y-156.55
X138.75Y-76.55
X138.75Y-92.55
X138.75Y-108.55
X138.75Y-124.55
X138.75Y-140.55
X138.75Y-156.55
X142.25Y-76.55
X142.25Y-92.55
X142.25Y-108.55
X142.25Y-124.55
X142.25Y-140.55
X142.25Y-156.55
X145.75Y-76.55
X145.75Y-92.55
X145.75Y-108.55
X145.75Y-124.55
X145.75Y-140.55
X145.75Y-156.55
X152.75Y-76.55
X152.75Y-92.55
X152.75Y-108.55
X152.75Y-124.55
X152.75Y-140.55
X152.75Y-156.55
X156.25Y-76.55
X156.25Y-92.55
X156.25Y-108.55
X156.25Y-124.55
X156.25Y-140.55
X156.25Y-156.55
X159.75Y-76.55
X159.75Y-92.55
X159.75Y-108.55
X159.75Y-124.55
X159.75Y-140.55
X159.75Y-156.55
X166.75Y-76.55
X166.75Y-92.55
X166.75Y-108.55
X166.75Y-124.55
X166.75Y-140.55
X166.75Y-156.55
X170.25Y-76.55
X170.25Y-92.55
X170.25Y-108.55
X170.25Y-124.55
X170.25Y-140.55
X170.25Y-156.55
X173.75Y-76.55
X173.75Y-92.55
X173.75Y-108.55
X173.75Y-124.55
X173.75Y-140.55
X173.75Y-156.55
X180.75Y-76.55
X180.75Y-92.55
X180.75Y-108.55
X180.75Y-124.55
X180.75Y-140.55
X180.75Y-156.55
X184.25Y-76.55
X184.25Y-92.55
X184.25Y-108.55
X184.25Y-124.55
X184.25Y-140.55
X184.25Y-156.55
X187.75Y-76.55
X187.75Y-92.55
X187.75Y-108.55
X187.75Y-124.55
X187.75Y-140.55
X187.75Y-156.55
T1
G00X95.5Y-68.05
M15
G01X95.5Y-69.45
M16
G05
G00X95.5Y-84.05
M15
G01X95.5Y-85.45
M16
G05
G00X95.5Y-100.05
M15
G01X95.5Y-101.45
M16
G05
G00X95.5Y-116.05
M15
G01X95.5Y-117.45
M16
G05
G00X95.5Y-132.05
M15
G01X95.5Y-133.45
M16
G05
G00X95.5Y-148.05
M15
G01X95.5Y-149.45
M16
G05
G00X100.2Y-68.05
M15
G01X100.2Y-69.45
M16
G05
G00X100.2Y-84.05
M15
G01X100.2Y-85.45
M16
G05
G00X100.2Y-100.05
M15
G01X100.2Y-101.45
M16
G05
G00X100.2Y-116.05
M15
G01X100.2Y-117.45
M16
G05
G00X100.2Y-132.05
M15
G01X100.2Y-133.45
M16
G05
G00X100.2Y-148.05
M15
G01X100.2Y-149.45
M16
G05
G00X104.9Y-68.05
M15
G01X104.9Y-69.45
M16
G05
G00X104.9Y-84.05
M15
G01X104.9Y-85.45
M16
G05
G00X104.9Y-100.05
M15
G01X104.9Y-101.45
M16
G05
G00X104.9Y-116.05
M15
G01X104.9Y-117.45
M16
G05
G00X104.9Y-132.05
M15
G01X104.9Y-133.45
M16
G05
G00X104.9Y-148.05
M15
G01X104.9Y-149.45
M16
G05
G00X109.5Y-68.05
M15
G01X109.5Y-69.45
M16
G05
G00X109.5Y-84.05
M15
G01X109.5Y-85.45
M16
G05
G00X109.5Y-100.05
M15
G01X109.5Y-101.45
M16
G05
G00X109.5Y-116.05
M15
G01X109.5Y-117.45
M16
G05
G00X109.5Y-132.05
M15
G01X109.5Y-133.45
M16
G05
G00X109.5Y-148.05
M15
G01X109.5Y-149.45
M16
G05
G00X114.2Y-68.05
M15
G01X114.2Y-69.45
M16
G05
G00X114.2Y-84.05
M15
G01X114.2Y-85.45
M16
G05
G00X114.2Y-100.05
M15
G01X114.2Y-101.45
M16
G05
G00X114.2Y-116.05
M15
G01X114.2Y-117.45
M16
G05
G00X114.2Y-132.05
M15
G01X114.2Y-133.45
M16
G05
G00X114.2Y-148.05
M15
G01X114.2Y-149.45
M16
G05
G00X118.9Y-68.05
M15
G01X118.9Y-69.45
M16
G05
G00X118.9Y-84.05
M15
G01X118.9Y-85.45
M16
G05
G00X118.9Y-100.05
M15
G01X118.9Y-101.45
M16
G05
G00X118.9Y-116.05
M15
G01X118.9Y-117.45
M16
G05
G00X118.9Y-132.05
M15
G01X118.9Y-133.45
M16
G05
G00X118.9Y-148.05
M15
G01X118.9Y-149.45
M16
G05
G00X123.5Y-68.05
M15
G01X123.5Y-69.45
M16
G05
G00X123.5Y-84.05
M15
G01X123.5Y-85.45
M16
G05
G00X123.5Y-100.05
M15
G01X123.5Y-101.45
M16
G05
G00X123.5Y-116.05
M15
G01X123.5Y-117.45
M16
G05
G00X123.5Y-132.05
M15
G01X123.5Y-133.45
M16
G05
G00X123.5Y-148.05
M15
G01X123.5Y-149.45
M16
G05
G00X128.2Y-68.05
M15
G01X128.2Y-69.45
M16
G05
G00X128.2Y-84.05
M15
G01X128.2Y-85.45
M16
G05
G00X128.2Y-100.05
M15
G01X128.2Y-101.45
M16
G05
G00X128.2Y-116.05
M15
G01X128.2Y-117.45
M16
G05
G00X128.2Y-132.05
M15
G01X128.2Y-133.45
M16
G05
G00X128.2Y-148.05
M15
G01X128.2Y-149.45
M16
G05
G00X132.9Y-68.05
M15
G01X132.9Y-69.45
M16
G05
G00X132.9Y-84.05
M15
G01X132.9Y-85.45
M16
G05
G00X132.9Y-100.05
M15
G01X132.9Y-101.45
M16
G05
G00X132.9Y-116.05
M15
G01X132.9Y-117.45
M16
G05
G00X132.9Y-132.05
M15
G01X132.9Y-133.45
M16
G05
G00X132.9Y-148.05
M15
G01X132.9Y-149.45
M16
G05
G00X137.5Y-68.05
M15
G01X137.5Y-69.45
M16
G05
G00X137.5Y-84.05
M15
G01X137.5Y-85.45
M16
G05
G00X137.5Y-100.05
M15
G01X137.5Y-101.45
M16
G05
G00X137.5Y-116.05
M15
G01X137.5Y-117.45
M16
G05
G00X137.5Y-132.05
M15
G01X137.5Y-133.45
M16
G05
G00X137.5Y-148.05
M15
G01X137.5Y-149.45
M16
G05
G00X142.2Y-68.05
M15
G01X142.2Y-69.45
M16
G05
G00X142.2Y-84.05
M15
G01X142.2Y-85.45
M16
G05
G00X142.2Y-100.05
M15
G01X142.2Y-101.45
M16
G05
G00X142.2Y-116.05
M15
G01X142.2Y-117.45
M16
G05
G00X142.2Y-132.05
M15
G01X142.2Y-133.45
M16
G05
G00X142.2Y-148.05
M15
G01X142.2Y-149.45
M16
G05
G00X146.9Y-68.05
M15
G01X146.9Y-69.45
M16
G05
G00X146.9Y-84.05
M15
G01X146.9Y-85.45
M16
G05
G00X146.9Y-100.05
M15
G01X146.9Y-101.45
M16
G05
G00X146.9Y-116.05
M15
G01X146.9Y-117.45
M16
G05
G00X146.9Y-132.05
M15
G01X146.9Y-133.45
M16
G05
G00X146.9Y-148.05
M15
G01X146.9Y-149.45
M16
G05
G00X151.5Y-68.05
M15
G01X151.5Y-69.45
M16
G05
G00X151.5Y-84.05
M15
G01X151.5Y-85.45
M16
G05
G00X151.5Y-100.05
M15
G01X151.5Y-101.45
M16
G05
G00X151.5Y-116.05
M15
G01X151.5Y-117.45
M16
G05
G00X151.5Y-132.05
M15
G01X151.5Y-133.45
M16
G05
G00X151.5Y-148.05
M15
G01X151.5Y-149.45
M16
G05
G00X156.2Y-68.05
M15
G01X156.2Y-69.45
M16
G05
G00X156.2Y-84.05
M15
G01X156.2Y-85.45
M16
G05
G00X156.2Y-100.05
M15
G01X156.2Y-101.45
M16
G05
G00X156.2Y-116.05
M15
G01X156.2Y-117.45
M16
G05
G00X156.2Y-132.05
M15
G01X156.2Y-133.45
M16
G05
G00X156.2Y-148.05
M15
G01X156.2Y-149.45
M16
G05
G00X160.9Y-68.05
M15
G01X160.9Y-69.45
M16
G05
G00X160.9Y-84.05
M15
G01X160.9Y-85.45
M16
G05
G00X160.9Y-100.05
M15
G01X160.9Y-101.45
M16
G05
G00X160.9Y-116.05
M15
G01X160.9Y-117.45
M16
G05
G00X160.9Y-132.05
M15
G01X160.9Y-133.45
M16
G05
G00X160.9Y-148.05
M15
G01X160.9Y-149.45
M16
G05
G00X165.5Y-68.05
M15
G01X165.5Y-69.45
M16
G05
G00X165.5Y-84.05
M15
G01X165.5Y-85.45
M16
G05
G00X165.5Y-100.05
M15
G01X165.5Y-101.45
M16
G05
G00X165.5Y-116.05
M15
G01X165.5Y-117.45
M16
G05
G00X165.5Y-132.05
M15
G01X165.5Y-133.45
M16
G05
G00X165.5Y-148.05
M15
G01X165.5Y-149.45
M16
G05
G00X170.2Y-68.05
M15
G01X170.2Y-69.45
M16
G05
G00X170.2Y-84.05
M15
G01X170.2Y-85.45
M16
G05
G00X170.2Y-100.05
M15
G01X170.2Y-101.45
M16
G05
G00X170.2Y-116.05
M15
G01X170.2Y-117.45
M16
G05
G00X170.2Y-132.05
M15
G01X170.2Y-133.45
M16
G05
G00X170.2Y-148.05
M15
G01X170.2Y-149.45
M16
G05
G00X174.9Y-68.05
M15
G01X174.9Y-69.45
M16
G05
G00X174.9Y-84.05
M15
G01X174.9Y-85.45
M16
G05
G00X174.9Y-100.05
M15
G01X174.9Y-101.45
M16
G05
G00X174.9Y-116.05
M15
G01X174.9Y-117.45
M16
G05
G00X174.9Y-132.05
M15
G01X174.9Y-133.45
M16
G05
G00X174.9Y-148.05
M15
G01X174.9Y-149.45
M16
G05
G00X179.5Y-68.05
M15
G01X179.5Y-69.45
M16
G05
G00X179.5Y-84.05
M15
G01X179.5Y-85.45
M16
G05
G00X179.5Y-100.05
M15
G01X179.5Y-101.45
M16
G05
G00X179.5Y-116.05
M15
G01X179.5Y-117.45
M16
G05
G00X179.5Y-132.05
M15
G01X179.5Y-133.45
M16
G05
G00X179.5Y-148.05
M15
G01X179.5Y-149.45
M16
G05
G00X184.2Y-68.05
M15
G01X184.2Y-69.45
M16
G05
G00X184.2Y-84.05
M15
G01X184.2Y-85.45
M16
G05
G00X184.2Y-100.05
M15
G01X184.2Y-101.45
M16
G05
G00X184.2Y-116.05
M15
G01X184.2Y-117.45
M16
G05
G00X184.2Y-132.05
M15
G01X184.2Y-133.45
M16
G05
G00X184.2Y-148.05
M15
G01X184.2Y-149.45
M16
G05
G00X188.9Y-68.05
M15
G01X188.9Y-69.45
M16
G05
G00X188.9Y-84.05
M15
G01X188.9Y-85.45
M16
G05
G00X188.9Y-100.05
M15
G01X188.9Y-101.45
M16
G05
G00X188.9Y-116.05
M15
G01X188.9Y-117.45
M16
G05
G00X188.9Y-132.05
M15
G01X188.9Y-133.45
M16
G05
G00X188.9Y-148.05
M15
G01X188.9Y-149.45
M16
G05
M30
