%TF.GenerationSoftware,KiCad,Pcbnew,7.0.11+dfsg-1build4*%
%TF.CreationDate,2026-09-17T16:39:24-05:00*%
%TF.ProjectId,,58585858-5858-4585-9858-585858585858,rev?*%
%TF.SameCoordinates,Original*%
%TF.FileFunction,Soldermask,Top*%
%TF.FilePolarity,Negative*%
%FSLAX46Y46*%
G04 Gerber Fmt 4.6, Leading zero omitted, Abs format (unit mm)*
G04 Created by KiCad (PCBNEW 7.0.11+dfsg-1build4) date 2026-09-17 16:39:24*
%MOMM*%
%LPD*%
G01*
G04 APERTURE LIST*
%ADD10O,1.400000X1.900000*%
%ADD11R,2.400000X2.400000*%
%ADD12C,2.400000*%
%TA.AperFunction,Profile*%
%ADD13C,0.050000*%
%TD*%
G04 APERTURE END LIST*
D10*
%TO.C,J1*%
X136650000Y-139500000D03*
X138850000Y-139500000D03*
%TD*%
D11*
%TO.C,SW1*%
X139500000Y-147300000D03*
D12*
X136000000Y-147300000D03*
%TD*%
D10*
%TO.C,J1*%
X127650000Y-139500000D03*
X129850000Y-139500000D03*
%TD*%
D11*
%TO.C,SW1*%
X130500000Y-147300000D03*
D12*
X127000000Y-147300000D03*
%TD*%
D10*
%TO.C,J1*%
X118650000Y-139500000D03*
X120850000Y-139500000D03*
%TD*%
D11*
%TO.C,SW1*%
X121500000Y-147300000D03*
D12*
X118000000Y-147300000D03*
%TD*%
D10*
%TO.C,J1*%
X109650000Y-139500000D03*
X111850000Y-139500000D03*
%TD*%
D11*
%TO.C,SW1*%
X112500000Y-147300000D03*
D12*
X109000000Y-147300000D03*
%TD*%
D10*
%TO.C,J1*%
X100650000Y-139500000D03*
X102850000Y-139500000D03*
%TD*%
D11*
%TO.C,SW1*%
X103500000Y-147300000D03*
D12*
X100000000Y-147300000D03*
%TD*%
D10*
%TO.C,J1*%
X91650000Y-139500000D03*
X93850000Y-139500000D03*
%TD*%
D11*
%TO.C,SW1*%
X94500000Y-147300000D03*
D12*
X91000000Y-147300000D03*
%TD*%
D10*
%TO.C,J1*%
X82650000Y-139500000D03*
X84850000Y-139500000D03*
%TD*%
D11*
%TO.C,SW1*%
X85500000Y-147300000D03*
D12*
X82000000Y-147300000D03*
%TD*%
D10*
%TO.C,J1*%
X73650000Y-139500000D03*
X75850000Y-139500000D03*
%TD*%
D11*
%TO.C,SW1*%
X76500000Y-147300000D03*
D12*
X73000000Y-147300000D03*
%TD*%
D10*
%TO.C,J1*%
X64650000Y-139500000D03*
X66850000Y-139500000D03*
%TD*%
D11*
%TO.C,SW1*%
X67500000Y-147300000D03*
D12*
X64000000Y-147300000D03*
%TD*%
D10*
%TO.C,J1*%
X136650000Y-123500000D03*
X138850000Y-123500000D03*
%TD*%
D11*
%TO.C,SW1*%
X139500000Y-131300000D03*
D12*
X136000000Y-131300000D03*
%TD*%
D10*
%TO.C,J1*%
X127650000Y-123500000D03*
X129850000Y-123500000D03*
%TD*%
D11*
%TO.C,SW1*%
X130500000Y-131300000D03*
D12*
X127000000Y-131300000D03*
%TD*%
D10*
%TO.C,J1*%
X118650000Y-123500000D03*
X120850000Y-123500000D03*
%TD*%
D11*
%TO.C,SW1*%
X121500000Y-131300000D03*
D12*
X118000000Y-131300000D03*
%TD*%
D10*
%TO.C,J1*%
X109650000Y-123500000D03*
X111850000Y-123500000D03*
%TD*%
D11*
%TO.C,SW1*%
X112500000Y-131300000D03*
D12*
X109000000Y-131300000D03*
%TD*%
D10*
%TO.C,J1*%
X100650000Y-123500000D03*
X102850000Y-123500000D03*
%TD*%
D11*
%TO.C,SW1*%
X103500000Y-131300000D03*
D12*
X100000000Y-131300000D03*
%TD*%
D10*
%TO.C,J1*%
X91650000Y-123500000D03*
X93850000Y-123500000D03*
%TD*%
D11*
%TO.C,SW1*%
X94500000Y-131300000D03*
D12*
X91000000Y-131300000D03*
%TD*%
D10*
%TO.C,J1*%
X82650000Y-123500000D03*
X84850000Y-123500000D03*
%TD*%
D11*
%TO.C,SW1*%
X85500000Y-131300000D03*
D12*
X82000000Y-131300000D03*
%TD*%
D10*
%TO.C,J1*%
X73650000Y-123500000D03*
X75850000Y-123500000D03*
%TD*%
D11*
%TO.C,SW1*%
X76500000Y-131300000D03*
D12*
X73000000Y-131300000D03*
%TD*%
D10*
%TO.C,J1*%
X64650000Y-123500000D03*
X66850000Y-123500000D03*
%TD*%
D11*
%TO.C,SW1*%
X67500000Y-131300000D03*
D12*
X64000000Y-131300000D03*
%TD*%
D10*
%TO.C,J1*%
X136650000Y-107500000D03*
X138850000Y-107500000D03*
%TD*%
D11*
%TO.C,SW1*%
X139500000Y-115300000D03*
D12*
X136000000Y-115300000D03*
%TD*%
D10*
%TO.C,J1*%
X127650000Y-107500000D03*
X129850000Y-107500000D03*
%TD*%
D11*
%TO.C,SW1*%
X130500000Y-115300000D03*
D12*
X127000000Y-115300000D03*
%TD*%
D10*
%TO.C,J1*%
X118650000Y-107500000D03*
X120850000Y-107500000D03*
%TD*%
D11*
%TO.C,SW1*%
X121500000Y-115300000D03*
D12*
X118000000Y-115300000D03*
%TD*%
D10*
%TO.C,J1*%
X109650000Y-107500000D03*
X111850000Y-107500000D03*
%TD*%
D11*
%TO.C,SW1*%
X112500000Y-115300000D03*
D12*
X109000000Y-115300000D03*
%TD*%
D10*
%TO.C,J1*%
X100650000Y-107500000D03*
X102850000Y-107500000D03*
%TD*%
D11*
%TO.C,SW1*%
X103500000Y-115300000D03*
D12*
X100000000Y-115300000D03*
%TD*%
D10*
%TO.C,J1*%
X91650000Y-107500000D03*
X93850000Y-107500000D03*
%TD*%
D11*
%TO.C,SW1*%
X94500000Y-115300000D03*
D12*
X91000000Y-115300000D03*
%TD*%
D10*
%TO.C,J1*%
X82650000Y-107500000D03*
X84850000Y-107500000D03*
%TD*%
D11*
%TO.C,SW1*%
X85500000Y-115300000D03*
D12*
X82000000Y-115300000D03*
%TD*%
D10*
%TO.C,J1*%
X73650000Y-107500000D03*
X75850000Y-107500000D03*
%TD*%
D11*
%TO.C,SW1*%
X76500000Y-115300000D03*
D12*
X73000000Y-115300000D03*
%TD*%
D10*
%TO.C,J1*%
X64650000Y-107500000D03*
X66850000Y-107500000D03*
%TD*%
D11*
%TO.C,SW1*%
X67500000Y-115300000D03*
D12*
X64000000Y-115300000D03*
%TD*%
D10*
%TO.C,J1*%
X136650000Y-91500000D03*
X138850000Y-91500000D03*
%TD*%
D11*
%TO.C,SW1*%
X139500000Y-99300000D03*
D12*
X136000000Y-99300000D03*
%TD*%
D10*
%TO.C,J1*%
X127650000Y-91500000D03*
X129850000Y-91500000D03*
%TD*%
D11*
%TO.C,SW1*%
X130500000Y-99300000D03*
D12*
X127000000Y-99300000D03*
%TD*%
D10*
%TO.C,J1*%
X118650000Y-91500000D03*
X120850000Y-91500000D03*
%TD*%
D11*
%TO.C,SW1*%
X121500000Y-99300000D03*
D12*
X118000000Y-99300000D03*
%TD*%
D10*
%TO.C,J1*%
X109650000Y-91500000D03*
X111850000Y-91500000D03*
%TD*%
D11*
%TO.C,SW1*%
X112500000Y-99300000D03*
D12*
X109000000Y-99300000D03*
%TD*%
D10*
%TO.C,J1*%
X100650000Y-91500000D03*
X102850000Y-91500000D03*
%TD*%
D11*
%TO.C,SW1*%
X103500000Y-99300000D03*
D12*
X100000000Y-99300000D03*
%TD*%
D10*
%TO.C,J1*%
X91650000Y-91500000D03*
X93850000Y-91500000D03*
%TD*%
D11*
%TO.C,SW1*%
X94500000Y-99300000D03*
D12*
X91000000Y-99300000D03*
%TD*%
D10*
%TO.C,J1*%
X82650000Y-91500000D03*
X84850000Y-91500000D03*
%TD*%
D11*
%TO.C,SW1*%
X85500000Y-99300000D03*
D12*
X82000000Y-99300000D03*
%TD*%
D10*
%TO.C,J1*%
X73650000Y-91500000D03*
X75850000Y-91500000D03*
%TD*%
D11*
%TO.C,SW1*%
X76500000Y-99300000D03*
D12*
X73000000Y-99300000D03*
%TD*%
D10*
%TO.C,J1*%
X64650000Y-91500000D03*
X66850000Y-91500000D03*
%TD*%
D11*
%TO.C,SW1*%
X67500000Y-99300000D03*
D12*
X64000000Y-99300000D03*
%TD*%
D10*
%TO.C,J1*%
X136650000Y-75500000D03*
X138850000Y-75500000D03*
%TD*%
D11*
%TO.C,SW1*%
X139500000Y-83300000D03*
D12*
X136000000Y-83300000D03*
%TD*%
D10*
%TO.C,J1*%
X127650000Y-75500000D03*
X129850000Y-75500000D03*
%TD*%
D11*
%TO.C,SW1*%
X130500000Y-83300000D03*
D12*
X127000000Y-83300000D03*
%TD*%
D10*
%TO.C,J1*%
X118650000Y-75500000D03*
X120850000Y-75500000D03*
%TD*%
D11*
%TO.C,SW1*%
X121500000Y-83300000D03*
D12*
X118000000Y-83300000D03*
%TD*%
D10*
%TO.C,J1*%
X109650000Y-75500000D03*
X111850000Y-75500000D03*
%TD*%
D11*
%TO.C,SW1*%
X112500000Y-83300000D03*
D12*
X109000000Y-83300000D03*
%TD*%
D10*
%TO.C,J1*%
X100650000Y-75500000D03*
X102850000Y-75500000D03*
%TD*%
D11*
%TO.C,SW1*%
X103500000Y-83300000D03*
D12*
X100000000Y-83300000D03*
%TD*%
D10*
%TO.C,J1*%
X91650000Y-75500000D03*
X93850000Y-75500000D03*
%TD*%
D11*
%TO.C,SW1*%
X94500000Y-83300000D03*
D12*
X91000000Y-83300000D03*
%TD*%
D10*
%TO.C,J1*%
X82650000Y-75500000D03*
X84850000Y-75500000D03*
%TD*%
D11*
%TO.C,SW1*%
X85500000Y-83300000D03*
D12*
X82000000Y-83300000D03*
%TD*%
D10*
%TO.C,J1*%
X73650000Y-75500000D03*
X75850000Y-75500000D03*
%TD*%
D11*
%TO.C,SW1*%
X76500000Y-83300000D03*
D12*
X73000000Y-83300000D03*
%TD*%
D10*
%TO.C,J1*%
X64650000Y-75500000D03*
X66850000Y-75500000D03*
%TD*%
D11*
%TO.C,SW1*%
X67500000Y-83300000D03*
D12*
X64000000Y-83300000D03*
%TD*%
D10*
%TO.C,J1*%
X136650000Y-59500000D03*
X138850000Y-59500000D03*
%TD*%
D11*
%TO.C,SW1*%
X139500000Y-67300000D03*
D12*
X136000000Y-67300000D03*
%TD*%
D10*
%TO.C,J1*%
X127650000Y-59500000D03*
X129850000Y-59500000D03*
%TD*%
D11*
%TO.C,SW1*%
X130500000Y-67300000D03*
D12*
X127000000Y-67300000D03*
%TD*%
D10*
%TO.C,J1*%
X118650000Y-59500000D03*
X120850000Y-59500000D03*
%TD*%
D11*
%TO.C,SW1*%
X121500000Y-67300000D03*
D12*
X118000000Y-67300000D03*
%TD*%
D10*
%TO.C,J1*%
X109650000Y-59500000D03*
X111850000Y-59500000D03*
%TD*%
D11*
%TO.C,SW1*%
X112500000Y-67300000D03*
D12*
X109000000Y-67300000D03*
%TD*%
D10*
%TO.C,J1*%
X100650000Y-59500000D03*
X102850000Y-59500000D03*
%TD*%
D11*
%TO.C,SW1*%
X103500000Y-67300000D03*
D12*
X100000000Y-67300000D03*
%TD*%
D10*
%TO.C,J1*%
X91650000Y-59500000D03*
X93850000Y-59500000D03*
%TD*%
D11*
%TO.C,SW1*%
X94500000Y-67300000D03*
D12*
X91000000Y-67300000D03*
%TD*%
D10*
%TO.C,J1*%
X82650000Y-59500000D03*
X84850000Y-59500000D03*
%TD*%
D11*
%TO.C,SW1*%
X85500000Y-67300000D03*
D12*
X82000000Y-67300000D03*
%TD*%
D10*
%TO.C,J1*%
X73650000Y-59500000D03*
X75850000Y-59500000D03*
%TD*%
D11*
%TO.C,SW1*%
X76500000Y-67300000D03*
D12*
X73000000Y-67300000D03*
%TD*%
D10*
%TO.C,J1*%
X64650000Y-59500000D03*
X66850000Y-59500000D03*
%TD*%
D11*
%TO.C,SW1*%
X67500000Y-67300000D03*
D12*
X64000000Y-67300000D03*
%TD*%
D13*
X133250000Y-135500000D02*
X142250000Y-135500000D01*
X142250000Y-151500000D01*
X133250000Y-151500000D01*
X133250000Y-135500000D01*
X124250000Y-135500000D02*
X133250000Y-135500000D01*
X133250000Y-151500000D01*
X124250000Y-151500000D01*
X124250000Y-135500000D01*
X115250000Y-135500000D02*
X124250000Y-135500000D01*
X124250000Y-151500000D01*
X115250000Y-151500000D01*
X115250000Y-135500000D01*
X106250000Y-135500000D02*
X115250000Y-135500000D01*
X115250000Y-151500000D01*
X106250000Y-151500000D01*
X106250000Y-135500000D01*
X97250000Y-135500000D02*
X106250000Y-135500000D01*
X106250000Y-151500000D01*
X97250000Y-151500000D01*
X97250000Y-135500000D01*
X88250000Y-135500000D02*
X97250000Y-135500000D01*
X97250000Y-151500000D01*
X88250000Y-151500000D01*
X88250000Y-135500000D01*
X79250000Y-135500000D02*
X88250000Y-135500000D01*
X88250000Y-151500000D01*
X79250000Y-151500000D01*
X79250000Y-135500000D01*
X70250000Y-135500000D02*
X79250000Y-135500000D01*
X79250000Y-151500000D01*
X70250000Y-151500000D01*
X70250000Y-135500000D01*
X61250000Y-135500000D02*
X70250000Y-135500000D01*
X70250000Y-151500000D01*
X61250000Y-151500000D01*
X61250000Y-135500000D01*
X133250000Y-119500000D02*
X142250000Y-119500000D01*
X142250000Y-135500000D01*
X133250000Y-135500000D01*
X133250000Y-119500000D01*
X124250000Y-119500000D02*
X133250000Y-119500000D01*
X133250000Y-135500000D01*
X124250000Y-135500000D01*
X124250000Y-119500000D01*
X115250000Y-119500000D02*
X124250000Y-119500000D01*
X124250000Y-135500000D01*
X115250000Y-135500000D01*
X115250000Y-119500000D01*
X106250000Y-119500000D02*
X115250000Y-119500000D01*
X115250000Y-135500000D01*
X106250000Y-135500000D01*
X106250000Y-119500000D01*
X97250000Y-119500000D02*
X106250000Y-119500000D01*
X106250000Y-135500000D01*
X97250000Y-135500000D01*
X97250000Y-119500000D01*
X88250000Y-119500000D02*
X97250000Y-119500000D01*
X97250000Y-135500000D01*
X88250000Y-135500000D01*
X88250000Y-119500000D01*
X79250000Y-119500000D02*
X88250000Y-119500000D01*
X88250000Y-135500000D01*
X79250000Y-135500000D01*
X79250000Y-119500000D01*
X70250000Y-119500000D02*
X79250000Y-119500000D01*
X79250000Y-135500000D01*
X70250000Y-135500000D01*
X70250000Y-119500000D01*
X61250000Y-119500000D02*
X70250000Y-119500000D01*
X70250000Y-135500000D01*
X61250000Y-135500000D01*
X61250000Y-119500000D01*
X133250000Y-103500000D02*
X142250000Y-103500000D01*
X142250000Y-119500000D01*
X133250000Y-119500000D01*
X133250000Y-103500000D01*
X124250000Y-103500000D02*
X133250000Y-103500000D01*
X133250000Y-119500000D01*
X124250000Y-119500000D01*
X124250000Y-103500000D01*
X115250000Y-103500000D02*
X124250000Y-103500000D01*
X124250000Y-119500000D01*
X115250000Y-119500000D01*
X115250000Y-103500000D01*
X106250000Y-103500000D02*
X115250000Y-103500000D01*
X115250000Y-119500000D01*
X106250000Y-119500000D01*
X106250000Y-103500000D01*
X97250000Y-103500000D02*
X106250000Y-103500000D01*
X106250000Y-119500000D01*
X97250000Y-119500000D01*
X97250000Y-103500000D01*
X88250000Y-103500000D02*
X97250000Y-103500000D01*
X97250000Y-119500000D01*
X88250000Y-119500000D01*
X88250000Y-103500000D01*
X79250000Y-103500000D02*
X88250000Y-103500000D01*
X88250000Y-119500000D01*
X79250000Y-119500000D01*
X79250000Y-103500000D01*
X70250000Y-103500000D02*
X79250000Y-103500000D01*
X79250000Y-119500000D01*
X70250000Y-119500000D01*
X70250000Y-103500000D01*
X61250000Y-103500000D02*
X70250000Y-103500000D01*
X70250000Y-119500000D01*
X61250000Y-119500000D01*
X61250000Y-103500000D01*
X133250000Y-87500000D02*
X142250000Y-87500000D01*
X142250000Y-103500000D01*
X133250000Y-103500000D01*
X133250000Y-87500000D01*
X124250000Y-87500000D02*
X133250000Y-87500000D01*
X133250000Y-103500000D01*
X124250000Y-103500000D01*
X124250000Y-87500000D01*
X115250000Y-87500000D02*
X124250000Y-87500000D01*
X124250000Y-103500000D01*
X115250000Y-103500000D01*
X115250000Y-87500000D01*
X106250000Y-87500000D02*
X115250000Y-87500000D01*
X115250000Y-103500000D01*
X106250000Y-103500000D01*
X106250000Y-87500000D01*
X97250000Y-87500000D02*
X106250000Y-87500000D01*
X106250000Y-103500000D01*
X97250000Y-103500000D01*
X97250000Y-87500000D01*
X88250000Y-87500000D02*
X97250000Y-87500000D01*
X97250000Y-103500000D01*
X88250000Y-103500000D01*
X88250000Y-87500000D01*
X79250000Y-87500000D02*
X88250000Y-87500000D01*
X88250000Y-103500000D01*
X79250000Y-103500000D01*
X79250000Y-87500000D01*
X70250000Y-87500000D02*
X79250000Y-87500000D01*
X79250000Y-103500000D01*
X70250000Y-103500000D01*
X70250000Y-87500000D01*
X61250000Y-87500000D02*
X70250000Y-87500000D01*
X70250000Y-103500000D01*
X61250000Y-103500000D01*
X61250000Y-87500000D01*
X133250000Y-71500000D02*
X142250000Y-71500000D01*
X142250000Y-87500000D01*
X133250000Y-87500000D01*
X133250000Y-71500000D01*
X124250000Y-71500000D02*
X133250000Y-71500000D01*
X133250000Y-87500000D01*
X124250000Y-87500000D01*
X124250000Y-71500000D01*
X115250000Y-71500000D02*
X124250000Y-71500000D01*
X124250000Y-87500000D01*
X115250000Y-87500000D01*
X115250000Y-71500000D01*
X106250000Y-71500000D02*
X115250000Y-71500000D01*
X115250000Y-87500000D01*
X106250000Y-87500000D01*
X106250000Y-71500000D01*
X97250000Y-71500000D02*
X106250000Y-71500000D01*
X106250000Y-87500000D01*
X97250000Y-87500000D01*
X97250000Y-71500000D01*
X88250000Y-71500000D02*
X97250000Y-71500000D01*
X97250000Y-87500000D01*
X88250000Y-87500000D01*
X88250000Y-71500000D01*
X79250000Y-71500000D02*
X88250000Y-71500000D01*
X88250000Y-87500000D01*
X79250000Y-87500000D01*
X79250000Y-71500000D01*
X70250000Y-71500000D02*
X79250000Y-71500000D01*
X79250000Y-87500000D01*
X70250000Y-87500000D01*
X70250000Y-71500000D01*
X61250000Y-71500000D02*
X70250000Y-71500000D01*
X70250000Y-87500000D01*
X61250000Y-87500000D01*
X61250000Y-71500000D01*
X133250000Y-55500000D02*
X142250000Y-55500000D01*
X142250000Y-71500000D01*
X133250000Y-71500000D01*
X133250000Y-55500000D01*
X124250000Y-55500000D02*
X133250000Y-55500000D01*
X133250000Y-71500000D01*
X124250000Y-71500000D01*
X124250000Y-55500000D01*
X115250000Y-55500000D02*
X124250000Y-55500000D01*
X124250000Y-71500000D01*
X115250000Y-71500000D01*
X115250000Y-55500000D01*
X106250000Y-55500000D02*
X115250000Y-55500000D01*
X115250000Y-71500000D01*
X106250000Y-71500000D01*
X106250000Y-55500000D01*
X97250000Y-55500000D02*
X106250000Y-55500000D01*
X106250000Y-71500000D01*
X97250000Y-71500000D01*
X97250000Y-55500000D01*
X88250000Y-55500000D02*
X97250000Y-55500000D01*
X97250000Y-71500000D01*
X88250000Y-71500000D01*
X88250000Y-55500000D01*
X79250000Y-55500000D02*
X88250000Y-55500000D01*
X88250000Y-71500000D01*
X79250000Y-71500000D01*
X79250000Y-55500000D01*
X70250000Y-55500000D02*
X79250000Y-55500000D01*
X79250000Y-71500000D01*
X70250000Y-71500000D01*
X70250000Y-55500000D01*
X61250000Y-55500000D02*
X70250000Y-55500000D01*
X70250000Y-71500000D01*
X61250000Y-71500000D01*
X61250000Y-55500000D01*
M02*
