%TF.GenerationSoftware,KiCad,Pcbnew,7.0.11+dfsg-1build4*%
%TF.CreationDate,2026-09-17T16:39:24-05:00*%
%TF.ProjectId,,58585858-5858-4585-9858-585858585858,rev?*%
%TF.SameCoordinates,Original*%
%TF.FileFunction,Legend,Top*%
%TF.FilePolarity,Positive*%
%FSLAX46Y46*%
G04 Gerber Fmt 4.6, Leading zero omitted, Abs format (unit mm)*
G04 Created by KiCad (PCBNEW 7.0.11+dfsg-1build4) date 2026-09-17 16:39:24*
%MOMM*%
%LPD*%
G01*
G04 APERTURE LIST*
%ADD10C,0.150000*%
%ADD11C,0.100000*%
%TA.AperFunction,Profile*%
%ADD12C,0.050000*%
%TD*%
G04 APERTURE END LIST*
D10*
X140916666Y-135704819D02*
X140916666Y-136419104D01*
X140916666Y-136419104D02*
X140869047Y-136561961D01*
X140869047Y-136561961D02*
X140773809Y-136657200D01*
X140773809Y-136657200D02*
X140630952Y-136704819D01*
X140630952Y-136704819D02*
X140535714Y-136704819D01*
X141916666Y-136704819D02*
X141345238Y-136704819D01*
X141630952Y-136704819D02*
X141630952Y-135704819D01*
X141630952Y-135704819D02*
X141535714Y-135847676D01*
X141535714Y-135847676D02*
X141440476Y-135942914D01*
X141440476Y-135942914D02*
X141345238Y-135990533D01*
X131916666Y-135704819D02*
X131916666Y-136419104D01*
X131916666Y-136419104D02*
X131869047Y-136561961D01*
X131869047Y-136561961D02*
X131773809Y-136657200D01*
X131773809Y-136657200D02*
X131630952Y-136704819D01*
X131630952Y-136704819D02*
X131535714Y-136704819D01*
X132916666Y-136704819D02*
X132345238Y-136704819D01*
X132630952Y-136704819D02*
X132630952Y-135704819D01*
X132630952Y-135704819D02*
X132535714Y-135847676D01*
X132535714Y-135847676D02*
X132440476Y-135942914D01*
X132440476Y-135942914D02*
X132345238Y-135990533D01*
X122916666Y-135704819D02*
X122916666Y-136419104D01*
X122916666Y-136419104D02*
X122869047Y-136561961D01*
X122869047Y-136561961D02*
X122773809Y-136657200D01*
X122773809Y-136657200D02*
X122630952Y-136704819D01*
X122630952Y-136704819D02*
X122535714Y-136704819D01*
X123916666Y-136704819D02*
X123345238Y-136704819D01*
X123630952Y-136704819D02*
X123630952Y-135704819D01*
X123630952Y-135704819D02*
X123535714Y-135847676D01*
X123535714Y-135847676D02*
X123440476Y-135942914D01*
X123440476Y-135942914D02*
X123345238Y-135990533D01*
X113916666Y-135704819D02*
X113916666Y-136419104D01*
X113916666Y-136419104D02*
X113869047Y-136561961D01*
X113869047Y-136561961D02*
X113773809Y-136657200D01*
X113773809Y-136657200D02*
X113630952Y-136704819D01*
X113630952Y-136704819D02*
X113535714Y-136704819D01*
X114916666Y-136704819D02*
X114345238Y-136704819D01*
X114630952Y-136704819D02*
X114630952Y-135704819D01*
X114630952Y-135704819D02*
X114535714Y-135847676D01*
X114535714Y-135847676D02*
X114440476Y-135942914D01*
X114440476Y-135942914D02*
X114345238Y-135990533D01*
X104916666Y-135704819D02*
X104916666Y-136419104D01*
X104916666Y-136419104D02*
X104869047Y-136561961D01*
X104869047Y-136561961D02*
X104773809Y-136657200D01*
X104773809Y-136657200D02*
X104630952Y-136704819D01*
X104630952Y-136704819D02*
X104535714Y-136704819D01*
X105916666Y-136704819D02*
X105345238Y-136704819D01*
X105630952Y-136704819D02*
X105630952Y-135704819D01*
X105630952Y-135704819D02*
X105535714Y-135847676D01*
X105535714Y-135847676D02*
X105440476Y-135942914D01*
X105440476Y-135942914D02*
X105345238Y-135990533D01*
X95916666Y-135704819D02*
X95916666Y-136419104D01*
X95916666Y-136419104D02*
X95869047Y-136561961D01*
X95869047Y-136561961D02*
X95773809Y-136657200D01*
X95773809Y-136657200D02*
X95630952Y-136704819D01*
X95630952Y-136704819D02*
X95535714Y-136704819D01*
X96916666Y-136704819D02*
X96345238Y-136704819D01*
X96630952Y-136704819D02*
X96630952Y-135704819D01*
X96630952Y-135704819D02*
X96535714Y-135847676D01*
X96535714Y-135847676D02*
X96440476Y-135942914D01*
X96440476Y-135942914D02*
X96345238Y-135990533D01*
X86916666Y-135704819D02*
X86916666Y-136419104D01*
X86916666Y-136419104D02*
X86869047Y-136561961D01*
X86869047Y-136561961D02*
X86773809Y-136657200D01*
X86773809Y-136657200D02*
X86630952Y-136704819D01*
X86630952Y-136704819D02*
X86535714Y-136704819D01*
X87916666Y-136704819D02*
X87345238Y-136704819D01*
X87630952Y-136704819D02*
X87630952Y-135704819D01*
X87630952Y-135704819D02*
X87535714Y-135847676D01*
X87535714Y-135847676D02*
X87440476Y-135942914D01*
X87440476Y-135942914D02*
X87345238Y-135990533D01*
X77916666Y-135704819D02*
X77916666Y-136419104D01*
X77916666Y-136419104D02*
X77869047Y-136561961D01*
X77869047Y-136561961D02*
X77773809Y-136657200D01*
X77773809Y-136657200D02*
X77630952Y-136704819D01*
X77630952Y-136704819D02*
X77535714Y-136704819D01*
X78916666Y-136704819D02*
X78345238Y-136704819D01*
X78630952Y-136704819D02*
X78630952Y-135704819D01*
X78630952Y-135704819D02*
X78535714Y-135847676D01*
X78535714Y-135847676D02*
X78440476Y-135942914D01*
X78440476Y-135942914D02*
X78345238Y-135990533D01*
X68916666Y-135704819D02*
X68916666Y-136419104D01*
X68916666Y-136419104D02*
X68869047Y-136561961D01*
X68869047Y-136561961D02*
X68773809Y-136657200D01*
X68773809Y-136657200D02*
X68630952Y-136704819D01*
X68630952Y-136704819D02*
X68535714Y-136704819D01*
X69916666Y-136704819D02*
X69345238Y-136704819D01*
X69630952Y-136704819D02*
X69630952Y-135704819D01*
X69630952Y-135704819D02*
X69535714Y-135847676D01*
X69535714Y-135847676D02*
X69440476Y-135942914D01*
X69440476Y-135942914D02*
X69345238Y-135990533D01*
X140916666Y-119704819D02*
X140916666Y-120419104D01*
X140916666Y-120419104D02*
X140869047Y-120561961D01*
X140869047Y-120561961D02*
X140773809Y-120657200D01*
X140773809Y-120657200D02*
X140630952Y-120704819D01*
X140630952Y-120704819D02*
X140535714Y-120704819D01*
X141916666Y-120704819D02*
X141345238Y-120704819D01*
X141630952Y-120704819D02*
X141630952Y-119704819D01*
X141630952Y-119704819D02*
X141535714Y-119847676D01*
X141535714Y-119847676D02*
X141440476Y-119942914D01*
X141440476Y-119942914D02*
X141345238Y-119990533D01*
X131916666Y-119704819D02*
X131916666Y-120419104D01*
X131916666Y-120419104D02*
X131869047Y-120561961D01*
X131869047Y-120561961D02*
X131773809Y-120657200D01*
X131773809Y-120657200D02*
X131630952Y-120704819D01*
X131630952Y-120704819D02*
X131535714Y-120704819D01*
X132916666Y-120704819D02*
X132345238Y-120704819D01*
X132630952Y-120704819D02*
X132630952Y-119704819D01*
X132630952Y-119704819D02*
X132535714Y-119847676D01*
X132535714Y-119847676D02*
X132440476Y-119942914D01*
X132440476Y-119942914D02*
X132345238Y-119990533D01*
X122916666Y-119704819D02*
X122916666Y-120419104D01*
X122916666Y-120419104D02*
X122869047Y-120561961D01*
X122869047Y-120561961D02*
X122773809Y-120657200D01*
X122773809Y-120657200D02*
X122630952Y-120704819D01*
X122630952Y-120704819D02*
X122535714Y-120704819D01*
X123916666Y-120704819D02*
X123345238Y-120704819D01*
X123630952Y-120704819D02*
X123630952Y-119704819D01*
X123630952Y-119704819D02*
X123535714Y-119847676D01*
X123535714Y-119847676D02*
X123440476Y-119942914D01*
X123440476Y-119942914D02*
X123345238Y-119990533D01*
X113916666Y-119704819D02*
X113916666Y-120419104D01*
X113916666Y-120419104D02*
X113869047Y-120561961D01*
X113869047Y-120561961D02*
X113773809Y-120657200D01*
X113773809Y-120657200D02*
X113630952Y-120704819D01*
X113630952Y-120704819D02*
X113535714Y-120704819D01*
X114916666Y-120704819D02*
X114345238Y-120704819D01*
X114630952Y-120704819D02*
X114630952Y-119704819D01*
X114630952Y-119704819D02*
X114535714Y-119847676D01*
X114535714Y-119847676D02*
X114440476Y-119942914D01*
X114440476Y-119942914D02*
X114345238Y-119990533D01*
X104916666Y-119704819D02*
X104916666Y-120419104D01*
X104916666Y-120419104D02*
X104869047Y-120561961D01*
X104869047Y-120561961D02*
X104773809Y-120657200D01*
X104773809Y-120657200D02*
X104630952Y-120704819D01*
X104630952Y-120704819D02*
X104535714Y-120704819D01*
X105916666Y-120704819D02*
X105345238Y-120704819D01*
X105630952Y-120704819D02*
X105630952Y-119704819D01*
X105630952Y-119704819D02*
X105535714Y-119847676D01*
X105535714Y-119847676D02*
X105440476Y-119942914D01*
X105440476Y-119942914D02*
X105345238Y-119990533D01*
X95916666Y-119704819D02*
X95916666Y-120419104D01*
X95916666Y-120419104D02*
X95869047Y-120561961D01*
X95869047Y-120561961D02*
X95773809Y-120657200D01*
X95773809Y-120657200D02*
X95630952Y-120704819D01*
X95630952Y-120704819D02*
X95535714Y-120704819D01*
X96916666Y-120704819D02*
X96345238Y-120704819D01*
X96630952Y-120704819D02*
X96630952Y-119704819D01*
X96630952Y-119704819D02*
X96535714Y-119847676D01*
X96535714Y-119847676D02*
X96440476Y-119942914D01*
X96440476Y-119942914D02*
X96345238Y-119990533D01*
X86916666Y-119704819D02*
X86916666Y-120419104D01*
X86916666Y-120419104D02*
X86869047Y-120561961D01*
X86869047Y-120561961D02*
X86773809Y-120657200D01*
X86773809Y-120657200D02*
X86630952Y-120704819D01*
X86630952Y-120704819D02*
X86535714Y-120704819D01*
X87916666Y-120704819D02*
X87345238Y-120704819D01*
X87630952Y-120704819D02*
X87630952Y-119704819D01*
X87630952Y-119704819D02*
X87535714Y-119847676D01*
X87535714Y-119847676D02*
X87440476Y-119942914D01*
X87440476Y-119942914D02*
X87345238Y-119990533D01*
X77916666Y-119704819D02*
X77916666Y-120419104D01*
X77916666Y-120419104D02*
X77869047Y-120561961D01*
X77869047Y-120561961D02*
X77773809Y-120657200D01*
X77773809Y-120657200D02*
X77630952Y-120704819D01*
X77630952Y-120704819D02*
X77535714Y-120704819D01*
X78916666Y-120704819D02*
X78345238Y-120704819D01*
X78630952Y-120704819D02*
X78630952Y-119704819D01*
X78630952Y-119704819D02*
X78535714Y-119847676D01*
X78535714Y-119847676D02*
X78440476Y-119942914D01*
X78440476Y-119942914D02*
X78345238Y-119990533D01*
X68916666Y-119704819D02*
X68916666Y-120419104D01*
X68916666Y-120419104D02*
X68869047Y-120561961D01*
X68869047Y-120561961D02*
X68773809Y-120657200D01*
X68773809Y-120657200D02*
X68630952Y-120704819D01*
X68630952Y-120704819D02*
X68535714Y-120704819D01*
X69916666Y-120704819D02*
X69345238Y-120704819D01*
X69630952Y-120704819D02*
X69630952Y-119704819D01*
X69630952Y-119704819D02*
X69535714Y-119847676D01*
X69535714Y-119847676D02*
X69440476Y-119942914D01*
X69440476Y-119942914D02*
X69345238Y-119990533D01*
X140916666Y-103704819D02*
X140916666Y-104419104D01*
X140916666Y-104419104D02*
X140869047Y-104561961D01*
X140869047Y-104561961D02*
X140773809Y-104657200D01*
X140773809Y-104657200D02*
X140630952Y-104704819D01*
X140630952Y-104704819D02*
X140535714Y-104704819D01*
X141916666Y-104704819D02*
X141345238Y-104704819D01*
X141630952Y-104704819D02*
X141630952Y-103704819D01*
X141630952Y-103704819D02*
X141535714Y-103847676D01*
X141535714Y-103847676D02*
X141440476Y-103942914D01*
X141440476Y-103942914D02*
X141345238Y-103990533D01*
X131916666Y-103704819D02*
X131916666Y-104419104D01*
X131916666Y-104419104D02*
X131869047Y-104561961D01*
X131869047Y-104561961D02*
X131773809Y-104657200D01*
X131773809Y-104657200D02*
X131630952Y-104704819D01*
X131630952Y-104704819D02*
X131535714Y-104704819D01*
X132916666Y-104704819D02*
X132345238Y-104704819D01*
X132630952Y-104704819D02*
X132630952Y-103704819D01*
X132630952Y-103704819D02*
X132535714Y-103847676D01*
X132535714Y-103847676D02*
X132440476Y-103942914D01*
X132440476Y-103942914D02*
X132345238Y-103990533D01*
X122916666Y-103704819D02*
X122916666Y-104419104D01*
X122916666Y-104419104D02*
X122869047Y-104561961D01*
X122869047Y-104561961D02*
X122773809Y-104657200D01*
X122773809Y-104657200D02*
X122630952Y-104704819D01*
X122630952Y-104704819D02*
X122535714Y-104704819D01*
X123916666Y-104704819D02*
X123345238Y-104704819D01*
X123630952Y-104704819D02*
X123630952Y-103704819D01*
X123630952Y-103704819D02*
X123535714Y-103847676D01*
X123535714Y-103847676D02*
X123440476Y-103942914D01*
X123440476Y-103942914D02*
X123345238Y-103990533D01*
X113916666Y-103704819D02*
X113916666Y-104419104D01*
X113916666Y-104419104D02*
X113869047Y-104561961D01*
X113869047Y-104561961D02*
X113773809Y-104657200D01*
X113773809Y-104657200D02*
X113630952Y-104704819D01*
X113630952Y-104704819D02*
X113535714Y-104704819D01*
X114916666Y-104704819D02*
X114345238Y-104704819D01*
X114630952Y-104704819D02*
X114630952Y-103704819D01*
X114630952Y-103704819D02*
X114535714Y-103847676D01*
X114535714Y-103847676D02*
X114440476Y-103942914D01*
X114440476Y-103942914D02*
X114345238Y-103990533D01*
X104916666Y-103704819D02*
X104916666Y-104419104D01*
X104916666Y-104419104D02*
X104869047Y-104561961D01*
X104869047Y-104561961D02*
X104773809Y-104657200D01*
X104773809Y-104657200D02*
X104630952Y-104704819D01*
X104630952Y-104704819D02*
X104535714Y-104704819D01*
X105916666Y-104704819D02*
X105345238Y-104704819D01*
X105630952Y-104704819D02*
X105630952Y-103704819D01*
X105630952Y-103704819D02*
X105535714Y-103847676D01*
X105535714Y-103847676D02*
X105440476Y-103942914D01*
X105440476Y-103942914D02*
X105345238Y-103990533D01*
X95916666Y-103704819D02*
X95916666Y-104419104D01*
X95916666Y-104419104D02*
X95869047Y-104561961D01*
X95869047Y-104561961D02*
X95773809Y-104657200D01*
X95773809Y-104657200D02*
X95630952Y-104704819D01*
X95630952Y-104704819D02*
X95535714Y-104704819D01*
X96916666Y-104704819D02*
X96345238Y-104704819D01*
X96630952Y-104704819D02*
X96630952Y-103704819D01*
X96630952Y-103704819D02*
X96535714Y-103847676D01*
X96535714Y-103847676D02*
X96440476Y-103942914D01*
X96440476Y-103942914D02*
X96345238Y-103990533D01*
X86916666Y-103704819D02*
X86916666Y-104419104D01*
X86916666Y-104419104D02*
X86869047Y-104561961D01*
X86869047Y-104561961D02*
X86773809Y-104657200D01*
X86773809Y-104657200D02*
X86630952Y-104704819D01*
X86630952Y-104704819D02*
X86535714Y-104704819D01*
X87916666Y-104704819D02*
X87345238Y-104704819D01*
X87630952Y-104704819D02*
X87630952Y-103704819D01*
X87630952Y-103704819D02*
X87535714Y-103847676D01*
X87535714Y-103847676D02*
X87440476Y-103942914D01*
X87440476Y-103942914D02*
X87345238Y-103990533D01*
X77916666Y-103704819D02*
X77916666Y-104419104D01*
X77916666Y-104419104D02*
X77869047Y-104561961D01*
X77869047Y-104561961D02*
X77773809Y-104657200D01*
X77773809Y-104657200D02*
X77630952Y-104704819D01*
X77630952Y-104704819D02*
X77535714Y-104704819D01*
X78916666Y-104704819D02*
X78345238Y-104704819D01*
X78630952Y-104704819D02*
X78630952Y-103704819D01*
X78630952Y-103704819D02*
X78535714Y-103847676D01*
X78535714Y-103847676D02*
X78440476Y-103942914D01*
X78440476Y-103942914D02*
X78345238Y-103990533D01*
X68916666Y-103704819D02*
X68916666Y-104419104D01*
X68916666Y-104419104D02*
X68869047Y-104561961D01*
X68869047Y-104561961D02*
X68773809Y-104657200D01*
X68773809Y-104657200D02*
X68630952Y-104704819D01*
X68630952Y-104704819D02*
X68535714Y-104704819D01*
X69916666Y-104704819D02*
X69345238Y-104704819D01*
X69630952Y-104704819D02*
X69630952Y-103704819D01*
X69630952Y-103704819D02*
X69535714Y-103847676D01*
X69535714Y-103847676D02*
X69440476Y-103942914D01*
X69440476Y-103942914D02*
X69345238Y-103990533D01*
X140916666Y-87704819D02*
X140916666Y-88419104D01*
X140916666Y-88419104D02*
X140869047Y-88561961D01*
X140869047Y-88561961D02*
X140773809Y-88657200D01*
X140773809Y-88657200D02*
X140630952Y-88704819D01*
X140630952Y-88704819D02*
X140535714Y-88704819D01*
X141916666Y-88704819D02*
X141345238Y-88704819D01*
X141630952Y-88704819D02*
X141630952Y-87704819D01*
X141630952Y-87704819D02*
X141535714Y-87847676D01*
X141535714Y-87847676D02*
X141440476Y-87942914D01*
X141440476Y-87942914D02*
X141345238Y-87990533D01*
X131916666Y-87704819D02*
X131916666Y-88419104D01*
X131916666Y-88419104D02*
X131869047Y-88561961D01*
X131869047Y-88561961D02*
X131773809Y-88657200D01*
X131773809Y-88657200D02*
X131630952Y-88704819D01*
X131630952Y-88704819D02*
X131535714Y-88704819D01*
X132916666Y-88704819D02*
X132345238Y-88704819D01*
X132630952Y-88704819D02*
X132630952Y-87704819D01*
X132630952Y-87704819D02*
X132535714Y-87847676D01*
X132535714Y-87847676D02*
X132440476Y-87942914D01*
X132440476Y-87942914D02*
X132345238Y-87990533D01*
X122916666Y-87704819D02*
X122916666Y-88419104D01*
X122916666Y-88419104D02*
X122869047Y-88561961D01*
X122869047Y-88561961D02*
X122773809Y-88657200D01*
X122773809Y-88657200D02*
X122630952Y-88704819D01*
X122630952Y-88704819D02*
X122535714Y-88704819D01*
X123916666Y-88704819D02*
X123345238Y-88704819D01*
X123630952Y-88704819D02*
X123630952Y-87704819D01*
X123630952Y-87704819D02*
X123535714Y-87847676D01*
X123535714Y-87847676D02*
X123440476Y-87942914D01*
X123440476Y-87942914D02*
X123345238Y-87990533D01*
X113916666Y-87704819D02*
X113916666Y-88419104D01*
X113916666Y-88419104D02*
X113869047Y-88561961D01*
X113869047Y-88561961D02*
X113773809Y-88657200D01*
X113773809Y-88657200D02*
X113630952Y-88704819D01*
X113630952Y-88704819D02*
X113535714Y-88704819D01*
X114916666Y-88704819D02*
X114345238Y-88704819D01*
X114630952Y-88704819D02*
X114630952Y-87704819D01*
X114630952Y-87704819D02*
X114535714Y-87847676D01*
X114535714Y-87847676D02*
X114440476Y-87942914D01*
X114440476Y-87942914D02*
X114345238Y-87990533D01*
X104916666Y-87704819D02*
X104916666Y-88419104D01*
X104916666Y-88419104D02*
X104869047Y-88561961D01*
X104869047Y-88561961D02*
X104773809Y-88657200D01*
X104773809Y-88657200D02*
X104630952Y-88704819D01*
X104630952Y-88704819D02*
X104535714Y-88704819D01*
X105916666Y-88704819D02*
X105345238Y-88704819D01*
X105630952Y-88704819D02*
X105630952Y-87704819D01*
X105630952Y-87704819D02*
X105535714Y-87847676D01*
X105535714Y-87847676D02*
X105440476Y-87942914D01*
X105440476Y-87942914D02*
X105345238Y-87990533D01*
X95916666Y-87704819D02*
X95916666Y-88419104D01*
X95916666Y-88419104D02*
X95869047Y-88561961D01*
X95869047Y-88561961D02*
X95773809Y-88657200D01*
X95773809Y-88657200D02*
X95630952Y-88704819D01*
X95630952Y-88704819D02*
X95535714Y-88704819D01*
X96916666Y-88704819D02*
X96345238Y-88704819D01*
X96630952Y-88704819D02*
X96630952Y-87704819D01*
X96630952Y-87704819D02*
X96535714Y-87847676D01*
X96535714Y-87847676D02*
X96440476Y-87942914D01*
X96440476Y-87942914D02*
X96345238Y-87990533D01*
X86916666Y-87704819D02*
X86916666Y-88419104D01*
X86916666Y-88419104D02*
X86869047Y-88561961D01*
X86869047Y-88561961D02*
X86773809Y-88657200D01*
X86773809Y-88657200D02*
X86630952Y-88704819D01*
X86630952Y-88704819D02*
X86535714Y-88704819D01*
X87916666Y-88704819D02*
X87345238Y-88704819D01*
X87630952Y-88704819D02*
X87630952Y-87704819D01*
X87630952Y-87704819D02*
X87535714Y-87847676D01*
X87535714Y-87847676D02*
X87440476Y-87942914D01*
X87440476Y-87942914D02*
X87345238Y-87990533D01*
X77916666Y-87704819D02*
X77916666Y-88419104D01*
X77916666Y-88419104D02*
X77869047Y-88561961D01*
X77869047Y-88561961D02*
X77773809Y-88657200D01*
X77773809Y-88657200D02*
X77630952Y-88704819D01*
X77630952Y-88704819D02*
X77535714Y-88704819D01*
X78916666Y-88704819D02*
X78345238Y-88704819D01*
X78630952Y-88704819D02*
X78630952Y-87704819D01*
X78630952Y-87704819D02*
X78535714Y-87847676D01*
X78535714Y-87847676D02*
X78440476Y-87942914D01*
X78440476Y-87942914D02*
X78345238Y-87990533D01*
X68916666Y-87704819D02*
X68916666Y-88419104D01*
X68916666Y-88419104D02*
X68869047Y-88561961D01*
X68869047Y-88561961D02*
X68773809Y-88657200D01*
X68773809Y-88657200D02*
X68630952Y-88704819D01*
X68630952Y-88704819D02*
X68535714Y-88704819D01*
X69916666Y-88704819D02*
X69345238Y-88704819D01*
X69630952Y-88704819D02*
X69630952Y-87704819D01*
X69630952Y-87704819D02*
X69535714Y-87847676D01*
X69535714Y-87847676D02*
X69440476Y-87942914D01*
X69440476Y-87942914D02*
X69345238Y-87990533D01*
X140916666Y-71704819D02*
X140916666Y-72419104D01*
X140916666Y-72419104D02*
X140869047Y-72561961D01*
X140869047Y-72561961D02*
X140773809Y-72657200D01*
X140773809Y-72657200D02*
X140630952Y-72704819D01*
X140630952Y-72704819D02*
X140535714Y-72704819D01*
X141916666Y-72704819D02*
X141345238Y-72704819D01*
X141630952Y-72704819D02*
X141630952Y-71704819D01*
X141630952Y-71704819D02*
X141535714Y-71847676D01*
X141535714Y-71847676D02*
X141440476Y-71942914D01*
X141440476Y-71942914D02*
X141345238Y-71990533D01*
X131916666Y-71704819D02*
X131916666Y-72419104D01*
X131916666Y-72419104D02*
X131869047Y-72561961D01*
X131869047Y-72561961D02*
X131773809Y-72657200D01*
X131773809Y-72657200D02*
X131630952Y-72704819D01*
X131630952Y-72704819D02*
X131535714Y-72704819D01*
X132916666Y-72704819D02*
X132345238Y-72704819D01*
X132630952Y-72704819D02*
X132630952Y-71704819D01*
X132630952Y-71704819D02*
X132535714Y-71847676D01*
X132535714Y-71847676D02*
X132440476Y-71942914D01*
X132440476Y-71942914D02*
X132345238Y-71990533D01*
X122916666Y-71704819D02*
X122916666Y-72419104D01*
X122916666Y-72419104D02*
X122869047Y-72561961D01*
X122869047Y-72561961D02*
X122773809Y-72657200D01*
X122773809Y-72657200D02*
X122630952Y-72704819D01*
X122630952Y-72704819D02*
X122535714Y-72704819D01*
X123916666Y-72704819D02*
X123345238Y-72704819D01*
X123630952Y-72704819D02*
X123630952Y-71704819D01*
X123630952Y-71704819D02*
X123535714Y-71847676D01*
X123535714Y-71847676D02*
X123440476Y-71942914D01*
X123440476Y-71942914D02*
X123345238Y-71990533D01*
X113916666Y-71704819D02*
X113916666Y-72419104D01*
X113916666Y-72419104D02*
X113869047Y-72561961D01*
X113869047Y-72561961D02*
X113773809Y-72657200D01*
X113773809Y-72657200D02*
X113630952Y-72704819D01*
X113630952Y-72704819D02*
X113535714Y-72704819D01*
X114916666Y-72704819D02*
X114345238Y-72704819D01*
X114630952Y-72704819D02*
X114630952Y-71704819D01*
X114630952Y-71704819D02*
X114535714Y-71847676D01*
X114535714Y-71847676D02*
X114440476Y-71942914D01*
X114440476Y-71942914D02*
X114345238Y-71990533D01*
X104916666Y-71704819D02*
X104916666Y-72419104D01*
X104916666Y-72419104D02*
X104869047Y-72561961D01*
X104869047Y-72561961D02*
X104773809Y-72657200D01*
X104773809Y-72657200D02*
X104630952Y-72704819D01*
X104630952Y-72704819D02*
X104535714Y-72704819D01*
X105916666Y-72704819D02*
X105345238Y-72704819D01*
X105630952Y-72704819D02*
X105630952Y-71704819D01*
X105630952Y-71704819D02*
X105535714Y-71847676D01*
X105535714Y-71847676D02*
X105440476Y-71942914D01*
X105440476Y-71942914D02*
X105345238Y-71990533D01*
X95916666Y-71704819D02*
X95916666Y-72419104D01*
X95916666Y-72419104D02*
X95869047Y-72561961D01*
X95869047Y-72561961D02*
X95773809Y-72657200D01*
X95773809Y-72657200D02*
X95630952Y-72704819D01*
X95630952Y-72704819D02*
X95535714Y-72704819D01*
X96916666Y-72704819D02*
X96345238Y-72704819D01*
X96630952Y-72704819D02*
X96630952Y-71704819D01*
X96630952Y-71704819D02*
X96535714Y-71847676D01*
X96535714Y-71847676D02*
X96440476Y-71942914D01*
X96440476Y-71942914D02*
X96345238Y-71990533D01*
X86916666Y-71704819D02*
X86916666Y-72419104D01*
X86916666Y-72419104D02*
X86869047Y-72561961D01*
X86869047Y-72561961D02*
X86773809Y-72657200D01*
X86773809Y-72657200D02*
X86630952Y-72704819D01*
X86630952Y-72704819D02*
X86535714Y-72704819D01*
X87916666Y-72704819D02*
X87345238Y-72704819D01*
X87630952Y-72704819D02*
X87630952Y-71704819D01*
X87630952Y-71704819D02*
X87535714Y-71847676D01*
X87535714Y-71847676D02*
X87440476Y-71942914D01*
X87440476Y-71942914D02*
X87345238Y-71990533D01*
X77916666Y-71704819D02*
X77916666Y-72419104D01*
X77916666Y-72419104D02*
X77869047Y-72561961D01*
X77869047Y-72561961D02*
X77773809Y-72657200D01*
X77773809Y-72657200D02*
X77630952Y-72704819D01*
X77630952Y-72704819D02*
X77535714Y-72704819D01*
X78916666Y-72704819D02*
X78345238Y-72704819D01*
X78630952Y-72704819D02*
X78630952Y-71704819D01*
X78630952Y-71704819D02*
X78535714Y-71847676D01*
X78535714Y-71847676D02*
X78440476Y-71942914D01*
X78440476Y-71942914D02*
X78345238Y-71990533D01*
X68916666Y-71704819D02*
X68916666Y-72419104D01*
X68916666Y-72419104D02*
X68869047Y-72561961D01*
X68869047Y-72561961D02*
X68773809Y-72657200D01*
X68773809Y-72657200D02*
X68630952Y-72704819D01*
X68630952Y-72704819D02*
X68535714Y-72704819D01*
X69916666Y-72704819D02*
X69345238Y-72704819D01*
X69630952Y-72704819D02*
X69630952Y-71704819D01*
X69630952Y-71704819D02*
X69535714Y-71847676D01*
X69535714Y-71847676D02*
X69440476Y-71942914D01*
X69440476Y-71942914D02*
X69345238Y-71990533D01*
X140916666Y-55704819D02*
X140916666Y-56419104D01*
X140916666Y-56419104D02*
X140869047Y-56561961D01*
X140869047Y-56561961D02*
X140773809Y-56657200D01*
X140773809Y-56657200D02*
X140630952Y-56704819D01*
X140630952Y-56704819D02*
X140535714Y-56704819D01*
X141916666Y-56704819D02*
X141345238Y-56704819D01*
X141630952Y-56704819D02*
X141630952Y-55704819D01*
X141630952Y-55704819D02*
X141535714Y-55847676D01*
X141535714Y-55847676D02*
X141440476Y-55942914D01*
X141440476Y-55942914D02*
X141345238Y-55990533D01*
X131916666Y-55704819D02*
X131916666Y-56419104D01*
X131916666Y-56419104D02*
X131869047Y-56561961D01*
X131869047Y-56561961D02*
X131773809Y-56657200D01*
X131773809Y-56657200D02*
X131630952Y-56704819D01*
X131630952Y-56704819D02*
X131535714Y-56704819D01*
X132916666Y-56704819D02*
X132345238Y-56704819D01*
X132630952Y-56704819D02*
X132630952Y-55704819D01*
X132630952Y-55704819D02*
X132535714Y-55847676D01*
X132535714Y-55847676D02*
X132440476Y-55942914D01*
X132440476Y-55942914D02*
X132345238Y-55990533D01*
X122916666Y-55704819D02*
X122916666Y-56419104D01*
X122916666Y-56419104D02*
X122869047Y-56561961D01*
X122869047Y-56561961D02*
X122773809Y-56657200D01*
X122773809Y-56657200D02*
X122630952Y-56704819D01*
X122630952Y-56704819D02*
X122535714Y-56704819D01*
X123916666Y-56704819D02*
X123345238Y-56704819D01*
X123630952Y-56704819D02*
X123630952Y-55704819D01*
X123630952Y-55704819D02*
X123535714Y-55847676D01*
X123535714Y-55847676D02*
X123440476Y-55942914D01*
X123440476Y-55942914D02*
X123345238Y-55990533D01*
X113916666Y-55704819D02*
X113916666Y-56419104D01*
X113916666Y-56419104D02*
X113869047Y-56561961D01*
X113869047Y-56561961D02*
X113773809Y-56657200D01*
X113773809Y-56657200D02*
X113630952Y-56704819D01*
X113630952Y-56704819D02*
X113535714Y-56704819D01*
X114916666Y-56704819D02*
X114345238Y-56704819D01*
X114630952Y-56704819D02*
X114630952Y-55704819D01*
X114630952Y-55704819D02*
X114535714Y-55847676D01*
X114535714Y-55847676D02*
X114440476Y-55942914D01*
X114440476Y-55942914D02*
X114345238Y-55990533D01*
X104916666Y-55704819D02*
X104916666Y-56419104D01*
X104916666Y-56419104D02*
X104869047Y-56561961D01*
X104869047Y-56561961D02*
X104773809Y-56657200D01*
X104773809Y-56657200D02*
X104630952Y-56704819D01*
X104630952Y-56704819D02*
X104535714Y-56704819D01*
X105916666Y-56704819D02*
X105345238Y-56704819D01*
X105630952Y-56704819D02*
X105630952Y-55704819D01*
X105630952Y-55704819D02*
X105535714Y-55847676D01*
X105535714Y-55847676D02*
X105440476Y-55942914D01*
X105440476Y-55942914D02*
X105345238Y-55990533D01*
X95916666Y-55704819D02*
X95916666Y-56419104D01*
X95916666Y-56419104D02*
X95869047Y-56561961D01*
X95869047Y-56561961D02*
X95773809Y-56657200D01*
X95773809Y-56657200D02*
X95630952Y-56704819D01*
X95630952Y-56704819D02*
X95535714Y-56704819D01*
X96916666Y-56704819D02*
X96345238Y-56704819D01*
X96630952Y-56704819D02*
X96630952Y-55704819D01*
X96630952Y-55704819D02*
X96535714Y-55847676D01*
X96535714Y-55847676D02*
X96440476Y-55942914D01*
X96440476Y-55942914D02*
X96345238Y-55990533D01*
X86916666Y-55704819D02*
X86916666Y-56419104D01*
X86916666Y-56419104D02*
X86869047Y-56561961D01*
X86869047Y-56561961D02*
X86773809Y-56657200D01*
X86773809Y-56657200D02*
X86630952Y-56704819D01*
X86630952Y-56704819D02*
X86535714Y-56704819D01*
X87916666Y-56704819D02*
X87345238Y-56704819D01*
X87630952Y-56704819D02*
X87630952Y-55704819D01*
X87630952Y-55704819D02*
X87535714Y-55847676D01*
X87535714Y-55847676D02*
X87440476Y-55942914D01*
X87440476Y-55942914D02*
X87345238Y-55990533D01*
X77916666Y-55704819D02*
X77916666Y-56419104D01*
X77916666Y-56419104D02*
X77869047Y-56561961D01*
X77869047Y-56561961D02*
X77773809Y-56657200D01*
X77773809Y-56657200D02*
X77630952Y-56704819D01*
X77630952Y-56704819D02*
X77535714Y-56704819D01*
X78916666Y-56704819D02*
X78345238Y-56704819D01*
X78630952Y-56704819D02*
X78630952Y-55704819D01*
X78630952Y-55704819D02*
X78535714Y-55847676D01*
X78535714Y-55847676D02*
X78440476Y-55942914D01*
X78440476Y-55942914D02*
X78345238Y-55990533D01*
X68916666Y-55704819D02*
X68916666Y-56419104D01*
X68916666Y-56419104D02*
X68869047Y-56561961D01*
X68869047Y-56561961D02*
X68773809Y-56657200D01*
X68773809Y-56657200D02*
X68630952Y-56704819D01*
X68630952Y-56704819D02*
X68535714Y-56704819D01*
X69916666Y-56704819D02*
X69345238Y-56704819D01*
X69630952Y-56704819D02*
X69630952Y-55704819D01*
X69630952Y-55704819D02*
X69535714Y-55847676D01*
X69535714Y-55847676D02*
X69440476Y-55942914D01*
X69440476Y-55942914D02*
X69345238Y-55990533D01*
D11*
%TO.C,J1*%
X141350000Y-139500000D02*
G75*
G03*
X134150000Y-139500000I-3600000J0D01*
G01*
X134150000Y-139500000D02*
G75*
G03*
X141350000Y-139500000I3600000J0D01*
G01*
X132350000Y-139500000D02*
G75*
G03*
X125150000Y-139500000I-3600000J0D01*
G01*
X125150000Y-139500000D02*
G75*
G03*
X132350000Y-139500000I3600000J0D01*
G01*
X123350000Y-139500000D02*
G75*
G03*
X116150000Y-139500000I-3600000J0D01*
G01*
X116150000Y-139500000D02*
G75*
G03*
X123350000Y-139500000I3600000J0D01*
G01*
X114350000Y-139500000D02*
G75*
G03*
X107150000Y-139500000I-3600000J0D01*
G01*
X107150000Y-139500000D02*
G75*
G03*
X114350000Y-139500000I3600000J0D01*
G01*
X105350000Y-139500000D02*
G75*
G03*
X98150000Y-139500000I-3600000J0D01*
G01*
X98150000Y-139500000D02*
G75*
G03*
X105350000Y-139500000I3600000J0D01*
G01*
X96350000Y-139500000D02*
G75*
G03*
X89150000Y-139500000I-3600000J0D01*
G01*
X89150000Y-139500000D02*
G75*
G03*
X96350000Y-139500000I3600000J0D01*
G01*
X87350000Y-139500000D02*
G75*
G03*
X80150000Y-139500000I-3600000J0D01*
G01*
X80150000Y-139500000D02*
G75*
G03*
X87350000Y-139500000I3600000J0D01*
G01*
X78350000Y-139500000D02*
G75*
G03*
X71150000Y-139500000I-3600000J0D01*
G01*
X71150000Y-139500000D02*
G75*
G03*
X78350000Y-139500000I3600000J0D01*
G01*
X69350000Y-139500000D02*
G75*
G03*
X62150000Y-139500000I-3600000J0D01*
G01*
X62150000Y-139500000D02*
G75*
G03*
X69350000Y-139500000I3600000J0D01*
G01*
X141350000Y-123500000D02*
G75*
G03*
X134150000Y-123500000I-3600000J0D01*
G01*
X134150000Y-123500000D02*
G75*
G03*
X141350000Y-123500000I3600000J0D01*
G01*
X132350000Y-123500000D02*
G75*
G03*
X125150000Y-123500000I-3600000J0D01*
G01*
X125150000Y-123500000D02*
G75*
G03*
X132350000Y-123500000I3600000J0D01*
G01*
X123350000Y-123500000D02*
G75*
G03*
X116150000Y-123500000I-3600000J0D01*
G01*
X116150000Y-123500000D02*
G75*
G03*
X123350000Y-123500000I3600000J0D01*
G01*
X114350000Y-123500000D02*
G75*
G03*
X107150000Y-123500000I-3600000J0D01*
G01*
X107150000Y-123500000D02*
G75*
G03*
X114350000Y-123500000I3600000J0D01*
G01*
X105350000Y-123500000D02*
G75*
G03*
X98150000Y-123500000I-3600000J0D01*
G01*
X98150000Y-123500000D02*
G75*
G03*
X105350000Y-123500000I3600000J0D01*
G01*
X96350000Y-123500000D02*
G75*
G03*
X89150000Y-123500000I-3600000J0D01*
G01*
X89150000Y-123500000D02*
G75*
G03*
X96350000Y-123500000I3600000J0D01*
G01*
X87350000Y-123500000D02*
G75*
G03*
X80150000Y-123500000I-3600000J0D01*
G01*
X80150000Y-123500000D02*
G75*
G03*
X87350000Y-123500000I3600000J0D01*
G01*
X78350000Y-123500000D02*
G75*
G03*
X71150000Y-123500000I-3600000J0D01*
G01*
X71150000Y-123500000D02*
G75*
G03*
X78350000Y-123500000I3600000J0D01*
G01*
X69350000Y-123500000D02*
G75*
G03*
X62150000Y-123500000I-3600000J0D01*
G01*
X62150000Y-123500000D02*
G75*
G03*
X69350000Y-123500000I3600000J0D01*
G01*
X141350000Y-107500000D02*
G75*
G03*
X134150000Y-107500000I-3600000J0D01*
G01*
X134150000Y-107500000D02*
G75*
G03*
X141350000Y-107500000I3600000J0D01*
G01*
X132350000Y-107500000D02*
G75*
G03*
X125150000Y-107500000I-3600000J0D01*
G01*
X125150000Y-107500000D02*
G75*
G03*
X132350000Y-107500000I3600000J0D01*
G01*
X123350000Y-107500000D02*
G75*
G03*
X116150000Y-107500000I-3600000J0D01*
G01*
X116150000Y-107500000D02*
G75*
G03*
X123350000Y-107500000I3600000J0D01*
G01*
X114350000Y-107500000D02*
G75*
G03*
X107150000Y-107500000I-3600000J0D01*
G01*
X107150000Y-107500000D02*
G75*
G03*
X114350000Y-107500000I3600000J0D01*
G01*
X105350000Y-107500000D02*
G75*
G03*
X98150000Y-107500000I-3600000J0D01*
G01*
X98150000Y-107500000D02*
G75*
G03*
X105350000Y-107500000I3600000J0D01*
G01*
X96350000Y-107500000D02*
G75*
G03*
X89150000Y-107500000I-3600000J0D01*
G01*
X89150000Y-107500000D02*
G75*
G03*
X96350000Y-107500000I3600000J0D01*
G01*
X87350000Y-107500000D02*
G75*
G03*
X80150000Y-107500000I-3600000J0D01*
G01*
X80150000Y-107500000D02*
G75*
G03*
X87350000Y-107500000I3600000J0D01*
G01*
X78350000Y-107500000D02*
G75*
G03*
X71150000Y-107500000I-3600000J0D01*
G01*
X71150000Y-107500000D02*
G75*
G03*
X78350000Y-107500000I3600000J0D01*
G01*
X69350000Y-107500000D02*
G75*
G03*
X62150000Y-107500000I-3600000J0D01*
G01*
X62150000Y-107500000D02*
G75*
G03*
X69350000Y-107500000I3600000J0D01*
G01*
X141350000Y-91500000D02*
G75*
G03*
X134150000Y-91500000I-3600000J0D01*
G01*
X134150000Y-91500000D02*
G75*
G03*
X141350000Y-91500000I3600000J0D01*
G01*
X132350000Y-91500000D02*
G75*
G03*
X125150000Y-91500000I-3600000J0D01*
G01*
X125150000Y-91500000D02*
G75*
G03*
X132350000Y-91500000I3600000J0D01*
G01*
X123350000Y-91500000D02*
G75*
G03*
X116150000Y-91500000I-3600000J0D01*
G01*
X116150000Y-91500000D02*
G75*
G03*
X123350000Y-91500000I3600000J0D01*
G01*
X114350000Y-91500000D02*
G75*
G03*
X107150000Y-91500000I-3600000J0D01*
G01*
X107150000Y-91500000D02*
G75*
G03*
X114350000Y-91500000I3600000J0D01*
G01*
X105350000Y-91500000D02*
G75*
G03*
X98150000Y-91500000I-3600000J0D01*
G01*
X98150000Y-91500000D02*
G75*
G03*
X105350000Y-91500000I3600000J0D01*
G01*
X96350000Y-91500000D02*
G75*
G03*
X89150000Y-91500000I-3600000J0D01*
G01*
X89150000Y-91500000D02*
G75*
G03*
X96350000Y-91500000I3600000J0D01*
G01*
X87350000Y-91500000D02*
G75*
G03*
X80150000Y-91500000I-3600000J0D01*
G01*
X80150000Y-91500000D02*
G75*
G03*
X87350000Y-91500000I3600000J0D01*
G01*
X78350000Y-91500000D02*
G75*
G03*
X71150000Y-91500000I-3600000J0D01*
G01*
X71150000Y-91500000D02*
G75*
G03*
X78350000Y-91500000I3600000J0D01*
G01*
X69350000Y-91500000D02*
G75*
G03*
X62150000Y-91500000I-3600000J0D01*
G01*
X62150000Y-91500000D02*
G75*
G03*
X69350000Y-91500000I3600000J0D01*
G01*
X141350000Y-75500000D02*
G75*
G03*
X134150000Y-75500000I-3600000J0D01*
G01*
X134150000Y-75500000D02*
G75*
G03*
X141350000Y-75500000I3600000J0D01*
G01*
X132350000Y-75500000D02*
G75*
G03*
X125150000Y-75500000I-3600000J0D01*
G01*
X125150000Y-75500000D02*
G75*
G03*
X132350000Y-75500000I3600000J0D01*
G01*
X123350000Y-75500000D02*
G75*
G03*
X116150000Y-75500000I-3600000J0D01*
G01*
X116150000Y-75500000D02*
G75*
G03*
X123350000Y-75500000I3600000J0D01*
G01*
X114350000Y-75500000D02*
G75*
G03*
X107150000Y-75500000I-3600000J0D01*
G01*
X107150000Y-75500000D02*
G75*
G03*
X114350000Y-75500000I3600000J0D01*
G01*
X105350000Y-75500000D02*
G75*
G03*
X98150000Y-75500000I-3600000J0D01*
G01*
X98150000Y-75500000D02*
G75*
G03*
X105350000Y-75500000I3600000J0D01*
G01*
X96350000Y-75500000D02*
G75*
G03*
X89150000Y-75500000I-3600000J0D01*
G01*
X89150000Y-75500000D02*
G75*
G03*
X96350000Y-75500000I3600000J0D01*
G01*
X87350000Y-75500000D02*
G75*
G03*
X80150000Y-75500000I-3600000J0D01*
G01*
X80150000Y-75500000D02*
G75*
G03*
X87350000Y-75500000I3600000J0D01*
G01*
X78350000Y-75500000D02*
G75*
G03*
X71150000Y-75500000I-3600000J0D01*
G01*
X71150000Y-75500000D02*
G75*
G03*
X78350000Y-75500000I3600000J0D01*
G01*
X69350000Y-75500000D02*
G75*
G03*
X62150000Y-75500000I-3600000J0D01*
G01*
X62150000Y-75500000D02*
G75*
G03*
X69350000Y-75500000I3600000J0D01*
G01*
X141350000Y-59500000D02*
G75*
G03*
X134150000Y-59500000I-3600000J0D01*
G01*
X134150000Y-59500000D02*
G75*
G03*
X141350000Y-59500000I3600000J0D01*
G01*
X132350000Y-59500000D02*
G75*
G03*
X125150000Y-59500000I-3600000J0D01*
G01*
X125150000Y-59500000D02*
G75*
G03*
X132350000Y-59500000I3600000J0D01*
G01*
X123350000Y-59500000D02*
G75*
G03*
X116150000Y-59500000I-3600000J0D01*
G01*
X116150000Y-59500000D02*
G75*
G03*
X123350000Y-59500000I3600000J0D01*
G01*
X114350000Y-59500000D02*
G75*
G03*
X107150000Y-59500000I-3600000J0D01*
G01*
X107150000Y-59500000D02*
G75*
G03*
X114350000Y-59500000I3600000J0D01*
G01*
X105350000Y-59500000D02*
G75*
G03*
X98150000Y-59500000I-3600000J0D01*
G01*
X98150000Y-59500000D02*
G75*
G03*
X105350000Y-59500000I3600000J0D01*
G01*
X96350000Y-59500000D02*
G75*
G03*
X89150000Y-59500000I-3600000J0D01*
G01*
X89150000Y-59500000D02*
G75*
G03*
X96350000Y-59500000I3600000J0D01*
G01*
X87350000Y-59500000D02*
G75*
G03*
X80150000Y-59500000I-3600000J0D01*
G01*
X80150000Y-59500000D02*
G75*
G03*
X87350000Y-59500000I3600000J0D01*
G01*
X78350000Y-59500000D02*
G75*
G03*
X71150000Y-59500000I-3600000J0D01*
G01*
X71150000Y-59500000D02*
G75*
G03*
X78350000Y-59500000I3600000J0D01*
G01*
X69350000Y-59500000D02*
G75*
G03*
X62150000Y-59500000I-3600000J0D01*
G01*
X62150000Y-59500000D02*
G75*
G03*
X69350000Y-59500000I3600000J0D01*
G01*
%TD*%
D12*
X133250000Y-135500000D02*
X142250000Y-135500000D01*
X142250000Y-151500000D01*
X133250000Y-151500000D01*
X133250000Y-135500000D01*
X124250000Y-135500000D02*
X133250000Y-135500000D01*
X133250000Y-151500000D01*
X124250000Y-151500000D01*
X124250000Y-135500000D01*
X115250000Y-135500000D02*
X124250000Y-135500000D01*
X124250000Y-151500000D01*
X115250000Y-151500000D01*
X115250000Y-135500000D01*
X106250000Y-135500000D02*
X115250000Y-135500000D01*
X115250000Y-151500000D01*
X106250000Y-151500000D01*
X106250000Y-135500000D01*
X97250000Y-135500000D02*
X106250000Y-135500000D01*
X106250000Y-151500000D01*
X97250000Y-151500000D01*
X97250000Y-135500000D01*
X88250000Y-135500000D02*
X97250000Y-135500000D01*
X97250000Y-151500000D01*
X88250000Y-151500000D01*
X88250000Y-135500000D01*
X79250000Y-135500000D02*
X88250000Y-135500000D01*
X88250000Y-151500000D01*
X79250000Y-151500000D01*
X79250000Y-135500000D01*
X70250000Y-135500000D02*
X79250000Y-135500000D01*
X79250000Y-151500000D01*
X70250000Y-151500000D01*
X70250000Y-135500000D01*
X61250000Y-135500000D02*
X70250000Y-135500000D01*
X70250000Y-151500000D01*
X61250000Y-151500000D01*
X61250000Y-135500000D01*
X133250000Y-119500000D02*
X142250000Y-119500000D01*
X142250000Y-135500000D01*
X133250000Y-135500000D01*
X133250000Y-119500000D01*
X124250000Y-119500000D02*
X133250000Y-119500000D01*
X133250000Y-135500000D01*
X124250000Y-135500000D01*
X124250000Y-119500000D01*
X115250000Y-119500000D02*
X124250000Y-119500000D01*
X124250000Y-135500000D01*
X115250000Y-135500000D01*
X115250000Y-119500000D01*
X106250000Y-119500000D02*
X115250000Y-119500000D01*
X115250000Y-135500000D01*
X106250000Y-135500000D01*
X106250000Y-119500000D01*
X97250000Y-119500000D02*
X106250000Y-119500000D01*
X106250000Y-135500000D01*
X97250000Y-135500000D01*
X97250000Y-119500000D01*
X88250000Y-119500000D02*
X97250000Y-119500000D01*
X97250000Y-135500000D01*
X88250000Y-135500000D01*
X88250000Y-119500000D01*
X79250000Y-119500000D02*
X88250000Y-119500000D01*
X88250000Y-135500000D01*
X79250000Y-135500000D01*
X79250000Y-119500000D01*
X70250000Y-119500000D02*
X79250000Y-119500000D01*
X79250000Y-135500000D01*
X70250000Y-135500000D01*
X70250000Y-119500000D01*
X61250000Y-119500000D02*
X70250000Y-119500000D01*
X70250000Y-135500000D01*
X61250000Y-135500000D01*
X61250000Y-119500000D01*
X133250000Y-103500000D02*
X142250000Y-103500000D01*
X142250000Y-119500000D01*
X133250000Y-119500000D01*
X133250000Y-103500000D01*
X124250000Y-103500000D02*
X133250000Y-103500000D01*
X133250000Y-119500000D01*
X124250000Y-119500000D01*
X124250000Y-103500000D01*
X115250000Y-103500000D02*
X124250000Y-103500000D01*
X124250000Y-119500000D01*
X115250000Y-119500000D01*
X115250000Y-103500000D01*
X106250000Y-103500000D02*
X115250000Y-103500000D01*
X115250000Y-119500000D01*
X106250000Y-119500000D01*
X106250000Y-103500000D01*
X97250000Y-103500000D02*
X106250000Y-103500000D01*
X106250000Y-119500000D01*
X97250000Y-119500000D01*
X97250000Y-103500000D01*
X88250000Y-103500000D02*
X97250000Y-103500000D01*
X97250000Y-119500000D01*
X88250000Y-119500000D01*
X88250000Y-103500000D01*
X79250000Y-103500000D02*
X88250000Y-103500000D01*
X88250000Y-119500000D01*
X79250000Y-119500000D01*
X79250000Y-103500000D01*
X70250000Y-103500000D02*
X79250000Y-103500000D01*
X79250000Y-119500000D01*
X70250000Y-119500000D01*
X70250000Y-103500000D01*
X61250000Y-103500000D02*
X70250000Y-103500000D01*
X70250000Y-119500000D01*
X61250000Y-119500000D01*
X61250000Y-103500000D01*
X133250000Y-87500000D02*
X142250000Y-87500000D01*
X142250000Y-103500000D01*
X133250000Y-103500000D01*
X133250000Y-87500000D01*
X124250000Y-87500000D02*
X133250000Y-87500000D01*
X133250000Y-103500000D01*
X124250000Y-103500000D01*
X124250000Y-87500000D01*
X115250000Y-87500000D02*
X124250000Y-87500000D01*
X124250000Y-103500000D01*
X115250000Y-103500000D01*
X115250000Y-87500000D01*
X106250000Y-87500000D02*
X115250000Y-87500000D01*
X115250000Y-103500000D01*
X106250000Y-103500000D01*
X106250000Y-87500000D01*
X97250000Y-87500000D02*
X106250000Y-87500000D01*
X106250000Y-103500000D01*
X97250000Y-103500000D01*
X97250000Y-87500000D01*
X88250000Y-87500000D02*
X97250000Y-87500000D01*
X97250000Y-103500000D01*
X88250000Y-103500000D01*
X88250000Y-87500000D01*
X79250000Y-87500000D02*
X88250000Y-87500000D01*
X88250000Y-103500000D01*
X79250000Y-103500000D01*
X79250000Y-87500000D01*
X70250000Y-87500000D02*
X79250000Y-87500000D01*
X79250000Y-103500000D01*
X70250000Y-103500000D01*
X70250000Y-87500000D01*
X61250000Y-87500000D02*
X70250000Y-87500000D01*
X70250000Y-103500000D01*
X61250000Y-103500000D01*
X61250000Y-87500000D01*
X133250000Y-71500000D02*
X142250000Y-71500000D01*
X142250000Y-87500000D01*
X133250000Y-87500000D01*
X133250000Y-71500000D01*
X124250000Y-71500000D02*
X133250000Y-71500000D01*
X133250000Y-87500000D01*
X124250000Y-87500000D01*
X124250000Y-71500000D01*
X115250000Y-71500000D02*
X124250000Y-71500000D01*
X124250000Y-87500000D01*
X115250000Y-87500000D01*
X115250000Y-71500000D01*
X106250000Y-71500000D02*
X115250000Y-71500000D01*
X115250000Y-87500000D01*
X106250000Y-87500000D01*
X106250000Y-71500000D01*
X97250000Y-71500000D02*
X106250000Y-71500000D01*
X106250000Y-87500000D01*
X97250000Y-87500000D01*
X97250000Y-71500000D01*
X88250000Y-71500000D02*
X97250000Y-71500000D01*
X97250000Y-87500000D01*
X88250000Y-87500000D01*
X88250000Y-71500000D01*
X79250000Y-71500000D02*
X88250000Y-71500000D01*
X88250000Y-87500000D01*
X79250000Y-87500000D01*
X79250000Y-71500000D01*
X70250000Y-71500000D02*
X79250000Y-71500000D01*
X79250000Y-87500000D01*
X70250000Y-87500000D01*
X70250000Y-71500000D01*
X61250000Y-71500000D02*
X70250000Y-71500000D01*
X70250000Y-87500000D01*
X61250000Y-87500000D01*
X61250000Y-71500000D01*
X133250000Y-55500000D02*
X142250000Y-55500000D01*
X142250000Y-71500000D01*
X133250000Y-71500000D01*
X133250000Y-55500000D01*
X124250000Y-55500000D02*
X133250000Y-55500000D01*
X133250000Y-71500000D01*
X124250000Y-71500000D01*
X124250000Y-55500000D01*
X115250000Y-55500000D02*
X124250000Y-55500000D01*
X124250000Y-71500000D01*
X115250000Y-71500000D01*
X115250000Y-55500000D01*
X106250000Y-55500000D02*
X115250000Y-55500000D01*
X115250000Y-71500000D01*
X106250000Y-71500000D01*
X106250000Y-55500000D01*
X97250000Y-55500000D02*
X106250000Y-55500000D01*
X106250000Y-71500000D01*
X97250000Y-71500000D01*
X97250000Y-55500000D01*
X88250000Y-55500000D02*
X97250000Y-55500000D01*
X97250000Y-71500000D01*
X88250000Y-71500000D01*
X88250000Y-55500000D01*
X79250000Y-55500000D02*
X88250000Y-55500000D01*
X88250000Y-71500000D01*
X79250000Y-71500000D01*
X79250000Y-55500000D01*
X70250000Y-55500000D02*
X79250000Y-55500000D01*
X79250000Y-71500000D01*
X70250000Y-71500000D01*
X70250000Y-55500000D01*
X61250000Y-55500000D02*
X70250000Y-55500000D01*
X70250000Y-71500000D01*
X61250000Y-71500000D01*
X61250000Y-55500000D01*
M02*
