M48
; DRILL file {KiCad 7.0.11+dfsg-1build4} date jue 17 sep 2026 16:39:23
; FORMAT={-:-/ absolute / metric / decimal}
; #@! TF.CreationDate,2026-09-17T16:39:23-05:00
; #@! TF.GenerationSoftware,Kicad,Pcbnew,7.0.11+dfsg-1build4
; #@! TF.FileFunction,Plated,1,2,PTH
FMAT,2
METRIC
; #@! TA.AperFunction,Plated,PTH,ComponentDrill
T1C0.800
; #@! TA.AperFunction,Plated,PTH,ComponentDrill
T2C1.200
%
G90
G05
T2
X64.0Y-67.3
X64.0Y-83.3
X64.0Y-99.3
X64.0Y-115.3
X64.0Y-131.3
X64.0Y-147.3
X67.5Y-67.3
X67.5Y-83.3
X67.5Y-99.3
X67.5Y-115.3
X67.5Y-131.3
X67.5Y-147.3
X73.0Y-67.3
X73.0Y-83.3
X73.0Y-99.3
X73.0Y-115.3
X73.0Y-131.3
X73.0Y-147.3
X76.5Y-67.3
X76.5Y-83.3
X76.5Y-99.3
X76.5Y-115.3
X76.5Y-131.3
X76.5Y-147.3
X82.0Y-67.3
X82.0Y-83.3
X82.0Y-99.3
X82.0Y-115.3
X82.0Y-131.3
X82.0Y-147.3
X85.5Y-67.3
X85.5Y-83.3
X85.5Y-99.3
X85.5Y-115.3
X85.5Y-131.3
X85.5Y-147.3
X91.0Y-67.3
X91.0Y-83.3
X91.0Y-99.3
X91.0Y-115.3
X91.0Y-131.3
X91.0Y-147.3
X94.5Y-67.3
X94.5Y-83.3
X94.5Y-99.3
X94.5Y-115.3
X94.5Y-131.3
X94.5Y-147.3
X100.0Y-67.3
X100.0Y-83.3
X100.0Y-99.3
X100.0Y-115.3
X100.0Y-131.3
X100.0Y-147.3
X103.5Y-67.3
X103.5Y-83.3
X103.5Y-99.3
X103.5Y-115.3
X103.5Y-131.3
X103.5Y-147.3
X109.0Y-67.3
X109.0Y-83.3
X109.0Y-99.3
X109.0Y-115.3
X109.0Y-131.3
X109.0Y-147.3
X112.5Y-67.3
X112.5Y-83.3
X112.5Y-99.3
X112.5Y-115.3
X112.5Y-131.3
X112.5Y-147.3
X118.0Y-67.3
X118.0Y-83.3
X118.0Y-99.3
X118.0Y-115.3
X118.0Y-131.3
X118.0Y-147.3
X121.5Y-67.3
X121.5Y-83.3
X121.5Y-99.3
X121.5Y-115.3
X121.5Y-131.3
X121.5Y-147.3
X127.0Y-67.3
X127.0Y-83.3
X127.0Y-99.3
X127.0Y-115.3
X127.0Y-131.3
X127.0Y-147.3
X130.5Y-67.3
X130.5Y-83.3
X130.5Y-99.3
X130.5Y-115.3
X130.5Y-131.3
X130.5Y-147.3
X136.0Y-67.3
X136.0Y-83.3
X136.0Y-99.3
X136.0Y-115.3
X136.0Y-131.3
X136.0Y-147.3
X139.5Y-67.3
X139.5Y-83.3
X139.5Y-99.3
X139.5Y-115.3
X139.5Y-131.3
X139.5Y-147.3
T1
G00X64.65Y-59.25
M15
G01X64.65Y-59.75
M16
G05
G00X64.65Y-75.25
M15
G01X64.65Y-75.75
M16
G05
G00X64.65Y-91.25
M15
G01X64.65Y-91.75
M16
G05
G00X64.65Y-107.25
M15
G01X64.65Y-107.75
M16
G05
G00X64.65Y-123.25
M15
G01X64.65Y-123.75
M16
G05
G00X64.65Y-139.25
M15
G01X64.65Y-139.75
M16
G05
G00X66.85Y-59.25
M15
G01X66.85Y-59.75
M16
G05
G00X66.85Y-75.25
M15
G01X66.85Y-75.75
M16
G05
G00X66.85Y-91.25
M15
G01X66.85Y-91.75
M16
G05
G00X66.85Y-107.25
M15
G01X66.85Y-107.75
M16
G05
G00X66.85Y-123.25
M15
G01X66.85Y-123.75
M16
G05
G00X66.85Y-139.25
M15
G01X66.85Y-139.75
M16
G05
G00X73.65Y-59.25
M15
G01X73.65Y-59.75
M16
G05
G00X73.65Y-75.25
M15
G01X73.65Y-75.75
M16
G05
G00X73.65Y-91.25
M15
G01X73.65Y-91.75
M16
G05
G00X73.65Y-107.25
M15
G01X73.65Y-107.75
M16
G05
G00X73.65Y-123.25
M15
G01X73.65Y-123.75
M16
G05
G00X73.65Y-139.25
M15
G01X73.65Y-139.75
M16
G05
G00X75.85Y-59.25
M15
G01X75.85Y-59.75
M16
G05
G00X75.85Y-75.25
M15
G01X75.85Y-75.75
M16
G05
G00X75.85Y-91.25
M15
G01X75.85Y-91.75
M16
G05
G00X75.85Y-107.25
M15
G01X75.85Y-107.75
M16
G05
G00X75.85Y-123.25
M15
G01X75.85Y-123.75
M16
G05
G00X75.85Y-139.25
M15
G01X75.85Y-139.75
M16
G05
G00X82.65Y-59.25
M15
G01X82.65Y-59.75
M16
G05
G00X82.65Y-75.25
M15
G01X82.65Y-75.75
M16
G05
G00X82.65Y-91.25
M15
G01X82.65Y-91.75
M16
G05
G00X82.65Y-107.25
M15
G01X82.65Y-107.75
M16
G05
G00X82.65Y-123.25
M15
G01X82.65Y-123.75
M16
G05
G00X82.65Y-139.25
M15
G01X82.65Y-139.75
M16
G05
G00X84.85Y-59.25
M15
G01X84.85Y-59.75
M16
G05
G00X84.85Y-75.25
M15
G01X84.85Y-75.75
M16
G05
G00X84.85Y-91.25
M15
G01X84.85Y-91.75
M16
G05
G00X84.85Y-107.25
M15
G01X84.85Y-107.75
M16
G05
G00X84.85Y-123.25
M15
G01X84.85Y-123.75
M16
G05
G00X84.85Y-139.25
M15
G01X84.85Y-139.75
M16
G05
G00X91.65Y-59.25
M15
G01X91.65Y-59.75
M16
G05
G00X91.65Y-75.25
M15
G01X91.65Y-75.75
M16
G05
G00X91.65Y-91.25
M15
G01X91.65Y-91.75
M16
G05
G00X91.65Y-107.25
M15
G01X91.65Y-107.75
M16
G05
G00X91.65Y-123.25
M15
G01X91.65Y-123.75
M16
G05
G00X91.65Y-139.25
M15
G01X91.65Y-139.75
M16
G05
G00X93.85Y-59.25
M15
G01X93.85Y-59.75
M16
G05
G00X93.85Y-75.25
M15
G01X93.85Y-75.75
M16
G05
G00X93.85Y-91.25
M15
G01X93.85Y-91.75
M16
G05
G00X93.85Y-107.25
M15
G01X93.85Y-107.75
M16
G05
G00X93.85Y-123.25
M15
G01X93.85Y-123.75
M16
G05
G00X93.85Y-139.25
M15
G01X93.85Y-139.75
M16
G05
G00X100.65Y-59.25
M15
G01X100.65Y-59.75
M16
G05
G00X100.65Y-75.25
M15
G01X100.65Y-75.75
M16
G05
G00X100.65Y-91.25
M15
G01X100.65Y-91.75
M16
G05
G00X100.65Y-107.25
M15
G01X100.65Y-107.75
M16
G05
G00X100.65Y-123.25
M15
G01X100.65Y-123.75
M16
G05
G00X100.65Y-139.25
M15
G01X100.65Y-139.75
M16
G05
G00X102.85Y-59.25
M15
G01X102.85Y-59.75
M16
G05
G00X102.85Y-75.25
M15
G01X102.85Y-75.75
M16
G05
G00X102.85Y-91.25
M15
G01X102.85Y-91.75
M16
G05
G00X102.85Y-107.25
M15
G01X102.85Y-107.75
M16
G05
G00X102.85Y-123.25
M15
G01X102.85Y-123.75
M16
G05
G00X102.85Y-139.25
M15
G01X102.85Y-139.75
M16
G05
G00X109.65Y-59.25
M15
G01X109.65Y-59.75
M16
G05
G00X109.65Y-75.25
M15
G01X109.65Y-75.75
M16
G05
G00X109.65Y-91.25
M15
G01X109.65Y-91.75
M16
G05
G00X109.65Y-107.25
M15
G01X109.65Y-107.75
M16
G05
G00X109.65Y-123.25
M15
G01X109.65Y-123.75
M16
G05
G00X109.65Y-139.25
M15
G01X109.65Y-139.75
M16
G05
G00X111.85Y-59.25
M15
G01X111.85Y-59.75
M16
G05
G00X111.85Y-75.25
M15
G01X111.85Y-75.75
M16
G05
G00X111.85Y-91.25
M15
G01X111.85Y-91.75
M16
G05
G00X111.85Y-107.25
M15
G01X111.85Y-107.75
M16
G05
G00X111.85Y-123.25
M15
G01X111.85Y-123.75
M16
G05
G00X111.85Y-139.25
M15
G01X111.85Y-139.75
M16
G05
G00X118.65Y-59.25
M15
G01X118.65Y-59.75
M16
G05
G00X118.65Y-75.25
M15
G01X118.65Y-75.75
M16
G05
G00X118.65Y-91.25
M15
G01X118.65Y-91.75
M16
G05
G00X118.65Y-107.25
M15
G01X118.65Y-107.75
M16
G05
G00X118.65Y-123.25
M15
G01X118.65Y-123.75
M16
G05
G00X118.65Y-139.25
M15
G01X118.65Y-139.75
M16
G05
G00X120.85Y-59.25
M15
G01X120.85Y-59.75
M16
G05
G00X120.85Y-75.25
M15
G01X120.85Y-75.75
M16
G05
G00X120.85Y-91.25
M15
G01X120.85Y-91.75
M16
G05
G00X120.85Y-107.25
M15
G01X120.85Y-107.75
M16
G05
G00X120.85Y-123.25
M15
G01X120.85Y-123.75
M16
G05
G00X120.85Y-139.25
M15
G01X120.85Y-139.75
M16
G05
G00X127.65Y-59.25
M15
G01X127.65Y-59.75
M16
G05
G00X127.65Y-75.25
M15
G01X127.65Y-75.75
M16
G05
G00X127.65Y-91.25
M15
G01X127.65Y-91.75
M16
G05
G00X127.65Y-107.25
M15
G01X127.65Y-107.75
M16
G05
G00X127.65Y-123.25
M15
G01X127.65Y-123.75
M16
G05
G00X127.65Y-139.25
M15
G01X127.65Y-139.75
M16
G05
G00X129.85Y-59.25
M15
G01X129.85Y-59.75
M16
G05
G00X129.85Y-75.25
M15
G01X129.85Y-75.75
M16
G05
G00X129.85Y-91.25
M15
G01X129.85Y-91.75
M16
G05
G00X129.85Y-107.25
M15
G01X129.85Y-107.75
M16
G05
G00X129.85Y-123.25
M15
G01X129.85Y-123.75
M16
G05
G00X129.85Y-139.25
M15
G01X129.85Y-139.75
M16
G05
G00X136.65Y-59.25
M15
G01X136.65Y-59.75
M16
G05
G00X136.65Y-75.25
M15
G01X136.65Y-75.75
M16
G05
G00X136.65Y-91.25
M15
G01X136.65Y-91.75
M16
G05
G00X136.65Y-107.25
M15
G01X136.65Y-107.75
M16
G05
G00X136.65Y-123.25
M15
G01X136.65Y-123.75
M16
G05
G00X136.65Y-139.25
M15
G01X136.65Y-139.75
M16
G05
G00X138.85Y-59.25
M15
G01X138.85Y-59.75
M16
G05
G00X138.85Y-75.25
M15
G01X138.85Y-75.75
M16
G05
G00X138.85Y-91.25
M15
G01X138.85Y-91.75
M16
G05
G00X138.85Y-107.25
M15
G01X138.85Y-107.75
M16
G05
G00X138.85Y-123.25
M15
G01X138.85Y-123.75
M16
G05
G00X138.85Y-139.25
M15
G01X138.85Y-139.75
M16
G05
M30
