G04 #@! TF.GenerationSoftware,KiCad,Pcbnew,5.1.5-52549c5~86~ubuntu18.04.1*
G04 #@! TF.CreationDate,2020-06-02T18:41:45-05:00*
G04 #@! TF.ProjectId,adap_127_254_panel,61646170-5f31-4323-975f-3235345f7061,rev?*
G04 #@! TF.SameCoordinates,Original*
G04 #@! TF.FileFunction,Soldermask,Top*
G04 #@! TF.FilePolarity,Negative*
%FSLAX46Y46*%
G04 Gerber Fmt 4.6, Leading zero omitted, Abs format (unit mm)*
G04 Created by KiCad (PCBNEW 5.1.5-52549c5~86~ubuntu18.04.1) date 2020-06-02 18:41:45*
%MOMM*%
%LPD*%
G04 APERTURE LIST*
%ADD10C,0.100000*%
G04 APERTURE END LIST*
D10*
G36*
X154401000Y-134081000D02*
G01*
X153559000Y-134081000D01*
X153559000Y-131579000D01*
X154401000Y-131579000D01*
X154401000Y-134081000D01*
G37*
G36*
X121861000Y-134081000D02*
G01*
X121019000Y-134081000D01*
X121019000Y-131579000D01*
X121861000Y-131579000D01*
X121861000Y-134081000D01*
G37*
G36*
X94401000Y-134081000D02*
G01*
X93559000Y-134081000D01*
X93559000Y-131579000D01*
X94401000Y-131579000D01*
X94401000Y-134081000D01*
G37*
G36*
X93131000Y-134081000D02*
G01*
X92289000Y-134081000D01*
X92289000Y-131579000D01*
X93131000Y-131579000D01*
X93131000Y-134081000D01*
G37*
G36*
X91861000Y-134081000D02*
G01*
X91019000Y-134081000D01*
X91019000Y-131579000D01*
X91861000Y-131579000D01*
X91861000Y-134081000D01*
G37*
G36*
X90591000Y-134081000D02*
G01*
X89749000Y-134081000D01*
X89749000Y-131579000D01*
X90591000Y-131579000D01*
X90591000Y-134081000D01*
G37*
G36*
X89321000Y-134081000D02*
G01*
X88479000Y-134081000D01*
X88479000Y-131579000D01*
X89321000Y-131579000D01*
X89321000Y-134081000D01*
G37*
G36*
X124401000Y-134081000D02*
G01*
X123559000Y-134081000D01*
X123559000Y-131579000D01*
X124401000Y-131579000D01*
X124401000Y-134081000D01*
G37*
G36*
X123131000Y-134081000D02*
G01*
X122289000Y-134081000D01*
X122289000Y-131579000D01*
X123131000Y-131579000D01*
X123131000Y-134081000D01*
G37*
G36*
X120591000Y-134081000D02*
G01*
X119749000Y-134081000D01*
X119749000Y-131579000D01*
X120591000Y-131579000D01*
X120591000Y-134081000D01*
G37*
G36*
X119321000Y-134081000D02*
G01*
X118479000Y-134081000D01*
X118479000Y-131579000D01*
X119321000Y-131579000D01*
X119321000Y-134081000D01*
G37*
G36*
X153131000Y-134081000D02*
G01*
X152289000Y-134081000D01*
X152289000Y-131579000D01*
X153131000Y-131579000D01*
X153131000Y-134081000D01*
G37*
G36*
X151861000Y-134081000D02*
G01*
X151019000Y-134081000D01*
X151019000Y-131579000D01*
X151861000Y-131579000D01*
X151861000Y-134081000D01*
G37*
G36*
X150591000Y-134081000D02*
G01*
X149749000Y-134081000D01*
X149749000Y-131579000D01*
X150591000Y-131579000D01*
X150591000Y-134081000D01*
G37*
G36*
X149321000Y-134081000D02*
G01*
X148479000Y-134081000D01*
X148479000Y-131579000D01*
X149321000Y-131579000D01*
X149321000Y-134081000D01*
G37*
G36*
X76313512Y-131253927D02*
G01*
X76462812Y-131283624D01*
X76626784Y-131351544D01*
X76774354Y-131450147D01*
X76899853Y-131575646D01*
X76998456Y-131723216D01*
X77066376Y-131887188D01*
X77101000Y-132061259D01*
X77101000Y-132238741D01*
X77066376Y-132412812D01*
X76998456Y-132576784D01*
X76899853Y-132724354D01*
X76774354Y-132849853D01*
X76626784Y-132948456D01*
X76462812Y-133016376D01*
X76313512Y-133046073D01*
X76288742Y-133051000D01*
X76111258Y-133051000D01*
X76086488Y-133046073D01*
X75937188Y-133016376D01*
X75773216Y-132948456D01*
X75625646Y-132849853D01*
X75500147Y-132724354D01*
X75401544Y-132576784D01*
X75333624Y-132412812D01*
X75299000Y-132238741D01*
X75299000Y-132061259D01*
X75333624Y-131887188D01*
X75401544Y-131723216D01*
X75500147Y-131575646D01*
X75625646Y-131450147D01*
X75773216Y-131351544D01*
X75937188Y-131283624D01*
X76086488Y-131253927D01*
X76111258Y-131249000D01*
X76288742Y-131249000D01*
X76313512Y-131253927D01*
G37*
G36*
X132021000Y-133051000D02*
G01*
X130219000Y-133051000D01*
X130219000Y-131249000D01*
X132021000Y-131249000D01*
X132021000Y-133051000D01*
G37*
G36*
X81393512Y-131253927D02*
G01*
X81542812Y-131283624D01*
X81706784Y-131351544D01*
X81854354Y-131450147D01*
X81979853Y-131575646D01*
X82078456Y-131723216D01*
X82146376Y-131887188D01*
X82181000Y-132061259D01*
X82181000Y-132238741D01*
X82146376Y-132412812D01*
X82078456Y-132576784D01*
X81979853Y-132724354D01*
X81854354Y-132849853D01*
X81706784Y-132948456D01*
X81542812Y-133016376D01*
X81393512Y-133046073D01*
X81368742Y-133051000D01*
X81191258Y-133051000D01*
X81166488Y-133046073D01*
X81017188Y-133016376D01*
X80853216Y-132948456D01*
X80705646Y-132849853D01*
X80580147Y-132724354D01*
X80481544Y-132576784D01*
X80413624Y-132412812D01*
X80379000Y-132238741D01*
X80379000Y-132061259D01*
X80413624Y-131887188D01*
X80481544Y-131723216D01*
X80580147Y-131575646D01*
X80705646Y-131450147D01*
X80853216Y-131351544D01*
X81017188Y-131283624D01*
X81166488Y-131253927D01*
X81191258Y-131249000D01*
X81368742Y-131249000D01*
X81393512Y-131253927D01*
G37*
G36*
X78853512Y-131253927D02*
G01*
X79002812Y-131283624D01*
X79166784Y-131351544D01*
X79314354Y-131450147D01*
X79439853Y-131575646D01*
X79538456Y-131723216D01*
X79606376Y-131887188D01*
X79641000Y-132061259D01*
X79641000Y-132238741D01*
X79606376Y-132412812D01*
X79538456Y-132576784D01*
X79439853Y-132724354D01*
X79314354Y-132849853D01*
X79166784Y-132948456D01*
X79002812Y-133016376D01*
X78853512Y-133046073D01*
X78828742Y-133051000D01*
X78651258Y-133051000D01*
X78626488Y-133046073D01*
X78477188Y-133016376D01*
X78313216Y-132948456D01*
X78165646Y-132849853D01*
X78040147Y-132724354D01*
X77941544Y-132576784D01*
X77873624Y-132412812D01*
X77839000Y-132238741D01*
X77839000Y-132061259D01*
X77873624Y-131887188D01*
X77941544Y-131723216D01*
X78040147Y-131575646D01*
X78165646Y-131450147D01*
X78313216Y-131351544D01*
X78477188Y-131283624D01*
X78626488Y-131253927D01*
X78651258Y-131249000D01*
X78828742Y-131249000D01*
X78853512Y-131253927D01*
G37*
G36*
X73773512Y-131253927D02*
G01*
X73922812Y-131283624D01*
X74086784Y-131351544D01*
X74234354Y-131450147D01*
X74359853Y-131575646D01*
X74458456Y-131723216D01*
X74526376Y-131887188D01*
X74561000Y-132061259D01*
X74561000Y-132238741D01*
X74526376Y-132412812D01*
X74458456Y-132576784D01*
X74359853Y-132724354D01*
X74234354Y-132849853D01*
X74086784Y-132948456D01*
X73922812Y-133016376D01*
X73773512Y-133046073D01*
X73748742Y-133051000D01*
X73571258Y-133051000D01*
X73546488Y-133046073D01*
X73397188Y-133016376D01*
X73233216Y-132948456D01*
X73085646Y-132849853D01*
X72960147Y-132724354D01*
X72861544Y-132576784D01*
X72793624Y-132412812D01*
X72759000Y-132238741D01*
X72759000Y-132061259D01*
X72793624Y-131887188D01*
X72861544Y-131723216D01*
X72960147Y-131575646D01*
X73085646Y-131450147D01*
X73233216Y-131351544D01*
X73397188Y-131283624D01*
X73546488Y-131253927D01*
X73571258Y-131249000D01*
X73748742Y-131249000D01*
X73773512Y-131253927D01*
G37*
G36*
X111393512Y-131253927D02*
G01*
X111542812Y-131283624D01*
X111706784Y-131351544D01*
X111854354Y-131450147D01*
X111979853Y-131575646D01*
X112078456Y-131723216D01*
X112146376Y-131887188D01*
X112181000Y-132061259D01*
X112181000Y-132238741D01*
X112146376Y-132412812D01*
X112078456Y-132576784D01*
X111979853Y-132724354D01*
X111854354Y-132849853D01*
X111706784Y-132948456D01*
X111542812Y-133016376D01*
X111393512Y-133046073D01*
X111368742Y-133051000D01*
X111191258Y-133051000D01*
X111166488Y-133046073D01*
X111017188Y-133016376D01*
X110853216Y-132948456D01*
X110705646Y-132849853D01*
X110580147Y-132724354D01*
X110481544Y-132576784D01*
X110413624Y-132412812D01*
X110379000Y-132238741D01*
X110379000Y-132061259D01*
X110413624Y-131887188D01*
X110481544Y-131723216D01*
X110580147Y-131575646D01*
X110705646Y-131450147D01*
X110853216Y-131351544D01*
X111017188Y-131283624D01*
X111166488Y-131253927D01*
X111191258Y-131249000D01*
X111368742Y-131249000D01*
X111393512Y-131253927D01*
G37*
G36*
X108853512Y-131253927D02*
G01*
X109002812Y-131283624D01*
X109166784Y-131351544D01*
X109314354Y-131450147D01*
X109439853Y-131575646D01*
X109538456Y-131723216D01*
X109606376Y-131887188D01*
X109641000Y-132061259D01*
X109641000Y-132238741D01*
X109606376Y-132412812D01*
X109538456Y-132576784D01*
X109439853Y-132724354D01*
X109314354Y-132849853D01*
X109166784Y-132948456D01*
X109002812Y-133016376D01*
X108853512Y-133046073D01*
X108828742Y-133051000D01*
X108651258Y-133051000D01*
X108626488Y-133046073D01*
X108477188Y-133016376D01*
X108313216Y-132948456D01*
X108165646Y-132849853D01*
X108040147Y-132724354D01*
X107941544Y-132576784D01*
X107873624Y-132412812D01*
X107839000Y-132238741D01*
X107839000Y-132061259D01*
X107873624Y-131887188D01*
X107941544Y-131723216D01*
X108040147Y-131575646D01*
X108165646Y-131450147D01*
X108313216Y-131351544D01*
X108477188Y-131283624D01*
X108626488Y-131253927D01*
X108651258Y-131249000D01*
X108828742Y-131249000D01*
X108853512Y-131253927D01*
G37*
G36*
X103773512Y-131253927D02*
G01*
X103922812Y-131283624D01*
X104086784Y-131351544D01*
X104234354Y-131450147D01*
X104359853Y-131575646D01*
X104458456Y-131723216D01*
X104526376Y-131887188D01*
X104561000Y-132061259D01*
X104561000Y-132238741D01*
X104526376Y-132412812D01*
X104458456Y-132576784D01*
X104359853Y-132724354D01*
X104234354Y-132849853D01*
X104086784Y-132948456D01*
X103922812Y-133016376D01*
X103773512Y-133046073D01*
X103748742Y-133051000D01*
X103571258Y-133051000D01*
X103546488Y-133046073D01*
X103397188Y-133016376D01*
X103233216Y-132948456D01*
X103085646Y-132849853D01*
X102960147Y-132724354D01*
X102861544Y-132576784D01*
X102793624Y-132412812D01*
X102759000Y-132238741D01*
X102759000Y-132061259D01*
X102793624Y-131887188D01*
X102861544Y-131723216D01*
X102960147Y-131575646D01*
X103085646Y-131450147D01*
X103233216Y-131351544D01*
X103397188Y-131283624D01*
X103546488Y-131253927D01*
X103571258Y-131249000D01*
X103748742Y-131249000D01*
X103773512Y-131253927D01*
G37*
G36*
X102021000Y-133051000D02*
G01*
X100219000Y-133051000D01*
X100219000Y-131249000D01*
X102021000Y-131249000D01*
X102021000Y-133051000D01*
G37*
G36*
X141393512Y-131253927D02*
G01*
X141542812Y-131283624D01*
X141706784Y-131351544D01*
X141854354Y-131450147D01*
X141979853Y-131575646D01*
X142078456Y-131723216D01*
X142146376Y-131887188D01*
X142181000Y-132061259D01*
X142181000Y-132238741D01*
X142146376Y-132412812D01*
X142078456Y-132576784D01*
X141979853Y-132724354D01*
X141854354Y-132849853D01*
X141706784Y-132948456D01*
X141542812Y-133016376D01*
X141393512Y-133046073D01*
X141368742Y-133051000D01*
X141191258Y-133051000D01*
X141166488Y-133046073D01*
X141017188Y-133016376D01*
X140853216Y-132948456D01*
X140705646Y-132849853D01*
X140580147Y-132724354D01*
X140481544Y-132576784D01*
X140413624Y-132412812D01*
X140379000Y-132238741D01*
X140379000Y-132061259D01*
X140413624Y-131887188D01*
X140481544Y-131723216D01*
X140580147Y-131575646D01*
X140705646Y-131450147D01*
X140853216Y-131351544D01*
X141017188Y-131283624D01*
X141166488Y-131253927D01*
X141191258Y-131249000D01*
X141368742Y-131249000D01*
X141393512Y-131253927D01*
G37*
G36*
X72021000Y-133051000D02*
G01*
X70219000Y-133051000D01*
X70219000Y-131249000D01*
X72021000Y-131249000D01*
X72021000Y-133051000D01*
G37*
G36*
X138853512Y-131253927D02*
G01*
X139002812Y-131283624D01*
X139166784Y-131351544D01*
X139314354Y-131450147D01*
X139439853Y-131575646D01*
X139538456Y-131723216D01*
X139606376Y-131887188D01*
X139641000Y-132061259D01*
X139641000Y-132238741D01*
X139606376Y-132412812D01*
X139538456Y-132576784D01*
X139439853Y-132724354D01*
X139314354Y-132849853D01*
X139166784Y-132948456D01*
X139002812Y-133016376D01*
X138853512Y-133046073D01*
X138828742Y-133051000D01*
X138651258Y-133051000D01*
X138626488Y-133046073D01*
X138477188Y-133016376D01*
X138313216Y-132948456D01*
X138165646Y-132849853D01*
X138040147Y-132724354D01*
X137941544Y-132576784D01*
X137873624Y-132412812D01*
X137839000Y-132238741D01*
X137839000Y-132061259D01*
X137873624Y-131887188D01*
X137941544Y-131723216D01*
X138040147Y-131575646D01*
X138165646Y-131450147D01*
X138313216Y-131351544D01*
X138477188Y-131283624D01*
X138626488Y-131253927D01*
X138651258Y-131249000D01*
X138828742Y-131249000D01*
X138853512Y-131253927D01*
G37*
G36*
X136313512Y-131253927D02*
G01*
X136462812Y-131283624D01*
X136626784Y-131351544D01*
X136774354Y-131450147D01*
X136899853Y-131575646D01*
X136998456Y-131723216D01*
X137066376Y-131887188D01*
X137101000Y-132061259D01*
X137101000Y-132238741D01*
X137066376Y-132412812D01*
X136998456Y-132576784D01*
X136899853Y-132724354D01*
X136774354Y-132849853D01*
X136626784Y-132948456D01*
X136462812Y-133016376D01*
X136313512Y-133046073D01*
X136288742Y-133051000D01*
X136111258Y-133051000D01*
X136086488Y-133046073D01*
X135937188Y-133016376D01*
X135773216Y-132948456D01*
X135625646Y-132849853D01*
X135500147Y-132724354D01*
X135401544Y-132576784D01*
X135333624Y-132412812D01*
X135299000Y-132238741D01*
X135299000Y-132061259D01*
X135333624Y-131887188D01*
X135401544Y-131723216D01*
X135500147Y-131575646D01*
X135625646Y-131450147D01*
X135773216Y-131351544D01*
X135937188Y-131283624D01*
X136086488Y-131253927D01*
X136111258Y-131249000D01*
X136288742Y-131249000D01*
X136313512Y-131253927D01*
G37*
G36*
X133773512Y-131253927D02*
G01*
X133922812Y-131283624D01*
X134086784Y-131351544D01*
X134234354Y-131450147D01*
X134359853Y-131575646D01*
X134458456Y-131723216D01*
X134526376Y-131887188D01*
X134561000Y-132061259D01*
X134561000Y-132238741D01*
X134526376Y-132412812D01*
X134458456Y-132576784D01*
X134359853Y-132724354D01*
X134234354Y-132849853D01*
X134086784Y-132948456D01*
X133922812Y-133016376D01*
X133773512Y-133046073D01*
X133748742Y-133051000D01*
X133571258Y-133051000D01*
X133546488Y-133046073D01*
X133397188Y-133016376D01*
X133233216Y-132948456D01*
X133085646Y-132849853D01*
X132960147Y-132724354D01*
X132861544Y-132576784D01*
X132793624Y-132412812D01*
X132759000Y-132238741D01*
X132759000Y-132061259D01*
X132793624Y-131887188D01*
X132861544Y-131723216D01*
X132960147Y-131575646D01*
X133085646Y-131450147D01*
X133233216Y-131351544D01*
X133397188Y-131283624D01*
X133546488Y-131253927D01*
X133571258Y-131249000D01*
X133748742Y-131249000D01*
X133773512Y-131253927D01*
G37*
G36*
X106313512Y-131253927D02*
G01*
X106462812Y-131283624D01*
X106626784Y-131351544D01*
X106774354Y-131450147D01*
X106899853Y-131575646D01*
X106998456Y-131723216D01*
X107066376Y-131887188D01*
X107101000Y-132061259D01*
X107101000Y-132238741D01*
X107066376Y-132412812D01*
X106998456Y-132576784D01*
X106899853Y-132724354D01*
X106774354Y-132849853D01*
X106626784Y-132948456D01*
X106462812Y-133016376D01*
X106313512Y-133046073D01*
X106288742Y-133051000D01*
X106111258Y-133051000D01*
X106086488Y-133046073D01*
X105937188Y-133016376D01*
X105773216Y-132948456D01*
X105625646Y-132849853D01*
X105500147Y-132724354D01*
X105401544Y-132576784D01*
X105333624Y-132412812D01*
X105299000Y-132238741D01*
X105299000Y-132061259D01*
X105333624Y-131887188D01*
X105401544Y-131723216D01*
X105500147Y-131575646D01*
X105625646Y-131450147D01*
X105773216Y-131351544D01*
X105937188Y-131283624D01*
X106086488Y-131253927D01*
X106111258Y-131249000D01*
X106288742Y-131249000D01*
X106313512Y-131253927D01*
G37*
G36*
X103773512Y-128713927D02*
G01*
X103922812Y-128743624D01*
X104086784Y-128811544D01*
X104234354Y-128910147D01*
X104359853Y-129035646D01*
X104458456Y-129183216D01*
X104526376Y-129347188D01*
X104561000Y-129521259D01*
X104561000Y-129698741D01*
X104526376Y-129872812D01*
X104458456Y-130036784D01*
X104359853Y-130184354D01*
X104234354Y-130309853D01*
X104086784Y-130408456D01*
X103922812Y-130476376D01*
X103773512Y-130506073D01*
X103748742Y-130511000D01*
X103571258Y-130511000D01*
X103546488Y-130506073D01*
X103397188Y-130476376D01*
X103233216Y-130408456D01*
X103085646Y-130309853D01*
X102960147Y-130184354D01*
X102861544Y-130036784D01*
X102793624Y-129872812D01*
X102759000Y-129698741D01*
X102759000Y-129521259D01*
X102793624Y-129347188D01*
X102861544Y-129183216D01*
X102960147Y-129035646D01*
X103085646Y-128910147D01*
X103233216Y-128811544D01*
X103397188Y-128743624D01*
X103546488Y-128713927D01*
X103571258Y-128709000D01*
X103748742Y-128709000D01*
X103773512Y-128713927D01*
G37*
G36*
X73773512Y-128713927D02*
G01*
X73922812Y-128743624D01*
X74086784Y-128811544D01*
X74234354Y-128910147D01*
X74359853Y-129035646D01*
X74458456Y-129183216D01*
X74526376Y-129347188D01*
X74561000Y-129521259D01*
X74561000Y-129698741D01*
X74526376Y-129872812D01*
X74458456Y-130036784D01*
X74359853Y-130184354D01*
X74234354Y-130309853D01*
X74086784Y-130408456D01*
X73922812Y-130476376D01*
X73773512Y-130506073D01*
X73748742Y-130511000D01*
X73571258Y-130511000D01*
X73546488Y-130506073D01*
X73397188Y-130476376D01*
X73233216Y-130408456D01*
X73085646Y-130309853D01*
X72960147Y-130184354D01*
X72861544Y-130036784D01*
X72793624Y-129872812D01*
X72759000Y-129698741D01*
X72759000Y-129521259D01*
X72793624Y-129347188D01*
X72861544Y-129183216D01*
X72960147Y-129035646D01*
X73085646Y-128910147D01*
X73233216Y-128811544D01*
X73397188Y-128743624D01*
X73546488Y-128713927D01*
X73571258Y-128709000D01*
X73748742Y-128709000D01*
X73773512Y-128713927D01*
G37*
G36*
X76313512Y-128713927D02*
G01*
X76462812Y-128743624D01*
X76626784Y-128811544D01*
X76774354Y-128910147D01*
X76899853Y-129035646D01*
X76998456Y-129183216D01*
X77066376Y-129347188D01*
X77101000Y-129521259D01*
X77101000Y-129698741D01*
X77066376Y-129872812D01*
X76998456Y-130036784D01*
X76899853Y-130184354D01*
X76774354Y-130309853D01*
X76626784Y-130408456D01*
X76462812Y-130476376D01*
X76313512Y-130506073D01*
X76288742Y-130511000D01*
X76111258Y-130511000D01*
X76086488Y-130506073D01*
X75937188Y-130476376D01*
X75773216Y-130408456D01*
X75625646Y-130309853D01*
X75500147Y-130184354D01*
X75401544Y-130036784D01*
X75333624Y-129872812D01*
X75299000Y-129698741D01*
X75299000Y-129521259D01*
X75333624Y-129347188D01*
X75401544Y-129183216D01*
X75500147Y-129035646D01*
X75625646Y-128910147D01*
X75773216Y-128811544D01*
X75937188Y-128743624D01*
X76086488Y-128713927D01*
X76111258Y-128709000D01*
X76288742Y-128709000D01*
X76313512Y-128713927D01*
G37*
G36*
X136313512Y-128713927D02*
G01*
X136462812Y-128743624D01*
X136626784Y-128811544D01*
X136774354Y-128910147D01*
X136899853Y-129035646D01*
X136998456Y-129183216D01*
X137066376Y-129347188D01*
X137101000Y-129521259D01*
X137101000Y-129698741D01*
X137066376Y-129872812D01*
X136998456Y-130036784D01*
X136899853Y-130184354D01*
X136774354Y-130309853D01*
X136626784Y-130408456D01*
X136462812Y-130476376D01*
X136313512Y-130506073D01*
X136288742Y-130511000D01*
X136111258Y-130511000D01*
X136086488Y-130506073D01*
X135937188Y-130476376D01*
X135773216Y-130408456D01*
X135625646Y-130309853D01*
X135500147Y-130184354D01*
X135401544Y-130036784D01*
X135333624Y-129872812D01*
X135299000Y-129698741D01*
X135299000Y-129521259D01*
X135333624Y-129347188D01*
X135401544Y-129183216D01*
X135500147Y-129035646D01*
X135625646Y-128910147D01*
X135773216Y-128811544D01*
X135937188Y-128743624D01*
X136086488Y-128713927D01*
X136111258Y-128709000D01*
X136288742Y-128709000D01*
X136313512Y-128713927D01*
G37*
G36*
X78853512Y-128713927D02*
G01*
X79002812Y-128743624D01*
X79166784Y-128811544D01*
X79314354Y-128910147D01*
X79439853Y-129035646D01*
X79538456Y-129183216D01*
X79606376Y-129347188D01*
X79641000Y-129521259D01*
X79641000Y-129698741D01*
X79606376Y-129872812D01*
X79538456Y-130036784D01*
X79439853Y-130184354D01*
X79314354Y-130309853D01*
X79166784Y-130408456D01*
X79002812Y-130476376D01*
X78853512Y-130506073D01*
X78828742Y-130511000D01*
X78651258Y-130511000D01*
X78626488Y-130506073D01*
X78477188Y-130476376D01*
X78313216Y-130408456D01*
X78165646Y-130309853D01*
X78040147Y-130184354D01*
X77941544Y-130036784D01*
X77873624Y-129872812D01*
X77839000Y-129698741D01*
X77839000Y-129521259D01*
X77873624Y-129347188D01*
X77941544Y-129183216D01*
X78040147Y-129035646D01*
X78165646Y-128910147D01*
X78313216Y-128811544D01*
X78477188Y-128743624D01*
X78626488Y-128713927D01*
X78651258Y-128709000D01*
X78828742Y-128709000D01*
X78853512Y-128713927D01*
G37*
G36*
X138853512Y-128713927D02*
G01*
X139002812Y-128743624D01*
X139166784Y-128811544D01*
X139314354Y-128910147D01*
X139439853Y-129035646D01*
X139538456Y-129183216D01*
X139606376Y-129347188D01*
X139641000Y-129521259D01*
X139641000Y-129698741D01*
X139606376Y-129872812D01*
X139538456Y-130036784D01*
X139439853Y-130184354D01*
X139314354Y-130309853D01*
X139166784Y-130408456D01*
X139002812Y-130476376D01*
X138853512Y-130506073D01*
X138828742Y-130511000D01*
X138651258Y-130511000D01*
X138626488Y-130506073D01*
X138477188Y-130476376D01*
X138313216Y-130408456D01*
X138165646Y-130309853D01*
X138040147Y-130184354D01*
X137941544Y-130036784D01*
X137873624Y-129872812D01*
X137839000Y-129698741D01*
X137839000Y-129521259D01*
X137873624Y-129347188D01*
X137941544Y-129183216D01*
X138040147Y-129035646D01*
X138165646Y-128910147D01*
X138313216Y-128811544D01*
X138477188Y-128743624D01*
X138626488Y-128713927D01*
X138651258Y-128709000D01*
X138828742Y-128709000D01*
X138853512Y-128713927D01*
G37*
G36*
X81393512Y-128713927D02*
G01*
X81542812Y-128743624D01*
X81706784Y-128811544D01*
X81854354Y-128910147D01*
X81979853Y-129035646D01*
X82078456Y-129183216D01*
X82146376Y-129347188D01*
X82181000Y-129521259D01*
X82181000Y-129698741D01*
X82146376Y-129872812D01*
X82078456Y-130036784D01*
X81979853Y-130184354D01*
X81854354Y-130309853D01*
X81706784Y-130408456D01*
X81542812Y-130476376D01*
X81393512Y-130506073D01*
X81368742Y-130511000D01*
X81191258Y-130511000D01*
X81166488Y-130506073D01*
X81017188Y-130476376D01*
X80853216Y-130408456D01*
X80705646Y-130309853D01*
X80580147Y-130184354D01*
X80481544Y-130036784D01*
X80413624Y-129872812D01*
X80379000Y-129698741D01*
X80379000Y-129521259D01*
X80413624Y-129347188D01*
X80481544Y-129183216D01*
X80580147Y-129035646D01*
X80705646Y-128910147D01*
X80853216Y-128811544D01*
X81017188Y-128743624D01*
X81166488Y-128713927D01*
X81191258Y-128709000D01*
X81368742Y-128709000D01*
X81393512Y-128713927D01*
G37*
G36*
X141393512Y-128713927D02*
G01*
X141542812Y-128743624D01*
X141706784Y-128811544D01*
X141854354Y-128910147D01*
X141979853Y-129035646D01*
X142078456Y-129183216D01*
X142146376Y-129347188D01*
X142181000Y-129521259D01*
X142181000Y-129698741D01*
X142146376Y-129872812D01*
X142078456Y-130036784D01*
X141979853Y-130184354D01*
X141854354Y-130309853D01*
X141706784Y-130408456D01*
X141542812Y-130476376D01*
X141393512Y-130506073D01*
X141368742Y-130511000D01*
X141191258Y-130511000D01*
X141166488Y-130506073D01*
X141017188Y-130476376D01*
X140853216Y-130408456D01*
X140705646Y-130309853D01*
X140580147Y-130184354D01*
X140481544Y-130036784D01*
X140413624Y-129872812D01*
X140379000Y-129698741D01*
X140379000Y-129521259D01*
X140413624Y-129347188D01*
X140481544Y-129183216D01*
X140580147Y-129035646D01*
X140705646Y-128910147D01*
X140853216Y-128811544D01*
X141017188Y-128743624D01*
X141166488Y-128713927D01*
X141191258Y-128709000D01*
X141368742Y-128709000D01*
X141393512Y-128713927D01*
G37*
G36*
X133773512Y-128713927D02*
G01*
X133922812Y-128743624D01*
X134086784Y-128811544D01*
X134234354Y-128910147D01*
X134359853Y-129035646D01*
X134458456Y-129183216D01*
X134526376Y-129347188D01*
X134561000Y-129521259D01*
X134561000Y-129698741D01*
X134526376Y-129872812D01*
X134458456Y-130036784D01*
X134359853Y-130184354D01*
X134234354Y-130309853D01*
X134086784Y-130408456D01*
X133922812Y-130476376D01*
X133773512Y-130506073D01*
X133748742Y-130511000D01*
X133571258Y-130511000D01*
X133546488Y-130506073D01*
X133397188Y-130476376D01*
X133233216Y-130408456D01*
X133085646Y-130309853D01*
X132960147Y-130184354D01*
X132861544Y-130036784D01*
X132793624Y-129872812D01*
X132759000Y-129698741D01*
X132759000Y-129521259D01*
X132793624Y-129347188D01*
X132861544Y-129183216D01*
X132960147Y-129035646D01*
X133085646Y-128910147D01*
X133233216Y-128811544D01*
X133397188Y-128743624D01*
X133546488Y-128713927D01*
X133571258Y-128709000D01*
X133748742Y-128709000D01*
X133773512Y-128713927D01*
G37*
G36*
X71233512Y-128713927D02*
G01*
X71382812Y-128743624D01*
X71546784Y-128811544D01*
X71694354Y-128910147D01*
X71819853Y-129035646D01*
X71918456Y-129183216D01*
X71986376Y-129347188D01*
X72021000Y-129521259D01*
X72021000Y-129698741D01*
X71986376Y-129872812D01*
X71918456Y-130036784D01*
X71819853Y-130184354D01*
X71694354Y-130309853D01*
X71546784Y-130408456D01*
X71382812Y-130476376D01*
X71233512Y-130506073D01*
X71208742Y-130511000D01*
X71031258Y-130511000D01*
X71006488Y-130506073D01*
X70857188Y-130476376D01*
X70693216Y-130408456D01*
X70545646Y-130309853D01*
X70420147Y-130184354D01*
X70321544Y-130036784D01*
X70253624Y-129872812D01*
X70219000Y-129698741D01*
X70219000Y-129521259D01*
X70253624Y-129347188D01*
X70321544Y-129183216D01*
X70420147Y-129035646D01*
X70545646Y-128910147D01*
X70693216Y-128811544D01*
X70857188Y-128743624D01*
X71006488Y-128713927D01*
X71031258Y-128709000D01*
X71208742Y-128709000D01*
X71233512Y-128713927D01*
G37*
G36*
X131233512Y-128713927D02*
G01*
X131382812Y-128743624D01*
X131546784Y-128811544D01*
X131694354Y-128910147D01*
X131819853Y-129035646D01*
X131918456Y-129183216D01*
X131986376Y-129347188D01*
X132021000Y-129521259D01*
X132021000Y-129698741D01*
X131986376Y-129872812D01*
X131918456Y-130036784D01*
X131819853Y-130184354D01*
X131694354Y-130309853D01*
X131546784Y-130408456D01*
X131382812Y-130476376D01*
X131233512Y-130506073D01*
X131208742Y-130511000D01*
X131031258Y-130511000D01*
X131006488Y-130506073D01*
X130857188Y-130476376D01*
X130693216Y-130408456D01*
X130545646Y-130309853D01*
X130420147Y-130184354D01*
X130321544Y-130036784D01*
X130253624Y-129872812D01*
X130219000Y-129698741D01*
X130219000Y-129521259D01*
X130253624Y-129347188D01*
X130321544Y-129183216D01*
X130420147Y-129035646D01*
X130545646Y-128910147D01*
X130693216Y-128811544D01*
X130857188Y-128743624D01*
X131006488Y-128713927D01*
X131031258Y-128709000D01*
X131208742Y-128709000D01*
X131233512Y-128713927D01*
G37*
G36*
X106313512Y-128713927D02*
G01*
X106462812Y-128743624D01*
X106626784Y-128811544D01*
X106774354Y-128910147D01*
X106899853Y-129035646D01*
X106998456Y-129183216D01*
X107066376Y-129347188D01*
X107101000Y-129521259D01*
X107101000Y-129698741D01*
X107066376Y-129872812D01*
X106998456Y-130036784D01*
X106899853Y-130184354D01*
X106774354Y-130309853D01*
X106626784Y-130408456D01*
X106462812Y-130476376D01*
X106313512Y-130506073D01*
X106288742Y-130511000D01*
X106111258Y-130511000D01*
X106086488Y-130506073D01*
X105937188Y-130476376D01*
X105773216Y-130408456D01*
X105625646Y-130309853D01*
X105500147Y-130184354D01*
X105401544Y-130036784D01*
X105333624Y-129872812D01*
X105299000Y-129698741D01*
X105299000Y-129521259D01*
X105333624Y-129347188D01*
X105401544Y-129183216D01*
X105500147Y-129035646D01*
X105625646Y-128910147D01*
X105773216Y-128811544D01*
X105937188Y-128743624D01*
X106086488Y-128713927D01*
X106111258Y-128709000D01*
X106288742Y-128709000D01*
X106313512Y-128713927D01*
G37*
G36*
X111393512Y-128713927D02*
G01*
X111542812Y-128743624D01*
X111706784Y-128811544D01*
X111854354Y-128910147D01*
X111979853Y-129035646D01*
X112078456Y-129183216D01*
X112146376Y-129347188D01*
X112181000Y-129521259D01*
X112181000Y-129698741D01*
X112146376Y-129872812D01*
X112078456Y-130036784D01*
X111979853Y-130184354D01*
X111854354Y-130309853D01*
X111706784Y-130408456D01*
X111542812Y-130476376D01*
X111393512Y-130506073D01*
X111368742Y-130511000D01*
X111191258Y-130511000D01*
X111166488Y-130506073D01*
X111017188Y-130476376D01*
X110853216Y-130408456D01*
X110705646Y-130309853D01*
X110580147Y-130184354D01*
X110481544Y-130036784D01*
X110413624Y-129872812D01*
X110379000Y-129698741D01*
X110379000Y-129521259D01*
X110413624Y-129347188D01*
X110481544Y-129183216D01*
X110580147Y-129035646D01*
X110705646Y-128910147D01*
X110853216Y-128811544D01*
X111017188Y-128743624D01*
X111166488Y-128713927D01*
X111191258Y-128709000D01*
X111368742Y-128709000D01*
X111393512Y-128713927D01*
G37*
G36*
X101233512Y-128713927D02*
G01*
X101382812Y-128743624D01*
X101546784Y-128811544D01*
X101694354Y-128910147D01*
X101819853Y-129035646D01*
X101918456Y-129183216D01*
X101986376Y-129347188D01*
X102021000Y-129521259D01*
X102021000Y-129698741D01*
X101986376Y-129872812D01*
X101918456Y-130036784D01*
X101819853Y-130184354D01*
X101694354Y-130309853D01*
X101546784Y-130408456D01*
X101382812Y-130476376D01*
X101233512Y-130506073D01*
X101208742Y-130511000D01*
X101031258Y-130511000D01*
X101006488Y-130506073D01*
X100857188Y-130476376D01*
X100693216Y-130408456D01*
X100545646Y-130309853D01*
X100420147Y-130184354D01*
X100321544Y-130036784D01*
X100253624Y-129872812D01*
X100219000Y-129698741D01*
X100219000Y-129521259D01*
X100253624Y-129347188D01*
X100321544Y-129183216D01*
X100420147Y-129035646D01*
X100545646Y-128910147D01*
X100693216Y-128811544D01*
X100857188Y-128743624D01*
X101006488Y-128713927D01*
X101031258Y-128709000D01*
X101208742Y-128709000D01*
X101233512Y-128713927D01*
G37*
G36*
X108853512Y-128713927D02*
G01*
X109002812Y-128743624D01*
X109166784Y-128811544D01*
X109314354Y-128910147D01*
X109439853Y-129035646D01*
X109538456Y-129183216D01*
X109606376Y-129347188D01*
X109641000Y-129521259D01*
X109641000Y-129698741D01*
X109606376Y-129872812D01*
X109538456Y-130036784D01*
X109439853Y-130184354D01*
X109314354Y-130309853D01*
X109166784Y-130408456D01*
X109002812Y-130476376D01*
X108853512Y-130506073D01*
X108828742Y-130511000D01*
X108651258Y-130511000D01*
X108626488Y-130506073D01*
X108477188Y-130476376D01*
X108313216Y-130408456D01*
X108165646Y-130309853D01*
X108040147Y-130184354D01*
X107941544Y-130036784D01*
X107873624Y-129872812D01*
X107839000Y-129698741D01*
X107839000Y-129521259D01*
X107873624Y-129347188D01*
X107941544Y-129183216D01*
X108040147Y-129035646D01*
X108165646Y-128910147D01*
X108313216Y-128811544D01*
X108477188Y-128743624D01*
X108626488Y-128713927D01*
X108651258Y-128709000D01*
X108828742Y-128709000D01*
X108853512Y-128713927D01*
G37*
G36*
X90591000Y-130181000D02*
G01*
X89749000Y-130181000D01*
X89749000Y-127679000D01*
X90591000Y-127679000D01*
X90591000Y-130181000D01*
G37*
G36*
X149321000Y-130181000D02*
G01*
X148479000Y-130181000D01*
X148479000Y-127679000D01*
X149321000Y-127679000D01*
X149321000Y-130181000D01*
G37*
G36*
X150591000Y-130181000D02*
G01*
X149749000Y-130181000D01*
X149749000Y-127679000D01*
X150591000Y-127679000D01*
X150591000Y-130181000D01*
G37*
G36*
X151861000Y-130181000D02*
G01*
X151019000Y-130181000D01*
X151019000Y-127679000D01*
X151861000Y-127679000D01*
X151861000Y-130181000D01*
G37*
G36*
X154401000Y-130181000D02*
G01*
X153559000Y-130181000D01*
X153559000Y-127679000D01*
X154401000Y-127679000D01*
X154401000Y-130181000D01*
G37*
G36*
X119321000Y-130181000D02*
G01*
X118479000Y-130181000D01*
X118479000Y-127679000D01*
X119321000Y-127679000D01*
X119321000Y-130181000D01*
G37*
G36*
X120591000Y-130181000D02*
G01*
X119749000Y-130181000D01*
X119749000Y-127679000D01*
X120591000Y-127679000D01*
X120591000Y-130181000D01*
G37*
G36*
X121861000Y-130181000D02*
G01*
X121019000Y-130181000D01*
X121019000Y-127679000D01*
X121861000Y-127679000D01*
X121861000Y-130181000D01*
G37*
G36*
X124401000Y-130181000D02*
G01*
X123559000Y-130181000D01*
X123559000Y-127679000D01*
X124401000Y-127679000D01*
X124401000Y-130181000D01*
G37*
G36*
X89321000Y-130181000D02*
G01*
X88479000Y-130181000D01*
X88479000Y-127679000D01*
X89321000Y-127679000D01*
X89321000Y-130181000D01*
G37*
G36*
X153131000Y-130181000D02*
G01*
X152289000Y-130181000D01*
X152289000Y-127679000D01*
X153131000Y-127679000D01*
X153131000Y-130181000D01*
G37*
G36*
X91861000Y-130181000D02*
G01*
X91019000Y-130181000D01*
X91019000Y-127679000D01*
X91861000Y-127679000D01*
X91861000Y-130181000D01*
G37*
G36*
X93131000Y-130181000D02*
G01*
X92289000Y-130181000D01*
X92289000Y-127679000D01*
X93131000Y-127679000D01*
X93131000Y-130181000D01*
G37*
G36*
X94401000Y-130181000D02*
G01*
X93559000Y-130181000D01*
X93559000Y-127679000D01*
X94401000Y-127679000D01*
X94401000Y-130181000D01*
G37*
G36*
X123131000Y-130181000D02*
G01*
X122289000Y-130181000D01*
X122289000Y-127679000D01*
X123131000Y-127679000D01*
X123131000Y-130181000D01*
G37*
G36*
X121861000Y-119081000D02*
G01*
X121019000Y-119081000D01*
X121019000Y-116579000D01*
X121861000Y-116579000D01*
X121861000Y-119081000D01*
G37*
G36*
X90591000Y-119081000D02*
G01*
X89749000Y-119081000D01*
X89749000Y-116579000D01*
X90591000Y-116579000D01*
X90591000Y-119081000D01*
G37*
G36*
X91861000Y-119081000D02*
G01*
X91019000Y-119081000D01*
X91019000Y-116579000D01*
X91861000Y-116579000D01*
X91861000Y-119081000D01*
G37*
G36*
X93131000Y-119081000D02*
G01*
X92289000Y-119081000D01*
X92289000Y-116579000D01*
X93131000Y-116579000D01*
X93131000Y-119081000D01*
G37*
G36*
X94401000Y-119081000D02*
G01*
X93559000Y-119081000D01*
X93559000Y-116579000D01*
X94401000Y-116579000D01*
X94401000Y-119081000D01*
G37*
G36*
X119321000Y-119081000D02*
G01*
X118479000Y-119081000D01*
X118479000Y-116579000D01*
X119321000Y-116579000D01*
X119321000Y-119081000D01*
G37*
G36*
X120591000Y-119081000D02*
G01*
X119749000Y-119081000D01*
X119749000Y-116579000D01*
X120591000Y-116579000D01*
X120591000Y-119081000D01*
G37*
G36*
X123131000Y-119081000D02*
G01*
X122289000Y-119081000D01*
X122289000Y-116579000D01*
X123131000Y-116579000D01*
X123131000Y-119081000D01*
G37*
G36*
X124401000Y-119081000D02*
G01*
X123559000Y-119081000D01*
X123559000Y-116579000D01*
X124401000Y-116579000D01*
X124401000Y-119081000D01*
G37*
G36*
X150591000Y-119081000D02*
G01*
X149749000Y-119081000D01*
X149749000Y-116579000D01*
X150591000Y-116579000D01*
X150591000Y-119081000D01*
G37*
G36*
X151861000Y-119081000D02*
G01*
X151019000Y-119081000D01*
X151019000Y-116579000D01*
X151861000Y-116579000D01*
X151861000Y-119081000D01*
G37*
G36*
X153131000Y-119081000D02*
G01*
X152289000Y-119081000D01*
X152289000Y-116579000D01*
X153131000Y-116579000D01*
X153131000Y-119081000D01*
G37*
G36*
X154401000Y-119081000D02*
G01*
X153559000Y-119081000D01*
X153559000Y-116579000D01*
X154401000Y-116579000D01*
X154401000Y-119081000D01*
G37*
G36*
X89321000Y-119081000D02*
G01*
X88479000Y-119081000D01*
X88479000Y-116579000D01*
X89321000Y-116579000D01*
X89321000Y-119081000D01*
G37*
G36*
X149321000Y-119081000D02*
G01*
X148479000Y-119081000D01*
X148479000Y-116579000D01*
X149321000Y-116579000D01*
X149321000Y-119081000D01*
G37*
G36*
X141393512Y-116253927D02*
G01*
X141542812Y-116283624D01*
X141706784Y-116351544D01*
X141854354Y-116450147D01*
X141979853Y-116575646D01*
X142078456Y-116723216D01*
X142146376Y-116887188D01*
X142181000Y-117061259D01*
X142181000Y-117238741D01*
X142146376Y-117412812D01*
X142078456Y-117576784D01*
X141979853Y-117724354D01*
X141854354Y-117849853D01*
X141706784Y-117948456D01*
X141542812Y-118016376D01*
X141393512Y-118046073D01*
X141368742Y-118051000D01*
X141191258Y-118051000D01*
X141166488Y-118046073D01*
X141017188Y-118016376D01*
X140853216Y-117948456D01*
X140705646Y-117849853D01*
X140580147Y-117724354D01*
X140481544Y-117576784D01*
X140413624Y-117412812D01*
X140379000Y-117238741D01*
X140379000Y-117061259D01*
X140413624Y-116887188D01*
X140481544Y-116723216D01*
X140580147Y-116575646D01*
X140705646Y-116450147D01*
X140853216Y-116351544D01*
X141017188Y-116283624D01*
X141166488Y-116253927D01*
X141191258Y-116249000D01*
X141368742Y-116249000D01*
X141393512Y-116253927D01*
G37*
G36*
X132021000Y-118051000D02*
G01*
X130219000Y-118051000D01*
X130219000Y-116249000D01*
X132021000Y-116249000D01*
X132021000Y-118051000D01*
G37*
G36*
X81393512Y-116253927D02*
G01*
X81542812Y-116283624D01*
X81706784Y-116351544D01*
X81854354Y-116450147D01*
X81979853Y-116575646D01*
X82078456Y-116723216D01*
X82146376Y-116887188D01*
X82181000Y-117061259D01*
X82181000Y-117238741D01*
X82146376Y-117412812D01*
X82078456Y-117576784D01*
X81979853Y-117724354D01*
X81854354Y-117849853D01*
X81706784Y-117948456D01*
X81542812Y-118016376D01*
X81393512Y-118046073D01*
X81368742Y-118051000D01*
X81191258Y-118051000D01*
X81166488Y-118046073D01*
X81017188Y-118016376D01*
X80853216Y-117948456D01*
X80705646Y-117849853D01*
X80580147Y-117724354D01*
X80481544Y-117576784D01*
X80413624Y-117412812D01*
X80379000Y-117238741D01*
X80379000Y-117061259D01*
X80413624Y-116887188D01*
X80481544Y-116723216D01*
X80580147Y-116575646D01*
X80705646Y-116450147D01*
X80853216Y-116351544D01*
X81017188Y-116283624D01*
X81166488Y-116253927D01*
X81191258Y-116249000D01*
X81368742Y-116249000D01*
X81393512Y-116253927D01*
G37*
G36*
X133773512Y-116253927D02*
G01*
X133922812Y-116283624D01*
X134086784Y-116351544D01*
X134234354Y-116450147D01*
X134359853Y-116575646D01*
X134458456Y-116723216D01*
X134526376Y-116887188D01*
X134561000Y-117061259D01*
X134561000Y-117238741D01*
X134526376Y-117412812D01*
X134458456Y-117576784D01*
X134359853Y-117724354D01*
X134234354Y-117849853D01*
X134086784Y-117948456D01*
X133922812Y-118016376D01*
X133773512Y-118046073D01*
X133748742Y-118051000D01*
X133571258Y-118051000D01*
X133546488Y-118046073D01*
X133397188Y-118016376D01*
X133233216Y-117948456D01*
X133085646Y-117849853D01*
X132960147Y-117724354D01*
X132861544Y-117576784D01*
X132793624Y-117412812D01*
X132759000Y-117238741D01*
X132759000Y-117061259D01*
X132793624Y-116887188D01*
X132861544Y-116723216D01*
X132960147Y-116575646D01*
X133085646Y-116450147D01*
X133233216Y-116351544D01*
X133397188Y-116283624D01*
X133546488Y-116253927D01*
X133571258Y-116249000D01*
X133748742Y-116249000D01*
X133773512Y-116253927D01*
G37*
G36*
X78853512Y-116253927D02*
G01*
X79002812Y-116283624D01*
X79166784Y-116351544D01*
X79314354Y-116450147D01*
X79439853Y-116575646D01*
X79538456Y-116723216D01*
X79606376Y-116887188D01*
X79641000Y-117061259D01*
X79641000Y-117238741D01*
X79606376Y-117412812D01*
X79538456Y-117576784D01*
X79439853Y-117724354D01*
X79314354Y-117849853D01*
X79166784Y-117948456D01*
X79002812Y-118016376D01*
X78853512Y-118046073D01*
X78828742Y-118051000D01*
X78651258Y-118051000D01*
X78626488Y-118046073D01*
X78477188Y-118016376D01*
X78313216Y-117948456D01*
X78165646Y-117849853D01*
X78040147Y-117724354D01*
X77941544Y-117576784D01*
X77873624Y-117412812D01*
X77839000Y-117238741D01*
X77839000Y-117061259D01*
X77873624Y-116887188D01*
X77941544Y-116723216D01*
X78040147Y-116575646D01*
X78165646Y-116450147D01*
X78313216Y-116351544D01*
X78477188Y-116283624D01*
X78626488Y-116253927D01*
X78651258Y-116249000D01*
X78828742Y-116249000D01*
X78853512Y-116253927D01*
G37*
G36*
X76313512Y-116253927D02*
G01*
X76462812Y-116283624D01*
X76626784Y-116351544D01*
X76774354Y-116450147D01*
X76899853Y-116575646D01*
X76998456Y-116723216D01*
X77066376Y-116887188D01*
X77101000Y-117061259D01*
X77101000Y-117238741D01*
X77066376Y-117412812D01*
X76998456Y-117576784D01*
X76899853Y-117724354D01*
X76774354Y-117849853D01*
X76626784Y-117948456D01*
X76462812Y-118016376D01*
X76313512Y-118046073D01*
X76288742Y-118051000D01*
X76111258Y-118051000D01*
X76086488Y-118046073D01*
X75937188Y-118016376D01*
X75773216Y-117948456D01*
X75625646Y-117849853D01*
X75500147Y-117724354D01*
X75401544Y-117576784D01*
X75333624Y-117412812D01*
X75299000Y-117238741D01*
X75299000Y-117061259D01*
X75333624Y-116887188D01*
X75401544Y-116723216D01*
X75500147Y-116575646D01*
X75625646Y-116450147D01*
X75773216Y-116351544D01*
X75937188Y-116283624D01*
X76086488Y-116253927D01*
X76111258Y-116249000D01*
X76288742Y-116249000D01*
X76313512Y-116253927D01*
G37*
G36*
X136313512Y-116253927D02*
G01*
X136462812Y-116283624D01*
X136626784Y-116351544D01*
X136774354Y-116450147D01*
X136899853Y-116575646D01*
X136998456Y-116723216D01*
X137066376Y-116887188D01*
X137101000Y-117061259D01*
X137101000Y-117238741D01*
X137066376Y-117412812D01*
X136998456Y-117576784D01*
X136899853Y-117724354D01*
X136774354Y-117849853D01*
X136626784Y-117948456D01*
X136462812Y-118016376D01*
X136313512Y-118046073D01*
X136288742Y-118051000D01*
X136111258Y-118051000D01*
X136086488Y-118046073D01*
X135937188Y-118016376D01*
X135773216Y-117948456D01*
X135625646Y-117849853D01*
X135500147Y-117724354D01*
X135401544Y-117576784D01*
X135333624Y-117412812D01*
X135299000Y-117238741D01*
X135299000Y-117061259D01*
X135333624Y-116887188D01*
X135401544Y-116723216D01*
X135500147Y-116575646D01*
X135625646Y-116450147D01*
X135773216Y-116351544D01*
X135937188Y-116283624D01*
X136086488Y-116253927D01*
X136111258Y-116249000D01*
X136288742Y-116249000D01*
X136313512Y-116253927D01*
G37*
G36*
X73773512Y-116253927D02*
G01*
X73922812Y-116283624D01*
X74086784Y-116351544D01*
X74234354Y-116450147D01*
X74359853Y-116575646D01*
X74458456Y-116723216D01*
X74526376Y-116887188D01*
X74561000Y-117061259D01*
X74561000Y-117238741D01*
X74526376Y-117412812D01*
X74458456Y-117576784D01*
X74359853Y-117724354D01*
X74234354Y-117849853D01*
X74086784Y-117948456D01*
X73922812Y-118016376D01*
X73773512Y-118046073D01*
X73748742Y-118051000D01*
X73571258Y-118051000D01*
X73546488Y-118046073D01*
X73397188Y-118016376D01*
X73233216Y-117948456D01*
X73085646Y-117849853D01*
X72960147Y-117724354D01*
X72861544Y-117576784D01*
X72793624Y-117412812D01*
X72759000Y-117238741D01*
X72759000Y-117061259D01*
X72793624Y-116887188D01*
X72861544Y-116723216D01*
X72960147Y-116575646D01*
X73085646Y-116450147D01*
X73233216Y-116351544D01*
X73397188Y-116283624D01*
X73546488Y-116253927D01*
X73571258Y-116249000D01*
X73748742Y-116249000D01*
X73773512Y-116253927D01*
G37*
G36*
X72021000Y-118051000D02*
G01*
X70219000Y-118051000D01*
X70219000Y-116249000D01*
X72021000Y-116249000D01*
X72021000Y-118051000D01*
G37*
G36*
X138853512Y-116253927D02*
G01*
X139002812Y-116283624D01*
X139166784Y-116351544D01*
X139314354Y-116450147D01*
X139439853Y-116575646D01*
X139538456Y-116723216D01*
X139606376Y-116887188D01*
X139641000Y-117061259D01*
X139641000Y-117238741D01*
X139606376Y-117412812D01*
X139538456Y-117576784D01*
X139439853Y-117724354D01*
X139314354Y-117849853D01*
X139166784Y-117948456D01*
X139002812Y-118016376D01*
X138853512Y-118046073D01*
X138828742Y-118051000D01*
X138651258Y-118051000D01*
X138626488Y-118046073D01*
X138477188Y-118016376D01*
X138313216Y-117948456D01*
X138165646Y-117849853D01*
X138040147Y-117724354D01*
X137941544Y-117576784D01*
X137873624Y-117412812D01*
X137839000Y-117238741D01*
X137839000Y-117061259D01*
X137873624Y-116887188D01*
X137941544Y-116723216D01*
X138040147Y-116575646D01*
X138165646Y-116450147D01*
X138313216Y-116351544D01*
X138477188Y-116283624D01*
X138626488Y-116253927D01*
X138651258Y-116249000D01*
X138828742Y-116249000D01*
X138853512Y-116253927D01*
G37*
G36*
X103773512Y-116253927D02*
G01*
X103922812Y-116283624D01*
X104086784Y-116351544D01*
X104234354Y-116450147D01*
X104359853Y-116575646D01*
X104458456Y-116723216D01*
X104526376Y-116887188D01*
X104561000Y-117061259D01*
X104561000Y-117238741D01*
X104526376Y-117412812D01*
X104458456Y-117576784D01*
X104359853Y-117724354D01*
X104234354Y-117849853D01*
X104086784Y-117948456D01*
X103922812Y-118016376D01*
X103773512Y-118046073D01*
X103748742Y-118051000D01*
X103571258Y-118051000D01*
X103546488Y-118046073D01*
X103397188Y-118016376D01*
X103233216Y-117948456D01*
X103085646Y-117849853D01*
X102960147Y-117724354D01*
X102861544Y-117576784D01*
X102793624Y-117412812D01*
X102759000Y-117238741D01*
X102759000Y-117061259D01*
X102793624Y-116887188D01*
X102861544Y-116723216D01*
X102960147Y-116575646D01*
X103085646Y-116450147D01*
X103233216Y-116351544D01*
X103397188Y-116283624D01*
X103546488Y-116253927D01*
X103571258Y-116249000D01*
X103748742Y-116249000D01*
X103773512Y-116253927D01*
G37*
G36*
X111393512Y-116253927D02*
G01*
X111542812Y-116283624D01*
X111706784Y-116351544D01*
X111854354Y-116450147D01*
X111979853Y-116575646D01*
X112078456Y-116723216D01*
X112146376Y-116887188D01*
X112181000Y-117061259D01*
X112181000Y-117238741D01*
X112146376Y-117412812D01*
X112078456Y-117576784D01*
X111979853Y-117724354D01*
X111854354Y-117849853D01*
X111706784Y-117948456D01*
X111542812Y-118016376D01*
X111393512Y-118046073D01*
X111368742Y-118051000D01*
X111191258Y-118051000D01*
X111166488Y-118046073D01*
X111017188Y-118016376D01*
X110853216Y-117948456D01*
X110705646Y-117849853D01*
X110580147Y-117724354D01*
X110481544Y-117576784D01*
X110413624Y-117412812D01*
X110379000Y-117238741D01*
X110379000Y-117061259D01*
X110413624Y-116887188D01*
X110481544Y-116723216D01*
X110580147Y-116575646D01*
X110705646Y-116450147D01*
X110853216Y-116351544D01*
X111017188Y-116283624D01*
X111166488Y-116253927D01*
X111191258Y-116249000D01*
X111368742Y-116249000D01*
X111393512Y-116253927D01*
G37*
G36*
X102021000Y-118051000D02*
G01*
X100219000Y-118051000D01*
X100219000Y-116249000D01*
X102021000Y-116249000D01*
X102021000Y-118051000D01*
G37*
G36*
X108853512Y-116253927D02*
G01*
X109002812Y-116283624D01*
X109166784Y-116351544D01*
X109314354Y-116450147D01*
X109439853Y-116575646D01*
X109538456Y-116723216D01*
X109606376Y-116887188D01*
X109641000Y-117061259D01*
X109641000Y-117238741D01*
X109606376Y-117412812D01*
X109538456Y-117576784D01*
X109439853Y-117724354D01*
X109314354Y-117849853D01*
X109166784Y-117948456D01*
X109002812Y-118016376D01*
X108853512Y-118046073D01*
X108828742Y-118051000D01*
X108651258Y-118051000D01*
X108626488Y-118046073D01*
X108477188Y-118016376D01*
X108313216Y-117948456D01*
X108165646Y-117849853D01*
X108040147Y-117724354D01*
X107941544Y-117576784D01*
X107873624Y-117412812D01*
X107839000Y-117238741D01*
X107839000Y-117061259D01*
X107873624Y-116887188D01*
X107941544Y-116723216D01*
X108040147Y-116575646D01*
X108165646Y-116450147D01*
X108313216Y-116351544D01*
X108477188Y-116283624D01*
X108626488Y-116253927D01*
X108651258Y-116249000D01*
X108828742Y-116249000D01*
X108853512Y-116253927D01*
G37*
G36*
X106313512Y-116253927D02*
G01*
X106462812Y-116283624D01*
X106626784Y-116351544D01*
X106774354Y-116450147D01*
X106899853Y-116575646D01*
X106998456Y-116723216D01*
X107066376Y-116887188D01*
X107101000Y-117061259D01*
X107101000Y-117238741D01*
X107066376Y-117412812D01*
X106998456Y-117576784D01*
X106899853Y-117724354D01*
X106774354Y-117849853D01*
X106626784Y-117948456D01*
X106462812Y-118016376D01*
X106313512Y-118046073D01*
X106288742Y-118051000D01*
X106111258Y-118051000D01*
X106086488Y-118046073D01*
X105937188Y-118016376D01*
X105773216Y-117948456D01*
X105625646Y-117849853D01*
X105500147Y-117724354D01*
X105401544Y-117576784D01*
X105333624Y-117412812D01*
X105299000Y-117238741D01*
X105299000Y-117061259D01*
X105333624Y-116887188D01*
X105401544Y-116723216D01*
X105500147Y-116575646D01*
X105625646Y-116450147D01*
X105773216Y-116351544D01*
X105937188Y-116283624D01*
X106086488Y-116253927D01*
X106111258Y-116249000D01*
X106288742Y-116249000D01*
X106313512Y-116253927D01*
G37*
G36*
X131233512Y-113713927D02*
G01*
X131382812Y-113743624D01*
X131546784Y-113811544D01*
X131694354Y-113910147D01*
X131819853Y-114035646D01*
X131918456Y-114183216D01*
X131986376Y-114347188D01*
X132021000Y-114521259D01*
X132021000Y-114698741D01*
X131986376Y-114872812D01*
X131918456Y-115036784D01*
X131819853Y-115184354D01*
X131694354Y-115309853D01*
X131546784Y-115408456D01*
X131382812Y-115476376D01*
X131233512Y-115506073D01*
X131208742Y-115511000D01*
X131031258Y-115511000D01*
X131006488Y-115506073D01*
X130857188Y-115476376D01*
X130693216Y-115408456D01*
X130545646Y-115309853D01*
X130420147Y-115184354D01*
X130321544Y-115036784D01*
X130253624Y-114872812D01*
X130219000Y-114698741D01*
X130219000Y-114521259D01*
X130253624Y-114347188D01*
X130321544Y-114183216D01*
X130420147Y-114035646D01*
X130545646Y-113910147D01*
X130693216Y-113811544D01*
X130857188Y-113743624D01*
X131006488Y-113713927D01*
X131031258Y-113709000D01*
X131208742Y-113709000D01*
X131233512Y-113713927D01*
G37*
G36*
X111393512Y-113713927D02*
G01*
X111542812Y-113743624D01*
X111706784Y-113811544D01*
X111854354Y-113910147D01*
X111979853Y-114035646D01*
X112078456Y-114183216D01*
X112146376Y-114347188D01*
X112181000Y-114521259D01*
X112181000Y-114698741D01*
X112146376Y-114872812D01*
X112078456Y-115036784D01*
X111979853Y-115184354D01*
X111854354Y-115309853D01*
X111706784Y-115408456D01*
X111542812Y-115476376D01*
X111393512Y-115506073D01*
X111368742Y-115511000D01*
X111191258Y-115511000D01*
X111166488Y-115506073D01*
X111017188Y-115476376D01*
X110853216Y-115408456D01*
X110705646Y-115309853D01*
X110580147Y-115184354D01*
X110481544Y-115036784D01*
X110413624Y-114872812D01*
X110379000Y-114698741D01*
X110379000Y-114521259D01*
X110413624Y-114347188D01*
X110481544Y-114183216D01*
X110580147Y-114035646D01*
X110705646Y-113910147D01*
X110853216Y-113811544D01*
X111017188Y-113743624D01*
X111166488Y-113713927D01*
X111191258Y-113709000D01*
X111368742Y-113709000D01*
X111393512Y-113713927D01*
G37*
G36*
X108853512Y-113713927D02*
G01*
X109002812Y-113743624D01*
X109166784Y-113811544D01*
X109314354Y-113910147D01*
X109439853Y-114035646D01*
X109538456Y-114183216D01*
X109606376Y-114347188D01*
X109641000Y-114521259D01*
X109641000Y-114698741D01*
X109606376Y-114872812D01*
X109538456Y-115036784D01*
X109439853Y-115184354D01*
X109314354Y-115309853D01*
X109166784Y-115408456D01*
X109002812Y-115476376D01*
X108853512Y-115506073D01*
X108828742Y-115511000D01*
X108651258Y-115511000D01*
X108626488Y-115506073D01*
X108477188Y-115476376D01*
X108313216Y-115408456D01*
X108165646Y-115309853D01*
X108040147Y-115184354D01*
X107941544Y-115036784D01*
X107873624Y-114872812D01*
X107839000Y-114698741D01*
X107839000Y-114521259D01*
X107873624Y-114347188D01*
X107941544Y-114183216D01*
X108040147Y-114035646D01*
X108165646Y-113910147D01*
X108313216Y-113811544D01*
X108477188Y-113743624D01*
X108626488Y-113713927D01*
X108651258Y-113709000D01*
X108828742Y-113709000D01*
X108853512Y-113713927D01*
G37*
G36*
X106313512Y-113713927D02*
G01*
X106462812Y-113743624D01*
X106626784Y-113811544D01*
X106774354Y-113910147D01*
X106899853Y-114035646D01*
X106998456Y-114183216D01*
X107066376Y-114347188D01*
X107101000Y-114521259D01*
X107101000Y-114698741D01*
X107066376Y-114872812D01*
X106998456Y-115036784D01*
X106899853Y-115184354D01*
X106774354Y-115309853D01*
X106626784Y-115408456D01*
X106462812Y-115476376D01*
X106313512Y-115506073D01*
X106288742Y-115511000D01*
X106111258Y-115511000D01*
X106086488Y-115506073D01*
X105937188Y-115476376D01*
X105773216Y-115408456D01*
X105625646Y-115309853D01*
X105500147Y-115184354D01*
X105401544Y-115036784D01*
X105333624Y-114872812D01*
X105299000Y-114698741D01*
X105299000Y-114521259D01*
X105333624Y-114347188D01*
X105401544Y-114183216D01*
X105500147Y-114035646D01*
X105625646Y-113910147D01*
X105773216Y-113811544D01*
X105937188Y-113743624D01*
X106086488Y-113713927D01*
X106111258Y-113709000D01*
X106288742Y-113709000D01*
X106313512Y-113713927D01*
G37*
G36*
X101233512Y-113713927D02*
G01*
X101382812Y-113743624D01*
X101546784Y-113811544D01*
X101694354Y-113910147D01*
X101819853Y-114035646D01*
X101918456Y-114183216D01*
X101986376Y-114347188D01*
X102021000Y-114521259D01*
X102021000Y-114698741D01*
X101986376Y-114872812D01*
X101918456Y-115036784D01*
X101819853Y-115184354D01*
X101694354Y-115309853D01*
X101546784Y-115408456D01*
X101382812Y-115476376D01*
X101233512Y-115506073D01*
X101208742Y-115511000D01*
X101031258Y-115511000D01*
X101006488Y-115506073D01*
X100857188Y-115476376D01*
X100693216Y-115408456D01*
X100545646Y-115309853D01*
X100420147Y-115184354D01*
X100321544Y-115036784D01*
X100253624Y-114872812D01*
X100219000Y-114698741D01*
X100219000Y-114521259D01*
X100253624Y-114347188D01*
X100321544Y-114183216D01*
X100420147Y-114035646D01*
X100545646Y-113910147D01*
X100693216Y-113811544D01*
X100857188Y-113743624D01*
X101006488Y-113713927D01*
X101031258Y-113709000D01*
X101208742Y-113709000D01*
X101233512Y-113713927D01*
G37*
G36*
X81393512Y-113713927D02*
G01*
X81542812Y-113743624D01*
X81706784Y-113811544D01*
X81854354Y-113910147D01*
X81979853Y-114035646D01*
X82078456Y-114183216D01*
X82146376Y-114347188D01*
X82181000Y-114521259D01*
X82181000Y-114698741D01*
X82146376Y-114872812D01*
X82078456Y-115036784D01*
X81979853Y-115184354D01*
X81854354Y-115309853D01*
X81706784Y-115408456D01*
X81542812Y-115476376D01*
X81393512Y-115506073D01*
X81368742Y-115511000D01*
X81191258Y-115511000D01*
X81166488Y-115506073D01*
X81017188Y-115476376D01*
X80853216Y-115408456D01*
X80705646Y-115309853D01*
X80580147Y-115184354D01*
X80481544Y-115036784D01*
X80413624Y-114872812D01*
X80379000Y-114698741D01*
X80379000Y-114521259D01*
X80413624Y-114347188D01*
X80481544Y-114183216D01*
X80580147Y-114035646D01*
X80705646Y-113910147D01*
X80853216Y-113811544D01*
X81017188Y-113743624D01*
X81166488Y-113713927D01*
X81191258Y-113709000D01*
X81368742Y-113709000D01*
X81393512Y-113713927D01*
G37*
G36*
X78853512Y-113713927D02*
G01*
X79002812Y-113743624D01*
X79166784Y-113811544D01*
X79314354Y-113910147D01*
X79439853Y-114035646D01*
X79538456Y-114183216D01*
X79606376Y-114347188D01*
X79641000Y-114521259D01*
X79641000Y-114698741D01*
X79606376Y-114872812D01*
X79538456Y-115036784D01*
X79439853Y-115184354D01*
X79314354Y-115309853D01*
X79166784Y-115408456D01*
X79002812Y-115476376D01*
X78853512Y-115506073D01*
X78828742Y-115511000D01*
X78651258Y-115511000D01*
X78626488Y-115506073D01*
X78477188Y-115476376D01*
X78313216Y-115408456D01*
X78165646Y-115309853D01*
X78040147Y-115184354D01*
X77941544Y-115036784D01*
X77873624Y-114872812D01*
X77839000Y-114698741D01*
X77839000Y-114521259D01*
X77873624Y-114347188D01*
X77941544Y-114183216D01*
X78040147Y-114035646D01*
X78165646Y-113910147D01*
X78313216Y-113811544D01*
X78477188Y-113743624D01*
X78626488Y-113713927D01*
X78651258Y-113709000D01*
X78828742Y-113709000D01*
X78853512Y-113713927D01*
G37*
G36*
X76313512Y-113713927D02*
G01*
X76462812Y-113743624D01*
X76626784Y-113811544D01*
X76774354Y-113910147D01*
X76899853Y-114035646D01*
X76998456Y-114183216D01*
X77066376Y-114347188D01*
X77101000Y-114521259D01*
X77101000Y-114698741D01*
X77066376Y-114872812D01*
X76998456Y-115036784D01*
X76899853Y-115184354D01*
X76774354Y-115309853D01*
X76626784Y-115408456D01*
X76462812Y-115476376D01*
X76313512Y-115506073D01*
X76288742Y-115511000D01*
X76111258Y-115511000D01*
X76086488Y-115506073D01*
X75937188Y-115476376D01*
X75773216Y-115408456D01*
X75625646Y-115309853D01*
X75500147Y-115184354D01*
X75401544Y-115036784D01*
X75333624Y-114872812D01*
X75299000Y-114698741D01*
X75299000Y-114521259D01*
X75333624Y-114347188D01*
X75401544Y-114183216D01*
X75500147Y-114035646D01*
X75625646Y-113910147D01*
X75773216Y-113811544D01*
X75937188Y-113743624D01*
X76086488Y-113713927D01*
X76111258Y-113709000D01*
X76288742Y-113709000D01*
X76313512Y-113713927D01*
G37*
G36*
X71233512Y-113713927D02*
G01*
X71382812Y-113743624D01*
X71546784Y-113811544D01*
X71694354Y-113910147D01*
X71819853Y-114035646D01*
X71918456Y-114183216D01*
X71986376Y-114347188D01*
X72021000Y-114521259D01*
X72021000Y-114698741D01*
X71986376Y-114872812D01*
X71918456Y-115036784D01*
X71819853Y-115184354D01*
X71694354Y-115309853D01*
X71546784Y-115408456D01*
X71382812Y-115476376D01*
X71233512Y-115506073D01*
X71208742Y-115511000D01*
X71031258Y-115511000D01*
X71006488Y-115506073D01*
X70857188Y-115476376D01*
X70693216Y-115408456D01*
X70545646Y-115309853D01*
X70420147Y-115184354D01*
X70321544Y-115036784D01*
X70253624Y-114872812D01*
X70219000Y-114698741D01*
X70219000Y-114521259D01*
X70253624Y-114347188D01*
X70321544Y-114183216D01*
X70420147Y-114035646D01*
X70545646Y-113910147D01*
X70693216Y-113811544D01*
X70857188Y-113743624D01*
X71006488Y-113713927D01*
X71031258Y-113709000D01*
X71208742Y-113709000D01*
X71233512Y-113713927D01*
G37*
G36*
X73773512Y-113713927D02*
G01*
X73922812Y-113743624D01*
X74086784Y-113811544D01*
X74234354Y-113910147D01*
X74359853Y-114035646D01*
X74458456Y-114183216D01*
X74526376Y-114347188D01*
X74561000Y-114521259D01*
X74561000Y-114698741D01*
X74526376Y-114872812D01*
X74458456Y-115036784D01*
X74359853Y-115184354D01*
X74234354Y-115309853D01*
X74086784Y-115408456D01*
X73922812Y-115476376D01*
X73773512Y-115506073D01*
X73748742Y-115511000D01*
X73571258Y-115511000D01*
X73546488Y-115506073D01*
X73397188Y-115476376D01*
X73233216Y-115408456D01*
X73085646Y-115309853D01*
X72960147Y-115184354D01*
X72861544Y-115036784D01*
X72793624Y-114872812D01*
X72759000Y-114698741D01*
X72759000Y-114521259D01*
X72793624Y-114347188D01*
X72861544Y-114183216D01*
X72960147Y-114035646D01*
X73085646Y-113910147D01*
X73233216Y-113811544D01*
X73397188Y-113743624D01*
X73546488Y-113713927D01*
X73571258Y-113709000D01*
X73748742Y-113709000D01*
X73773512Y-113713927D01*
G37*
G36*
X138853512Y-113713927D02*
G01*
X139002812Y-113743624D01*
X139166784Y-113811544D01*
X139314354Y-113910147D01*
X139439853Y-114035646D01*
X139538456Y-114183216D01*
X139606376Y-114347188D01*
X139641000Y-114521259D01*
X139641000Y-114698741D01*
X139606376Y-114872812D01*
X139538456Y-115036784D01*
X139439853Y-115184354D01*
X139314354Y-115309853D01*
X139166784Y-115408456D01*
X139002812Y-115476376D01*
X138853512Y-115506073D01*
X138828742Y-115511000D01*
X138651258Y-115511000D01*
X138626488Y-115506073D01*
X138477188Y-115476376D01*
X138313216Y-115408456D01*
X138165646Y-115309853D01*
X138040147Y-115184354D01*
X137941544Y-115036784D01*
X137873624Y-114872812D01*
X137839000Y-114698741D01*
X137839000Y-114521259D01*
X137873624Y-114347188D01*
X137941544Y-114183216D01*
X138040147Y-114035646D01*
X138165646Y-113910147D01*
X138313216Y-113811544D01*
X138477188Y-113743624D01*
X138626488Y-113713927D01*
X138651258Y-113709000D01*
X138828742Y-113709000D01*
X138853512Y-113713927D01*
G37*
G36*
X136313512Y-113713927D02*
G01*
X136462812Y-113743624D01*
X136626784Y-113811544D01*
X136774354Y-113910147D01*
X136899853Y-114035646D01*
X136998456Y-114183216D01*
X137066376Y-114347188D01*
X137101000Y-114521259D01*
X137101000Y-114698741D01*
X137066376Y-114872812D01*
X136998456Y-115036784D01*
X136899853Y-115184354D01*
X136774354Y-115309853D01*
X136626784Y-115408456D01*
X136462812Y-115476376D01*
X136313512Y-115506073D01*
X136288742Y-115511000D01*
X136111258Y-115511000D01*
X136086488Y-115506073D01*
X135937188Y-115476376D01*
X135773216Y-115408456D01*
X135625646Y-115309853D01*
X135500147Y-115184354D01*
X135401544Y-115036784D01*
X135333624Y-114872812D01*
X135299000Y-114698741D01*
X135299000Y-114521259D01*
X135333624Y-114347188D01*
X135401544Y-114183216D01*
X135500147Y-114035646D01*
X135625646Y-113910147D01*
X135773216Y-113811544D01*
X135937188Y-113743624D01*
X136086488Y-113713927D01*
X136111258Y-113709000D01*
X136288742Y-113709000D01*
X136313512Y-113713927D01*
G37*
G36*
X141393512Y-113713927D02*
G01*
X141542812Y-113743624D01*
X141706784Y-113811544D01*
X141854354Y-113910147D01*
X141979853Y-114035646D01*
X142078456Y-114183216D01*
X142146376Y-114347188D01*
X142181000Y-114521259D01*
X142181000Y-114698741D01*
X142146376Y-114872812D01*
X142078456Y-115036784D01*
X141979853Y-115184354D01*
X141854354Y-115309853D01*
X141706784Y-115408456D01*
X141542812Y-115476376D01*
X141393512Y-115506073D01*
X141368742Y-115511000D01*
X141191258Y-115511000D01*
X141166488Y-115506073D01*
X141017188Y-115476376D01*
X140853216Y-115408456D01*
X140705646Y-115309853D01*
X140580147Y-115184354D01*
X140481544Y-115036784D01*
X140413624Y-114872812D01*
X140379000Y-114698741D01*
X140379000Y-114521259D01*
X140413624Y-114347188D01*
X140481544Y-114183216D01*
X140580147Y-114035646D01*
X140705646Y-113910147D01*
X140853216Y-113811544D01*
X141017188Y-113743624D01*
X141166488Y-113713927D01*
X141191258Y-113709000D01*
X141368742Y-113709000D01*
X141393512Y-113713927D01*
G37*
G36*
X103773512Y-113713927D02*
G01*
X103922812Y-113743624D01*
X104086784Y-113811544D01*
X104234354Y-113910147D01*
X104359853Y-114035646D01*
X104458456Y-114183216D01*
X104526376Y-114347188D01*
X104561000Y-114521259D01*
X104561000Y-114698741D01*
X104526376Y-114872812D01*
X104458456Y-115036784D01*
X104359853Y-115184354D01*
X104234354Y-115309853D01*
X104086784Y-115408456D01*
X103922812Y-115476376D01*
X103773512Y-115506073D01*
X103748742Y-115511000D01*
X103571258Y-115511000D01*
X103546488Y-115506073D01*
X103397188Y-115476376D01*
X103233216Y-115408456D01*
X103085646Y-115309853D01*
X102960147Y-115184354D01*
X102861544Y-115036784D01*
X102793624Y-114872812D01*
X102759000Y-114698741D01*
X102759000Y-114521259D01*
X102793624Y-114347188D01*
X102861544Y-114183216D01*
X102960147Y-114035646D01*
X103085646Y-113910147D01*
X103233216Y-113811544D01*
X103397188Y-113743624D01*
X103546488Y-113713927D01*
X103571258Y-113709000D01*
X103748742Y-113709000D01*
X103773512Y-113713927D01*
G37*
G36*
X133773512Y-113713927D02*
G01*
X133922812Y-113743624D01*
X134086784Y-113811544D01*
X134234354Y-113910147D01*
X134359853Y-114035646D01*
X134458456Y-114183216D01*
X134526376Y-114347188D01*
X134561000Y-114521259D01*
X134561000Y-114698741D01*
X134526376Y-114872812D01*
X134458456Y-115036784D01*
X134359853Y-115184354D01*
X134234354Y-115309853D01*
X134086784Y-115408456D01*
X133922812Y-115476376D01*
X133773512Y-115506073D01*
X133748742Y-115511000D01*
X133571258Y-115511000D01*
X133546488Y-115506073D01*
X133397188Y-115476376D01*
X133233216Y-115408456D01*
X133085646Y-115309853D01*
X132960147Y-115184354D01*
X132861544Y-115036784D01*
X132793624Y-114872812D01*
X132759000Y-114698741D01*
X132759000Y-114521259D01*
X132793624Y-114347188D01*
X132861544Y-114183216D01*
X132960147Y-114035646D01*
X133085646Y-113910147D01*
X133233216Y-113811544D01*
X133397188Y-113743624D01*
X133546488Y-113713927D01*
X133571258Y-113709000D01*
X133748742Y-113709000D01*
X133773512Y-113713927D01*
G37*
G36*
X89321000Y-115181000D02*
G01*
X88479000Y-115181000D01*
X88479000Y-112679000D01*
X89321000Y-112679000D01*
X89321000Y-115181000D01*
G37*
G36*
X94401000Y-115181000D02*
G01*
X93559000Y-115181000D01*
X93559000Y-112679000D01*
X94401000Y-112679000D01*
X94401000Y-115181000D01*
G37*
G36*
X93131000Y-115181000D02*
G01*
X92289000Y-115181000D01*
X92289000Y-112679000D01*
X93131000Y-112679000D01*
X93131000Y-115181000D01*
G37*
G36*
X91861000Y-115181000D02*
G01*
X91019000Y-115181000D01*
X91019000Y-112679000D01*
X91861000Y-112679000D01*
X91861000Y-115181000D01*
G37*
G36*
X90591000Y-115181000D02*
G01*
X89749000Y-115181000D01*
X89749000Y-112679000D01*
X90591000Y-112679000D01*
X90591000Y-115181000D01*
G37*
G36*
X124401000Y-115181000D02*
G01*
X123559000Y-115181000D01*
X123559000Y-112679000D01*
X124401000Y-112679000D01*
X124401000Y-115181000D01*
G37*
G36*
X123131000Y-115181000D02*
G01*
X122289000Y-115181000D01*
X122289000Y-112679000D01*
X123131000Y-112679000D01*
X123131000Y-115181000D01*
G37*
G36*
X121861000Y-115181000D02*
G01*
X121019000Y-115181000D01*
X121019000Y-112679000D01*
X121861000Y-112679000D01*
X121861000Y-115181000D01*
G37*
G36*
X120591000Y-115181000D02*
G01*
X119749000Y-115181000D01*
X119749000Y-112679000D01*
X120591000Y-112679000D01*
X120591000Y-115181000D01*
G37*
G36*
X119321000Y-115181000D02*
G01*
X118479000Y-115181000D01*
X118479000Y-112679000D01*
X119321000Y-112679000D01*
X119321000Y-115181000D01*
G37*
G36*
X153131000Y-115181000D02*
G01*
X152289000Y-115181000D01*
X152289000Y-112679000D01*
X153131000Y-112679000D01*
X153131000Y-115181000D01*
G37*
G36*
X150591000Y-115181000D02*
G01*
X149749000Y-115181000D01*
X149749000Y-112679000D01*
X150591000Y-112679000D01*
X150591000Y-115181000D01*
G37*
G36*
X149321000Y-115181000D02*
G01*
X148479000Y-115181000D01*
X148479000Y-112679000D01*
X149321000Y-112679000D01*
X149321000Y-115181000D01*
G37*
G36*
X154401000Y-115181000D02*
G01*
X153559000Y-115181000D01*
X153559000Y-112679000D01*
X154401000Y-112679000D01*
X154401000Y-115181000D01*
G37*
G36*
X151861000Y-115181000D02*
G01*
X151019000Y-115181000D01*
X151019000Y-112679000D01*
X151861000Y-112679000D01*
X151861000Y-115181000D01*
G37*
G36*
X93131000Y-104081000D02*
G01*
X92289000Y-104081000D01*
X92289000Y-101579000D01*
X93131000Y-101579000D01*
X93131000Y-104081000D01*
G37*
G36*
X150591000Y-104081000D02*
G01*
X149749000Y-104081000D01*
X149749000Y-101579000D01*
X150591000Y-101579000D01*
X150591000Y-104081000D01*
G37*
G36*
X151861000Y-104081000D02*
G01*
X151019000Y-104081000D01*
X151019000Y-101579000D01*
X151861000Y-101579000D01*
X151861000Y-104081000D01*
G37*
G36*
X149321000Y-104081000D02*
G01*
X148479000Y-104081000D01*
X148479000Y-101579000D01*
X149321000Y-101579000D01*
X149321000Y-104081000D01*
G37*
G36*
X153131000Y-104081000D02*
G01*
X152289000Y-104081000D01*
X152289000Y-101579000D01*
X153131000Y-101579000D01*
X153131000Y-104081000D01*
G37*
G36*
X119321000Y-104081000D02*
G01*
X118479000Y-104081000D01*
X118479000Y-101579000D01*
X119321000Y-101579000D01*
X119321000Y-104081000D01*
G37*
G36*
X120591000Y-104081000D02*
G01*
X119749000Y-104081000D01*
X119749000Y-101579000D01*
X120591000Y-101579000D01*
X120591000Y-104081000D01*
G37*
G36*
X121861000Y-104081000D02*
G01*
X121019000Y-104081000D01*
X121019000Y-101579000D01*
X121861000Y-101579000D01*
X121861000Y-104081000D01*
G37*
G36*
X154401000Y-104081000D02*
G01*
X153559000Y-104081000D01*
X153559000Y-101579000D01*
X154401000Y-101579000D01*
X154401000Y-104081000D01*
G37*
G36*
X124401000Y-104081000D02*
G01*
X123559000Y-104081000D01*
X123559000Y-101579000D01*
X124401000Y-101579000D01*
X124401000Y-104081000D01*
G37*
G36*
X89321000Y-104081000D02*
G01*
X88479000Y-104081000D01*
X88479000Y-101579000D01*
X89321000Y-101579000D01*
X89321000Y-104081000D01*
G37*
G36*
X94401000Y-104081000D02*
G01*
X93559000Y-104081000D01*
X93559000Y-101579000D01*
X94401000Y-101579000D01*
X94401000Y-104081000D01*
G37*
G36*
X90591000Y-104081000D02*
G01*
X89749000Y-104081000D01*
X89749000Y-101579000D01*
X90591000Y-101579000D01*
X90591000Y-104081000D01*
G37*
G36*
X91861000Y-104081000D02*
G01*
X91019000Y-104081000D01*
X91019000Y-101579000D01*
X91861000Y-101579000D01*
X91861000Y-104081000D01*
G37*
G36*
X123131000Y-104081000D02*
G01*
X122289000Y-104081000D01*
X122289000Y-101579000D01*
X123131000Y-101579000D01*
X123131000Y-104081000D01*
G37*
G36*
X141393512Y-101253927D02*
G01*
X141542812Y-101283624D01*
X141706784Y-101351544D01*
X141854354Y-101450147D01*
X141979853Y-101575646D01*
X142078456Y-101723216D01*
X142146376Y-101887188D01*
X142181000Y-102061259D01*
X142181000Y-102238741D01*
X142146376Y-102412812D01*
X142078456Y-102576784D01*
X141979853Y-102724354D01*
X141854354Y-102849853D01*
X141706784Y-102948456D01*
X141542812Y-103016376D01*
X141393512Y-103046073D01*
X141368742Y-103051000D01*
X141191258Y-103051000D01*
X141166488Y-103046073D01*
X141017188Y-103016376D01*
X140853216Y-102948456D01*
X140705646Y-102849853D01*
X140580147Y-102724354D01*
X140481544Y-102576784D01*
X140413624Y-102412812D01*
X140379000Y-102238741D01*
X140379000Y-102061259D01*
X140413624Y-101887188D01*
X140481544Y-101723216D01*
X140580147Y-101575646D01*
X140705646Y-101450147D01*
X140853216Y-101351544D01*
X141017188Y-101283624D01*
X141166488Y-101253927D01*
X141191258Y-101249000D01*
X141368742Y-101249000D01*
X141393512Y-101253927D01*
G37*
G36*
X136313512Y-101253927D02*
G01*
X136462812Y-101283624D01*
X136626784Y-101351544D01*
X136774354Y-101450147D01*
X136899853Y-101575646D01*
X136998456Y-101723216D01*
X137066376Y-101887188D01*
X137101000Y-102061259D01*
X137101000Y-102238741D01*
X137066376Y-102412812D01*
X136998456Y-102576784D01*
X136899853Y-102724354D01*
X136774354Y-102849853D01*
X136626784Y-102948456D01*
X136462812Y-103016376D01*
X136313512Y-103046073D01*
X136288742Y-103051000D01*
X136111258Y-103051000D01*
X136086488Y-103046073D01*
X135937188Y-103016376D01*
X135773216Y-102948456D01*
X135625646Y-102849853D01*
X135500147Y-102724354D01*
X135401544Y-102576784D01*
X135333624Y-102412812D01*
X135299000Y-102238741D01*
X135299000Y-102061259D01*
X135333624Y-101887188D01*
X135401544Y-101723216D01*
X135500147Y-101575646D01*
X135625646Y-101450147D01*
X135773216Y-101351544D01*
X135937188Y-101283624D01*
X136086488Y-101253927D01*
X136111258Y-101249000D01*
X136288742Y-101249000D01*
X136313512Y-101253927D01*
G37*
G36*
X133773512Y-101253927D02*
G01*
X133922812Y-101283624D01*
X134086784Y-101351544D01*
X134234354Y-101450147D01*
X134359853Y-101575646D01*
X134458456Y-101723216D01*
X134526376Y-101887188D01*
X134561000Y-102061259D01*
X134561000Y-102238741D01*
X134526376Y-102412812D01*
X134458456Y-102576784D01*
X134359853Y-102724354D01*
X134234354Y-102849853D01*
X134086784Y-102948456D01*
X133922812Y-103016376D01*
X133773512Y-103046073D01*
X133748742Y-103051000D01*
X133571258Y-103051000D01*
X133546488Y-103046073D01*
X133397188Y-103016376D01*
X133233216Y-102948456D01*
X133085646Y-102849853D01*
X132960147Y-102724354D01*
X132861544Y-102576784D01*
X132793624Y-102412812D01*
X132759000Y-102238741D01*
X132759000Y-102061259D01*
X132793624Y-101887188D01*
X132861544Y-101723216D01*
X132960147Y-101575646D01*
X133085646Y-101450147D01*
X133233216Y-101351544D01*
X133397188Y-101283624D01*
X133546488Y-101253927D01*
X133571258Y-101249000D01*
X133748742Y-101249000D01*
X133773512Y-101253927D01*
G37*
G36*
X132021000Y-103051000D02*
G01*
X130219000Y-103051000D01*
X130219000Y-101249000D01*
X132021000Y-101249000D01*
X132021000Y-103051000D01*
G37*
G36*
X111393512Y-101253927D02*
G01*
X111542812Y-101283624D01*
X111706784Y-101351544D01*
X111854354Y-101450147D01*
X111979853Y-101575646D01*
X112078456Y-101723216D01*
X112146376Y-101887188D01*
X112181000Y-102061259D01*
X112181000Y-102238741D01*
X112146376Y-102412812D01*
X112078456Y-102576784D01*
X111979853Y-102724354D01*
X111854354Y-102849853D01*
X111706784Y-102948456D01*
X111542812Y-103016376D01*
X111393512Y-103046073D01*
X111368742Y-103051000D01*
X111191258Y-103051000D01*
X111166488Y-103046073D01*
X111017188Y-103016376D01*
X110853216Y-102948456D01*
X110705646Y-102849853D01*
X110580147Y-102724354D01*
X110481544Y-102576784D01*
X110413624Y-102412812D01*
X110379000Y-102238741D01*
X110379000Y-102061259D01*
X110413624Y-101887188D01*
X110481544Y-101723216D01*
X110580147Y-101575646D01*
X110705646Y-101450147D01*
X110853216Y-101351544D01*
X111017188Y-101283624D01*
X111166488Y-101253927D01*
X111191258Y-101249000D01*
X111368742Y-101249000D01*
X111393512Y-101253927D01*
G37*
G36*
X108853512Y-101253927D02*
G01*
X109002812Y-101283624D01*
X109166784Y-101351544D01*
X109314354Y-101450147D01*
X109439853Y-101575646D01*
X109538456Y-101723216D01*
X109606376Y-101887188D01*
X109641000Y-102061259D01*
X109641000Y-102238741D01*
X109606376Y-102412812D01*
X109538456Y-102576784D01*
X109439853Y-102724354D01*
X109314354Y-102849853D01*
X109166784Y-102948456D01*
X109002812Y-103016376D01*
X108853512Y-103046073D01*
X108828742Y-103051000D01*
X108651258Y-103051000D01*
X108626488Y-103046073D01*
X108477188Y-103016376D01*
X108313216Y-102948456D01*
X108165646Y-102849853D01*
X108040147Y-102724354D01*
X107941544Y-102576784D01*
X107873624Y-102412812D01*
X107839000Y-102238741D01*
X107839000Y-102061259D01*
X107873624Y-101887188D01*
X107941544Y-101723216D01*
X108040147Y-101575646D01*
X108165646Y-101450147D01*
X108313216Y-101351544D01*
X108477188Y-101283624D01*
X108626488Y-101253927D01*
X108651258Y-101249000D01*
X108828742Y-101249000D01*
X108853512Y-101253927D01*
G37*
G36*
X106313512Y-101253927D02*
G01*
X106462812Y-101283624D01*
X106626784Y-101351544D01*
X106774354Y-101450147D01*
X106899853Y-101575646D01*
X106998456Y-101723216D01*
X107066376Y-101887188D01*
X107101000Y-102061259D01*
X107101000Y-102238741D01*
X107066376Y-102412812D01*
X106998456Y-102576784D01*
X106899853Y-102724354D01*
X106774354Y-102849853D01*
X106626784Y-102948456D01*
X106462812Y-103016376D01*
X106313512Y-103046073D01*
X106288742Y-103051000D01*
X106111258Y-103051000D01*
X106086488Y-103046073D01*
X105937188Y-103016376D01*
X105773216Y-102948456D01*
X105625646Y-102849853D01*
X105500147Y-102724354D01*
X105401544Y-102576784D01*
X105333624Y-102412812D01*
X105299000Y-102238741D01*
X105299000Y-102061259D01*
X105333624Y-101887188D01*
X105401544Y-101723216D01*
X105500147Y-101575646D01*
X105625646Y-101450147D01*
X105773216Y-101351544D01*
X105937188Y-101283624D01*
X106086488Y-101253927D01*
X106111258Y-101249000D01*
X106288742Y-101249000D01*
X106313512Y-101253927D01*
G37*
G36*
X102021000Y-103051000D02*
G01*
X100219000Y-103051000D01*
X100219000Y-101249000D01*
X102021000Y-101249000D01*
X102021000Y-103051000D01*
G37*
G36*
X81393512Y-101253927D02*
G01*
X81542812Y-101283624D01*
X81706784Y-101351544D01*
X81854354Y-101450147D01*
X81979853Y-101575646D01*
X82078456Y-101723216D01*
X82146376Y-101887188D01*
X82181000Y-102061259D01*
X82181000Y-102238741D01*
X82146376Y-102412812D01*
X82078456Y-102576784D01*
X81979853Y-102724354D01*
X81854354Y-102849853D01*
X81706784Y-102948456D01*
X81542812Y-103016376D01*
X81393512Y-103046073D01*
X81368742Y-103051000D01*
X81191258Y-103051000D01*
X81166488Y-103046073D01*
X81017188Y-103016376D01*
X80853216Y-102948456D01*
X80705646Y-102849853D01*
X80580147Y-102724354D01*
X80481544Y-102576784D01*
X80413624Y-102412812D01*
X80379000Y-102238741D01*
X80379000Y-102061259D01*
X80413624Y-101887188D01*
X80481544Y-101723216D01*
X80580147Y-101575646D01*
X80705646Y-101450147D01*
X80853216Y-101351544D01*
X81017188Y-101283624D01*
X81166488Y-101253927D01*
X81191258Y-101249000D01*
X81368742Y-101249000D01*
X81393512Y-101253927D01*
G37*
G36*
X78853512Y-101253927D02*
G01*
X79002812Y-101283624D01*
X79166784Y-101351544D01*
X79314354Y-101450147D01*
X79439853Y-101575646D01*
X79538456Y-101723216D01*
X79606376Y-101887188D01*
X79641000Y-102061259D01*
X79641000Y-102238741D01*
X79606376Y-102412812D01*
X79538456Y-102576784D01*
X79439853Y-102724354D01*
X79314354Y-102849853D01*
X79166784Y-102948456D01*
X79002812Y-103016376D01*
X78853512Y-103046073D01*
X78828742Y-103051000D01*
X78651258Y-103051000D01*
X78626488Y-103046073D01*
X78477188Y-103016376D01*
X78313216Y-102948456D01*
X78165646Y-102849853D01*
X78040147Y-102724354D01*
X77941544Y-102576784D01*
X77873624Y-102412812D01*
X77839000Y-102238741D01*
X77839000Y-102061259D01*
X77873624Y-101887188D01*
X77941544Y-101723216D01*
X78040147Y-101575646D01*
X78165646Y-101450147D01*
X78313216Y-101351544D01*
X78477188Y-101283624D01*
X78626488Y-101253927D01*
X78651258Y-101249000D01*
X78828742Y-101249000D01*
X78853512Y-101253927D01*
G37*
G36*
X76313512Y-101253927D02*
G01*
X76462812Y-101283624D01*
X76626784Y-101351544D01*
X76774354Y-101450147D01*
X76899853Y-101575646D01*
X76998456Y-101723216D01*
X77066376Y-101887188D01*
X77101000Y-102061259D01*
X77101000Y-102238741D01*
X77066376Y-102412812D01*
X76998456Y-102576784D01*
X76899853Y-102724354D01*
X76774354Y-102849853D01*
X76626784Y-102948456D01*
X76462812Y-103016376D01*
X76313512Y-103046073D01*
X76288742Y-103051000D01*
X76111258Y-103051000D01*
X76086488Y-103046073D01*
X75937188Y-103016376D01*
X75773216Y-102948456D01*
X75625646Y-102849853D01*
X75500147Y-102724354D01*
X75401544Y-102576784D01*
X75333624Y-102412812D01*
X75299000Y-102238741D01*
X75299000Y-102061259D01*
X75333624Y-101887188D01*
X75401544Y-101723216D01*
X75500147Y-101575646D01*
X75625646Y-101450147D01*
X75773216Y-101351544D01*
X75937188Y-101283624D01*
X76086488Y-101253927D01*
X76111258Y-101249000D01*
X76288742Y-101249000D01*
X76313512Y-101253927D01*
G37*
G36*
X72021000Y-103051000D02*
G01*
X70219000Y-103051000D01*
X70219000Y-101249000D01*
X72021000Y-101249000D01*
X72021000Y-103051000D01*
G37*
G36*
X138853512Y-101253927D02*
G01*
X139002812Y-101283624D01*
X139166784Y-101351544D01*
X139314354Y-101450147D01*
X139439853Y-101575646D01*
X139538456Y-101723216D01*
X139606376Y-101887188D01*
X139641000Y-102061259D01*
X139641000Y-102238741D01*
X139606376Y-102412812D01*
X139538456Y-102576784D01*
X139439853Y-102724354D01*
X139314354Y-102849853D01*
X139166784Y-102948456D01*
X139002812Y-103016376D01*
X138853512Y-103046073D01*
X138828742Y-103051000D01*
X138651258Y-103051000D01*
X138626488Y-103046073D01*
X138477188Y-103016376D01*
X138313216Y-102948456D01*
X138165646Y-102849853D01*
X138040147Y-102724354D01*
X137941544Y-102576784D01*
X137873624Y-102412812D01*
X137839000Y-102238741D01*
X137839000Y-102061259D01*
X137873624Y-101887188D01*
X137941544Y-101723216D01*
X138040147Y-101575646D01*
X138165646Y-101450147D01*
X138313216Y-101351544D01*
X138477188Y-101283624D01*
X138626488Y-101253927D01*
X138651258Y-101249000D01*
X138828742Y-101249000D01*
X138853512Y-101253927D01*
G37*
G36*
X73773512Y-101253927D02*
G01*
X73922812Y-101283624D01*
X74086784Y-101351544D01*
X74234354Y-101450147D01*
X74359853Y-101575646D01*
X74458456Y-101723216D01*
X74526376Y-101887188D01*
X74561000Y-102061259D01*
X74561000Y-102238741D01*
X74526376Y-102412812D01*
X74458456Y-102576784D01*
X74359853Y-102724354D01*
X74234354Y-102849853D01*
X74086784Y-102948456D01*
X73922812Y-103016376D01*
X73773512Y-103046073D01*
X73748742Y-103051000D01*
X73571258Y-103051000D01*
X73546488Y-103046073D01*
X73397188Y-103016376D01*
X73233216Y-102948456D01*
X73085646Y-102849853D01*
X72960147Y-102724354D01*
X72861544Y-102576784D01*
X72793624Y-102412812D01*
X72759000Y-102238741D01*
X72759000Y-102061259D01*
X72793624Y-101887188D01*
X72861544Y-101723216D01*
X72960147Y-101575646D01*
X73085646Y-101450147D01*
X73233216Y-101351544D01*
X73397188Y-101283624D01*
X73546488Y-101253927D01*
X73571258Y-101249000D01*
X73748742Y-101249000D01*
X73773512Y-101253927D01*
G37*
G36*
X103773512Y-101253927D02*
G01*
X103922812Y-101283624D01*
X104086784Y-101351544D01*
X104234354Y-101450147D01*
X104359853Y-101575646D01*
X104458456Y-101723216D01*
X104526376Y-101887188D01*
X104561000Y-102061259D01*
X104561000Y-102238741D01*
X104526376Y-102412812D01*
X104458456Y-102576784D01*
X104359853Y-102724354D01*
X104234354Y-102849853D01*
X104086784Y-102948456D01*
X103922812Y-103016376D01*
X103773512Y-103046073D01*
X103748742Y-103051000D01*
X103571258Y-103051000D01*
X103546488Y-103046073D01*
X103397188Y-103016376D01*
X103233216Y-102948456D01*
X103085646Y-102849853D01*
X102960147Y-102724354D01*
X102861544Y-102576784D01*
X102793624Y-102412812D01*
X102759000Y-102238741D01*
X102759000Y-102061259D01*
X102793624Y-101887188D01*
X102861544Y-101723216D01*
X102960147Y-101575646D01*
X103085646Y-101450147D01*
X103233216Y-101351544D01*
X103397188Y-101283624D01*
X103546488Y-101253927D01*
X103571258Y-101249000D01*
X103748742Y-101249000D01*
X103773512Y-101253927D01*
G37*
G36*
X133773512Y-98713927D02*
G01*
X133922812Y-98743624D01*
X134086784Y-98811544D01*
X134234354Y-98910147D01*
X134359853Y-99035646D01*
X134458456Y-99183216D01*
X134526376Y-99347188D01*
X134561000Y-99521259D01*
X134561000Y-99698741D01*
X134526376Y-99872812D01*
X134458456Y-100036784D01*
X134359853Y-100184354D01*
X134234354Y-100309853D01*
X134086784Y-100408456D01*
X133922812Y-100476376D01*
X133773512Y-100506073D01*
X133748742Y-100511000D01*
X133571258Y-100511000D01*
X133546488Y-100506073D01*
X133397188Y-100476376D01*
X133233216Y-100408456D01*
X133085646Y-100309853D01*
X132960147Y-100184354D01*
X132861544Y-100036784D01*
X132793624Y-99872812D01*
X132759000Y-99698741D01*
X132759000Y-99521259D01*
X132793624Y-99347188D01*
X132861544Y-99183216D01*
X132960147Y-99035646D01*
X133085646Y-98910147D01*
X133233216Y-98811544D01*
X133397188Y-98743624D01*
X133546488Y-98713927D01*
X133571258Y-98709000D01*
X133748742Y-98709000D01*
X133773512Y-98713927D01*
G37*
G36*
X73773512Y-98713927D02*
G01*
X73922812Y-98743624D01*
X74086784Y-98811544D01*
X74234354Y-98910147D01*
X74359853Y-99035646D01*
X74458456Y-99183216D01*
X74526376Y-99347188D01*
X74561000Y-99521259D01*
X74561000Y-99698741D01*
X74526376Y-99872812D01*
X74458456Y-100036784D01*
X74359853Y-100184354D01*
X74234354Y-100309853D01*
X74086784Y-100408456D01*
X73922812Y-100476376D01*
X73773512Y-100506073D01*
X73748742Y-100511000D01*
X73571258Y-100511000D01*
X73546488Y-100506073D01*
X73397188Y-100476376D01*
X73233216Y-100408456D01*
X73085646Y-100309853D01*
X72960147Y-100184354D01*
X72861544Y-100036784D01*
X72793624Y-99872812D01*
X72759000Y-99698741D01*
X72759000Y-99521259D01*
X72793624Y-99347188D01*
X72861544Y-99183216D01*
X72960147Y-99035646D01*
X73085646Y-98910147D01*
X73233216Y-98811544D01*
X73397188Y-98743624D01*
X73546488Y-98713927D01*
X73571258Y-98709000D01*
X73748742Y-98709000D01*
X73773512Y-98713927D01*
G37*
G36*
X76313512Y-98713927D02*
G01*
X76462812Y-98743624D01*
X76626784Y-98811544D01*
X76774354Y-98910147D01*
X76899853Y-99035646D01*
X76998456Y-99183216D01*
X77066376Y-99347188D01*
X77101000Y-99521259D01*
X77101000Y-99698741D01*
X77066376Y-99872812D01*
X76998456Y-100036784D01*
X76899853Y-100184354D01*
X76774354Y-100309853D01*
X76626784Y-100408456D01*
X76462812Y-100476376D01*
X76313512Y-100506073D01*
X76288742Y-100511000D01*
X76111258Y-100511000D01*
X76086488Y-100506073D01*
X75937188Y-100476376D01*
X75773216Y-100408456D01*
X75625646Y-100309853D01*
X75500147Y-100184354D01*
X75401544Y-100036784D01*
X75333624Y-99872812D01*
X75299000Y-99698741D01*
X75299000Y-99521259D01*
X75333624Y-99347188D01*
X75401544Y-99183216D01*
X75500147Y-99035646D01*
X75625646Y-98910147D01*
X75773216Y-98811544D01*
X75937188Y-98743624D01*
X76086488Y-98713927D01*
X76111258Y-98709000D01*
X76288742Y-98709000D01*
X76313512Y-98713927D01*
G37*
G36*
X78853512Y-98713927D02*
G01*
X79002812Y-98743624D01*
X79166784Y-98811544D01*
X79314354Y-98910147D01*
X79439853Y-99035646D01*
X79538456Y-99183216D01*
X79606376Y-99347188D01*
X79641000Y-99521259D01*
X79641000Y-99698741D01*
X79606376Y-99872812D01*
X79538456Y-100036784D01*
X79439853Y-100184354D01*
X79314354Y-100309853D01*
X79166784Y-100408456D01*
X79002812Y-100476376D01*
X78853512Y-100506073D01*
X78828742Y-100511000D01*
X78651258Y-100511000D01*
X78626488Y-100506073D01*
X78477188Y-100476376D01*
X78313216Y-100408456D01*
X78165646Y-100309853D01*
X78040147Y-100184354D01*
X77941544Y-100036784D01*
X77873624Y-99872812D01*
X77839000Y-99698741D01*
X77839000Y-99521259D01*
X77873624Y-99347188D01*
X77941544Y-99183216D01*
X78040147Y-99035646D01*
X78165646Y-98910147D01*
X78313216Y-98811544D01*
X78477188Y-98743624D01*
X78626488Y-98713927D01*
X78651258Y-98709000D01*
X78828742Y-98709000D01*
X78853512Y-98713927D01*
G37*
G36*
X71233512Y-98713927D02*
G01*
X71382812Y-98743624D01*
X71546784Y-98811544D01*
X71694354Y-98910147D01*
X71819853Y-99035646D01*
X71918456Y-99183216D01*
X71986376Y-99347188D01*
X72021000Y-99521259D01*
X72021000Y-99698741D01*
X71986376Y-99872812D01*
X71918456Y-100036784D01*
X71819853Y-100184354D01*
X71694354Y-100309853D01*
X71546784Y-100408456D01*
X71382812Y-100476376D01*
X71233512Y-100506073D01*
X71208742Y-100511000D01*
X71031258Y-100511000D01*
X71006488Y-100506073D01*
X70857188Y-100476376D01*
X70693216Y-100408456D01*
X70545646Y-100309853D01*
X70420147Y-100184354D01*
X70321544Y-100036784D01*
X70253624Y-99872812D01*
X70219000Y-99698741D01*
X70219000Y-99521259D01*
X70253624Y-99347188D01*
X70321544Y-99183216D01*
X70420147Y-99035646D01*
X70545646Y-98910147D01*
X70693216Y-98811544D01*
X70857188Y-98743624D01*
X71006488Y-98713927D01*
X71031258Y-98709000D01*
X71208742Y-98709000D01*
X71233512Y-98713927D01*
G37*
G36*
X81393512Y-98713927D02*
G01*
X81542812Y-98743624D01*
X81706784Y-98811544D01*
X81854354Y-98910147D01*
X81979853Y-99035646D01*
X82078456Y-99183216D01*
X82146376Y-99347188D01*
X82181000Y-99521259D01*
X82181000Y-99698741D01*
X82146376Y-99872812D01*
X82078456Y-100036784D01*
X81979853Y-100184354D01*
X81854354Y-100309853D01*
X81706784Y-100408456D01*
X81542812Y-100476376D01*
X81393512Y-100506073D01*
X81368742Y-100511000D01*
X81191258Y-100511000D01*
X81166488Y-100506073D01*
X81017188Y-100476376D01*
X80853216Y-100408456D01*
X80705646Y-100309853D01*
X80580147Y-100184354D01*
X80481544Y-100036784D01*
X80413624Y-99872812D01*
X80379000Y-99698741D01*
X80379000Y-99521259D01*
X80413624Y-99347188D01*
X80481544Y-99183216D01*
X80580147Y-99035646D01*
X80705646Y-98910147D01*
X80853216Y-98811544D01*
X81017188Y-98743624D01*
X81166488Y-98713927D01*
X81191258Y-98709000D01*
X81368742Y-98709000D01*
X81393512Y-98713927D01*
G37*
G36*
X111393512Y-98713927D02*
G01*
X111542812Y-98743624D01*
X111706784Y-98811544D01*
X111854354Y-98910147D01*
X111979853Y-99035646D01*
X112078456Y-99183216D01*
X112146376Y-99347188D01*
X112181000Y-99521259D01*
X112181000Y-99698741D01*
X112146376Y-99872812D01*
X112078456Y-100036784D01*
X111979853Y-100184354D01*
X111854354Y-100309853D01*
X111706784Y-100408456D01*
X111542812Y-100476376D01*
X111393512Y-100506073D01*
X111368742Y-100511000D01*
X111191258Y-100511000D01*
X111166488Y-100506073D01*
X111017188Y-100476376D01*
X110853216Y-100408456D01*
X110705646Y-100309853D01*
X110580147Y-100184354D01*
X110481544Y-100036784D01*
X110413624Y-99872812D01*
X110379000Y-99698741D01*
X110379000Y-99521259D01*
X110413624Y-99347188D01*
X110481544Y-99183216D01*
X110580147Y-99035646D01*
X110705646Y-98910147D01*
X110853216Y-98811544D01*
X111017188Y-98743624D01*
X111166488Y-98713927D01*
X111191258Y-98709000D01*
X111368742Y-98709000D01*
X111393512Y-98713927D01*
G37*
G36*
X136313512Y-98713927D02*
G01*
X136462812Y-98743624D01*
X136626784Y-98811544D01*
X136774354Y-98910147D01*
X136899853Y-99035646D01*
X136998456Y-99183216D01*
X137066376Y-99347188D01*
X137101000Y-99521259D01*
X137101000Y-99698741D01*
X137066376Y-99872812D01*
X136998456Y-100036784D01*
X136899853Y-100184354D01*
X136774354Y-100309853D01*
X136626784Y-100408456D01*
X136462812Y-100476376D01*
X136313512Y-100506073D01*
X136288742Y-100511000D01*
X136111258Y-100511000D01*
X136086488Y-100506073D01*
X135937188Y-100476376D01*
X135773216Y-100408456D01*
X135625646Y-100309853D01*
X135500147Y-100184354D01*
X135401544Y-100036784D01*
X135333624Y-99872812D01*
X135299000Y-99698741D01*
X135299000Y-99521259D01*
X135333624Y-99347188D01*
X135401544Y-99183216D01*
X135500147Y-99035646D01*
X135625646Y-98910147D01*
X135773216Y-98811544D01*
X135937188Y-98743624D01*
X136086488Y-98713927D01*
X136111258Y-98709000D01*
X136288742Y-98709000D01*
X136313512Y-98713927D01*
G37*
G36*
X108853512Y-98713927D02*
G01*
X109002812Y-98743624D01*
X109166784Y-98811544D01*
X109314354Y-98910147D01*
X109439853Y-99035646D01*
X109538456Y-99183216D01*
X109606376Y-99347188D01*
X109641000Y-99521259D01*
X109641000Y-99698741D01*
X109606376Y-99872812D01*
X109538456Y-100036784D01*
X109439853Y-100184354D01*
X109314354Y-100309853D01*
X109166784Y-100408456D01*
X109002812Y-100476376D01*
X108853512Y-100506073D01*
X108828742Y-100511000D01*
X108651258Y-100511000D01*
X108626488Y-100506073D01*
X108477188Y-100476376D01*
X108313216Y-100408456D01*
X108165646Y-100309853D01*
X108040147Y-100184354D01*
X107941544Y-100036784D01*
X107873624Y-99872812D01*
X107839000Y-99698741D01*
X107839000Y-99521259D01*
X107873624Y-99347188D01*
X107941544Y-99183216D01*
X108040147Y-99035646D01*
X108165646Y-98910147D01*
X108313216Y-98811544D01*
X108477188Y-98743624D01*
X108626488Y-98713927D01*
X108651258Y-98709000D01*
X108828742Y-98709000D01*
X108853512Y-98713927D01*
G37*
G36*
X131233512Y-98713927D02*
G01*
X131382812Y-98743624D01*
X131546784Y-98811544D01*
X131694354Y-98910147D01*
X131819853Y-99035646D01*
X131918456Y-99183216D01*
X131986376Y-99347188D01*
X132021000Y-99521259D01*
X132021000Y-99698741D01*
X131986376Y-99872812D01*
X131918456Y-100036784D01*
X131819853Y-100184354D01*
X131694354Y-100309853D01*
X131546784Y-100408456D01*
X131382812Y-100476376D01*
X131233512Y-100506073D01*
X131208742Y-100511000D01*
X131031258Y-100511000D01*
X131006488Y-100506073D01*
X130857188Y-100476376D01*
X130693216Y-100408456D01*
X130545646Y-100309853D01*
X130420147Y-100184354D01*
X130321544Y-100036784D01*
X130253624Y-99872812D01*
X130219000Y-99698741D01*
X130219000Y-99521259D01*
X130253624Y-99347188D01*
X130321544Y-99183216D01*
X130420147Y-99035646D01*
X130545646Y-98910147D01*
X130693216Y-98811544D01*
X130857188Y-98743624D01*
X131006488Y-98713927D01*
X131031258Y-98709000D01*
X131208742Y-98709000D01*
X131233512Y-98713927D01*
G37*
G36*
X106313512Y-98713927D02*
G01*
X106462812Y-98743624D01*
X106626784Y-98811544D01*
X106774354Y-98910147D01*
X106899853Y-99035646D01*
X106998456Y-99183216D01*
X107066376Y-99347188D01*
X107101000Y-99521259D01*
X107101000Y-99698741D01*
X107066376Y-99872812D01*
X106998456Y-100036784D01*
X106899853Y-100184354D01*
X106774354Y-100309853D01*
X106626784Y-100408456D01*
X106462812Y-100476376D01*
X106313512Y-100506073D01*
X106288742Y-100511000D01*
X106111258Y-100511000D01*
X106086488Y-100506073D01*
X105937188Y-100476376D01*
X105773216Y-100408456D01*
X105625646Y-100309853D01*
X105500147Y-100184354D01*
X105401544Y-100036784D01*
X105333624Y-99872812D01*
X105299000Y-99698741D01*
X105299000Y-99521259D01*
X105333624Y-99347188D01*
X105401544Y-99183216D01*
X105500147Y-99035646D01*
X105625646Y-98910147D01*
X105773216Y-98811544D01*
X105937188Y-98743624D01*
X106086488Y-98713927D01*
X106111258Y-98709000D01*
X106288742Y-98709000D01*
X106313512Y-98713927D01*
G37*
G36*
X103773512Y-98713927D02*
G01*
X103922812Y-98743624D01*
X104086784Y-98811544D01*
X104234354Y-98910147D01*
X104359853Y-99035646D01*
X104458456Y-99183216D01*
X104526376Y-99347188D01*
X104561000Y-99521259D01*
X104561000Y-99698741D01*
X104526376Y-99872812D01*
X104458456Y-100036784D01*
X104359853Y-100184354D01*
X104234354Y-100309853D01*
X104086784Y-100408456D01*
X103922812Y-100476376D01*
X103773512Y-100506073D01*
X103748742Y-100511000D01*
X103571258Y-100511000D01*
X103546488Y-100506073D01*
X103397188Y-100476376D01*
X103233216Y-100408456D01*
X103085646Y-100309853D01*
X102960147Y-100184354D01*
X102861544Y-100036784D01*
X102793624Y-99872812D01*
X102759000Y-99698741D01*
X102759000Y-99521259D01*
X102793624Y-99347188D01*
X102861544Y-99183216D01*
X102960147Y-99035646D01*
X103085646Y-98910147D01*
X103233216Y-98811544D01*
X103397188Y-98743624D01*
X103546488Y-98713927D01*
X103571258Y-98709000D01*
X103748742Y-98709000D01*
X103773512Y-98713927D01*
G37*
G36*
X138853512Y-98713927D02*
G01*
X139002812Y-98743624D01*
X139166784Y-98811544D01*
X139314354Y-98910147D01*
X139439853Y-99035646D01*
X139538456Y-99183216D01*
X139606376Y-99347188D01*
X139641000Y-99521259D01*
X139641000Y-99698741D01*
X139606376Y-99872812D01*
X139538456Y-100036784D01*
X139439853Y-100184354D01*
X139314354Y-100309853D01*
X139166784Y-100408456D01*
X139002812Y-100476376D01*
X138853512Y-100506073D01*
X138828742Y-100511000D01*
X138651258Y-100511000D01*
X138626488Y-100506073D01*
X138477188Y-100476376D01*
X138313216Y-100408456D01*
X138165646Y-100309853D01*
X138040147Y-100184354D01*
X137941544Y-100036784D01*
X137873624Y-99872812D01*
X137839000Y-99698741D01*
X137839000Y-99521259D01*
X137873624Y-99347188D01*
X137941544Y-99183216D01*
X138040147Y-99035646D01*
X138165646Y-98910147D01*
X138313216Y-98811544D01*
X138477188Y-98743624D01*
X138626488Y-98713927D01*
X138651258Y-98709000D01*
X138828742Y-98709000D01*
X138853512Y-98713927D01*
G37*
G36*
X101233512Y-98713927D02*
G01*
X101382812Y-98743624D01*
X101546784Y-98811544D01*
X101694354Y-98910147D01*
X101819853Y-99035646D01*
X101918456Y-99183216D01*
X101986376Y-99347188D01*
X102021000Y-99521259D01*
X102021000Y-99698741D01*
X101986376Y-99872812D01*
X101918456Y-100036784D01*
X101819853Y-100184354D01*
X101694354Y-100309853D01*
X101546784Y-100408456D01*
X101382812Y-100476376D01*
X101233512Y-100506073D01*
X101208742Y-100511000D01*
X101031258Y-100511000D01*
X101006488Y-100506073D01*
X100857188Y-100476376D01*
X100693216Y-100408456D01*
X100545646Y-100309853D01*
X100420147Y-100184354D01*
X100321544Y-100036784D01*
X100253624Y-99872812D01*
X100219000Y-99698741D01*
X100219000Y-99521259D01*
X100253624Y-99347188D01*
X100321544Y-99183216D01*
X100420147Y-99035646D01*
X100545646Y-98910147D01*
X100693216Y-98811544D01*
X100857188Y-98743624D01*
X101006488Y-98713927D01*
X101031258Y-98709000D01*
X101208742Y-98709000D01*
X101233512Y-98713927D01*
G37*
G36*
X141393512Y-98713927D02*
G01*
X141542812Y-98743624D01*
X141706784Y-98811544D01*
X141854354Y-98910147D01*
X141979853Y-99035646D01*
X142078456Y-99183216D01*
X142146376Y-99347188D01*
X142181000Y-99521259D01*
X142181000Y-99698741D01*
X142146376Y-99872812D01*
X142078456Y-100036784D01*
X141979853Y-100184354D01*
X141854354Y-100309853D01*
X141706784Y-100408456D01*
X141542812Y-100476376D01*
X141393512Y-100506073D01*
X141368742Y-100511000D01*
X141191258Y-100511000D01*
X141166488Y-100506073D01*
X141017188Y-100476376D01*
X140853216Y-100408456D01*
X140705646Y-100309853D01*
X140580147Y-100184354D01*
X140481544Y-100036784D01*
X140413624Y-99872812D01*
X140379000Y-99698741D01*
X140379000Y-99521259D01*
X140413624Y-99347188D01*
X140481544Y-99183216D01*
X140580147Y-99035646D01*
X140705646Y-98910147D01*
X140853216Y-98811544D01*
X141017188Y-98743624D01*
X141166488Y-98713927D01*
X141191258Y-98709000D01*
X141368742Y-98709000D01*
X141393512Y-98713927D01*
G37*
G36*
X150591000Y-100181000D02*
G01*
X149749000Y-100181000D01*
X149749000Y-97679000D01*
X150591000Y-97679000D01*
X150591000Y-100181000D01*
G37*
G36*
X154401000Y-100181000D02*
G01*
X153559000Y-100181000D01*
X153559000Y-97679000D01*
X154401000Y-97679000D01*
X154401000Y-100181000D01*
G37*
G36*
X153131000Y-100181000D02*
G01*
X152289000Y-100181000D01*
X152289000Y-97679000D01*
X153131000Y-97679000D01*
X153131000Y-100181000D01*
G37*
G36*
X151861000Y-100181000D02*
G01*
X151019000Y-100181000D01*
X151019000Y-97679000D01*
X151861000Y-97679000D01*
X151861000Y-100181000D01*
G37*
G36*
X124401000Y-100181000D02*
G01*
X123559000Y-100181000D01*
X123559000Y-97679000D01*
X124401000Y-97679000D01*
X124401000Y-100181000D01*
G37*
G36*
X123131000Y-100181000D02*
G01*
X122289000Y-100181000D01*
X122289000Y-97679000D01*
X123131000Y-97679000D01*
X123131000Y-100181000D01*
G37*
G36*
X121861000Y-100181000D02*
G01*
X121019000Y-100181000D01*
X121019000Y-97679000D01*
X121861000Y-97679000D01*
X121861000Y-100181000D01*
G37*
G36*
X120591000Y-100181000D02*
G01*
X119749000Y-100181000D01*
X119749000Y-97679000D01*
X120591000Y-97679000D01*
X120591000Y-100181000D01*
G37*
G36*
X119321000Y-100181000D02*
G01*
X118479000Y-100181000D01*
X118479000Y-97679000D01*
X119321000Y-97679000D01*
X119321000Y-100181000D01*
G37*
G36*
X94401000Y-100181000D02*
G01*
X93559000Y-100181000D01*
X93559000Y-97679000D01*
X94401000Y-97679000D01*
X94401000Y-100181000D01*
G37*
G36*
X93131000Y-100181000D02*
G01*
X92289000Y-100181000D01*
X92289000Y-97679000D01*
X93131000Y-97679000D01*
X93131000Y-100181000D01*
G37*
G36*
X91861000Y-100181000D02*
G01*
X91019000Y-100181000D01*
X91019000Y-97679000D01*
X91861000Y-97679000D01*
X91861000Y-100181000D01*
G37*
G36*
X90591000Y-100181000D02*
G01*
X89749000Y-100181000D01*
X89749000Y-97679000D01*
X90591000Y-97679000D01*
X90591000Y-100181000D01*
G37*
G36*
X89321000Y-100181000D02*
G01*
X88479000Y-100181000D01*
X88479000Y-97679000D01*
X89321000Y-97679000D01*
X89321000Y-100181000D01*
G37*
G36*
X149321000Y-100181000D02*
G01*
X148479000Y-100181000D01*
X148479000Y-97679000D01*
X149321000Y-97679000D01*
X149321000Y-100181000D01*
G37*
G36*
X150591000Y-89081000D02*
G01*
X149749000Y-89081000D01*
X149749000Y-86579000D01*
X150591000Y-86579000D01*
X150591000Y-89081000D01*
G37*
G36*
X123131000Y-89081000D02*
G01*
X122289000Y-89081000D01*
X122289000Y-86579000D01*
X123131000Y-86579000D01*
X123131000Y-89081000D01*
G37*
G36*
X121861000Y-89081000D02*
G01*
X121019000Y-89081000D01*
X121019000Y-86579000D01*
X121861000Y-86579000D01*
X121861000Y-89081000D01*
G37*
G36*
X89321000Y-89081000D02*
G01*
X88479000Y-89081000D01*
X88479000Y-86579000D01*
X89321000Y-86579000D01*
X89321000Y-89081000D01*
G37*
G36*
X124401000Y-89081000D02*
G01*
X123559000Y-89081000D01*
X123559000Y-86579000D01*
X124401000Y-86579000D01*
X124401000Y-89081000D01*
G37*
G36*
X120591000Y-89081000D02*
G01*
X119749000Y-89081000D01*
X119749000Y-86579000D01*
X120591000Y-86579000D01*
X120591000Y-89081000D01*
G37*
G36*
X149321000Y-89081000D02*
G01*
X148479000Y-89081000D01*
X148479000Y-86579000D01*
X149321000Y-86579000D01*
X149321000Y-89081000D01*
G37*
G36*
X119321000Y-89081000D02*
G01*
X118479000Y-89081000D01*
X118479000Y-86579000D01*
X119321000Y-86579000D01*
X119321000Y-89081000D01*
G37*
G36*
X151861000Y-89081000D02*
G01*
X151019000Y-89081000D01*
X151019000Y-86579000D01*
X151861000Y-86579000D01*
X151861000Y-89081000D01*
G37*
G36*
X93131000Y-89081000D02*
G01*
X92289000Y-89081000D01*
X92289000Y-86579000D01*
X93131000Y-86579000D01*
X93131000Y-89081000D01*
G37*
G36*
X153131000Y-89081000D02*
G01*
X152289000Y-89081000D01*
X152289000Y-86579000D01*
X153131000Y-86579000D01*
X153131000Y-89081000D01*
G37*
G36*
X91861000Y-89081000D02*
G01*
X91019000Y-89081000D01*
X91019000Y-86579000D01*
X91861000Y-86579000D01*
X91861000Y-89081000D01*
G37*
G36*
X154401000Y-89081000D02*
G01*
X153559000Y-89081000D01*
X153559000Y-86579000D01*
X154401000Y-86579000D01*
X154401000Y-89081000D01*
G37*
G36*
X90591000Y-89081000D02*
G01*
X89749000Y-89081000D01*
X89749000Y-86579000D01*
X90591000Y-86579000D01*
X90591000Y-89081000D01*
G37*
G36*
X94401000Y-89081000D02*
G01*
X93559000Y-89081000D01*
X93559000Y-86579000D01*
X94401000Y-86579000D01*
X94401000Y-89081000D01*
G37*
G36*
X111393512Y-86253927D02*
G01*
X111542812Y-86283624D01*
X111706784Y-86351544D01*
X111854354Y-86450147D01*
X111979853Y-86575646D01*
X112078456Y-86723216D01*
X112146376Y-86887188D01*
X112181000Y-87061259D01*
X112181000Y-87238741D01*
X112146376Y-87412812D01*
X112078456Y-87576784D01*
X111979853Y-87724354D01*
X111854354Y-87849853D01*
X111706784Y-87948456D01*
X111542812Y-88016376D01*
X111393512Y-88046073D01*
X111368742Y-88051000D01*
X111191258Y-88051000D01*
X111166488Y-88046073D01*
X111017188Y-88016376D01*
X110853216Y-87948456D01*
X110705646Y-87849853D01*
X110580147Y-87724354D01*
X110481544Y-87576784D01*
X110413624Y-87412812D01*
X110379000Y-87238741D01*
X110379000Y-87061259D01*
X110413624Y-86887188D01*
X110481544Y-86723216D01*
X110580147Y-86575646D01*
X110705646Y-86450147D01*
X110853216Y-86351544D01*
X111017188Y-86283624D01*
X111166488Y-86253927D01*
X111191258Y-86249000D01*
X111368742Y-86249000D01*
X111393512Y-86253927D01*
G37*
G36*
X141393512Y-86253927D02*
G01*
X141542812Y-86283624D01*
X141706784Y-86351544D01*
X141854354Y-86450147D01*
X141979853Y-86575646D01*
X142078456Y-86723216D01*
X142146376Y-86887188D01*
X142181000Y-87061259D01*
X142181000Y-87238741D01*
X142146376Y-87412812D01*
X142078456Y-87576784D01*
X141979853Y-87724354D01*
X141854354Y-87849853D01*
X141706784Y-87948456D01*
X141542812Y-88016376D01*
X141393512Y-88046073D01*
X141368742Y-88051000D01*
X141191258Y-88051000D01*
X141166488Y-88046073D01*
X141017188Y-88016376D01*
X140853216Y-87948456D01*
X140705646Y-87849853D01*
X140580147Y-87724354D01*
X140481544Y-87576784D01*
X140413624Y-87412812D01*
X140379000Y-87238741D01*
X140379000Y-87061259D01*
X140413624Y-86887188D01*
X140481544Y-86723216D01*
X140580147Y-86575646D01*
X140705646Y-86450147D01*
X140853216Y-86351544D01*
X141017188Y-86283624D01*
X141166488Y-86253927D01*
X141191258Y-86249000D01*
X141368742Y-86249000D01*
X141393512Y-86253927D01*
G37*
G36*
X132021000Y-88051000D02*
G01*
X130219000Y-88051000D01*
X130219000Y-86249000D01*
X132021000Y-86249000D01*
X132021000Y-88051000D01*
G37*
G36*
X138853512Y-86253927D02*
G01*
X139002812Y-86283624D01*
X139166784Y-86351544D01*
X139314354Y-86450147D01*
X139439853Y-86575646D01*
X139538456Y-86723216D01*
X139606376Y-86887188D01*
X139641000Y-87061259D01*
X139641000Y-87238741D01*
X139606376Y-87412812D01*
X139538456Y-87576784D01*
X139439853Y-87724354D01*
X139314354Y-87849853D01*
X139166784Y-87948456D01*
X139002812Y-88016376D01*
X138853512Y-88046073D01*
X138828742Y-88051000D01*
X138651258Y-88051000D01*
X138626488Y-88046073D01*
X138477188Y-88016376D01*
X138313216Y-87948456D01*
X138165646Y-87849853D01*
X138040147Y-87724354D01*
X137941544Y-87576784D01*
X137873624Y-87412812D01*
X137839000Y-87238741D01*
X137839000Y-87061259D01*
X137873624Y-86887188D01*
X137941544Y-86723216D01*
X138040147Y-86575646D01*
X138165646Y-86450147D01*
X138313216Y-86351544D01*
X138477188Y-86283624D01*
X138626488Y-86253927D01*
X138651258Y-86249000D01*
X138828742Y-86249000D01*
X138853512Y-86253927D01*
G37*
G36*
X81393512Y-86253927D02*
G01*
X81542812Y-86283624D01*
X81706784Y-86351544D01*
X81854354Y-86450147D01*
X81979853Y-86575646D01*
X82078456Y-86723216D01*
X82146376Y-86887188D01*
X82181000Y-87061259D01*
X82181000Y-87238741D01*
X82146376Y-87412812D01*
X82078456Y-87576784D01*
X81979853Y-87724354D01*
X81854354Y-87849853D01*
X81706784Y-87948456D01*
X81542812Y-88016376D01*
X81393512Y-88046073D01*
X81368742Y-88051000D01*
X81191258Y-88051000D01*
X81166488Y-88046073D01*
X81017188Y-88016376D01*
X80853216Y-87948456D01*
X80705646Y-87849853D01*
X80580147Y-87724354D01*
X80481544Y-87576784D01*
X80413624Y-87412812D01*
X80379000Y-87238741D01*
X80379000Y-87061259D01*
X80413624Y-86887188D01*
X80481544Y-86723216D01*
X80580147Y-86575646D01*
X80705646Y-86450147D01*
X80853216Y-86351544D01*
X81017188Y-86283624D01*
X81166488Y-86253927D01*
X81191258Y-86249000D01*
X81368742Y-86249000D01*
X81393512Y-86253927D01*
G37*
G36*
X136313512Y-86253927D02*
G01*
X136462812Y-86283624D01*
X136626784Y-86351544D01*
X136774354Y-86450147D01*
X136899853Y-86575646D01*
X136998456Y-86723216D01*
X137066376Y-86887188D01*
X137101000Y-87061259D01*
X137101000Y-87238741D01*
X137066376Y-87412812D01*
X136998456Y-87576784D01*
X136899853Y-87724354D01*
X136774354Y-87849853D01*
X136626784Y-87948456D01*
X136462812Y-88016376D01*
X136313512Y-88046073D01*
X136288742Y-88051000D01*
X136111258Y-88051000D01*
X136086488Y-88046073D01*
X135937188Y-88016376D01*
X135773216Y-87948456D01*
X135625646Y-87849853D01*
X135500147Y-87724354D01*
X135401544Y-87576784D01*
X135333624Y-87412812D01*
X135299000Y-87238741D01*
X135299000Y-87061259D01*
X135333624Y-86887188D01*
X135401544Y-86723216D01*
X135500147Y-86575646D01*
X135625646Y-86450147D01*
X135773216Y-86351544D01*
X135937188Y-86283624D01*
X136086488Y-86253927D01*
X136111258Y-86249000D01*
X136288742Y-86249000D01*
X136313512Y-86253927D01*
G37*
G36*
X108853512Y-86253927D02*
G01*
X109002812Y-86283624D01*
X109166784Y-86351544D01*
X109314354Y-86450147D01*
X109439853Y-86575646D01*
X109538456Y-86723216D01*
X109606376Y-86887188D01*
X109641000Y-87061259D01*
X109641000Y-87238741D01*
X109606376Y-87412812D01*
X109538456Y-87576784D01*
X109439853Y-87724354D01*
X109314354Y-87849853D01*
X109166784Y-87948456D01*
X109002812Y-88016376D01*
X108853512Y-88046073D01*
X108828742Y-88051000D01*
X108651258Y-88051000D01*
X108626488Y-88046073D01*
X108477188Y-88016376D01*
X108313216Y-87948456D01*
X108165646Y-87849853D01*
X108040147Y-87724354D01*
X107941544Y-87576784D01*
X107873624Y-87412812D01*
X107839000Y-87238741D01*
X107839000Y-87061259D01*
X107873624Y-86887188D01*
X107941544Y-86723216D01*
X108040147Y-86575646D01*
X108165646Y-86450147D01*
X108313216Y-86351544D01*
X108477188Y-86283624D01*
X108626488Y-86253927D01*
X108651258Y-86249000D01*
X108828742Y-86249000D01*
X108853512Y-86253927D01*
G37*
G36*
X72021000Y-88051000D02*
G01*
X70219000Y-88051000D01*
X70219000Y-86249000D01*
X72021000Y-86249000D01*
X72021000Y-88051000D01*
G37*
G36*
X133773512Y-86253927D02*
G01*
X133922812Y-86283624D01*
X134086784Y-86351544D01*
X134234354Y-86450147D01*
X134359853Y-86575646D01*
X134458456Y-86723216D01*
X134526376Y-86887188D01*
X134561000Y-87061259D01*
X134561000Y-87238741D01*
X134526376Y-87412812D01*
X134458456Y-87576784D01*
X134359853Y-87724354D01*
X134234354Y-87849853D01*
X134086784Y-87948456D01*
X133922812Y-88016376D01*
X133773512Y-88046073D01*
X133748742Y-88051000D01*
X133571258Y-88051000D01*
X133546488Y-88046073D01*
X133397188Y-88016376D01*
X133233216Y-87948456D01*
X133085646Y-87849853D01*
X132960147Y-87724354D01*
X132861544Y-87576784D01*
X132793624Y-87412812D01*
X132759000Y-87238741D01*
X132759000Y-87061259D01*
X132793624Y-86887188D01*
X132861544Y-86723216D01*
X132960147Y-86575646D01*
X133085646Y-86450147D01*
X133233216Y-86351544D01*
X133397188Y-86283624D01*
X133546488Y-86253927D01*
X133571258Y-86249000D01*
X133748742Y-86249000D01*
X133773512Y-86253927D01*
G37*
G36*
X73773512Y-86253927D02*
G01*
X73922812Y-86283624D01*
X74086784Y-86351544D01*
X74234354Y-86450147D01*
X74359853Y-86575646D01*
X74458456Y-86723216D01*
X74526376Y-86887188D01*
X74561000Y-87061259D01*
X74561000Y-87238741D01*
X74526376Y-87412812D01*
X74458456Y-87576784D01*
X74359853Y-87724354D01*
X74234354Y-87849853D01*
X74086784Y-87948456D01*
X73922812Y-88016376D01*
X73773512Y-88046073D01*
X73748742Y-88051000D01*
X73571258Y-88051000D01*
X73546488Y-88046073D01*
X73397188Y-88016376D01*
X73233216Y-87948456D01*
X73085646Y-87849853D01*
X72960147Y-87724354D01*
X72861544Y-87576784D01*
X72793624Y-87412812D01*
X72759000Y-87238741D01*
X72759000Y-87061259D01*
X72793624Y-86887188D01*
X72861544Y-86723216D01*
X72960147Y-86575646D01*
X73085646Y-86450147D01*
X73233216Y-86351544D01*
X73397188Y-86283624D01*
X73546488Y-86253927D01*
X73571258Y-86249000D01*
X73748742Y-86249000D01*
X73773512Y-86253927D01*
G37*
G36*
X78853512Y-86253927D02*
G01*
X79002812Y-86283624D01*
X79166784Y-86351544D01*
X79314354Y-86450147D01*
X79439853Y-86575646D01*
X79538456Y-86723216D01*
X79606376Y-86887188D01*
X79641000Y-87061259D01*
X79641000Y-87238741D01*
X79606376Y-87412812D01*
X79538456Y-87576784D01*
X79439853Y-87724354D01*
X79314354Y-87849853D01*
X79166784Y-87948456D01*
X79002812Y-88016376D01*
X78853512Y-88046073D01*
X78828742Y-88051000D01*
X78651258Y-88051000D01*
X78626488Y-88046073D01*
X78477188Y-88016376D01*
X78313216Y-87948456D01*
X78165646Y-87849853D01*
X78040147Y-87724354D01*
X77941544Y-87576784D01*
X77873624Y-87412812D01*
X77839000Y-87238741D01*
X77839000Y-87061259D01*
X77873624Y-86887188D01*
X77941544Y-86723216D01*
X78040147Y-86575646D01*
X78165646Y-86450147D01*
X78313216Y-86351544D01*
X78477188Y-86283624D01*
X78626488Y-86253927D01*
X78651258Y-86249000D01*
X78828742Y-86249000D01*
X78853512Y-86253927D01*
G37*
G36*
X102021000Y-88051000D02*
G01*
X100219000Y-88051000D01*
X100219000Y-86249000D01*
X102021000Y-86249000D01*
X102021000Y-88051000D01*
G37*
G36*
X106313512Y-86253927D02*
G01*
X106462812Y-86283624D01*
X106626784Y-86351544D01*
X106774354Y-86450147D01*
X106899853Y-86575646D01*
X106998456Y-86723216D01*
X107066376Y-86887188D01*
X107101000Y-87061259D01*
X107101000Y-87238741D01*
X107066376Y-87412812D01*
X106998456Y-87576784D01*
X106899853Y-87724354D01*
X106774354Y-87849853D01*
X106626784Y-87948456D01*
X106462812Y-88016376D01*
X106313512Y-88046073D01*
X106288742Y-88051000D01*
X106111258Y-88051000D01*
X106086488Y-88046073D01*
X105937188Y-88016376D01*
X105773216Y-87948456D01*
X105625646Y-87849853D01*
X105500147Y-87724354D01*
X105401544Y-87576784D01*
X105333624Y-87412812D01*
X105299000Y-87238741D01*
X105299000Y-87061259D01*
X105333624Y-86887188D01*
X105401544Y-86723216D01*
X105500147Y-86575646D01*
X105625646Y-86450147D01*
X105773216Y-86351544D01*
X105937188Y-86283624D01*
X106086488Y-86253927D01*
X106111258Y-86249000D01*
X106288742Y-86249000D01*
X106313512Y-86253927D01*
G37*
G36*
X76313512Y-86253927D02*
G01*
X76462812Y-86283624D01*
X76626784Y-86351544D01*
X76774354Y-86450147D01*
X76899853Y-86575646D01*
X76998456Y-86723216D01*
X77066376Y-86887188D01*
X77101000Y-87061259D01*
X77101000Y-87238741D01*
X77066376Y-87412812D01*
X76998456Y-87576784D01*
X76899853Y-87724354D01*
X76774354Y-87849853D01*
X76626784Y-87948456D01*
X76462812Y-88016376D01*
X76313512Y-88046073D01*
X76288742Y-88051000D01*
X76111258Y-88051000D01*
X76086488Y-88046073D01*
X75937188Y-88016376D01*
X75773216Y-87948456D01*
X75625646Y-87849853D01*
X75500147Y-87724354D01*
X75401544Y-87576784D01*
X75333624Y-87412812D01*
X75299000Y-87238741D01*
X75299000Y-87061259D01*
X75333624Y-86887188D01*
X75401544Y-86723216D01*
X75500147Y-86575646D01*
X75625646Y-86450147D01*
X75773216Y-86351544D01*
X75937188Y-86283624D01*
X76086488Y-86253927D01*
X76111258Y-86249000D01*
X76288742Y-86249000D01*
X76313512Y-86253927D01*
G37*
G36*
X103773512Y-86253927D02*
G01*
X103922812Y-86283624D01*
X104086784Y-86351544D01*
X104234354Y-86450147D01*
X104359853Y-86575646D01*
X104458456Y-86723216D01*
X104526376Y-86887188D01*
X104561000Y-87061259D01*
X104561000Y-87238741D01*
X104526376Y-87412812D01*
X104458456Y-87576784D01*
X104359853Y-87724354D01*
X104234354Y-87849853D01*
X104086784Y-87948456D01*
X103922812Y-88016376D01*
X103773512Y-88046073D01*
X103748742Y-88051000D01*
X103571258Y-88051000D01*
X103546488Y-88046073D01*
X103397188Y-88016376D01*
X103233216Y-87948456D01*
X103085646Y-87849853D01*
X102960147Y-87724354D01*
X102861544Y-87576784D01*
X102793624Y-87412812D01*
X102759000Y-87238741D01*
X102759000Y-87061259D01*
X102793624Y-86887188D01*
X102861544Y-86723216D01*
X102960147Y-86575646D01*
X103085646Y-86450147D01*
X103233216Y-86351544D01*
X103397188Y-86283624D01*
X103546488Y-86253927D01*
X103571258Y-86249000D01*
X103748742Y-86249000D01*
X103773512Y-86253927D01*
G37*
G36*
X106313512Y-83713927D02*
G01*
X106462812Y-83743624D01*
X106626784Y-83811544D01*
X106774354Y-83910147D01*
X106899853Y-84035646D01*
X106998456Y-84183216D01*
X107066376Y-84347188D01*
X107101000Y-84521259D01*
X107101000Y-84698741D01*
X107066376Y-84872812D01*
X106998456Y-85036784D01*
X106899853Y-85184354D01*
X106774354Y-85309853D01*
X106626784Y-85408456D01*
X106462812Y-85476376D01*
X106313512Y-85506073D01*
X106288742Y-85511000D01*
X106111258Y-85511000D01*
X106086488Y-85506073D01*
X105937188Y-85476376D01*
X105773216Y-85408456D01*
X105625646Y-85309853D01*
X105500147Y-85184354D01*
X105401544Y-85036784D01*
X105333624Y-84872812D01*
X105299000Y-84698741D01*
X105299000Y-84521259D01*
X105333624Y-84347188D01*
X105401544Y-84183216D01*
X105500147Y-84035646D01*
X105625646Y-83910147D01*
X105773216Y-83811544D01*
X105937188Y-83743624D01*
X106086488Y-83713927D01*
X106111258Y-83709000D01*
X106288742Y-83709000D01*
X106313512Y-83713927D01*
G37*
G36*
X108853512Y-83713927D02*
G01*
X109002812Y-83743624D01*
X109166784Y-83811544D01*
X109314354Y-83910147D01*
X109439853Y-84035646D01*
X109538456Y-84183216D01*
X109606376Y-84347188D01*
X109641000Y-84521259D01*
X109641000Y-84698741D01*
X109606376Y-84872812D01*
X109538456Y-85036784D01*
X109439853Y-85184354D01*
X109314354Y-85309853D01*
X109166784Y-85408456D01*
X109002812Y-85476376D01*
X108853512Y-85506073D01*
X108828742Y-85511000D01*
X108651258Y-85511000D01*
X108626488Y-85506073D01*
X108477188Y-85476376D01*
X108313216Y-85408456D01*
X108165646Y-85309853D01*
X108040147Y-85184354D01*
X107941544Y-85036784D01*
X107873624Y-84872812D01*
X107839000Y-84698741D01*
X107839000Y-84521259D01*
X107873624Y-84347188D01*
X107941544Y-84183216D01*
X108040147Y-84035646D01*
X108165646Y-83910147D01*
X108313216Y-83811544D01*
X108477188Y-83743624D01*
X108626488Y-83713927D01*
X108651258Y-83709000D01*
X108828742Y-83709000D01*
X108853512Y-83713927D01*
G37*
G36*
X111393512Y-83713927D02*
G01*
X111542812Y-83743624D01*
X111706784Y-83811544D01*
X111854354Y-83910147D01*
X111979853Y-84035646D01*
X112078456Y-84183216D01*
X112146376Y-84347188D01*
X112181000Y-84521259D01*
X112181000Y-84698741D01*
X112146376Y-84872812D01*
X112078456Y-85036784D01*
X111979853Y-85184354D01*
X111854354Y-85309853D01*
X111706784Y-85408456D01*
X111542812Y-85476376D01*
X111393512Y-85506073D01*
X111368742Y-85511000D01*
X111191258Y-85511000D01*
X111166488Y-85506073D01*
X111017188Y-85476376D01*
X110853216Y-85408456D01*
X110705646Y-85309853D01*
X110580147Y-85184354D01*
X110481544Y-85036784D01*
X110413624Y-84872812D01*
X110379000Y-84698741D01*
X110379000Y-84521259D01*
X110413624Y-84347188D01*
X110481544Y-84183216D01*
X110580147Y-84035646D01*
X110705646Y-83910147D01*
X110853216Y-83811544D01*
X111017188Y-83743624D01*
X111166488Y-83713927D01*
X111191258Y-83709000D01*
X111368742Y-83709000D01*
X111393512Y-83713927D01*
G37*
G36*
X71233512Y-83713927D02*
G01*
X71382812Y-83743624D01*
X71546784Y-83811544D01*
X71694354Y-83910147D01*
X71819853Y-84035646D01*
X71918456Y-84183216D01*
X71986376Y-84347188D01*
X72021000Y-84521259D01*
X72021000Y-84698741D01*
X71986376Y-84872812D01*
X71918456Y-85036784D01*
X71819853Y-85184354D01*
X71694354Y-85309853D01*
X71546784Y-85408456D01*
X71382812Y-85476376D01*
X71233512Y-85506073D01*
X71208742Y-85511000D01*
X71031258Y-85511000D01*
X71006488Y-85506073D01*
X70857188Y-85476376D01*
X70693216Y-85408456D01*
X70545646Y-85309853D01*
X70420147Y-85184354D01*
X70321544Y-85036784D01*
X70253624Y-84872812D01*
X70219000Y-84698741D01*
X70219000Y-84521259D01*
X70253624Y-84347188D01*
X70321544Y-84183216D01*
X70420147Y-84035646D01*
X70545646Y-83910147D01*
X70693216Y-83811544D01*
X70857188Y-83743624D01*
X71006488Y-83713927D01*
X71031258Y-83709000D01*
X71208742Y-83709000D01*
X71233512Y-83713927D01*
G37*
G36*
X73773512Y-83713927D02*
G01*
X73922812Y-83743624D01*
X74086784Y-83811544D01*
X74234354Y-83910147D01*
X74359853Y-84035646D01*
X74458456Y-84183216D01*
X74526376Y-84347188D01*
X74561000Y-84521259D01*
X74561000Y-84698741D01*
X74526376Y-84872812D01*
X74458456Y-85036784D01*
X74359853Y-85184354D01*
X74234354Y-85309853D01*
X74086784Y-85408456D01*
X73922812Y-85476376D01*
X73773512Y-85506073D01*
X73748742Y-85511000D01*
X73571258Y-85511000D01*
X73546488Y-85506073D01*
X73397188Y-85476376D01*
X73233216Y-85408456D01*
X73085646Y-85309853D01*
X72960147Y-85184354D01*
X72861544Y-85036784D01*
X72793624Y-84872812D01*
X72759000Y-84698741D01*
X72759000Y-84521259D01*
X72793624Y-84347188D01*
X72861544Y-84183216D01*
X72960147Y-84035646D01*
X73085646Y-83910147D01*
X73233216Y-83811544D01*
X73397188Y-83743624D01*
X73546488Y-83713927D01*
X73571258Y-83709000D01*
X73748742Y-83709000D01*
X73773512Y-83713927D01*
G37*
G36*
X76313512Y-83713927D02*
G01*
X76462812Y-83743624D01*
X76626784Y-83811544D01*
X76774354Y-83910147D01*
X76899853Y-84035646D01*
X76998456Y-84183216D01*
X77066376Y-84347188D01*
X77101000Y-84521259D01*
X77101000Y-84698741D01*
X77066376Y-84872812D01*
X76998456Y-85036784D01*
X76899853Y-85184354D01*
X76774354Y-85309853D01*
X76626784Y-85408456D01*
X76462812Y-85476376D01*
X76313512Y-85506073D01*
X76288742Y-85511000D01*
X76111258Y-85511000D01*
X76086488Y-85506073D01*
X75937188Y-85476376D01*
X75773216Y-85408456D01*
X75625646Y-85309853D01*
X75500147Y-85184354D01*
X75401544Y-85036784D01*
X75333624Y-84872812D01*
X75299000Y-84698741D01*
X75299000Y-84521259D01*
X75333624Y-84347188D01*
X75401544Y-84183216D01*
X75500147Y-84035646D01*
X75625646Y-83910147D01*
X75773216Y-83811544D01*
X75937188Y-83743624D01*
X76086488Y-83713927D01*
X76111258Y-83709000D01*
X76288742Y-83709000D01*
X76313512Y-83713927D01*
G37*
G36*
X78853512Y-83713927D02*
G01*
X79002812Y-83743624D01*
X79166784Y-83811544D01*
X79314354Y-83910147D01*
X79439853Y-84035646D01*
X79538456Y-84183216D01*
X79606376Y-84347188D01*
X79641000Y-84521259D01*
X79641000Y-84698741D01*
X79606376Y-84872812D01*
X79538456Y-85036784D01*
X79439853Y-85184354D01*
X79314354Y-85309853D01*
X79166784Y-85408456D01*
X79002812Y-85476376D01*
X78853512Y-85506073D01*
X78828742Y-85511000D01*
X78651258Y-85511000D01*
X78626488Y-85506073D01*
X78477188Y-85476376D01*
X78313216Y-85408456D01*
X78165646Y-85309853D01*
X78040147Y-85184354D01*
X77941544Y-85036784D01*
X77873624Y-84872812D01*
X77839000Y-84698741D01*
X77839000Y-84521259D01*
X77873624Y-84347188D01*
X77941544Y-84183216D01*
X78040147Y-84035646D01*
X78165646Y-83910147D01*
X78313216Y-83811544D01*
X78477188Y-83743624D01*
X78626488Y-83713927D01*
X78651258Y-83709000D01*
X78828742Y-83709000D01*
X78853512Y-83713927D01*
G37*
G36*
X81393512Y-83713927D02*
G01*
X81542812Y-83743624D01*
X81706784Y-83811544D01*
X81854354Y-83910147D01*
X81979853Y-84035646D01*
X82078456Y-84183216D01*
X82146376Y-84347188D01*
X82181000Y-84521259D01*
X82181000Y-84698741D01*
X82146376Y-84872812D01*
X82078456Y-85036784D01*
X81979853Y-85184354D01*
X81854354Y-85309853D01*
X81706784Y-85408456D01*
X81542812Y-85476376D01*
X81393512Y-85506073D01*
X81368742Y-85511000D01*
X81191258Y-85511000D01*
X81166488Y-85506073D01*
X81017188Y-85476376D01*
X80853216Y-85408456D01*
X80705646Y-85309853D01*
X80580147Y-85184354D01*
X80481544Y-85036784D01*
X80413624Y-84872812D01*
X80379000Y-84698741D01*
X80379000Y-84521259D01*
X80413624Y-84347188D01*
X80481544Y-84183216D01*
X80580147Y-84035646D01*
X80705646Y-83910147D01*
X80853216Y-83811544D01*
X81017188Y-83743624D01*
X81166488Y-83713927D01*
X81191258Y-83709000D01*
X81368742Y-83709000D01*
X81393512Y-83713927D01*
G37*
G36*
X141393512Y-83713927D02*
G01*
X141542812Y-83743624D01*
X141706784Y-83811544D01*
X141854354Y-83910147D01*
X141979853Y-84035646D01*
X142078456Y-84183216D01*
X142146376Y-84347188D01*
X142181000Y-84521259D01*
X142181000Y-84698741D01*
X142146376Y-84872812D01*
X142078456Y-85036784D01*
X141979853Y-85184354D01*
X141854354Y-85309853D01*
X141706784Y-85408456D01*
X141542812Y-85476376D01*
X141393512Y-85506073D01*
X141368742Y-85511000D01*
X141191258Y-85511000D01*
X141166488Y-85506073D01*
X141017188Y-85476376D01*
X140853216Y-85408456D01*
X140705646Y-85309853D01*
X140580147Y-85184354D01*
X140481544Y-85036784D01*
X140413624Y-84872812D01*
X140379000Y-84698741D01*
X140379000Y-84521259D01*
X140413624Y-84347188D01*
X140481544Y-84183216D01*
X140580147Y-84035646D01*
X140705646Y-83910147D01*
X140853216Y-83811544D01*
X141017188Y-83743624D01*
X141166488Y-83713927D01*
X141191258Y-83709000D01*
X141368742Y-83709000D01*
X141393512Y-83713927D01*
G37*
G36*
X138853512Y-83713927D02*
G01*
X139002812Y-83743624D01*
X139166784Y-83811544D01*
X139314354Y-83910147D01*
X139439853Y-84035646D01*
X139538456Y-84183216D01*
X139606376Y-84347188D01*
X139641000Y-84521259D01*
X139641000Y-84698741D01*
X139606376Y-84872812D01*
X139538456Y-85036784D01*
X139439853Y-85184354D01*
X139314354Y-85309853D01*
X139166784Y-85408456D01*
X139002812Y-85476376D01*
X138853512Y-85506073D01*
X138828742Y-85511000D01*
X138651258Y-85511000D01*
X138626488Y-85506073D01*
X138477188Y-85476376D01*
X138313216Y-85408456D01*
X138165646Y-85309853D01*
X138040147Y-85184354D01*
X137941544Y-85036784D01*
X137873624Y-84872812D01*
X137839000Y-84698741D01*
X137839000Y-84521259D01*
X137873624Y-84347188D01*
X137941544Y-84183216D01*
X138040147Y-84035646D01*
X138165646Y-83910147D01*
X138313216Y-83811544D01*
X138477188Y-83743624D01*
X138626488Y-83713927D01*
X138651258Y-83709000D01*
X138828742Y-83709000D01*
X138853512Y-83713927D01*
G37*
G36*
X136313512Y-83713927D02*
G01*
X136462812Y-83743624D01*
X136626784Y-83811544D01*
X136774354Y-83910147D01*
X136899853Y-84035646D01*
X136998456Y-84183216D01*
X137066376Y-84347188D01*
X137101000Y-84521259D01*
X137101000Y-84698741D01*
X137066376Y-84872812D01*
X136998456Y-85036784D01*
X136899853Y-85184354D01*
X136774354Y-85309853D01*
X136626784Y-85408456D01*
X136462812Y-85476376D01*
X136313512Y-85506073D01*
X136288742Y-85511000D01*
X136111258Y-85511000D01*
X136086488Y-85506073D01*
X135937188Y-85476376D01*
X135773216Y-85408456D01*
X135625646Y-85309853D01*
X135500147Y-85184354D01*
X135401544Y-85036784D01*
X135333624Y-84872812D01*
X135299000Y-84698741D01*
X135299000Y-84521259D01*
X135333624Y-84347188D01*
X135401544Y-84183216D01*
X135500147Y-84035646D01*
X135625646Y-83910147D01*
X135773216Y-83811544D01*
X135937188Y-83743624D01*
X136086488Y-83713927D01*
X136111258Y-83709000D01*
X136288742Y-83709000D01*
X136313512Y-83713927D01*
G37*
G36*
X133773512Y-83713927D02*
G01*
X133922812Y-83743624D01*
X134086784Y-83811544D01*
X134234354Y-83910147D01*
X134359853Y-84035646D01*
X134458456Y-84183216D01*
X134526376Y-84347188D01*
X134561000Y-84521259D01*
X134561000Y-84698741D01*
X134526376Y-84872812D01*
X134458456Y-85036784D01*
X134359853Y-85184354D01*
X134234354Y-85309853D01*
X134086784Y-85408456D01*
X133922812Y-85476376D01*
X133773512Y-85506073D01*
X133748742Y-85511000D01*
X133571258Y-85511000D01*
X133546488Y-85506073D01*
X133397188Y-85476376D01*
X133233216Y-85408456D01*
X133085646Y-85309853D01*
X132960147Y-85184354D01*
X132861544Y-85036784D01*
X132793624Y-84872812D01*
X132759000Y-84698741D01*
X132759000Y-84521259D01*
X132793624Y-84347188D01*
X132861544Y-84183216D01*
X132960147Y-84035646D01*
X133085646Y-83910147D01*
X133233216Y-83811544D01*
X133397188Y-83743624D01*
X133546488Y-83713927D01*
X133571258Y-83709000D01*
X133748742Y-83709000D01*
X133773512Y-83713927D01*
G37*
G36*
X101233512Y-83713927D02*
G01*
X101382812Y-83743624D01*
X101546784Y-83811544D01*
X101694354Y-83910147D01*
X101819853Y-84035646D01*
X101918456Y-84183216D01*
X101986376Y-84347188D01*
X102021000Y-84521259D01*
X102021000Y-84698741D01*
X101986376Y-84872812D01*
X101918456Y-85036784D01*
X101819853Y-85184354D01*
X101694354Y-85309853D01*
X101546784Y-85408456D01*
X101382812Y-85476376D01*
X101233512Y-85506073D01*
X101208742Y-85511000D01*
X101031258Y-85511000D01*
X101006488Y-85506073D01*
X100857188Y-85476376D01*
X100693216Y-85408456D01*
X100545646Y-85309853D01*
X100420147Y-85184354D01*
X100321544Y-85036784D01*
X100253624Y-84872812D01*
X100219000Y-84698741D01*
X100219000Y-84521259D01*
X100253624Y-84347188D01*
X100321544Y-84183216D01*
X100420147Y-84035646D01*
X100545646Y-83910147D01*
X100693216Y-83811544D01*
X100857188Y-83743624D01*
X101006488Y-83713927D01*
X101031258Y-83709000D01*
X101208742Y-83709000D01*
X101233512Y-83713927D01*
G37*
G36*
X131233512Y-83713927D02*
G01*
X131382812Y-83743624D01*
X131546784Y-83811544D01*
X131694354Y-83910147D01*
X131819853Y-84035646D01*
X131918456Y-84183216D01*
X131986376Y-84347188D01*
X132021000Y-84521259D01*
X132021000Y-84698741D01*
X131986376Y-84872812D01*
X131918456Y-85036784D01*
X131819853Y-85184354D01*
X131694354Y-85309853D01*
X131546784Y-85408456D01*
X131382812Y-85476376D01*
X131233512Y-85506073D01*
X131208742Y-85511000D01*
X131031258Y-85511000D01*
X131006488Y-85506073D01*
X130857188Y-85476376D01*
X130693216Y-85408456D01*
X130545646Y-85309853D01*
X130420147Y-85184354D01*
X130321544Y-85036784D01*
X130253624Y-84872812D01*
X130219000Y-84698741D01*
X130219000Y-84521259D01*
X130253624Y-84347188D01*
X130321544Y-84183216D01*
X130420147Y-84035646D01*
X130545646Y-83910147D01*
X130693216Y-83811544D01*
X130857188Y-83743624D01*
X131006488Y-83713927D01*
X131031258Y-83709000D01*
X131208742Y-83709000D01*
X131233512Y-83713927D01*
G37*
G36*
X103773512Y-83713927D02*
G01*
X103922812Y-83743624D01*
X104086784Y-83811544D01*
X104234354Y-83910147D01*
X104359853Y-84035646D01*
X104458456Y-84183216D01*
X104526376Y-84347188D01*
X104561000Y-84521259D01*
X104561000Y-84698741D01*
X104526376Y-84872812D01*
X104458456Y-85036784D01*
X104359853Y-85184354D01*
X104234354Y-85309853D01*
X104086784Y-85408456D01*
X103922812Y-85476376D01*
X103773512Y-85506073D01*
X103748742Y-85511000D01*
X103571258Y-85511000D01*
X103546488Y-85506073D01*
X103397188Y-85476376D01*
X103233216Y-85408456D01*
X103085646Y-85309853D01*
X102960147Y-85184354D01*
X102861544Y-85036784D01*
X102793624Y-84872812D01*
X102759000Y-84698741D01*
X102759000Y-84521259D01*
X102793624Y-84347188D01*
X102861544Y-84183216D01*
X102960147Y-84035646D01*
X103085646Y-83910147D01*
X103233216Y-83811544D01*
X103397188Y-83743624D01*
X103546488Y-83713927D01*
X103571258Y-83709000D01*
X103748742Y-83709000D01*
X103773512Y-83713927D01*
G37*
G36*
X121861000Y-85181000D02*
G01*
X121019000Y-85181000D01*
X121019000Y-82679000D01*
X121861000Y-82679000D01*
X121861000Y-85181000D01*
G37*
G36*
X149321000Y-85181000D02*
G01*
X148479000Y-85181000D01*
X148479000Y-82679000D01*
X149321000Y-82679000D01*
X149321000Y-85181000D01*
G37*
G36*
X151861000Y-85181000D02*
G01*
X151019000Y-85181000D01*
X151019000Y-82679000D01*
X151861000Y-82679000D01*
X151861000Y-85181000D01*
G37*
G36*
X153131000Y-85181000D02*
G01*
X152289000Y-85181000D01*
X152289000Y-82679000D01*
X153131000Y-82679000D01*
X153131000Y-85181000D01*
G37*
G36*
X154401000Y-85181000D02*
G01*
X153559000Y-85181000D01*
X153559000Y-82679000D01*
X154401000Y-82679000D01*
X154401000Y-85181000D01*
G37*
G36*
X119321000Y-85181000D02*
G01*
X118479000Y-85181000D01*
X118479000Y-82679000D01*
X119321000Y-82679000D01*
X119321000Y-85181000D01*
G37*
G36*
X120591000Y-85181000D02*
G01*
X119749000Y-85181000D01*
X119749000Y-82679000D01*
X120591000Y-82679000D01*
X120591000Y-85181000D01*
G37*
G36*
X123131000Y-85181000D02*
G01*
X122289000Y-85181000D01*
X122289000Y-82679000D01*
X123131000Y-82679000D01*
X123131000Y-85181000D01*
G37*
G36*
X150591000Y-85181000D02*
G01*
X149749000Y-85181000D01*
X149749000Y-82679000D01*
X150591000Y-82679000D01*
X150591000Y-85181000D01*
G37*
G36*
X94401000Y-85181000D02*
G01*
X93559000Y-85181000D01*
X93559000Y-82679000D01*
X94401000Y-82679000D01*
X94401000Y-85181000D01*
G37*
G36*
X93131000Y-85181000D02*
G01*
X92289000Y-85181000D01*
X92289000Y-82679000D01*
X93131000Y-82679000D01*
X93131000Y-85181000D01*
G37*
G36*
X91861000Y-85181000D02*
G01*
X91019000Y-85181000D01*
X91019000Y-82679000D01*
X91861000Y-82679000D01*
X91861000Y-85181000D01*
G37*
G36*
X89321000Y-85181000D02*
G01*
X88479000Y-85181000D01*
X88479000Y-82679000D01*
X89321000Y-82679000D01*
X89321000Y-85181000D01*
G37*
G36*
X124401000Y-85181000D02*
G01*
X123559000Y-85181000D01*
X123559000Y-82679000D01*
X124401000Y-82679000D01*
X124401000Y-85181000D01*
G37*
G36*
X90591000Y-85181000D02*
G01*
X89749000Y-85181000D01*
X89749000Y-82679000D01*
X90591000Y-82679000D01*
X90591000Y-85181000D01*
G37*
G36*
X149321000Y-74081000D02*
G01*
X148479000Y-74081000D01*
X148479000Y-71579000D01*
X149321000Y-71579000D01*
X149321000Y-74081000D01*
G37*
G36*
X119321000Y-74081000D02*
G01*
X118479000Y-74081000D01*
X118479000Y-71579000D01*
X119321000Y-71579000D01*
X119321000Y-74081000D01*
G37*
G36*
X120591000Y-74081000D02*
G01*
X119749000Y-74081000D01*
X119749000Y-71579000D01*
X120591000Y-71579000D01*
X120591000Y-74081000D01*
G37*
G36*
X121861000Y-74081000D02*
G01*
X121019000Y-74081000D01*
X121019000Y-71579000D01*
X121861000Y-71579000D01*
X121861000Y-74081000D01*
G37*
G36*
X123131000Y-74081000D02*
G01*
X122289000Y-74081000D01*
X122289000Y-71579000D01*
X123131000Y-71579000D01*
X123131000Y-74081000D01*
G37*
G36*
X150591000Y-74081000D02*
G01*
X149749000Y-74081000D01*
X149749000Y-71579000D01*
X150591000Y-71579000D01*
X150591000Y-74081000D01*
G37*
G36*
X151861000Y-74081000D02*
G01*
X151019000Y-74081000D01*
X151019000Y-71579000D01*
X151861000Y-71579000D01*
X151861000Y-74081000D01*
G37*
G36*
X153131000Y-74081000D02*
G01*
X152289000Y-74081000D01*
X152289000Y-71579000D01*
X153131000Y-71579000D01*
X153131000Y-74081000D01*
G37*
G36*
X154401000Y-74081000D02*
G01*
X153559000Y-74081000D01*
X153559000Y-71579000D01*
X154401000Y-71579000D01*
X154401000Y-74081000D01*
G37*
G36*
X94401000Y-74081000D02*
G01*
X93559000Y-74081000D01*
X93559000Y-71579000D01*
X94401000Y-71579000D01*
X94401000Y-74081000D01*
G37*
G36*
X93131000Y-74081000D02*
G01*
X92289000Y-74081000D01*
X92289000Y-71579000D01*
X93131000Y-71579000D01*
X93131000Y-74081000D01*
G37*
G36*
X91861000Y-74081000D02*
G01*
X91019000Y-74081000D01*
X91019000Y-71579000D01*
X91861000Y-71579000D01*
X91861000Y-74081000D01*
G37*
G36*
X90591000Y-74081000D02*
G01*
X89749000Y-74081000D01*
X89749000Y-71579000D01*
X90591000Y-71579000D01*
X90591000Y-74081000D01*
G37*
G36*
X89321000Y-74081000D02*
G01*
X88479000Y-74081000D01*
X88479000Y-71579000D01*
X89321000Y-71579000D01*
X89321000Y-74081000D01*
G37*
G36*
X124401000Y-74081000D02*
G01*
X123559000Y-74081000D01*
X123559000Y-71579000D01*
X124401000Y-71579000D01*
X124401000Y-74081000D01*
G37*
G36*
X106313512Y-71253927D02*
G01*
X106462812Y-71283624D01*
X106626784Y-71351544D01*
X106774354Y-71450147D01*
X106899853Y-71575646D01*
X106998456Y-71723216D01*
X107066376Y-71887188D01*
X107101000Y-72061259D01*
X107101000Y-72238741D01*
X107066376Y-72412812D01*
X106998456Y-72576784D01*
X106899853Y-72724354D01*
X106774354Y-72849853D01*
X106626784Y-72948456D01*
X106462812Y-73016376D01*
X106313512Y-73046073D01*
X106288742Y-73051000D01*
X106111258Y-73051000D01*
X106086488Y-73046073D01*
X105937188Y-73016376D01*
X105773216Y-72948456D01*
X105625646Y-72849853D01*
X105500147Y-72724354D01*
X105401544Y-72576784D01*
X105333624Y-72412812D01*
X105299000Y-72238741D01*
X105299000Y-72061259D01*
X105333624Y-71887188D01*
X105401544Y-71723216D01*
X105500147Y-71575646D01*
X105625646Y-71450147D01*
X105773216Y-71351544D01*
X105937188Y-71283624D01*
X106086488Y-71253927D01*
X106111258Y-71249000D01*
X106288742Y-71249000D01*
X106313512Y-71253927D01*
G37*
G36*
X141393512Y-71253927D02*
G01*
X141542812Y-71283624D01*
X141706784Y-71351544D01*
X141854354Y-71450147D01*
X141979853Y-71575646D01*
X142078456Y-71723216D01*
X142146376Y-71887188D01*
X142181000Y-72061259D01*
X142181000Y-72238741D01*
X142146376Y-72412812D01*
X142078456Y-72576784D01*
X141979853Y-72724354D01*
X141854354Y-72849853D01*
X141706784Y-72948456D01*
X141542812Y-73016376D01*
X141393512Y-73046073D01*
X141368742Y-73051000D01*
X141191258Y-73051000D01*
X141166488Y-73046073D01*
X141017188Y-73016376D01*
X140853216Y-72948456D01*
X140705646Y-72849853D01*
X140580147Y-72724354D01*
X140481544Y-72576784D01*
X140413624Y-72412812D01*
X140379000Y-72238741D01*
X140379000Y-72061259D01*
X140413624Y-71887188D01*
X140481544Y-71723216D01*
X140580147Y-71575646D01*
X140705646Y-71450147D01*
X140853216Y-71351544D01*
X141017188Y-71283624D01*
X141166488Y-71253927D01*
X141191258Y-71249000D01*
X141368742Y-71249000D01*
X141393512Y-71253927D01*
G37*
G36*
X72021000Y-73051000D02*
G01*
X70219000Y-73051000D01*
X70219000Y-71249000D01*
X72021000Y-71249000D01*
X72021000Y-73051000D01*
G37*
G36*
X76313512Y-71253927D02*
G01*
X76462812Y-71283624D01*
X76626784Y-71351544D01*
X76774354Y-71450147D01*
X76899853Y-71575646D01*
X76998456Y-71723216D01*
X77066376Y-71887188D01*
X77101000Y-72061259D01*
X77101000Y-72238741D01*
X77066376Y-72412812D01*
X76998456Y-72576784D01*
X76899853Y-72724354D01*
X76774354Y-72849853D01*
X76626784Y-72948456D01*
X76462812Y-73016376D01*
X76313512Y-73046073D01*
X76288742Y-73051000D01*
X76111258Y-73051000D01*
X76086488Y-73046073D01*
X75937188Y-73016376D01*
X75773216Y-72948456D01*
X75625646Y-72849853D01*
X75500147Y-72724354D01*
X75401544Y-72576784D01*
X75333624Y-72412812D01*
X75299000Y-72238741D01*
X75299000Y-72061259D01*
X75333624Y-71887188D01*
X75401544Y-71723216D01*
X75500147Y-71575646D01*
X75625646Y-71450147D01*
X75773216Y-71351544D01*
X75937188Y-71283624D01*
X76086488Y-71253927D01*
X76111258Y-71249000D01*
X76288742Y-71249000D01*
X76313512Y-71253927D01*
G37*
G36*
X78853512Y-71253927D02*
G01*
X79002812Y-71283624D01*
X79166784Y-71351544D01*
X79314354Y-71450147D01*
X79439853Y-71575646D01*
X79538456Y-71723216D01*
X79606376Y-71887188D01*
X79641000Y-72061259D01*
X79641000Y-72238741D01*
X79606376Y-72412812D01*
X79538456Y-72576784D01*
X79439853Y-72724354D01*
X79314354Y-72849853D01*
X79166784Y-72948456D01*
X79002812Y-73016376D01*
X78853512Y-73046073D01*
X78828742Y-73051000D01*
X78651258Y-73051000D01*
X78626488Y-73046073D01*
X78477188Y-73016376D01*
X78313216Y-72948456D01*
X78165646Y-72849853D01*
X78040147Y-72724354D01*
X77941544Y-72576784D01*
X77873624Y-72412812D01*
X77839000Y-72238741D01*
X77839000Y-72061259D01*
X77873624Y-71887188D01*
X77941544Y-71723216D01*
X78040147Y-71575646D01*
X78165646Y-71450147D01*
X78313216Y-71351544D01*
X78477188Y-71283624D01*
X78626488Y-71253927D01*
X78651258Y-71249000D01*
X78828742Y-71249000D01*
X78853512Y-71253927D01*
G37*
G36*
X81393512Y-71253927D02*
G01*
X81542812Y-71283624D01*
X81706784Y-71351544D01*
X81854354Y-71450147D01*
X81979853Y-71575646D01*
X82078456Y-71723216D01*
X82146376Y-71887188D01*
X82181000Y-72061259D01*
X82181000Y-72238741D01*
X82146376Y-72412812D01*
X82078456Y-72576784D01*
X81979853Y-72724354D01*
X81854354Y-72849853D01*
X81706784Y-72948456D01*
X81542812Y-73016376D01*
X81393512Y-73046073D01*
X81368742Y-73051000D01*
X81191258Y-73051000D01*
X81166488Y-73046073D01*
X81017188Y-73016376D01*
X80853216Y-72948456D01*
X80705646Y-72849853D01*
X80580147Y-72724354D01*
X80481544Y-72576784D01*
X80413624Y-72412812D01*
X80379000Y-72238741D01*
X80379000Y-72061259D01*
X80413624Y-71887188D01*
X80481544Y-71723216D01*
X80580147Y-71575646D01*
X80705646Y-71450147D01*
X80853216Y-71351544D01*
X81017188Y-71283624D01*
X81166488Y-71253927D01*
X81191258Y-71249000D01*
X81368742Y-71249000D01*
X81393512Y-71253927D01*
G37*
G36*
X102021000Y-73051000D02*
G01*
X100219000Y-73051000D01*
X100219000Y-71249000D01*
X102021000Y-71249000D01*
X102021000Y-73051000D01*
G37*
G36*
X103773512Y-71253927D02*
G01*
X103922812Y-71283624D01*
X104086784Y-71351544D01*
X104234354Y-71450147D01*
X104359853Y-71575646D01*
X104458456Y-71723216D01*
X104526376Y-71887188D01*
X104561000Y-72061259D01*
X104561000Y-72238741D01*
X104526376Y-72412812D01*
X104458456Y-72576784D01*
X104359853Y-72724354D01*
X104234354Y-72849853D01*
X104086784Y-72948456D01*
X103922812Y-73016376D01*
X103773512Y-73046073D01*
X103748742Y-73051000D01*
X103571258Y-73051000D01*
X103546488Y-73046073D01*
X103397188Y-73016376D01*
X103233216Y-72948456D01*
X103085646Y-72849853D01*
X102960147Y-72724354D01*
X102861544Y-72576784D01*
X102793624Y-72412812D01*
X102759000Y-72238741D01*
X102759000Y-72061259D01*
X102793624Y-71887188D01*
X102861544Y-71723216D01*
X102960147Y-71575646D01*
X103085646Y-71450147D01*
X103233216Y-71351544D01*
X103397188Y-71283624D01*
X103546488Y-71253927D01*
X103571258Y-71249000D01*
X103748742Y-71249000D01*
X103773512Y-71253927D01*
G37*
G36*
X73773512Y-71253927D02*
G01*
X73922812Y-71283624D01*
X74086784Y-71351544D01*
X74234354Y-71450147D01*
X74359853Y-71575646D01*
X74458456Y-71723216D01*
X74526376Y-71887188D01*
X74561000Y-72061259D01*
X74561000Y-72238741D01*
X74526376Y-72412812D01*
X74458456Y-72576784D01*
X74359853Y-72724354D01*
X74234354Y-72849853D01*
X74086784Y-72948456D01*
X73922812Y-73016376D01*
X73773512Y-73046073D01*
X73748742Y-73051000D01*
X73571258Y-73051000D01*
X73546488Y-73046073D01*
X73397188Y-73016376D01*
X73233216Y-72948456D01*
X73085646Y-72849853D01*
X72960147Y-72724354D01*
X72861544Y-72576784D01*
X72793624Y-72412812D01*
X72759000Y-72238741D01*
X72759000Y-72061259D01*
X72793624Y-71887188D01*
X72861544Y-71723216D01*
X72960147Y-71575646D01*
X73085646Y-71450147D01*
X73233216Y-71351544D01*
X73397188Y-71283624D01*
X73546488Y-71253927D01*
X73571258Y-71249000D01*
X73748742Y-71249000D01*
X73773512Y-71253927D01*
G37*
G36*
X108853512Y-71253927D02*
G01*
X109002812Y-71283624D01*
X109166784Y-71351544D01*
X109314354Y-71450147D01*
X109439853Y-71575646D01*
X109538456Y-71723216D01*
X109606376Y-71887188D01*
X109641000Y-72061259D01*
X109641000Y-72238741D01*
X109606376Y-72412812D01*
X109538456Y-72576784D01*
X109439853Y-72724354D01*
X109314354Y-72849853D01*
X109166784Y-72948456D01*
X109002812Y-73016376D01*
X108853512Y-73046073D01*
X108828742Y-73051000D01*
X108651258Y-73051000D01*
X108626488Y-73046073D01*
X108477188Y-73016376D01*
X108313216Y-72948456D01*
X108165646Y-72849853D01*
X108040147Y-72724354D01*
X107941544Y-72576784D01*
X107873624Y-72412812D01*
X107839000Y-72238741D01*
X107839000Y-72061259D01*
X107873624Y-71887188D01*
X107941544Y-71723216D01*
X108040147Y-71575646D01*
X108165646Y-71450147D01*
X108313216Y-71351544D01*
X108477188Y-71283624D01*
X108626488Y-71253927D01*
X108651258Y-71249000D01*
X108828742Y-71249000D01*
X108853512Y-71253927D01*
G37*
G36*
X111393512Y-71253927D02*
G01*
X111542812Y-71283624D01*
X111706784Y-71351544D01*
X111854354Y-71450147D01*
X111979853Y-71575646D01*
X112078456Y-71723216D01*
X112146376Y-71887188D01*
X112181000Y-72061259D01*
X112181000Y-72238741D01*
X112146376Y-72412812D01*
X112078456Y-72576784D01*
X111979853Y-72724354D01*
X111854354Y-72849853D01*
X111706784Y-72948456D01*
X111542812Y-73016376D01*
X111393512Y-73046073D01*
X111368742Y-73051000D01*
X111191258Y-73051000D01*
X111166488Y-73046073D01*
X111017188Y-73016376D01*
X110853216Y-72948456D01*
X110705646Y-72849853D01*
X110580147Y-72724354D01*
X110481544Y-72576784D01*
X110413624Y-72412812D01*
X110379000Y-72238741D01*
X110379000Y-72061259D01*
X110413624Y-71887188D01*
X110481544Y-71723216D01*
X110580147Y-71575646D01*
X110705646Y-71450147D01*
X110853216Y-71351544D01*
X111017188Y-71283624D01*
X111166488Y-71253927D01*
X111191258Y-71249000D01*
X111368742Y-71249000D01*
X111393512Y-71253927D01*
G37*
G36*
X132021000Y-73051000D02*
G01*
X130219000Y-73051000D01*
X130219000Y-71249000D01*
X132021000Y-71249000D01*
X132021000Y-73051000D01*
G37*
G36*
X133773512Y-71253927D02*
G01*
X133922812Y-71283624D01*
X134086784Y-71351544D01*
X134234354Y-71450147D01*
X134359853Y-71575646D01*
X134458456Y-71723216D01*
X134526376Y-71887188D01*
X134561000Y-72061259D01*
X134561000Y-72238741D01*
X134526376Y-72412812D01*
X134458456Y-72576784D01*
X134359853Y-72724354D01*
X134234354Y-72849853D01*
X134086784Y-72948456D01*
X133922812Y-73016376D01*
X133773512Y-73046073D01*
X133748742Y-73051000D01*
X133571258Y-73051000D01*
X133546488Y-73046073D01*
X133397188Y-73016376D01*
X133233216Y-72948456D01*
X133085646Y-72849853D01*
X132960147Y-72724354D01*
X132861544Y-72576784D01*
X132793624Y-72412812D01*
X132759000Y-72238741D01*
X132759000Y-72061259D01*
X132793624Y-71887188D01*
X132861544Y-71723216D01*
X132960147Y-71575646D01*
X133085646Y-71450147D01*
X133233216Y-71351544D01*
X133397188Y-71283624D01*
X133546488Y-71253927D01*
X133571258Y-71249000D01*
X133748742Y-71249000D01*
X133773512Y-71253927D01*
G37*
G36*
X136313512Y-71253927D02*
G01*
X136462812Y-71283624D01*
X136626784Y-71351544D01*
X136774354Y-71450147D01*
X136899853Y-71575646D01*
X136998456Y-71723216D01*
X137066376Y-71887188D01*
X137101000Y-72061259D01*
X137101000Y-72238741D01*
X137066376Y-72412812D01*
X136998456Y-72576784D01*
X136899853Y-72724354D01*
X136774354Y-72849853D01*
X136626784Y-72948456D01*
X136462812Y-73016376D01*
X136313512Y-73046073D01*
X136288742Y-73051000D01*
X136111258Y-73051000D01*
X136086488Y-73046073D01*
X135937188Y-73016376D01*
X135773216Y-72948456D01*
X135625646Y-72849853D01*
X135500147Y-72724354D01*
X135401544Y-72576784D01*
X135333624Y-72412812D01*
X135299000Y-72238741D01*
X135299000Y-72061259D01*
X135333624Y-71887188D01*
X135401544Y-71723216D01*
X135500147Y-71575646D01*
X135625646Y-71450147D01*
X135773216Y-71351544D01*
X135937188Y-71283624D01*
X136086488Y-71253927D01*
X136111258Y-71249000D01*
X136288742Y-71249000D01*
X136313512Y-71253927D01*
G37*
G36*
X138853512Y-71253927D02*
G01*
X139002812Y-71283624D01*
X139166784Y-71351544D01*
X139314354Y-71450147D01*
X139439853Y-71575646D01*
X139538456Y-71723216D01*
X139606376Y-71887188D01*
X139641000Y-72061259D01*
X139641000Y-72238741D01*
X139606376Y-72412812D01*
X139538456Y-72576784D01*
X139439853Y-72724354D01*
X139314354Y-72849853D01*
X139166784Y-72948456D01*
X139002812Y-73016376D01*
X138853512Y-73046073D01*
X138828742Y-73051000D01*
X138651258Y-73051000D01*
X138626488Y-73046073D01*
X138477188Y-73016376D01*
X138313216Y-72948456D01*
X138165646Y-72849853D01*
X138040147Y-72724354D01*
X137941544Y-72576784D01*
X137873624Y-72412812D01*
X137839000Y-72238741D01*
X137839000Y-72061259D01*
X137873624Y-71887188D01*
X137941544Y-71723216D01*
X138040147Y-71575646D01*
X138165646Y-71450147D01*
X138313216Y-71351544D01*
X138477188Y-71283624D01*
X138626488Y-71253927D01*
X138651258Y-71249000D01*
X138828742Y-71249000D01*
X138853512Y-71253927D01*
G37*
G36*
X111393512Y-68713927D02*
G01*
X111542812Y-68743624D01*
X111706784Y-68811544D01*
X111854354Y-68910147D01*
X111979853Y-69035646D01*
X112078456Y-69183216D01*
X112146376Y-69347188D01*
X112181000Y-69521259D01*
X112181000Y-69698741D01*
X112146376Y-69872812D01*
X112078456Y-70036784D01*
X111979853Y-70184354D01*
X111854354Y-70309853D01*
X111706784Y-70408456D01*
X111542812Y-70476376D01*
X111393512Y-70506073D01*
X111368742Y-70511000D01*
X111191258Y-70511000D01*
X111166488Y-70506073D01*
X111017188Y-70476376D01*
X110853216Y-70408456D01*
X110705646Y-70309853D01*
X110580147Y-70184354D01*
X110481544Y-70036784D01*
X110413624Y-69872812D01*
X110379000Y-69698741D01*
X110379000Y-69521259D01*
X110413624Y-69347188D01*
X110481544Y-69183216D01*
X110580147Y-69035646D01*
X110705646Y-68910147D01*
X110853216Y-68811544D01*
X111017188Y-68743624D01*
X111166488Y-68713927D01*
X111191258Y-68709000D01*
X111368742Y-68709000D01*
X111393512Y-68713927D01*
G37*
G36*
X131233512Y-68713927D02*
G01*
X131382812Y-68743624D01*
X131546784Y-68811544D01*
X131694354Y-68910147D01*
X131819853Y-69035646D01*
X131918456Y-69183216D01*
X131986376Y-69347188D01*
X132021000Y-69521259D01*
X132021000Y-69698741D01*
X131986376Y-69872812D01*
X131918456Y-70036784D01*
X131819853Y-70184354D01*
X131694354Y-70309853D01*
X131546784Y-70408456D01*
X131382812Y-70476376D01*
X131233512Y-70506073D01*
X131208742Y-70511000D01*
X131031258Y-70511000D01*
X131006488Y-70506073D01*
X130857188Y-70476376D01*
X130693216Y-70408456D01*
X130545646Y-70309853D01*
X130420147Y-70184354D01*
X130321544Y-70036784D01*
X130253624Y-69872812D01*
X130219000Y-69698741D01*
X130219000Y-69521259D01*
X130253624Y-69347188D01*
X130321544Y-69183216D01*
X130420147Y-69035646D01*
X130545646Y-68910147D01*
X130693216Y-68811544D01*
X130857188Y-68743624D01*
X131006488Y-68713927D01*
X131031258Y-68709000D01*
X131208742Y-68709000D01*
X131233512Y-68713927D01*
G37*
G36*
X108853512Y-68713927D02*
G01*
X109002812Y-68743624D01*
X109166784Y-68811544D01*
X109314354Y-68910147D01*
X109439853Y-69035646D01*
X109538456Y-69183216D01*
X109606376Y-69347188D01*
X109641000Y-69521259D01*
X109641000Y-69698741D01*
X109606376Y-69872812D01*
X109538456Y-70036784D01*
X109439853Y-70184354D01*
X109314354Y-70309853D01*
X109166784Y-70408456D01*
X109002812Y-70476376D01*
X108853512Y-70506073D01*
X108828742Y-70511000D01*
X108651258Y-70511000D01*
X108626488Y-70506073D01*
X108477188Y-70476376D01*
X108313216Y-70408456D01*
X108165646Y-70309853D01*
X108040147Y-70184354D01*
X107941544Y-70036784D01*
X107873624Y-69872812D01*
X107839000Y-69698741D01*
X107839000Y-69521259D01*
X107873624Y-69347188D01*
X107941544Y-69183216D01*
X108040147Y-69035646D01*
X108165646Y-68910147D01*
X108313216Y-68811544D01*
X108477188Y-68743624D01*
X108626488Y-68713927D01*
X108651258Y-68709000D01*
X108828742Y-68709000D01*
X108853512Y-68713927D01*
G37*
G36*
X133773512Y-68713927D02*
G01*
X133922812Y-68743624D01*
X134086784Y-68811544D01*
X134234354Y-68910147D01*
X134359853Y-69035646D01*
X134458456Y-69183216D01*
X134526376Y-69347188D01*
X134561000Y-69521259D01*
X134561000Y-69698741D01*
X134526376Y-69872812D01*
X134458456Y-70036784D01*
X134359853Y-70184354D01*
X134234354Y-70309853D01*
X134086784Y-70408456D01*
X133922812Y-70476376D01*
X133773512Y-70506073D01*
X133748742Y-70511000D01*
X133571258Y-70511000D01*
X133546488Y-70506073D01*
X133397188Y-70476376D01*
X133233216Y-70408456D01*
X133085646Y-70309853D01*
X132960147Y-70184354D01*
X132861544Y-70036784D01*
X132793624Y-69872812D01*
X132759000Y-69698741D01*
X132759000Y-69521259D01*
X132793624Y-69347188D01*
X132861544Y-69183216D01*
X132960147Y-69035646D01*
X133085646Y-68910147D01*
X133233216Y-68811544D01*
X133397188Y-68743624D01*
X133546488Y-68713927D01*
X133571258Y-68709000D01*
X133748742Y-68709000D01*
X133773512Y-68713927D01*
G37*
G36*
X136313512Y-68713927D02*
G01*
X136462812Y-68743624D01*
X136626784Y-68811544D01*
X136774354Y-68910147D01*
X136899853Y-69035646D01*
X136998456Y-69183216D01*
X137066376Y-69347188D01*
X137101000Y-69521259D01*
X137101000Y-69698741D01*
X137066376Y-69872812D01*
X136998456Y-70036784D01*
X136899853Y-70184354D01*
X136774354Y-70309853D01*
X136626784Y-70408456D01*
X136462812Y-70476376D01*
X136313512Y-70506073D01*
X136288742Y-70511000D01*
X136111258Y-70511000D01*
X136086488Y-70506073D01*
X135937188Y-70476376D01*
X135773216Y-70408456D01*
X135625646Y-70309853D01*
X135500147Y-70184354D01*
X135401544Y-70036784D01*
X135333624Y-69872812D01*
X135299000Y-69698741D01*
X135299000Y-69521259D01*
X135333624Y-69347188D01*
X135401544Y-69183216D01*
X135500147Y-69035646D01*
X135625646Y-68910147D01*
X135773216Y-68811544D01*
X135937188Y-68743624D01*
X136086488Y-68713927D01*
X136111258Y-68709000D01*
X136288742Y-68709000D01*
X136313512Y-68713927D01*
G37*
G36*
X138853512Y-68713927D02*
G01*
X139002812Y-68743624D01*
X139166784Y-68811544D01*
X139314354Y-68910147D01*
X139439853Y-69035646D01*
X139538456Y-69183216D01*
X139606376Y-69347188D01*
X139641000Y-69521259D01*
X139641000Y-69698741D01*
X139606376Y-69872812D01*
X139538456Y-70036784D01*
X139439853Y-70184354D01*
X139314354Y-70309853D01*
X139166784Y-70408456D01*
X139002812Y-70476376D01*
X138853512Y-70506073D01*
X138828742Y-70511000D01*
X138651258Y-70511000D01*
X138626488Y-70506073D01*
X138477188Y-70476376D01*
X138313216Y-70408456D01*
X138165646Y-70309853D01*
X138040147Y-70184354D01*
X137941544Y-70036784D01*
X137873624Y-69872812D01*
X137839000Y-69698741D01*
X137839000Y-69521259D01*
X137873624Y-69347188D01*
X137941544Y-69183216D01*
X138040147Y-69035646D01*
X138165646Y-68910147D01*
X138313216Y-68811544D01*
X138477188Y-68743624D01*
X138626488Y-68713927D01*
X138651258Y-68709000D01*
X138828742Y-68709000D01*
X138853512Y-68713927D01*
G37*
G36*
X141393512Y-68713927D02*
G01*
X141542812Y-68743624D01*
X141706784Y-68811544D01*
X141854354Y-68910147D01*
X141979853Y-69035646D01*
X142078456Y-69183216D01*
X142146376Y-69347188D01*
X142181000Y-69521259D01*
X142181000Y-69698741D01*
X142146376Y-69872812D01*
X142078456Y-70036784D01*
X141979853Y-70184354D01*
X141854354Y-70309853D01*
X141706784Y-70408456D01*
X141542812Y-70476376D01*
X141393512Y-70506073D01*
X141368742Y-70511000D01*
X141191258Y-70511000D01*
X141166488Y-70506073D01*
X141017188Y-70476376D01*
X140853216Y-70408456D01*
X140705646Y-70309853D01*
X140580147Y-70184354D01*
X140481544Y-70036784D01*
X140413624Y-69872812D01*
X140379000Y-69698741D01*
X140379000Y-69521259D01*
X140413624Y-69347188D01*
X140481544Y-69183216D01*
X140580147Y-69035646D01*
X140705646Y-68910147D01*
X140853216Y-68811544D01*
X141017188Y-68743624D01*
X141166488Y-68713927D01*
X141191258Y-68709000D01*
X141368742Y-68709000D01*
X141393512Y-68713927D01*
G37*
G36*
X81393512Y-68713927D02*
G01*
X81542812Y-68743624D01*
X81706784Y-68811544D01*
X81854354Y-68910147D01*
X81979853Y-69035646D01*
X82078456Y-69183216D01*
X82146376Y-69347188D01*
X82181000Y-69521259D01*
X82181000Y-69698741D01*
X82146376Y-69872812D01*
X82078456Y-70036784D01*
X81979853Y-70184354D01*
X81854354Y-70309853D01*
X81706784Y-70408456D01*
X81542812Y-70476376D01*
X81393512Y-70506073D01*
X81368742Y-70511000D01*
X81191258Y-70511000D01*
X81166488Y-70506073D01*
X81017188Y-70476376D01*
X80853216Y-70408456D01*
X80705646Y-70309853D01*
X80580147Y-70184354D01*
X80481544Y-70036784D01*
X80413624Y-69872812D01*
X80379000Y-69698741D01*
X80379000Y-69521259D01*
X80413624Y-69347188D01*
X80481544Y-69183216D01*
X80580147Y-69035646D01*
X80705646Y-68910147D01*
X80853216Y-68811544D01*
X81017188Y-68743624D01*
X81166488Y-68713927D01*
X81191258Y-68709000D01*
X81368742Y-68709000D01*
X81393512Y-68713927D01*
G37*
G36*
X103773512Y-68713927D02*
G01*
X103922812Y-68743624D01*
X104086784Y-68811544D01*
X104234354Y-68910147D01*
X104359853Y-69035646D01*
X104458456Y-69183216D01*
X104526376Y-69347188D01*
X104561000Y-69521259D01*
X104561000Y-69698741D01*
X104526376Y-69872812D01*
X104458456Y-70036784D01*
X104359853Y-70184354D01*
X104234354Y-70309853D01*
X104086784Y-70408456D01*
X103922812Y-70476376D01*
X103773512Y-70506073D01*
X103748742Y-70511000D01*
X103571258Y-70511000D01*
X103546488Y-70506073D01*
X103397188Y-70476376D01*
X103233216Y-70408456D01*
X103085646Y-70309853D01*
X102960147Y-70184354D01*
X102861544Y-70036784D01*
X102793624Y-69872812D01*
X102759000Y-69698741D01*
X102759000Y-69521259D01*
X102793624Y-69347188D01*
X102861544Y-69183216D01*
X102960147Y-69035646D01*
X103085646Y-68910147D01*
X103233216Y-68811544D01*
X103397188Y-68743624D01*
X103546488Y-68713927D01*
X103571258Y-68709000D01*
X103748742Y-68709000D01*
X103773512Y-68713927D01*
G37*
G36*
X101233512Y-68713927D02*
G01*
X101382812Y-68743624D01*
X101546784Y-68811544D01*
X101694354Y-68910147D01*
X101819853Y-69035646D01*
X101918456Y-69183216D01*
X101986376Y-69347188D01*
X102021000Y-69521259D01*
X102021000Y-69698741D01*
X101986376Y-69872812D01*
X101918456Y-70036784D01*
X101819853Y-70184354D01*
X101694354Y-70309853D01*
X101546784Y-70408456D01*
X101382812Y-70476376D01*
X101233512Y-70506073D01*
X101208742Y-70511000D01*
X101031258Y-70511000D01*
X101006488Y-70506073D01*
X100857188Y-70476376D01*
X100693216Y-70408456D01*
X100545646Y-70309853D01*
X100420147Y-70184354D01*
X100321544Y-70036784D01*
X100253624Y-69872812D01*
X100219000Y-69698741D01*
X100219000Y-69521259D01*
X100253624Y-69347188D01*
X100321544Y-69183216D01*
X100420147Y-69035646D01*
X100545646Y-68910147D01*
X100693216Y-68811544D01*
X100857188Y-68743624D01*
X101006488Y-68713927D01*
X101031258Y-68709000D01*
X101208742Y-68709000D01*
X101233512Y-68713927D01*
G37*
G36*
X78853512Y-68713927D02*
G01*
X79002812Y-68743624D01*
X79166784Y-68811544D01*
X79314354Y-68910147D01*
X79439853Y-69035646D01*
X79538456Y-69183216D01*
X79606376Y-69347188D01*
X79641000Y-69521259D01*
X79641000Y-69698741D01*
X79606376Y-69872812D01*
X79538456Y-70036784D01*
X79439853Y-70184354D01*
X79314354Y-70309853D01*
X79166784Y-70408456D01*
X79002812Y-70476376D01*
X78853512Y-70506073D01*
X78828742Y-70511000D01*
X78651258Y-70511000D01*
X78626488Y-70506073D01*
X78477188Y-70476376D01*
X78313216Y-70408456D01*
X78165646Y-70309853D01*
X78040147Y-70184354D01*
X77941544Y-70036784D01*
X77873624Y-69872812D01*
X77839000Y-69698741D01*
X77839000Y-69521259D01*
X77873624Y-69347188D01*
X77941544Y-69183216D01*
X78040147Y-69035646D01*
X78165646Y-68910147D01*
X78313216Y-68811544D01*
X78477188Y-68743624D01*
X78626488Y-68713927D01*
X78651258Y-68709000D01*
X78828742Y-68709000D01*
X78853512Y-68713927D01*
G37*
G36*
X76313512Y-68713927D02*
G01*
X76462812Y-68743624D01*
X76626784Y-68811544D01*
X76774354Y-68910147D01*
X76899853Y-69035646D01*
X76998456Y-69183216D01*
X77066376Y-69347188D01*
X77101000Y-69521259D01*
X77101000Y-69698741D01*
X77066376Y-69872812D01*
X76998456Y-70036784D01*
X76899853Y-70184354D01*
X76774354Y-70309853D01*
X76626784Y-70408456D01*
X76462812Y-70476376D01*
X76313512Y-70506073D01*
X76288742Y-70511000D01*
X76111258Y-70511000D01*
X76086488Y-70506073D01*
X75937188Y-70476376D01*
X75773216Y-70408456D01*
X75625646Y-70309853D01*
X75500147Y-70184354D01*
X75401544Y-70036784D01*
X75333624Y-69872812D01*
X75299000Y-69698741D01*
X75299000Y-69521259D01*
X75333624Y-69347188D01*
X75401544Y-69183216D01*
X75500147Y-69035646D01*
X75625646Y-68910147D01*
X75773216Y-68811544D01*
X75937188Y-68743624D01*
X76086488Y-68713927D01*
X76111258Y-68709000D01*
X76288742Y-68709000D01*
X76313512Y-68713927D01*
G37*
G36*
X73773512Y-68713927D02*
G01*
X73922812Y-68743624D01*
X74086784Y-68811544D01*
X74234354Y-68910147D01*
X74359853Y-69035646D01*
X74458456Y-69183216D01*
X74526376Y-69347188D01*
X74561000Y-69521259D01*
X74561000Y-69698741D01*
X74526376Y-69872812D01*
X74458456Y-70036784D01*
X74359853Y-70184354D01*
X74234354Y-70309853D01*
X74086784Y-70408456D01*
X73922812Y-70476376D01*
X73773512Y-70506073D01*
X73748742Y-70511000D01*
X73571258Y-70511000D01*
X73546488Y-70506073D01*
X73397188Y-70476376D01*
X73233216Y-70408456D01*
X73085646Y-70309853D01*
X72960147Y-70184354D01*
X72861544Y-70036784D01*
X72793624Y-69872812D01*
X72759000Y-69698741D01*
X72759000Y-69521259D01*
X72793624Y-69347188D01*
X72861544Y-69183216D01*
X72960147Y-69035646D01*
X73085646Y-68910147D01*
X73233216Y-68811544D01*
X73397188Y-68743624D01*
X73546488Y-68713927D01*
X73571258Y-68709000D01*
X73748742Y-68709000D01*
X73773512Y-68713927D01*
G37*
G36*
X71233512Y-68713927D02*
G01*
X71382812Y-68743624D01*
X71546784Y-68811544D01*
X71694354Y-68910147D01*
X71819853Y-69035646D01*
X71918456Y-69183216D01*
X71986376Y-69347188D01*
X72021000Y-69521259D01*
X72021000Y-69698741D01*
X71986376Y-69872812D01*
X71918456Y-70036784D01*
X71819853Y-70184354D01*
X71694354Y-70309853D01*
X71546784Y-70408456D01*
X71382812Y-70476376D01*
X71233512Y-70506073D01*
X71208742Y-70511000D01*
X71031258Y-70511000D01*
X71006488Y-70506073D01*
X70857188Y-70476376D01*
X70693216Y-70408456D01*
X70545646Y-70309853D01*
X70420147Y-70184354D01*
X70321544Y-70036784D01*
X70253624Y-69872812D01*
X70219000Y-69698741D01*
X70219000Y-69521259D01*
X70253624Y-69347188D01*
X70321544Y-69183216D01*
X70420147Y-69035646D01*
X70545646Y-68910147D01*
X70693216Y-68811544D01*
X70857188Y-68743624D01*
X71006488Y-68713927D01*
X71031258Y-68709000D01*
X71208742Y-68709000D01*
X71233512Y-68713927D01*
G37*
G36*
X106313512Y-68713927D02*
G01*
X106462812Y-68743624D01*
X106626784Y-68811544D01*
X106774354Y-68910147D01*
X106899853Y-69035646D01*
X106998456Y-69183216D01*
X107066376Y-69347188D01*
X107101000Y-69521259D01*
X107101000Y-69698741D01*
X107066376Y-69872812D01*
X106998456Y-70036784D01*
X106899853Y-70184354D01*
X106774354Y-70309853D01*
X106626784Y-70408456D01*
X106462812Y-70476376D01*
X106313512Y-70506073D01*
X106288742Y-70511000D01*
X106111258Y-70511000D01*
X106086488Y-70506073D01*
X105937188Y-70476376D01*
X105773216Y-70408456D01*
X105625646Y-70309853D01*
X105500147Y-70184354D01*
X105401544Y-70036784D01*
X105333624Y-69872812D01*
X105299000Y-69698741D01*
X105299000Y-69521259D01*
X105333624Y-69347188D01*
X105401544Y-69183216D01*
X105500147Y-69035646D01*
X105625646Y-68910147D01*
X105773216Y-68811544D01*
X105937188Y-68743624D01*
X106086488Y-68713927D01*
X106111258Y-68709000D01*
X106288742Y-68709000D01*
X106313512Y-68713927D01*
G37*
G36*
X89321000Y-70181000D02*
G01*
X88479000Y-70181000D01*
X88479000Y-67679000D01*
X89321000Y-67679000D01*
X89321000Y-70181000D01*
G37*
G36*
X119321000Y-70181000D02*
G01*
X118479000Y-70181000D01*
X118479000Y-67679000D01*
X119321000Y-67679000D01*
X119321000Y-70181000D01*
G37*
G36*
X120591000Y-70181000D02*
G01*
X119749000Y-70181000D01*
X119749000Y-67679000D01*
X120591000Y-67679000D01*
X120591000Y-70181000D01*
G37*
G36*
X94401000Y-70181000D02*
G01*
X93559000Y-70181000D01*
X93559000Y-67679000D01*
X94401000Y-67679000D01*
X94401000Y-70181000D01*
G37*
G36*
X93131000Y-70181000D02*
G01*
X92289000Y-70181000D01*
X92289000Y-67679000D01*
X93131000Y-67679000D01*
X93131000Y-70181000D01*
G37*
G36*
X91861000Y-70181000D02*
G01*
X91019000Y-70181000D01*
X91019000Y-67679000D01*
X91861000Y-67679000D01*
X91861000Y-70181000D01*
G37*
G36*
X90591000Y-70181000D02*
G01*
X89749000Y-70181000D01*
X89749000Y-67679000D01*
X90591000Y-67679000D01*
X90591000Y-70181000D01*
G37*
G36*
X121861000Y-70181000D02*
G01*
X121019000Y-70181000D01*
X121019000Y-67679000D01*
X121861000Y-67679000D01*
X121861000Y-70181000D01*
G37*
G36*
X154401000Y-70181000D02*
G01*
X153559000Y-70181000D01*
X153559000Y-67679000D01*
X154401000Y-67679000D01*
X154401000Y-70181000D01*
G37*
G36*
X153131000Y-70181000D02*
G01*
X152289000Y-70181000D01*
X152289000Y-67679000D01*
X153131000Y-67679000D01*
X153131000Y-70181000D01*
G37*
G36*
X151861000Y-70181000D02*
G01*
X151019000Y-70181000D01*
X151019000Y-67679000D01*
X151861000Y-67679000D01*
X151861000Y-70181000D01*
G37*
G36*
X150591000Y-70181000D02*
G01*
X149749000Y-70181000D01*
X149749000Y-67679000D01*
X150591000Y-67679000D01*
X150591000Y-70181000D01*
G37*
G36*
X149321000Y-70181000D02*
G01*
X148479000Y-70181000D01*
X148479000Y-67679000D01*
X149321000Y-67679000D01*
X149321000Y-70181000D01*
G37*
G36*
X124401000Y-70181000D02*
G01*
X123559000Y-70181000D01*
X123559000Y-67679000D01*
X124401000Y-67679000D01*
X124401000Y-70181000D01*
G37*
G36*
X123131000Y-70181000D02*
G01*
X122289000Y-70181000D01*
X122289000Y-67679000D01*
X123131000Y-67679000D01*
X123131000Y-70181000D01*
G37*
G36*
X91861000Y-59081000D02*
G01*
X91019000Y-59081000D01*
X91019000Y-56579000D01*
X91861000Y-56579000D01*
X91861000Y-59081000D01*
G37*
G36*
X154401000Y-59081000D02*
G01*
X153559000Y-59081000D01*
X153559000Y-56579000D01*
X154401000Y-56579000D01*
X154401000Y-59081000D01*
G37*
G36*
X151861000Y-59081000D02*
G01*
X151019000Y-59081000D01*
X151019000Y-56579000D01*
X151861000Y-56579000D01*
X151861000Y-59081000D01*
G37*
G36*
X124401000Y-59081000D02*
G01*
X123559000Y-59081000D01*
X123559000Y-56579000D01*
X124401000Y-56579000D01*
X124401000Y-59081000D01*
G37*
G36*
X123131000Y-59081000D02*
G01*
X122289000Y-59081000D01*
X122289000Y-56579000D01*
X123131000Y-56579000D01*
X123131000Y-59081000D01*
G37*
G36*
X121861000Y-59081000D02*
G01*
X121019000Y-59081000D01*
X121019000Y-56579000D01*
X121861000Y-56579000D01*
X121861000Y-59081000D01*
G37*
G36*
X120591000Y-59081000D02*
G01*
X119749000Y-59081000D01*
X119749000Y-56579000D01*
X120591000Y-56579000D01*
X120591000Y-59081000D01*
G37*
G36*
X119321000Y-59081000D02*
G01*
X118479000Y-59081000D01*
X118479000Y-56579000D01*
X119321000Y-56579000D01*
X119321000Y-59081000D01*
G37*
G36*
X94401000Y-59081000D02*
G01*
X93559000Y-59081000D01*
X93559000Y-56579000D01*
X94401000Y-56579000D01*
X94401000Y-59081000D01*
G37*
G36*
X93131000Y-59081000D02*
G01*
X92289000Y-59081000D01*
X92289000Y-56579000D01*
X93131000Y-56579000D01*
X93131000Y-59081000D01*
G37*
G36*
X90591000Y-59081000D02*
G01*
X89749000Y-59081000D01*
X89749000Y-56579000D01*
X90591000Y-56579000D01*
X90591000Y-59081000D01*
G37*
G36*
X89321000Y-59081000D02*
G01*
X88479000Y-59081000D01*
X88479000Y-56579000D01*
X89321000Y-56579000D01*
X89321000Y-59081000D01*
G37*
G36*
X153131000Y-59081000D02*
G01*
X152289000Y-59081000D01*
X152289000Y-56579000D01*
X153131000Y-56579000D01*
X153131000Y-59081000D01*
G37*
G36*
X150591000Y-59081000D02*
G01*
X149749000Y-59081000D01*
X149749000Y-56579000D01*
X150591000Y-56579000D01*
X150591000Y-59081000D01*
G37*
G36*
X149321000Y-59081000D02*
G01*
X148479000Y-59081000D01*
X148479000Y-56579000D01*
X149321000Y-56579000D01*
X149321000Y-59081000D01*
G37*
G36*
X102021000Y-58051000D02*
G01*
X100219000Y-58051000D01*
X100219000Y-56249000D01*
X102021000Y-56249000D01*
X102021000Y-58051000D01*
G37*
G36*
X103773512Y-56253927D02*
G01*
X103922812Y-56283624D01*
X104086784Y-56351544D01*
X104234354Y-56450147D01*
X104359853Y-56575646D01*
X104458456Y-56723216D01*
X104526376Y-56887188D01*
X104561000Y-57061259D01*
X104561000Y-57238741D01*
X104526376Y-57412812D01*
X104458456Y-57576784D01*
X104359853Y-57724354D01*
X104234354Y-57849853D01*
X104086784Y-57948456D01*
X103922812Y-58016376D01*
X103773512Y-58046073D01*
X103748742Y-58051000D01*
X103571258Y-58051000D01*
X103546488Y-58046073D01*
X103397188Y-58016376D01*
X103233216Y-57948456D01*
X103085646Y-57849853D01*
X102960147Y-57724354D01*
X102861544Y-57576784D01*
X102793624Y-57412812D01*
X102759000Y-57238741D01*
X102759000Y-57061259D01*
X102793624Y-56887188D01*
X102861544Y-56723216D01*
X102960147Y-56575646D01*
X103085646Y-56450147D01*
X103233216Y-56351544D01*
X103397188Y-56283624D01*
X103546488Y-56253927D01*
X103571258Y-56249000D01*
X103748742Y-56249000D01*
X103773512Y-56253927D01*
G37*
G36*
X141393512Y-56253927D02*
G01*
X141542812Y-56283624D01*
X141706784Y-56351544D01*
X141854354Y-56450147D01*
X141979853Y-56575646D01*
X142078456Y-56723216D01*
X142146376Y-56887188D01*
X142181000Y-57061259D01*
X142181000Y-57238741D01*
X142146376Y-57412812D01*
X142078456Y-57576784D01*
X141979853Y-57724354D01*
X141854354Y-57849853D01*
X141706784Y-57948456D01*
X141542812Y-58016376D01*
X141393512Y-58046073D01*
X141368742Y-58051000D01*
X141191258Y-58051000D01*
X141166488Y-58046073D01*
X141017188Y-58016376D01*
X140853216Y-57948456D01*
X140705646Y-57849853D01*
X140580147Y-57724354D01*
X140481544Y-57576784D01*
X140413624Y-57412812D01*
X140379000Y-57238741D01*
X140379000Y-57061259D01*
X140413624Y-56887188D01*
X140481544Y-56723216D01*
X140580147Y-56575646D01*
X140705646Y-56450147D01*
X140853216Y-56351544D01*
X141017188Y-56283624D01*
X141166488Y-56253927D01*
X141191258Y-56249000D01*
X141368742Y-56249000D01*
X141393512Y-56253927D01*
G37*
G36*
X138853512Y-56253927D02*
G01*
X139002812Y-56283624D01*
X139166784Y-56351544D01*
X139314354Y-56450147D01*
X139439853Y-56575646D01*
X139538456Y-56723216D01*
X139606376Y-56887188D01*
X139641000Y-57061259D01*
X139641000Y-57238741D01*
X139606376Y-57412812D01*
X139538456Y-57576784D01*
X139439853Y-57724354D01*
X139314354Y-57849853D01*
X139166784Y-57948456D01*
X139002812Y-58016376D01*
X138853512Y-58046073D01*
X138828742Y-58051000D01*
X138651258Y-58051000D01*
X138626488Y-58046073D01*
X138477188Y-58016376D01*
X138313216Y-57948456D01*
X138165646Y-57849853D01*
X138040147Y-57724354D01*
X137941544Y-57576784D01*
X137873624Y-57412812D01*
X137839000Y-57238741D01*
X137839000Y-57061259D01*
X137873624Y-56887188D01*
X137941544Y-56723216D01*
X138040147Y-56575646D01*
X138165646Y-56450147D01*
X138313216Y-56351544D01*
X138477188Y-56283624D01*
X138626488Y-56253927D01*
X138651258Y-56249000D01*
X138828742Y-56249000D01*
X138853512Y-56253927D01*
G37*
G36*
X76313512Y-56253927D02*
G01*
X76462812Y-56283624D01*
X76626784Y-56351544D01*
X76774354Y-56450147D01*
X76899853Y-56575646D01*
X76998456Y-56723216D01*
X77066376Y-56887188D01*
X77101000Y-57061259D01*
X77101000Y-57238741D01*
X77066376Y-57412812D01*
X76998456Y-57576784D01*
X76899853Y-57724354D01*
X76774354Y-57849853D01*
X76626784Y-57948456D01*
X76462812Y-58016376D01*
X76313512Y-58046073D01*
X76288742Y-58051000D01*
X76111258Y-58051000D01*
X76086488Y-58046073D01*
X75937188Y-58016376D01*
X75773216Y-57948456D01*
X75625646Y-57849853D01*
X75500147Y-57724354D01*
X75401544Y-57576784D01*
X75333624Y-57412812D01*
X75299000Y-57238741D01*
X75299000Y-57061259D01*
X75333624Y-56887188D01*
X75401544Y-56723216D01*
X75500147Y-56575646D01*
X75625646Y-56450147D01*
X75773216Y-56351544D01*
X75937188Y-56283624D01*
X76086488Y-56253927D01*
X76111258Y-56249000D01*
X76288742Y-56249000D01*
X76313512Y-56253927D01*
G37*
G36*
X136313512Y-56253927D02*
G01*
X136462812Y-56283624D01*
X136626784Y-56351544D01*
X136774354Y-56450147D01*
X136899853Y-56575646D01*
X136998456Y-56723216D01*
X137066376Y-56887188D01*
X137101000Y-57061259D01*
X137101000Y-57238741D01*
X137066376Y-57412812D01*
X136998456Y-57576784D01*
X136899853Y-57724354D01*
X136774354Y-57849853D01*
X136626784Y-57948456D01*
X136462812Y-58016376D01*
X136313512Y-58046073D01*
X136288742Y-58051000D01*
X136111258Y-58051000D01*
X136086488Y-58046073D01*
X135937188Y-58016376D01*
X135773216Y-57948456D01*
X135625646Y-57849853D01*
X135500147Y-57724354D01*
X135401544Y-57576784D01*
X135333624Y-57412812D01*
X135299000Y-57238741D01*
X135299000Y-57061259D01*
X135333624Y-56887188D01*
X135401544Y-56723216D01*
X135500147Y-56575646D01*
X135625646Y-56450147D01*
X135773216Y-56351544D01*
X135937188Y-56283624D01*
X136086488Y-56253927D01*
X136111258Y-56249000D01*
X136288742Y-56249000D01*
X136313512Y-56253927D01*
G37*
G36*
X111393512Y-56253927D02*
G01*
X111542812Y-56283624D01*
X111706784Y-56351544D01*
X111854354Y-56450147D01*
X111979853Y-56575646D01*
X112078456Y-56723216D01*
X112146376Y-56887188D01*
X112181000Y-57061259D01*
X112181000Y-57238741D01*
X112146376Y-57412812D01*
X112078456Y-57576784D01*
X111979853Y-57724354D01*
X111854354Y-57849853D01*
X111706784Y-57948456D01*
X111542812Y-58016376D01*
X111393512Y-58046073D01*
X111368742Y-58051000D01*
X111191258Y-58051000D01*
X111166488Y-58046073D01*
X111017188Y-58016376D01*
X110853216Y-57948456D01*
X110705646Y-57849853D01*
X110580147Y-57724354D01*
X110481544Y-57576784D01*
X110413624Y-57412812D01*
X110379000Y-57238741D01*
X110379000Y-57061259D01*
X110413624Y-56887188D01*
X110481544Y-56723216D01*
X110580147Y-56575646D01*
X110705646Y-56450147D01*
X110853216Y-56351544D01*
X111017188Y-56283624D01*
X111166488Y-56253927D01*
X111191258Y-56249000D01*
X111368742Y-56249000D01*
X111393512Y-56253927D01*
G37*
G36*
X108853512Y-56253927D02*
G01*
X109002812Y-56283624D01*
X109166784Y-56351544D01*
X109314354Y-56450147D01*
X109439853Y-56575646D01*
X109538456Y-56723216D01*
X109606376Y-56887188D01*
X109641000Y-57061259D01*
X109641000Y-57238741D01*
X109606376Y-57412812D01*
X109538456Y-57576784D01*
X109439853Y-57724354D01*
X109314354Y-57849853D01*
X109166784Y-57948456D01*
X109002812Y-58016376D01*
X108853512Y-58046073D01*
X108828742Y-58051000D01*
X108651258Y-58051000D01*
X108626488Y-58046073D01*
X108477188Y-58016376D01*
X108313216Y-57948456D01*
X108165646Y-57849853D01*
X108040147Y-57724354D01*
X107941544Y-57576784D01*
X107873624Y-57412812D01*
X107839000Y-57238741D01*
X107839000Y-57061259D01*
X107873624Y-56887188D01*
X107941544Y-56723216D01*
X108040147Y-56575646D01*
X108165646Y-56450147D01*
X108313216Y-56351544D01*
X108477188Y-56283624D01*
X108626488Y-56253927D01*
X108651258Y-56249000D01*
X108828742Y-56249000D01*
X108853512Y-56253927D01*
G37*
G36*
X72021000Y-58051000D02*
G01*
X70219000Y-58051000D01*
X70219000Y-56249000D01*
X72021000Y-56249000D01*
X72021000Y-58051000D01*
G37*
G36*
X73773512Y-56253927D02*
G01*
X73922812Y-56283624D01*
X74086784Y-56351544D01*
X74234354Y-56450147D01*
X74359853Y-56575646D01*
X74458456Y-56723216D01*
X74526376Y-56887188D01*
X74561000Y-57061259D01*
X74561000Y-57238741D01*
X74526376Y-57412812D01*
X74458456Y-57576784D01*
X74359853Y-57724354D01*
X74234354Y-57849853D01*
X74086784Y-57948456D01*
X73922812Y-58016376D01*
X73773512Y-58046073D01*
X73748742Y-58051000D01*
X73571258Y-58051000D01*
X73546488Y-58046073D01*
X73397188Y-58016376D01*
X73233216Y-57948456D01*
X73085646Y-57849853D01*
X72960147Y-57724354D01*
X72861544Y-57576784D01*
X72793624Y-57412812D01*
X72759000Y-57238741D01*
X72759000Y-57061259D01*
X72793624Y-56887188D01*
X72861544Y-56723216D01*
X72960147Y-56575646D01*
X73085646Y-56450147D01*
X73233216Y-56351544D01*
X73397188Y-56283624D01*
X73546488Y-56253927D01*
X73571258Y-56249000D01*
X73748742Y-56249000D01*
X73773512Y-56253927D01*
G37*
G36*
X78853512Y-56253927D02*
G01*
X79002812Y-56283624D01*
X79166784Y-56351544D01*
X79314354Y-56450147D01*
X79439853Y-56575646D01*
X79538456Y-56723216D01*
X79606376Y-56887188D01*
X79641000Y-57061259D01*
X79641000Y-57238741D01*
X79606376Y-57412812D01*
X79538456Y-57576784D01*
X79439853Y-57724354D01*
X79314354Y-57849853D01*
X79166784Y-57948456D01*
X79002812Y-58016376D01*
X78853512Y-58046073D01*
X78828742Y-58051000D01*
X78651258Y-58051000D01*
X78626488Y-58046073D01*
X78477188Y-58016376D01*
X78313216Y-57948456D01*
X78165646Y-57849853D01*
X78040147Y-57724354D01*
X77941544Y-57576784D01*
X77873624Y-57412812D01*
X77839000Y-57238741D01*
X77839000Y-57061259D01*
X77873624Y-56887188D01*
X77941544Y-56723216D01*
X78040147Y-56575646D01*
X78165646Y-56450147D01*
X78313216Y-56351544D01*
X78477188Y-56283624D01*
X78626488Y-56253927D01*
X78651258Y-56249000D01*
X78828742Y-56249000D01*
X78853512Y-56253927D01*
G37*
G36*
X81393512Y-56253927D02*
G01*
X81542812Y-56283624D01*
X81706784Y-56351544D01*
X81854354Y-56450147D01*
X81979853Y-56575646D01*
X82078456Y-56723216D01*
X82146376Y-56887188D01*
X82181000Y-57061259D01*
X82181000Y-57238741D01*
X82146376Y-57412812D01*
X82078456Y-57576784D01*
X81979853Y-57724354D01*
X81854354Y-57849853D01*
X81706784Y-57948456D01*
X81542812Y-58016376D01*
X81393512Y-58046073D01*
X81368742Y-58051000D01*
X81191258Y-58051000D01*
X81166488Y-58046073D01*
X81017188Y-58016376D01*
X80853216Y-57948456D01*
X80705646Y-57849853D01*
X80580147Y-57724354D01*
X80481544Y-57576784D01*
X80413624Y-57412812D01*
X80379000Y-57238741D01*
X80379000Y-57061259D01*
X80413624Y-56887188D01*
X80481544Y-56723216D01*
X80580147Y-56575646D01*
X80705646Y-56450147D01*
X80853216Y-56351544D01*
X81017188Y-56283624D01*
X81166488Y-56253927D01*
X81191258Y-56249000D01*
X81368742Y-56249000D01*
X81393512Y-56253927D01*
G37*
G36*
X132021000Y-58051000D02*
G01*
X130219000Y-58051000D01*
X130219000Y-56249000D01*
X132021000Y-56249000D01*
X132021000Y-58051000D01*
G37*
G36*
X106313512Y-56253927D02*
G01*
X106462812Y-56283624D01*
X106626784Y-56351544D01*
X106774354Y-56450147D01*
X106899853Y-56575646D01*
X106998456Y-56723216D01*
X107066376Y-56887188D01*
X107101000Y-57061259D01*
X107101000Y-57238741D01*
X107066376Y-57412812D01*
X106998456Y-57576784D01*
X106899853Y-57724354D01*
X106774354Y-57849853D01*
X106626784Y-57948456D01*
X106462812Y-58016376D01*
X106313512Y-58046073D01*
X106288742Y-58051000D01*
X106111258Y-58051000D01*
X106086488Y-58046073D01*
X105937188Y-58016376D01*
X105773216Y-57948456D01*
X105625646Y-57849853D01*
X105500147Y-57724354D01*
X105401544Y-57576784D01*
X105333624Y-57412812D01*
X105299000Y-57238741D01*
X105299000Y-57061259D01*
X105333624Y-56887188D01*
X105401544Y-56723216D01*
X105500147Y-56575646D01*
X105625646Y-56450147D01*
X105773216Y-56351544D01*
X105937188Y-56283624D01*
X106086488Y-56253927D01*
X106111258Y-56249000D01*
X106288742Y-56249000D01*
X106313512Y-56253927D01*
G37*
G36*
X133773512Y-56253927D02*
G01*
X133922812Y-56283624D01*
X134086784Y-56351544D01*
X134234354Y-56450147D01*
X134359853Y-56575646D01*
X134458456Y-56723216D01*
X134526376Y-56887188D01*
X134561000Y-57061259D01*
X134561000Y-57238741D01*
X134526376Y-57412812D01*
X134458456Y-57576784D01*
X134359853Y-57724354D01*
X134234354Y-57849853D01*
X134086784Y-57948456D01*
X133922812Y-58016376D01*
X133773512Y-58046073D01*
X133748742Y-58051000D01*
X133571258Y-58051000D01*
X133546488Y-58046073D01*
X133397188Y-58016376D01*
X133233216Y-57948456D01*
X133085646Y-57849853D01*
X132960147Y-57724354D01*
X132861544Y-57576784D01*
X132793624Y-57412812D01*
X132759000Y-57238741D01*
X132759000Y-57061259D01*
X132793624Y-56887188D01*
X132861544Y-56723216D01*
X132960147Y-56575646D01*
X133085646Y-56450147D01*
X133233216Y-56351544D01*
X133397188Y-56283624D01*
X133546488Y-56253927D01*
X133571258Y-56249000D01*
X133748742Y-56249000D01*
X133773512Y-56253927D01*
G37*
G36*
X81393512Y-53713927D02*
G01*
X81542812Y-53743624D01*
X81706784Y-53811544D01*
X81854354Y-53910147D01*
X81979853Y-54035646D01*
X82078456Y-54183216D01*
X82146376Y-54347188D01*
X82181000Y-54521259D01*
X82181000Y-54698741D01*
X82146376Y-54872812D01*
X82078456Y-55036784D01*
X81979853Y-55184354D01*
X81854354Y-55309853D01*
X81706784Y-55408456D01*
X81542812Y-55476376D01*
X81393512Y-55506073D01*
X81368742Y-55511000D01*
X81191258Y-55511000D01*
X81166488Y-55506073D01*
X81017188Y-55476376D01*
X80853216Y-55408456D01*
X80705646Y-55309853D01*
X80580147Y-55184354D01*
X80481544Y-55036784D01*
X80413624Y-54872812D01*
X80379000Y-54698741D01*
X80379000Y-54521259D01*
X80413624Y-54347188D01*
X80481544Y-54183216D01*
X80580147Y-54035646D01*
X80705646Y-53910147D01*
X80853216Y-53811544D01*
X81017188Y-53743624D01*
X81166488Y-53713927D01*
X81191258Y-53709000D01*
X81368742Y-53709000D01*
X81393512Y-53713927D01*
G37*
G36*
X76313512Y-53713927D02*
G01*
X76462812Y-53743624D01*
X76626784Y-53811544D01*
X76774354Y-53910147D01*
X76899853Y-54035646D01*
X76998456Y-54183216D01*
X77066376Y-54347188D01*
X77101000Y-54521259D01*
X77101000Y-54698741D01*
X77066376Y-54872812D01*
X76998456Y-55036784D01*
X76899853Y-55184354D01*
X76774354Y-55309853D01*
X76626784Y-55408456D01*
X76462812Y-55476376D01*
X76313512Y-55506073D01*
X76288742Y-55511000D01*
X76111258Y-55511000D01*
X76086488Y-55506073D01*
X75937188Y-55476376D01*
X75773216Y-55408456D01*
X75625646Y-55309853D01*
X75500147Y-55184354D01*
X75401544Y-55036784D01*
X75333624Y-54872812D01*
X75299000Y-54698741D01*
X75299000Y-54521259D01*
X75333624Y-54347188D01*
X75401544Y-54183216D01*
X75500147Y-54035646D01*
X75625646Y-53910147D01*
X75773216Y-53811544D01*
X75937188Y-53743624D01*
X76086488Y-53713927D01*
X76111258Y-53709000D01*
X76288742Y-53709000D01*
X76313512Y-53713927D01*
G37*
G36*
X78853512Y-53713927D02*
G01*
X79002812Y-53743624D01*
X79166784Y-53811544D01*
X79314354Y-53910147D01*
X79439853Y-54035646D01*
X79538456Y-54183216D01*
X79606376Y-54347188D01*
X79641000Y-54521259D01*
X79641000Y-54698741D01*
X79606376Y-54872812D01*
X79538456Y-55036784D01*
X79439853Y-55184354D01*
X79314354Y-55309853D01*
X79166784Y-55408456D01*
X79002812Y-55476376D01*
X78853512Y-55506073D01*
X78828742Y-55511000D01*
X78651258Y-55511000D01*
X78626488Y-55506073D01*
X78477188Y-55476376D01*
X78313216Y-55408456D01*
X78165646Y-55309853D01*
X78040147Y-55184354D01*
X77941544Y-55036784D01*
X77873624Y-54872812D01*
X77839000Y-54698741D01*
X77839000Y-54521259D01*
X77873624Y-54347188D01*
X77941544Y-54183216D01*
X78040147Y-54035646D01*
X78165646Y-53910147D01*
X78313216Y-53811544D01*
X78477188Y-53743624D01*
X78626488Y-53713927D01*
X78651258Y-53709000D01*
X78828742Y-53709000D01*
X78853512Y-53713927D01*
G37*
G36*
X73773512Y-53713927D02*
G01*
X73922812Y-53743624D01*
X74086784Y-53811544D01*
X74234354Y-53910147D01*
X74359853Y-54035646D01*
X74458456Y-54183216D01*
X74526376Y-54347188D01*
X74561000Y-54521259D01*
X74561000Y-54698741D01*
X74526376Y-54872812D01*
X74458456Y-55036784D01*
X74359853Y-55184354D01*
X74234354Y-55309853D01*
X74086784Y-55408456D01*
X73922812Y-55476376D01*
X73773512Y-55506073D01*
X73748742Y-55511000D01*
X73571258Y-55511000D01*
X73546488Y-55506073D01*
X73397188Y-55476376D01*
X73233216Y-55408456D01*
X73085646Y-55309853D01*
X72960147Y-55184354D01*
X72861544Y-55036784D01*
X72793624Y-54872812D01*
X72759000Y-54698741D01*
X72759000Y-54521259D01*
X72793624Y-54347188D01*
X72861544Y-54183216D01*
X72960147Y-54035646D01*
X73085646Y-53910147D01*
X73233216Y-53811544D01*
X73397188Y-53743624D01*
X73546488Y-53713927D01*
X73571258Y-53709000D01*
X73748742Y-53709000D01*
X73773512Y-53713927D01*
G37*
G36*
X71233512Y-53713927D02*
G01*
X71382812Y-53743624D01*
X71546784Y-53811544D01*
X71694354Y-53910147D01*
X71819853Y-54035646D01*
X71918456Y-54183216D01*
X71986376Y-54347188D01*
X72021000Y-54521259D01*
X72021000Y-54698741D01*
X71986376Y-54872812D01*
X71918456Y-55036784D01*
X71819853Y-55184354D01*
X71694354Y-55309853D01*
X71546784Y-55408456D01*
X71382812Y-55476376D01*
X71233512Y-55506073D01*
X71208742Y-55511000D01*
X71031258Y-55511000D01*
X71006488Y-55506073D01*
X70857188Y-55476376D01*
X70693216Y-55408456D01*
X70545646Y-55309853D01*
X70420147Y-55184354D01*
X70321544Y-55036784D01*
X70253624Y-54872812D01*
X70219000Y-54698741D01*
X70219000Y-54521259D01*
X70253624Y-54347188D01*
X70321544Y-54183216D01*
X70420147Y-54035646D01*
X70545646Y-53910147D01*
X70693216Y-53811544D01*
X70857188Y-53743624D01*
X71006488Y-53713927D01*
X71031258Y-53709000D01*
X71208742Y-53709000D01*
X71233512Y-53713927D01*
G37*
G36*
X108853512Y-53713927D02*
G01*
X109002812Y-53743624D01*
X109166784Y-53811544D01*
X109314354Y-53910147D01*
X109439853Y-54035646D01*
X109538456Y-54183216D01*
X109606376Y-54347188D01*
X109641000Y-54521259D01*
X109641000Y-54698741D01*
X109606376Y-54872812D01*
X109538456Y-55036784D01*
X109439853Y-55184354D01*
X109314354Y-55309853D01*
X109166784Y-55408456D01*
X109002812Y-55476376D01*
X108853512Y-55506073D01*
X108828742Y-55511000D01*
X108651258Y-55511000D01*
X108626488Y-55506073D01*
X108477188Y-55476376D01*
X108313216Y-55408456D01*
X108165646Y-55309853D01*
X108040147Y-55184354D01*
X107941544Y-55036784D01*
X107873624Y-54872812D01*
X107839000Y-54698741D01*
X107839000Y-54521259D01*
X107873624Y-54347188D01*
X107941544Y-54183216D01*
X108040147Y-54035646D01*
X108165646Y-53910147D01*
X108313216Y-53811544D01*
X108477188Y-53743624D01*
X108626488Y-53713927D01*
X108651258Y-53709000D01*
X108828742Y-53709000D01*
X108853512Y-53713927D01*
G37*
G36*
X103773512Y-53713927D02*
G01*
X103922812Y-53743624D01*
X104086784Y-53811544D01*
X104234354Y-53910147D01*
X104359853Y-54035646D01*
X104458456Y-54183216D01*
X104526376Y-54347188D01*
X104561000Y-54521259D01*
X104561000Y-54698741D01*
X104526376Y-54872812D01*
X104458456Y-55036784D01*
X104359853Y-55184354D01*
X104234354Y-55309853D01*
X104086784Y-55408456D01*
X103922812Y-55476376D01*
X103773512Y-55506073D01*
X103748742Y-55511000D01*
X103571258Y-55511000D01*
X103546488Y-55506073D01*
X103397188Y-55476376D01*
X103233216Y-55408456D01*
X103085646Y-55309853D01*
X102960147Y-55184354D01*
X102861544Y-55036784D01*
X102793624Y-54872812D01*
X102759000Y-54698741D01*
X102759000Y-54521259D01*
X102793624Y-54347188D01*
X102861544Y-54183216D01*
X102960147Y-54035646D01*
X103085646Y-53910147D01*
X103233216Y-53811544D01*
X103397188Y-53743624D01*
X103546488Y-53713927D01*
X103571258Y-53709000D01*
X103748742Y-53709000D01*
X103773512Y-53713927D01*
G37*
G36*
X141393512Y-53713927D02*
G01*
X141542812Y-53743624D01*
X141706784Y-53811544D01*
X141854354Y-53910147D01*
X141979853Y-54035646D01*
X142078456Y-54183216D01*
X142146376Y-54347188D01*
X142181000Y-54521259D01*
X142181000Y-54698741D01*
X142146376Y-54872812D01*
X142078456Y-55036784D01*
X141979853Y-55184354D01*
X141854354Y-55309853D01*
X141706784Y-55408456D01*
X141542812Y-55476376D01*
X141393512Y-55506073D01*
X141368742Y-55511000D01*
X141191258Y-55511000D01*
X141166488Y-55506073D01*
X141017188Y-55476376D01*
X140853216Y-55408456D01*
X140705646Y-55309853D01*
X140580147Y-55184354D01*
X140481544Y-55036784D01*
X140413624Y-54872812D01*
X140379000Y-54698741D01*
X140379000Y-54521259D01*
X140413624Y-54347188D01*
X140481544Y-54183216D01*
X140580147Y-54035646D01*
X140705646Y-53910147D01*
X140853216Y-53811544D01*
X141017188Y-53743624D01*
X141166488Y-53713927D01*
X141191258Y-53709000D01*
X141368742Y-53709000D01*
X141393512Y-53713927D01*
G37*
G36*
X138853512Y-53713927D02*
G01*
X139002812Y-53743624D01*
X139166784Y-53811544D01*
X139314354Y-53910147D01*
X139439853Y-54035646D01*
X139538456Y-54183216D01*
X139606376Y-54347188D01*
X139641000Y-54521259D01*
X139641000Y-54698741D01*
X139606376Y-54872812D01*
X139538456Y-55036784D01*
X139439853Y-55184354D01*
X139314354Y-55309853D01*
X139166784Y-55408456D01*
X139002812Y-55476376D01*
X138853512Y-55506073D01*
X138828742Y-55511000D01*
X138651258Y-55511000D01*
X138626488Y-55506073D01*
X138477188Y-55476376D01*
X138313216Y-55408456D01*
X138165646Y-55309853D01*
X138040147Y-55184354D01*
X137941544Y-55036784D01*
X137873624Y-54872812D01*
X137839000Y-54698741D01*
X137839000Y-54521259D01*
X137873624Y-54347188D01*
X137941544Y-54183216D01*
X138040147Y-54035646D01*
X138165646Y-53910147D01*
X138313216Y-53811544D01*
X138477188Y-53743624D01*
X138626488Y-53713927D01*
X138651258Y-53709000D01*
X138828742Y-53709000D01*
X138853512Y-53713927D01*
G37*
G36*
X136313512Y-53713927D02*
G01*
X136462812Y-53743624D01*
X136626784Y-53811544D01*
X136774354Y-53910147D01*
X136899853Y-54035646D01*
X136998456Y-54183216D01*
X137066376Y-54347188D01*
X137101000Y-54521259D01*
X137101000Y-54698741D01*
X137066376Y-54872812D01*
X136998456Y-55036784D01*
X136899853Y-55184354D01*
X136774354Y-55309853D01*
X136626784Y-55408456D01*
X136462812Y-55476376D01*
X136313512Y-55506073D01*
X136288742Y-55511000D01*
X136111258Y-55511000D01*
X136086488Y-55506073D01*
X135937188Y-55476376D01*
X135773216Y-55408456D01*
X135625646Y-55309853D01*
X135500147Y-55184354D01*
X135401544Y-55036784D01*
X135333624Y-54872812D01*
X135299000Y-54698741D01*
X135299000Y-54521259D01*
X135333624Y-54347188D01*
X135401544Y-54183216D01*
X135500147Y-54035646D01*
X135625646Y-53910147D01*
X135773216Y-53811544D01*
X135937188Y-53743624D01*
X136086488Y-53713927D01*
X136111258Y-53709000D01*
X136288742Y-53709000D01*
X136313512Y-53713927D01*
G37*
G36*
X133773512Y-53713927D02*
G01*
X133922812Y-53743624D01*
X134086784Y-53811544D01*
X134234354Y-53910147D01*
X134359853Y-54035646D01*
X134458456Y-54183216D01*
X134526376Y-54347188D01*
X134561000Y-54521259D01*
X134561000Y-54698741D01*
X134526376Y-54872812D01*
X134458456Y-55036784D01*
X134359853Y-55184354D01*
X134234354Y-55309853D01*
X134086784Y-55408456D01*
X133922812Y-55476376D01*
X133773512Y-55506073D01*
X133748742Y-55511000D01*
X133571258Y-55511000D01*
X133546488Y-55506073D01*
X133397188Y-55476376D01*
X133233216Y-55408456D01*
X133085646Y-55309853D01*
X132960147Y-55184354D01*
X132861544Y-55036784D01*
X132793624Y-54872812D01*
X132759000Y-54698741D01*
X132759000Y-54521259D01*
X132793624Y-54347188D01*
X132861544Y-54183216D01*
X132960147Y-54035646D01*
X133085646Y-53910147D01*
X133233216Y-53811544D01*
X133397188Y-53743624D01*
X133546488Y-53713927D01*
X133571258Y-53709000D01*
X133748742Y-53709000D01*
X133773512Y-53713927D01*
G37*
G36*
X131233512Y-53713927D02*
G01*
X131382812Y-53743624D01*
X131546784Y-53811544D01*
X131694354Y-53910147D01*
X131819853Y-54035646D01*
X131918456Y-54183216D01*
X131986376Y-54347188D01*
X132021000Y-54521259D01*
X132021000Y-54698741D01*
X131986376Y-54872812D01*
X131918456Y-55036784D01*
X131819853Y-55184354D01*
X131694354Y-55309853D01*
X131546784Y-55408456D01*
X131382812Y-55476376D01*
X131233512Y-55506073D01*
X131208742Y-55511000D01*
X131031258Y-55511000D01*
X131006488Y-55506073D01*
X130857188Y-55476376D01*
X130693216Y-55408456D01*
X130545646Y-55309853D01*
X130420147Y-55184354D01*
X130321544Y-55036784D01*
X130253624Y-54872812D01*
X130219000Y-54698741D01*
X130219000Y-54521259D01*
X130253624Y-54347188D01*
X130321544Y-54183216D01*
X130420147Y-54035646D01*
X130545646Y-53910147D01*
X130693216Y-53811544D01*
X130857188Y-53743624D01*
X131006488Y-53713927D01*
X131031258Y-53709000D01*
X131208742Y-53709000D01*
X131233512Y-53713927D01*
G37*
G36*
X111393512Y-53713927D02*
G01*
X111542812Y-53743624D01*
X111706784Y-53811544D01*
X111854354Y-53910147D01*
X111979853Y-54035646D01*
X112078456Y-54183216D01*
X112146376Y-54347188D01*
X112181000Y-54521259D01*
X112181000Y-54698741D01*
X112146376Y-54872812D01*
X112078456Y-55036784D01*
X111979853Y-55184354D01*
X111854354Y-55309853D01*
X111706784Y-55408456D01*
X111542812Y-55476376D01*
X111393512Y-55506073D01*
X111368742Y-55511000D01*
X111191258Y-55511000D01*
X111166488Y-55506073D01*
X111017188Y-55476376D01*
X110853216Y-55408456D01*
X110705646Y-55309853D01*
X110580147Y-55184354D01*
X110481544Y-55036784D01*
X110413624Y-54872812D01*
X110379000Y-54698741D01*
X110379000Y-54521259D01*
X110413624Y-54347188D01*
X110481544Y-54183216D01*
X110580147Y-54035646D01*
X110705646Y-53910147D01*
X110853216Y-53811544D01*
X111017188Y-53743624D01*
X111166488Y-53713927D01*
X111191258Y-53709000D01*
X111368742Y-53709000D01*
X111393512Y-53713927D01*
G37*
G36*
X101233512Y-53713927D02*
G01*
X101382812Y-53743624D01*
X101546784Y-53811544D01*
X101694354Y-53910147D01*
X101819853Y-54035646D01*
X101918456Y-54183216D01*
X101986376Y-54347188D01*
X102021000Y-54521259D01*
X102021000Y-54698741D01*
X101986376Y-54872812D01*
X101918456Y-55036784D01*
X101819853Y-55184354D01*
X101694354Y-55309853D01*
X101546784Y-55408456D01*
X101382812Y-55476376D01*
X101233512Y-55506073D01*
X101208742Y-55511000D01*
X101031258Y-55511000D01*
X101006488Y-55506073D01*
X100857188Y-55476376D01*
X100693216Y-55408456D01*
X100545646Y-55309853D01*
X100420147Y-55184354D01*
X100321544Y-55036784D01*
X100253624Y-54872812D01*
X100219000Y-54698741D01*
X100219000Y-54521259D01*
X100253624Y-54347188D01*
X100321544Y-54183216D01*
X100420147Y-54035646D01*
X100545646Y-53910147D01*
X100693216Y-53811544D01*
X100857188Y-53743624D01*
X101006488Y-53713927D01*
X101031258Y-53709000D01*
X101208742Y-53709000D01*
X101233512Y-53713927D01*
G37*
G36*
X106313512Y-53713927D02*
G01*
X106462812Y-53743624D01*
X106626784Y-53811544D01*
X106774354Y-53910147D01*
X106899853Y-54035646D01*
X106998456Y-54183216D01*
X107066376Y-54347188D01*
X107101000Y-54521259D01*
X107101000Y-54698741D01*
X107066376Y-54872812D01*
X106998456Y-55036784D01*
X106899853Y-55184354D01*
X106774354Y-55309853D01*
X106626784Y-55408456D01*
X106462812Y-55476376D01*
X106313512Y-55506073D01*
X106288742Y-55511000D01*
X106111258Y-55511000D01*
X106086488Y-55506073D01*
X105937188Y-55476376D01*
X105773216Y-55408456D01*
X105625646Y-55309853D01*
X105500147Y-55184354D01*
X105401544Y-55036784D01*
X105333624Y-54872812D01*
X105299000Y-54698741D01*
X105299000Y-54521259D01*
X105333624Y-54347188D01*
X105401544Y-54183216D01*
X105500147Y-54035646D01*
X105625646Y-53910147D01*
X105773216Y-53811544D01*
X105937188Y-53743624D01*
X106086488Y-53713927D01*
X106111258Y-53709000D01*
X106288742Y-53709000D01*
X106313512Y-53713927D01*
G37*
G36*
X93131000Y-55181000D02*
G01*
X92289000Y-55181000D01*
X92289000Y-52679000D01*
X93131000Y-52679000D01*
X93131000Y-55181000D01*
G37*
G36*
X119321000Y-55181000D02*
G01*
X118479000Y-55181000D01*
X118479000Y-52679000D01*
X119321000Y-52679000D01*
X119321000Y-55181000D01*
G37*
G36*
X91861000Y-55181000D02*
G01*
X91019000Y-55181000D01*
X91019000Y-52679000D01*
X91861000Y-52679000D01*
X91861000Y-55181000D01*
G37*
G36*
X94401000Y-55181000D02*
G01*
X93559000Y-55181000D01*
X93559000Y-52679000D01*
X94401000Y-52679000D01*
X94401000Y-55181000D01*
G37*
G36*
X150591000Y-55181000D02*
G01*
X149749000Y-55181000D01*
X149749000Y-52679000D01*
X150591000Y-52679000D01*
X150591000Y-55181000D01*
G37*
G36*
X151861000Y-55181000D02*
G01*
X151019000Y-55181000D01*
X151019000Y-52679000D01*
X151861000Y-52679000D01*
X151861000Y-55181000D01*
G37*
G36*
X90591000Y-55181000D02*
G01*
X89749000Y-55181000D01*
X89749000Y-52679000D01*
X90591000Y-52679000D01*
X90591000Y-55181000D01*
G37*
G36*
X120591000Y-55181000D02*
G01*
X119749000Y-55181000D01*
X119749000Y-52679000D01*
X120591000Y-52679000D01*
X120591000Y-55181000D01*
G37*
G36*
X89321000Y-55181000D02*
G01*
X88479000Y-55181000D01*
X88479000Y-52679000D01*
X89321000Y-52679000D01*
X89321000Y-55181000D01*
G37*
G36*
X149321000Y-55181000D02*
G01*
X148479000Y-55181000D01*
X148479000Y-52679000D01*
X149321000Y-52679000D01*
X149321000Y-55181000D01*
G37*
G36*
X121861000Y-55181000D02*
G01*
X121019000Y-55181000D01*
X121019000Y-52679000D01*
X121861000Y-52679000D01*
X121861000Y-55181000D01*
G37*
G36*
X153131000Y-55181000D02*
G01*
X152289000Y-55181000D01*
X152289000Y-52679000D01*
X153131000Y-52679000D01*
X153131000Y-55181000D01*
G37*
G36*
X124401000Y-55181000D02*
G01*
X123559000Y-55181000D01*
X123559000Y-52679000D01*
X124401000Y-52679000D01*
X124401000Y-55181000D01*
G37*
G36*
X123131000Y-55181000D02*
G01*
X122289000Y-55181000D01*
X122289000Y-52679000D01*
X123131000Y-52679000D01*
X123131000Y-55181000D01*
G37*
G36*
X154401000Y-55181000D02*
G01*
X153559000Y-55181000D01*
X153559000Y-52679000D01*
X154401000Y-52679000D01*
X154401000Y-55181000D01*
G37*
M02*
