G04 #@! TF.GenerationSoftware,KiCad,Pcbnew,5.1.5-52549c5~86~ubuntu18.04.1*
G04 #@! TF.CreationDate,2020-06-02T18:41:45-05:00*
G04 #@! TF.ProjectId,adap_127_254_panel,61646170-5f31-4323-975f-3235345f7061,rev?*
G04 #@! TF.SameCoordinates,Original*
G04 #@! TF.FileFunction,Copper,L1,Top*
G04 #@! TF.FilePolarity,Positive*
%FSLAX46Y46*%
G04 Gerber Fmt 4.6, Leading zero omitted, Abs format (unit mm)*
G04 Created by KiCad (PCBNEW 5.1.5-52549c5~86~ubuntu18.04.1) date 2020-06-02 18:41:45*
%MOMM*%
%LPD*%
G04 APERTURE LIST*
%ADD10R,1.700000X1.700000*%
%ADD11O,1.700000X1.700000*%
%ADD12R,0.740000X2.400000*%
%ADD13C,0.800000*%
%ADD14C,0.500000*%
G04 APERTURE END LIST*
D10*
X131120000Y-132150000D03*
D11*
X131120000Y-129610000D03*
X133660000Y-132150000D03*
X133660000Y-129610000D03*
X136200000Y-132150000D03*
X136200000Y-129610000D03*
X138740000Y-132150000D03*
X138740000Y-129610000D03*
X141280000Y-132150000D03*
X141280000Y-129610000D03*
D10*
X101120000Y-132150000D03*
D11*
X101120000Y-129610000D03*
X103660000Y-132150000D03*
X103660000Y-129610000D03*
X106200000Y-132150000D03*
X106200000Y-129610000D03*
X108740000Y-132150000D03*
X108740000Y-129610000D03*
X111280000Y-132150000D03*
X111280000Y-129610000D03*
D10*
X71120000Y-132150000D03*
D11*
X71120000Y-129610000D03*
X73660000Y-132150000D03*
X73660000Y-129610000D03*
X76200000Y-132150000D03*
X76200000Y-129610000D03*
X78740000Y-132150000D03*
X78740000Y-129610000D03*
X81280000Y-132150000D03*
X81280000Y-129610000D03*
D10*
X131120000Y-117150000D03*
D11*
X131120000Y-114610000D03*
X133660000Y-117150000D03*
X133660000Y-114610000D03*
X136200000Y-117150000D03*
X136200000Y-114610000D03*
X138740000Y-117150000D03*
X138740000Y-114610000D03*
X141280000Y-117150000D03*
X141280000Y-114610000D03*
D10*
X101120000Y-117150000D03*
D11*
X101120000Y-114610000D03*
X103660000Y-117150000D03*
X103660000Y-114610000D03*
X106200000Y-117150000D03*
X106200000Y-114610000D03*
X108740000Y-117150000D03*
X108740000Y-114610000D03*
X111280000Y-117150000D03*
X111280000Y-114610000D03*
D10*
X71120000Y-117150000D03*
D11*
X71120000Y-114610000D03*
X73660000Y-117150000D03*
X73660000Y-114610000D03*
X76200000Y-117150000D03*
X76200000Y-114610000D03*
X78740000Y-117150000D03*
X78740000Y-114610000D03*
X81280000Y-117150000D03*
X81280000Y-114610000D03*
D10*
X131120000Y-102150000D03*
D11*
X131120000Y-99610000D03*
X133660000Y-102150000D03*
X133660000Y-99610000D03*
X136200000Y-102150000D03*
X136200000Y-99610000D03*
X138740000Y-102150000D03*
X138740000Y-99610000D03*
X141280000Y-102150000D03*
X141280000Y-99610000D03*
D10*
X101120000Y-102150000D03*
D11*
X101120000Y-99610000D03*
X103660000Y-102150000D03*
X103660000Y-99610000D03*
X106200000Y-102150000D03*
X106200000Y-99610000D03*
X108740000Y-102150000D03*
X108740000Y-99610000D03*
X111280000Y-102150000D03*
X111280000Y-99610000D03*
D10*
X71120000Y-102150000D03*
D11*
X71120000Y-99610000D03*
X73660000Y-102150000D03*
X73660000Y-99610000D03*
X76200000Y-102150000D03*
X76200000Y-99610000D03*
X78740000Y-102150000D03*
X78740000Y-99610000D03*
X81280000Y-102150000D03*
X81280000Y-99610000D03*
D10*
X131120000Y-87150000D03*
D11*
X131120000Y-84610000D03*
X133660000Y-87150000D03*
X133660000Y-84610000D03*
X136200000Y-87150000D03*
X136200000Y-84610000D03*
X138740000Y-87150000D03*
X138740000Y-84610000D03*
X141280000Y-87150000D03*
X141280000Y-84610000D03*
D10*
X101120000Y-87150000D03*
D11*
X101120000Y-84610000D03*
X103660000Y-87150000D03*
X103660000Y-84610000D03*
X106200000Y-87150000D03*
X106200000Y-84610000D03*
X108740000Y-87150000D03*
X108740000Y-84610000D03*
X111280000Y-87150000D03*
X111280000Y-84610000D03*
D10*
X71120000Y-87150000D03*
D11*
X71120000Y-84610000D03*
X73660000Y-87150000D03*
X73660000Y-84610000D03*
X76200000Y-87150000D03*
X76200000Y-84610000D03*
X78740000Y-87150000D03*
X78740000Y-84610000D03*
X81280000Y-87150000D03*
X81280000Y-84610000D03*
D10*
X131120000Y-72150000D03*
D11*
X131120000Y-69610000D03*
X133660000Y-72150000D03*
X133660000Y-69610000D03*
X136200000Y-72150000D03*
X136200000Y-69610000D03*
X138740000Y-72150000D03*
X138740000Y-69610000D03*
X141280000Y-72150000D03*
X141280000Y-69610000D03*
D10*
X101120000Y-72150000D03*
D11*
X101120000Y-69610000D03*
X103660000Y-72150000D03*
X103660000Y-69610000D03*
X106200000Y-72150000D03*
X106200000Y-69610000D03*
X108740000Y-72150000D03*
X108740000Y-69610000D03*
X111280000Y-72150000D03*
X111280000Y-69610000D03*
D10*
X71120000Y-72150000D03*
D11*
X71120000Y-69610000D03*
X73660000Y-72150000D03*
X73660000Y-69610000D03*
X76200000Y-72150000D03*
X76200000Y-69610000D03*
X78740000Y-72150000D03*
X78740000Y-69610000D03*
X81280000Y-72150000D03*
X81280000Y-69610000D03*
D10*
X131120000Y-57150000D03*
D11*
X131120000Y-54610000D03*
X133660000Y-57150000D03*
X133660000Y-54610000D03*
X136200000Y-57150000D03*
X136200000Y-54610000D03*
X138740000Y-57150000D03*
X138740000Y-54610000D03*
X141280000Y-57150000D03*
X141280000Y-54610000D03*
D10*
X101120000Y-57150000D03*
D11*
X101120000Y-54610000D03*
X103660000Y-57150000D03*
X103660000Y-54610000D03*
X106200000Y-57150000D03*
X106200000Y-54610000D03*
X108740000Y-57150000D03*
X108740000Y-54610000D03*
X111280000Y-57150000D03*
X111280000Y-54610000D03*
D12*
X148900000Y-132830000D03*
X148900000Y-128930000D03*
X150170000Y-132830000D03*
X150170000Y-128930000D03*
X151440000Y-132830000D03*
X151440000Y-128930000D03*
X152710000Y-132830000D03*
X152710000Y-128930000D03*
X153980000Y-132830000D03*
X153980000Y-128930000D03*
X118900000Y-132830000D03*
X118900000Y-128930000D03*
X120170000Y-132830000D03*
X120170000Y-128930000D03*
X121440000Y-132830000D03*
X121440000Y-128930000D03*
X122710000Y-132830000D03*
X122710000Y-128930000D03*
X123980000Y-132830000D03*
X123980000Y-128930000D03*
X88900000Y-132830000D03*
X88900000Y-128930000D03*
X90170000Y-132830000D03*
X90170000Y-128930000D03*
X91440000Y-132830000D03*
X91440000Y-128930000D03*
X92710000Y-132830000D03*
X92710000Y-128930000D03*
X93980000Y-132830000D03*
X93980000Y-128930000D03*
X148900000Y-117830000D03*
X148900000Y-113930000D03*
X150170000Y-117830000D03*
X150170000Y-113930000D03*
X151440000Y-117830000D03*
X151440000Y-113930000D03*
X152710000Y-117830000D03*
X152710000Y-113930000D03*
X153980000Y-117830000D03*
X153980000Y-113930000D03*
X118900000Y-117830000D03*
X118900000Y-113930000D03*
X120170000Y-117830000D03*
X120170000Y-113930000D03*
X121440000Y-117830000D03*
X121440000Y-113930000D03*
X122710000Y-117830000D03*
X122710000Y-113930000D03*
X123980000Y-117830000D03*
X123980000Y-113930000D03*
X88900000Y-117830000D03*
X88900000Y-113930000D03*
X90170000Y-117830000D03*
X90170000Y-113930000D03*
X91440000Y-117830000D03*
X91440000Y-113930000D03*
X92710000Y-117830000D03*
X92710000Y-113930000D03*
X93980000Y-117830000D03*
X93980000Y-113930000D03*
X148900000Y-102830000D03*
X148900000Y-98930000D03*
X150170000Y-102830000D03*
X150170000Y-98930000D03*
X151440000Y-102830000D03*
X151440000Y-98930000D03*
X152710000Y-102830000D03*
X152710000Y-98930000D03*
X153980000Y-102830000D03*
X153980000Y-98930000D03*
X118900000Y-102830000D03*
X118900000Y-98930000D03*
X120170000Y-102830000D03*
X120170000Y-98930000D03*
X121440000Y-102830000D03*
X121440000Y-98930000D03*
X122710000Y-102830000D03*
X122710000Y-98930000D03*
X123980000Y-102830000D03*
X123980000Y-98930000D03*
X88900000Y-102830000D03*
X88900000Y-98930000D03*
X90170000Y-102830000D03*
X90170000Y-98930000D03*
X91440000Y-102830000D03*
X91440000Y-98930000D03*
X92710000Y-102830000D03*
X92710000Y-98930000D03*
X93980000Y-102830000D03*
X93980000Y-98930000D03*
X148900000Y-87830000D03*
X148900000Y-83930000D03*
X150170000Y-87830000D03*
X150170000Y-83930000D03*
X151440000Y-87830000D03*
X151440000Y-83930000D03*
X152710000Y-87830000D03*
X152710000Y-83930000D03*
X153980000Y-87830000D03*
X153980000Y-83930000D03*
X118900000Y-87830000D03*
X118900000Y-83930000D03*
X120170000Y-87830000D03*
X120170000Y-83930000D03*
X121440000Y-87830000D03*
X121440000Y-83930000D03*
X122710000Y-87830000D03*
X122710000Y-83930000D03*
X123980000Y-87830000D03*
X123980000Y-83930000D03*
X88900000Y-87830000D03*
X88900000Y-83930000D03*
X90170000Y-87830000D03*
X90170000Y-83930000D03*
X91440000Y-87830000D03*
X91440000Y-83930000D03*
X92710000Y-87830000D03*
X92710000Y-83930000D03*
X93980000Y-87830000D03*
X93980000Y-83930000D03*
X148900000Y-72830000D03*
X148900000Y-68930000D03*
X150170000Y-72830000D03*
X150170000Y-68930000D03*
X151440000Y-72830000D03*
X151440000Y-68930000D03*
X152710000Y-72830000D03*
X152710000Y-68930000D03*
X153980000Y-72830000D03*
X153980000Y-68930000D03*
X118900000Y-72830000D03*
X118900000Y-68930000D03*
X120170000Y-72830000D03*
X120170000Y-68930000D03*
X121440000Y-72830000D03*
X121440000Y-68930000D03*
X122710000Y-72830000D03*
X122710000Y-68930000D03*
X123980000Y-72830000D03*
X123980000Y-68930000D03*
X88900000Y-72830000D03*
X88900000Y-68930000D03*
X90170000Y-72830000D03*
X90170000Y-68930000D03*
X91440000Y-72830000D03*
X91440000Y-68930000D03*
X92710000Y-72830000D03*
X92710000Y-68930000D03*
X93980000Y-72830000D03*
X93980000Y-68930000D03*
X148900000Y-57830000D03*
X148900000Y-53930000D03*
X150170000Y-57830000D03*
X150170000Y-53930000D03*
X151440000Y-57830000D03*
X151440000Y-53930000D03*
X152710000Y-57830000D03*
X152710000Y-53930000D03*
X153980000Y-57830000D03*
X153980000Y-53930000D03*
X118900000Y-57830000D03*
X118900000Y-53930000D03*
X120170000Y-57830000D03*
X120170000Y-53930000D03*
X121440000Y-57830000D03*
X121440000Y-53930000D03*
X122710000Y-57830000D03*
X122710000Y-53930000D03*
X123980000Y-57830000D03*
X123980000Y-53930000D03*
X93980000Y-53930000D03*
X93980000Y-57830000D03*
X92710000Y-53930000D03*
X92710000Y-57830000D03*
X91440000Y-53930000D03*
X91440000Y-57830000D03*
X90170000Y-53930000D03*
X90170000Y-57830000D03*
X88900000Y-53930000D03*
X88900000Y-57830000D03*
D11*
X81280000Y-54610000D03*
X81280000Y-57150000D03*
X78740000Y-54610000D03*
X78740000Y-57150000D03*
X76200000Y-54610000D03*
X76200000Y-57150000D03*
X73660000Y-54610000D03*
X73660000Y-57150000D03*
X71120000Y-54610000D03*
D10*
X71120000Y-57150000D03*
D13*
X93980000Y-51435000D03*
X123980000Y-51435000D03*
X153980000Y-51435000D03*
X93980000Y-66435000D03*
X123980000Y-66435000D03*
X153980000Y-66435000D03*
X93980000Y-81435000D03*
X123980000Y-81435000D03*
X153980000Y-81435000D03*
X93980000Y-96435000D03*
X123980000Y-96435000D03*
X153980000Y-96435000D03*
X93980000Y-111435000D03*
X123980000Y-111435000D03*
X153980000Y-111435000D03*
X93980000Y-126435000D03*
X123980000Y-126435000D03*
X153980000Y-126435000D03*
X93980000Y-59690000D03*
X123980000Y-59690000D03*
X153980000Y-59690000D03*
X93980000Y-74690000D03*
X123980000Y-74690000D03*
X153980000Y-74690000D03*
X93980000Y-89690000D03*
X123980000Y-89690000D03*
X153980000Y-89690000D03*
X93980000Y-104690000D03*
X123980000Y-104690000D03*
X153980000Y-104690000D03*
X93980000Y-119690000D03*
X123980000Y-119690000D03*
X153980000Y-119690000D03*
X93980000Y-134690000D03*
X123980000Y-134690000D03*
X153980000Y-134690000D03*
X92075000Y-50165000D03*
X122075000Y-50165000D03*
X152075000Y-50165000D03*
X92075000Y-65165000D03*
X122075000Y-65165000D03*
X152075000Y-65165000D03*
X92075000Y-80165000D03*
X122075000Y-80165000D03*
X152075000Y-80165000D03*
X92075000Y-95165000D03*
X122075000Y-95165000D03*
X152075000Y-95165000D03*
X92075000Y-110165000D03*
X122075000Y-110165000D03*
X152075000Y-110165000D03*
X92075000Y-125165000D03*
X122075000Y-125165000D03*
X152075000Y-125165000D03*
X92075000Y-60960000D03*
X122075000Y-60960000D03*
X152075000Y-60960000D03*
X92075000Y-75960000D03*
X122075000Y-75960000D03*
X152075000Y-75960000D03*
X92075000Y-90960000D03*
X122075000Y-90960000D03*
X152075000Y-90960000D03*
X92075000Y-105960000D03*
X122075000Y-105960000D03*
X152075000Y-105960000D03*
X92075000Y-120960000D03*
X122075000Y-120960000D03*
X152075000Y-120960000D03*
X92075000Y-135960000D03*
X122075000Y-135960000D03*
X152075000Y-135960000D03*
X90170000Y-50165000D03*
X120170000Y-50165000D03*
X150170000Y-50165000D03*
X90170000Y-65165000D03*
X120170000Y-65165000D03*
X150170000Y-65165000D03*
X90170000Y-80165000D03*
X120170000Y-80165000D03*
X150170000Y-80165000D03*
X90170000Y-95165000D03*
X120170000Y-95165000D03*
X150170000Y-95165000D03*
X90170000Y-110165000D03*
X120170000Y-110165000D03*
X150170000Y-110165000D03*
X90170000Y-125165000D03*
X120170000Y-125165000D03*
X150170000Y-125165000D03*
X89535000Y-62230000D03*
X119535000Y-62230000D03*
X149535000Y-62230000D03*
X89535000Y-77230000D03*
X119535000Y-77230000D03*
X149535000Y-77230000D03*
X89535000Y-92230000D03*
X119535000Y-92230000D03*
X149535000Y-92230000D03*
X89535000Y-107230000D03*
X119535000Y-107230000D03*
X149535000Y-107230000D03*
X89535000Y-122230000D03*
X119535000Y-122230000D03*
X149535000Y-122230000D03*
X89535000Y-137230000D03*
X119535000Y-137230000D03*
X149535000Y-137230000D03*
X86360000Y-49825000D03*
X116360000Y-49825000D03*
X146360000Y-49825000D03*
X86360000Y-64825000D03*
X116360000Y-64825000D03*
X146360000Y-64825000D03*
X86360000Y-79825000D03*
X116360000Y-79825000D03*
X146360000Y-79825000D03*
X86360000Y-94825000D03*
X116360000Y-94825000D03*
X146360000Y-94825000D03*
X86360000Y-109825000D03*
X116360000Y-109825000D03*
X146360000Y-109825000D03*
X86360000Y-124825000D03*
X116360000Y-124825000D03*
X146360000Y-124825000D03*
X86360000Y-63500000D03*
X116360000Y-63500000D03*
X146360000Y-63500000D03*
X86360000Y-78500000D03*
X116360000Y-78500000D03*
X146360000Y-78500000D03*
X86360000Y-93500000D03*
X116360000Y-93500000D03*
X146360000Y-93500000D03*
X86360000Y-108500000D03*
X116360000Y-108500000D03*
X146360000Y-108500000D03*
X86360000Y-123500000D03*
X116360000Y-123500000D03*
X146360000Y-123500000D03*
X86360000Y-138500000D03*
X116360000Y-138500000D03*
X146360000Y-138500000D03*
D14*
X93980000Y-53930000D02*
X93980000Y-51435000D01*
X123980000Y-53930000D02*
X123980000Y-51435000D01*
X153980000Y-53930000D02*
X153980000Y-51435000D01*
X93980000Y-68930000D02*
X93980000Y-66435000D01*
X123980000Y-68930000D02*
X123980000Y-66435000D01*
X153980000Y-68930000D02*
X153980000Y-66435000D01*
X93980000Y-83930000D02*
X93980000Y-81435000D01*
X123980000Y-83930000D02*
X123980000Y-81435000D01*
X153980000Y-83930000D02*
X153980000Y-81435000D01*
X93980000Y-98930000D02*
X93980000Y-96435000D01*
X123980000Y-98930000D02*
X123980000Y-96435000D01*
X153980000Y-98930000D02*
X153980000Y-96435000D01*
X93980000Y-113930000D02*
X93980000Y-111435000D01*
X123980000Y-113930000D02*
X123980000Y-111435000D01*
X153980000Y-113930000D02*
X153980000Y-111435000D01*
X93980000Y-128930000D02*
X93980000Y-126435000D01*
X123980000Y-128930000D02*
X123980000Y-126435000D01*
X153980000Y-128930000D02*
X153980000Y-126435000D01*
X93980000Y-57830000D02*
X93980000Y-59690000D01*
X123980000Y-57830000D02*
X123980000Y-59690000D01*
X153980000Y-57830000D02*
X153980000Y-59690000D01*
X93980000Y-72830000D02*
X93980000Y-74690000D01*
X123980000Y-72830000D02*
X123980000Y-74690000D01*
X153980000Y-72830000D02*
X153980000Y-74690000D01*
X93980000Y-87830000D02*
X93980000Y-89690000D01*
X123980000Y-87830000D02*
X123980000Y-89690000D01*
X153980000Y-87830000D02*
X153980000Y-89690000D01*
X93980000Y-102830000D02*
X93980000Y-104690000D01*
X123980000Y-102830000D02*
X123980000Y-104690000D01*
X153980000Y-102830000D02*
X153980000Y-104690000D01*
X93980000Y-117830000D02*
X93980000Y-119690000D01*
X123980000Y-117830000D02*
X123980000Y-119690000D01*
X153980000Y-117830000D02*
X153980000Y-119690000D01*
X93980000Y-132830000D02*
X93980000Y-134690000D01*
X123980000Y-132830000D02*
X123980000Y-134690000D01*
X153980000Y-132830000D02*
X153980000Y-134690000D01*
X92710000Y-53930000D02*
X92710000Y-50800000D01*
X92710000Y-50800000D02*
X92075000Y-50165000D01*
X122710000Y-53930000D02*
X122710000Y-50800000D01*
X152710000Y-53930000D02*
X152710000Y-50800000D01*
X92710000Y-68930000D02*
X92710000Y-65800000D01*
X122710000Y-68930000D02*
X122710000Y-65800000D01*
X152710000Y-68930000D02*
X152710000Y-65800000D01*
X92710000Y-83930000D02*
X92710000Y-80800000D01*
X122710000Y-83930000D02*
X122710000Y-80800000D01*
X152710000Y-83930000D02*
X152710000Y-80800000D01*
X92710000Y-98930000D02*
X92710000Y-95800000D01*
X122710000Y-98930000D02*
X122710000Y-95800000D01*
X152710000Y-98930000D02*
X152710000Y-95800000D01*
X92710000Y-113930000D02*
X92710000Y-110800000D01*
X122710000Y-113930000D02*
X122710000Y-110800000D01*
X152710000Y-113930000D02*
X152710000Y-110800000D01*
X92710000Y-128930000D02*
X92710000Y-125800000D01*
X122710000Y-128930000D02*
X122710000Y-125800000D01*
X152710000Y-128930000D02*
X152710000Y-125800000D01*
X122710000Y-50800000D02*
X122075000Y-50165000D01*
X152710000Y-50800000D02*
X152075000Y-50165000D01*
X92710000Y-65800000D02*
X92075000Y-65165000D01*
X122710000Y-65800000D02*
X122075000Y-65165000D01*
X152710000Y-65800000D02*
X152075000Y-65165000D01*
X92710000Y-80800000D02*
X92075000Y-80165000D01*
X122710000Y-80800000D02*
X122075000Y-80165000D01*
X152710000Y-80800000D02*
X152075000Y-80165000D01*
X92710000Y-95800000D02*
X92075000Y-95165000D01*
X122710000Y-95800000D02*
X122075000Y-95165000D01*
X152710000Y-95800000D02*
X152075000Y-95165000D01*
X92710000Y-110800000D02*
X92075000Y-110165000D01*
X122710000Y-110800000D02*
X122075000Y-110165000D01*
X152710000Y-110800000D02*
X152075000Y-110165000D01*
X92710000Y-125800000D02*
X92075000Y-125165000D01*
X122710000Y-125800000D02*
X122075000Y-125165000D01*
X152710000Y-125800000D02*
X152075000Y-125165000D01*
X92075000Y-60960000D02*
X92710000Y-60325000D01*
X92710000Y-60325000D02*
X92710000Y-57830000D01*
X122075000Y-60960000D02*
X122710000Y-60325000D01*
X152075000Y-60960000D02*
X152710000Y-60325000D01*
X92075000Y-75960000D02*
X92710000Y-75325000D01*
X122075000Y-75960000D02*
X122710000Y-75325000D01*
X152075000Y-75960000D02*
X152710000Y-75325000D01*
X92075000Y-90960000D02*
X92710000Y-90325000D01*
X122075000Y-90960000D02*
X122710000Y-90325000D01*
X152075000Y-90960000D02*
X152710000Y-90325000D01*
X92075000Y-105960000D02*
X92710000Y-105325000D01*
X122075000Y-105960000D02*
X122710000Y-105325000D01*
X152075000Y-105960000D02*
X152710000Y-105325000D01*
X92075000Y-120960000D02*
X92710000Y-120325000D01*
X122075000Y-120960000D02*
X122710000Y-120325000D01*
X152075000Y-120960000D02*
X152710000Y-120325000D01*
X92075000Y-135960000D02*
X92710000Y-135325000D01*
X122075000Y-135960000D02*
X122710000Y-135325000D01*
X152075000Y-135960000D02*
X152710000Y-135325000D01*
X122710000Y-60325000D02*
X122710000Y-57830000D01*
X152710000Y-60325000D02*
X152710000Y-57830000D01*
X92710000Y-75325000D02*
X92710000Y-72830000D01*
X122710000Y-75325000D02*
X122710000Y-72830000D01*
X152710000Y-75325000D02*
X152710000Y-72830000D01*
X92710000Y-90325000D02*
X92710000Y-87830000D01*
X122710000Y-90325000D02*
X122710000Y-87830000D01*
X152710000Y-90325000D02*
X152710000Y-87830000D01*
X92710000Y-105325000D02*
X92710000Y-102830000D01*
X122710000Y-105325000D02*
X122710000Y-102830000D01*
X152710000Y-105325000D02*
X152710000Y-102830000D01*
X92710000Y-120325000D02*
X92710000Y-117830000D01*
X122710000Y-120325000D02*
X122710000Y-117830000D01*
X152710000Y-120325000D02*
X152710000Y-117830000D01*
X92710000Y-135325000D02*
X92710000Y-132830000D01*
X122710000Y-135325000D02*
X122710000Y-132830000D01*
X152710000Y-135325000D02*
X152710000Y-132830000D01*
X91440000Y-53930000D02*
X91440000Y-51435000D01*
X91440000Y-51435000D02*
X90170000Y-50165000D01*
X121440000Y-53930000D02*
X121440000Y-51435000D01*
X151440000Y-53930000D02*
X151440000Y-51435000D01*
X91440000Y-68930000D02*
X91440000Y-66435000D01*
X121440000Y-68930000D02*
X121440000Y-66435000D01*
X151440000Y-68930000D02*
X151440000Y-66435000D01*
X91440000Y-83930000D02*
X91440000Y-81435000D01*
X121440000Y-83930000D02*
X121440000Y-81435000D01*
X151440000Y-83930000D02*
X151440000Y-81435000D01*
X91440000Y-98930000D02*
X91440000Y-96435000D01*
X121440000Y-98930000D02*
X121440000Y-96435000D01*
X151440000Y-98930000D02*
X151440000Y-96435000D01*
X91440000Y-113930000D02*
X91440000Y-111435000D01*
X121440000Y-113930000D02*
X121440000Y-111435000D01*
X151440000Y-113930000D02*
X151440000Y-111435000D01*
X91440000Y-128930000D02*
X91440000Y-126435000D01*
X121440000Y-128930000D02*
X121440000Y-126435000D01*
X151440000Y-128930000D02*
X151440000Y-126435000D01*
X121440000Y-51435000D02*
X120170000Y-50165000D01*
X151440000Y-51435000D02*
X150170000Y-50165000D01*
X91440000Y-66435000D02*
X90170000Y-65165000D01*
X121440000Y-66435000D02*
X120170000Y-65165000D01*
X151440000Y-66435000D02*
X150170000Y-65165000D01*
X91440000Y-81435000D02*
X90170000Y-80165000D01*
X121440000Y-81435000D02*
X120170000Y-80165000D01*
X151440000Y-81435000D02*
X150170000Y-80165000D01*
X91440000Y-96435000D02*
X90170000Y-95165000D01*
X121440000Y-96435000D02*
X120170000Y-95165000D01*
X151440000Y-96435000D02*
X150170000Y-95165000D01*
X91440000Y-111435000D02*
X90170000Y-110165000D01*
X121440000Y-111435000D02*
X120170000Y-110165000D01*
X151440000Y-111435000D02*
X150170000Y-110165000D01*
X91440000Y-126435000D02*
X90170000Y-125165000D01*
X121440000Y-126435000D02*
X120170000Y-125165000D01*
X151440000Y-126435000D02*
X150170000Y-125165000D01*
X89535000Y-62230000D02*
X91440000Y-60325000D01*
X91440000Y-60325000D02*
X91440000Y-57830000D01*
X121440000Y-60325000D02*
X121440000Y-57830000D01*
X151440000Y-60325000D02*
X151440000Y-57830000D01*
X91440000Y-75325000D02*
X91440000Y-72830000D01*
X121440000Y-75325000D02*
X121440000Y-72830000D01*
X151440000Y-75325000D02*
X151440000Y-72830000D01*
X91440000Y-90325000D02*
X91440000Y-87830000D01*
X121440000Y-90325000D02*
X121440000Y-87830000D01*
X151440000Y-90325000D02*
X151440000Y-87830000D01*
X91440000Y-105325000D02*
X91440000Y-102830000D01*
X121440000Y-105325000D02*
X121440000Y-102830000D01*
X151440000Y-105325000D02*
X151440000Y-102830000D01*
X91440000Y-120325000D02*
X91440000Y-117830000D01*
X121440000Y-120325000D02*
X121440000Y-117830000D01*
X151440000Y-120325000D02*
X151440000Y-117830000D01*
X91440000Y-135325000D02*
X91440000Y-132830000D01*
X121440000Y-135325000D02*
X121440000Y-132830000D01*
X151440000Y-135325000D02*
X151440000Y-132830000D01*
X119535000Y-62230000D02*
X121440000Y-60325000D01*
X149535000Y-62230000D02*
X151440000Y-60325000D01*
X89535000Y-77230000D02*
X91440000Y-75325000D01*
X119535000Y-77230000D02*
X121440000Y-75325000D01*
X149535000Y-77230000D02*
X151440000Y-75325000D01*
X89535000Y-92230000D02*
X91440000Y-90325000D01*
X119535000Y-92230000D02*
X121440000Y-90325000D01*
X149535000Y-92230000D02*
X151440000Y-90325000D01*
X89535000Y-107230000D02*
X91440000Y-105325000D01*
X119535000Y-107230000D02*
X121440000Y-105325000D01*
X149535000Y-107230000D02*
X151440000Y-105325000D01*
X89535000Y-122230000D02*
X91440000Y-120325000D01*
X119535000Y-122230000D02*
X121440000Y-120325000D01*
X149535000Y-122230000D02*
X151440000Y-120325000D01*
X89535000Y-137230000D02*
X91440000Y-135325000D01*
X119535000Y-137230000D02*
X121440000Y-135325000D01*
X149535000Y-137230000D02*
X151440000Y-135325000D01*
X90170000Y-52230000D02*
X87630000Y-49690000D01*
X90170000Y-53930000D02*
X90170000Y-52230000D01*
X86520000Y-49690000D02*
X86505010Y-49675010D01*
X87630000Y-49690000D02*
X86520000Y-49690000D01*
X86505010Y-49675010D02*
X86505010Y-49679990D01*
X86505010Y-49679990D02*
X86360000Y-49825000D01*
X116520000Y-49690000D02*
X116505010Y-49675010D01*
X146520000Y-49690000D02*
X146505010Y-49675010D01*
X86520000Y-64690000D02*
X86505010Y-64675010D01*
X116520000Y-64690000D02*
X116505010Y-64675010D01*
X146520000Y-64690000D02*
X146505010Y-64675010D01*
X86520000Y-79690000D02*
X86505010Y-79675010D01*
X116520000Y-79690000D02*
X116505010Y-79675010D01*
X146520000Y-79690000D02*
X146505010Y-79675010D01*
X86520000Y-94690000D02*
X86505010Y-94675010D01*
X116520000Y-94690000D02*
X116505010Y-94675010D01*
X146520000Y-94690000D02*
X146505010Y-94675010D01*
X86520000Y-109690000D02*
X86505010Y-109675010D01*
X116520000Y-109690000D02*
X116505010Y-109675010D01*
X146520000Y-109690000D02*
X146505010Y-109675010D01*
X86520000Y-124690000D02*
X86505010Y-124675010D01*
X116520000Y-124690000D02*
X116505010Y-124675010D01*
X146520000Y-124690000D02*
X146505010Y-124675010D01*
X116505010Y-49675010D02*
X116505010Y-49679990D01*
X146505010Y-49675010D02*
X146505010Y-49679990D01*
X86505010Y-64675010D02*
X86505010Y-64679990D01*
X116505010Y-64675010D02*
X116505010Y-64679990D01*
X146505010Y-64675010D02*
X146505010Y-64679990D01*
X86505010Y-79675010D02*
X86505010Y-79679990D01*
X116505010Y-79675010D02*
X116505010Y-79679990D01*
X146505010Y-79675010D02*
X146505010Y-79679990D01*
X86505010Y-94675010D02*
X86505010Y-94679990D01*
X116505010Y-94675010D02*
X116505010Y-94679990D01*
X146505010Y-94675010D02*
X146505010Y-94679990D01*
X86505010Y-109675010D02*
X86505010Y-109679990D01*
X116505010Y-109675010D02*
X116505010Y-109679990D01*
X146505010Y-109675010D02*
X146505010Y-109679990D01*
X86505010Y-124675010D02*
X86505010Y-124679990D01*
X116505010Y-124675010D02*
X116505010Y-124679990D01*
X146505010Y-124675010D02*
X146505010Y-124679990D01*
X120170000Y-53930000D02*
X120170000Y-52230000D01*
X150170000Y-53930000D02*
X150170000Y-52230000D01*
X90170000Y-68930000D02*
X90170000Y-67230000D01*
X120170000Y-68930000D02*
X120170000Y-67230000D01*
X150170000Y-68930000D02*
X150170000Y-67230000D01*
X90170000Y-83930000D02*
X90170000Y-82230000D01*
X120170000Y-83930000D02*
X120170000Y-82230000D01*
X150170000Y-83930000D02*
X150170000Y-82230000D01*
X90170000Y-98930000D02*
X90170000Y-97230000D01*
X120170000Y-98930000D02*
X120170000Y-97230000D01*
X150170000Y-98930000D02*
X150170000Y-97230000D01*
X90170000Y-113930000D02*
X90170000Y-112230000D01*
X120170000Y-113930000D02*
X120170000Y-112230000D01*
X150170000Y-113930000D02*
X150170000Y-112230000D01*
X90170000Y-128930000D02*
X90170000Y-127230000D01*
X120170000Y-128930000D02*
X120170000Y-127230000D01*
X150170000Y-128930000D02*
X150170000Y-127230000D01*
X120170000Y-52230000D02*
X117630000Y-49690000D01*
X150170000Y-52230000D02*
X147630000Y-49690000D01*
X90170000Y-67230000D02*
X87630000Y-64690000D01*
X120170000Y-67230000D02*
X117630000Y-64690000D01*
X150170000Y-67230000D02*
X147630000Y-64690000D01*
X90170000Y-82230000D02*
X87630000Y-79690000D01*
X120170000Y-82230000D02*
X117630000Y-79690000D01*
X150170000Y-82230000D02*
X147630000Y-79690000D01*
X90170000Y-97230000D02*
X87630000Y-94690000D01*
X120170000Y-97230000D02*
X117630000Y-94690000D01*
X150170000Y-97230000D02*
X147630000Y-94690000D01*
X90170000Y-112230000D02*
X87630000Y-109690000D01*
X120170000Y-112230000D02*
X117630000Y-109690000D01*
X150170000Y-112230000D02*
X147630000Y-109690000D01*
X90170000Y-127230000D02*
X87630000Y-124690000D01*
X120170000Y-127230000D02*
X117630000Y-124690000D01*
X150170000Y-127230000D02*
X147630000Y-124690000D01*
X117630000Y-49690000D02*
X116520000Y-49690000D01*
X147630000Y-49690000D02*
X146520000Y-49690000D01*
X87630000Y-64690000D02*
X86520000Y-64690000D01*
X117630000Y-64690000D02*
X116520000Y-64690000D01*
X147630000Y-64690000D02*
X146520000Y-64690000D01*
X87630000Y-79690000D02*
X86520000Y-79690000D01*
X117630000Y-79690000D02*
X116520000Y-79690000D01*
X147630000Y-79690000D02*
X146520000Y-79690000D01*
X87630000Y-94690000D02*
X86520000Y-94690000D01*
X117630000Y-94690000D02*
X116520000Y-94690000D01*
X147630000Y-94690000D02*
X146520000Y-94690000D01*
X87630000Y-109690000D02*
X86520000Y-109690000D01*
X117630000Y-109690000D02*
X116520000Y-109690000D01*
X147630000Y-109690000D02*
X146520000Y-109690000D01*
X87630000Y-124690000D02*
X86520000Y-124690000D01*
X117630000Y-124690000D02*
X116520000Y-124690000D01*
X147630000Y-124690000D02*
X146520000Y-124690000D01*
X116505010Y-49679990D02*
X116360000Y-49825000D01*
X146505010Y-49679990D02*
X146360000Y-49825000D01*
X86505010Y-64679990D02*
X86360000Y-64825000D01*
X116505010Y-64679990D02*
X116360000Y-64825000D01*
X146505010Y-64679990D02*
X146360000Y-64825000D01*
X86505010Y-79679990D02*
X86360000Y-79825000D01*
X116505010Y-79679990D02*
X116360000Y-79825000D01*
X146505010Y-79679990D02*
X146360000Y-79825000D01*
X86505010Y-94679990D02*
X86360000Y-94825000D01*
X116505010Y-94679990D02*
X116360000Y-94825000D01*
X146505010Y-94679990D02*
X146360000Y-94825000D01*
X86505010Y-109679990D02*
X86360000Y-109825000D01*
X116505010Y-109679990D02*
X116360000Y-109825000D01*
X146505010Y-109679990D02*
X146360000Y-109825000D01*
X86505010Y-124679990D02*
X86360000Y-124825000D01*
X116505010Y-124679990D02*
X116360000Y-124825000D01*
X146505010Y-124679990D02*
X146360000Y-124825000D01*
X90170000Y-59690000D02*
X90170000Y-57830000D01*
X86360000Y-63500000D02*
X90170000Y-59690000D01*
X116360000Y-63500000D02*
X120170000Y-59690000D01*
X146360000Y-63500000D02*
X150170000Y-59690000D01*
X86360000Y-78500000D02*
X90170000Y-74690000D01*
X116360000Y-78500000D02*
X120170000Y-74690000D01*
X146360000Y-78500000D02*
X150170000Y-74690000D01*
X86360000Y-93500000D02*
X90170000Y-89690000D01*
X116360000Y-93500000D02*
X120170000Y-89690000D01*
X146360000Y-93500000D02*
X150170000Y-89690000D01*
X86360000Y-108500000D02*
X90170000Y-104690000D01*
X116360000Y-108500000D02*
X120170000Y-104690000D01*
X146360000Y-108500000D02*
X150170000Y-104690000D01*
X86360000Y-123500000D02*
X90170000Y-119690000D01*
X116360000Y-123500000D02*
X120170000Y-119690000D01*
X146360000Y-123500000D02*
X150170000Y-119690000D01*
X86360000Y-138500000D02*
X90170000Y-134690000D01*
X116360000Y-138500000D02*
X120170000Y-134690000D01*
X146360000Y-138500000D02*
X150170000Y-134690000D01*
X120170000Y-59690000D02*
X120170000Y-57830000D01*
X150170000Y-59690000D02*
X150170000Y-57830000D01*
X90170000Y-74690000D02*
X90170000Y-72830000D01*
X120170000Y-74690000D02*
X120170000Y-72830000D01*
X150170000Y-74690000D02*
X150170000Y-72830000D01*
X90170000Y-89690000D02*
X90170000Y-87830000D01*
X120170000Y-89690000D02*
X120170000Y-87830000D01*
X150170000Y-89690000D02*
X150170000Y-87830000D01*
X90170000Y-104690000D02*
X90170000Y-102830000D01*
X120170000Y-104690000D02*
X120170000Y-102830000D01*
X150170000Y-104690000D02*
X150170000Y-102830000D01*
X90170000Y-119690000D02*
X90170000Y-117830000D01*
X120170000Y-119690000D02*
X120170000Y-117830000D01*
X150170000Y-119690000D02*
X150170000Y-117830000D01*
X90170000Y-134690000D02*
X90170000Y-132830000D01*
X120170000Y-134690000D02*
X120170000Y-132830000D01*
X150170000Y-134690000D02*
X150170000Y-132830000D01*
X71120000Y-50800000D02*
X71120000Y-54610000D01*
X72244990Y-49675010D02*
X71120000Y-50800000D01*
X83775010Y-49675010D02*
X72244990Y-49675010D01*
X88900000Y-53930000D02*
X88030000Y-53930000D01*
X88030000Y-53930000D02*
X83775010Y-49675010D01*
X101120000Y-50800000D02*
X101120000Y-54610000D01*
X131120000Y-50800000D02*
X131120000Y-54610000D01*
X71120000Y-65800000D02*
X71120000Y-69610000D01*
X101120000Y-65800000D02*
X101120000Y-69610000D01*
X131120000Y-65800000D02*
X131120000Y-69610000D01*
X71120000Y-80800000D02*
X71120000Y-84610000D01*
X101120000Y-80800000D02*
X101120000Y-84610000D01*
X131120000Y-80800000D02*
X131120000Y-84610000D01*
X71120000Y-95800000D02*
X71120000Y-99610000D01*
X101120000Y-95800000D02*
X101120000Y-99610000D01*
X131120000Y-95800000D02*
X131120000Y-99610000D01*
X71120000Y-110800000D02*
X71120000Y-114610000D01*
X101120000Y-110800000D02*
X101120000Y-114610000D01*
X131120000Y-110800000D02*
X131120000Y-114610000D01*
X71120000Y-125800000D02*
X71120000Y-129610000D01*
X101120000Y-125800000D02*
X101120000Y-129610000D01*
X131120000Y-125800000D02*
X131120000Y-129610000D01*
X118030000Y-53930000D02*
X113775010Y-49675010D01*
X148030000Y-53930000D02*
X143775010Y-49675010D01*
X88030000Y-68930000D02*
X83775010Y-64675010D01*
X118030000Y-68930000D02*
X113775010Y-64675010D01*
X148030000Y-68930000D02*
X143775010Y-64675010D01*
X88030000Y-83930000D02*
X83775010Y-79675010D01*
X118030000Y-83930000D02*
X113775010Y-79675010D01*
X148030000Y-83930000D02*
X143775010Y-79675010D01*
X88030000Y-98930000D02*
X83775010Y-94675010D01*
X118030000Y-98930000D02*
X113775010Y-94675010D01*
X148030000Y-98930000D02*
X143775010Y-94675010D01*
X88030000Y-113930000D02*
X83775010Y-109675010D01*
X118030000Y-113930000D02*
X113775010Y-109675010D01*
X148030000Y-113930000D02*
X143775010Y-109675010D01*
X88030000Y-128930000D02*
X83775010Y-124675010D01*
X118030000Y-128930000D02*
X113775010Y-124675010D01*
X148030000Y-128930000D02*
X143775010Y-124675010D01*
X102244990Y-49675010D02*
X101120000Y-50800000D01*
X132244990Y-49675010D02*
X131120000Y-50800000D01*
X72244990Y-64675010D02*
X71120000Y-65800000D01*
X102244990Y-64675010D02*
X101120000Y-65800000D01*
X132244990Y-64675010D02*
X131120000Y-65800000D01*
X72244990Y-79675010D02*
X71120000Y-80800000D01*
X102244990Y-79675010D02*
X101120000Y-80800000D01*
X132244990Y-79675010D02*
X131120000Y-80800000D01*
X72244990Y-94675010D02*
X71120000Y-95800000D01*
X102244990Y-94675010D02*
X101120000Y-95800000D01*
X132244990Y-94675010D02*
X131120000Y-95800000D01*
X72244990Y-109675010D02*
X71120000Y-110800000D01*
X102244990Y-109675010D02*
X101120000Y-110800000D01*
X132244990Y-109675010D02*
X131120000Y-110800000D01*
X72244990Y-124675010D02*
X71120000Y-125800000D01*
X102244990Y-124675010D02*
X101120000Y-125800000D01*
X132244990Y-124675010D02*
X131120000Y-125800000D01*
X113775010Y-49675010D02*
X102244990Y-49675010D01*
X143775010Y-49675010D02*
X132244990Y-49675010D01*
X83775010Y-64675010D02*
X72244990Y-64675010D01*
X113775010Y-64675010D02*
X102244990Y-64675010D01*
X143775010Y-64675010D02*
X132244990Y-64675010D01*
X83775010Y-79675010D02*
X72244990Y-79675010D01*
X113775010Y-79675010D02*
X102244990Y-79675010D01*
X143775010Y-79675010D02*
X132244990Y-79675010D01*
X83775010Y-94675010D02*
X72244990Y-94675010D01*
X113775010Y-94675010D02*
X102244990Y-94675010D01*
X143775010Y-94675010D02*
X132244990Y-94675010D01*
X83775010Y-109675010D02*
X72244990Y-109675010D01*
X113775010Y-109675010D02*
X102244990Y-109675010D01*
X143775010Y-109675010D02*
X132244990Y-109675010D01*
X83775010Y-124675010D02*
X72244990Y-124675010D01*
X113775010Y-124675010D02*
X102244990Y-124675010D01*
X143775010Y-124675010D02*
X132244990Y-124675010D01*
X118900000Y-53930000D02*
X118030000Y-53930000D01*
X148900000Y-53930000D02*
X148030000Y-53930000D01*
X88900000Y-68930000D02*
X88030000Y-68930000D01*
X118900000Y-68930000D02*
X118030000Y-68930000D01*
X148900000Y-68930000D02*
X148030000Y-68930000D01*
X88900000Y-83930000D02*
X88030000Y-83930000D01*
X118900000Y-83930000D02*
X118030000Y-83930000D01*
X148900000Y-83930000D02*
X148030000Y-83930000D01*
X88900000Y-98930000D02*
X88030000Y-98930000D01*
X118900000Y-98930000D02*
X118030000Y-98930000D01*
X148900000Y-98930000D02*
X148030000Y-98930000D01*
X88900000Y-113930000D02*
X88030000Y-113930000D01*
X118900000Y-113930000D02*
X118030000Y-113930000D01*
X148900000Y-113930000D02*
X148030000Y-113930000D01*
X88900000Y-128930000D02*
X88030000Y-128930000D01*
X118900000Y-128930000D02*
X118030000Y-128930000D01*
X148900000Y-128930000D02*
X148030000Y-128930000D01*
X88030000Y-57830000D02*
X82550000Y-63310000D01*
X88900000Y-57830000D02*
X88030000Y-57830000D01*
X82550000Y-63310000D02*
X72200000Y-63310000D01*
X71120000Y-62230000D02*
X71120000Y-57150000D01*
X72200000Y-63310000D02*
X71120000Y-62230000D01*
X112550000Y-63310000D02*
X102200000Y-63310000D01*
X142550000Y-63310000D02*
X132200000Y-63310000D01*
X82550000Y-78310000D02*
X72200000Y-78310000D01*
X112550000Y-78310000D02*
X102200000Y-78310000D01*
X142550000Y-78310000D02*
X132200000Y-78310000D01*
X82550000Y-93310000D02*
X72200000Y-93310000D01*
X112550000Y-93310000D02*
X102200000Y-93310000D01*
X142550000Y-93310000D02*
X132200000Y-93310000D01*
X82550000Y-108310000D02*
X72200000Y-108310000D01*
X112550000Y-108310000D02*
X102200000Y-108310000D01*
X142550000Y-108310000D02*
X132200000Y-108310000D01*
X82550000Y-123310000D02*
X72200000Y-123310000D01*
X112550000Y-123310000D02*
X102200000Y-123310000D01*
X142550000Y-123310000D02*
X132200000Y-123310000D01*
X82550000Y-138310000D02*
X72200000Y-138310000D01*
X112550000Y-138310000D02*
X102200000Y-138310000D01*
X142550000Y-138310000D02*
X132200000Y-138310000D01*
X118030000Y-57830000D02*
X112550000Y-63310000D01*
X148030000Y-57830000D02*
X142550000Y-63310000D01*
X88030000Y-72830000D02*
X82550000Y-78310000D01*
X118030000Y-72830000D02*
X112550000Y-78310000D01*
X148030000Y-72830000D02*
X142550000Y-78310000D01*
X88030000Y-87830000D02*
X82550000Y-93310000D01*
X118030000Y-87830000D02*
X112550000Y-93310000D01*
X148030000Y-87830000D02*
X142550000Y-93310000D01*
X88030000Y-102830000D02*
X82550000Y-108310000D01*
X118030000Y-102830000D02*
X112550000Y-108310000D01*
X148030000Y-102830000D02*
X142550000Y-108310000D01*
X88030000Y-117830000D02*
X82550000Y-123310000D01*
X118030000Y-117830000D02*
X112550000Y-123310000D01*
X148030000Y-117830000D02*
X142550000Y-123310000D01*
X88030000Y-132830000D02*
X82550000Y-138310000D01*
X118030000Y-132830000D02*
X112550000Y-138310000D01*
X148030000Y-132830000D02*
X142550000Y-138310000D01*
X118900000Y-57830000D02*
X118030000Y-57830000D01*
X148900000Y-57830000D02*
X148030000Y-57830000D01*
X88900000Y-72830000D02*
X88030000Y-72830000D01*
X118900000Y-72830000D02*
X118030000Y-72830000D01*
X148900000Y-72830000D02*
X148030000Y-72830000D01*
X88900000Y-87830000D02*
X88030000Y-87830000D01*
X118900000Y-87830000D02*
X118030000Y-87830000D01*
X148900000Y-87830000D02*
X148030000Y-87830000D01*
X88900000Y-102830000D02*
X88030000Y-102830000D01*
X118900000Y-102830000D02*
X118030000Y-102830000D01*
X148900000Y-102830000D02*
X148030000Y-102830000D01*
X88900000Y-117830000D02*
X88030000Y-117830000D01*
X118900000Y-117830000D02*
X118030000Y-117830000D01*
X148900000Y-117830000D02*
X148030000Y-117830000D01*
X88900000Y-132830000D02*
X88030000Y-132830000D01*
X118900000Y-132830000D02*
X118030000Y-132830000D01*
X148900000Y-132830000D02*
X148030000Y-132830000D01*
X101120000Y-62230000D02*
X101120000Y-57150000D01*
X131120000Y-62230000D02*
X131120000Y-57150000D01*
X71120000Y-77230000D02*
X71120000Y-72150000D01*
X101120000Y-77230000D02*
X101120000Y-72150000D01*
X131120000Y-77230000D02*
X131120000Y-72150000D01*
X71120000Y-92230000D02*
X71120000Y-87150000D01*
X101120000Y-92230000D02*
X101120000Y-87150000D01*
X131120000Y-92230000D02*
X131120000Y-87150000D01*
X71120000Y-107230000D02*
X71120000Y-102150000D01*
X101120000Y-107230000D02*
X101120000Y-102150000D01*
X131120000Y-107230000D02*
X131120000Y-102150000D01*
X71120000Y-122230000D02*
X71120000Y-117150000D01*
X101120000Y-122230000D02*
X101120000Y-117150000D01*
X131120000Y-122230000D02*
X131120000Y-117150000D01*
X71120000Y-137230000D02*
X71120000Y-132150000D01*
X101120000Y-137230000D02*
X101120000Y-132150000D01*
X131120000Y-137230000D02*
X131120000Y-132150000D01*
X102200000Y-63310000D02*
X101120000Y-62230000D01*
X132200000Y-63310000D02*
X131120000Y-62230000D01*
X72200000Y-78310000D02*
X71120000Y-77230000D01*
X102200000Y-78310000D02*
X101120000Y-77230000D01*
X132200000Y-78310000D02*
X131120000Y-77230000D01*
X72200000Y-93310000D02*
X71120000Y-92230000D01*
X102200000Y-93310000D02*
X101120000Y-92230000D01*
X132200000Y-93310000D02*
X131120000Y-92230000D01*
X72200000Y-108310000D02*
X71120000Y-107230000D01*
X102200000Y-108310000D02*
X101120000Y-107230000D01*
X132200000Y-108310000D02*
X131120000Y-107230000D01*
X72200000Y-123310000D02*
X71120000Y-122230000D01*
X102200000Y-123310000D02*
X101120000Y-122230000D01*
X132200000Y-123310000D02*
X131120000Y-122230000D01*
X72200000Y-138310000D02*
X71120000Y-137230000D01*
X102200000Y-138310000D02*
X101120000Y-137230000D01*
X132200000Y-138310000D02*
X131120000Y-137230000D01*
M02*
