M48
; DRILL file {KiCad 5.1.5-52549c5~86~ubuntu18.04.1} date mar 02 jun 2020 18:41:15 -05
; FORMAT={-:-/ absolute / metric / decimal}
; #@! TF.CreationDate,2020-06-02T18:41:15-05:00
; #@! TF.GenerationSoftware,Kicad,Pcbnew,5.1.5-52549c5~86~ubuntu18.04.1
; #@! TF.FileFunction,Plated,1,2,PTH
FMAT,2
METRIC
T1C0.400
T2C1.000
%
G90
G05
T1
X86.36Y-49.825
X86.36Y-63.5
X86.36Y-64.825
X86.36Y-78.5
X86.36Y-79.825
X86.36Y-93.5
X86.36Y-94.825
X86.36Y-108.5
X86.36Y-109.825
X86.36Y-123.5
X86.36Y-124.825
X86.36Y-138.5
X89.535Y-62.23
X89.535Y-77.23
X89.535Y-92.23
X89.535Y-107.23
X89.535Y-122.23
X89.535Y-137.23
X90.17Y-50.165
X90.17Y-65.165
X90.17Y-80.165
X90.17Y-95.165
X90.17Y-110.165
X90.17Y-125.165
X92.075Y-50.165
X92.075Y-60.96
X92.075Y-65.165
X92.075Y-75.96
X92.075Y-80.165
X92.075Y-90.96
X92.075Y-95.165
X92.075Y-105.96
X92.075Y-110.165
X92.075Y-120.96
X92.075Y-125.165
X92.075Y-135.96
X93.98Y-51.435
X93.98Y-59.69
X93.98Y-66.435
X93.98Y-74.69
X93.98Y-81.435
X93.98Y-89.69
X93.98Y-96.435
X93.98Y-104.69
X93.98Y-111.435
X93.98Y-119.69
X93.98Y-126.435
X93.98Y-134.69
X116.36Y-49.825
X116.36Y-63.5
X116.36Y-64.825
X116.36Y-78.5
X116.36Y-79.825
X116.36Y-93.5
X116.36Y-94.825
X116.36Y-108.5
X116.36Y-109.825
X116.36Y-123.5
X116.36Y-124.825
X116.36Y-138.5
X119.535Y-62.23
X119.535Y-77.23
X119.535Y-92.23
X119.535Y-107.23
X119.535Y-122.23
X119.535Y-137.23
X120.17Y-50.165
X120.17Y-65.165
X120.17Y-80.165
X120.17Y-95.165
X120.17Y-110.165
X120.17Y-125.165
X122.075Y-50.165
X122.075Y-60.96
X122.075Y-65.165
X122.075Y-75.96
X122.075Y-80.165
X122.075Y-90.96
X122.075Y-95.165
X122.075Y-105.96
X122.075Y-110.165
X122.075Y-120.96
X122.075Y-125.165
X122.075Y-135.96
X123.98Y-51.435
X123.98Y-59.69
X123.98Y-66.435
X123.98Y-74.69
X123.98Y-81.435
X123.98Y-89.69
X123.98Y-96.435
X123.98Y-104.69
X123.98Y-111.435
X123.98Y-119.69
X123.98Y-126.435
X123.98Y-134.69
X146.36Y-49.825
X146.36Y-63.5
X146.36Y-64.825
X146.36Y-78.5
X146.36Y-79.825
X146.36Y-93.5
X146.36Y-94.825
X146.36Y-108.5
X146.36Y-109.825
X146.36Y-123.5
X146.36Y-124.825
X146.36Y-138.5
X149.535Y-62.23
X149.535Y-77.23
X149.535Y-92.23
X149.535Y-107.23
X149.535Y-122.23
X149.535Y-137.23
X150.17Y-50.165
X150.17Y-65.165
X150.17Y-80.165
X150.17Y-95.165
X150.17Y-110.165
X150.17Y-125.165
X152.075Y-50.165
X152.075Y-60.96
X152.075Y-65.165
X152.075Y-75.96
X152.075Y-80.165
X152.075Y-90.96
X152.075Y-95.165
X152.075Y-105.96
X152.075Y-110.165
X152.075Y-120.96
X152.075Y-125.165
X152.075Y-135.96
X153.98Y-51.435
X153.98Y-59.69
X153.98Y-66.435
X153.98Y-74.69
X153.98Y-81.435
X153.98Y-89.69
X153.98Y-96.435
X153.98Y-104.69
X153.98Y-111.435
X153.98Y-119.69
X153.98Y-126.435
X153.98Y-134.69
T2
X131.12Y-129.61
X131.12Y-132.15
X133.66Y-129.61
X133.66Y-132.15
X136.2Y-129.61
X136.2Y-132.15
X138.74Y-129.61
X138.74Y-132.15
X141.28Y-129.61
X141.28Y-132.15
X71.12Y-69.61
X71.12Y-72.15
X73.66Y-69.61
X73.66Y-72.15
X76.2Y-69.61
X76.2Y-72.15
X78.74Y-69.61
X78.74Y-72.15
X81.28Y-69.61
X81.28Y-72.15
X101.12Y-54.61
X101.12Y-57.15
X103.66Y-54.61
X103.66Y-57.15
X106.2Y-54.61
X106.2Y-57.15
X108.74Y-54.61
X108.74Y-57.15
X111.28Y-54.61
X111.28Y-57.15
X131.12Y-84.61
X131.12Y-87.15
X133.66Y-84.61
X133.66Y-87.15
X136.2Y-84.61
X136.2Y-87.15
X138.74Y-84.61
X138.74Y-87.15
X141.28Y-84.61
X141.28Y-87.15
X101.12Y-99.61
X101.12Y-102.15
X103.66Y-99.61
X103.66Y-102.15
X106.2Y-99.61
X106.2Y-102.15
X108.74Y-99.61
X108.74Y-102.15
X111.28Y-99.61
X111.28Y-102.15
X71.12Y-84.61
X71.12Y-87.15
X73.66Y-84.61
X73.66Y-87.15
X76.2Y-84.61
X76.2Y-87.15
X78.74Y-84.61
X78.74Y-87.15
X81.28Y-84.61
X81.28Y-87.15
X71.12Y-114.61
X71.12Y-117.15
X73.66Y-114.61
X73.66Y-117.15
X76.2Y-114.61
X76.2Y-117.15
X78.74Y-114.61
X78.74Y-117.15
X81.28Y-114.61
X81.28Y-117.15
X131.12Y-114.61
X131.12Y-117.15
X133.66Y-114.61
X133.66Y-117.15
X136.2Y-114.61
X136.2Y-117.15
X138.74Y-114.61
X138.74Y-117.15
X141.28Y-114.61
X141.28Y-117.15
X101.12Y-129.61
X101.12Y-132.15
X103.66Y-129.61
X103.66Y-132.15
X106.2Y-129.61
X106.2Y-132.15
X108.74Y-129.61
X108.74Y-132.15
X111.28Y-129.61
X111.28Y-132.15
X101.12Y-69.61
X101.12Y-72.15
X103.66Y-69.61
X103.66Y-72.15
X106.2Y-69.61
X106.2Y-72.15
X108.74Y-69.61
X108.74Y-72.15
X111.28Y-69.61
X111.28Y-72.15
X71.12Y-54.61
X71.12Y-57.15
X73.66Y-54.61
X73.66Y-57.15
X76.2Y-54.61
X76.2Y-57.15
X78.74Y-54.61
X78.74Y-57.15
X81.28Y-54.61
X81.28Y-57.15
X131.12Y-54.61
X131.12Y-57.15
X133.66Y-54.61
X133.66Y-57.15
X136.2Y-54.61
X136.2Y-57.15
X138.74Y-54.61
X138.74Y-57.15
X141.28Y-54.61
X141.28Y-57.15
X101.12Y-84.61
X101.12Y-87.15
X103.66Y-84.61
X103.66Y-87.15
X106.2Y-84.61
X106.2Y-87.15
X108.74Y-84.61
X108.74Y-87.15
X111.28Y-84.61
X111.28Y-87.15
X71.12Y-99.61
X71.12Y-102.15
X73.66Y-99.61
X73.66Y-102.15
X76.2Y-99.61
X76.2Y-102.15
X78.74Y-99.61
X78.74Y-102.15
X81.28Y-99.61
X81.28Y-102.15
X131.12Y-99.61
X131.12Y-102.15
X133.66Y-99.61
X133.66Y-102.15
X136.2Y-99.61
X136.2Y-102.15
X138.74Y-99.61
X138.74Y-102.15
X141.28Y-99.61
X141.28Y-102.15
X101.12Y-114.61
X101.12Y-117.15
X103.66Y-114.61
X103.66Y-117.15
X106.2Y-114.61
X106.2Y-117.15
X108.74Y-114.61
X108.74Y-117.15
X111.28Y-114.61
X111.28Y-117.15
X131.12Y-69.61
X131.12Y-72.15
X133.66Y-69.61
X133.66Y-72.15
X136.2Y-69.61
X136.2Y-72.15
X138.74Y-69.61
X138.74Y-72.15
X141.28Y-69.61
X141.28Y-72.15
X71.12Y-129.61
X71.12Y-132.15
X73.66Y-129.61
X73.66Y-132.15
X76.2Y-129.61
X76.2Y-132.15
X78.74Y-129.61
X78.74Y-132.15
X81.28Y-129.61
X81.28Y-132.15
T0
M30
