G04 #@! TF.GenerationSoftware,KiCad,Pcbnew,5.1.5-52549c5~86~ubuntu18.04.1*
G04 #@! TF.CreationDate,2020-06-02T18:41:45-05:00*
G04 #@! TF.ProjectId,adap_127_254_panel,61646170-5f31-4323-975f-3235345f7061,rev?*
G04 #@! TF.SameCoordinates,Original*
G04 #@! TF.FileFunction,Profile,NP*
%FSLAX46Y46*%
G04 Gerber Fmt 4.6, Leading zero omitted, Abs format (unit mm)*
G04 Created by KiCad (PCBNEW 5.1.5-52549c5~86~ubuntu18.04.1) date 2020-06-02 18:41:45*
%MOMM*%
%LPD*%
G04 APERTURE LIST*
%ADD10C,0.050000*%
G04 APERTURE END LIST*
D10*
X126980000Y-139200000D02*
X156980000Y-139200000D01*
X96980000Y-139200000D02*
X126980000Y-139200000D01*
X66980000Y-139200000D02*
X96980000Y-139200000D01*
X126980000Y-124200000D02*
X156980000Y-124200000D01*
X96980000Y-124200000D02*
X126980000Y-124200000D01*
X66980000Y-124200000D02*
X96980000Y-124200000D01*
X126980000Y-109200000D02*
X156980000Y-109200000D01*
X96980000Y-109200000D02*
X126980000Y-109200000D01*
X66980000Y-109200000D02*
X96980000Y-109200000D01*
X126980000Y-94200000D02*
X156980000Y-94200000D01*
X96980000Y-94200000D02*
X126980000Y-94200000D01*
X66980000Y-94200000D02*
X96980000Y-94200000D01*
X126980000Y-79200000D02*
X156980000Y-79200000D01*
X96980000Y-79200000D02*
X126980000Y-79200000D01*
X66980000Y-79200000D02*
X96980000Y-79200000D01*
X126980000Y-64200000D02*
X156980000Y-64200000D01*
X96980000Y-64200000D02*
X126980000Y-64200000D01*
X126980000Y-124200000D02*
X126980000Y-139200000D01*
X96980000Y-124200000D02*
X96980000Y-139200000D01*
X66980000Y-124200000D02*
X66980000Y-139200000D01*
X126980000Y-109200000D02*
X126980000Y-124200000D01*
X96980000Y-109200000D02*
X96980000Y-124200000D01*
X66980000Y-109200000D02*
X66980000Y-124200000D01*
X126980000Y-94200000D02*
X126980000Y-109200000D01*
X96980000Y-94200000D02*
X96980000Y-109200000D01*
X66980000Y-94200000D02*
X66980000Y-109200000D01*
X126980000Y-79200000D02*
X126980000Y-94200000D01*
X96980000Y-79200000D02*
X96980000Y-94200000D01*
X66980000Y-79200000D02*
X66980000Y-94200000D01*
X126980000Y-64200000D02*
X126980000Y-79200000D01*
X96980000Y-64200000D02*
X96980000Y-79200000D01*
X66980000Y-64200000D02*
X66980000Y-79200000D01*
X126980000Y-49200000D02*
X126980000Y-64200000D01*
X96980000Y-49200000D02*
X96980000Y-64200000D01*
X156980000Y-124200000D02*
X156980000Y-139200000D01*
X126980000Y-124200000D02*
X126980000Y-139200000D01*
X96980000Y-124200000D02*
X96980000Y-139200000D01*
X156980000Y-109200000D02*
X156980000Y-124200000D01*
X126980000Y-109200000D02*
X126980000Y-124200000D01*
X96980000Y-109200000D02*
X96980000Y-124200000D01*
X156980000Y-94200000D02*
X156980000Y-109200000D01*
X126980000Y-94200000D02*
X126980000Y-109200000D01*
X96980000Y-94200000D02*
X96980000Y-109200000D01*
X156980000Y-79200000D02*
X156980000Y-94200000D01*
X126980000Y-79200000D02*
X126980000Y-94200000D01*
X96980000Y-79200000D02*
X96980000Y-94200000D01*
X156980000Y-64200000D02*
X156980000Y-79200000D01*
X126980000Y-64200000D02*
X126980000Y-79200000D01*
X96980000Y-64200000D02*
X96980000Y-79200000D01*
X156980000Y-49200000D02*
X156980000Y-64200000D01*
X126980000Y-49200000D02*
X126980000Y-64200000D01*
X126980000Y-124200000D02*
X156980000Y-124200000D01*
X96980000Y-124200000D02*
X126980000Y-124200000D01*
X66980000Y-124200000D02*
X96980000Y-124200000D01*
X126980000Y-109200000D02*
X156980000Y-109200000D01*
X96980000Y-109200000D02*
X126980000Y-109200000D01*
X66980000Y-109200000D02*
X96980000Y-109200000D01*
X126980000Y-94200000D02*
X156980000Y-94200000D01*
X96980000Y-94200000D02*
X126980000Y-94200000D01*
X66980000Y-94200000D02*
X96980000Y-94200000D01*
X126980000Y-79200000D02*
X156980000Y-79200000D01*
X96980000Y-79200000D02*
X126980000Y-79200000D01*
X66980000Y-79200000D02*
X96980000Y-79200000D01*
X126980000Y-64200000D02*
X156980000Y-64200000D01*
X96980000Y-64200000D02*
X126980000Y-64200000D01*
X66980000Y-64200000D02*
X96980000Y-64200000D01*
X126980000Y-49200000D02*
X156980000Y-49200000D01*
X96980000Y-49200000D02*
X126980000Y-49200000D01*
X66980000Y-64200000D02*
X96980000Y-64200000D01*
X66980000Y-49200000D02*
X96980000Y-49200000D01*
X96980000Y-49200000D02*
X96980000Y-64200000D01*
X66980000Y-49200000D02*
X66980000Y-64200000D01*
M02*
