%TF.GenerationSoftware,KiCad,Pcbnew,6.0.11-2627ca5db0~126~ubuntu20.04.1*%
%TF.CreationDate,2024-11-03T19:09:38-05:00*%
%TF.ProjectId,,58585858-5858-4585-9858-585858585858,rev?*%
%TF.SameCoordinates,Original*%
%TF.FileFunction,Copper,L2,Bot*%
%TF.FilePolarity,Positive*%
%FSLAX46Y46*%
G04 Gerber Fmt 4.6, Leading zero omitted, Abs format (unit mm)*
G04 Created by KiCad (PCBNEW 6.0.11-2627ca5db0~126~ubuntu20.04.1) date 2024-11-03 19:09:38*
%MOMM*%
%LPD*%
G01*
G04 APERTURE LIST*
%TA.AperFunction,Profile*%
%ADD10C,0.100000*%
%TD*%
%TA.AperFunction,ComponentPad*%
%ADD11R,1.700000X4.000000*%
%TD*%
%TA.AperFunction,ComponentPad*%
%ADD12O,4.000000X1.700000*%
%TD*%
%TA.AperFunction,ComponentPad*%
%ADD13R,2.400000X2.400000*%
%TD*%
%TA.AperFunction,ComponentPad*%
%ADD14C,2.400000*%
%TD*%
%TA.AperFunction,Conductor*%
%ADD15C,0.500000*%
%TD*%
G04 APERTURE END LIST*
D10*
X154578000Y-117281000D02*
X161178000Y-117281000D01*
X153478000Y-123281000D02*
X155078000Y-124281000D01*
X161178000Y-117281000D02*
X163278000Y-119381000D01*
X155078000Y-139681000D02*
X161678000Y-139681000D01*
X163278000Y-119381000D02*
X163278000Y-123281000D01*
X153478000Y-118381000D02*
X153478000Y-123281000D01*
X161678000Y-124281000D02*
X163278000Y-123281000D01*
X161678000Y-124281000D02*
X161678000Y-139681000D01*
X155078000Y-124281000D02*
X155078000Y-139681000D01*
X154578000Y-117281000D02*
X153478000Y-118381000D01*
X144778000Y-117281000D02*
X151378000Y-117281000D01*
X143678000Y-123281000D02*
X145278000Y-124281000D01*
X151378000Y-117281000D02*
X153478000Y-119381000D01*
X145278000Y-139681000D02*
X151878000Y-139681000D01*
X153478000Y-119381000D02*
X153478000Y-123281000D01*
X143678000Y-118381000D02*
X143678000Y-123281000D01*
X151878000Y-124281000D02*
X153478000Y-123281000D01*
X151878000Y-124281000D02*
X151878000Y-139681000D01*
X145278000Y-124281000D02*
X145278000Y-139681000D01*
X144778000Y-117281000D02*
X143678000Y-118381000D01*
X134978000Y-117281000D02*
X141578000Y-117281000D01*
X133878000Y-123281000D02*
X135478000Y-124281000D01*
X141578000Y-117281000D02*
X143678000Y-119381000D01*
X135478000Y-139681000D02*
X142078000Y-139681000D01*
X143678000Y-119381000D02*
X143678000Y-123281000D01*
X133878000Y-118381000D02*
X133878000Y-123281000D01*
X142078000Y-124281000D02*
X143678000Y-123281000D01*
X142078000Y-124281000D02*
X142078000Y-139681000D01*
X135478000Y-124281000D02*
X135478000Y-139681000D01*
X134978000Y-117281000D02*
X133878000Y-118381000D01*
X125178000Y-117281000D02*
X131778000Y-117281000D01*
X124078000Y-123281000D02*
X125678000Y-124281000D01*
X131778000Y-117281000D02*
X133878000Y-119381000D01*
X125678000Y-139681000D02*
X132278000Y-139681000D01*
X133878000Y-119381000D02*
X133878000Y-123281000D01*
X124078000Y-118381000D02*
X124078000Y-123281000D01*
X132278000Y-124281000D02*
X133878000Y-123281000D01*
X132278000Y-124281000D02*
X132278000Y-139681000D01*
X125678000Y-124281000D02*
X125678000Y-139681000D01*
X125178000Y-117281000D02*
X124078000Y-118381000D01*
X115378000Y-117281000D02*
X121978000Y-117281000D01*
X114278000Y-123281000D02*
X115878000Y-124281000D01*
X121978000Y-117281000D02*
X124078000Y-119381000D01*
X115878000Y-139681000D02*
X122478000Y-139681000D01*
X124078000Y-119381000D02*
X124078000Y-123281000D01*
X114278000Y-118381000D02*
X114278000Y-123281000D01*
X122478000Y-124281000D02*
X124078000Y-123281000D01*
X122478000Y-124281000D02*
X122478000Y-139681000D01*
X115878000Y-124281000D02*
X115878000Y-139681000D01*
X115378000Y-117281000D02*
X114278000Y-118381000D01*
X105578000Y-117281000D02*
X112178000Y-117281000D01*
X104478000Y-123281000D02*
X106078000Y-124281000D01*
X112178000Y-117281000D02*
X114278000Y-119381000D01*
X106078000Y-139681000D02*
X112678000Y-139681000D01*
X114278000Y-119381000D02*
X114278000Y-123281000D01*
X104478000Y-118381000D02*
X104478000Y-123281000D01*
X112678000Y-124281000D02*
X114278000Y-123281000D01*
X112678000Y-124281000D02*
X112678000Y-139681000D01*
X106078000Y-124281000D02*
X106078000Y-139681000D01*
X105578000Y-117281000D02*
X104478000Y-118381000D01*
X95778000Y-117281000D02*
X102378000Y-117281000D01*
X94678000Y-123281000D02*
X96278000Y-124281000D01*
X102378000Y-117281000D02*
X104478000Y-119381000D01*
X96278000Y-139681000D02*
X102878000Y-139681000D01*
X104478000Y-119381000D02*
X104478000Y-123281000D01*
X94678000Y-118381000D02*
X94678000Y-123281000D01*
X102878000Y-124281000D02*
X104478000Y-123281000D01*
X102878000Y-124281000D02*
X102878000Y-139681000D01*
X96278000Y-124281000D02*
X96278000Y-139681000D01*
X95778000Y-117281000D02*
X94678000Y-118381000D01*
X85978000Y-117281000D02*
X92578000Y-117281000D01*
X84878000Y-123281000D02*
X86478000Y-124281000D01*
X92578000Y-117281000D02*
X94678000Y-119381000D01*
X86478000Y-139681000D02*
X93078000Y-139681000D01*
X94678000Y-119381000D02*
X94678000Y-123281000D01*
X84878000Y-118381000D02*
X84878000Y-123281000D01*
X93078000Y-124281000D02*
X94678000Y-123281000D01*
X93078000Y-124281000D02*
X93078000Y-139681000D01*
X86478000Y-124281000D02*
X86478000Y-139681000D01*
X85978000Y-117281000D02*
X84878000Y-118381000D01*
X76178000Y-117281000D02*
X82778000Y-117281000D01*
X75078000Y-123281000D02*
X76678000Y-124281000D01*
X82778000Y-117281000D02*
X84878000Y-119381000D01*
X76678000Y-139681000D02*
X83278000Y-139681000D01*
X84878000Y-119381000D02*
X84878000Y-123281000D01*
X75078000Y-118381000D02*
X75078000Y-123281000D01*
X83278000Y-124281000D02*
X84878000Y-123281000D01*
X83278000Y-124281000D02*
X83278000Y-139681000D01*
X76678000Y-124281000D02*
X76678000Y-139681000D01*
X76178000Y-117281000D02*
X75078000Y-118381000D01*
X66378000Y-117281000D02*
X72978000Y-117281000D01*
X65278000Y-123281000D02*
X66878000Y-124281000D01*
X72978000Y-117281000D02*
X75078000Y-119381000D01*
X66878000Y-139681000D02*
X73478000Y-139681000D01*
X75078000Y-119381000D02*
X75078000Y-123281000D01*
X65278000Y-118381000D02*
X65278000Y-123281000D01*
X73478000Y-124281000D02*
X75078000Y-123281000D01*
X73478000Y-124281000D02*
X73478000Y-139681000D01*
X66878000Y-124281000D02*
X66878000Y-139681000D01*
X66378000Y-117281000D02*
X65278000Y-118381000D01*
X154578000Y-94881000D02*
X161178000Y-94881000D01*
X153478000Y-100881000D02*
X155078000Y-101881000D01*
X161178000Y-94881000D02*
X163278000Y-96981000D01*
X155078000Y-117281000D02*
X161678000Y-117281000D01*
X163278000Y-96981000D02*
X163278000Y-100881000D01*
X153478000Y-95981000D02*
X153478000Y-100881000D01*
X161678000Y-101881000D02*
X163278000Y-100881000D01*
X161678000Y-101881000D02*
X161678000Y-117281000D01*
X155078000Y-101881000D02*
X155078000Y-117281000D01*
X154578000Y-94881000D02*
X153478000Y-95981000D01*
X144778000Y-94881000D02*
X151378000Y-94881000D01*
X143678000Y-100881000D02*
X145278000Y-101881000D01*
X151378000Y-94881000D02*
X153478000Y-96981000D01*
X145278000Y-117281000D02*
X151878000Y-117281000D01*
X153478000Y-96981000D02*
X153478000Y-100881000D01*
X143678000Y-95981000D02*
X143678000Y-100881000D01*
X151878000Y-101881000D02*
X153478000Y-100881000D01*
X151878000Y-101881000D02*
X151878000Y-117281000D01*
X145278000Y-101881000D02*
X145278000Y-117281000D01*
X144778000Y-94881000D02*
X143678000Y-95981000D01*
X134978000Y-94881000D02*
X141578000Y-94881000D01*
X133878000Y-100881000D02*
X135478000Y-101881000D01*
X141578000Y-94881000D02*
X143678000Y-96981000D01*
X135478000Y-117281000D02*
X142078000Y-117281000D01*
X143678000Y-96981000D02*
X143678000Y-100881000D01*
X133878000Y-95981000D02*
X133878000Y-100881000D01*
X142078000Y-101881000D02*
X143678000Y-100881000D01*
X142078000Y-101881000D02*
X142078000Y-117281000D01*
X135478000Y-101881000D02*
X135478000Y-117281000D01*
X134978000Y-94881000D02*
X133878000Y-95981000D01*
X125178000Y-94881000D02*
X131778000Y-94881000D01*
X124078000Y-100881000D02*
X125678000Y-101881000D01*
X131778000Y-94881000D02*
X133878000Y-96981000D01*
X125678000Y-117281000D02*
X132278000Y-117281000D01*
X133878000Y-96981000D02*
X133878000Y-100881000D01*
X124078000Y-95981000D02*
X124078000Y-100881000D01*
X132278000Y-101881000D02*
X133878000Y-100881000D01*
X132278000Y-101881000D02*
X132278000Y-117281000D01*
X125678000Y-101881000D02*
X125678000Y-117281000D01*
X125178000Y-94881000D02*
X124078000Y-95981000D01*
X115378000Y-94881000D02*
X121978000Y-94881000D01*
X114278000Y-100881000D02*
X115878000Y-101881000D01*
X121978000Y-94881000D02*
X124078000Y-96981000D01*
X115878000Y-117281000D02*
X122478000Y-117281000D01*
X124078000Y-96981000D02*
X124078000Y-100881000D01*
X114278000Y-95981000D02*
X114278000Y-100881000D01*
X122478000Y-101881000D02*
X124078000Y-100881000D01*
X122478000Y-101881000D02*
X122478000Y-117281000D01*
X115878000Y-101881000D02*
X115878000Y-117281000D01*
X115378000Y-94881000D02*
X114278000Y-95981000D01*
X105578000Y-94881000D02*
X112178000Y-94881000D01*
X104478000Y-100881000D02*
X106078000Y-101881000D01*
X112178000Y-94881000D02*
X114278000Y-96981000D01*
X106078000Y-117281000D02*
X112678000Y-117281000D01*
X114278000Y-96981000D02*
X114278000Y-100881000D01*
X104478000Y-95981000D02*
X104478000Y-100881000D01*
X112678000Y-101881000D02*
X114278000Y-100881000D01*
X112678000Y-101881000D02*
X112678000Y-117281000D01*
X106078000Y-101881000D02*
X106078000Y-117281000D01*
X105578000Y-94881000D02*
X104478000Y-95981000D01*
X95778000Y-94881000D02*
X102378000Y-94881000D01*
X94678000Y-100881000D02*
X96278000Y-101881000D01*
X102378000Y-94881000D02*
X104478000Y-96981000D01*
X96278000Y-117281000D02*
X102878000Y-117281000D01*
X104478000Y-96981000D02*
X104478000Y-100881000D01*
X94678000Y-95981000D02*
X94678000Y-100881000D01*
X102878000Y-101881000D02*
X104478000Y-100881000D01*
X102878000Y-101881000D02*
X102878000Y-117281000D01*
X96278000Y-101881000D02*
X96278000Y-117281000D01*
X95778000Y-94881000D02*
X94678000Y-95981000D01*
X85978000Y-94881000D02*
X92578000Y-94881000D01*
X84878000Y-100881000D02*
X86478000Y-101881000D01*
X92578000Y-94881000D02*
X94678000Y-96981000D01*
X86478000Y-117281000D02*
X93078000Y-117281000D01*
X94678000Y-96981000D02*
X94678000Y-100881000D01*
X84878000Y-95981000D02*
X84878000Y-100881000D01*
X93078000Y-101881000D02*
X94678000Y-100881000D01*
X93078000Y-101881000D02*
X93078000Y-117281000D01*
X86478000Y-101881000D02*
X86478000Y-117281000D01*
X85978000Y-94881000D02*
X84878000Y-95981000D01*
X76178000Y-94881000D02*
X82778000Y-94881000D01*
X75078000Y-100881000D02*
X76678000Y-101881000D01*
X82778000Y-94881000D02*
X84878000Y-96981000D01*
X76678000Y-117281000D02*
X83278000Y-117281000D01*
X84878000Y-96981000D02*
X84878000Y-100881000D01*
X75078000Y-95981000D02*
X75078000Y-100881000D01*
X83278000Y-101881000D02*
X84878000Y-100881000D01*
X83278000Y-101881000D02*
X83278000Y-117281000D01*
X76678000Y-101881000D02*
X76678000Y-117281000D01*
X76178000Y-94881000D02*
X75078000Y-95981000D01*
X66378000Y-94881000D02*
X72978000Y-94881000D01*
X65278000Y-100881000D02*
X66878000Y-101881000D01*
X72978000Y-94881000D02*
X75078000Y-96981000D01*
X66878000Y-117281000D02*
X73478000Y-117281000D01*
X75078000Y-96981000D02*
X75078000Y-100881000D01*
X65278000Y-95981000D02*
X65278000Y-100881000D01*
X73478000Y-101881000D02*
X75078000Y-100881000D01*
X73478000Y-101881000D02*
X73478000Y-117281000D01*
X66878000Y-101881000D02*
X66878000Y-117281000D01*
X66378000Y-94881000D02*
X65278000Y-95981000D01*
X154578000Y-72481000D02*
X161178000Y-72481000D01*
X153478000Y-78481000D02*
X155078000Y-79481000D01*
X161178000Y-72481000D02*
X163278000Y-74581000D01*
X155078000Y-94881000D02*
X161678000Y-94881000D01*
X163278000Y-74581000D02*
X163278000Y-78481000D01*
X153478000Y-73581000D02*
X153478000Y-78481000D01*
X161678000Y-79481000D02*
X163278000Y-78481000D01*
X161678000Y-79481000D02*
X161678000Y-94881000D01*
X155078000Y-79481000D02*
X155078000Y-94881000D01*
X154578000Y-72481000D02*
X153478000Y-73581000D01*
X144778000Y-72481000D02*
X151378000Y-72481000D01*
X143678000Y-78481000D02*
X145278000Y-79481000D01*
X151378000Y-72481000D02*
X153478000Y-74581000D01*
X145278000Y-94881000D02*
X151878000Y-94881000D01*
X153478000Y-74581000D02*
X153478000Y-78481000D01*
X143678000Y-73581000D02*
X143678000Y-78481000D01*
X151878000Y-79481000D02*
X153478000Y-78481000D01*
X151878000Y-79481000D02*
X151878000Y-94881000D01*
X145278000Y-79481000D02*
X145278000Y-94881000D01*
X144778000Y-72481000D02*
X143678000Y-73581000D01*
X134978000Y-72481000D02*
X141578000Y-72481000D01*
X133878000Y-78481000D02*
X135478000Y-79481000D01*
X141578000Y-72481000D02*
X143678000Y-74581000D01*
X135478000Y-94881000D02*
X142078000Y-94881000D01*
X143678000Y-74581000D02*
X143678000Y-78481000D01*
X133878000Y-73581000D02*
X133878000Y-78481000D01*
X142078000Y-79481000D02*
X143678000Y-78481000D01*
X142078000Y-79481000D02*
X142078000Y-94881000D01*
X135478000Y-79481000D02*
X135478000Y-94881000D01*
X134978000Y-72481000D02*
X133878000Y-73581000D01*
X125178000Y-72481000D02*
X131778000Y-72481000D01*
X124078000Y-78481000D02*
X125678000Y-79481000D01*
X131778000Y-72481000D02*
X133878000Y-74581000D01*
X125678000Y-94881000D02*
X132278000Y-94881000D01*
X133878000Y-74581000D02*
X133878000Y-78481000D01*
X124078000Y-73581000D02*
X124078000Y-78481000D01*
X132278000Y-79481000D02*
X133878000Y-78481000D01*
X132278000Y-79481000D02*
X132278000Y-94881000D01*
X125678000Y-79481000D02*
X125678000Y-94881000D01*
X125178000Y-72481000D02*
X124078000Y-73581000D01*
X115378000Y-72481000D02*
X121978000Y-72481000D01*
X114278000Y-78481000D02*
X115878000Y-79481000D01*
X121978000Y-72481000D02*
X124078000Y-74581000D01*
X115878000Y-94881000D02*
X122478000Y-94881000D01*
X124078000Y-74581000D02*
X124078000Y-78481000D01*
X114278000Y-73581000D02*
X114278000Y-78481000D01*
X122478000Y-79481000D02*
X124078000Y-78481000D01*
X122478000Y-79481000D02*
X122478000Y-94881000D01*
X115878000Y-79481000D02*
X115878000Y-94881000D01*
X115378000Y-72481000D02*
X114278000Y-73581000D01*
X105578000Y-72481000D02*
X112178000Y-72481000D01*
X104478000Y-78481000D02*
X106078000Y-79481000D01*
X112178000Y-72481000D02*
X114278000Y-74581000D01*
X106078000Y-94881000D02*
X112678000Y-94881000D01*
X114278000Y-74581000D02*
X114278000Y-78481000D01*
X104478000Y-73581000D02*
X104478000Y-78481000D01*
X112678000Y-79481000D02*
X114278000Y-78481000D01*
X112678000Y-79481000D02*
X112678000Y-94881000D01*
X106078000Y-79481000D02*
X106078000Y-94881000D01*
X105578000Y-72481000D02*
X104478000Y-73581000D01*
X95778000Y-72481000D02*
X102378000Y-72481000D01*
X94678000Y-78481000D02*
X96278000Y-79481000D01*
X102378000Y-72481000D02*
X104478000Y-74581000D01*
X96278000Y-94881000D02*
X102878000Y-94881000D01*
X104478000Y-74581000D02*
X104478000Y-78481000D01*
X94678000Y-73581000D02*
X94678000Y-78481000D01*
X102878000Y-79481000D02*
X104478000Y-78481000D01*
X102878000Y-79481000D02*
X102878000Y-94881000D01*
X96278000Y-79481000D02*
X96278000Y-94881000D01*
X95778000Y-72481000D02*
X94678000Y-73581000D01*
X85978000Y-72481000D02*
X92578000Y-72481000D01*
X84878000Y-78481000D02*
X86478000Y-79481000D01*
X92578000Y-72481000D02*
X94678000Y-74581000D01*
X86478000Y-94881000D02*
X93078000Y-94881000D01*
X94678000Y-74581000D02*
X94678000Y-78481000D01*
X84878000Y-73581000D02*
X84878000Y-78481000D01*
X93078000Y-79481000D02*
X94678000Y-78481000D01*
X93078000Y-79481000D02*
X93078000Y-94881000D01*
X86478000Y-79481000D02*
X86478000Y-94881000D01*
X85978000Y-72481000D02*
X84878000Y-73581000D01*
X76178000Y-72481000D02*
X82778000Y-72481000D01*
X75078000Y-78481000D02*
X76678000Y-79481000D01*
X82778000Y-72481000D02*
X84878000Y-74581000D01*
X76678000Y-94881000D02*
X83278000Y-94881000D01*
X84878000Y-74581000D02*
X84878000Y-78481000D01*
X75078000Y-73581000D02*
X75078000Y-78481000D01*
X83278000Y-79481000D02*
X84878000Y-78481000D01*
X83278000Y-79481000D02*
X83278000Y-94881000D01*
X76678000Y-79481000D02*
X76678000Y-94881000D01*
X76178000Y-72481000D02*
X75078000Y-73581000D01*
X66378000Y-72481000D02*
X72978000Y-72481000D01*
X65278000Y-78481000D02*
X66878000Y-79481000D01*
X72978000Y-72481000D02*
X75078000Y-74581000D01*
X66878000Y-94881000D02*
X73478000Y-94881000D01*
X75078000Y-74581000D02*
X75078000Y-78481000D01*
X65278000Y-73581000D02*
X65278000Y-78481000D01*
X73478000Y-79481000D02*
X75078000Y-78481000D01*
X73478000Y-79481000D02*
X73478000Y-94881000D01*
X66878000Y-79481000D02*
X66878000Y-94881000D01*
X66378000Y-72481000D02*
X65278000Y-73581000D01*
X154578000Y-50081000D02*
X161178000Y-50081000D01*
X153478000Y-56081000D02*
X155078000Y-57081000D01*
X161178000Y-50081000D02*
X163278000Y-52181000D01*
X155078000Y-72481000D02*
X161678000Y-72481000D01*
X163278000Y-52181000D02*
X163278000Y-56081000D01*
X153478000Y-51181000D02*
X153478000Y-56081000D01*
X161678000Y-57081000D02*
X163278000Y-56081000D01*
X161678000Y-57081000D02*
X161678000Y-72481000D01*
X155078000Y-57081000D02*
X155078000Y-72481000D01*
X154578000Y-50081000D02*
X153478000Y-51181000D01*
X144778000Y-50081000D02*
X151378000Y-50081000D01*
X143678000Y-56081000D02*
X145278000Y-57081000D01*
X151378000Y-50081000D02*
X153478000Y-52181000D01*
X145278000Y-72481000D02*
X151878000Y-72481000D01*
X153478000Y-52181000D02*
X153478000Y-56081000D01*
X143678000Y-51181000D02*
X143678000Y-56081000D01*
X151878000Y-57081000D02*
X153478000Y-56081000D01*
X151878000Y-57081000D02*
X151878000Y-72481000D01*
X145278000Y-57081000D02*
X145278000Y-72481000D01*
X144778000Y-50081000D02*
X143678000Y-51181000D01*
X134978000Y-50081000D02*
X141578000Y-50081000D01*
X133878000Y-56081000D02*
X135478000Y-57081000D01*
X141578000Y-50081000D02*
X143678000Y-52181000D01*
X135478000Y-72481000D02*
X142078000Y-72481000D01*
X143678000Y-52181000D02*
X143678000Y-56081000D01*
X133878000Y-51181000D02*
X133878000Y-56081000D01*
X142078000Y-57081000D02*
X143678000Y-56081000D01*
X142078000Y-57081000D02*
X142078000Y-72481000D01*
X135478000Y-57081000D02*
X135478000Y-72481000D01*
X134978000Y-50081000D02*
X133878000Y-51181000D01*
X125178000Y-50081000D02*
X131778000Y-50081000D01*
X124078000Y-56081000D02*
X125678000Y-57081000D01*
X131778000Y-50081000D02*
X133878000Y-52181000D01*
X125678000Y-72481000D02*
X132278000Y-72481000D01*
X133878000Y-52181000D02*
X133878000Y-56081000D01*
X124078000Y-51181000D02*
X124078000Y-56081000D01*
X132278000Y-57081000D02*
X133878000Y-56081000D01*
X132278000Y-57081000D02*
X132278000Y-72481000D01*
X125678000Y-57081000D02*
X125678000Y-72481000D01*
X125178000Y-50081000D02*
X124078000Y-51181000D01*
X115378000Y-50081000D02*
X121978000Y-50081000D01*
X114278000Y-56081000D02*
X115878000Y-57081000D01*
X121978000Y-50081000D02*
X124078000Y-52181000D01*
X115878000Y-72481000D02*
X122478000Y-72481000D01*
X124078000Y-52181000D02*
X124078000Y-56081000D01*
X114278000Y-51181000D02*
X114278000Y-56081000D01*
X122478000Y-57081000D02*
X124078000Y-56081000D01*
X122478000Y-57081000D02*
X122478000Y-72481000D01*
X115878000Y-57081000D02*
X115878000Y-72481000D01*
X115378000Y-50081000D02*
X114278000Y-51181000D01*
X105578000Y-50081000D02*
X112178000Y-50081000D01*
X104478000Y-56081000D02*
X106078000Y-57081000D01*
X112178000Y-50081000D02*
X114278000Y-52181000D01*
X106078000Y-72481000D02*
X112678000Y-72481000D01*
X114278000Y-52181000D02*
X114278000Y-56081000D01*
X104478000Y-51181000D02*
X104478000Y-56081000D01*
X112678000Y-57081000D02*
X114278000Y-56081000D01*
X112678000Y-57081000D02*
X112678000Y-72481000D01*
X106078000Y-57081000D02*
X106078000Y-72481000D01*
X105578000Y-50081000D02*
X104478000Y-51181000D01*
X95778000Y-50081000D02*
X102378000Y-50081000D01*
X94678000Y-56081000D02*
X96278000Y-57081000D01*
X102378000Y-50081000D02*
X104478000Y-52181000D01*
X96278000Y-72481000D02*
X102878000Y-72481000D01*
X104478000Y-52181000D02*
X104478000Y-56081000D01*
X94678000Y-51181000D02*
X94678000Y-56081000D01*
X102878000Y-57081000D02*
X104478000Y-56081000D01*
X102878000Y-57081000D02*
X102878000Y-72481000D01*
X96278000Y-57081000D02*
X96278000Y-72481000D01*
X95778000Y-50081000D02*
X94678000Y-51181000D01*
X85978000Y-50081000D02*
X92578000Y-50081000D01*
X84878000Y-56081000D02*
X86478000Y-57081000D01*
X92578000Y-50081000D02*
X94678000Y-52181000D01*
X86478000Y-72481000D02*
X93078000Y-72481000D01*
X94678000Y-52181000D02*
X94678000Y-56081000D01*
X84878000Y-51181000D02*
X84878000Y-56081000D01*
X93078000Y-57081000D02*
X94678000Y-56081000D01*
X93078000Y-57081000D02*
X93078000Y-72481000D01*
X86478000Y-57081000D02*
X86478000Y-72481000D01*
X85978000Y-50081000D02*
X84878000Y-51181000D01*
X76178000Y-50081000D02*
X82778000Y-50081000D01*
X75078000Y-56081000D02*
X76678000Y-57081000D01*
X82778000Y-50081000D02*
X84878000Y-52181000D01*
X76678000Y-72481000D02*
X83278000Y-72481000D01*
X84878000Y-52181000D02*
X84878000Y-56081000D01*
X75078000Y-51181000D02*
X75078000Y-56081000D01*
X83278000Y-57081000D02*
X84878000Y-56081000D01*
X83278000Y-57081000D02*
X83278000Y-72481000D01*
X76678000Y-57081000D02*
X76678000Y-72481000D01*
X76178000Y-50081000D02*
X75078000Y-51181000D01*
X66378000Y-50081000D02*
X72978000Y-50081000D01*
X73478000Y-57081000D02*
X75078000Y-56081000D01*
X65278000Y-51181000D02*
X65278000Y-56081000D01*
X66878000Y-72481000D02*
X73478000Y-72481000D01*
X65278000Y-56081000D02*
X66878000Y-57081000D01*
X72978000Y-50081000D02*
X75078000Y-52181000D01*
X66378000Y-50081000D02*
X65278000Y-51181000D01*
X75078000Y-52181000D02*
X75078000Y-56081000D01*
X73478000Y-57081000D02*
X73478000Y-72481000D01*
X66878000Y-57081000D02*
X66878000Y-72481000D01*
D11*
%TO.P,J1,1*%
%TO.N,Net-(J1-Pad1)*%
X154738000Y-120381000D03*
D12*
%TO.P,J1,2*%
%TO.N,Net-(J1-Pad2)*%
X157438000Y-125681000D03*
%TO.P,J1,3*%
%TO.N,unconnected-(J1-Pad3)*%
X160938000Y-122581000D03*
%TD*%
D13*
%TO.P,J2,1,Pin_1*%
%TO.N,Net-(J1-Pad1)*%
X160128000Y-135612000D03*
D14*
%TO.P,J2,2,Pin_2*%
%TO.N,Net-(J1-Pad2)*%
X156628000Y-135612000D03*
%TD*%
D11*
%TO.P,J1,1*%
%TO.N,Net-(J1-Pad1)*%
X144938000Y-120381000D03*
D12*
%TO.P,J1,2*%
%TO.N,Net-(J1-Pad2)*%
X147638000Y-125681000D03*
%TO.P,J1,3*%
%TO.N,unconnected-(J1-Pad3)*%
X151138000Y-122581000D03*
%TD*%
D13*
%TO.P,J2,1,Pin_1*%
%TO.N,Net-(J1-Pad1)*%
X150328000Y-135612000D03*
D14*
%TO.P,J2,2,Pin_2*%
%TO.N,Net-(J1-Pad2)*%
X146828000Y-135612000D03*
%TD*%
D11*
%TO.P,J1,1*%
%TO.N,Net-(J1-Pad1)*%
X135138000Y-120381000D03*
D12*
%TO.P,J1,2*%
%TO.N,Net-(J1-Pad2)*%
X137838000Y-125681000D03*
%TO.P,J1,3*%
%TO.N,unconnected-(J1-Pad3)*%
X141338000Y-122581000D03*
%TD*%
D13*
%TO.P,J2,1,Pin_1*%
%TO.N,Net-(J1-Pad1)*%
X140528000Y-135612000D03*
D14*
%TO.P,J2,2,Pin_2*%
%TO.N,Net-(J1-Pad2)*%
X137028000Y-135612000D03*
%TD*%
D11*
%TO.P,J1,1*%
%TO.N,Net-(J1-Pad1)*%
X125338000Y-120381000D03*
D12*
%TO.P,J1,2*%
%TO.N,Net-(J1-Pad2)*%
X128038000Y-125681000D03*
%TO.P,J1,3*%
%TO.N,unconnected-(J1-Pad3)*%
X131538000Y-122581000D03*
%TD*%
D13*
%TO.P,J2,1,Pin_1*%
%TO.N,Net-(J1-Pad1)*%
X130728000Y-135612000D03*
D14*
%TO.P,J2,2,Pin_2*%
%TO.N,Net-(J1-Pad2)*%
X127228000Y-135612000D03*
%TD*%
D11*
%TO.P,J1,1*%
%TO.N,Net-(J1-Pad1)*%
X115538000Y-120381000D03*
D12*
%TO.P,J1,2*%
%TO.N,Net-(J1-Pad2)*%
X118238000Y-125681000D03*
%TO.P,J1,3*%
%TO.N,unconnected-(J1-Pad3)*%
X121738000Y-122581000D03*
%TD*%
D13*
%TO.P,J2,1,Pin_1*%
%TO.N,Net-(J1-Pad1)*%
X120928000Y-135612000D03*
D14*
%TO.P,J2,2,Pin_2*%
%TO.N,Net-(J1-Pad2)*%
X117428000Y-135612000D03*
%TD*%
D11*
%TO.P,J1,1*%
%TO.N,Net-(J1-Pad1)*%
X105738000Y-120381000D03*
D12*
%TO.P,J1,2*%
%TO.N,Net-(J1-Pad2)*%
X108438000Y-125681000D03*
%TO.P,J1,3*%
%TO.N,unconnected-(J1-Pad3)*%
X111938000Y-122581000D03*
%TD*%
D13*
%TO.P,J2,1,Pin_1*%
%TO.N,Net-(J1-Pad1)*%
X111128000Y-135612000D03*
D14*
%TO.P,J2,2,Pin_2*%
%TO.N,Net-(J1-Pad2)*%
X107628000Y-135612000D03*
%TD*%
D11*
%TO.P,J1,1*%
%TO.N,Net-(J1-Pad1)*%
X95938000Y-120381000D03*
D12*
%TO.P,J1,2*%
%TO.N,Net-(J1-Pad2)*%
X98638000Y-125681000D03*
%TO.P,J1,3*%
%TO.N,unconnected-(J1-Pad3)*%
X102138000Y-122581000D03*
%TD*%
D13*
%TO.P,J2,1,Pin_1*%
%TO.N,Net-(J1-Pad1)*%
X101328000Y-135612000D03*
D14*
%TO.P,J2,2,Pin_2*%
%TO.N,Net-(J1-Pad2)*%
X97828000Y-135612000D03*
%TD*%
D11*
%TO.P,J1,1*%
%TO.N,Net-(J1-Pad1)*%
X86138000Y-120381000D03*
D12*
%TO.P,J1,2*%
%TO.N,Net-(J1-Pad2)*%
X88838000Y-125681000D03*
%TO.P,J1,3*%
%TO.N,unconnected-(J1-Pad3)*%
X92338000Y-122581000D03*
%TD*%
D13*
%TO.P,J2,1,Pin_1*%
%TO.N,Net-(J1-Pad1)*%
X91528000Y-135612000D03*
D14*
%TO.P,J2,2,Pin_2*%
%TO.N,Net-(J1-Pad2)*%
X88028000Y-135612000D03*
%TD*%
D11*
%TO.P,J1,1*%
%TO.N,Net-(J1-Pad1)*%
X76338000Y-120381000D03*
D12*
%TO.P,J1,2*%
%TO.N,Net-(J1-Pad2)*%
X79038000Y-125681000D03*
%TO.P,J1,3*%
%TO.N,unconnected-(J1-Pad3)*%
X82538000Y-122581000D03*
%TD*%
D13*
%TO.P,J2,1,Pin_1*%
%TO.N,Net-(J1-Pad1)*%
X81728000Y-135612000D03*
D14*
%TO.P,J2,2,Pin_2*%
%TO.N,Net-(J1-Pad2)*%
X78228000Y-135612000D03*
%TD*%
D11*
%TO.P,J1,1*%
%TO.N,Net-(J1-Pad1)*%
X66538000Y-120381000D03*
D12*
%TO.P,J1,2*%
%TO.N,Net-(J1-Pad2)*%
X69238000Y-125681000D03*
%TO.P,J1,3*%
%TO.N,unconnected-(J1-Pad3)*%
X72738000Y-122581000D03*
%TD*%
D13*
%TO.P,J2,1,Pin_1*%
%TO.N,Net-(J1-Pad1)*%
X71928000Y-135612000D03*
D14*
%TO.P,J2,2,Pin_2*%
%TO.N,Net-(J1-Pad2)*%
X68428000Y-135612000D03*
%TD*%
D11*
%TO.P,J1,1*%
%TO.N,Net-(J1-Pad1)*%
X154738000Y-97981000D03*
D12*
%TO.P,J1,2*%
%TO.N,Net-(J1-Pad2)*%
X157438000Y-103281000D03*
%TO.P,J1,3*%
%TO.N,unconnected-(J1-Pad3)*%
X160938000Y-100181000D03*
%TD*%
D13*
%TO.P,J2,1,Pin_1*%
%TO.N,Net-(J1-Pad1)*%
X160128000Y-113212000D03*
D14*
%TO.P,J2,2,Pin_2*%
%TO.N,Net-(J1-Pad2)*%
X156628000Y-113212000D03*
%TD*%
D11*
%TO.P,J1,1*%
%TO.N,Net-(J1-Pad1)*%
X144938000Y-97981000D03*
D12*
%TO.P,J1,2*%
%TO.N,Net-(J1-Pad2)*%
X147638000Y-103281000D03*
%TO.P,J1,3*%
%TO.N,unconnected-(J1-Pad3)*%
X151138000Y-100181000D03*
%TD*%
D13*
%TO.P,J2,1,Pin_1*%
%TO.N,Net-(J1-Pad1)*%
X150328000Y-113212000D03*
D14*
%TO.P,J2,2,Pin_2*%
%TO.N,Net-(J1-Pad2)*%
X146828000Y-113212000D03*
%TD*%
D11*
%TO.P,J1,1*%
%TO.N,Net-(J1-Pad1)*%
X135138000Y-97981000D03*
D12*
%TO.P,J1,2*%
%TO.N,Net-(J1-Pad2)*%
X137838000Y-103281000D03*
%TO.P,J1,3*%
%TO.N,unconnected-(J1-Pad3)*%
X141338000Y-100181000D03*
%TD*%
D13*
%TO.P,J2,1,Pin_1*%
%TO.N,Net-(J1-Pad1)*%
X140528000Y-113212000D03*
D14*
%TO.P,J2,2,Pin_2*%
%TO.N,Net-(J1-Pad2)*%
X137028000Y-113212000D03*
%TD*%
D11*
%TO.P,J1,1*%
%TO.N,Net-(J1-Pad1)*%
X125338000Y-97981000D03*
D12*
%TO.P,J1,2*%
%TO.N,Net-(J1-Pad2)*%
X128038000Y-103281000D03*
%TO.P,J1,3*%
%TO.N,unconnected-(J1-Pad3)*%
X131538000Y-100181000D03*
%TD*%
D13*
%TO.P,J2,1,Pin_1*%
%TO.N,Net-(J1-Pad1)*%
X130728000Y-113212000D03*
D14*
%TO.P,J2,2,Pin_2*%
%TO.N,Net-(J1-Pad2)*%
X127228000Y-113212000D03*
%TD*%
D11*
%TO.P,J1,1*%
%TO.N,Net-(J1-Pad1)*%
X115538000Y-97981000D03*
D12*
%TO.P,J1,2*%
%TO.N,Net-(J1-Pad2)*%
X118238000Y-103281000D03*
%TO.P,J1,3*%
%TO.N,unconnected-(J1-Pad3)*%
X121738000Y-100181000D03*
%TD*%
D13*
%TO.P,J2,1,Pin_1*%
%TO.N,Net-(J1-Pad1)*%
X120928000Y-113212000D03*
D14*
%TO.P,J2,2,Pin_2*%
%TO.N,Net-(J1-Pad2)*%
X117428000Y-113212000D03*
%TD*%
D11*
%TO.P,J1,1*%
%TO.N,Net-(J1-Pad1)*%
X105738000Y-97981000D03*
D12*
%TO.P,J1,2*%
%TO.N,Net-(J1-Pad2)*%
X108438000Y-103281000D03*
%TO.P,J1,3*%
%TO.N,unconnected-(J1-Pad3)*%
X111938000Y-100181000D03*
%TD*%
D13*
%TO.P,J2,1,Pin_1*%
%TO.N,Net-(J1-Pad1)*%
X111128000Y-113212000D03*
D14*
%TO.P,J2,2,Pin_2*%
%TO.N,Net-(J1-Pad2)*%
X107628000Y-113212000D03*
%TD*%
D11*
%TO.P,J1,1*%
%TO.N,Net-(J1-Pad1)*%
X95938000Y-97981000D03*
D12*
%TO.P,J1,2*%
%TO.N,Net-(J1-Pad2)*%
X98638000Y-103281000D03*
%TO.P,J1,3*%
%TO.N,unconnected-(J1-Pad3)*%
X102138000Y-100181000D03*
%TD*%
D13*
%TO.P,J2,1,Pin_1*%
%TO.N,Net-(J1-Pad1)*%
X101328000Y-113212000D03*
D14*
%TO.P,J2,2,Pin_2*%
%TO.N,Net-(J1-Pad2)*%
X97828000Y-113212000D03*
%TD*%
D11*
%TO.P,J1,1*%
%TO.N,Net-(J1-Pad1)*%
X86138000Y-97981000D03*
D12*
%TO.P,J1,2*%
%TO.N,Net-(J1-Pad2)*%
X88838000Y-103281000D03*
%TO.P,J1,3*%
%TO.N,unconnected-(J1-Pad3)*%
X92338000Y-100181000D03*
%TD*%
D13*
%TO.P,J2,1,Pin_1*%
%TO.N,Net-(J1-Pad1)*%
X91528000Y-113212000D03*
D14*
%TO.P,J2,2,Pin_2*%
%TO.N,Net-(J1-Pad2)*%
X88028000Y-113212000D03*
%TD*%
D11*
%TO.P,J1,1*%
%TO.N,Net-(J1-Pad1)*%
X76338000Y-97981000D03*
D12*
%TO.P,J1,2*%
%TO.N,Net-(J1-Pad2)*%
X79038000Y-103281000D03*
%TO.P,J1,3*%
%TO.N,unconnected-(J1-Pad3)*%
X82538000Y-100181000D03*
%TD*%
D13*
%TO.P,J2,1,Pin_1*%
%TO.N,Net-(J1-Pad1)*%
X81728000Y-113212000D03*
D14*
%TO.P,J2,2,Pin_2*%
%TO.N,Net-(J1-Pad2)*%
X78228000Y-113212000D03*
%TD*%
D11*
%TO.P,J1,1*%
%TO.N,Net-(J1-Pad1)*%
X66538000Y-97981000D03*
D12*
%TO.P,J1,2*%
%TO.N,Net-(J1-Pad2)*%
X69238000Y-103281000D03*
%TO.P,J1,3*%
%TO.N,unconnected-(J1-Pad3)*%
X72738000Y-100181000D03*
%TD*%
D13*
%TO.P,J2,1,Pin_1*%
%TO.N,Net-(J1-Pad1)*%
X71928000Y-113212000D03*
D14*
%TO.P,J2,2,Pin_2*%
%TO.N,Net-(J1-Pad2)*%
X68428000Y-113212000D03*
%TD*%
D11*
%TO.P,J1,1*%
%TO.N,Net-(J1-Pad1)*%
X154738000Y-75581000D03*
D12*
%TO.P,J1,2*%
%TO.N,Net-(J1-Pad2)*%
X157438000Y-80881000D03*
%TO.P,J1,3*%
%TO.N,unconnected-(J1-Pad3)*%
X160938000Y-77781000D03*
%TD*%
D13*
%TO.P,J2,1,Pin_1*%
%TO.N,Net-(J1-Pad1)*%
X160128000Y-90812000D03*
D14*
%TO.P,J2,2,Pin_2*%
%TO.N,Net-(J1-Pad2)*%
X156628000Y-90812000D03*
%TD*%
D11*
%TO.P,J1,1*%
%TO.N,Net-(J1-Pad1)*%
X144938000Y-75581000D03*
D12*
%TO.P,J1,2*%
%TO.N,Net-(J1-Pad2)*%
X147638000Y-80881000D03*
%TO.P,J1,3*%
%TO.N,unconnected-(J1-Pad3)*%
X151138000Y-77781000D03*
%TD*%
D13*
%TO.P,J2,1,Pin_1*%
%TO.N,Net-(J1-Pad1)*%
X150328000Y-90812000D03*
D14*
%TO.P,J2,2,Pin_2*%
%TO.N,Net-(J1-Pad2)*%
X146828000Y-90812000D03*
%TD*%
D11*
%TO.P,J1,1*%
%TO.N,Net-(J1-Pad1)*%
X135138000Y-75581000D03*
D12*
%TO.P,J1,2*%
%TO.N,Net-(J1-Pad2)*%
X137838000Y-80881000D03*
%TO.P,J1,3*%
%TO.N,unconnected-(J1-Pad3)*%
X141338000Y-77781000D03*
%TD*%
D13*
%TO.P,J2,1,Pin_1*%
%TO.N,Net-(J1-Pad1)*%
X140528000Y-90812000D03*
D14*
%TO.P,J2,2,Pin_2*%
%TO.N,Net-(J1-Pad2)*%
X137028000Y-90812000D03*
%TD*%
D11*
%TO.P,J1,1*%
%TO.N,Net-(J1-Pad1)*%
X125338000Y-75581000D03*
D12*
%TO.P,J1,2*%
%TO.N,Net-(J1-Pad2)*%
X128038000Y-80881000D03*
%TO.P,J1,3*%
%TO.N,unconnected-(J1-Pad3)*%
X131538000Y-77781000D03*
%TD*%
D13*
%TO.P,J2,1,Pin_1*%
%TO.N,Net-(J1-Pad1)*%
X130728000Y-90812000D03*
D14*
%TO.P,J2,2,Pin_2*%
%TO.N,Net-(J1-Pad2)*%
X127228000Y-90812000D03*
%TD*%
D11*
%TO.P,J1,1*%
%TO.N,Net-(J1-Pad1)*%
X115538000Y-75581000D03*
D12*
%TO.P,J1,2*%
%TO.N,Net-(J1-Pad2)*%
X118238000Y-80881000D03*
%TO.P,J1,3*%
%TO.N,unconnected-(J1-Pad3)*%
X121738000Y-77781000D03*
%TD*%
D13*
%TO.P,J2,1,Pin_1*%
%TO.N,Net-(J1-Pad1)*%
X120928000Y-90812000D03*
D14*
%TO.P,J2,2,Pin_2*%
%TO.N,Net-(J1-Pad2)*%
X117428000Y-90812000D03*
%TD*%
D11*
%TO.P,J1,1*%
%TO.N,Net-(J1-Pad1)*%
X105738000Y-75581000D03*
D12*
%TO.P,J1,2*%
%TO.N,Net-(J1-Pad2)*%
X108438000Y-80881000D03*
%TO.P,J1,3*%
%TO.N,unconnected-(J1-Pad3)*%
X111938000Y-77781000D03*
%TD*%
D13*
%TO.P,J2,1,Pin_1*%
%TO.N,Net-(J1-Pad1)*%
X111128000Y-90812000D03*
D14*
%TO.P,J2,2,Pin_2*%
%TO.N,Net-(J1-Pad2)*%
X107628000Y-90812000D03*
%TD*%
D11*
%TO.P,J1,1*%
%TO.N,Net-(J1-Pad1)*%
X95938000Y-75581000D03*
D12*
%TO.P,J1,2*%
%TO.N,Net-(J1-Pad2)*%
X98638000Y-80881000D03*
%TO.P,J1,3*%
%TO.N,unconnected-(J1-Pad3)*%
X102138000Y-77781000D03*
%TD*%
D13*
%TO.P,J2,1,Pin_1*%
%TO.N,Net-(J1-Pad1)*%
X101328000Y-90812000D03*
D14*
%TO.P,J2,2,Pin_2*%
%TO.N,Net-(J1-Pad2)*%
X97828000Y-90812000D03*
%TD*%
D11*
%TO.P,J1,1*%
%TO.N,Net-(J1-Pad1)*%
X86138000Y-75581000D03*
D12*
%TO.P,J1,2*%
%TO.N,Net-(J1-Pad2)*%
X88838000Y-80881000D03*
%TO.P,J1,3*%
%TO.N,unconnected-(J1-Pad3)*%
X92338000Y-77781000D03*
%TD*%
D13*
%TO.P,J2,1,Pin_1*%
%TO.N,Net-(J1-Pad1)*%
X91528000Y-90812000D03*
D14*
%TO.P,J2,2,Pin_2*%
%TO.N,Net-(J1-Pad2)*%
X88028000Y-90812000D03*
%TD*%
D11*
%TO.P,J1,1*%
%TO.N,Net-(J1-Pad1)*%
X76338000Y-75581000D03*
D12*
%TO.P,J1,2*%
%TO.N,Net-(J1-Pad2)*%
X79038000Y-80881000D03*
%TO.P,J1,3*%
%TO.N,unconnected-(J1-Pad3)*%
X82538000Y-77781000D03*
%TD*%
D13*
%TO.P,J2,1,Pin_1*%
%TO.N,Net-(J1-Pad1)*%
X81728000Y-90812000D03*
D14*
%TO.P,J2,2,Pin_2*%
%TO.N,Net-(J1-Pad2)*%
X78228000Y-90812000D03*
%TD*%
D11*
%TO.P,J1,1*%
%TO.N,Net-(J1-Pad1)*%
X66538000Y-75581000D03*
D12*
%TO.P,J1,2*%
%TO.N,Net-(J1-Pad2)*%
X69238000Y-80881000D03*
%TO.P,J1,3*%
%TO.N,unconnected-(J1-Pad3)*%
X72738000Y-77781000D03*
%TD*%
D13*
%TO.P,J2,1,Pin_1*%
%TO.N,Net-(J1-Pad1)*%
X71928000Y-90812000D03*
D14*
%TO.P,J2,2,Pin_2*%
%TO.N,Net-(J1-Pad2)*%
X68428000Y-90812000D03*
%TD*%
D11*
%TO.P,J1,1*%
%TO.N,Net-(J1-Pad1)*%
X154738000Y-53181000D03*
D12*
%TO.P,J1,2*%
%TO.N,Net-(J1-Pad2)*%
X157438000Y-58481000D03*
%TO.P,J1,3*%
%TO.N,unconnected-(J1-Pad3)*%
X160938000Y-55381000D03*
%TD*%
D13*
%TO.P,J2,1,Pin_1*%
%TO.N,Net-(J1-Pad1)*%
X160128000Y-68412000D03*
D14*
%TO.P,J2,2,Pin_2*%
%TO.N,Net-(J1-Pad2)*%
X156628000Y-68412000D03*
%TD*%
D11*
%TO.P,J1,1*%
%TO.N,Net-(J1-Pad1)*%
X144938000Y-53181000D03*
D12*
%TO.P,J1,2*%
%TO.N,Net-(J1-Pad2)*%
X147638000Y-58481000D03*
%TO.P,J1,3*%
%TO.N,unconnected-(J1-Pad3)*%
X151138000Y-55381000D03*
%TD*%
D13*
%TO.P,J2,1,Pin_1*%
%TO.N,Net-(J1-Pad1)*%
X150328000Y-68412000D03*
D14*
%TO.P,J2,2,Pin_2*%
%TO.N,Net-(J1-Pad2)*%
X146828000Y-68412000D03*
%TD*%
D11*
%TO.P,J1,1*%
%TO.N,Net-(J1-Pad1)*%
X135138000Y-53181000D03*
D12*
%TO.P,J1,2*%
%TO.N,Net-(J1-Pad2)*%
X137838000Y-58481000D03*
%TO.P,J1,3*%
%TO.N,unconnected-(J1-Pad3)*%
X141338000Y-55381000D03*
%TD*%
D13*
%TO.P,J2,1,Pin_1*%
%TO.N,Net-(J1-Pad1)*%
X140528000Y-68412000D03*
D14*
%TO.P,J2,2,Pin_2*%
%TO.N,Net-(J1-Pad2)*%
X137028000Y-68412000D03*
%TD*%
D11*
%TO.P,J1,1*%
%TO.N,Net-(J1-Pad1)*%
X125338000Y-53181000D03*
D12*
%TO.P,J1,2*%
%TO.N,Net-(J1-Pad2)*%
X128038000Y-58481000D03*
%TO.P,J1,3*%
%TO.N,unconnected-(J1-Pad3)*%
X131538000Y-55381000D03*
%TD*%
D13*
%TO.P,J2,1,Pin_1*%
%TO.N,Net-(J1-Pad1)*%
X130728000Y-68412000D03*
D14*
%TO.P,J2,2,Pin_2*%
%TO.N,Net-(J1-Pad2)*%
X127228000Y-68412000D03*
%TD*%
D11*
%TO.P,J1,1*%
%TO.N,Net-(J1-Pad1)*%
X115538000Y-53181000D03*
D12*
%TO.P,J1,2*%
%TO.N,Net-(J1-Pad2)*%
X118238000Y-58481000D03*
%TO.P,J1,3*%
%TO.N,unconnected-(J1-Pad3)*%
X121738000Y-55381000D03*
%TD*%
D13*
%TO.P,J2,1,Pin_1*%
%TO.N,Net-(J1-Pad1)*%
X120928000Y-68412000D03*
D14*
%TO.P,J2,2,Pin_2*%
%TO.N,Net-(J1-Pad2)*%
X117428000Y-68412000D03*
%TD*%
D11*
%TO.P,J1,1*%
%TO.N,Net-(J1-Pad1)*%
X105738000Y-53181000D03*
D12*
%TO.P,J1,2*%
%TO.N,Net-(J1-Pad2)*%
X108438000Y-58481000D03*
%TO.P,J1,3*%
%TO.N,unconnected-(J1-Pad3)*%
X111938000Y-55381000D03*
%TD*%
D13*
%TO.P,J2,1,Pin_1*%
%TO.N,Net-(J1-Pad1)*%
X111128000Y-68412000D03*
D14*
%TO.P,J2,2,Pin_2*%
%TO.N,Net-(J1-Pad2)*%
X107628000Y-68412000D03*
%TD*%
D11*
%TO.P,J1,1*%
%TO.N,Net-(J1-Pad1)*%
X95938000Y-53181000D03*
D12*
%TO.P,J1,2*%
%TO.N,Net-(J1-Pad2)*%
X98638000Y-58481000D03*
%TO.P,J1,3*%
%TO.N,unconnected-(J1-Pad3)*%
X102138000Y-55381000D03*
%TD*%
D13*
%TO.P,J2,1,Pin_1*%
%TO.N,Net-(J1-Pad1)*%
X101328000Y-68412000D03*
D14*
%TO.P,J2,2,Pin_2*%
%TO.N,Net-(J1-Pad2)*%
X97828000Y-68412000D03*
%TD*%
D11*
%TO.P,J1,1*%
%TO.N,Net-(J1-Pad1)*%
X86138000Y-53181000D03*
D12*
%TO.P,J1,2*%
%TO.N,Net-(J1-Pad2)*%
X88838000Y-58481000D03*
%TO.P,J1,3*%
%TO.N,unconnected-(J1-Pad3)*%
X92338000Y-55381000D03*
%TD*%
D13*
%TO.P,J2,1,Pin_1*%
%TO.N,Net-(J1-Pad1)*%
X91528000Y-68412000D03*
D14*
%TO.P,J2,2,Pin_2*%
%TO.N,Net-(J1-Pad2)*%
X88028000Y-68412000D03*
%TD*%
D11*
%TO.P,J1,1*%
%TO.N,Net-(J1-Pad1)*%
X76338000Y-53181000D03*
D12*
%TO.P,J1,2*%
%TO.N,Net-(J1-Pad2)*%
X79038000Y-58481000D03*
%TO.P,J1,3*%
%TO.N,unconnected-(J1-Pad3)*%
X82538000Y-55381000D03*
%TD*%
D13*
%TO.P,J2,1,Pin_1*%
%TO.N,Net-(J1-Pad1)*%
X81728000Y-68412000D03*
D14*
%TO.P,J2,2,Pin_2*%
%TO.N,Net-(J1-Pad2)*%
X78228000Y-68412000D03*
%TD*%
D11*
%TO.P,J1,1*%
%TO.N,Net-(J1-Pad1)*%
X66538000Y-53181000D03*
D12*
%TO.P,J1,2*%
%TO.N,Net-(J1-Pad2)*%
X69238000Y-58481000D03*
%TO.P,J1,3*%
%TO.N,unconnected-(J1-Pad3)*%
X72738000Y-55381000D03*
%TD*%
D13*
%TO.P,J2,1,Pin_1*%
%TO.N,Net-(J1-Pad1)*%
X71928000Y-68412000D03*
D14*
%TO.P,J2,2,Pin_2*%
%TO.N,Net-(J1-Pad2)*%
X68428000Y-68412000D03*
%TD*%
D15*
%TO.N,Net-(J1-Pad1)*%
X160128000Y-135612000D02*
X160128000Y-127293000D01*
X154738000Y-121462000D02*
X154738000Y-120381000D01*
X160128000Y-127293000D02*
X160793000Y-126628000D01*
X159777000Y-124088000D02*
X158697500Y-124088000D01*
X157427500Y-122818000D02*
X156094000Y-122818000D01*
X158697500Y-124088000D02*
X157427500Y-122818000D01*
X154738000Y-120381000D02*
X154062000Y-121057000D01*
X160793000Y-125104000D02*
X159777000Y-124088000D01*
X160793000Y-126628000D02*
X160793000Y-125104000D01*
%TO.N,Net-(J1-Pad2)*%
X156602000Y-135586000D02*
X156628000Y-135612000D01*
%TO.N,Net-(J1-Pad1)*%
X156094000Y-122818000D02*
X154738000Y-121462000D01*
%TO.N,Net-(J1-Pad2)*%
X156628000Y-126491000D02*
X157438000Y-125681000D01*
X156628000Y-135612000D02*
X156628000Y-126491000D01*
%TO.N,Net-(J1-Pad1)*%
X150328000Y-135612000D02*
X150328000Y-127293000D01*
X144938000Y-121462000D02*
X144938000Y-120381000D01*
X150328000Y-127293000D02*
X150993000Y-126628000D01*
X149977000Y-124088000D02*
X148897500Y-124088000D01*
X147627500Y-122818000D02*
X146294000Y-122818000D01*
X148897500Y-124088000D02*
X147627500Y-122818000D01*
X144938000Y-120381000D02*
X144262000Y-121057000D01*
X150993000Y-125104000D02*
X149977000Y-124088000D01*
X150993000Y-126628000D02*
X150993000Y-125104000D01*
%TO.N,Net-(J1-Pad2)*%
X146802000Y-135586000D02*
X146828000Y-135612000D01*
%TO.N,Net-(J1-Pad1)*%
X146294000Y-122818000D02*
X144938000Y-121462000D01*
%TO.N,Net-(J1-Pad2)*%
X146828000Y-126491000D02*
X147638000Y-125681000D01*
X146828000Y-135612000D02*
X146828000Y-126491000D01*
%TO.N,Net-(J1-Pad1)*%
X140528000Y-135612000D02*
X140528000Y-127293000D01*
X135138000Y-121462000D02*
X135138000Y-120381000D01*
X140528000Y-127293000D02*
X141193000Y-126628000D01*
X140177000Y-124088000D02*
X139097500Y-124088000D01*
X137827500Y-122818000D02*
X136494000Y-122818000D01*
X139097500Y-124088000D02*
X137827500Y-122818000D01*
X135138000Y-120381000D02*
X134462000Y-121057000D01*
X141193000Y-125104000D02*
X140177000Y-124088000D01*
X141193000Y-126628000D02*
X141193000Y-125104000D01*
%TO.N,Net-(J1-Pad2)*%
X137002000Y-135586000D02*
X137028000Y-135612000D01*
%TO.N,Net-(J1-Pad1)*%
X136494000Y-122818000D02*
X135138000Y-121462000D01*
%TO.N,Net-(J1-Pad2)*%
X137028000Y-126491000D02*
X137838000Y-125681000D01*
X137028000Y-135612000D02*
X137028000Y-126491000D01*
%TO.N,Net-(J1-Pad1)*%
X130728000Y-135612000D02*
X130728000Y-127293000D01*
X125338000Y-121462000D02*
X125338000Y-120381000D01*
X130728000Y-127293000D02*
X131393000Y-126628000D01*
X130377000Y-124088000D02*
X129297500Y-124088000D01*
X128027500Y-122818000D02*
X126694000Y-122818000D01*
X129297500Y-124088000D02*
X128027500Y-122818000D01*
X125338000Y-120381000D02*
X124662000Y-121057000D01*
X131393000Y-125104000D02*
X130377000Y-124088000D01*
X131393000Y-126628000D02*
X131393000Y-125104000D01*
%TO.N,Net-(J1-Pad2)*%
X127202000Y-135586000D02*
X127228000Y-135612000D01*
%TO.N,Net-(J1-Pad1)*%
X126694000Y-122818000D02*
X125338000Y-121462000D01*
%TO.N,Net-(J1-Pad2)*%
X127228000Y-126491000D02*
X128038000Y-125681000D01*
X127228000Y-135612000D02*
X127228000Y-126491000D01*
%TO.N,Net-(J1-Pad1)*%
X120928000Y-135612000D02*
X120928000Y-127293000D01*
X115538000Y-121462000D02*
X115538000Y-120381000D01*
X120928000Y-127293000D02*
X121593000Y-126628000D01*
X120577000Y-124088000D02*
X119497500Y-124088000D01*
X118227500Y-122818000D02*
X116894000Y-122818000D01*
X119497500Y-124088000D02*
X118227500Y-122818000D01*
X115538000Y-120381000D02*
X114862000Y-121057000D01*
X121593000Y-125104000D02*
X120577000Y-124088000D01*
X121593000Y-126628000D02*
X121593000Y-125104000D01*
%TO.N,Net-(J1-Pad2)*%
X117402000Y-135586000D02*
X117428000Y-135612000D01*
%TO.N,Net-(J1-Pad1)*%
X116894000Y-122818000D02*
X115538000Y-121462000D01*
%TO.N,Net-(J1-Pad2)*%
X117428000Y-126491000D02*
X118238000Y-125681000D01*
X117428000Y-135612000D02*
X117428000Y-126491000D01*
%TO.N,Net-(J1-Pad1)*%
X111128000Y-135612000D02*
X111128000Y-127293000D01*
X105738000Y-121462000D02*
X105738000Y-120381000D01*
X111128000Y-127293000D02*
X111793000Y-126628000D01*
X110777000Y-124088000D02*
X109697500Y-124088000D01*
X108427500Y-122818000D02*
X107094000Y-122818000D01*
X109697500Y-124088000D02*
X108427500Y-122818000D01*
X105738000Y-120381000D02*
X105062000Y-121057000D01*
X111793000Y-125104000D02*
X110777000Y-124088000D01*
X111793000Y-126628000D02*
X111793000Y-125104000D01*
%TO.N,Net-(J1-Pad2)*%
X107602000Y-135586000D02*
X107628000Y-135612000D01*
%TO.N,Net-(J1-Pad1)*%
X107094000Y-122818000D02*
X105738000Y-121462000D01*
%TO.N,Net-(J1-Pad2)*%
X107628000Y-126491000D02*
X108438000Y-125681000D01*
X107628000Y-135612000D02*
X107628000Y-126491000D01*
%TO.N,Net-(J1-Pad1)*%
X101328000Y-135612000D02*
X101328000Y-127293000D01*
X95938000Y-121462000D02*
X95938000Y-120381000D01*
X101328000Y-127293000D02*
X101993000Y-126628000D01*
X100977000Y-124088000D02*
X99897500Y-124088000D01*
X98627500Y-122818000D02*
X97294000Y-122818000D01*
X99897500Y-124088000D02*
X98627500Y-122818000D01*
X95938000Y-120381000D02*
X95262000Y-121057000D01*
X101993000Y-125104000D02*
X100977000Y-124088000D01*
X101993000Y-126628000D02*
X101993000Y-125104000D01*
%TO.N,Net-(J1-Pad2)*%
X97802000Y-135586000D02*
X97828000Y-135612000D01*
%TO.N,Net-(J1-Pad1)*%
X97294000Y-122818000D02*
X95938000Y-121462000D01*
%TO.N,Net-(J1-Pad2)*%
X97828000Y-126491000D02*
X98638000Y-125681000D01*
X97828000Y-135612000D02*
X97828000Y-126491000D01*
%TO.N,Net-(J1-Pad1)*%
X91528000Y-135612000D02*
X91528000Y-127293000D01*
X86138000Y-121462000D02*
X86138000Y-120381000D01*
X91528000Y-127293000D02*
X92193000Y-126628000D01*
X91177000Y-124088000D02*
X90097500Y-124088000D01*
X88827500Y-122818000D02*
X87494000Y-122818000D01*
X90097500Y-124088000D02*
X88827500Y-122818000D01*
X86138000Y-120381000D02*
X85462000Y-121057000D01*
X92193000Y-125104000D02*
X91177000Y-124088000D01*
X92193000Y-126628000D02*
X92193000Y-125104000D01*
%TO.N,Net-(J1-Pad2)*%
X88002000Y-135586000D02*
X88028000Y-135612000D01*
%TO.N,Net-(J1-Pad1)*%
X87494000Y-122818000D02*
X86138000Y-121462000D01*
%TO.N,Net-(J1-Pad2)*%
X88028000Y-126491000D02*
X88838000Y-125681000D01*
X88028000Y-135612000D02*
X88028000Y-126491000D01*
%TO.N,Net-(J1-Pad1)*%
X81728000Y-135612000D02*
X81728000Y-127293000D01*
X76338000Y-121462000D02*
X76338000Y-120381000D01*
X81728000Y-127293000D02*
X82393000Y-126628000D01*
X81377000Y-124088000D02*
X80297500Y-124088000D01*
X79027500Y-122818000D02*
X77694000Y-122818000D01*
X80297500Y-124088000D02*
X79027500Y-122818000D01*
X76338000Y-120381000D02*
X75662000Y-121057000D01*
X82393000Y-125104000D02*
X81377000Y-124088000D01*
X82393000Y-126628000D02*
X82393000Y-125104000D01*
%TO.N,Net-(J1-Pad2)*%
X78202000Y-135586000D02*
X78228000Y-135612000D01*
%TO.N,Net-(J1-Pad1)*%
X77694000Y-122818000D02*
X76338000Y-121462000D01*
%TO.N,Net-(J1-Pad2)*%
X78228000Y-126491000D02*
X79038000Y-125681000D01*
X78228000Y-135612000D02*
X78228000Y-126491000D01*
%TO.N,Net-(J1-Pad1)*%
X71928000Y-135612000D02*
X71928000Y-127293000D01*
X66538000Y-121462000D02*
X66538000Y-120381000D01*
X71928000Y-127293000D02*
X72593000Y-126628000D01*
X71577000Y-124088000D02*
X70497500Y-124088000D01*
X69227500Y-122818000D02*
X67894000Y-122818000D01*
X70497500Y-124088000D02*
X69227500Y-122818000D01*
X66538000Y-120381000D02*
X65862000Y-121057000D01*
X72593000Y-125104000D02*
X71577000Y-124088000D01*
X72593000Y-126628000D02*
X72593000Y-125104000D01*
%TO.N,Net-(J1-Pad2)*%
X68402000Y-135586000D02*
X68428000Y-135612000D01*
%TO.N,Net-(J1-Pad1)*%
X67894000Y-122818000D02*
X66538000Y-121462000D01*
%TO.N,Net-(J1-Pad2)*%
X68428000Y-126491000D02*
X69238000Y-125681000D01*
X68428000Y-135612000D02*
X68428000Y-126491000D01*
%TO.N,Net-(J1-Pad1)*%
X160128000Y-113212000D02*
X160128000Y-104893000D01*
X154738000Y-99062000D02*
X154738000Y-97981000D01*
X160128000Y-104893000D02*
X160793000Y-104228000D01*
X159777000Y-101688000D02*
X158697500Y-101688000D01*
X157427500Y-100418000D02*
X156094000Y-100418000D01*
X158697500Y-101688000D02*
X157427500Y-100418000D01*
X154738000Y-97981000D02*
X154062000Y-98657000D01*
X160793000Y-102704000D02*
X159777000Y-101688000D01*
X160793000Y-104228000D02*
X160793000Y-102704000D01*
%TO.N,Net-(J1-Pad2)*%
X156602000Y-113186000D02*
X156628000Y-113212000D01*
%TO.N,Net-(J1-Pad1)*%
X156094000Y-100418000D02*
X154738000Y-99062000D01*
%TO.N,Net-(J1-Pad2)*%
X156628000Y-104091000D02*
X157438000Y-103281000D01*
X156628000Y-113212000D02*
X156628000Y-104091000D01*
%TO.N,Net-(J1-Pad1)*%
X150328000Y-113212000D02*
X150328000Y-104893000D01*
X144938000Y-99062000D02*
X144938000Y-97981000D01*
X150328000Y-104893000D02*
X150993000Y-104228000D01*
X149977000Y-101688000D02*
X148897500Y-101688000D01*
X147627500Y-100418000D02*
X146294000Y-100418000D01*
X148897500Y-101688000D02*
X147627500Y-100418000D01*
X144938000Y-97981000D02*
X144262000Y-98657000D01*
X150993000Y-102704000D02*
X149977000Y-101688000D01*
X150993000Y-104228000D02*
X150993000Y-102704000D01*
%TO.N,Net-(J1-Pad2)*%
X146802000Y-113186000D02*
X146828000Y-113212000D01*
%TO.N,Net-(J1-Pad1)*%
X146294000Y-100418000D02*
X144938000Y-99062000D01*
%TO.N,Net-(J1-Pad2)*%
X146828000Y-104091000D02*
X147638000Y-103281000D01*
X146828000Y-113212000D02*
X146828000Y-104091000D01*
%TO.N,Net-(J1-Pad1)*%
X140528000Y-113212000D02*
X140528000Y-104893000D01*
X135138000Y-99062000D02*
X135138000Y-97981000D01*
X140528000Y-104893000D02*
X141193000Y-104228000D01*
X140177000Y-101688000D02*
X139097500Y-101688000D01*
X137827500Y-100418000D02*
X136494000Y-100418000D01*
X139097500Y-101688000D02*
X137827500Y-100418000D01*
X135138000Y-97981000D02*
X134462000Y-98657000D01*
X141193000Y-102704000D02*
X140177000Y-101688000D01*
X141193000Y-104228000D02*
X141193000Y-102704000D01*
%TO.N,Net-(J1-Pad2)*%
X137002000Y-113186000D02*
X137028000Y-113212000D01*
%TO.N,Net-(J1-Pad1)*%
X136494000Y-100418000D02*
X135138000Y-99062000D01*
%TO.N,Net-(J1-Pad2)*%
X137028000Y-104091000D02*
X137838000Y-103281000D01*
X137028000Y-113212000D02*
X137028000Y-104091000D01*
%TO.N,Net-(J1-Pad1)*%
X130728000Y-113212000D02*
X130728000Y-104893000D01*
X125338000Y-99062000D02*
X125338000Y-97981000D01*
X130728000Y-104893000D02*
X131393000Y-104228000D01*
X130377000Y-101688000D02*
X129297500Y-101688000D01*
X128027500Y-100418000D02*
X126694000Y-100418000D01*
X129297500Y-101688000D02*
X128027500Y-100418000D01*
X125338000Y-97981000D02*
X124662000Y-98657000D01*
X131393000Y-102704000D02*
X130377000Y-101688000D01*
X131393000Y-104228000D02*
X131393000Y-102704000D01*
%TO.N,Net-(J1-Pad2)*%
X127202000Y-113186000D02*
X127228000Y-113212000D01*
%TO.N,Net-(J1-Pad1)*%
X126694000Y-100418000D02*
X125338000Y-99062000D01*
%TO.N,Net-(J1-Pad2)*%
X127228000Y-104091000D02*
X128038000Y-103281000D01*
X127228000Y-113212000D02*
X127228000Y-104091000D01*
%TO.N,Net-(J1-Pad1)*%
X120928000Y-113212000D02*
X120928000Y-104893000D01*
X115538000Y-99062000D02*
X115538000Y-97981000D01*
X120928000Y-104893000D02*
X121593000Y-104228000D01*
X120577000Y-101688000D02*
X119497500Y-101688000D01*
X118227500Y-100418000D02*
X116894000Y-100418000D01*
X119497500Y-101688000D02*
X118227500Y-100418000D01*
X115538000Y-97981000D02*
X114862000Y-98657000D01*
X121593000Y-102704000D02*
X120577000Y-101688000D01*
X121593000Y-104228000D02*
X121593000Y-102704000D01*
%TO.N,Net-(J1-Pad2)*%
X117402000Y-113186000D02*
X117428000Y-113212000D01*
%TO.N,Net-(J1-Pad1)*%
X116894000Y-100418000D02*
X115538000Y-99062000D01*
%TO.N,Net-(J1-Pad2)*%
X117428000Y-104091000D02*
X118238000Y-103281000D01*
X117428000Y-113212000D02*
X117428000Y-104091000D01*
%TO.N,Net-(J1-Pad1)*%
X111128000Y-113212000D02*
X111128000Y-104893000D01*
X105738000Y-99062000D02*
X105738000Y-97981000D01*
X111128000Y-104893000D02*
X111793000Y-104228000D01*
X110777000Y-101688000D02*
X109697500Y-101688000D01*
X108427500Y-100418000D02*
X107094000Y-100418000D01*
X109697500Y-101688000D02*
X108427500Y-100418000D01*
X105738000Y-97981000D02*
X105062000Y-98657000D01*
X111793000Y-102704000D02*
X110777000Y-101688000D01*
X111793000Y-104228000D02*
X111793000Y-102704000D01*
%TO.N,Net-(J1-Pad2)*%
X107602000Y-113186000D02*
X107628000Y-113212000D01*
%TO.N,Net-(J1-Pad1)*%
X107094000Y-100418000D02*
X105738000Y-99062000D01*
%TO.N,Net-(J1-Pad2)*%
X107628000Y-104091000D02*
X108438000Y-103281000D01*
X107628000Y-113212000D02*
X107628000Y-104091000D01*
%TO.N,Net-(J1-Pad1)*%
X101328000Y-113212000D02*
X101328000Y-104893000D01*
X95938000Y-99062000D02*
X95938000Y-97981000D01*
X101328000Y-104893000D02*
X101993000Y-104228000D01*
X100977000Y-101688000D02*
X99897500Y-101688000D01*
X98627500Y-100418000D02*
X97294000Y-100418000D01*
X99897500Y-101688000D02*
X98627500Y-100418000D01*
X95938000Y-97981000D02*
X95262000Y-98657000D01*
X101993000Y-102704000D02*
X100977000Y-101688000D01*
X101993000Y-104228000D02*
X101993000Y-102704000D01*
%TO.N,Net-(J1-Pad2)*%
X97802000Y-113186000D02*
X97828000Y-113212000D01*
%TO.N,Net-(J1-Pad1)*%
X97294000Y-100418000D02*
X95938000Y-99062000D01*
%TO.N,Net-(J1-Pad2)*%
X97828000Y-104091000D02*
X98638000Y-103281000D01*
X97828000Y-113212000D02*
X97828000Y-104091000D01*
%TO.N,Net-(J1-Pad1)*%
X91528000Y-113212000D02*
X91528000Y-104893000D01*
X86138000Y-99062000D02*
X86138000Y-97981000D01*
X91528000Y-104893000D02*
X92193000Y-104228000D01*
X91177000Y-101688000D02*
X90097500Y-101688000D01*
X88827500Y-100418000D02*
X87494000Y-100418000D01*
X90097500Y-101688000D02*
X88827500Y-100418000D01*
X86138000Y-97981000D02*
X85462000Y-98657000D01*
X92193000Y-102704000D02*
X91177000Y-101688000D01*
X92193000Y-104228000D02*
X92193000Y-102704000D01*
%TO.N,Net-(J1-Pad2)*%
X88002000Y-113186000D02*
X88028000Y-113212000D01*
%TO.N,Net-(J1-Pad1)*%
X87494000Y-100418000D02*
X86138000Y-99062000D01*
%TO.N,Net-(J1-Pad2)*%
X88028000Y-104091000D02*
X88838000Y-103281000D01*
X88028000Y-113212000D02*
X88028000Y-104091000D01*
%TO.N,Net-(J1-Pad1)*%
X81728000Y-113212000D02*
X81728000Y-104893000D01*
X76338000Y-99062000D02*
X76338000Y-97981000D01*
X81728000Y-104893000D02*
X82393000Y-104228000D01*
X81377000Y-101688000D02*
X80297500Y-101688000D01*
X79027500Y-100418000D02*
X77694000Y-100418000D01*
X80297500Y-101688000D02*
X79027500Y-100418000D01*
X76338000Y-97981000D02*
X75662000Y-98657000D01*
X82393000Y-102704000D02*
X81377000Y-101688000D01*
X82393000Y-104228000D02*
X82393000Y-102704000D01*
%TO.N,Net-(J1-Pad2)*%
X78202000Y-113186000D02*
X78228000Y-113212000D01*
%TO.N,Net-(J1-Pad1)*%
X77694000Y-100418000D02*
X76338000Y-99062000D01*
%TO.N,Net-(J1-Pad2)*%
X78228000Y-104091000D02*
X79038000Y-103281000D01*
X78228000Y-113212000D02*
X78228000Y-104091000D01*
%TO.N,Net-(J1-Pad1)*%
X71928000Y-113212000D02*
X71928000Y-104893000D01*
X66538000Y-99062000D02*
X66538000Y-97981000D01*
X71928000Y-104893000D02*
X72593000Y-104228000D01*
X71577000Y-101688000D02*
X70497500Y-101688000D01*
X69227500Y-100418000D02*
X67894000Y-100418000D01*
X70497500Y-101688000D02*
X69227500Y-100418000D01*
X66538000Y-97981000D02*
X65862000Y-98657000D01*
X72593000Y-102704000D02*
X71577000Y-101688000D01*
X72593000Y-104228000D02*
X72593000Y-102704000D01*
%TO.N,Net-(J1-Pad2)*%
X68402000Y-113186000D02*
X68428000Y-113212000D01*
%TO.N,Net-(J1-Pad1)*%
X67894000Y-100418000D02*
X66538000Y-99062000D01*
%TO.N,Net-(J1-Pad2)*%
X68428000Y-104091000D02*
X69238000Y-103281000D01*
X68428000Y-113212000D02*
X68428000Y-104091000D01*
%TO.N,Net-(J1-Pad1)*%
X160128000Y-90812000D02*
X160128000Y-82493000D01*
X154738000Y-76662000D02*
X154738000Y-75581000D01*
X160128000Y-82493000D02*
X160793000Y-81828000D01*
X159777000Y-79288000D02*
X158697500Y-79288000D01*
X157427500Y-78018000D02*
X156094000Y-78018000D01*
X158697500Y-79288000D02*
X157427500Y-78018000D01*
X154738000Y-75581000D02*
X154062000Y-76257000D01*
X160793000Y-80304000D02*
X159777000Y-79288000D01*
X160793000Y-81828000D02*
X160793000Y-80304000D01*
%TO.N,Net-(J1-Pad2)*%
X156602000Y-90786000D02*
X156628000Y-90812000D01*
%TO.N,Net-(J1-Pad1)*%
X156094000Y-78018000D02*
X154738000Y-76662000D01*
%TO.N,Net-(J1-Pad2)*%
X156628000Y-81691000D02*
X157438000Y-80881000D01*
X156628000Y-90812000D02*
X156628000Y-81691000D01*
%TO.N,Net-(J1-Pad1)*%
X150328000Y-90812000D02*
X150328000Y-82493000D01*
X144938000Y-76662000D02*
X144938000Y-75581000D01*
X150328000Y-82493000D02*
X150993000Y-81828000D01*
X149977000Y-79288000D02*
X148897500Y-79288000D01*
X147627500Y-78018000D02*
X146294000Y-78018000D01*
X148897500Y-79288000D02*
X147627500Y-78018000D01*
X144938000Y-75581000D02*
X144262000Y-76257000D01*
X150993000Y-80304000D02*
X149977000Y-79288000D01*
X150993000Y-81828000D02*
X150993000Y-80304000D01*
%TO.N,Net-(J1-Pad2)*%
X146802000Y-90786000D02*
X146828000Y-90812000D01*
%TO.N,Net-(J1-Pad1)*%
X146294000Y-78018000D02*
X144938000Y-76662000D01*
%TO.N,Net-(J1-Pad2)*%
X146828000Y-81691000D02*
X147638000Y-80881000D01*
X146828000Y-90812000D02*
X146828000Y-81691000D01*
%TO.N,Net-(J1-Pad1)*%
X140528000Y-90812000D02*
X140528000Y-82493000D01*
X135138000Y-76662000D02*
X135138000Y-75581000D01*
X140528000Y-82493000D02*
X141193000Y-81828000D01*
X140177000Y-79288000D02*
X139097500Y-79288000D01*
X137827500Y-78018000D02*
X136494000Y-78018000D01*
X139097500Y-79288000D02*
X137827500Y-78018000D01*
X135138000Y-75581000D02*
X134462000Y-76257000D01*
X141193000Y-80304000D02*
X140177000Y-79288000D01*
X141193000Y-81828000D02*
X141193000Y-80304000D01*
%TO.N,Net-(J1-Pad2)*%
X137002000Y-90786000D02*
X137028000Y-90812000D01*
%TO.N,Net-(J1-Pad1)*%
X136494000Y-78018000D02*
X135138000Y-76662000D01*
%TO.N,Net-(J1-Pad2)*%
X137028000Y-81691000D02*
X137838000Y-80881000D01*
X137028000Y-90812000D02*
X137028000Y-81691000D01*
%TO.N,Net-(J1-Pad1)*%
X130728000Y-90812000D02*
X130728000Y-82493000D01*
X125338000Y-76662000D02*
X125338000Y-75581000D01*
X130728000Y-82493000D02*
X131393000Y-81828000D01*
X130377000Y-79288000D02*
X129297500Y-79288000D01*
X128027500Y-78018000D02*
X126694000Y-78018000D01*
X129297500Y-79288000D02*
X128027500Y-78018000D01*
X125338000Y-75581000D02*
X124662000Y-76257000D01*
X131393000Y-80304000D02*
X130377000Y-79288000D01*
X131393000Y-81828000D02*
X131393000Y-80304000D01*
%TO.N,Net-(J1-Pad2)*%
X127202000Y-90786000D02*
X127228000Y-90812000D01*
%TO.N,Net-(J1-Pad1)*%
X126694000Y-78018000D02*
X125338000Y-76662000D01*
%TO.N,Net-(J1-Pad2)*%
X127228000Y-81691000D02*
X128038000Y-80881000D01*
X127228000Y-90812000D02*
X127228000Y-81691000D01*
%TO.N,Net-(J1-Pad1)*%
X120928000Y-90812000D02*
X120928000Y-82493000D01*
X115538000Y-76662000D02*
X115538000Y-75581000D01*
X120928000Y-82493000D02*
X121593000Y-81828000D01*
X120577000Y-79288000D02*
X119497500Y-79288000D01*
X118227500Y-78018000D02*
X116894000Y-78018000D01*
X119497500Y-79288000D02*
X118227500Y-78018000D01*
X115538000Y-75581000D02*
X114862000Y-76257000D01*
X121593000Y-80304000D02*
X120577000Y-79288000D01*
X121593000Y-81828000D02*
X121593000Y-80304000D01*
%TO.N,Net-(J1-Pad2)*%
X117402000Y-90786000D02*
X117428000Y-90812000D01*
%TO.N,Net-(J1-Pad1)*%
X116894000Y-78018000D02*
X115538000Y-76662000D01*
%TO.N,Net-(J1-Pad2)*%
X117428000Y-81691000D02*
X118238000Y-80881000D01*
X117428000Y-90812000D02*
X117428000Y-81691000D01*
%TO.N,Net-(J1-Pad1)*%
X111128000Y-90812000D02*
X111128000Y-82493000D01*
X105738000Y-76662000D02*
X105738000Y-75581000D01*
X111128000Y-82493000D02*
X111793000Y-81828000D01*
X110777000Y-79288000D02*
X109697500Y-79288000D01*
X108427500Y-78018000D02*
X107094000Y-78018000D01*
X109697500Y-79288000D02*
X108427500Y-78018000D01*
X105738000Y-75581000D02*
X105062000Y-76257000D01*
X111793000Y-80304000D02*
X110777000Y-79288000D01*
X111793000Y-81828000D02*
X111793000Y-80304000D01*
%TO.N,Net-(J1-Pad2)*%
X107602000Y-90786000D02*
X107628000Y-90812000D01*
%TO.N,Net-(J1-Pad1)*%
X107094000Y-78018000D02*
X105738000Y-76662000D01*
%TO.N,Net-(J1-Pad2)*%
X107628000Y-81691000D02*
X108438000Y-80881000D01*
X107628000Y-90812000D02*
X107628000Y-81691000D01*
%TO.N,Net-(J1-Pad1)*%
X101328000Y-90812000D02*
X101328000Y-82493000D01*
X95938000Y-76662000D02*
X95938000Y-75581000D01*
X101328000Y-82493000D02*
X101993000Y-81828000D01*
X100977000Y-79288000D02*
X99897500Y-79288000D01*
X98627500Y-78018000D02*
X97294000Y-78018000D01*
X99897500Y-79288000D02*
X98627500Y-78018000D01*
X95938000Y-75581000D02*
X95262000Y-76257000D01*
X101993000Y-80304000D02*
X100977000Y-79288000D01*
X101993000Y-81828000D02*
X101993000Y-80304000D01*
%TO.N,Net-(J1-Pad2)*%
X97802000Y-90786000D02*
X97828000Y-90812000D01*
%TO.N,Net-(J1-Pad1)*%
X97294000Y-78018000D02*
X95938000Y-76662000D01*
%TO.N,Net-(J1-Pad2)*%
X97828000Y-81691000D02*
X98638000Y-80881000D01*
X97828000Y-90812000D02*
X97828000Y-81691000D01*
%TO.N,Net-(J1-Pad1)*%
X91528000Y-90812000D02*
X91528000Y-82493000D01*
X86138000Y-76662000D02*
X86138000Y-75581000D01*
X91528000Y-82493000D02*
X92193000Y-81828000D01*
X91177000Y-79288000D02*
X90097500Y-79288000D01*
X88827500Y-78018000D02*
X87494000Y-78018000D01*
X90097500Y-79288000D02*
X88827500Y-78018000D01*
X86138000Y-75581000D02*
X85462000Y-76257000D01*
X92193000Y-80304000D02*
X91177000Y-79288000D01*
X92193000Y-81828000D02*
X92193000Y-80304000D01*
%TO.N,Net-(J1-Pad2)*%
X88002000Y-90786000D02*
X88028000Y-90812000D01*
%TO.N,Net-(J1-Pad1)*%
X87494000Y-78018000D02*
X86138000Y-76662000D01*
%TO.N,Net-(J1-Pad2)*%
X88028000Y-81691000D02*
X88838000Y-80881000D01*
X88028000Y-90812000D02*
X88028000Y-81691000D01*
%TO.N,Net-(J1-Pad1)*%
X81728000Y-90812000D02*
X81728000Y-82493000D01*
X76338000Y-76662000D02*
X76338000Y-75581000D01*
X81728000Y-82493000D02*
X82393000Y-81828000D01*
X81377000Y-79288000D02*
X80297500Y-79288000D01*
X79027500Y-78018000D02*
X77694000Y-78018000D01*
X80297500Y-79288000D02*
X79027500Y-78018000D01*
X76338000Y-75581000D02*
X75662000Y-76257000D01*
X82393000Y-80304000D02*
X81377000Y-79288000D01*
X82393000Y-81828000D02*
X82393000Y-80304000D01*
%TO.N,Net-(J1-Pad2)*%
X78202000Y-90786000D02*
X78228000Y-90812000D01*
%TO.N,Net-(J1-Pad1)*%
X77694000Y-78018000D02*
X76338000Y-76662000D01*
%TO.N,Net-(J1-Pad2)*%
X78228000Y-81691000D02*
X79038000Y-80881000D01*
X78228000Y-90812000D02*
X78228000Y-81691000D01*
%TO.N,Net-(J1-Pad1)*%
X71928000Y-90812000D02*
X71928000Y-82493000D01*
X66538000Y-76662000D02*
X66538000Y-75581000D01*
X71928000Y-82493000D02*
X72593000Y-81828000D01*
X71577000Y-79288000D02*
X70497500Y-79288000D01*
X69227500Y-78018000D02*
X67894000Y-78018000D01*
X70497500Y-79288000D02*
X69227500Y-78018000D01*
X66538000Y-75581000D02*
X65862000Y-76257000D01*
X72593000Y-80304000D02*
X71577000Y-79288000D01*
X72593000Y-81828000D02*
X72593000Y-80304000D01*
%TO.N,Net-(J1-Pad2)*%
X68402000Y-90786000D02*
X68428000Y-90812000D01*
%TO.N,Net-(J1-Pad1)*%
X67894000Y-78018000D02*
X66538000Y-76662000D01*
%TO.N,Net-(J1-Pad2)*%
X68428000Y-81691000D02*
X69238000Y-80881000D01*
X68428000Y-90812000D02*
X68428000Y-81691000D01*
%TO.N,Net-(J1-Pad1)*%
X160128000Y-68412000D02*
X160128000Y-60093000D01*
X154738000Y-54262000D02*
X154738000Y-53181000D01*
X160128000Y-60093000D02*
X160793000Y-59428000D01*
X159777000Y-56888000D02*
X158697500Y-56888000D01*
X157427500Y-55618000D02*
X156094000Y-55618000D01*
X158697500Y-56888000D02*
X157427500Y-55618000D01*
X154738000Y-53181000D02*
X154062000Y-53857000D01*
X160793000Y-57904000D02*
X159777000Y-56888000D01*
X160793000Y-59428000D02*
X160793000Y-57904000D01*
%TO.N,Net-(J1-Pad2)*%
X156602000Y-68386000D02*
X156628000Y-68412000D01*
%TO.N,Net-(J1-Pad1)*%
X156094000Y-55618000D02*
X154738000Y-54262000D01*
%TO.N,Net-(J1-Pad2)*%
X156628000Y-59291000D02*
X157438000Y-58481000D01*
X156628000Y-68412000D02*
X156628000Y-59291000D01*
%TO.N,Net-(J1-Pad1)*%
X150328000Y-68412000D02*
X150328000Y-60093000D01*
X144938000Y-54262000D02*
X144938000Y-53181000D01*
X150328000Y-60093000D02*
X150993000Y-59428000D01*
X149977000Y-56888000D02*
X148897500Y-56888000D01*
X147627500Y-55618000D02*
X146294000Y-55618000D01*
X148897500Y-56888000D02*
X147627500Y-55618000D01*
X144938000Y-53181000D02*
X144262000Y-53857000D01*
X150993000Y-57904000D02*
X149977000Y-56888000D01*
X150993000Y-59428000D02*
X150993000Y-57904000D01*
%TO.N,Net-(J1-Pad2)*%
X146802000Y-68386000D02*
X146828000Y-68412000D01*
%TO.N,Net-(J1-Pad1)*%
X146294000Y-55618000D02*
X144938000Y-54262000D01*
%TO.N,Net-(J1-Pad2)*%
X146828000Y-59291000D02*
X147638000Y-58481000D01*
X146828000Y-68412000D02*
X146828000Y-59291000D01*
%TO.N,Net-(J1-Pad1)*%
X140528000Y-68412000D02*
X140528000Y-60093000D01*
X135138000Y-54262000D02*
X135138000Y-53181000D01*
X140528000Y-60093000D02*
X141193000Y-59428000D01*
X140177000Y-56888000D02*
X139097500Y-56888000D01*
X137827500Y-55618000D02*
X136494000Y-55618000D01*
X139097500Y-56888000D02*
X137827500Y-55618000D01*
X135138000Y-53181000D02*
X134462000Y-53857000D01*
X141193000Y-57904000D02*
X140177000Y-56888000D01*
X141193000Y-59428000D02*
X141193000Y-57904000D01*
%TO.N,Net-(J1-Pad2)*%
X137002000Y-68386000D02*
X137028000Y-68412000D01*
%TO.N,Net-(J1-Pad1)*%
X136494000Y-55618000D02*
X135138000Y-54262000D01*
%TO.N,Net-(J1-Pad2)*%
X137028000Y-59291000D02*
X137838000Y-58481000D01*
X137028000Y-68412000D02*
X137028000Y-59291000D01*
%TO.N,Net-(J1-Pad1)*%
X130728000Y-68412000D02*
X130728000Y-60093000D01*
X125338000Y-54262000D02*
X125338000Y-53181000D01*
X130728000Y-60093000D02*
X131393000Y-59428000D01*
X130377000Y-56888000D02*
X129297500Y-56888000D01*
X128027500Y-55618000D02*
X126694000Y-55618000D01*
X129297500Y-56888000D02*
X128027500Y-55618000D01*
X125338000Y-53181000D02*
X124662000Y-53857000D01*
X131393000Y-57904000D02*
X130377000Y-56888000D01*
X131393000Y-59428000D02*
X131393000Y-57904000D01*
%TO.N,Net-(J1-Pad2)*%
X127202000Y-68386000D02*
X127228000Y-68412000D01*
%TO.N,Net-(J1-Pad1)*%
X126694000Y-55618000D02*
X125338000Y-54262000D01*
%TO.N,Net-(J1-Pad2)*%
X127228000Y-59291000D02*
X128038000Y-58481000D01*
X127228000Y-68412000D02*
X127228000Y-59291000D01*
%TO.N,Net-(J1-Pad1)*%
X120928000Y-68412000D02*
X120928000Y-60093000D01*
X115538000Y-54262000D02*
X115538000Y-53181000D01*
X120928000Y-60093000D02*
X121593000Y-59428000D01*
X120577000Y-56888000D02*
X119497500Y-56888000D01*
X118227500Y-55618000D02*
X116894000Y-55618000D01*
X119497500Y-56888000D02*
X118227500Y-55618000D01*
X115538000Y-53181000D02*
X114862000Y-53857000D01*
X121593000Y-57904000D02*
X120577000Y-56888000D01*
X121593000Y-59428000D02*
X121593000Y-57904000D01*
%TO.N,Net-(J1-Pad2)*%
X117402000Y-68386000D02*
X117428000Y-68412000D01*
%TO.N,Net-(J1-Pad1)*%
X116894000Y-55618000D02*
X115538000Y-54262000D01*
%TO.N,Net-(J1-Pad2)*%
X117428000Y-59291000D02*
X118238000Y-58481000D01*
X117428000Y-68412000D02*
X117428000Y-59291000D01*
%TO.N,Net-(J1-Pad1)*%
X111128000Y-68412000D02*
X111128000Y-60093000D01*
X105738000Y-54262000D02*
X105738000Y-53181000D01*
X111128000Y-60093000D02*
X111793000Y-59428000D01*
X110777000Y-56888000D02*
X109697500Y-56888000D01*
X108427500Y-55618000D02*
X107094000Y-55618000D01*
X109697500Y-56888000D02*
X108427500Y-55618000D01*
X105738000Y-53181000D02*
X105062000Y-53857000D01*
X111793000Y-57904000D02*
X110777000Y-56888000D01*
X111793000Y-59428000D02*
X111793000Y-57904000D01*
%TO.N,Net-(J1-Pad2)*%
X107602000Y-68386000D02*
X107628000Y-68412000D01*
%TO.N,Net-(J1-Pad1)*%
X107094000Y-55618000D02*
X105738000Y-54262000D01*
%TO.N,Net-(J1-Pad2)*%
X107628000Y-59291000D02*
X108438000Y-58481000D01*
X107628000Y-68412000D02*
X107628000Y-59291000D01*
%TO.N,Net-(J1-Pad1)*%
X101328000Y-68412000D02*
X101328000Y-60093000D01*
X95938000Y-54262000D02*
X95938000Y-53181000D01*
X101328000Y-60093000D02*
X101993000Y-59428000D01*
X100977000Y-56888000D02*
X99897500Y-56888000D01*
X98627500Y-55618000D02*
X97294000Y-55618000D01*
X99897500Y-56888000D02*
X98627500Y-55618000D01*
X95938000Y-53181000D02*
X95262000Y-53857000D01*
X101993000Y-57904000D02*
X100977000Y-56888000D01*
X101993000Y-59428000D02*
X101993000Y-57904000D01*
%TO.N,Net-(J1-Pad2)*%
X97802000Y-68386000D02*
X97828000Y-68412000D01*
%TO.N,Net-(J1-Pad1)*%
X97294000Y-55618000D02*
X95938000Y-54262000D01*
%TO.N,Net-(J1-Pad2)*%
X97828000Y-59291000D02*
X98638000Y-58481000D01*
X97828000Y-68412000D02*
X97828000Y-59291000D01*
%TO.N,Net-(J1-Pad1)*%
X91528000Y-68412000D02*
X91528000Y-60093000D01*
X86138000Y-54262000D02*
X86138000Y-53181000D01*
X91528000Y-60093000D02*
X92193000Y-59428000D01*
X91177000Y-56888000D02*
X90097500Y-56888000D01*
X88827500Y-55618000D02*
X87494000Y-55618000D01*
X90097500Y-56888000D02*
X88827500Y-55618000D01*
X86138000Y-53181000D02*
X85462000Y-53857000D01*
X92193000Y-57904000D02*
X91177000Y-56888000D01*
X92193000Y-59428000D02*
X92193000Y-57904000D01*
%TO.N,Net-(J1-Pad2)*%
X88002000Y-68386000D02*
X88028000Y-68412000D01*
%TO.N,Net-(J1-Pad1)*%
X87494000Y-55618000D02*
X86138000Y-54262000D01*
%TO.N,Net-(J1-Pad2)*%
X88028000Y-59291000D02*
X88838000Y-58481000D01*
X88028000Y-68412000D02*
X88028000Y-59291000D01*
%TO.N,Net-(J1-Pad1)*%
X81728000Y-68412000D02*
X81728000Y-60093000D01*
X76338000Y-54262000D02*
X76338000Y-53181000D01*
X81728000Y-60093000D02*
X82393000Y-59428000D01*
X81377000Y-56888000D02*
X80297500Y-56888000D01*
X79027500Y-55618000D02*
X77694000Y-55618000D01*
X80297500Y-56888000D02*
X79027500Y-55618000D01*
X76338000Y-53181000D02*
X75662000Y-53857000D01*
X82393000Y-57904000D02*
X81377000Y-56888000D01*
X82393000Y-59428000D02*
X82393000Y-57904000D01*
%TO.N,Net-(J1-Pad2)*%
X78202000Y-68386000D02*
X78228000Y-68412000D01*
%TO.N,Net-(J1-Pad1)*%
X77694000Y-55618000D02*
X76338000Y-54262000D01*
%TO.N,Net-(J1-Pad2)*%
X78228000Y-59291000D02*
X79038000Y-58481000D01*
X78228000Y-68412000D02*
X78228000Y-59291000D01*
%TO.N,Net-(J1-Pad1)*%
X71928000Y-68412000D02*
X71928000Y-60093000D01*
X66538000Y-54262000D02*
X66538000Y-53181000D01*
X70497500Y-56888000D02*
X69227500Y-55618000D01*
X69227500Y-55618000D02*
X67894000Y-55618000D01*
X71928000Y-60093000D02*
X72593000Y-59428000D01*
X71577000Y-56888000D02*
X70497500Y-56888000D01*
X72593000Y-59428000D02*
X72593000Y-57904000D01*
X67894000Y-55618000D02*
X66538000Y-54262000D01*
X72593000Y-57904000D02*
X71577000Y-56888000D01*
X66538000Y-53181000D02*
X65862000Y-53857000D01*
%TO.N,Net-(J1-Pad2)*%
X68428000Y-59291000D02*
X69238000Y-58481000D01*
X68402000Y-68386000D02*
X68428000Y-68412000D01*
X68428000Y-68412000D02*
X68428000Y-59291000D01*
%TD*%
M02*
