%TF.GenerationSoftware,KiCad,Pcbnew,6.0.11-2627ca5db0~126~ubuntu20.04.1*%
%TF.CreationDate,2024-11-30T22:39:17-05:00*%
%TF.ProjectId,,58585858-5858-4585-9858-585858585858,rev?*%
%TF.SameCoordinates,Original*%
%TF.FileFunction,Copper,L2,Bot*%
%TF.FilePolarity,Positive*%
%FSLAX46Y46*%
G04 Gerber Fmt 4.6, Leading zero omitted, Abs format (unit mm)*
G04 Created by KiCad (PCBNEW 6.0.11-2627ca5db0~126~ubuntu20.04.1) date 2024-11-30 22:39:17*
%MOMM*%
%LPD*%
G01*
G04 APERTURE LIST*
%TA.AperFunction,Profile*%
%ADD10C,0.100000*%
%TD*%
%TA.AperFunction,ComponentPad*%
%ADD11R,1.700000X4.000000*%
%TD*%
%TA.AperFunction,ComponentPad*%
%ADD12O,4.000000X1.700000*%
%TD*%
%TA.AperFunction,ComponentPad*%
%ADD13R,2.400000X2.400000*%
%TD*%
%TA.AperFunction,ComponentPad*%
%ADD14C,2.400000*%
%TD*%
%TA.AperFunction,Conductor*%
%ADD15C,0.750000*%
%TD*%
G04 APERTURE END LIST*
D10*
X151090000Y-107121000D02*
X169290000Y-107121000D01*
X169290000Y-116021000D02*
X173090000Y-112421000D01*
X164790000Y-113721000D02*
X164790000Y-115171000D01*
X164790000Y-115171000D02*
X165690000Y-116021000D01*
X169290000Y-107121000D02*
X173090000Y-110721000D01*
X151090000Y-113721000D02*
X164790000Y-113721000D01*
X165690000Y-116021000D02*
X169290000Y-116021000D01*
X151090000Y-107121000D02*
X151090000Y-113721000D01*
X173090000Y-110721000D02*
X173090000Y-112421000D01*
X129090000Y-107121000D02*
X147290000Y-107121000D01*
X147290000Y-116021000D02*
X151090000Y-112421000D01*
X142790000Y-113721000D02*
X142790000Y-115171000D01*
X142790000Y-115171000D02*
X143690000Y-116021000D01*
X147290000Y-107121000D02*
X151090000Y-110721000D01*
X129090000Y-113721000D02*
X142790000Y-113721000D01*
X143690000Y-116021000D02*
X147290000Y-116021000D01*
X129090000Y-107121000D02*
X129090000Y-113721000D01*
X151090000Y-110721000D02*
X151090000Y-112421000D01*
X107090000Y-107121000D02*
X125290000Y-107121000D01*
X125290000Y-116021000D02*
X129090000Y-112421000D01*
X120790000Y-113721000D02*
X120790000Y-115171000D01*
X120790000Y-115171000D02*
X121690000Y-116021000D01*
X125290000Y-107121000D02*
X129090000Y-110721000D01*
X107090000Y-113721000D02*
X120790000Y-113721000D01*
X121690000Y-116021000D02*
X125290000Y-116021000D01*
X107090000Y-107121000D02*
X107090000Y-113721000D01*
X129090000Y-110721000D02*
X129090000Y-112421000D01*
X85090000Y-107121000D02*
X103290000Y-107121000D01*
X103290000Y-116021000D02*
X107090000Y-112421000D01*
X98790000Y-113721000D02*
X98790000Y-115171000D01*
X98790000Y-115171000D02*
X99690000Y-116021000D01*
X103290000Y-107121000D02*
X107090000Y-110721000D01*
X85090000Y-113721000D02*
X98790000Y-113721000D01*
X99690000Y-116021000D02*
X103290000Y-116021000D01*
X85090000Y-107121000D02*
X85090000Y-113721000D01*
X107090000Y-110721000D02*
X107090000Y-112421000D01*
X151090000Y-98221000D02*
X169290000Y-98221000D01*
X169290000Y-107121000D02*
X173090000Y-103521000D01*
X164790000Y-104821000D02*
X164790000Y-106271000D01*
X164790000Y-106271000D02*
X165690000Y-107121000D01*
X169290000Y-98221000D02*
X173090000Y-101821000D01*
X151090000Y-104821000D02*
X164790000Y-104821000D01*
X165690000Y-107121000D02*
X169290000Y-107121000D01*
X151090000Y-98221000D02*
X151090000Y-104821000D01*
X173090000Y-101821000D02*
X173090000Y-103521000D01*
X129090000Y-98221000D02*
X147290000Y-98221000D01*
X147290000Y-107121000D02*
X151090000Y-103521000D01*
X142790000Y-104821000D02*
X142790000Y-106271000D01*
X142790000Y-106271000D02*
X143690000Y-107121000D01*
X147290000Y-98221000D02*
X151090000Y-101821000D01*
X129090000Y-104821000D02*
X142790000Y-104821000D01*
X143690000Y-107121000D02*
X147290000Y-107121000D01*
X129090000Y-98221000D02*
X129090000Y-104821000D01*
X151090000Y-101821000D02*
X151090000Y-103521000D01*
X107090000Y-98221000D02*
X125290000Y-98221000D01*
X125290000Y-107121000D02*
X129090000Y-103521000D01*
X120790000Y-104821000D02*
X120790000Y-106271000D01*
X120790000Y-106271000D02*
X121690000Y-107121000D01*
X125290000Y-98221000D02*
X129090000Y-101821000D01*
X107090000Y-104821000D02*
X120790000Y-104821000D01*
X121690000Y-107121000D02*
X125290000Y-107121000D01*
X107090000Y-98221000D02*
X107090000Y-104821000D01*
X129090000Y-101821000D02*
X129090000Y-103521000D01*
X85090000Y-98221000D02*
X103290000Y-98221000D01*
X103290000Y-107121000D02*
X107090000Y-103521000D01*
X98790000Y-104821000D02*
X98790000Y-106271000D01*
X98790000Y-106271000D02*
X99690000Y-107121000D01*
X103290000Y-98221000D02*
X107090000Y-101821000D01*
X85090000Y-104821000D02*
X98790000Y-104821000D01*
X99690000Y-107121000D02*
X103290000Y-107121000D01*
X85090000Y-98221000D02*
X85090000Y-104821000D01*
X107090000Y-101821000D02*
X107090000Y-103521000D01*
X151090000Y-89321000D02*
X169290000Y-89321000D01*
X169290000Y-98221000D02*
X173090000Y-94621000D01*
X164790000Y-95921000D02*
X164790000Y-97371000D01*
X164790000Y-97371000D02*
X165690000Y-98221000D01*
X169290000Y-89321000D02*
X173090000Y-92921000D01*
X151090000Y-95921000D02*
X164790000Y-95921000D01*
X165690000Y-98221000D02*
X169290000Y-98221000D01*
X151090000Y-89321000D02*
X151090000Y-95921000D01*
X173090000Y-92921000D02*
X173090000Y-94621000D01*
X129090000Y-89321000D02*
X147290000Y-89321000D01*
X147290000Y-98221000D02*
X151090000Y-94621000D01*
X142790000Y-95921000D02*
X142790000Y-97371000D01*
X142790000Y-97371000D02*
X143690000Y-98221000D01*
X147290000Y-89321000D02*
X151090000Y-92921000D01*
X129090000Y-95921000D02*
X142790000Y-95921000D01*
X143690000Y-98221000D02*
X147290000Y-98221000D01*
X129090000Y-89321000D02*
X129090000Y-95921000D01*
X151090000Y-92921000D02*
X151090000Y-94621000D01*
X107090000Y-89321000D02*
X125290000Y-89321000D01*
X125290000Y-98221000D02*
X129090000Y-94621000D01*
X120790000Y-95921000D02*
X120790000Y-97371000D01*
X120790000Y-97371000D02*
X121690000Y-98221000D01*
X125290000Y-89321000D02*
X129090000Y-92921000D01*
X107090000Y-95921000D02*
X120790000Y-95921000D01*
X121690000Y-98221000D02*
X125290000Y-98221000D01*
X107090000Y-89321000D02*
X107090000Y-95921000D01*
X129090000Y-92921000D02*
X129090000Y-94621000D01*
X85090000Y-89321000D02*
X103290000Y-89321000D01*
X103290000Y-98221000D02*
X107090000Y-94621000D01*
X98790000Y-95921000D02*
X98790000Y-97371000D01*
X98790000Y-97371000D02*
X99690000Y-98221000D01*
X103290000Y-89321000D02*
X107090000Y-92921000D01*
X85090000Y-95921000D02*
X98790000Y-95921000D01*
X99690000Y-98221000D02*
X103290000Y-98221000D01*
X85090000Y-89321000D02*
X85090000Y-95921000D01*
X107090000Y-92921000D02*
X107090000Y-94621000D01*
X151090000Y-80421000D02*
X169290000Y-80421000D01*
X169290000Y-89321000D02*
X173090000Y-85721000D01*
X164790000Y-87021000D02*
X164790000Y-88471000D01*
X164790000Y-88471000D02*
X165690000Y-89321000D01*
X169290000Y-80421000D02*
X173090000Y-84021000D01*
X151090000Y-87021000D02*
X164790000Y-87021000D01*
X165690000Y-89321000D02*
X169290000Y-89321000D01*
X151090000Y-80421000D02*
X151090000Y-87021000D01*
X173090000Y-84021000D02*
X173090000Y-85721000D01*
X129090000Y-80421000D02*
X147290000Y-80421000D01*
X147290000Y-89321000D02*
X151090000Y-85721000D01*
X142790000Y-87021000D02*
X142790000Y-88471000D01*
X142790000Y-88471000D02*
X143690000Y-89321000D01*
X147290000Y-80421000D02*
X151090000Y-84021000D01*
X129090000Y-87021000D02*
X142790000Y-87021000D01*
X143690000Y-89321000D02*
X147290000Y-89321000D01*
X129090000Y-80421000D02*
X129090000Y-87021000D01*
X151090000Y-84021000D02*
X151090000Y-85721000D01*
X107090000Y-80421000D02*
X125290000Y-80421000D01*
X125290000Y-89321000D02*
X129090000Y-85721000D01*
X120790000Y-87021000D02*
X120790000Y-88471000D01*
X120790000Y-88471000D02*
X121690000Y-89321000D01*
X125290000Y-80421000D02*
X129090000Y-84021000D01*
X107090000Y-87021000D02*
X120790000Y-87021000D01*
X121690000Y-89321000D02*
X125290000Y-89321000D01*
X107090000Y-80421000D02*
X107090000Y-87021000D01*
X129090000Y-84021000D02*
X129090000Y-85721000D01*
X85090000Y-80421000D02*
X103290000Y-80421000D01*
X103290000Y-89321000D02*
X107090000Y-85721000D01*
X98790000Y-87021000D02*
X98790000Y-88471000D01*
X98790000Y-88471000D02*
X99690000Y-89321000D01*
X103290000Y-80421000D02*
X107090000Y-84021000D01*
X85090000Y-87021000D02*
X98790000Y-87021000D01*
X99690000Y-89321000D02*
X103290000Y-89321000D01*
X85090000Y-80421000D02*
X85090000Y-87021000D01*
X107090000Y-84021000D02*
X107090000Y-85721000D01*
X151090000Y-71521000D02*
X169290000Y-71521000D01*
X169290000Y-80421000D02*
X173090000Y-76821000D01*
X164790000Y-78121000D02*
X164790000Y-79571000D01*
X164790000Y-79571000D02*
X165690000Y-80421000D01*
X169290000Y-71521000D02*
X173090000Y-75121000D01*
X151090000Y-78121000D02*
X164790000Y-78121000D01*
X165690000Y-80421000D02*
X169290000Y-80421000D01*
X151090000Y-71521000D02*
X151090000Y-78121000D01*
X173090000Y-75121000D02*
X173090000Y-76821000D01*
X129090000Y-71521000D02*
X147290000Y-71521000D01*
X147290000Y-80421000D02*
X151090000Y-76821000D01*
X142790000Y-78121000D02*
X142790000Y-79571000D01*
X142790000Y-79571000D02*
X143690000Y-80421000D01*
X147290000Y-71521000D02*
X151090000Y-75121000D01*
X129090000Y-78121000D02*
X142790000Y-78121000D01*
X143690000Y-80421000D02*
X147290000Y-80421000D01*
X129090000Y-71521000D02*
X129090000Y-78121000D01*
X151090000Y-75121000D02*
X151090000Y-76821000D01*
X107090000Y-71521000D02*
X125290000Y-71521000D01*
X125290000Y-80421000D02*
X129090000Y-76821000D01*
X120790000Y-78121000D02*
X120790000Y-79571000D01*
X120790000Y-79571000D02*
X121690000Y-80421000D01*
X125290000Y-71521000D02*
X129090000Y-75121000D01*
X107090000Y-78121000D02*
X120790000Y-78121000D01*
X121690000Y-80421000D02*
X125290000Y-80421000D01*
X107090000Y-71521000D02*
X107090000Y-78121000D01*
X129090000Y-75121000D02*
X129090000Y-76821000D01*
X85090000Y-71521000D02*
X103290000Y-71521000D01*
X103290000Y-80421000D02*
X107090000Y-76821000D01*
X98790000Y-78121000D02*
X98790000Y-79571000D01*
X98790000Y-79571000D02*
X99690000Y-80421000D01*
X103290000Y-71521000D02*
X107090000Y-75121000D01*
X85090000Y-78121000D02*
X98790000Y-78121000D01*
X99690000Y-80421000D02*
X103290000Y-80421000D01*
X85090000Y-71521000D02*
X85090000Y-78121000D01*
X107090000Y-75121000D02*
X107090000Y-76821000D01*
X151090000Y-62621000D02*
X169290000Y-62621000D01*
X169290000Y-71521000D02*
X173090000Y-67921000D01*
X164790000Y-69221000D02*
X164790000Y-70671000D01*
X164790000Y-70671000D02*
X165690000Y-71521000D01*
X169290000Y-62621000D02*
X173090000Y-66221000D01*
X151090000Y-69221000D02*
X164790000Y-69221000D01*
X165690000Y-71521000D02*
X169290000Y-71521000D01*
X151090000Y-62621000D02*
X151090000Y-69221000D01*
X173090000Y-66221000D02*
X173090000Y-67921000D01*
X129090000Y-62621000D02*
X147290000Y-62621000D01*
X147290000Y-71521000D02*
X151090000Y-67921000D01*
X142790000Y-69221000D02*
X142790000Y-70671000D01*
X142790000Y-70671000D02*
X143690000Y-71521000D01*
X147290000Y-62621000D02*
X151090000Y-66221000D01*
X129090000Y-69221000D02*
X142790000Y-69221000D01*
X143690000Y-71521000D02*
X147290000Y-71521000D01*
X129090000Y-62621000D02*
X129090000Y-69221000D01*
X151090000Y-66221000D02*
X151090000Y-67921000D01*
X107090000Y-62621000D02*
X125290000Y-62621000D01*
X125290000Y-71521000D02*
X129090000Y-67921000D01*
X120790000Y-69221000D02*
X120790000Y-70671000D01*
X120790000Y-70671000D02*
X121690000Y-71521000D01*
X125290000Y-62621000D02*
X129090000Y-66221000D01*
X107090000Y-69221000D02*
X120790000Y-69221000D01*
X121690000Y-71521000D02*
X125290000Y-71521000D01*
X107090000Y-62621000D02*
X107090000Y-69221000D01*
X129090000Y-66221000D02*
X129090000Y-67921000D01*
X85090000Y-62621000D02*
X103290000Y-62621000D01*
X103290000Y-71521000D02*
X107090000Y-67921000D01*
X98790000Y-69221000D02*
X98790000Y-70671000D01*
X98790000Y-70671000D02*
X99690000Y-71521000D01*
X103290000Y-62621000D02*
X107090000Y-66221000D01*
X85090000Y-69221000D02*
X98790000Y-69221000D01*
X99690000Y-71521000D02*
X103290000Y-71521000D01*
X85090000Y-62621000D02*
X85090000Y-69221000D01*
X107090000Y-66221000D02*
X107090000Y-67921000D01*
X151090000Y-53721000D02*
X169290000Y-53721000D01*
X169290000Y-62621000D02*
X173090000Y-59021000D01*
X164790000Y-60321000D02*
X164790000Y-61771000D01*
X164790000Y-61771000D02*
X165690000Y-62621000D01*
X169290000Y-53721000D02*
X173090000Y-57321000D01*
X151090000Y-60321000D02*
X164790000Y-60321000D01*
X165690000Y-62621000D02*
X169290000Y-62621000D01*
X151090000Y-53721000D02*
X151090000Y-60321000D01*
X173090000Y-57321000D02*
X173090000Y-59021000D01*
X129090000Y-53721000D02*
X147290000Y-53721000D01*
X147290000Y-62621000D02*
X151090000Y-59021000D01*
X142790000Y-60321000D02*
X142790000Y-61771000D01*
X142790000Y-61771000D02*
X143690000Y-62621000D01*
X147290000Y-53721000D02*
X151090000Y-57321000D01*
X129090000Y-60321000D02*
X142790000Y-60321000D01*
X143690000Y-62621000D02*
X147290000Y-62621000D01*
X129090000Y-53721000D02*
X129090000Y-60321000D01*
X151090000Y-57321000D02*
X151090000Y-59021000D01*
X107090000Y-53721000D02*
X125290000Y-53721000D01*
X125290000Y-62621000D02*
X129090000Y-59021000D01*
X120790000Y-60321000D02*
X120790000Y-61771000D01*
X120790000Y-61771000D02*
X121690000Y-62621000D01*
X125290000Y-53721000D02*
X129090000Y-57321000D01*
X107090000Y-60321000D02*
X120790000Y-60321000D01*
X121690000Y-62621000D02*
X125290000Y-62621000D01*
X107090000Y-53721000D02*
X107090000Y-60321000D01*
X129090000Y-57321000D02*
X129090000Y-59021000D01*
X85090000Y-53721000D02*
X103290000Y-53721000D01*
X103290000Y-62621000D02*
X107090000Y-59021000D01*
X85090000Y-53721000D02*
X85090000Y-60321000D01*
X98790000Y-60321000D02*
X98790000Y-61771000D01*
X99690000Y-62621000D02*
X103290000Y-62621000D01*
X103290000Y-53721000D02*
X107090000Y-57321000D01*
X98790000Y-61771000D02*
X99690000Y-62621000D01*
X107090000Y-57321000D02*
X107090000Y-59021000D01*
X85090000Y-60321000D02*
X98790000Y-60321000D01*
D11*
%TO.P,J1,1*%
%TO.N,Net-(J1-Pad1)*%
X164550000Y-109521000D03*
D12*
%TO.P,J1,2*%
%TO.N,Net-(J1-Pad2)*%
X167250000Y-114821000D03*
%TO.P,J1,3*%
%TO.N,unconnected-(J1-Pad3)*%
X170750000Y-111721000D03*
%TD*%
D13*
%TO.P,J2,1,Pin_1*%
%TO.N,Net-(J1-Pad2)*%
X155338000Y-112171000D03*
D14*
%TO.P,J2,2,Pin_2*%
%TO.N,Net-(J1-Pad1)*%
X155338000Y-108671000D03*
%TD*%
D11*
%TO.P,J1,1*%
%TO.N,Net-(J1-Pad1)*%
X142550000Y-109521000D03*
D12*
%TO.P,J1,2*%
%TO.N,Net-(J1-Pad2)*%
X145250000Y-114821000D03*
%TO.P,J1,3*%
%TO.N,unconnected-(J1-Pad3)*%
X148750000Y-111721000D03*
%TD*%
D13*
%TO.P,J2,1,Pin_1*%
%TO.N,Net-(J1-Pad2)*%
X133338000Y-112171000D03*
D14*
%TO.P,J2,2,Pin_2*%
%TO.N,Net-(J1-Pad1)*%
X133338000Y-108671000D03*
%TD*%
D11*
%TO.P,J1,1*%
%TO.N,Net-(J1-Pad1)*%
X120550000Y-109521000D03*
D12*
%TO.P,J1,2*%
%TO.N,Net-(J1-Pad2)*%
X123250000Y-114821000D03*
%TO.P,J1,3*%
%TO.N,unconnected-(J1-Pad3)*%
X126750000Y-111721000D03*
%TD*%
D13*
%TO.P,J2,1,Pin_1*%
%TO.N,Net-(J1-Pad2)*%
X111338000Y-112171000D03*
D14*
%TO.P,J2,2,Pin_2*%
%TO.N,Net-(J1-Pad1)*%
X111338000Y-108671000D03*
%TD*%
D11*
%TO.P,J1,1*%
%TO.N,Net-(J1-Pad1)*%
X98550000Y-109521000D03*
D12*
%TO.P,J1,2*%
%TO.N,Net-(J1-Pad2)*%
X101250000Y-114821000D03*
%TO.P,J1,3*%
%TO.N,unconnected-(J1-Pad3)*%
X104750000Y-111721000D03*
%TD*%
D13*
%TO.P,J2,1,Pin_1*%
%TO.N,Net-(J1-Pad2)*%
X89338000Y-112171000D03*
D14*
%TO.P,J2,2,Pin_2*%
%TO.N,Net-(J1-Pad1)*%
X89338000Y-108671000D03*
%TD*%
D11*
%TO.P,J1,1*%
%TO.N,Net-(J1-Pad1)*%
X164550000Y-100621000D03*
D12*
%TO.P,J1,2*%
%TO.N,Net-(J1-Pad2)*%
X167250000Y-105921000D03*
%TO.P,J1,3*%
%TO.N,unconnected-(J1-Pad3)*%
X170750000Y-102821000D03*
%TD*%
D13*
%TO.P,J2,1,Pin_1*%
%TO.N,Net-(J1-Pad2)*%
X155338000Y-103271000D03*
D14*
%TO.P,J2,2,Pin_2*%
%TO.N,Net-(J1-Pad1)*%
X155338000Y-99771000D03*
%TD*%
D11*
%TO.P,J1,1*%
%TO.N,Net-(J1-Pad1)*%
X142550000Y-100621000D03*
D12*
%TO.P,J1,2*%
%TO.N,Net-(J1-Pad2)*%
X145250000Y-105921000D03*
%TO.P,J1,3*%
%TO.N,unconnected-(J1-Pad3)*%
X148750000Y-102821000D03*
%TD*%
D13*
%TO.P,J2,1,Pin_1*%
%TO.N,Net-(J1-Pad2)*%
X133338000Y-103271000D03*
D14*
%TO.P,J2,2,Pin_2*%
%TO.N,Net-(J1-Pad1)*%
X133338000Y-99771000D03*
%TD*%
D11*
%TO.P,J1,1*%
%TO.N,Net-(J1-Pad1)*%
X120550000Y-100621000D03*
D12*
%TO.P,J1,2*%
%TO.N,Net-(J1-Pad2)*%
X123250000Y-105921000D03*
%TO.P,J1,3*%
%TO.N,unconnected-(J1-Pad3)*%
X126750000Y-102821000D03*
%TD*%
D13*
%TO.P,J2,1,Pin_1*%
%TO.N,Net-(J1-Pad2)*%
X111338000Y-103271000D03*
D14*
%TO.P,J2,2,Pin_2*%
%TO.N,Net-(J1-Pad1)*%
X111338000Y-99771000D03*
%TD*%
D11*
%TO.P,J1,1*%
%TO.N,Net-(J1-Pad1)*%
X98550000Y-100621000D03*
D12*
%TO.P,J1,2*%
%TO.N,Net-(J1-Pad2)*%
X101250000Y-105921000D03*
%TO.P,J1,3*%
%TO.N,unconnected-(J1-Pad3)*%
X104750000Y-102821000D03*
%TD*%
D13*
%TO.P,J2,1,Pin_1*%
%TO.N,Net-(J1-Pad2)*%
X89338000Y-103271000D03*
D14*
%TO.P,J2,2,Pin_2*%
%TO.N,Net-(J1-Pad1)*%
X89338000Y-99771000D03*
%TD*%
D11*
%TO.P,J1,1*%
%TO.N,Net-(J1-Pad1)*%
X164550000Y-91721000D03*
D12*
%TO.P,J1,2*%
%TO.N,Net-(J1-Pad2)*%
X167250000Y-97021000D03*
%TO.P,J1,3*%
%TO.N,unconnected-(J1-Pad3)*%
X170750000Y-93921000D03*
%TD*%
D13*
%TO.P,J2,1,Pin_1*%
%TO.N,Net-(J1-Pad2)*%
X155338000Y-94371000D03*
D14*
%TO.P,J2,2,Pin_2*%
%TO.N,Net-(J1-Pad1)*%
X155338000Y-90871000D03*
%TD*%
D11*
%TO.P,J1,1*%
%TO.N,Net-(J1-Pad1)*%
X142550000Y-91721000D03*
D12*
%TO.P,J1,2*%
%TO.N,Net-(J1-Pad2)*%
X145250000Y-97021000D03*
%TO.P,J1,3*%
%TO.N,unconnected-(J1-Pad3)*%
X148750000Y-93921000D03*
%TD*%
D13*
%TO.P,J2,1,Pin_1*%
%TO.N,Net-(J1-Pad2)*%
X133338000Y-94371000D03*
D14*
%TO.P,J2,2,Pin_2*%
%TO.N,Net-(J1-Pad1)*%
X133338000Y-90871000D03*
%TD*%
D11*
%TO.P,J1,1*%
%TO.N,Net-(J1-Pad1)*%
X120550000Y-91721000D03*
D12*
%TO.P,J1,2*%
%TO.N,Net-(J1-Pad2)*%
X123250000Y-97021000D03*
%TO.P,J1,3*%
%TO.N,unconnected-(J1-Pad3)*%
X126750000Y-93921000D03*
%TD*%
D13*
%TO.P,J2,1,Pin_1*%
%TO.N,Net-(J1-Pad2)*%
X111338000Y-94371000D03*
D14*
%TO.P,J2,2,Pin_2*%
%TO.N,Net-(J1-Pad1)*%
X111338000Y-90871000D03*
%TD*%
D11*
%TO.P,J1,1*%
%TO.N,Net-(J1-Pad1)*%
X98550000Y-91721000D03*
D12*
%TO.P,J1,2*%
%TO.N,Net-(J1-Pad2)*%
X101250000Y-97021000D03*
%TO.P,J1,3*%
%TO.N,unconnected-(J1-Pad3)*%
X104750000Y-93921000D03*
%TD*%
D13*
%TO.P,J2,1,Pin_1*%
%TO.N,Net-(J1-Pad2)*%
X89338000Y-94371000D03*
D14*
%TO.P,J2,2,Pin_2*%
%TO.N,Net-(J1-Pad1)*%
X89338000Y-90871000D03*
%TD*%
D11*
%TO.P,J1,1*%
%TO.N,Net-(J1-Pad1)*%
X164550000Y-82821000D03*
D12*
%TO.P,J1,2*%
%TO.N,Net-(J1-Pad2)*%
X167250000Y-88121000D03*
%TO.P,J1,3*%
%TO.N,unconnected-(J1-Pad3)*%
X170750000Y-85021000D03*
%TD*%
D13*
%TO.P,J2,1,Pin_1*%
%TO.N,Net-(J1-Pad2)*%
X155338000Y-85471000D03*
D14*
%TO.P,J2,2,Pin_2*%
%TO.N,Net-(J1-Pad1)*%
X155338000Y-81971000D03*
%TD*%
D11*
%TO.P,J1,1*%
%TO.N,Net-(J1-Pad1)*%
X142550000Y-82821000D03*
D12*
%TO.P,J1,2*%
%TO.N,Net-(J1-Pad2)*%
X145250000Y-88121000D03*
%TO.P,J1,3*%
%TO.N,unconnected-(J1-Pad3)*%
X148750000Y-85021000D03*
%TD*%
D13*
%TO.P,J2,1,Pin_1*%
%TO.N,Net-(J1-Pad2)*%
X133338000Y-85471000D03*
D14*
%TO.P,J2,2,Pin_2*%
%TO.N,Net-(J1-Pad1)*%
X133338000Y-81971000D03*
%TD*%
D11*
%TO.P,J1,1*%
%TO.N,Net-(J1-Pad1)*%
X120550000Y-82821000D03*
D12*
%TO.P,J1,2*%
%TO.N,Net-(J1-Pad2)*%
X123250000Y-88121000D03*
%TO.P,J1,3*%
%TO.N,unconnected-(J1-Pad3)*%
X126750000Y-85021000D03*
%TD*%
D13*
%TO.P,J2,1,Pin_1*%
%TO.N,Net-(J1-Pad2)*%
X111338000Y-85471000D03*
D14*
%TO.P,J2,2,Pin_2*%
%TO.N,Net-(J1-Pad1)*%
X111338000Y-81971000D03*
%TD*%
D11*
%TO.P,J1,1*%
%TO.N,Net-(J1-Pad1)*%
X98550000Y-82821000D03*
D12*
%TO.P,J1,2*%
%TO.N,Net-(J1-Pad2)*%
X101250000Y-88121000D03*
%TO.P,J1,3*%
%TO.N,unconnected-(J1-Pad3)*%
X104750000Y-85021000D03*
%TD*%
D13*
%TO.P,J2,1,Pin_1*%
%TO.N,Net-(J1-Pad2)*%
X89338000Y-85471000D03*
D14*
%TO.P,J2,2,Pin_2*%
%TO.N,Net-(J1-Pad1)*%
X89338000Y-81971000D03*
%TD*%
D11*
%TO.P,J1,1*%
%TO.N,Net-(J1-Pad1)*%
X164550000Y-73921000D03*
D12*
%TO.P,J1,2*%
%TO.N,Net-(J1-Pad2)*%
X167250000Y-79221000D03*
%TO.P,J1,3*%
%TO.N,unconnected-(J1-Pad3)*%
X170750000Y-76121000D03*
%TD*%
D13*
%TO.P,J2,1,Pin_1*%
%TO.N,Net-(J1-Pad2)*%
X155338000Y-76571000D03*
D14*
%TO.P,J2,2,Pin_2*%
%TO.N,Net-(J1-Pad1)*%
X155338000Y-73071000D03*
%TD*%
D11*
%TO.P,J1,1*%
%TO.N,Net-(J1-Pad1)*%
X142550000Y-73921000D03*
D12*
%TO.P,J1,2*%
%TO.N,Net-(J1-Pad2)*%
X145250000Y-79221000D03*
%TO.P,J1,3*%
%TO.N,unconnected-(J1-Pad3)*%
X148750000Y-76121000D03*
%TD*%
D13*
%TO.P,J2,1,Pin_1*%
%TO.N,Net-(J1-Pad2)*%
X133338000Y-76571000D03*
D14*
%TO.P,J2,2,Pin_2*%
%TO.N,Net-(J1-Pad1)*%
X133338000Y-73071000D03*
%TD*%
D11*
%TO.P,J1,1*%
%TO.N,Net-(J1-Pad1)*%
X120550000Y-73921000D03*
D12*
%TO.P,J1,2*%
%TO.N,Net-(J1-Pad2)*%
X123250000Y-79221000D03*
%TO.P,J1,3*%
%TO.N,unconnected-(J1-Pad3)*%
X126750000Y-76121000D03*
%TD*%
D13*
%TO.P,J2,1,Pin_1*%
%TO.N,Net-(J1-Pad2)*%
X111338000Y-76571000D03*
D14*
%TO.P,J2,2,Pin_2*%
%TO.N,Net-(J1-Pad1)*%
X111338000Y-73071000D03*
%TD*%
D11*
%TO.P,J1,1*%
%TO.N,Net-(J1-Pad1)*%
X98550000Y-73921000D03*
D12*
%TO.P,J1,2*%
%TO.N,Net-(J1-Pad2)*%
X101250000Y-79221000D03*
%TO.P,J1,3*%
%TO.N,unconnected-(J1-Pad3)*%
X104750000Y-76121000D03*
%TD*%
D13*
%TO.P,J2,1,Pin_1*%
%TO.N,Net-(J1-Pad2)*%
X89338000Y-76571000D03*
D14*
%TO.P,J2,2,Pin_2*%
%TO.N,Net-(J1-Pad1)*%
X89338000Y-73071000D03*
%TD*%
D11*
%TO.P,J1,1*%
%TO.N,Net-(J1-Pad1)*%
X164550000Y-65021000D03*
D12*
%TO.P,J1,2*%
%TO.N,Net-(J1-Pad2)*%
X167250000Y-70321000D03*
%TO.P,J1,3*%
%TO.N,unconnected-(J1-Pad3)*%
X170750000Y-67221000D03*
%TD*%
D13*
%TO.P,J2,1,Pin_1*%
%TO.N,Net-(J1-Pad2)*%
X155338000Y-67671000D03*
D14*
%TO.P,J2,2,Pin_2*%
%TO.N,Net-(J1-Pad1)*%
X155338000Y-64171000D03*
%TD*%
D11*
%TO.P,J1,1*%
%TO.N,Net-(J1-Pad1)*%
X142550000Y-65021000D03*
D12*
%TO.P,J1,2*%
%TO.N,Net-(J1-Pad2)*%
X145250000Y-70321000D03*
%TO.P,J1,3*%
%TO.N,unconnected-(J1-Pad3)*%
X148750000Y-67221000D03*
%TD*%
D13*
%TO.P,J2,1,Pin_1*%
%TO.N,Net-(J1-Pad2)*%
X133338000Y-67671000D03*
D14*
%TO.P,J2,2,Pin_2*%
%TO.N,Net-(J1-Pad1)*%
X133338000Y-64171000D03*
%TD*%
D11*
%TO.P,J1,1*%
%TO.N,Net-(J1-Pad1)*%
X120550000Y-65021000D03*
D12*
%TO.P,J1,2*%
%TO.N,Net-(J1-Pad2)*%
X123250000Y-70321000D03*
%TO.P,J1,3*%
%TO.N,unconnected-(J1-Pad3)*%
X126750000Y-67221000D03*
%TD*%
D13*
%TO.P,J2,1,Pin_1*%
%TO.N,Net-(J1-Pad2)*%
X111338000Y-67671000D03*
D14*
%TO.P,J2,2,Pin_2*%
%TO.N,Net-(J1-Pad1)*%
X111338000Y-64171000D03*
%TD*%
D11*
%TO.P,J1,1*%
%TO.N,Net-(J1-Pad1)*%
X98550000Y-65021000D03*
D12*
%TO.P,J1,2*%
%TO.N,Net-(J1-Pad2)*%
X101250000Y-70321000D03*
%TO.P,J1,3*%
%TO.N,unconnected-(J1-Pad3)*%
X104750000Y-67221000D03*
%TD*%
D13*
%TO.P,J2,1,Pin_1*%
%TO.N,Net-(J1-Pad2)*%
X89338000Y-67671000D03*
D14*
%TO.P,J2,2,Pin_2*%
%TO.N,Net-(J1-Pad1)*%
X89338000Y-64171000D03*
%TD*%
D11*
%TO.P,J1,1*%
%TO.N,Net-(J1-Pad1)*%
X164550000Y-56121000D03*
D12*
%TO.P,J1,2*%
%TO.N,Net-(J1-Pad2)*%
X167250000Y-61421000D03*
%TO.P,J1,3*%
%TO.N,unconnected-(J1-Pad3)*%
X170750000Y-58321000D03*
%TD*%
D13*
%TO.P,J2,1,Pin_1*%
%TO.N,Net-(J1-Pad2)*%
X155338000Y-58771000D03*
D14*
%TO.P,J2,2,Pin_2*%
%TO.N,Net-(J1-Pad1)*%
X155338000Y-55271000D03*
%TD*%
D11*
%TO.P,J1,1*%
%TO.N,Net-(J1-Pad1)*%
X142550000Y-56121000D03*
D12*
%TO.P,J1,2*%
%TO.N,Net-(J1-Pad2)*%
X145250000Y-61421000D03*
%TO.P,J1,3*%
%TO.N,unconnected-(J1-Pad3)*%
X148750000Y-58321000D03*
%TD*%
D13*
%TO.P,J2,1,Pin_1*%
%TO.N,Net-(J1-Pad2)*%
X133338000Y-58771000D03*
D14*
%TO.P,J2,2,Pin_2*%
%TO.N,Net-(J1-Pad1)*%
X133338000Y-55271000D03*
%TD*%
D11*
%TO.P,J1,1*%
%TO.N,Net-(J1-Pad1)*%
X120550000Y-56121000D03*
D12*
%TO.P,J1,2*%
%TO.N,Net-(J1-Pad2)*%
X123250000Y-61421000D03*
%TO.P,J1,3*%
%TO.N,unconnected-(J1-Pad3)*%
X126750000Y-58321000D03*
%TD*%
D13*
%TO.P,J2,1,Pin_1*%
%TO.N,Net-(J1-Pad2)*%
X111338000Y-58771000D03*
D14*
%TO.P,J2,2,Pin_2*%
%TO.N,Net-(J1-Pad1)*%
X111338000Y-55271000D03*
%TD*%
D11*
%TO.P,J1,1*%
%TO.N,Net-(J1-Pad1)*%
X98550000Y-56121000D03*
D12*
%TO.P,J1,2*%
%TO.N,Net-(J1-Pad2)*%
X101250000Y-61421000D03*
%TO.P,J1,3*%
%TO.N,unconnected-(J1-Pad3)*%
X104750000Y-58321000D03*
%TD*%
D13*
%TO.P,J2,1,Pin_1*%
%TO.N,Net-(J1-Pad2)*%
X89338000Y-58771000D03*
D14*
%TO.P,J2,2,Pin_2*%
%TO.N,Net-(J1-Pad1)*%
X89338000Y-55271000D03*
%TD*%
D15*
%TO.N,Net-(J1-Pad2)*%
X166668000Y-112720000D02*
X167250000Y-113302000D01*
%TO.N,Net-(J1-Pad1)*%
X158555000Y-108671000D02*
X155338000Y-108671000D01*
%TO.N,Net-(J1-Pad2)*%
X163366000Y-112720000D02*
X166668000Y-112720000D01*
X162817000Y-112171000D02*
X163366000Y-112720000D01*
%TO.N,Net-(J1-Pad1)*%
X164550000Y-109521000D02*
X159405000Y-109521000D01*
%TO.N,Net-(J1-Pad2)*%
X167250000Y-113302000D02*
X167250000Y-114821000D01*
X155338000Y-112171000D02*
X162817000Y-112171000D01*
%TO.N,Net-(J1-Pad1)*%
X159405000Y-109521000D02*
X158555000Y-108671000D01*
%TO.N,Net-(J1-Pad2)*%
X144668000Y-112720000D02*
X145250000Y-113302000D01*
%TO.N,Net-(J1-Pad1)*%
X136555000Y-108671000D02*
X133338000Y-108671000D01*
%TO.N,Net-(J1-Pad2)*%
X141366000Y-112720000D02*
X144668000Y-112720000D01*
X140817000Y-112171000D02*
X141366000Y-112720000D01*
%TO.N,Net-(J1-Pad1)*%
X142550000Y-109521000D02*
X137405000Y-109521000D01*
%TO.N,Net-(J1-Pad2)*%
X145250000Y-113302000D02*
X145250000Y-114821000D01*
X133338000Y-112171000D02*
X140817000Y-112171000D01*
%TO.N,Net-(J1-Pad1)*%
X137405000Y-109521000D02*
X136555000Y-108671000D01*
%TO.N,Net-(J1-Pad2)*%
X122668000Y-112720000D02*
X123250000Y-113302000D01*
%TO.N,Net-(J1-Pad1)*%
X114555000Y-108671000D02*
X111338000Y-108671000D01*
%TO.N,Net-(J1-Pad2)*%
X119366000Y-112720000D02*
X122668000Y-112720000D01*
X118817000Y-112171000D02*
X119366000Y-112720000D01*
%TO.N,Net-(J1-Pad1)*%
X120550000Y-109521000D02*
X115405000Y-109521000D01*
%TO.N,Net-(J1-Pad2)*%
X123250000Y-113302000D02*
X123250000Y-114821000D01*
X111338000Y-112171000D02*
X118817000Y-112171000D01*
%TO.N,Net-(J1-Pad1)*%
X115405000Y-109521000D02*
X114555000Y-108671000D01*
%TO.N,Net-(J1-Pad2)*%
X100668000Y-112720000D02*
X101250000Y-113302000D01*
%TO.N,Net-(J1-Pad1)*%
X92555000Y-108671000D02*
X89338000Y-108671000D01*
%TO.N,Net-(J1-Pad2)*%
X97366000Y-112720000D02*
X100668000Y-112720000D01*
X96817000Y-112171000D02*
X97366000Y-112720000D01*
%TO.N,Net-(J1-Pad1)*%
X98550000Y-109521000D02*
X93405000Y-109521000D01*
%TO.N,Net-(J1-Pad2)*%
X101250000Y-113302000D02*
X101250000Y-114821000D01*
X89338000Y-112171000D02*
X96817000Y-112171000D01*
%TO.N,Net-(J1-Pad1)*%
X93405000Y-109521000D02*
X92555000Y-108671000D01*
%TO.N,Net-(J1-Pad2)*%
X166668000Y-103820000D02*
X167250000Y-104402000D01*
%TO.N,Net-(J1-Pad1)*%
X158555000Y-99771000D02*
X155338000Y-99771000D01*
%TO.N,Net-(J1-Pad2)*%
X163366000Y-103820000D02*
X166668000Y-103820000D01*
X162817000Y-103271000D02*
X163366000Y-103820000D01*
%TO.N,Net-(J1-Pad1)*%
X164550000Y-100621000D02*
X159405000Y-100621000D01*
%TO.N,Net-(J1-Pad2)*%
X167250000Y-104402000D02*
X167250000Y-105921000D01*
X155338000Y-103271000D02*
X162817000Y-103271000D01*
%TO.N,Net-(J1-Pad1)*%
X159405000Y-100621000D02*
X158555000Y-99771000D01*
%TO.N,Net-(J1-Pad2)*%
X144668000Y-103820000D02*
X145250000Y-104402000D01*
%TO.N,Net-(J1-Pad1)*%
X136555000Y-99771000D02*
X133338000Y-99771000D01*
%TO.N,Net-(J1-Pad2)*%
X141366000Y-103820000D02*
X144668000Y-103820000D01*
X140817000Y-103271000D02*
X141366000Y-103820000D01*
%TO.N,Net-(J1-Pad1)*%
X142550000Y-100621000D02*
X137405000Y-100621000D01*
%TO.N,Net-(J1-Pad2)*%
X145250000Y-104402000D02*
X145250000Y-105921000D01*
X133338000Y-103271000D02*
X140817000Y-103271000D01*
%TO.N,Net-(J1-Pad1)*%
X137405000Y-100621000D02*
X136555000Y-99771000D01*
%TO.N,Net-(J1-Pad2)*%
X122668000Y-103820000D02*
X123250000Y-104402000D01*
%TO.N,Net-(J1-Pad1)*%
X114555000Y-99771000D02*
X111338000Y-99771000D01*
%TO.N,Net-(J1-Pad2)*%
X119366000Y-103820000D02*
X122668000Y-103820000D01*
X118817000Y-103271000D02*
X119366000Y-103820000D01*
%TO.N,Net-(J1-Pad1)*%
X120550000Y-100621000D02*
X115405000Y-100621000D01*
%TO.N,Net-(J1-Pad2)*%
X123250000Y-104402000D02*
X123250000Y-105921000D01*
X111338000Y-103271000D02*
X118817000Y-103271000D01*
%TO.N,Net-(J1-Pad1)*%
X115405000Y-100621000D02*
X114555000Y-99771000D01*
%TO.N,Net-(J1-Pad2)*%
X100668000Y-103820000D02*
X101250000Y-104402000D01*
%TO.N,Net-(J1-Pad1)*%
X92555000Y-99771000D02*
X89338000Y-99771000D01*
%TO.N,Net-(J1-Pad2)*%
X97366000Y-103820000D02*
X100668000Y-103820000D01*
X96817000Y-103271000D02*
X97366000Y-103820000D01*
%TO.N,Net-(J1-Pad1)*%
X98550000Y-100621000D02*
X93405000Y-100621000D01*
%TO.N,Net-(J1-Pad2)*%
X101250000Y-104402000D02*
X101250000Y-105921000D01*
X89338000Y-103271000D02*
X96817000Y-103271000D01*
%TO.N,Net-(J1-Pad1)*%
X93405000Y-100621000D02*
X92555000Y-99771000D01*
%TO.N,Net-(J1-Pad2)*%
X166668000Y-94920000D02*
X167250000Y-95502000D01*
%TO.N,Net-(J1-Pad1)*%
X158555000Y-90871000D02*
X155338000Y-90871000D01*
%TO.N,Net-(J1-Pad2)*%
X163366000Y-94920000D02*
X166668000Y-94920000D01*
X162817000Y-94371000D02*
X163366000Y-94920000D01*
%TO.N,Net-(J1-Pad1)*%
X164550000Y-91721000D02*
X159405000Y-91721000D01*
%TO.N,Net-(J1-Pad2)*%
X167250000Y-95502000D02*
X167250000Y-97021000D01*
X155338000Y-94371000D02*
X162817000Y-94371000D01*
%TO.N,Net-(J1-Pad1)*%
X159405000Y-91721000D02*
X158555000Y-90871000D01*
%TO.N,Net-(J1-Pad2)*%
X144668000Y-94920000D02*
X145250000Y-95502000D01*
%TO.N,Net-(J1-Pad1)*%
X136555000Y-90871000D02*
X133338000Y-90871000D01*
%TO.N,Net-(J1-Pad2)*%
X141366000Y-94920000D02*
X144668000Y-94920000D01*
X140817000Y-94371000D02*
X141366000Y-94920000D01*
%TO.N,Net-(J1-Pad1)*%
X142550000Y-91721000D02*
X137405000Y-91721000D01*
%TO.N,Net-(J1-Pad2)*%
X145250000Y-95502000D02*
X145250000Y-97021000D01*
X133338000Y-94371000D02*
X140817000Y-94371000D01*
%TO.N,Net-(J1-Pad1)*%
X137405000Y-91721000D02*
X136555000Y-90871000D01*
%TO.N,Net-(J1-Pad2)*%
X122668000Y-94920000D02*
X123250000Y-95502000D01*
%TO.N,Net-(J1-Pad1)*%
X114555000Y-90871000D02*
X111338000Y-90871000D01*
%TO.N,Net-(J1-Pad2)*%
X119366000Y-94920000D02*
X122668000Y-94920000D01*
X118817000Y-94371000D02*
X119366000Y-94920000D01*
%TO.N,Net-(J1-Pad1)*%
X120550000Y-91721000D02*
X115405000Y-91721000D01*
%TO.N,Net-(J1-Pad2)*%
X123250000Y-95502000D02*
X123250000Y-97021000D01*
X111338000Y-94371000D02*
X118817000Y-94371000D01*
%TO.N,Net-(J1-Pad1)*%
X115405000Y-91721000D02*
X114555000Y-90871000D01*
%TO.N,Net-(J1-Pad2)*%
X100668000Y-94920000D02*
X101250000Y-95502000D01*
%TO.N,Net-(J1-Pad1)*%
X92555000Y-90871000D02*
X89338000Y-90871000D01*
%TO.N,Net-(J1-Pad2)*%
X97366000Y-94920000D02*
X100668000Y-94920000D01*
X96817000Y-94371000D02*
X97366000Y-94920000D01*
%TO.N,Net-(J1-Pad1)*%
X98550000Y-91721000D02*
X93405000Y-91721000D01*
%TO.N,Net-(J1-Pad2)*%
X101250000Y-95502000D02*
X101250000Y-97021000D01*
X89338000Y-94371000D02*
X96817000Y-94371000D01*
%TO.N,Net-(J1-Pad1)*%
X93405000Y-91721000D02*
X92555000Y-90871000D01*
%TO.N,Net-(J1-Pad2)*%
X166668000Y-86020000D02*
X167250000Y-86602000D01*
%TO.N,Net-(J1-Pad1)*%
X158555000Y-81971000D02*
X155338000Y-81971000D01*
%TO.N,Net-(J1-Pad2)*%
X163366000Y-86020000D02*
X166668000Y-86020000D01*
X162817000Y-85471000D02*
X163366000Y-86020000D01*
%TO.N,Net-(J1-Pad1)*%
X164550000Y-82821000D02*
X159405000Y-82821000D01*
%TO.N,Net-(J1-Pad2)*%
X167250000Y-86602000D02*
X167250000Y-88121000D01*
X155338000Y-85471000D02*
X162817000Y-85471000D01*
%TO.N,Net-(J1-Pad1)*%
X159405000Y-82821000D02*
X158555000Y-81971000D01*
%TO.N,Net-(J1-Pad2)*%
X144668000Y-86020000D02*
X145250000Y-86602000D01*
%TO.N,Net-(J1-Pad1)*%
X136555000Y-81971000D02*
X133338000Y-81971000D01*
%TO.N,Net-(J1-Pad2)*%
X141366000Y-86020000D02*
X144668000Y-86020000D01*
X140817000Y-85471000D02*
X141366000Y-86020000D01*
%TO.N,Net-(J1-Pad1)*%
X142550000Y-82821000D02*
X137405000Y-82821000D01*
%TO.N,Net-(J1-Pad2)*%
X145250000Y-86602000D02*
X145250000Y-88121000D01*
X133338000Y-85471000D02*
X140817000Y-85471000D01*
%TO.N,Net-(J1-Pad1)*%
X137405000Y-82821000D02*
X136555000Y-81971000D01*
%TO.N,Net-(J1-Pad2)*%
X122668000Y-86020000D02*
X123250000Y-86602000D01*
%TO.N,Net-(J1-Pad1)*%
X114555000Y-81971000D02*
X111338000Y-81971000D01*
%TO.N,Net-(J1-Pad2)*%
X119366000Y-86020000D02*
X122668000Y-86020000D01*
X118817000Y-85471000D02*
X119366000Y-86020000D01*
%TO.N,Net-(J1-Pad1)*%
X120550000Y-82821000D02*
X115405000Y-82821000D01*
%TO.N,Net-(J1-Pad2)*%
X123250000Y-86602000D02*
X123250000Y-88121000D01*
X111338000Y-85471000D02*
X118817000Y-85471000D01*
%TO.N,Net-(J1-Pad1)*%
X115405000Y-82821000D02*
X114555000Y-81971000D01*
%TO.N,Net-(J1-Pad2)*%
X100668000Y-86020000D02*
X101250000Y-86602000D01*
%TO.N,Net-(J1-Pad1)*%
X92555000Y-81971000D02*
X89338000Y-81971000D01*
%TO.N,Net-(J1-Pad2)*%
X97366000Y-86020000D02*
X100668000Y-86020000D01*
X96817000Y-85471000D02*
X97366000Y-86020000D01*
%TO.N,Net-(J1-Pad1)*%
X98550000Y-82821000D02*
X93405000Y-82821000D01*
%TO.N,Net-(J1-Pad2)*%
X101250000Y-86602000D02*
X101250000Y-88121000D01*
X89338000Y-85471000D02*
X96817000Y-85471000D01*
%TO.N,Net-(J1-Pad1)*%
X93405000Y-82821000D02*
X92555000Y-81971000D01*
%TO.N,Net-(J1-Pad2)*%
X166668000Y-77120000D02*
X167250000Y-77702000D01*
%TO.N,Net-(J1-Pad1)*%
X158555000Y-73071000D02*
X155338000Y-73071000D01*
%TO.N,Net-(J1-Pad2)*%
X163366000Y-77120000D02*
X166668000Y-77120000D01*
X162817000Y-76571000D02*
X163366000Y-77120000D01*
%TO.N,Net-(J1-Pad1)*%
X164550000Y-73921000D02*
X159405000Y-73921000D01*
%TO.N,Net-(J1-Pad2)*%
X167250000Y-77702000D02*
X167250000Y-79221000D01*
X155338000Y-76571000D02*
X162817000Y-76571000D01*
%TO.N,Net-(J1-Pad1)*%
X159405000Y-73921000D02*
X158555000Y-73071000D01*
%TO.N,Net-(J1-Pad2)*%
X144668000Y-77120000D02*
X145250000Y-77702000D01*
%TO.N,Net-(J1-Pad1)*%
X136555000Y-73071000D02*
X133338000Y-73071000D01*
%TO.N,Net-(J1-Pad2)*%
X141366000Y-77120000D02*
X144668000Y-77120000D01*
X140817000Y-76571000D02*
X141366000Y-77120000D01*
%TO.N,Net-(J1-Pad1)*%
X142550000Y-73921000D02*
X137405000Y-73921000D01*
%TO.N,Net-(J1-Pad2)*%
X145250000Y-77702000D02*
X145250000Y-79221000D01*
X133338000Y-76571000D02*
X140817000Y-76571000D01*
%TO.N,Net-(J1-Pad1)*%
X137405000Y-73921000D02*
X136555000Y-73071000D01*
%TO.N,Net-(J1-Pad2)*%
X122668000Y-77120000D02*
X123250000Y-77702000D01*
%TO.N,Net-(J1-Pad1)*%
X114555000Y-73071000D02*
X111338000Y-73071000D01*
%TO.N,Net-(J1-Pad2)*%
X119366000Y-77120000D02*
X122668000Y-77120000D01*
X118817000Y-76571000D02*
X119366000Y-77120000D01*
%TO.N,Net-(J1-Pad1)*%
X120550000Y-73921000D02*
X115405000Y-73921000D01*
%TO.N,Net-(J1-Pad2)*%
X123250000Y-77702000D02*
X123250000Y-79221000D01*
X111338000Y-76571000D02*
X118817000Y-76571000D01*
%TO.N,Net-(J1-Pad1)*%
X115405000Y-73921000D02*
X114555000Y-73071000D01*
%TO.N,Net-(J1-Pad2)*%
X100668000Y-77120000D02*
X101250000Y-77702000D01*
%TO.N,Net-(J1-Pad1)*%
X92555000Y-73071000D02*
X89338000Y-73071000D01*
%TO.N,Net-(J1-Pad2)*%
X97366000Y-77120000D02*
X100668000Y-77120000D01*
X96817000Y-76571000D02*
X97366000Y-77120000D01*
%TO.N,Net-(J1-Pad1)*%
X98550000Y-73921000D02*
X93405000Y-73921000D01*
%TO.N,Net-(J1-Pad2)*%
X101250000Y-77702000D02*
X101250000Y-79221000D01*
X89338000Y-76571000D02*
X96817000Y-76571000D01*
%TO.N,Net-(J1-Pad1)*%
X93405000Y-73921000D02*
X92555000Y-73071000D01*
%TO.N,Net-(J1-Pad2)*%
X166668000Y-68220000D02*
X167250000Y-68802000D01*
%TO.N,Net-(J1-Pad1)*%
X158555000Y-64171000D02*
X155338000Y-64171000D01*
%TO.N,Net-(J1-Pad2)*%
X163366000Y-68220000D02*
X166668000Y-68220000D01*
X162817000Y-67671000D02*
X163366000Y-68220000D01*
%TO.N,Net-(J1-Pad1)*%
X164550000Y-65021000D02*
X159405000Y-65021000D01*
%TO.N,Net-(J1-Pad2)*%
X167250000Y-68802000D02*
X167250000Y-70321000D01*
X155338000Y-67671000D02*
X162817000Y-67671000D01*
%TO.N,Net-(J1-Pad1)*%
X159405000Y-65021000D02*
X158555000Y-64171000D01*
%TO.N,Net-(J1-Pad2)*%
X144668000Y-68220000D02*
X145250000Y-68802000D01*
%TO.N,Net-(J1-Pad1)*%
X136555000Y-64171000D02*
X133338000Y-64171000D01*
%TO.N,Net-(J1-Pad2)*%
X141366000Y-68220000D02*
X144668000Y-68220000D01*
X140817000Y-67671000D02*
X141366000Y-68220000D01*
%TO.N,Net-(J1-Pad1)*%
X142550000Y-65021000D02*
X137405000Y-65021000D01*
%TO.N,Net-(J1-Pad2)*%
X145250000Y-68802000D02*
X145250000Y-70321000D01*
X133338000Y-67671000D02*
X140817000Y-67671000D01*
%TO.N,Net-(J1-Pad1)*%
X137405000Y-65021000D02*
X136555000Y-64171000D01*
%TO.N,Net-(J1-Pad2)*%
X122668000Y-68220000D02*
X123250000Y-68802000D01*
%TO.N,Net-(J1-Pad1)*%
X114555000Y-64171000D02*
X111338000Y-64171000D01*
%TO.N,Net-(J1-Pad2)*%
X119366000Y-68220000D02*
X122668000Y-68220000D01*
X118817000Y-67671000D02*
X119366000Y-68220000D01*
%TO.N,Net-(J1-Pad1)*%
X120550000Y-65021000D02*
X115405000Y-65021000D01*
%TO.N,Net-(J1-Pad2)*%
X123250000Y-68802000D02*
X123250000Y-70321000D01*
X111338000Y-67671000D02*
X118817000Y-67671000D01*
%TO.N,Net-(J1-Pad1)*%
X115405000Y-65021000D02*
X114555000Y-64171000D01*
%TO.N,Net-(J1-Pad2)*%
X100668000Y-68220000D02*
X101250000Y-68802000D01*
%TO.N,Net-(J1-Pad1)*%
X92555000Y-64171000D02*
X89338000Y-64171000D01*
%TO.N,Net-(J1-Pad2)*%
X97366000Y-68220000D02*
X100668000Y-68220000D01*
X96817000Y-67671000D02*
X97366000Y-68220000D01*
%TO.N,Net-(J1-Pad1)*%
X98550000Y-65021000D02*
X93405000Y-65021000D01*
%TO.N,Net-(J1-Pad2)*%
X101250000Y-68802000D02*
X101250000Y-70321000D01*
X89338000Y-67671000D02*
X96817000Y-67671000D01*
%TO.N,Net-(J1-Pad1)*%
X93405000Y-65021000D02*
X92555000Y-64171000D01*
%TO.N,Net-(J1-Pad2)*%
X166668000Y-59320000D02*
X167250000Y-59902000D01*
%TO.N,Net-(J1-Pad1)*%
X158555000Y-55271000D02*
X155338000Y-55271000D01*
%TO.N,Net-(J1-Pad2)*%
X163366000Y-59320000D02*
X166668000Y-59320000D01*
X162817000Y-58771000D02*
X163366000Y-59320000D01*
%TO.N,Net-(J1-Pad1)*%
X164550000Y-56121000D02*
X159405000Y-56121000D01*
%TO.N,Net-(J1-Pad2)*%
X167250000Y-59902000D02*
X167250000Y-61421000D01*
X155338000Y-58771000D02*
X162817000Y-58771000D01*
%TO.N,Net-(J1-Pad1)*%
X159405000Y-56121000D02*
X158555000Y-55271000D01*
%TO.N,Net-(J1-Pad2)*%
X144668000Y-59320000D02*
X145250000Y-59902000D01*
%TO.N,Net-(J1-Pad1)*%
X136555000Y-55271000D02*
X133338000Y-55271000D01*
%TO.N,Net-(J1-Pad2)*%
X141366000Y-59320000D02*
X144668000Y-59320000D01*
X140817000Y-58771000D02*
X141366000Y-59320000D01*
%TO.N,Net-(J1-Pad1)*%
X142550000Y-56121000D02*
X137405000Y-56121000D01*
%TO.N,Net-(J1-Pad2)*%
X145250000Y-59902000D02*
X145250000Y-61421000D01*
X133338000Y-58771000D02*
X140817000Y-58771000D01*
%TO.N,Net-(J1-Pad1)*%
X137405000Y-56121000D02*
X136555000Y-55271000D01*
%TO.N,Net-(J1-Pad2)*%
X122668000Y-59320000D02*
X123250000Y-59902000D01*
%TO.N,Net-(J1-Pad1)*%
X114555000Y-55271000D02*
X111338000Y-55271000D01*
%TO.N,Net-(J1-Pad2)*%
X119366000Y-59320000D02*
X122668000Y-59320000D01*
X118817000Y-58771000D02*
X119366000Y-59320000D01*
%TO.N,Net-(J1-Pad1)*%
X120550000Y-56121000D02*
X115405000Y-56121000D01*
%TO.N,Net-(J1-Pad2)*%
X123250000Y-59902000D02*
X123250000Y-61421000D01*
X111338000Y-58771000D02*
X118817000Y-58771000D01*
%TO.N,Net-(J1-Pad1)*%
X115405000Y-56121000D02*
X114555000Y-55271000D01*
X92555000Y-55271000D02*
X89338000Y-55271000D01*
X98550000Y-56121000D02*
X93405000Y-56121000D01*
X93405000Y-56121000D02*
X92555000Y-55271000D01*
%TO.N,Net-(J1-Pad2)*%
X101250000Y-59902000D02*
X101250000Y-61421000D01*
X100668000Y-59320000D02*
X101250000Y-59902000D01*
X89338000Y-58771000D02*
X96817000Y-58771000D01*
X96817000Y-58771000D02*
X97366000Y-59320000D01*
X97366000Y-59320000D02*
X100668000Y-59320000D01*
%TD*%
M02*
