%TF.GenerationSoftware,KiCad,Pcbnew,6.0.11-2627ca5db0~126~ubuntu20.04.1*%
%TF.CreationDate,2024-11-03T19:09:39-05:00*%
%TF.ProjectId,,58585858-5858-4585-9858-585858585858,rev?*%
%TF.SameCoordinates,Original*%
%TF.FileFunction,Soldermask,Top*%
%TF.FilePolarity,Negative*%
%FSLAX46Y46*%
G04 Gerber Fmt 4.6, Leading zero omitted, Abs format (unit mm)*
G04 Created by KiCad (PCBNEW 6.0.11-2627ca5db0~126~ubuntu20.04.1) date 2024-11-03 19:09:39*
%MOMM*%
%LPD*%
G01*
G04 APERTURE LIST*
%TA.AperFunction,Profile*%
%ADD10C,0.100000*%
%TD*%
%ADD11R,1.700000X4.000000*%
%ADD12O,4.000000X1.700000*%
%ADD13R,2.400000X2.400000*%
%ADD14C,2.400000*%
G04 APERTURE END LIST*
D10*
X154578000Y-117281000D02*
X161178000Y-117281000D01*
X153478000Y-123281000D02*
X155078000Y-124281000D01*
X161178000Y-117281000D02*
X163278000Y-119381000D01*
X155078000Y-139681000D02*
X161678000Y-139681000D01*
X163278000Y-119381000D02*
X163278000Y-123281000D01*
X153478000Y-118381000D02*
X153478000Y-123281000D01*
X161678000Y-124281000D02*
X163278000Y-123281000D01*
X161678000Y-124281000D02*
X161678000Y-139681000D01*
X155078000Y-124281000D02*
X155078000Y-139681000D01*
X154578000Y-117281000D02*
X153478000Y-118381000D01*
X144778000Y-117281000D02*
X151378000Y-117281000D01*
X143678000Y-123281000D02*
X145278000Y-124281000D01*
X151378000Y-117281000D02*
X153478000Y-119381000D01*
X145278000Y-139681000D02*
X151878000Y-139681000D01*
X153478000Y-119381000D02*
X153478000Y-123281000D01*
X143678000Y-118381000D02*
X143678000Y-123281000D01*
X151878000Y-124281000D02*
X153478000Y-123281000D01*
X151878000Y-124281000D02*
X151878000Y-139681000D01*
X145278000Y-124281000D02*
X145278000Y-139681000D01*
X144778000Y-117281000D02*
X143678000Y-118381000D01*
X134978000Y-117281000D02*
X141578000Y-117281000D01*
X133878000Y-123281000D02*
X135478000Y-124281000D01*
X141578000Y-117281000D02*
X143678000Y-119381000D01*
X135478000Y-139681000D02*
X142078000Y-139681000D01*
X143678000Y-119381000D02*
X143678000Y-123281000D01*
X133878000Y-118381000D02*
X133878000Y-123281000D01*
X142078000Y-124281000D02*
X143678000Y-123281000D01*
X142078000Y-124281000D02*
X142078000Y-139681000D01*
X135478000Y-124281000D02*
X135478000Y-139681000D01*
X134978000Y-117281000D02*
X133878000Y-118381000D01*
X125178000Y-117281000D02*
X131778000Y-117281000D01*
X124078000Y-123281000D02*
X125678000Y-124281000D01*
X131778000Y-117281000D02*
X133878000Y-119381000D01*
X125678000Y-139681000D02*
X132278000Y-139681000D01*
X133878000Y-119381000D02*
X133878000Y-123281000D01*
X124078000Y-118381000D02*
X124078000Y-123281000D01*
X132278000Y-124281000D02*
X133878000Y-123281000D01*
X132278000Y-124281000D02*
X132278000Y-139681000D01*
X125678000Y-124281000D02*
X125678000Y-139681000D01*
X125178000Y-117281000D02*
X124078000Y-118381000D01*
X115378000Y-117281000D02*
X121978000Y-117281000D01*
X114278000Y-123281000D02*
X115878000Y-124281000D01*
X121978000Y-117281000D02*
X124078000Y-119381000D01*
X115878000Y-139681000D02*
X122478000Y-139681000D01*
X124078000Y-119381000D02*
X124078000Y-123281000D01*
X114278000Y-118381000D02*
X114278000Y-123281000D01*
X122478000Y-124281000D02*
X124078000Y-123281000D01*
X122478000Y-124281000D02*
X122478000Y-139681000D01*
X115878000Y-124281000D02*
X115878000Y-139681000D01*
X115378000Y-117281000D02*
X114278000Y-118381000D01*
X105578000Y-117281000D02*
X112178000Y-117281000D01*
X104478000Y-123281000D02*
X106078000Y-124281000D01*
X112178000Y-117281000D02*
X114278000Y-119381000D01*
X106078000Y-139681000D02*
X112678000Y-139681000D01*
X114278000Y-119381000D02*
X114278000Y-123281000D01*
X104478000Y-118381000D02*
X104478000Y-123281000D01*
X112678000Y-124281000D02*
X114278000Y-123281000D01*
X112678000Y-124281000D02*
X112678000Y-139681000D01*
X106078000Y-124281000D02*
X106078000Y-139681000D01*
X105578000Y-117281000D02*
X104478000Y-118381000D01*
X95778000Y-117281000D02*
X102378000Y-117281000D01*
X94678000Y-123281000D02*
X96278000Y-124281000D01*
X102378000Y-117281000D02*
X104478000Y-119381000D01*
X96278000Y-139681000D02*
X102878000Y-139681000D01*
X104478000Y-119381000D02*
X104478000Y-123281000D01*
X94678000Y-118381000D02*
X94678000Y-123281000D01*
X102878000Y-124281000D02*
X104478000Y-123281000D01*
X102878000Y-124281000D02*
X102878000Y-139681000D01*
X96278000Y-124281000D02*
X96278000Y-139681000D01*
X95778000Y-117281000D02*
X94678000Y-118381000D01*
X85978000Y-117281000D02*
X92578000Y-117281000D01*
X84878000Y-123281000D02*
X86478000Y-124281000D01*
X92578000Y-117281000D02*
X94678000Y-119381000D01*
X86478000Y-139681000D02*
X93078000Y-139681000D01*
X94678000Y-119381000D02*
X94678000Y-123281000D01*
X84878000Y-118381000D02*
X84878000Y-123281000D01*
X93078000Y-124281000D02*
X94678000Y-123281000D01*
X93078000Y-124281000D02*
X93078000Y-139681000D01*
X86478000Y-124281000D02*
X86478000Y-139681000D01*
X85978000Y-117281000D02*
X84878000Y-118381000D01*
X76178000Y-117281000D02*
X82778000Y-117281000D01*
X75078000Y-123281000D02*
X76678000Y-124281000D01*
X82778000Y-117281000D02*
X84878000Y-119381000D01*
X76678000Y-139681000D02*
X83278000Y-139681000D01*
X84878000Y-119381000D02*
X84878000Y-123281000D01*
X75078000Y-118381000D02*
X75078000Y-123281000D01*
X83278000Y-124281000D02*
X84878000Y-123281000D01*
X83278000Y-124281000D02*
X83278000Y-139681000D01*
X76678000Y-124281000D02*
X76678000Y-139681000D01*
X76178000Y-117281000D02*
X75078000Y-118381000D01*
X66378000Y-117281000D02*
X72978000Y-117281000D01*
X65278000Y-123281000D02*
X66878000Y-124281000D01*
X72978000Y-117281000D02*
X75078000Y-119381000D01*
X66878000Y-139681000D02*
X73478000Y-139681000D01*
X75078000Y-119381000D02*
X75078000Y-123281000D01*
X65278000Y-118381000D02*
X65278000Y-123281000D01*
X73478000Y-124281000D02*
X75078000Y-123281000D01*
X73478000Y-124281000D02*
X73478000Y-139681000D01*
X66878000Y-124281000D02*
X66878000Y-139681000D01*
X66378000Y-117281000D02*
X65278000Y-118381000D01*
X154578000Y-94881000D02*
X161178000Y-94881000D01*
X153478000Y-100881000D02*
X155078000Y-101881000D01*
X161178000Y-94881000D02*
X163278000Y-96981000D01*
X155078000Y-117281000D02*
X161678000Y-117281000D01*
X163278000Y-96981000D02*
X163278000Y-100881000D01*
X153478000Y-95981000D02*
X153478000Y-100881000D01*
X161678000Y-101881000D02*
X163278000Y-100881000D01*
X161678000Y-101881000D02*
X161678000Y-117281000D01*
X155078000Y-101881000D02*
X155078000Y-117281000D01*
X154578000Y-94881000D02*
X153478000Y-95981000D01*
X144778000Y-94881000D02*
X151378000Y-94881000D01*
X143678000Y-100881000D02*
X145278000Y-101881000D01*
X151378000Y-94881000D02*
X153478000Y-96981000D01*
X145278000Y-117281000D02*
X151878000Y-117281000D01*
X153478000Y-96981000D02*
X153478000Y-100881000D01*
X143678000Y-95981000D02*
X143678000Y-100881000D01*
X151878000Y-101881000D02*
X153478000Y-100881000D01*
X151878000Y-101881000D02*
X151878000Y-117281000D01*
X145278000Y-101881000D02*
X145278000Y-117281000D01*
X144778000Y-94881000D02*
X143678000Y-95981000D01*
X134978000Y-94881000D02*
X141578000Y-94881000D01*
X133878000Y-100881000D02*
X135478000Y-101881000D01*
X141578000Y-94881000D02*
X143678000Y-96981000D01*
X135478000Y-117281000D02*
X142078000Y-117281000D01*
X143678000Y-96981000D02*
X143678000Y-100881000D01*
X133878000Y-95981000D02*
X133878000Y-100881000D01*
X142078000Y-101881000D02*
X143678000Y-100881000D01*
X142078000Y-101881000D02*
X142078000Y-117281000D01*
X135478000Y-101881000D02*
X135478000Y-117281000D01*
X134978000Y-94881000D02*
X133878000Y-95981000D01*
X125178000Y-94881000D02*
X131778000Y-94881000D01*
X124078000Y-100881000D02*
X125678000Y-101881000D01*
X131778000Y-94881000D02*
X133878000Y-96981000D01*
X125678000Y-117281000D02*
X132278000Y-117281000D01*
X133878000Y-96981000D02*
X133878000Y-100881000D01*
X124078000Y-95981000D02*
X124078000Y-100881000D01*
X132278000Y-101881000D02*
X133878000Y-100881000D01*
X132278000Y-101881000D02*
X132278000Y-117281000D01*
X125678000Y-101881000D02*
X125678000Y-117281000D01*
X125178000Y-94881000D02*
X124078000Y-95981000D01*
X115378000Y-94881000D02*
X121978000Y-94881000D01*
X114278000Y-100881000D02*
X115878000Y-101881000D01*
X121978000Y-94881000D02*
X124078000Y-96981000D01*
X115878000Y-117281000D02*
X122478000Y-117281000D01*
X124078000Y-96981000D02*
X124078000Y-100881000D01*
X114278000Y-95981000D02*
X114278000Y-100881000D01*
X122478000Y-101881000D02*
X124078000Y-100881000D01*
X122478000Y-101881000D02*
X122478000Y-117281000D01*
X115878000Y-101881000D02*
X115878000Y-117281000D01*
X115378000Y-94881000D02*
X114278000Y-95981000D01*
X105578000Y-94881000D02*
X112178000Y-94881000D01*
X104478000Y-100881000D02*
X106078000Y-101881000D01*
X112178000Y-94881000D02*
X114278000Y-96981000D01*
X106078000Y-117281000D02*
X112678000Y-117281000D01*
X114278000Y-96981000D02*
X114278000Y-100881000D01*
X104478000Y-95981000D02*
X104478000Y-100881000D01*
X112678000Y-101881000D02*
X114278000Y-100881000D01*
X112678000Y-101881000D02*
X112678000Y-117281000D01*
X106078000Y-101881000D02*
X106078000Y-117281000D01*
X105578000Y-94881000D02*
X104478000Y-95981000D01*
X95778000Y-94881000D02*
X102378000Y-94881000D01*
X94678000Y-100881000D02*
X96278000Y-101881000D01*
X102378000Y-94881000D02*
X104478000Y-96981000D01*
X96278000Y-117281000D02*
X102878000Y-117281000D01*
X104478000Y-96981000D02*
X104478000Y-100881000D01*
X94678000Y-95981000D02*
X94678000Y-100881000D01*
X102878000Y-101881000D02*
X104478000Y-100881000D01*
X102878000Y-101881000D02*
X102878000Y-117281000D01*
X96278000Y-101881000D02*
X96278000Y-117281000D01*
X95778000Y-94881000D02*
X94678000Y-95981000D01*
X85978000Y-94881000D02*
X92578000Y-94881000D01*
X84878000Y-100881000D02*
X86478000Y-101881000D01*
X92578000Y-94881000D02*
X94678000Y-96981000D01*
X86478000Y-117281000D02*
X93078000Y-117281000D01*
X94678000Y-96981000D02*
X94678000Y-100881000D01*
X84878000Y-95981000D02*
X84878000Y-100881000D01*
X93078000Y-101881000D02*
X94678000Y-100881000D01*
X93078000Y-101881000D02*
X93078000Y-117281000D01*
X86478000Y-101881000D02*
X86478000Y-117281000D01*
X85978000Y-94881000D02*
X84878000Y-95981000D01*
X76178000Y-94881000D02*
X82778000Y-94881000D01*
X75078000Y-100881000D02*
X76678000Y-101881000D01*
X82778000Y-94881000D02*
X84878000Y-96981000D01*
X76678000Y-117281000D02*
X83278000Y-117281000D01*
X84878000Y-96981000D02*
X84878000Y-100881000D01*
X75078000Y-95981000D02*
X75078000Y-100881000D01*
X83278000Y-101881000D02*
X84878000Y-100881000D01*
X83278000Y-101881000D02*
X83278000Y-117281000D01*
X76678000Y-101881000D02*
X76678000Y-117281000D01*
X76178000Y-94881000D02*
X75078000Y-95981000D01*
X66378000Y-94881000D02*
X72978000Y-94881000D01*
X65278000Y-100881000D02*
X66878000Y-101881000D01*
X72978000Y-94881000D02*
X75078000Y-96981000D01*
X66878000Y-117281000D02*
X73478000Y-117281000D01*
X75078000Y-96981000D02*
X75078000Y-100881000D01*
X65278000Y-95981000D02*
X65278000Y-100881000D01*
X73478000Y-101881000D02*
X75078000Y-100881000D01*
X73478000Y-101881000D02*
X73478000Y-117281000D01*
X66878000Y-101881000D02*
X66878000Y-117281000D01*
X66378000Y-94881000D02*
X65278000Y-95981000D01*
X154578000Y-72481000D02*
X161178000Y-72481000D01*
X153478000Y-78481000D02*
X155078000Y-79481000D01*
X161178000Y-72481000D02*
X163278000Y-74581000D01*
X155078000Y-94881000D02*
X161678000Y-94881000D01*
X163278000Y-74581000D02*
X163278000Y-78481000D01*
X153478000Y-73581000D02*
X153478000Y-78481000D01*
X161678000Y-79481000D02*
X163278000Y-78481000D01*
X161678000Y-79481000D02*
X161678000Y-94881000D01*
X155078000Y-79481000D02*
X155078000Y-94881000D01*
X154578000Y-72481000D02*
X153478000Y-73581000D01*
X144778000Y-72481000D02*
X151378000Y-72481000D01*
X143678000Y-78481000D02*
X145278000Y-79481000D01*
X151378000Y-72481000D02*
X153478000Y-74581000D01*
X145278000Y-94881000D02*
X151878000Y-94881000D01*
X153478000Y-74581000D02*
X153478000Y-78481000D01*
X143678000Y-73581000D02*
X143678000Y-78481000D01*
X151878000Y-79481000D02*
X153478000Y-78481000D01*
X151878000Y-79481000D02*
X151878000Y-94881000D01*
X145278000Y-79481000D02*
X145278000Y-94881000D01*
X144778000Y-72481000D02*
X143678000Y-73581000D01*
X134978000Y-72481000D02*
X141578000Y-72481000D01*
X133878000Y-78481000D02*
X135478000Y-79481000D01*
X141578000Y-72481000D02*
X143678000Y-74581000D01*
X135478000Y-94881000D02*
X142078000Y-94881000D01*
X143678000Y-74581000D02*
X143678000Y-78481000D01*
X133878000Y-73581000D02*
X133878000Y-78481000D01*
X142078000Y-79481000D02*
X143678000Y-78481000D01*
X142078000Y-79481000D02*
X142078000Y-94881000D01*
X135478000Y-79481000D02*
X135478000Y-94881000D01*
X134978000Y-72481000D02*
X133878000Y-73581000D01*
X125178000Y-72481000D02*
X131778000Y-72481000D01*
X124078000Y-78481000D02*
X125678000Y-79481000D01*
X131778000Y-72481000D02*
X133878000Y-74581000D01*
X125678000Y-94881000D02*
X132278000Y-94881000D01*
X133878000Y-74581000D02*
X133878000Y-78481000D01*
X124078000Y-73581000D02*
X124078000Y-78481000D01*
X132278000Y-79481000D02*
X133878000Y-78481000D01*
X132278000Y-79481000D02*
X132278000Y-94881000D01*
X125678000Y-79481000D02*
X125678000Y-94881000D01*
X125178000Y-72481000D02*
X124078000Y-73581000D01*
X115378000Y-72481000D02*
X121978000Y-72481000D01*
X114278000Y-78481000D02*
X115878000Y-79481000D01*
X121978000Y-72481000D02*
X124078000Y-74581000D01*
X115878000Y-94881000D02*
X122478000Y-94881000D01*
X124078000Y-74581000D02*
X124078000Y-78481000D01*
X114278000Y-73581000D02*
X114278000Y-78481000D01*
X122478000Y-79481000D02*
X124078000Y-78481000D01*
X122478000Y-79481000D02*
X122478000Y-94881000D01*
X115878000Y-79481000D02*
X115878000Y-94881000D01*
X115378000Y-72481000D02*
X114278000Y-73581000D01*
X105578000Y-72481000D02*
X112178000Y-72481000D01*
X104478000Y-78481000D02*
X106078000Y-79481000D01*
X112178000Y-72481000D02*
X114278000Y-74581000D01*
X106078000Y-94881000D02*
X112678000Y-94881000D01*
X114278000Y-74581000D02*
X114278000Y-78481000D01*
X104478000Y-73581000D02*
X104478000Y-78481000D01*
X112678000Y-79481000D02*
X114278000Y-78481000D01*
X112678000Y-79481000D02*
X112678000Y-94881000D01*
X106078000Y-79481000D02*
X106078000Y-94881000D01*
X105578000Y-72481000D02*
X104478000Y-73581000D01*
X95778000Y-72481000D02*
X102378000Y-72481000D01*
X94678000Y-78481000D02*
X96278000Y-79481000D01*
X102378000Y-72481000D02*
X104478000Y-74581000D01*
X96278000Y-94881000D02*
X102878000Y-94881000D01*
X104478000Y-74581000D02*
X104478000Y-78481000D01*
X94678000Y-73581000D02*
X94678000Y-78481000D01*
X102878000Y-79481000D02*
X104478000Y-78481000D01*
X102878000Y-79481000D02*
X102878000Y-94881000D01*
X96278000Y-79481000D02*
X96278000Y-94881000D01*
X95778000Y-72481000D02*
X94678000Y-73581000D01*
X85978000Y-72481000D02*
X92578000Y-72481000D01*
X84878000Y-78481000D02*
X86478000Y-79481000D01*
X92578000Y-72481000D02*
X94678000Y-74581000D01*
X86478000Y-94881000D02*
X93078000Y-94881000D01*
X94678000Y-74581000D02*
X94678000Y-78481000D01*
X84878000Y-73581000D02*
X84878000Y-78481000D01*
X93078000Y-79481000D02*
X94678000Y-78481000D01*
X93078000Y-79481000D02*
X93078000Y-94881000D01*
X86478000Y-79481000D02*
X86478000Y-94881000D01*
X85978000Y-72481000D02*
X84878000Y-73581000D01*
X76178000Y-72481000D02*
X82778000Y-72481000D01*
X75078000Y-78481000D02*
X76678000Y-79481000D01*
X82778000Y-72481000D02*
X84878000Y-74581000D01*
X76678000Y-94881000D02*
X83278000Y-94881000D01*
X84878000Y-74581000D02*
X84878000Y-78481000D01*
X75078000Y-73581000D02*
X75078000Y-78481000D01*
X83278000Y-79481000D02*
X84878000Y-78481000D01*
X83278000Y-79481000D02*
X83278000Y-94881000D01*
X76678000Y-79481000D02*
X76678000Y-94881000D01*
X76178000Y-72481000D02*
X75078000Y-73581000D01*
X66378000Y-72481000D02*
X72978000Y-72481000D01*
X65278000Y-78481000D02*
X66878000Y-79481000D01*
X72978000Y-72481000D02*
X75078000Y-74581000D01*
X66878000Y-94881000D02*
X73478000Y-94881000D01*
X75078000Y-74581000D02*
X75078000Y-78481000D01*
X65278000Y-73581000D02*
X65278000Y-78481000D01*
X73478000Y-79481000D02*
X75078000Y-78481000D01*
X73478000Y-79481000D02*
X73478000Y-94881000D01*
X66878000Y-79481000D02*
X66878000Y-94881000D01*
X66378000Y-72481000D02*
X65278000Y-73581000D01*
X154578000Y-50081000D02*
X161178000Y-50081000D01*
X153478000Y-56081000D02*
X155078000Y-57081000D01*
X161178000Y-50081000D02*
X163278000Y-52181000D01*
X155078000Y-72481000D02*
X161678000Y-72481000D01*
X163278000Y-52181000D02*
X163278000Y-56081000D01*
X153478000Y-51181000D02*
X153478000Y-56081000D01*
X161678000Y-57081000D02*
X163278000Y-56081000D01*
X161678000Y-57081000D02*
X161678000Y-72481000D01*
X155078000Y-57081000D02*
X155078000Y-72481000D01*
X154578000Y-50081000D02*
X153478000Y-51181000D01*
X144778000Y-50081000D02*
X151378000Y-50081000D01*
X143678000Y-56081000D02*
X145278000Y-57081000D01*
X151378000Y-50081000D02*
X153478000Y-52181000D01*
X145278000Y-72481000D02*
X151878000Y-72481000D01*
X153478000Y-52181000D02*
X153478000Y-56081000D01*
X143678000Y-51181000D02*
X143678000Y-56081000D01*
X151878000Y-57081000D02*
X153478000Y-56081000D01*
X151878000Y-57081000D02*
X151878000Y-72481000D01*
X145278000Y-57081000D02*
X145278000Y-72481000D01*
X144778000Y-50081000D02*
X143678000Y-51181000D01*
X134978000Y-50081000D02*
X141578000Y-50081000D01*
X133878000Y-56081000D02*
X135478000Y-57081000D01*
X141578000Y-50081000D02*
X143678000Y-52181000D01*
X135478000Y-72481000D02*
X142078000Y-72481000D01*
X143678000Y-52181000D02*
X143678000Y-56081000D01*
X133878000Y-51181000D02*
X133878000Y-56081000D01*
X142078000Y-57081000D02*
X143678000Y-56081000D01*
X142078000Y-57081000D02*
X142078000Y-72481000D01*
X135478000Y-57081000D02*
X135478000Y-72481000D01*
X134978000Y-50081000D02*
X133878000Y-51181000D01*
X125178000Y-50081000D02*
X131778000Y-50081000D01*
X124078000Y-56081000D02*
X125678000Y-57081000D01*
X131778000Y-50081000D02*
X133878000Y-52181000D01*
X125678000Y-72481000D02*
X132278000Y-72481000D01*
X133878000Y-52181000D02*
X133878000Y-56081000D01*
X124078000Y-51181000D02*
X124078000Y-56081000D01*
X132278000Y-57081000D02*
X133878000Y-56081000D01*
X132278000Y-57081000D02*
X132278000Y-72481000D01*
X125678000Y-57081000D02*
X125678000Y-72481000D01*
X125178000Y-50081000D02*
X124078000Y-51181000D01*
X115378000Y-50081000D02*
X121978000Y-50081000D01*
X114278000Y-56081000D02*
X115878000Y-57081000D01*
X121978000Y-50081000D02*
X124078000Y-52181000D01*
X115878000Y-72481000D02*
X122478000Y-72481000D01*
X124078000Y-52181000D02*
X124078000Y-56081000D01*
X114278000Y-51181000D02*
X114278000Y-56081000D01*
X122478000Y-57081000D02*
X124078000Y-56081000D01*
X122478000Y-57081000D02*
X122478000Y-72481000D01*
X115878000Y-57081000D02*
X115878000Y-72481000D01*
X115378000Y-50081000D02*
X114278000Y-51181000D01*
X105578000Y-50081000D02*
X112178000Y-50081000D01*
X104478000Y-56081000D02*
X106078000Y-57081000D01*
X112178000Y-50081000D02*
X114278000Y-52181000D01*
X106078000Y-72481000D02*
X112678000Y-72481000D01*
X114278000Y-52181000D02*
X114278000Y-56081000D01*
X104478000Y-51181000D02*
X104478000Y-56081000D01*
X112678000Y-57081000D02*
X114278000Y-56081000D01*
X112678000Y-57081000D02*
X112678000Y-72481000D01*
X106078000Y-57081000D02*
X106078000Y-72481000D01*
X105578000Y-50081000D02*
X104478000Y-51181000D01*
X95778000Y-50081000D02*
X102378000Y-50081000D01*
X94678000Y-56081000D02*
X96278000Y-57081000D01*
X102378000Y-50081000D02*
X104478000Y-52181000D01*
X96278000Y-72481000D02*
X102878000Y-72481000D01*
X104478000Y-52181000D02*
X104478000Y-56081000D01*
X94678000Y-51181000D02*
X94678000Y-56081000D01*
X102878000Y-57081000D02*
X104478000Y-56081000D01*
X102878000Y-57081000D02*
X102878000Y-72481000D01*
X96278000Y-57081000D02*
X96278000Y-72481000D01*
X95778000Y-50081000D02*
X94678000Y-51181000D01*
X85978000Y-50081000D02*
X92578000Y-50081000D01*
X84878000Y-56081000D02*
X86478000Y-57081000D01*
X92578000Y-50081000D02*
X94678000Y-52181000D01*
X86478000Y-72481000D02*
X93078000Y-72481000D01*
X94678000Y-52181000D02*
X94678000Y-56081000D01*
X84878000Y-51181000D02*
X84878000Y-56081000D01*
X93078000Y-57081000D02*
X94678000Y-56081000D01*
X93078000Y-57081000D02*
X93078000Y-72481000D01*
X86478000Y-57081000D02*
X86478000Y-72481000D01*
X85978000Y-50081000D02*
X84878000Y-51181000D01*
X76178000Y-50081000D02*
X82778000Y-50081000D01*
X75078000Y-56081000D02*
X76678000Y-57081000D01*
X82778000Y-50081000D02*
X84878000Y-52181000D01*
X76678000Y-72481000D02*
X83278000Y-72481000D01*
X84878000Y-52181000D02*
X84878000Y-56081000D01*
X75078000Y-51181000D02*
X75078000Y-56081000D01*
X83278000Y-57081000D02*
X84878000Y-56081000D01*
X83278000Y-57081000D02*
X83278000Y-72481000D01*
X76678000Y-57081000D02*
X76678000Y-72481000D01*
X76178000Y-50081000D02*
X75078000Y-51181000D01*
X66378000Y-50081000D02*
X72978000Y-50081000D01*
X73478000Y-57081000D02*
X75078000Y-56081000D01*
X65278000Y-51181000D02*
X65278000Y-56081000D01*
X66878000Y-72481000D02*
X73478000Y-72481000D01*
X65278000Y-56081000D02*
X66878000Y-57081000D01*
X72978000Y-50081000D02*
X75078000Y-52181000D01*
X66378000Y-50081000D02*
X65278000Y-51181000D01*
X75078000Y-52181000D02*
X75078000Y-56081000D01*
X73478000Y-57081000D02*
X73478000Y-72481000D01*
X66878000Y-57081000D02*
X66878000Y-72481000D01*
D11*
%TO.C,J1*%
X154738000Y-120381000D03*
D12*
X157438000Y-125681000D03*
X160938000Y-122581000D03*
%TD*%
D13*
%TO.C,J2*%
X160128000Y-135612000D03*
D14*
X156628000Y-135612000D03*
%TD*%
D11*
%TO.C,J1*%
X144938000Y-120381000D03*
D12*
X147638000Y-125681000D03*
X151138000Y-122581000D03*
%TD*%
D13*
%TO.C,J2*%
X150328000Y-135612000D03*
D14*
X146828000Y-135612000D03*
%TD*%
D11*
%TO.C,J1*%
X135138000Y-120381000D03*
D12*
X137838000Y-125681000D03*
X141338000Y-122581000D03*
%TD*%
D13*
%TO.C,J2*%
X140528000Y-135612000D03*
D14*
X137028000Y-135612000D03*
%TD*%
D11*
%TO.C,J1*%
X125338000Y-120381000D03*
D12*
X128038000Y-125681000D03*
X131538000Y-122581000D03*
%TD*%
D13*
%TO.C,J2*%
X130728000Y-135612000D03*
D14*
X127228000Y-135612000D03*
%TD*%
D11*
%TO.C,J1*%
X115538000Y-120381000D03*
D12*
X118238000Y-125681000D03*
X121738000Y-122581000D03*
%TD*%
D13*
%TO.C,J2*%
X120928000Y-135612000D03*
D14*
X117428000Y-135612000D03*
%TD*%
D11*
%TO.C,J1*%
X105738000Y-120381000D03*
D12*
X108438000Y-125681000D03*
X111938000Y-122581000D03*
%TD*%
D13*
%TO.C,J2*%
X111128000Y-135612000D03*
D14*
X107628000Y-135612000D03*
%TD*%
D11*
%TO.C,J1*%
X95938000Y-120381000D03*
D12*
X98638000Y-125681000D03*
X102138000Y-122581000D03*
%TD*%
D13*
%TO.C,J2*%
X101328000Y-135612000D03*
D14*
X97828000Y-135612000D03*
%TD*%
D11*
%TO.C,J1*%
X86138000Y-120381000D03*
D12*
X88838000Y-125681000D03*
X92338000Y-122581000D03*
%TD*%
D13*
%TO.C,J2*%
X91528000Y-135612000D03*
D14*
X88028000Y-135612000D03*
%TD*%
D11*
%TO.C,J1*%
X76338000Y-120381000D03*
D12*
X79038000Y-125681000D03*
X82538000Y-122581000D03*
%TD*%
D13*
%TO.C,J2*%
X81728000Y-135612000D03*
D14*
X78228000Y-135612000D03*
%TD*%
D11*
%TO.C,J1*%
X66538000Y-120381000D03*
D12*
X69238000Y-125681000D03*
X72738000Y-122581000D03*
%TD*%
D13*
%TO.C,J2*%
X71928000Y-135612000D03*
D14*
X68428000Y-135612000D03*
%TD*%
D11*
%TO.C,J1*%
X154738000Y-97981000D03*
D12*
X157438000Y-103281000D03*
X160938000Y-100181000D03*
%TD*%
D13*
%TO.C,J2*%
X160128000Y-113212000D03*
D14*
X156628000Y-113212000D03*
%TD*%
D11*
%TO.C,J1*%
X144938000Y-97981000D03*
D12*
X147638000Y-103281000D03*
X151138000Y-100181000D03*
%TD*%
D13*
%TO.C,J2*%
X150328000Y-113212000D03*
D14*
X146828000Y-113212000D03*
%TD*%
D11*
%TO.C,J1*%
X135138000Y-97981000D03*
D12*
X137838000Y-103281000D03*
X141338000Y-100181000D03*
%TD*%
D13*
%TO.C,J2*%
X140528000Y-113212000D03*
D14*
X137028000Y-113212000D03*
%TD*%
D11*
%TO.C,J1*%
X125338000Y-97981000D03*
D12*
X128038000Y-103281000D03*
X131538000Y-100181000D03*
%TD*%
D13*
%TO.C,J2*%
X130728000Y-113212000D03*
D14*
X127228000Y-113212000D03*
%TD*%
D11*
%TO.C,J1*%
X115538000Y-97981000D03*
D12*
X118238000Y-103281000D03*
X121738000Y-100181000D03*
%TD*%
D13*
%TO.C,J2*%
X120928000Y-113212000D03*
D14*
X117428000Y-113212000D03*
%TD*%
D11*
%TO.C,J1*%
X105738000Y-97981000D03*
D12*
X108438000Y-103281000D03*
X111938000Y-100181000D03*
%TD*%
D13*
%TO.C,J2*%
X111128000Y-113212000D03*
D14*
X107628000Y-113212000D03*
%TD*%
D11*
%TO.C,J1*%
X95938000Y-97981000D03*
D12*
X98638000Y-103281000D03*
X102138000Y-100181000D03*
%TD*%
D13*
%TO.C,J2*%
X101328000Y-113212000D03*
D14*
X97828000Y-113212000D03*
%TD*%
D11*
%TO.C,J1*%
X86138000Y-97981000D03*
D12*
X88838000Y-103281000D03*
X92338000Y-100181000D03*
%TD*%
D13*
%TO.C,J2*%
X91528000Y-113212000D03*
D14*
X88028000Y-113212000D03*
%TD*%
D11*
%TO.C,J1*%
X76338000Y-97981000D03*
D12*
X79038000Y-103281000D03*
X82538000Y-100181000D03*
%TD*%
D13*
%TO.C,J2*%
X81728000Y-113212000D03*
D14*
X78228000Y-113212000D03*
%TD*%
D11*
%TO.C,J1*%
X66538000Y-97981000D03*
D12*
X69238000Y-103281000D03*
X72738000Y-100181000D03*
%TD*%
D13*
%TO.C,J2*%
X71928000Y-113212000D03*
D14*
X68428000Y-113212000D03*
%TD*%
D11*
%TO.C,J1*%
X154738000Y-75581000D03*
D12*
X157438000Y-80881000D03*
X160938000Y-77781000D03*
%TD*%
D13*
%TO.C,J2*%
X160128000Y-90812000D03*
D14*
X156628000Y-90812000D03*
%TD*%
D11*
%TO.C,J1*%
X144938000Y-75581000D03*
D12*
X147638000Y-80881000D03*
X151138000Y-77781000D03*
%TD*%
D13*
%TO.C,J2*%
X150328000Y-90812000D03*
D14*
X146828000Y-90812000D03*
%TD*%
D11*
%TO.C,J1*%
X135138000Y-75581000D03*
D12*
X137838000Y-80881000D03*
X141338000Y-77781000D03*
%TD*%
D13*
%TO.C,J2*%
X140528000Y-90812000D03*
D14*
X137028000Y-90812000D03*
%TD*%
D11*
%TO.C,J1*%
X125338000Y-75581000D03*
D12*
X128038000Y-80881000D03*
X131538000Y-77781000D03*
%TD*%
D13*
%TO.C,J2*%
X130728000Y-90812000D03*
D14*
X127228000Y-90812000D03*
%TD*%
D11*
%TO.C,J1*%
X115538000Y-75581000D03*
D12*
X118238000Y-80881000D03*
X121738000Y-77781000D03*
%TD*%
D13*
%TO.C,J2*%
X120928000Y-90812000D03*
D14*
X117428000Y-90812000D03*
%TD*%
D11*
%TO.C,J1*%
X105738000Y-75581000D03*
D12*
X108438000Y-80881000D03*
X111938000Y-77781000D03*
%TD*%
D13*
%TO.C,J2*%
X111128000Y-90812000D03*
D14*
X107628000Y-90812000D03*
%TD*%
D11*
%TO.C,J1*%
X95938000Y-75581000D03*
D12*
X98638000Y-80881000D03*
X102138000Y-77781000D03*
%TD*%
D13*
%TO.C,J2*%
X101328000Y-90812000D03*
D14*
X97828000Y-90812000D03*
%TD*%
D11*
%TO.C,J1*%
X86138000Y-75581000D03*
D12*
X88838000Y-80881000D03*
X92338000Y-77781000D03*
%TD*%
D13*
%TO.C,J2*%
X91528000Y-90812000D03*
D14*
X88028000Y-90812000D03*
%TD*%
D11*
%TO.C,J1*%
X76338000Y-75581000D03*
D12*
X79038000Y-80881000D03*
X82538000Y-77781000D03*
%TD*%
D13*
%TO.C,J2*%
X81728000Y-90812000D03*
D14*
X78228000Y-90812000D03*
%TD*%
D11*
%TO.C,J1*%
X66538000Y-75581000D03*
D12*
X69238000Y-80881000D03*
X72738000Y-77781000D03*
%TD*%
D13*
%TO.C,J2*%
X71928000Y-90812000D03*
D14*
X68428000Y-90812000D03*
%TD*%
D11*
%TO.C,J1*%
X154738000Y-53181000D03*
D12*
X157438000Y-58481000D03*
X160938000Y-55381000D03*
%TD*%
D13*
%TO.C,J2*%
X160128000Y-68412000D03*
D14*
X156628000Y-68412000D03*
%TD*%
D11*
%TO.C,J1*%
X144938000Y-53181000D03*
D12*
X147638000Y-58481000D03*
X151138000Y-55381000D03*
%TD*%
D13*
%TO.C,J2*%
X150328000Y-68412000D03*
D14*
X146828000Y-68412000D03*
%TD*%
D11*
%TO.C,J1*%
X135138000Y-53181000D03*
D12*
X137838000Y-58481000D03*
X141338000Y-55381000D03*
%TD*%
D13*
%TO.C,J2*%
X140528000Y-68412000D03*
D14*
X137028000Y-68412000D03*
%TD*%
D11*
%TO.C,J1*%
X125338000Y-53181000D03*
D12*
X128038000Y-58481000D03*
X131538000Y-55381000D03*
%TD*%
D13*
%TO.C,J2*%
X130728000Y-68412000D03*
D14*
X127228000Y-68412000D03*
%TD*%
D11*
%TO.C,J1*%
X115538000Y-53181000D03*
D12*
X118238000Y-58481000D03*
X121738000Y-55381000D03*
%TD*%
D13*
%TO.C,J2*%
X120928000Y-68412000D03*
D14*
X117428000Y-68412000D03*
%TD*%
D11*
%TO.C,J1*%
X105738000Y-53181000D03*
D12*
X108438000Y-58481000D03*
X111938000Y-55381000D03*
%TD*%
D13*
%TO.C,J2*%
X111128000Y-68412000D03*
D14*
X107628000Y-68412000D03*
%TD*%
D11*
%TO.C,J1*%
X95938000Y-53181000D03*
D12*
X98638000Y-58481000D03*
X102138000Y-55381000D03*
%TD*%
D13*
%TO.C,J2*%
X101328000Y-68412000D03*
D14*
X97828000Y-68412000D03*
%TD*%
D11*
%TO.C,J1*%
X86138000Y-53181000D03*
D12*
X88838000Y-58481000D03*
X92338000Y-55381000D03*
%TD*%
D13*
%TO.C,J2*%
X91528000Y-68412000D03*
D14*
X88028000Y-68412000D03*
%TD*%
D11*
%TO.C,J1*%
X76338000Y-53181000D03*
D12*
X79038000Y-58481000D03*
X82538000Y-55381000D03*
%TD*%
D13*
%TO.C,J2*%
X81728000Y-68412000D03*
D14*
X78228000Y-68412000D03*
%TD*%
D11*
%TO.C,J1*%
X66538000Y-53181000D03*
D12*
X69238000Y-58481000D03*
X72738000Y-55381000D03*
%TD*%
D13*
%TO.C,J2*%
X71928000Y-68412000D03*
D14*
X68428000Y-68412000D03*
%TD*%
M02*
