%TF.GenerationSoftware,KiCad,Pcbnew,6.0.11-2627ca5db0~126~ubuntu20.04.1*%
%TF.CreationDate,2024-11-30T22:39:17-05:00*%
%TF.ProjectId,,58585858-5858-4585-9858-585858585858,rev?*%
%TF.SameCoordinates,Original*%
%TF.FileFunction,Paste,Top*%
%TF.FilePolarity,Positive*%
%FSLAX46Y46*%
G04 Gerber Fmt 4.6, Leading zero omitted, Abs format (unit mm)*
G04 Created by KiCad (PCBNEW 6.0.11-2627ca5db0~126~ubuntu20.04.1) date 2024-11-30 22:39:17*
%MOMM*%
%LPD*%
G01*
G04 APERTURE LIST*
%TA.AperFunction,Profile*%
%ADD10C,0.100000*%
%TD*%
G04 APERTURE END LIST*
D10*
X151090000Y-107121000D02*
X169290000Y-107121000D01*
X169290000Y-116021000D02*
X173090000Y-112421000D01*
X164790000Y-113721000D02*
X164790000Y-115171000D01*
X164790000Y-115171000D02*
X165690000Y-116021000D01*
X169290000Y-107121000D02*
X173090000Y-110721000D01*
X151090000Y-113721000D02*
X164790000Y-113721000D01*
X165690000Y-116021000D02*
X169290000Y-116021000D01*
X151090000Y-107121000D02*
X151090000Y-113721000D01*
X173090000Y-110721000D02*
X173090000Y-112421000D01*
X129090000Y-107121000D02*
X147290000Y-107121000D01*
X147290000Y-116021000D02*
X151090000Y-112421000D01*
X142790000Y-113721000D02*
X142790000Y-115171000D01*
X142790000Y-115171000D02*
X143690000Y-116021000D01*
X147290000Y-107121000D02*
X151090000Y-110721000D01*
X129090000Y-113721000D02*
X142790000Y-113721000D01*
X143690000Y-116021000D02*
X147290000Y-116021000D01*
X129090000Y-107121000D02*
X129090000Y-113721000D01*
X151090000Y-110721000D02*
X151090000Y-112421000D01*
X107090000Y-107121000D02*
X125290000Y-107121000D01*
X125290000Y-116021000D02*
X129090000Y-112421000D01*
X120790000Y-113721000D02*
X120790000Y-115171000D01*
X120790000Y-115171000D02*
X121690000Y-116021000D01*
X125290000Y-107121000D02*
X129090000Y-110721000D01*
X107090000Y-113721000D02*
X120790000Y-113721000D01*
X121690000Y-116021000D02*
X125290000Y-116021000D01*
X107090000Y-107121000D02*
X107090000Y-113721000D01*
X129090000Y-110721000D02*
X129090000Y-112421000D01*
X85090000Y-107121000D02*
X103290000Y-107121000D01*
X103290000Y-116021000D02*
X107090000Y-112421000D01*
X98790000Y-113721000D02*
X98790000Y-115171000D01*
X98790000Y-115171000D02*
X99690000Y-116021000D01*
X103290000Y-107121000D02*
X107090000Y-110721000D01*
X85090000Y-113721000D02*
X98790000Y-113721000D01*
X99690000Y-116021000D02*
X103290000Y-116021000D01*
X85090000Y-107121000D02*
X85090000Y-113721000D01*
X107090000Y-110721000D02*
X107090000Y-112421000D01*
X151090000Y-98221000D02*
X169290000Y-98221000D01*
X169290000Y-107121000D02*
X173090000Y-103521000D01*
X164790000Y-104821000D02*
X164790000Y-106271000D01*
X164790000Y-106271000D02*
X165690000Y-107121000D01*
X169290000Y-98221000D02*
X173090000Y-101821000D01*
X151090000Y-104821000D02*
X164790000Y-104821000D01*
X165690000Y-107121000D02*
X169290000Y-107121000D01*
X151090000Y-98221000D02*
X151090000Y-104821000D01*
X173090000Y-101821000D02*
X173090000Y-103521000D01*
X129090000Y-98221000D02*
X147290000Y-98221000D01*
X147290000Y-107121000D02*
X151090000Y-103521000D01*
X142790000Y-104821000D02*
X142790000Y-106271000D01*
X142790000Y-106271000D02*
X143690000Y-107121000D01*
X147290000Y-98221000D02*
X151090000Y-101821000D01*
X129090000Y-104821000D02*
X142790000Y-104821000D01*
X143690000Y-107121000D02*
X147290000Y-107121000D01*
X129090000Y-98221000D02*
X129090000Y-104821000D01*
X151090000Y-101821000D02*
X151090000Y-103521000D01*
X107090000Y-98221000D02*
X125290000Y-98221000D01*
X125290000Y-107121000D02*
X129090000Y-103521000D01*
X120790000Y-104821000D02*
X120790000Y-106271000D01*
X120790000Y-106271000D02*
X121690000Y-107121000D01*
X125290000Y-98221000D02*
X129090000Y-101821000D01*
X107090000Y-104821000D02*
X120790000Y-104821000D01*
X121690000Y-107121000D02*
X125290000Y-107121000D01*
X107090000Y-98221000D02*
X107090000Y-104821000D01*
X129090000Y-101821000D02*
X129090000Y-103521000D01*
X85090000Y-98221000D02*
X103290000Y-98221000D01*
X103290000Y-107121000D02*
X107090000Y-103521000D01*
X98790000Y-104821000D02*
X98790000Y-106271000D01*
X98790000Y-106271000D02*
X99690000Y-107121000D01*
X103290000Y-98221000D02*
X107090000Y-101821000D01*
X85090000Y-104821000D02*
X98790000Y-104821000D01*
X99690000Y-107121000D02*
X103290000Y-107121000D01*
X85090000Y-98221000D02*
X85090000Y-104821000D01*
X107090000Y-101821000D02*
X107090000Y-103521000D01*
X151090000Y-89321000D02*
X169290000Y-89321000D01*
X169290000Y-98221000D02*
X173090000Y-94621000D01*
X164790000Y-95921000D02*
X164790000Y-97371000D01*
X164790000Y-97371000D02*
X165690000Y-98221000D01*
X169290000Y-89321000D02*
X173090000Y-92921000D01*
X151090000Y-95921000D02*
X164790000Y-95921000D01*
X165690000Y-98221000D02*
X169290000Y-98221000D01*
X151090000Y-89321000D02*
X151090000Y-95921000D01*
X173090000Y-92921000D02*
X173090000Y-94621000D01*
X129090000Y-89321000D02*
X147290000Y-89321000D01*
X147290000Y-98221000D02*
X151090000Y-94621000D01*
X142790000Y-95921000D02*
X142790000Y-97371000D01*
X142790000Y-97371000D02*
X143690000Y-98221000D01*
X147290000Y-89321000D02*
X151090000Y-92921000D01*
X129090000Y-95921000D02*
X142790000Y-95921000D01*
X143690000Y-98221000D02*
X147290000Y-98221000D01*
X129090000Y-89321000D02*
X129090000Y-95921000D01*
X151090000Y-92921000D02*
X151090000Y-94621000D01*
X107090000Y-89321000D02*
X125290000Y-89321000D01*
X125290000Y-98221000D02*
X129090000Y-94621000D01*
X120790000Y-95921000D02*
X120790000Y-97371000D01*
X120790000Y-97371000D02*
X121690000Y-98221000D01*
X125290000Y-89321000D02*
X129090000Y-92921000D01*
X107090000Y-95921000D02*
X120790000Y-95921000D01*
X121690000Y-98221000D02*
X125290000Y-98221000D01*
X107090000Y-89321000D02*
X107090000Y-95921000D01*
X129090000Y-92921000D02*
X129090000Y-94621000D01*
X85090000Y-89321000D02*
X103290000Y-89321000D01*
X103290000Y-98221000D02*
X107090000Y-94621000D01*
X98790000Y-95921000D02*
X98790000Y-97371000D01*
X98790000Y-97371000D02*
X99690000Y-98221000D01*
X103290000Y-89321000D02*
X107090000Y-92921000D01*
X85090000Y-95921000D02*
X98790000Y-95921000D01*
X99690000Y-98221000D02*
X103290000Y-98221000D01*
X85090000Y-89321000D02*
X85090000Y-95921000D01*
X107090000Y-92921000D02*
X107090000Y-94621000D01*
X151090000Y-80421000D02*
X169290000Y-80421000D01*
X169290000Y-89321000D02*
X173090000Y-85721000D01*
X164790000Y-87021000D02*
X164790000Y-88471000D01*
X164790000Y-88471000D02*
X165690000Y-89321000D01*
X169290000Y-80421000D02*
X173090000Y-84021000D01*
X151090000Y-87021000D02*
X164790000Y-87021000D01*
X165690000Y-89321000D02*
X169290000Y-89321000D01*
X151090000Y-80421000D02*
X151090000Y-87021000D01*
X173090000Y-84021000D02*
X173090000Y-85721000D01*
X129090000Y-80421000D02*
X147290000Y-80421000D01*
X147290000Y-89321000D02*
X151090000Y-85721000D01*
X142790000Y-87021000D02*
X142790000Y-88471000D01*
X142790000Y-88471000D02*
X143690000Y-89321000D01*
X147290000Y-80421000D02*
X151090000Y-84021000D01*
X129090000Y-87021000D02*
X142790000Y-87021000D01*
X143690000Y-89321000D02*
X147290000Y-89321000D01*
X129090000Y-80421000D02*
X129090000Y-87021000D01*
X151090000Y-84021000D02*
X151090000Y-85721000D01*
X107090000Y-80421000D02*
X125290000Y-80421000D01*
X125290000Y-89321000D02*
X129090000Y-85721000D01*
X120790000Y-87021000D02*
X120790000Y-88471000D01*
X120790000Y-88471000D02*
X121690000Y-89321000D01*
X125290000Y-80421000D02*
X129090000Y-84021000D01*
X107090000Y-87021000D02*
X120790000Y-87021000D01*
X121690000Y-89321000D02*
X125290000Y-89321000D01*
X107090000Y-80421000D02*
X107090000Y-87021000D01*
X129090000Y-84021000D02*
X129090000Y-85721000D01*
X85090000Y-80421000D02*
X103290000Y-80421000D01*
X103290000Y-89321000D02*
X107090000Y-85721000D01*
X98790000Y-87021000D02*
X98790000Y-88471000D01*
X98790000Y-88471000D02*
X99690000Y-89321000D01*
X103290000Y-80421000D02*
X107090000Y-84021000D01*
X85090000Y-87021000D02*
X98790000Y-87021000D01*
X99690000Y-89321000D02*
X103290000Y-89321000D01*
X85090000Y-80421000D02*
X85090000Y-87021000D01*
X107090000Y-84021000D02*
X107090000Y-85721000D01*
X151090000Y-71521000D02*
X169290000Y-71521000D01*
X169290000Y-80421000D02*
X173090000Y-76821000D01*
X164790000Y-78121000D02*
X164790000Y-79571000D01*
X164790000Y-79571000D02*
X165690000Y-80421000D01*
X169290000Y-71521000D02*
X173090000Y-75121000D01*
X151090000Y-78121000D02*
X164790000Y-78121000D01*
X165690000Y-80421000D02*
X169290000Y-80421000D01*
X151090000Y-71521000D02*
X151090000Y-78121000D01*
X173090000Y-75121000D02*
X173090000Y-76821000D01*
X129090000Y-71521000D02*
X147290000Y-71521000D01*
X147290000Y-80421000D02*
X151090000Y-76821000D01*
X142790000Y-78121000D02*
X142790000Y-79571000D01*
X142790000Y-79571000D02*
X143690000Y-80421000D01*
X147290000Y-71521000D02*
X151090000Y-75121000D01*
X129090000Y-78121000D02*
X142790000Y-78121000D01*
X143690000Y-80421000D02*
X147290000Y-80421000D01*
X129090000Y-71521000D02*
X129090000Y-78121000D01*
X151090000Y-75121000D02*
X151090000Y-76821000D01*
X107090000Y-71521000D02*
X125290000Y-71521000D01*
X125290000Y-80421000D02*
X129090000Y-76821000D01*
X120790000Y-78121000D02*
X120790000Y-79571000D01*
X120790000Y-79571000D02*
X121690000Y-80421000D01*
X125290000Y-71521000D02*
X129090000Y-75121000D01*
X107090000Y-78121000D02*
X120790000Y-78121000D01*
X121690000Y-80421000D02*
X125290000Y-80421000D01*
X107090000Y-71521000D02*
X107090000Y-78121000D01*
X129090000Y-75121000D02*
X129090000Y-76821000D01*
X85090000Y-71521000D02*
X103290000Y-71521000D01*
X103290000Y-80421000D02*
X107090000Y-76821000D01*
X98790000Y-78121000D02*
X98790000Y-79571000D01*
X98790000Y-79571000D02*
X99690000Y-80421000D01*
X103290000Y-71521000D02*
X107090000Y-75121000D01*
X85090000Y-78121000D02*
X98790000Y-78121000D01*
X99690000Y-80421000D02*
X103290000Y-80421000D01*
X85090000Y-71521000D02*
X85090000Y-78121000D01*
X107090000Y-75121000D02*
X107090000Y-76821000D01*
X151090000Y-62621000D02*
X169290000Y-62621000D01*
X169290000Y-71521000D02*
X173090000Y-67921000D01*
X164790000Y-69221000D02*
X164790000Y-70671000D01*
X164790000Y-70671000D02*
X165690000Y-71521000D01*
X169290000Y-62621000D02*
X173090000Y-66221000D01*
X151090000Y-69221000D02*
X164790000Y-69221000D01*
X165690000Y-71521000D02*
X169290000Y-71521000D01*
X151090000Y-62621000D02*
X151090000Y-69221000D01*
X173090000Y-66221000D02*
X173090000Y-67921000D01*
X129090000Y-62621000D02*
X147290000Y-62621000D01*
X147290000Y-71521000D02*
X151090000Y-67921000D01*
X142790000Y-69221000D02*
X142790000Y-70671000D01*
X142790000Y-70671000D02*
X143690000Y-71521000D01*
X147290000Y-62621000D02*
X151090000Y-66221000D01*
X129090000Y-69221000D02*
X142790000Y-69221000D01*
X143690000Y-71521000D02*
X147290000Y-71521000D01*
X129090000Y-62621000D02*
X129090000Y-69221000D01*
X151090000Y-66221000D02*
X151090000Y-67921000D01*
X107090000Y-62621000D02*
X125290000Y-62621000D01*
X125290000Y-71521000D02*
X129090000Y-67921000D01*
X120790000Y-69221000D02*
X120790000Y-70671000D01*
X120790000Y-70671000D02*
X121690000Y-71521000D01*
X125290000Y-62621000D02*
X129090000Y-66221000D01*
X107090000Y-69221000D02*
X120790000Y-69221000D01*
X121690000Y-71521000D02*
X125290000Y-71521000D01*
X107090000Y-62621000D02*
X107090000Y-69221000D01*
X129090000Y-66221000D02*
X129090000Y-67921000D01*
X85090000Y-62621000D02*
X103290000Y-62621000D01*
X103290000Y-71521000D02*
X107090000Y-67921000D01*
X98790000Y-69221000D02*
X98790000Y-70671000D01*
X98790000Y-70671000D02*
X99690000Y-71521000D01*
X103290000Y-62621000D02*
X107090000Y-66221000D01*
X85090000Y-69221000D02*
X98790000Y-69221000D01*
X99690000Y-71521000D02*
X103290000Y-71521000D01*
X85090000Y-62621000D02*
X85090000Y-69221000D01*
X107090000Y-66221000D02*
X107090000Y-67921000D01*
X151090000Y-53721000D02*
X169290000Y-53721000D01*
X169290000Y-62621000D02*
X173090000Y-59021000D01*
X164790000Y-60321000D02*
X164790000Y-61771000D01*
X164790000Y-61771000D02*
X165690000Y-62621000D01*
X169290000Y-53721000D02*
X173090000Y-57321000D01*
X151090000Y-60321000D02*
X164790000Y-60321000D01*
X165690000Y-62621000D02*
X169290000Y-62621000D01*
X151090000Y-53721000D02*
X151090000Y-60321000D01*
X173090000Y-57321000D02*
X173090000Y-59021000D01*
X129090000Y-53721000D02*
X147290000Y-53721000D01*
X147290000Y-62621000D02*
X151090000Y-59021000D01*
X142790000Y-60321000D02*
X142790000Y-61771000D01*
X142790000Y-61771000D02*
X143690000Y-62621000D01*
X147290000Y-53721000D02*
X151090000Y-57321000D01*
X129090000Y-60321000D02*
X142790000Y-60321000D01*
X143690000Y-62621000D02*
X147290000Y-62621000D01*
X129090000Y-53721000D02*
X129090000Y-60321000D01*
X151090000Y-57321000D02*
X151090000Y-59021000D01*
X107090000Y-53721000D02*
X125290000Y-53721000D01*
X125290000Y-62621000D02*
X129090000Y-59021000D01*
X120790000Y-60321000D02*
X120790000Y-61771000D01*
X120790000Y-61771000D02*
X121690000Y-62621000D01*
X125290000Y-53721000D02*
X129090000Y-57321000D01*
X107090000Y-60321000D02*
X120790000Y-60321000D01*
X121690000Y-62621000D02*
X125290000Y-62621000D01*
X107090000Y-53721000D02*
X107090000Y-60321000D01*
X129090000Y-57321000D02*
X129090000Y-59021000D01*
X85090000Y-53721000D02*
X103290000Y-53721000D01*
X103290000Y-62621000D02*
X107090000Y-59021000D01*
X85090000Y-53721000D02*
X85090000Y-60321000D01*
X98790000Y-60321000D02*
X98790000Y-61771000D01*
X99690000Y-62621000D02*
X103290000Y-62621000D01*
X103290000Y-53721000D02*
X107090000Y-57321000D01*
X98790000Y-61771000D02*
X99690000Y-62621000D01*
X107090000Y-57321000D02*
X107090000Y-59021000D01*
X85090000Y-60321000D02*
X98790000Y-60321000D01*
M02*
