M48
; DRILL file {KiCad 6.0.11-2627ca5db0~126~ubuntu20.04.1} date dom 03 nov 2024 19:09:35
; FORMAT={-:-/ absolute / metric / decimal}
; #@! TF.CreationDate,2024-11-03T19:09:35-05:00
; #@! TF.GenerationSoftware,Kicad,Pcbnew,6.0.11-2627ca5db0~126~ubuntu20.04.1
; #@! TF.FileFunction,Plated,1,2,PTH
FMAT,2
METRIC
; #@! TA.AperFunction,Plated,PTH,ComponentDrill
T1C0.700
; #@! TA.AperFunction,Plated,PTH,ComponentDrill
T2C1.200
%
G90
G05
T2
X68.428Y-68.412
X68.428Y-90.812
X68.428Y-113.212
X68.428Y-135.612
X71.928Y-68.412
X71.928Y-90.812
X71.928Y-113.212
X71.928Y-135.612
X78.228Y-68.412
X78.228Y-90.812
X78.228Y-113.212
X78.228Y-135.612
X81.728Y-68.412
X81.728Y-90.812
X81.728Y-113.212
X81.728Y-135.612
X88.028Y-68.412
X88.028Y-90.812
X88.028Y-113.212
X88.028Y-135.612
X91.528Y-68.412
X91.528Y-90.812
X91.528Y-113.212
X91.528Y-135.612
X97.828Y-68.412
X97.828Y-90.812
X97.828Y-113.212
X97.828Y-135.612
X101.328Y-68.412
X101.328Y-90.812
X101.328Y-113.212
X101.328Y-135.612
X107.628Y-68.412
X107.628Y-90.812
X107.628Y-113.212
X107.628Y-135.612
X111.128Y-68.412
X111.128Y-90.812
X111.128Y-113.212
X111.128Y-135.612
X117.428Y-68.412
X117.428Y-90.812
X117.428Y-113.212
X117.428Y-135.612
X120.928Y-68.412
X120.928Y-90.812
X120.928Y-113.212
X120.928Y-135.612
X127.228Y-68.412
X127.228Y-90.812
X127.228Y-113.212
X127.228Y-135.612
X130.728Y-68.412
X130.728Y-90.812
X130.728Y-113.212
X130.728Y-135.612
X137.028Y-68.412
X137.028Y-90.812
X137.028Y-113.212
X137.028Y-135.612
X140.528Y-68.412
X140.528Y-90.812
X140.528Y-113.212
X140.528Y-135.612
X146.828Y-68.412
X146.828Y-90.812
X146.828Y-113.212
X146.828Y-135.612
X150.328Y-68.412
X150.328Y-90.812
X150.328Y-113.212
X150.328Y-135.612
X156.628Y-68.412
X156.628Y-90.812
X156.628Y-113.212
X156.628Y-135.612
X160.128Y-68.412
X160.128Y-90.812
X160.128Y-113.212
X160.128Y-135.612
T1
G00X66.538Y-52.031
M15
G01X66.538Y-54.331
M16
G05
G00X66.538Y-74.431
M15
G01X66.538Y-76.731
M16
G05
G00X66.538Y-96.831
M15
G01X66.538Y-99.131
M16
G05
G00X66.538Y-119.231
M15
G01X66.538Y-121.531
M16
G05
G00X70.388Y-58.481
M15
G01X68.088Y-58.481
M16
G05
G00X70.388Y-80.881
M15
G01X68.088Y-80.881
M16
G05
G00X70.388Y-103.281
M15
G01X68.088Y-103.281
M16
G05
G00X70.388Y-125.681
M15
G01X68.088Y-125.681
M16
G05
G00X71.588Y-55.381
M15
G01X73.888Y-55.381
M16
G05
G00X71.588Y-77.781
M15
G01X73.888Y-77.781
M16
G05
G00X71.588Y-100.181
M15
G01X73.888Y-100.181
M16
G05
G00X71.588Y-122.581
M15
G01X73.888Y-122.581
M16
G05
G00X76.338Y-52.031
M15
G01X76.338Y-54.331
M16
G05
G00X76.338Y-74.431
M15
G01X76.338Y-76.731
M16
G05
G00X76.338Y-96.831
M15
G01X76.338Y-99.131
M16
G05
G00X76.338Y-119.231
M15
G01X76.338Y-121.531
M16
G05
G00X80.188Y-58.481
M15
G01X77.888Y-58.481
M16
G05
G00X80.188Y-80.881
M15
G01X77.888Y-80.881
M16
G05
G00X80.188Y-103.281
M15
G01X77.888Y-103.281
M16
G05
G00X80.188Y-125.681
M15
G01X77.888Y-125.681
M16
G05
G00X81.388Y-55.381
M15
G01X83.688Y-55.381
M16
G05
G00X81.388Y-77.781
M15
G01X83.688Y-77.781
M16
G05
G00X81.388Y-100.181
M15
G01X83.688Y-100.181
M16
G05
G00X81.388Y-122.581
M15
G01X83.688Y-122.581
M16
G05
G00X86.138Y-52.031
M15
G01X86.138Y-54.331
M16
G05
G00X86.138Y-74.431
M15
G01X86.138Y-76.731
M16
G05
G00X86.138Y-96.831
M15
G01X86.138Y-99.131
M16
G05
G00X86.138Y-119.231
M15
G01X86.138Y-121.531
M16
G05
G00X89.988Y-58.481
M15
G01X87.688Y-58.481
M16
G05
G00X89.988Y-80.881
M15
G01X87.688Y-80.881
M16
G05
G00X89.988Y-103.281
M15
G01X87.688Y-103.281
M16
G05
G00X89.988Y-125.681
M15
G01X87.688Y-125.681
M16
G05
G00X91.188Y-55.381
M15
G01X93.488Y-55.381
M16
G05
G00X91.188Y-77.781
M15
G01X93.488Y-77.781
M16
G05
G00X91.188Y-100.181
M15
G01X93.488Y-100.181
M16
G05
G00X91.188Y-122.581
M15
G01X93.488Y-122.581
M16
G05
G00X95.938Y-52.031
M15
G01X95.938Y-54.331
M16
G05
G00X95.938Y-74.431
M15
G01X95.938Y-76.731
M16
G05
G00X95.938Y-96.831
M15
G01X95.938Y-99.131
M16
G05
G00X95.938Y-119.231
M15
G01X95.938Y-121.531
M16
G05
G00X99.788Y-58.481
M15
G01X97.488Y-58.481
M16
G05
G00X99.788Y-80.881
M15
G01X97.488Y-80.881
M16
G05
G00X99.788Y-103.281
M15
G01X97.488Y-103.281
M16
G05
G00X99.788Y-125.681
M15
G01X97.488Y-125.681
M16
G05
G00X100.988Y-55.381
M15
G01X103.288Y-55.381
M16
G05
G00X100.988Y-77.781
M15
G01X103.288Y-77.781
M16
G05
G00X100.988Y-100.181
M15
G01X103.288Y-100.181
M16
G05
G00X100.988Y-122.581
M15
G01X103.288Y-122.581
M16
G05
G00X105.738Y-52.031
M15
G01X105.738Y-54.331
M16
G05
G00X105.738Y-74.431
M15
G01X105.738Y-76.731
M16
G05
G00X105.738Y-96.831
M15
G01X105.738Y-99.131
M16
G05
G00X105.738Y-119.231
M15
G01X105.738Y-121.531
M16
G05
G00X109.588Y-58.481
M15
G01X107.288Y-58.481
M16
G05
G00X109.588Y-80.881
M15
G01X107.288Y-80.881
M16
G05
G00X109.588Y-103.281
M15
G01X107.288Y-103.281
M16
G05
G00X109.588Y-125.681
M15
G01X107.288Y-125.681
M16
G05
G00X110.788Y-55.381
M15
G01X113.088Y-55.381
M16
G05
G00X110.788Y-77.781
M15
G01X113.088Y-77.781
M16
G05
G00X110.788Y-100.181
M15
G01X113.088Y-100.181
M16
G05
G00X110.788Y-122.581
M15
G01X113.088Y-122.581
M16
G05
G00X115.538Y-52.031
M15
G01X115.538Y-54.331
M16
G05
G00X115.538Y-74.431
M15
G01X115.538Y-76.731
M16
G05
G00X115.538Y-96.831
M15
G01X115.538Y-99.131
M16
G05
G00X115.538Y-119.231
M15
G01X115.538Y-121.531
M16
G05
G00X119.388Y-58.481
M15
G01X117.088Y-58.481
M16
G05
G00X119.388Y-80.881
M15
G01X117.088Y-80.881
M16
G05
G00X119.388Y-103.281
M15
G01X117.088Y-103.281
M16
G05
G00X119.388Y-125.681
M15
G01X117.088Y-125.681
M16
G05
G00X120.588Y-55.381
M15
G01X122.888Y-55.381
M16
G05
G00X120.588Y-77.781
M15
G01X122.888Y-77.781
M16
G05
G00X120.588Y-100.181
M15
G01X122.888Y-100.181
M16
G05
G00X120.588Y-122.581
M15
G01X122.888Y-122.581
M16
G05
G00X125.338Y-52.031
M15
G01X125.338Y-54.331
M16
G05
G00X125.338Y-74.431
M15
G01X125.338Y-76.731
M16
G05
G00X125.338Y-96.831
M15
G01X125.338Y-99.131
M16
G05
G00X125.338Y-119.231
M15
G01X125.338Y-121.531
M16
G05
G00X129.188Y-58.481
M15
G01X126.888Y-58.481
M16
G05
G00X129.188Y-80.881
M15
G01X126.888Y-80.881
M16
G05
G00X129.188Y-103.281
M15
G01X126.888Y-103.281
M16
G05
G00X129.188Y-125.681
M15
G01X126.888Y-125.681
M16
G05
G00X130.388Y-55.381
M15
G01X132.688Y-55.381
M16
G05
G00X130.388Y-77.781
M15
G01X132.688Y-77.781
M16
G05
G00X130.388Y-100.181
M15
G01X132.688Y-100.181
M16
G05
G00X130.388Y-122.581
M15
G01X132.688Y-122.581
M16
G05
G00X135.138Y-52.031
M15
G01X135.138Y-54.331
M16
G05
G00X135.138Y-74.431
M15
G01X135.138Y-76.731
M16
G05
G00X135.138Y-96.831
M15
G01X135.138Y-99.131
M16
G05
G00X135.138Y-119.231
M15
G01X135.138Y-121.531
M16
G05
G00X138.988Y-58.481
M15
G01X136.688Y-58.481
M16
G05
G00X138.988Y-80.881
M15
G01X136.688Y-80.881
M16
G05
G00X138.988Y-103.281
M15
G01X136.688Y-103.281
M16
G05
G00X138.988Y-125.681
M15
G01X136.688Y-125.681
M16
G05
G00X140.188Y-55.381
M15
G01X142.488Y-55.381
M16
G05
G00X140.188Y-77.781
M15
G01X142.488Y-77.781
M16
G05
G00X140.188Y-100.181
M15
G01X142.488Y-100.181
M16
G05
G00X140.188Y-122.581
M15
G01X142.488Y-122.581
M16
G05
G00X144.938Y-52.031
M15
G01X144.938Y-54.331
M16
G05
G00X144.938Y-74.431
M15
G01X144.938Y-76.731
M16
G05
G00X144.938Y-96.831
M15
G01X144.938Y-99.131
M16
G05
G00X144.938Y-119.231
M15
G01X144.938Y-121.531
M16
G05
G00X148.788Y-58.481
M15
G01X146.488Y-58.481
M16
G05
G00X148.788Y-80.881
M15
G01X146.488Y-80.881
M16
G05
G00X148.788Y-103.281
M15
G01X146.488Y-103.281
M16
G05
G00X148.788Y-125.681
M15
G01X146.488Y-125.681
M16
G05
G00X149.988Y-55.381
M15
G01X152.288Y-55.381
M16
G05
G00X149.988Y-77.781
M15
G01X152.288Y-77.781
M16
G05
G00X149.988Y-100.181
M15
G01X152.288Y-100.181
M16
G05
G00X149.988Y-122.581
M15
G01X152.288Y-122.581
M16
G05
G00X154.738Y-52.031
M15
G01X154.738Y-54.331
M16
G05
G00X154.738Y-74.431
M15
G01X154.738Y-76.731
M16
G05
G00X154.738Y-96.831
M15
G01X154.738Y-99.131
M16
G05
G00X154.738Y-119.231
M15
G01X154.738Y-121.531
M16
G05
G00X158.588Y-58.481
M15
G01X156.288Y-58.481
M16
G05
G00X158.588Y-80.881
M15
G01X156.288Y-80.881
M16
G05
G00X158.588Y-103.281
M15
G01X156.288Y-103.281
M16
G05
G00X158.588Y-125.681
M15
G01X156.288Y-125.681
M16
G05
G00X159.788Y-55.381
M15
G01X162.088Y-55.381
M16
G05
G00X159.788Y-77.781
M15
G01X162.088Y-77.781
M16
G05
G00X159.788Y-100.181
M15
G01X162.088Y-100.181
M16
G05
G00X159.788Y-122.581
M15
G01X162.088Y-122.581
M16
G05
T0
M30
