%TF.GenerationSoftware,KiCad,Pcbnew,6.0.11-2627ca5db0~126~ubuntu20.04.1*%
%TF.CreationDate,2024-11-03T18:58:30-05:00*%
%TF.ProjectId,barrel-panel-3p-5mm5x2mm1-to-screw-3mm5,62617272-656c-42d7-9061-6e656c2d3370,rev?*%
%TF.SameCoordinates,Original*%
%TF.FileFunction,Copper,L2,Bot*%
%TF.FilePolarity,Positive*%
%FSLAX46Y46*%
G04 Gerber Fmt 4.6, Leading zero omitted, Abs format (unit mm)*
G04 Created by KiCad (PCBNEW 6.0.11-2627ca5db0~126~ubuntu20.04.1) date 2024-11-03 18:58:30*
%MOMM*%
%LPD*%
G01*
G04 APERTURE LIST*
%TA.AperFunction,Profile*%
%ADD10C,0.100000*%
%TD*%
%TA.AperFunction,ComponentPad*%
%ADD11R,1.700000X4.000000*%
%TD*%
%TA.AperFunction,ComponentPad*%
%ADD12O,4.000000X1.700000*%
%TD*%
%TA.AperFunction,ComponentPad*%
%ADD13R,2.400000X2.400000*%
%TD*%
%TA.AperFunction,ComponentPad*%
%ADD14C,2.400000*%
%TD*%
%TA.AperFunction,Conductor*%
%ADD15C,0.500000*%
%TD*%
G04 APERTURE END LIST*
D10*
X101100000Y-100000000D02*
X107700000Y-100000000D01*
X108200000Y-107000000D02*
X109800000Y-106000000D01*
X100000000Y-101100000D02*
X100000000Y-106000000D01*
X101600000Y-122400000D02*
X108200000Y-122400000D01*
X100000000Y-106000000D02*
X101600000Y-107000000D01*
X107700000Y-100000000D02*
X109800000Y-102100000D01*
X101100000Y-100000000D02*
X100000000Y-101100000D01*
X109800000Y-102100000D02*
X109800000Y-106000000D01*
X108200000Y-107000000D02*
X108200000Y-122400000D01*
X101600000Y-107000000D02*
X101600000Y-122400000D01*
D11*
%TO.P,J1,1*%
%TO.N,Net-(J1-Pad1)*%
X101260000Y-103100000D03*
D12*
%TO.P,J1,2*%
%TO.N,Net-(J1-Pad2)*%
X103960000Y-108400000D03*
%TO.P,J1,3*%
%TO.N,unconnected-(J1-Pad3)*%
X107460000Y-105300000D03*
%TD*%
D13*
%TO.P,J2,1,Pin_1*%
%TO.N,Net-(J1-Pad1)*%
X106650000Y-118331000D03*
D14*
%TO.P,J2,2,Pin_2*%
%TO.N,Net-(J1-Pad2)*%
X103150000Y-118331000D03*
%TD*%
D15*
%TO.N,Net-(J1-Pad1)*%
X106650000Y-118331000D02*
X106650000Y-110012000D01*
X106650000Y-110012000D02*
X107315000Y-109347000D01*
X107315000Y-109347000D02*
X107315000Y-107823000D01*
X107315000Y-107823000D02*
X106299000Y-106807000D01*
X106299000Y-106807000D02*
X105219500Y-106807000D01*
X105219500Y-106807000D02*
X103949500Y-105537000D01*
X103949500Y-105537000D02*
X102616000Y-105537000D01*
X102616000Y-105537000D02*
X101260000Y-104181000D01*
X101260000Y-104181000D02*
X101260000Y-103100000D01*
%TO.N,Net-(J1-Pad2)*%
X103150000Y-118331000D02*
X103150000Y-109210000D01*
X103150000Y-109210000D02*
X103960000Y-108400000D01*
X103124000Y-118305000D02*
X103150000Y-118331000D01*
%TO.N,Net-(J1-Pad1)*%
X101260000Y-103100000D02*
X100584000Y-103776000D01*
%TD*%
M02*
