<?xml version="1.0" standalone="no"?>
 <!DOCTYPE svg PUBLIC "-//W3C//DTD SVG 1.1//EN" 
 "http://www.w3.org/Graphics/SVG/1.1/DTD/svg11.dtd"> 
<svg
  xmlns:svg="http://www.w3.org/2000/svg"
  xmlns="http://www.w3.org/2000/svg"
  xmlns:xlink="http://www.w3.org/1999/xlink"
  version="1.1"
  width="29.700220cm" height="21.000720cm" viewBox="0 0 297002200 210007200">
<title>SVG Picture created as barrel-panel-3p-5mm5x2mm1-to-screw-3mm5-B_Silkscreen.svg date 2024/11/03 12:49:41 </title>
  <desc>Picture generated by PCBNEW </desc>
<g style="fill:#000000; fill-opacity:1.000000;stroke:#000000; stroke-opacity:1.000000;
stroke-linecap:round; stroke-linejoin:round;"
 transform="translate(0 0) scale(1 1)">
</g>
<g style="fill:#000000; fill-opacity:0.0; 
stroke:#000000; stroke-width:0.000000; stroke-opacity:1; 
stroke-linecap:round; stroke-linejoin:round;">
</g>
<g style="fill:#000000; fill-opacity:0.0; 
stroke:#000000; stroke-width:100000.000000; stroke-opacity:1; 
stroke-linecap:round; stroke-linejoin:round;">
<path d="M108700000 100000000
L109800000 101100000
" />
<path d="M101100000 100000000
L100000000 101100000
" />
<path d="M109800000 101100000
L109800000 106000000
" />
<path d="M100000000 101100000
L100000000 106000000
" />
<path d="M101100000 100000000
L108700000 100000000
" />
<path d="M108800000 109200000
L109800000 106000000
" />
<path d="M100000000 106000000
L101000000 109200000
" />
<path d="M108800000 109200000
L108800000 122400000
" />
<path d="M101000000 109200000
L101000000 122400000
" />
<path d="M101000000 122400000
L108800000 122400000
" />
</g>
<g style="fill:#000000; fill-opacity:1.0; 
stroke:#000000; stroke-width:1.000000; stroke-opacity:1; 
stroke-linecap:round; stroke-linejoin:round;">
<circle cx="102870000.000000" cy="113411000.000000" r="358981.000000" /> 
</g>
<g style="fill:#000000; fill-opacity:0.0; 
stroke:#000000; stroke-width:150000.000000; stroke-opacity:1; 
stroke-linecap:round; stroke-linejoin:round;">
<circle cx="106426000.000000" cy="113411000.000000" r="635000.000000" /> 
<text x="104648000.000000" y="113911000.000000"
transform="scale(-1 1) translate(-209296000.000000 0)"
textLength="1519286.000000" font-size="1333333.000000" lengthAdjust="spacingAndGlyphs"
text-anchor="middle" opacity="0">J2</text>
<g class="stroked-text"><desc>J2</desc>
<path d="M104981333 112863380
L104981333 113577666
L105028952 113720523
L105124190 113815761
L105267047 113863380
L105362285 113863380
" />
<path d="M104552761 112958619
L104505142 112911000
L104409904 112863380
L104171809 112863380
L104076571 112911000
L104028952 112958619
L103981333 113053857
L103981333 113149095
L104028952 113291952
L104600380 113863380
L103981333 113863380
" />
</g></g>
<g style="fill:#000000; fill-opacity:0.0; 
stroke:#000000; stroke-width:120000.000000; stroke-opacity:1; 
stroke-linecap:round; stroke-linejoin:round;">
<path d="M109050000 120491000
L109050000 122231000
" />
<path d="M108810000 114871000
L108810000 121991000
" />
<path d="M100990000 114871000
L100990000 121991000
" />
<path d="M109050000 122231000
L107550000 122231000
" />
<path d="M108810000 120431000
L100990000 120431000
" />
<path d="M108810000 121991000
L100990000 121991000
" />
<path d="M108810000 114871000
L100990000 114871000
" />
<path d="M105217891.148428 117723258.062988 A1555730.000000 1555730.000000 0.0 0 0 105217999.864837 118939000.057387" />
<path d="M106042412.997587 119762385.005685 A1555000.000000 1555000.000000 0.0 0 0 106650000.000000 119886000.000000" />
<path d="M108082108.991741 118938741.996495 A1555727.000000 1555727.000000 0.0 0 0 108081999.555816 117723000.188592" />
<path d="M107257741.996495 116898891.008259 A1555727.000000 1555727.000000 0.0 0 0 106042000.188592 116899000.444184" />
<path d="M106622988.992025 119886493.459245 A1555716.000000 1555716.000000 0.0 0 0 107258000.134714 119763000.317285" />
<circle cx="103150000.000000" cy="118331000.000000" r="1555000.000000" /> 
<g >
</g>
<g >
</g>
<g >
</g>
<g >
</g>
<g >
</g>
</g>
<g style="fill:#FFFFFF; fill-opacity:0.0; 
stroke:#FFFFFF; stroke-width:120000.000000; stroke-opacity:1; 
stroke-linecap:round; stroke-linejoin:round;">
</g>
<g style="fill:#FFFFFF; fill-opacity:0.0; 
stroke:#FFFFFF; stroke-width:700000.000000; stroke-opacity:1; 
stroke-linecap:round; stroke-linejoin:round;">
<path d="M101260000 101950000
L101260000 104250000
" />
<path d="M105110000 108400000
L102810000 108400000
" />
<path d="M106310000 105300000
L108610000 105300000
" />
</g>
<g style="fill:#FFFFFF; fill-opacity:1.0; 
stroke:#FFFFFF; stroke-width:1.000000; stroke-opacity:1; 
stroke-linecap:round; stroke-linejoin:round;">
<circle cx="106650000.000000" cy="118331000.000000" r="600000.000000" /> 
</g>
<g style="fill:#FFFFFF; fill-opacity:1.0; 
stroke:#FFFFFF; stroke-width:21200.000000; stroke-opacity:1; 
stroke-linecap:round; stroke-linejoin:round;">
</g>
<g style="fill:#FFFFFF; fill-opacity:1.0; 
stroke:#FFFFFF; stroke-width:1.000000; stroke-opacity:1; 
stroke-linecap:round; stroke-linejoin:round;">
<circle cx="103150000.000000" cy="118331000.000000" r="600000.000000" /> 
</g>
<g style="fill:#FFFFFF; fill-opacity:1.0; 
stroke:#FFFFFF; stroke-width:21200.000000; stroke-opacity:1; 
stroke-linecap:round; stroke-linejoin:round;">
</g>
<g style="fill:#000000; fill-opacity:1.0; 
stroke:#000000; stroke-width:21200.000000; stroke-opacity:1; 
stroke-linecap:round; stroke-linejoin:round;">
</g> 
</svg>
