%TF.GenerationSoftware,KiCad,Pcbnew,6.0.11-2627ca5db0~126~ubuntu20.04.1*%
%TF.CreationDate,2024-11-03T18:58:31-05:00*%
%TF.ProjectId,barrel-panel-3p-5mm5x2mm1-to-screw-3mm5,62617272-656c-42d7-9061-6e656c2d3370,rev?*%
%TF.SameCoordinates,Original*%
%TF.FileFunction,Legend,Top*%
%TF.FilePolarity,Positive*%
%FSLAX46Y46*%
G04 Gerber Fmt 4.6, Leading zero omitted, Abs format (unit mm)*
G04 Created by KiCad (PCBNEW 6.0.11-2627ca5db0~126~ubuntu20.04.1) date 2024-11-03 18:58:31*
%MOMM*%
%LPD*%
G01*
G04 APERTURE LIST*
%ADD10C,0.175000*%
%ADD11C,0.150000*%
%ADD12C,0.358981*%
%TA.AperFunction,Profile*%
%ADD13C,0.100000*%
%TD*%
%ADD14C,0.120000*%
%ADD15C,0.260000*%
G04 APERTURE END LIST*
D10*
X102968666Y-120211166D02*
X103402000Y-120211166D01*
X103168666Y-120477833D01*
X103268666Y-120477833D01*
X103335333Y-120511166D01*
X103368666Y-120544500D01*
X103402000Y-120611166D01*
X103402000Y-120777833D01*
X103368666Y-120844500D01*
X103335333Y-120877833D01*
X103268666Y-120911166D01*
X103068666Y-120911166D01*
X103002000Y-120877833D01*
X102968666Y-120844500D01*
X103702000Y-120844500D02*
X103735333Y-120877833D01*
X103702000Y-120911166D01*
X103668666Y-120877833D01*
X103702000Y-120844500D01*
X103702000Y-120911166D01*
X104368666Y-120211166D02*
X104035333Y-120211166D01*
X104002000Y-120544500D01*
X104035333Y-120511166D01*
X104102000Y-120477833D01*
X104268666Y-120477833D01*
X104335333Y-120511166D01*
X104368666Y-120544500D01*
X104402000Y-120611166D01*
X104402000Y-120777833D01*
X104368666Y-120844500D01*
X104335333Y-120877833D01*
X104268666Y-120911166D01*
X104102000Y-120911166D01*
X104035333Y-120877833D01*
X104002000Y-120844500D01*
X105235333Y-120911166D02*
X105235333Y-120444500D01*
X105235333Y-120511166D02*
X105268666Y-120477833D01*
X105335333Y-120444500D01*
X105435333Y-120444500D01*
X105502000Y-120477833D01*
X105535333Y-120544500D01*
X105535333Y-120911166D01*
X105535333Y-120544500D02*
X105568666Y-120477833D01*
X105635333Y-120444500D01*
X105735333Y-120444500D01*
X105802000Y-120477833D01*
X105835333Y-120544500D01*
X105835333Y-120911166D01*
X106168666Y-120911166D02*
X106168666Y-120444500D01*
X106168666Y-120511166D02*
X106202000Y-120477833D01*
X106268666Y-120444500D01*
X106368666Y-120444500D01*
X106435333Y-120477833D01*
X106468666Y-120544500D01*
X106468666Y-120911166D01*
X106468666Y-120544500D02*
X106502000Y-120477833D01*
X106568666Y-120444500D01*
X106668666Y-120444500D01*
X106735333Y-120477833D01*
X106768666Y-120544500D01*
X106768666Y-120911166D01*
X102118666Y-122004833D02*
X102185333Y-122038166D01*
X102318666Y-122038166D01*
X102385333Y-122004833D01*
X102418666Y-121938166D01*
X102418666Y-121904833D01*
X102385333Y-121838166D01*
X102318666Y-121804833D01*
X102218666Y-121804833D01*
X102152000Y-121771500D01*
X102118666Y-121704833D01*
X102118666Y-121671500D01*
X102152000Y-121604833D01*
X102218666Y-121571500D01*
X102318666Y-121571500D01*
X102385333Y-121604833D01*
X103018666Y-122004833D02*
X102952000Y-122038166D01*
X102818666Y-122038166D01*
X102752000Y-122004833D01*
X102718666Y-121971500D01*
X102685333Y-121904833D01*
X102685333Y-121704833D01*
X102718666Y-121638166D01*
X102752000Y-121604833D01*
X102818666Y-121571500D01*
X102952000Y-121571500D01*
X103018666Y-121604833D01*
X103318666Y-122038166D02*
X103318666Y-121571500D01*
X103318666Y-121704833D02*
X103352000Y-121638166D01*
X103385333Y-121604833D01*
X103452000Y-121571500D01*
X103518666Y-121571500D01*
X104018666Y-122004833D02*
X103952000Y-122038166D01*
X103818666Y-122038166D01*
X103752000Y-122004833D01*
X103718666Y-121938166D01*
X103718666Y-121671500D01*
X103752000Y-121604833D01*
X103818666Y-121571500D01*
X103952000Y-121571500D01*
X104018666Y-121604833D01*
X104052000Y-121671500D01*
X104052000Y-121738166D01*
X103718666Y-121804833D01*
X104285333Y-121571500D02*
X104418666Y-122038166D01*
X104552000Y-121704833D01*
X104685333Y-122038166D01*
X104818666Y-121571500D01*
X105518666Y-121571500D02*
X105785333Y-121571500D01*
X105618666Y-121338166D02*
X105618666Y-121938166D01*
X105652000Y-122004833D01*
X105718666Y-122038166D01*
X105785333Y-122038166D01*
X106285333Y-122004833D02*
X106218666Y-122038166D01*
X106085333Y-122038166D01*
X106018666Y-122004833D01*
X105985333Y-121938166D01*
X105985333Y-121671500D01*
X106018666Y-121604833D01*
X106085333Y-121571500D01*
X106218666Y-121571500D01*
X106285333Y-121604833D01*
X106318666Y-121671500D01*
X106318666Y-121738166D01*
X105985333Y-121804833D01*
X106618666Y-122038166D02*
X106618666Y-121571500D01*
X106618666Y-121704833D02*
X106652000Y-121638166D01*
X106685333Y-121604833D01*
X106752000Y-121571500D01*
X106818666Y-121571500D01*
X107052000Y-122038166D02*
X107052000Y-121571500D01*
X107052000Y-121638166D02*
X107085333Y-121604833D01*
X107152000Y-121571500D01*
X107252000Y-121571500D01*
X107318666Y-121604833D01*
X107352000Y-121671500D01*
X107352000Y-122038166D01*
X107352000Y-121671500D02*
X107385333Y-121604833D01*
X107452000Y-121571500D01*
X107552000Y-121571500D01*
X107618666Y-121604833D01*
X107652000Y-121671500D01*
X107652000Y-122038166D01*
X102914000Y-101607166D02*
X102914000Y-100907166D01*
X103080666Y-100907166D01*
X103180666Y-100940500D01*
X103247333Y-101007166D01*
X103280666Y-101073833D01*
X103314000Y-101207166D01*
X103314000Y-101307166D01*
X103280666Y-101440500D01*
X103247333Y-101507166D01*
X103180666Y-101573833D01*
X103080666Y-101607166D01*
X102914000Y-101607166D01*
X104014000Y-101540500D02*
X103980666Y-101573833D01*
X103880666Y-101607166D01*
X103814000Y-101607166D01*
X103714000Y-101573833D01*
X103647333Y-101507166D01*
X103614000Y-101440500D01*
X103580666Y-101307166D01*
X103580666Y-101207166D01*
X103614000Y-101073833D01*
X103647333Y-101007166D01*
X103714000Y-100940500D01*
X103814000Y-100907166D01*
X103880666Y-100907166D01*
X103980666Y-100940500D01*
X104014000Y-100973833D01*
X105080666Y-101240500D02*
X105180666Y-101273833D01*
X105214000Y-101307166D01*
X105247333Y-101373833D01*
X105247333Y-101473833D01*
X105214000Y-101540500D01*
X105180666Y-101573833D01*
X105114000Y-101607166D01*
X104847333Y-101607166D01*
X104847333Y-100907166D01*
X105080666Y-100907166D01*
X105147333Y-100940500D01*
X105180666Y-100973833D01*
X105214000Y-101040500D01*
X105214000Y-101107166D01*
X105180666Y-101173833D01*
X105147333Y-101207166D01*
X105080666Y-101240500D01*
X104847333Y-101240500D01*
X105514000Y-101407166D02*
X105847333Y-101407166D01*
X105447333Y-101607166D02*
X105680666Y-100907166D01*
X105914000Y-101607166D01*
X106547333Y-101607166D02*
X106314000Y-101273833D01*
X106147333Y-101607166D02*
X106147333Y-100907166D01*
X106414000Y-100907166D01*
X106480666Y-100940500D01*
X106514000Y-100973833D01*
X106547333Y-101040500D01*
X106547333Y-101140500D01*
X106514000Y-101207166D01*
X106480666Y-101240500D01*
X106414000Y-101273833D01*
X106147333Y-101273833D01*
X107247333Y-101607166D02*
X107014000Y-101273833D01*
X106847333Y-101607166D02*
X106847333Y-100907166D01*
X107114000Y-100907166D01*
X107180666Y-100940500D01*
X107214000Y-100973833D01*
X107247333Y-101040500D01*
X107247333Y-101140500D01*
X107214000Y-101207166D01*
X107180666Y-101240500D01*
X107114000Y-101273833D01*
X106847333Y-101273833D01*
X107547333Y-101240500D02*
X107780666Y-101240500D01*
X107880666Y-101607166D02*
X107547333Y-101607166D01*
X107547333Y-100907166D01*
X107880666Y-100907166D01*
X108514000Y-101607166D02*
X108180666Y-101607166D01*
X108180666Y-100907166D01*
X103280666Y-102034166D02*
X102947333Y-102034166D01*
X102914000Y-102367500D01*
X102947333Y-102334166D01*
X103014000Y-102300833D01*
X103180666Y-102300833D01*
X103247333Y-102334166D01*
X103280666Y-102367500D01*
X103314000Y-102434166D01*
X103314000Y-102600833D01*
X103280666Y-102667500D01*
X103247333Y-102700833D01*
X103180666Y-102734166D01*
X103014000Y-102734166D01*
X102947333Y-102700833D01*
X102914000Y-102667500D01*
X103614000Y-102667500D02*
X103647333Y-102700833D01*
X103614000Y-102734166D01*
X103580666Y-102700833D01*
X103614000Y-102667500D01*
X103614000Y-102734166D01*
X104280666Y-102034166D02*
X103947333Y-102034166D01*
X103914000Y-102367500D01*
X103947333Y-102334166D01*
X104014000Y-102300833D01*
X104180666Y-102300833D01*
X104247333Y-102334166D01*
X104280666Y-102367500D01*
X104314000Y-102434166D01*
X104314000Y-102600833D01*
X104280666Y-102667500D01*
X104247333Y-102700833D01*
X104180666Y-102734166D01*
X104014000Y-102734166D01*
X103947333Y-102700833D01*
X103914000Y-102667500D01*
X104547333Y-102734166D02*
X104914000Y-102267500D01*
X104547333Y-102267500D02*
X104914000Y-102734166D01*
X105147333Y-102100833D02*
X105180666Y-102067500D01*
X105247333Y-102034166D01*
X105414000Y-102034166D01*
X105480666Y-102067500D01*
X105514000Y-102100833D01*
X105547333Y-102167500D01*
X105547333Y-102234166D01*
X105514000Y-102334166D01*
X105114000Y-102734166D01*
X105547333Y-102734166D01*
X105847333Y-102667500D02*
X105880666Y-102700833D01*
X105847333Y-102734166D01*
X105814000Y-102700833D01*
X105847333Y-102667500D01*
X105847333Y-102734166D01*
X106547333Y-102734166D02*
X106147333Y-102734166D01*
X106347333Y-102734166D02*
X106347333Y-102034166D01*
X106280666Y-102134166D01*
X106214000Y-102200833D01*
X106147333Y-102234166D01*
X106847333Y-102734166D02*
X106847333Y-102267500D01*
X106847333Y-102334166D02*
X106880666Y-102300833D01*
X106947333Y-102267500D01*
X107047333Y-102267500D01*
X107114000Y-102300833D01*
X107147333Y-102367500D01*
X107147333Y-102734166D01*
X107147333Y-102367500D02*
X107180666Y-102300833D01*
X107247333Y-102267500D01*
X107347333Y-102267500D01*
X107414000Y-102300833D01*
X107447333Y-102367500D01*
X107447333Y-102734166D01*
X107780666Y-102734166D02*
X107780666Y-102267500D01*
X107780666Y-102334166D02*
X107814000Y-102300833D01*
X107880666Y-102267500D01*
X107980666Y-102267500D01*
X108047333Y-102300833D01*
X108080666Y-102367500D01*
X108080666Y-102734166D01*
X108080666Y-102367500D02*
X108114000Y-102300833D01*
X108180666Y-102267500D01*
X108280666Y-102267500D01*
X108347333Y-102300833D01*
X108380666Y-102367500D01*
X108380666Y-102734166D01*
D11*
X103759000Y-112776000D02*
G75*
G03*
X103759000Y-112776000I-635000J0D01*
G01*
D12*
X106859490Y-112776000D02*
G75*
G03*
X106859490Y-112776000I-179490J0D01*
G01*
D13*
X101100000Y-100000000D02*
X107700000Y-100000000D01*
X108200000Y-107000000D02*
X109800000Y-106000000D01*
X100000000Y-101100000D02*
X100000000Y-106000000D01*
X101600000Y-122400000D02*
X108200000Y-122400000D01*
X100000000Y-106000000D02*
X101600000Y-107000000D01*
X107700000Y-100000000D02*
X109800000Y-102100000D01*
X101100000Y-100000000D02*
X100000000Y-101100000D01*
X109800000Y-102100000D02*
X109800000Y-106000000D01*
X108200000Y-107000000D02*
X108200000Y-122400000D01*
X101600000Y-107000000D02*
X101600000Y-122400000D01*
D11*
%TO.C,J1*%
X105076666Y-98052380D02*
X105076666Y-98766666D01*
X105029047Y-98909523D01*
X104933809Y-99004761D01*
X104790952Y-99052380D01*
X104695714Y-99052380D01*
X106076666Y-99052380D02*
X105505238Y-99052380D01*
X105790952Y-99052380D02*
X105790952Y-98052380D01*
X105695714Y-98195238D01*
X105600476Y-98290476D01*
X105505238Y-98338095D01*
D14*
X102235000Y-105235000D02*
X102235000Y-100950000D01*
X101750000Y-109045000D02*
X101750000Y-107400000D01*
X102235000Y-100950000D02*
X101600000Y-100950000D01*
X101600000Y-105235000D02*
X102235000Y-105235000D01*
X101750000Y-107400000D02*
X106160000Y-107400000D01*
X106160000Y-107400000D02*
X106160000Y-109045000D01*
D15*
X102047500Y-105870000D02*
G75*
G03*
X102047500Y-105870000I-130000J0D01*
G01*
D14*
X107950000Y-108200000D02*
G75*
G03*
X107950000Y-108200000I-635000J0D01*
G01*
%TD*%
M02*
