%TF.GenerationSoftware,KiCad,Pcbnew,6.0.11-2627ca5db0~126~ubuntu20.04.1*%
%TF.CreationDate,2024-11-03T18:58:31-05:00*%
%TF.ProjectId,barrel-panel-3p-5mm5x2mm1-to-screw-3mm5,62617272-656c-42d7-9061-6e656c2d3370,rev?*%
%TF.SameCoordinates,Original*%
%TF.FileFunction,Legend,Bot*%
%TF.FilePolarity,Positive*%
%FSLAX46Y46*%
G04 Gerber Fmt 4.6, Leading zero omitted, Abs format (unit mm)*
G04 Created by KiCad (PCBNEW 6.0.11-2627ca5db0~126~ubuntu20.04.1) date 2024-11-03 18:58:31*
%MOMM*%
%LPD*%
G01*
G04 APERTURE LIST*
%ADD10C,0.175000*%
%ADD11C,0.358981*%
%ADD12C,0.150000*%
%TA.AperFunction,Profile*%
%ADD13C,0.100000*%
%TD*%
%ADD14C,0.120000*%
G04 APERTURE END LIST*
D10*
X108287000Y-102623166D02*
X108287000Y-101923166D01*
X108120333Y-101923166D01*
X108020333Y-101956500D01*
X107953666Y-102023166D01*
X107920333Y-102089833D01*
X107887000Y-102223166D01*
X107887000Y-102323166D01*
X107920333Y-102456500D01*
X107953666Y-102523166D01*
X108020333Y-102589833D01*
X108120333Y-102623166D01*
X108287000Y-102623166D01*
X107187000Y-102556500D02*
X107220333Y-102589833D01*
X107320333Y-102623166D01*
X107387000Y-102623166D01*
X107487000Y-102589833D01*
X107553666Y-102523166D01*
X107587000Y-102456500D01*
X107620333Y-102323166D01*
X107620333Y-102223166D01*
X107587000Y-102089833D01*
X107553666Y-102023166D01*
X107487000Y-101956500D01*
X107387000Y-101923166D01*
X107320333Y-101923166D01*
X107220333Y-101956500D01*
X107187000Y-101989833D01*
X106120333Y-102256500D02*
X106020333Y-102289833D01*
X105987000Y-102323166D01*
X105953666Y-102389833D01*
X105953666Y-102489833D01*
X105987000Y-102556500D01*
X106020333Y-102589833D01*
X106087000Y-102623166D01*
X106353666Y-102623166D01*
X106353666Y-101923166D01*
X106120333Y-101923166D01*
X106053666Y-101956500D01*
X106020333Y-101989833D01*
X105987000Y-102056500D01*
X105987000Y-102123166D01*
X106020333Y-102189833D01*
X106053666Y-102223166D01*
X106120333Y-102256500D01*
X106353666Y-102256500D01*
X105687000Y-102423166D02*
X105353666Y-102423166D01*
X105753666Y-102623166D02*
X105520333Y-101923166D01*
X105287000Y-102623166D01*
X104653666Y-102623166D02*
X104887000Y-102289833D01*
X105053666Y-102623166D02*
X105053666Y-101923166D01*
X104787000Y-101923166D01*
X104720333Y-101956500D01*
X104687000Y-101989833D01*
X104653666Y-102056500D01*
X104653666Y-102156500D01*
X104687000Y-102223166D01*
X104720333Y-102256500D01*
X104787000Y-102289833D01*
X105053666Y-102289833D01*
X103953666Y-102623166D02*
X104187000Y-102289833D01*
X104353666Y-102623166D02*
X104353666Y-101923166D01*
X104087000Y-101923166D01*
X104020333Y-101956500D01*
X103987000Y-101989833D01*
X103953666Y-102056500D01*
X103953666Y-102156500D01*
X103987000Y-102223166D01*
X104020333Y-102256500D01*
X104087000Y-102289833D01*
X104353666Y-102289833D01*
X103653666Y-102256500D02*
X103420333Y-102256500D01*
X103320333Y-102623166D02*
X103653666Y-102623166D01*
X103653666Y-101923166D01*
X103320333Y-101923166D01*
X102687000Y-102623166D02*
X103020333Y-102623166D01*
X103020333Y-101923166D01*
X107920333Y-103050166D02*
X108253666Y-103050166D01*
X108287000Y-103383500D01*
X108253666Y-103350166D01*
X108187000Y-103316833D01*
X108020333Y-103316833D01*
X107953666Y-103350166D01*
X107920333Y-103383500D01*
X107887000Y-103450166D01*
X107887000Y-103616833D01*
X107920333Y-103683500D01*
X107953666Y-103716833D01*
X108020333Y-103750166D01*
X108187000Y-103750166D01*
X108253666Y-103716833D01*
X108287000Y-103683500D01*
X107587000Y-103683500D02*
X107553666Y-103716833D01*
X107587000Y-103750166D01*
X107620333Y-103716833D01*
X107587000Y-103683500D01*
X107587000Y-103750166D01*
X106920333Y-103050166D02*
X107253666Y-103050166D01*
X107287000Y-103383500D01*
X107253666Y-103350166D01*
X107187000Y-103316833D01*
X107020333Y-103316833D01*
X106953666Y-103350166D01*
X106920333Y-103383500D01*
X106887000Y-103450166D01*
X106887000Y-103616833D01*
X106920333Y-103683500D01*
X106953666Y-103716833D01*
X107020333Y-103750166D01*
X107187000Y-103750166D01*
X107253666Y-103716833D01*
X107287000Y-103683500D01*
X106653666Y-103750166D02*
X106287000Y-103283500D01*
X106653666Y-103283500D02*
X106287000Y-103750166D01*
X106053666Y-103116833D02*
X106020333Y-103083500D01*
X105953666Y-103050166D01*
X105787000Y-103050166D01*
X105720333Y-103083500D01*
X105687000Y-103116833D01*
X105653666Y-103183500D01*
X105653666Y-103250166D01*
X105687000Y-103350166D01*
X106087000Y-103750166D01*
X105653666Y-103750166D01*
X105353666Y-103683500D02*
X105320333Y-103716833D01*
X105353666Y-103750166D01*
X105387000Y-103716833D01*
X105353666Y-103683500D01*
X105353666Y-103750166D01*
X104653666Y-103750166D02*
X105053666Y-103750166D01*
X104853666Y-103750166D02*
X104853666Y-103050166D01*
X104920333Y-103150166D01*
X104987000Y-103216833D01*
X105053666Y-103250166D01*
X104353666Y-103750166D02*
X104353666Y-103283500D01*
X104353666Y-103350166D02*
X104320333Y-103316833D01*
X104253666Y-103283500D01*
X104153666Y-103283500D01*
X104087000Y-103316833D01*
X104053666Y-103383500D01*
X104053666Y-103750166D01*
X104053666Y-103383500D02*
X104020333Y-103316833D01*
X103953666Y-103283500D01*
X103853666Y-103283500D01*
X103787000Y-103316833D01*
X103753666Y-103383500D01*
X103753666Y-103750166D01*
X103420333Y-103750166D02*
X103420333Y-103283500D01*
X103420333Y-103350166D02*
X103387000Y-103316833D01*
X103320333Y-103283500D01*
X103220333Y-103283500D01*
X103153666Y-103316833D01*
X103120333Y-103383500D01*
X103120333Y-103750166D01*
X103120333Y-103383500D02*
X103087000Y-103316833D01*
X103020333Y-103283500D01*
X102920333Y-103283500D01*
X102853666Y-103316833D01*
X102820333Y-103383500D01*
X102820333Y-103750166D01*
D11*
X106859490Y-113411000D02*
G75*
G03*
X106859490Y-113411000I-179490J0D01*
G01*
D12*
X103759000Y-113411000D02*
G75*
G03*
X103759000Y-113411000I-635000J0D01*
G01*
D13*
X101100000Y-100000000D02*
X107700000Y-100000000D01*
X108200000Y-107000000D02*
X109800000Y-106000000D01*
X100000000Y-101100000D02*
X100000000Y-106000000D01*
X101600000Y-122400000D02*
X108200000Y-122400000D01*
X100000000Y-106000000D02*
X101600000Y-107000000D01*
X107700000Y-100000000D02*
X109800000Y-102100000D01*
X101100000Y-100000000D02*
X100000000Y-101100000D01*
X109800000Y-102100000D02*
X109800000Y-106000000D01*
X108200000Y-107000000D02*
X108200000Y-122400000D01*
X101600000Y-107000000D02*
X101600000Y-122400000D01*
D12*
%TO.C,J2*%
X105235333Y-112863380D02*
X105235333Y-113577666D01*
X105282952Y-113720523D01*
X105378190Y-113815761D01*
X105521047Y-113863380D01*
X105616285Y-113863380D01*
X104806761Y-112958619D02*
X104759142Y-112911000D01*
X104663904Y-112863380D01*
X104425809Y-112863380D01*
X104330571Y-112911000D01*
X104282952Y-112958619D01*
X104235333Y-113053857D01*
X104235333Y-113149095D01*
X104282952Y-113291952D01*
X104854380Y-113863380D01*
X104235333Y-113863380D01*
D14*
X109050000Y-120491000D02*
X109050000Y-122231000D01*
X108810000Y-114871000D02*
X108810000Y-121991000D01*
X100990000Y-114871000D02*
X100990000Y-121991000D01*
X109050000Y-122231000D02*
X107550000Y-122231000D01*
X108810000Y-120431000D02*
X100990000Y-120431000D01*
X108810000Y-121991000D02*
X100990000Y-121991000D01*
X108810000Y-114871000D02*
X100990000Y-114871000D01*
X105217891Y-117723258D02*
G75*
G03*
X105218000Y-118939000I1432112J-607743D01*
G01*
X106042413Y-119762385D02*
G75*
G03*
X106650000Y-119886000I607587J1431385D01*
G01*
X108082109Y-118938742D02*
G75*
G03*
X108082000Y-117723000I-1432109J607742D01*
G01*
X107257742Y-116898891D02*
G75*
G03*
X106042000Y-116899000I-607742J-1432109D01*
G01*
X106622989Y-119886493D02*
G75*
G03*
X107258000Y-119763000I27013J1555481D01*
G01*
X104705000Y-118331000D02*
G75*
G03*
X104705000Y-118331000I-1555000J0D01*
G01*
%TD*%
M02*
