%TF.GenerationSoftware,KiCad,Pcbnew,6.0.11-2627ca5db0~126~ubuntu20.04.1*%
%TF.CreationDate,2024-11-30T20:02:14-05:00*%
%TF.ProjectId,barrel-panel-3p-5mm5x2mm1-to-screw-3mm5,62617272-656c-42d7-9061-6e656c2d3370,rev?*%
%TF.SameCoordinates,Original*%
%TF.FileFunction,Legend,Top*%
%TF.FilePolarity,Positive*%
%FSLAX46Y46*%
G04 Gerber Fmt 4.6, Leading zero omitted, Abs format (unit mm)*
G04 Created by KiCad (PCBNEW 6.0.11-2627ca5db0~126~ubuntu20.04.1) date 2024-11-30 20:02:14*
%MOMM*%
%LPD*%
G01*
G04 APERTURE LIST*
%ADD10C,0.150000*%
%ADD11C,0.358981*%
%TA.AperFunction,Profile*%
%ADD12C,0.100000*%
%TD*%
%ADD13C,0.162500*%
%ADD14C,0.175000*%
%ADD15C,0.120000*%
%ADD16C,0.260000*%
G04 APERTURE END LIST*
D10*
X97409002Y-105791001D02*
G75*
G03*
X97409002Y-105791001I-635001J0D01*
G01*
D11*
X96953491Y-102235000D02*
G75*
G03*
X96953491Y-102235000I-179490J0D01*
G01*
D12*
X87800000Y-100700000D02*
X106000000Y-100700000D01*
X106000000Y-109600000D02*
X109800000Y-106000000D01*
X87800000Y-100700000D02*
X87800000Y-107300000D01*
X101500000Y-107300000D02*
X101500000Y-108750000D01*
X102400000Y-109600000D02*
X106000000Y-109600000D01*
X106000000Y-100700000D02*
X109800000Y-104300000D01*
X101500000Y-108750000D02*
X102400000Y-109600000D01*
X109800000Y-104300000D02*
X109800000Y-106000000D01*
X87800000Y-107300000D02*
X101500000Y-107300000D01*
D13*
X102475428Y-102894797D02*
X102475428Y-102244797D01*
X102630190Y-102244797D01*
X102723047Y-102275750D01*
X102784952Y-102337654D01*
X102815904Y-102399559D01*
X102846857Y-102523369D01*
X102846857Y-102616226D01*
X102815904Y-102740035D01*
X102784952Y-102801940D01*
X102723047Y-102863845D01*
X102630190Y-102894797D01*
X102475428Y-102894797D01*
X103496857Y-102832892D02*
X103465904Y-102863845D01*
X103373047Y-102894797D01*
X103311142Y-102894797D01*
X103218285Y-102863845D01*
X103156380Y-102801940D01*
X103125428Y-102740035D01*
X103094476Y-102616226D01*
X103094476Y-102523369D01*
X103125428Y-102399559D01*
X103156380Y-102337654D01*
X103218285Y-102275750D01*
X103311142Y-102244797D01*
X103373047Y-102244797D01*
X103465904Y-102275750D01*
X103496857Y-102306702D01*
X104487333Y-102554321D02*
X104580190Y-102585273D01*
X104611142Y-102616226D01*
X104642095Y-102678130D01*
X104642095Y-102770988D01*
X104611142Y-102832892D01*
X104580190Y-102863845D01*
X104518285Y-102894797D01*
X104270666Y-102894797D01*
X104270666Y-102244797D01*
X104487333Y-102244797D01*
X104549238Y-102275750D01*
X104580190Y-102306702D01*
X104611142Y-102368607D01*
X104611142Y-102430511D01*
X104580190Y-102492416D01*
X104549238Y-102523369D01*
X104487333Y-102554321D01*
X104270666Y-102554321D01*
X104889714Y-102709083D02*
X105199238Y-102709083D01*
X104827809Y-102894797D02*
X105044476Y-102244797D01*
X105261142Y-102894797D01*
X105849238Y-102894797D02*
X105632571Y-102585273D01*
X105477809Y-102894797D02*
X105477809Y-102244797D01*
X105725428Y-102244797D01*
X105787333Y-102275750D01*
X105818285Y-102306702D01*
X105849238Y-102368607D01*
X105849238Y-102461464D01*
X105818285Y-102523369D01*
X105787333Y-102554321D01*
X105725428Y-102585273D01*
X105477809Y-102585273D01*
X106499238Y-102894797D02*
X106282571Y-102585273D01*
X106127809Y-102894797D02*
X106127809Y-102244797D01*
X106375428Y-102244797D01*
X106437333Y-102275750D01*
X106468285Y-102306702D01*
X106499238Y-102368607D01*
X106499238Y-102461464D01*
X106468285Y-102523369D01*
X106437333Y-102554321D01*
X106375428Y-102585273D01*
X106127809Y-102585273D01*
X106777809Y-102554321D02*
X106994476Y-102554321D01*
X107087333Y-102894797D02*
X106777809Y-102894797D01*
X106777809Y-102244797D01*
X107087333Y-102244797D01*
X107675428Y-102894797D02*
X107365904Y-102894797D01*
X107365904Y-102244797D01*
X102815904Y-103291297D02*
X102506380Y-103291297D01*
X102475428Y-103600821D01*
X102506380Y-103569869D01*
X102568285Y-103538916D01*
X102723047Y-103538916D01*
X102784952Y-103569869D01*
X102815904Y-103600821D01*
X102846857Y-103662726D01*
X102846857Y-103817488D01*
X102815904Y-103879392D01*
X102784952Y-103910345D01*
X102723047Y-103941297D01*
X102568285Y-103941297D01*
X102506380Y-103910345D01*
X102475428Y-103879392D01*
X103125428Y-103879392D02*
X103156380Y-103910345D01*
X103125428Y-103941297D01*
X103094476Y-103910345D01*
X103125428Y-103879392D01*
X103125428Y-103941297D01*
X103744476Y-103291297D02*
X103434952Y-103291297D01*
X103404000Y-103600821D01*
X103434952Y-103569869D01*
X103496857Y-103538916D01*
X103651619Y-103538916D01*
X103713523Y-103569869D01*
X103744476Y-103600821D01*
X103775428Y-103662726D01*
X103775428Y-103817488D01*
X103744476Y-103879392D01*
X103713523Y-103910345D01*
X103651619Y-103941297D01*
X103496857Y-103941297D01*
X103434952Y-103910345D01*
X103404000Y-103879392D01*
X103992095Y-103941297D02*
X104332571Y-103507964D01*
X103992095Y-103507964D02*
X104332571Y-103941297D01*
X104549238Y-103353202D02*
X104580190Y-103322250D01*
X104642095Y-103291297D01*
X104796857Y-103291297D01*
X104858761Y-103322250D01*
X104889714Y-103353202D01*
X104920666Y-103415107D01*
X104920666Y-103477011D01*
X104889714Y-103569869D01*
X104518285Y-103941297D01*
X104920666Y-103941297D01*
X105199238Y-103879392D02*
X105230190Y-103910345D01*
X105199238Y-103941297D01*
X105168285Y-103910345D01*
X105199238Y-103879392D01*
X105199238Y-103941297D01*
X105849238Y-103941297D02*
X105477809Y-103941297D01*
X105663523Y-103941297D02*
X105663523Y-103291297D01*
X105601619Y-103384154D01*
X105539714Y-103446059D01*
X105477809Y-103477011D01*
X106127809Y-103941297D02*
X106127809Y-103507964D01*
X106127809Y-103569869D02*
X106158761Y-103538916D01*
X106220666Y-103507964D01*
X106313523Y-103507964D01*
X106375428Y-103538916D01*
X106406380Y-103600821D01*
X106406380Y-103941297D01*
X106406380Y-103600821D02*
X106437333Y-103538916D01*
X106499238Y-103507964D01*
X106592095Y-103507964D01*
X106654000Y-103538916D01*
X106684952Y-103600821D01*
X106684952Y-103941297D01*
X106994476Y-103941297D02*
X106994476Y-103507964D01*
X106994476Y-103569869D02*
X107025428Y-103538916D01*
X107087333Y-103507964D01*
X107180190Y-103507964D01*
X107242095Y-103538916D01*
X107273047Y-103600821D01*
X107273047Y-103941297D01*
X107273047Y-103600821D02*
X107304000Y-103538916D01*
X107365904Y-103507964D01*
X107458761Y-103507964D01*
X107520666Y-103538916D01*
X107551619Y-103600821D01*
X107551619Y-103941297D01*
D14*
X90227833Y-102206666D02*
X90227833Y-102640000D01*
X89961166Y-102406666D01*
X89961166Y-102506666D01*
X89927833Y-102573333D01*
X89894500Y-102606666D01*
X89827833Y-102640000D01*
X89661166Y-102640000D01*
X89594500Y-102606666D01*
X89561166Y-102573333D01*
X89527833Y-102506666D01*
X89527833Y-102306666D01*
X89561166Y-102240000D01*
X89594500Y-102206666D01*
X89594500Y-102940000D02*
X89561166Y-102973333D01*
X89527833Y-102940000D01*
X89561166Y-102906666D01*
X89594500Y-102940000D01*
X89527833Y-102940000D01*
X90227833Y-103606666D02*
X90227833Y-103273333D01*
X89894500Y-103240000D01*
X89927833Y-103273333D01*
X89961166Y-103340000D01*
X89961166Y-103506666D01*
X89927833Y-103573333D01*
X89894500Y-103606666D01*
X89827833Y-103640000D01*
X89661166Y-103640000D01*
X89594500Y-103606666D01*
X89561166Y-103573333D01*
X89527833Y-103506666D01*
X89527833Y-103340000D01*
X89561166Y-103273333D01*
X89594500Y-103240000D01*
X89527833Y-104473333D02*
X89994500Y-104473333D01*
X89927833Y-104473333D02*
X89961166Y-104506666D01*
X89994500Y-104573333D01*
X89994500Y-104673333D01*
X89961166Y-104740000D01*
X89894500Y-104773333D01*
X89527833Y-104773333D01*
X89894500Y-104773333D02*
X89961166Y-104806666D01*
X89994500Y-104873333D01*
X89994500Y-104973333D01*
X89961166Y-105040000D01*
X89894500Y-105073333D01*
X89527833Y-105073333D01*
X89527833Y-105406666D02*
X89994500Y-105406666D01*
X89927833Y-105406666D02*
X89961166Y-105440000D01*
X89994500Y-105506666D01*
X89994500Y-105606666D01*
X89961166Y-105673333D01*
X89894500Y-105706666D01*
X89527833Y-105706666D01*
X89894500Y-105706666D02*
X89961166Y-105740000D01*
X89994500Y-105806666D01*
X89994500Y-105906666D01*
X89961166Y-105973333D01*
X89894500Y-106006666D01*
X89527833Y-106006666D01*
X88434166Y-101356666D02*
X88400833Y-101423333D01*
X88400833Y-101556666D01*
X88434166Y-101623333D01*
X88500833Y-101656666D01*
X88534166Y-101656666D01*
X88600833Y-101623333D01*
X88634166Y-101556666D01*
X88634166Y-101456666D01*
X88667500Y-101390000D01*
X88734166Y-101356666D01*
X88767500Y-101356666D01*
X88834166Y-101390000D01*
X88867500Y-101456666D01*
X88867500Y-101556666D01*
X88834166Y-101623333D01*
X88434166Y-102256666D02*
X88400833Y-102190000D01*
X88400833Y-102056666D01*
X88434166Y-101990000D01*
X88467500Y-101956666D01*
X88534166Y-101923333D01*
X88734166Y-101923333D01*
X88800833Y-101956666D01*
X88834166Y-101990000D01*
X88867500Y-102056666D01*
X88867500Y-102190000D01*
X88834166Y-102256666D01*
X88400833Y-102556666D02*
X88867500Y-102556666D01*
X88734166Y-102556666D02*
X88800833Y-102590000D01*
X88834166Y-102623333D01*
X88867500Y-102690000D01*
X88867500Y-102756666D01*
X88434166Y-103256666D02*
X88400833Y-103190000D01*
X88400833Y-103056666D01*
X88434166Y-102990000D01*
X88500833Y-102956666D01*
X88767500Y-102956666D01*
X88834166Y-102990000D01*
X88867500Y-103056666D01*
X88867500Y-103190000D01*
X88834166Y-103256666D01*
X88767500Y-103290000D01*
X88700833Y-103290000D01*
X88634166Y-102956666D01*
X88867500Y-103523333D02*
X88400833Y-103656666D01*
X88734166Y-103790000D01*
X88400833Y-103923333D01*
X88867500Y-104056666D01*
X88867500Y-104756666D02*
X88867500Y-105023333D01*
X89100833Y-104856666D02*
X88500833Y-104856666D01*
X88434166Y-104890000D01*
X88400833Y-104956666D01*
X88400833Y-105023333D01*
X88434166Y-105523333D02*
X88400833Y-105456666D01*
X88400833Y-105323333D01*
X88434166Y-105256666D01*
X88500833Y-105223333D01*
X88767500Y-105223333D01*
X88834166Y-105256666D01*
X88867500Y-105323333D01*
X88867500Y-105456666D01*
X88834166Y-105523333D01*
X88767500Y-105556666D01*
X88700833Y-105556666D01*
X88634166Y-105223333D01*
X88400833Y-105856666D02*
X88867500Y-105856666D01*
X88734166Y-105856666D02*
X88800833Y-105890000D01*
X88834166Y-105923333D01*
X88867500Y-105990000D01*
X88867500Y-106056666D01*
X88400833Y-106290000D02*
X88867500Y-106290000D01*
X88800833Y-106290000D02*
X88834166Y-106323333D01*
X88867500Y-106390000D01*
X88867500Y-106490000D01*
X88834166Y-106556666D01*
X88767500Y-106590000D01*
X88400833Y-106590000D01*
X88767500Y-106590000D02*
X88834166Y-106623333D01*
X88867500Y-106690000D01*
X88867500Y-106790000D01*
X88834166Y-106856666D01*
X88767500Y-106890000D01*
X88400833Y-106890000D01*
D10*
%TO.C,J1*%
X105076666Y-98052380D02*
X105076666Y-98766666D01*
X105029047Y-98909523D01*
X104933809Y-99004761D01*
X104790952Y-99052380D01*
X104695714Y-99052380D01*
X106076666Y-99052380D02*
X105505238Y-99052380D01*
X105790952Y-99052380D02*
X105790952Y-98052380D01*
X105695714Y-98195238D01*
X105600476Y-98290476D01*
X105505238Y-98338095D01*
D15*
X102235000Y-105235000D02*
X102235000Y-100950000D01*
X101750000Y-109045000D02*
X101750000Y-107400000D01*
X102235000Y-100950000D02*
X101600000Y-100950000D01*
X101600000Y-105235000D02*
X102235000Y-105235000D01*
X101750000Y-107400000D02*
X106160000Y-107400000D01*
X106160000Y-107400000D02*
X106160000Y-109045000D01*
D16*
X102047500Y-105870000D02*
G75*
G03*
X102047500Y-105870000I-130000J0D01*
G01*
D15*
X107950000Y-108200000D02*
G75*
G03*
X107950000Y-108200000I-635000J0D01*
G01*
%TD*%
M02*
