%TF.GenerationSoftware,KiCad,Pcbnew,7.0.11+dfsg-1build4*%
%TF.CreationDate,2026-09-16T20:13:08-05:00*%
%TF.ProjectId,toggle-panel-3p-to-screw-3mm5,746f6767-6c65-42d7-9061-6e656c2d3370,rev?*%
%TF.SameCoordinates,Original*%
%TF.FileFunction,Legend,Bot*%
%TF.FilePolarity,Positive*%
%FSLAX46Y46*%
G04 Gerber Fmt 4.6, Leading zero omitted, Abs format (unit mm)*
G04 Created by KiCad (PCBNEW 7.0.11+dfsg-1build4) date 2026-09-16 20:13:08*
%MOMM*%
%LPD*%
G01*
G04 APERTURE LIST*
%ADD10C,0.150000*%
%ADD11C,0.120000*%
%TA.AperFunction,Profile*%
%ADD12C,0.050000*%
%TD*%
G04 APERTURE END LIST*
D10*
X102833333Y-114204819D02*
X102833333Y-114919104D01*
X102833333Y-114919104D02*
X102880952Y-115061961D01*
X102880952Y-115061961D02*
X102976190Y-115157200D01*
X102976190Y-115157200D02*
X103119047Y-115204819D01*
X103119047Y-115204819D02*
X103214285Y-115204819D01*
X101833333Y-115204819D02*
X102404761Y-115204819D01*
X102119047Y-115204819D02*
X102119047Y-114204819D01*
X102119047Y-114204819D02*
X102214285Y-114347676D01*
X102214285Y-114347676D02*
X102309523Y-114442914D01*
X102309523Y-114442914D02*
X102404761Y-114490533D01*
D11*
%TO.C,J1*%
X112900000Y-115700000D02*
X111400000Y-115700000D01*
X112900000Y-113960000D02*
X112900000Y-115700000D01*
X112660000Y-115460000D02*
X101340000Y-115460000D01*
X112660000Y-113900000D02*
X101340000Y-113900000D01*
X112660000Y-108340000D02*
X112660000Y-115460000D01*
X112660000Y-108340000D02*
X101340000Y-108340000D01*
X101340000Y-108340000D02*
X101340000Y-115460000D01*
X111932109Y-112407742D02*
G75*
G03*
X111932000Y-111192000I-1432109J607742D01*
G01*
X110472989Y-113355492D02*
G75*
G03*
X111108000Y-113231999I27013J1555480D01*
G01*
X109892413Y-113231385D02*
G75*
G03*
X110500000Y-113355000I607587J1431385D01*
G01*
X111107742Y-110367891D02*
G75*
G03*
X109892000Y-110368000I-607742J-1432109D01*
G01*
X109067892Y-111192258D02*
G75*
G03*
X109068001Y-112408000I1432111J-607743D01*
G01*
X108555000Y-111800000D02*
G75*
G03*
X105445000Y-111800000I-1555000J0D01*
G01*
X105445000Y-111800000D02*
G75*
G03*
X108555000Y-111800000I1555000J0D01*
G01*
X105055000Y-111800000D02*
G75*
G03*
X101945000Y-111800000I-1555000J0D01*
G01*
X101945000Y-111800000D02*
G75*
G03*
X105055000Y-111800000I1555000J0D01*
G01*
%TD*%
D12*
X100000000Y-100000000D02*
X114000000Y-100000000D01*
X114000000Y-116000000D01*
X100000000Y-116000000D01*
X100000000Y-100000000D01*
M02*
