%TF.GenerationSoftware,KiCad,Pcbnew,7.0.11+dfsg-1build4*%
%TF.CreationDate,2026-09-16T20:13:08-05:00*%
%TF.ProjectId,toggle-panel-3p-to-screw-3mm5,746f6767-6c65-42d7-9061-6e656c2d3370,rev?*%
%TF.SameCoordinates,Original*%
%TF.FileFunction,Legend,Top*%
%TF.FilePolarity,Positive*%
%FSLAX46Y46*%
G04 Gerber Fmt 4.6, Leading zero omitted, Abs format (unit mm)*
G04 Created by KiCad (PCBNEW 7.0.11+dfsg-1build4) date 2026-09-16 20:13:08*
%MOMM*%
%LPD*%
G01*
G04 APERTURE LIST*
%ADD10C,0.175000*%
%ADD11C,0.150000*%
%ADD12C,0.120000*%
%TA.AperFunction,Profile*%
%ADD13C,0.050000*%
%TD*%
G04 APERTURE END LIST*
D10*
X101691321Y-113554995D02*
X102148464Y-113554995D01*
X101919892Y-114354995D02*
X101919892Y-113554995D01*
X102567512Y-113554995D02*
X102719893Y-113554995D01*
X102719893Y-113554995D02*
X102796083Y-113593090D01*
X102796083Y-113593090D02*
X102872274Y-113669280D01*
X102872274Y-113669280D02*
X102910369Y-113821661D01*
X102910369Y-113821661D02*
X102910369Y-114088328D01*
X102910369Y-114088328D02*
X102872274Y-114240709D01*
X102872274Y-114240709D02*
X102796083Y-114316900D01*
X102796083Y-114316900D02*
X102719893Y-114354995D01*
X102719893Y-114354995D02*
X102567512Y-114354995D01*
X102567512Y-114354995D02*
X102491321Y-114316900D01*
X102491321Y-114316900D02*
X102415131Y-114240709D01*
X102415131Y-114240709D02*
X102377035Y-114088328D01*
X102377035Y-114088328D02*
X102377035Y-113821661D01*
X102377035Y-113821661D02*
X102415131Y-113669280D01*
X102415131Y-113669280D02*
X102491321Y-113593090D01*
X102491321Y-113593090D02*
X102567512Y-113554995D01*
X103672273Y-113593090D02*
X103596083Y-113554995D01*
X103596083Y-113554995D02*
X103481797Y-113554995D01*
X103481797Y-113554995D02*
X103367511Y-113593090D01*
X103367511Y-113593090D02*
X103291321Y-113669280D01*
X103291321Y-113669280D02*
X103253226Y-113745471D01*
X103253226Y-113745471D02*
X103215130Y-113897852D01*
X103215130Y-113897852D02*
X103215130Y-114012138D01*
X103215130Y-114012138D02*
X103253226Y-114164519D01*
X103253226Y-114164519D02*
X103291321Y-114240709D01*
X103291321Y-114240709D02*
X103367511Y-114316900D01*
X103367511Y-114316900D02*
X103481797Y-114354995D01*
X103481797Y-114354995D02*
X103557988Y-114354995D01*
X103557988Y-114354995D02*
X103672273Y-114316900D01*
X103672273Y-114316900D02*
X103710369Y-114278804D01*
X103710369Y-114278804D02*
X103710369Y-114012138D01*
X103710369Y-114012138D02*
X103557988Y-114012138D01*
X104472273Y-113593090D02*
X104396083Y-113554995D01*
X104396083Y-113554995D02*
X104281797Y-113554995D01*
X104281797Y-113554995D02*
X104167511Y-113593090D01*
X104167511Y-113593090D02*
X104091321Y-113669280D01*
X104091321Y-113669280D02*
X104053226Y-113745471D01*
X104053226Y-113745471D02*
X104015130Y-113897852D01*
X104015130Y-113897852D02*
X104015130Y-114012138D01*
X104015130Y-114012138D02*
X104053226Y-114164519D01*
X104053226Y-114164519D02*
X104091321Y-114240709D01*
X104091321Y-114240709D02*
X104167511Y-114316900D01*
X104167511Y-114316900D02*
X104281797Y-114354995D01*
X104281797Y-114354995D02*
X104357988Y-114354995D01*
X104357988Y-114354995D02*
X104472273Y-114316900D01*
X104472273Y-114316900D02*
X104510369Y-114278804D01*
X104510369Y-114278804D02*
X104510369Y-114012138D01*
X104510369Y-114012138D02*
X104357988Y-114012138D01*
X105234178Y-114354995D02*
X104853226Y-114354995D01*
X104853226Y-114354995D02*
X104853226Y-113554995D01*
X105500845Y-113935947D02*
X105767511Y-113935947D01*
X105881797Y-114354995D02*
X105500845Y-114354995D01*
X105500845Y-114354995D02*
X105500845Y-113554995D01*
X105500845Y-113554995D02*
X105881797Y-113554995D01*
X106796083Y-114316900D02*
X106910369Y-114354995D01*
X106910369Y-114354995D02*
X107100845Y-114354995D01*
X107100845Y-114354995D02*
X107177036Y-114316900D01*
X107177036Y-114316900D02*
X107215131Y-114278804D01*
X107215131Y-114278804D02*
X107253226Y-114202614D01*
X107253226Y-114202614D02*
X107253226Y-114126423D01*
X107253226Y-114126423D02*
X107215131Y-114050233D01*
X107215131Y-114050233D02*
X107177036Y-114012138D01*
X107177036Y-114012138D02*
X107100845Y-113974042D01*
X107100845Y-113974042D02*
X106948464Y-113935947D01*
X106948464Y-113935947D02*
X106872274Y-113897852D01*
X106872274Y-113897852D02*
X106834179Y-113859757D01*
X106834179Y-113859757D02*
X106796083Y-113783566D01*
X106796083Y-113783566D02*
X106796083Y-113707376D01*
X106796083Y-113707376D02*
X106834179Y-113631185D01*
X106834179Y-113631185D02*
X106872274Y-113593090D01*
X106872274Y-113593090D02*
X106948464Y-113554995D01*
X106948464Y-113554995D02*
X107138941Y-113554995D01*
X107138941Y-113554995D02*
X107253226Y-113593090D01*
X107519893Y-113554995D02*
X107710369Y-114354995D01*
X107710369Y-114354995D02*
X107862750Y-113783566D01*
X107862750Y-113783566D02*
X108015131Y-114354995D01*
X108015131Y-114354995D02*
X108205608Y-113554995D01*
X108510370Y-114354995D02*
X108510370Y-113554995D01*
X108777036Y-113554995D02*
X109234179Y-113554995D01*
X109005607Y-114354995D02*
X109005607Y-113554995D01*
X109957989Y-114278804D02*
X109919893Y-114316900D01*
X109919893Y-114316900D02*
X109805608Y-114354995D01*
X109805608Y-114354995D02*
X109729417Y-114354995D01*
X109729417Y-114354995D02*
X109615131Y-114316900D01*
X109615131Y-114316900D02*
X109538941Y-114240709D01*
X109538941Y-114240709D02*
X109500846Y-114164519D01*
X109500846Y-114164519D02*
X109462750Y-114012138D01*
X109462750Y-114012138D02*
X109462750Y-113897852D01*
X109462750Y-113897852D02*
X109500846Y-113745471D01*
X109500846Y-113745471D02*
X109538941Y-113669280D01*
X109538941Y-113669280D02*
X109615131Y-113593090D01*
X109615131Y-113593090D02*
X109729417Y-113554995D01*
X109729417Y-113554995D02*
X109805608Y-113554995D01*
X109805608Y-113554995D02*
X109919893Y-113593090D01*
X109919893Y-113593090D02*
X109957989Y-113631185D01*
X110300846Y-114354995D02*
X110300846Y-113554995D01*
X110300846Y-113935947D02*
X110757989Y-113935947D01*
X110757989Y-114354995D02*
X110757989Y-113554995D01*
X111634179Y-113554995D02*
X112091322Y-113554995D01*
X111862750Y-114354995D02*
X111862750Y-113554995D01*
X112510370Y-113554995D02*
X112662751Y-113554995D01*
X112662751Y-113554995D02*
X112738941Y-113593090D01*
X112738941Y-113593090D02*
X112815132Y-113669280D01*
X112815132Y-113669280D02*
X112853227Y-113821661D01*
X112853227Y-113821661D02*
X112853227Y-114088328D01*
X112853227Y-114088328D02*
X112815132Y-114240709D01*
X112815132Y-114240709D02*
X112738941Y-114316900D01*
X112738941Y-114316900D02*
X112662751Y-114354995D01*
X112662751Y-114354995D02*
X112510370Y-114354995D01*
X112510370Y-114354995D02*
X112434179Y-114316900D01*
X112434179Y-114316900D02*
X112357989Y-114240709D01*
X112357989Y-114240709D02*
X112319893Y-114088328D01*
X112319893Y-114088328D02*
X112319893Y-113821661D01*
X112319893Y-113821661D02*
X112357989Y-113669280D01*
X112357989Y-113669280D02*
X112434179Y-113593090D01*
X112434179Y-113593090D02*
X112510370Y-113554995D01*
X101767511Y-115604900D02*
X101881797Y-115642995D01*
X101881797Y-115642995D02*
X102072273Y-115642995D01*
X102072273Y-115642995D02*
X102148464Y-115604900D01*
X102148464Y-115604900D02*
X102186559Y-115566804D01*
X102186559Y-115566804D02*
X102224654Y-115490614D01*
X102224654Y-115490614D02*
X102224654Y-115414423D01*
X102224654Y-115414423D02*
X102186559Y-115338233D01*
X102186559Y-115338233D02*
X102148464Y-115300138D01*
X102148464Y-115300138D02*
X102072273Y-115262042D01*
X102072273Y-115262042D02*
X101919892Y-115223947D01*
X101919892Y-115223947D02*
X101843702Y-115185852D01*
X101843702Y-115185852D02*
X101805607Y-115147757D01*
X101805607Y-115147757D02*
X101767511Y-115071566D01*
X101767511Y-115071566D02*
X101767511Y-114995376D01*
X101767511Y-114995376D02*
X101805607Y-114919185D01*
X101805607Y-114919185D02*
X101843702Y-114881090D01*
X101843702Y-114881090D02*
X101919892Y-114842995D01*
X101919892Y-114842995D02*
X102110369Y-114842995D01*
X102110369Y-114842995D02*
X102224654Y-114881090D01*
X103024655Y-115566804D02*
X102986559Y-115604900D01*
X102986559Y-115604900D02*
X102872274Y-115642995D01*
X102872274Y-115642995D02*
X102796083Y-115642995D01*
X102796083Y-115642995D02*
X102681797Y-115604900D01*
X102681797Y-115604900D02*
X102605607Y-115528709D01*
X102605607Y-115528709D02*
X102567512Y-115452519D01*
X102567512Y-115452519D02*
X102529416Y-115300138D01*
X102529416Y-115300138D02*
X102529416Y-115185852D01*
X102529416Y-115185852D02*
X102567512Y-115033471D01*
X102567512Y-115033471D02*
X102605607Y-114957280D01*
X102605607Y-114957280D02*
X102681797Y-114881090D01*
X102681797Y-114881090D02*
X102796083Y-114842995D01*
X102796083Y-114842995D02*
X102872274Y-114842995D01*
X102872274Y-114842995D02*
X102986559Y-114881090D01*
X102986559Y-114881090D02*
X103024655Y-114919185D01*
X103824655Y-115642995D02*
X103557988Y-115262042D01*
X103367512Y-115642995D02*
X103367512Y-114842995D01*
X103367512Y-114842995D02*
X103672274Y-114842995D01*
X103672274Y-114842995D02*
X103748464Y-114881090D01*
X103748464Y-114881090D02*
X103786559Y-114919185D01*
X103786559Y-114919185D02*
X103824655Y-114995376D01*
X103824655Y-114995376D02*
X103824655Y-115109661D01*
X103824655Y-115109661D02*
X103786559Y-115185852D01*
X103786559Y-115185852D02*
X103748464Y-115223947D01*
X103748464Y-115223947D02*
X103672274Y-115262042D01*
X103672274Y-115262042D02*
X103367512Y-115262042D01*
X104167512Y-115223947D02*
X104434178Y-115223947D01*
X104548464Y-115642995D02*
X104167512Y-115642995D01*
X104167512Y-115642995D02*
X104167512Y-114842995D01*
X104167512Y-114842995D02*
X104548464Y-114842995D01*
X104815131Y-114842995D02*
X105005607Y-115642995D01*
X105005607Y-115642995D02*
X105157988Y-115071566D01*
X105157988Y-115071566D02*
X105310369Y-115642995D01*
X105310369Y-115642995D02*
X105500846Y-114842995D01*
X106300846Y-114842995D02*
X106757989Y-114842995D01*
X106529417Y-115642995D02*
X106529417Y-114842995D01*
X107024656Y-115223947D02*
X107291322Y-115223947D01*
X107405608Y-115642995D02*
X107024656Y-115642995D01*
X107024656Y-115642995D02*
X107024656Y-114842995D01*
X107024656Y-114842995D02*
X107405608Y-114842995D01*
X108205609Y-115642995D02*
X107938942Y-115262042D01*
X107748466Y-115642995D02*
X107748466Y-114842995D01*
X107748466Y-114842995D02*
X108053228Y-114842995D01*
X108053228Y-114842995D02*
X108129418Y-114881090D01*
X108129418Y-114881090D02*
X108167513Y-114919185D01*
X108167513Y-114919185D02*
X108205609Y-114995376D01*
X108205609Y-114995376D02*
X108205609Y-115109661D01*
X108205609Y-115109661D02*
X108167513Y-115185852D01*
X108167513Y-115185852D02*
X108129418Y-115223947D01*
X108129418Y-115223947D02*
X108053228Y-115262042D01*
X108053228Y-115262042D02*
X107748466Y-115262042D01*
X108548466Y-115642995D02*
X108548466Y-114842995D01*
X108548466Y-114842995D02*
X108815132Y-115414423D01*
X108815132Y-115414423D02*
X109081799Y-114842995D01*
X109081799Y-114842995D02*
X109081799Y-115642995D01*
X109462752Y-115642995D02*
X109462752Y-114842995D01*
X109843704Y-115642995D02*
X109843704Y-114842995D01*
X109843704Y-114842995D02*
X110300847Y-115642995D01*
X110300847Y-115642995D02*
X110300847Y-114842995D01*
X110643703Y-115414423D02*
X111024656Y-115414423D01*
X110567513Y-115642995D02*
X110834180Y-114842995D01*
X110834180Y-114842995D02*
X111100846Y-115642995D01*
X111748465Y-115642995D02*
X111367513Y-115642995D01*
X111367513Y-115642995D02*
X111367513Y-114842995D01*
D11*
X105616667Y-101867200D02*
X105759524Y-101914819D01*
X105759524Y-101914819D02*
X105997619Y-101914819D01*
X105997619Y-101914819D02*
X106092857Y-101867200D01*
X106092857Y-101867200D02*
X106140476Y-101819580D01*
X106140476Y-101819580D02*
X106188095Y-101724342D01*
X106188095Y-101724342D02*
X106188095Y-101629104D01*
X106188095Y-101629104D02*
X106140476Y-101533866D01*
X106140476Y-101533866D02*
X106092857Y-101486247D01*
X106092857Y-101486247D02*
X105997619Y-101438628D01*
X105997619Y-101438628D02*
X105807143Y-101391009D01*
X105807143Y-101391009D02*
X105711905Y-101343390D01*
X105711905Y-101343390D02*
X105664286Y-101295771D01*
X105664286Y-101295771D02*
X105616667Y-101200533D01*
X105616667Y-101200533D02*
X105616667Y-101105295D01*
X105616667Y-101105295D02*
X105664286Y-101010057D01*
X105664286Y-101010057D02*
X105711905Y-100962438D01*
X105711905Y-100962438D02*
X105807143Y-100914819D01*
X105807143Y-100914819D02*
X106045238Y-100914819D01*
X106045238Y-100914819D02*
X106188095Y-100962438D01*
X106521429Y-100914819D02*
X106759524Y-101914819D01*
X106759524Y-101914819D02*
X106950000Y-101200533D01*
X106950000Y-101200533D02*
X107140476Y-101914819D01*
X107140476Y-101914819D02*
X107378572Y-100914819D01*
X108283333Y-101914819D02*
X107711905Y-101914819D01*
X107997619Y-101914819D02*
X107997619Y-100914819D01*
X107997619Y-100914819D02*
X107902381Y-101057676D01*
X107902381Y-101057676D02*
X107807143Y-101152914D01*
X107807143Y-101152914D02*
X107711905Y-101200533D01*
D12*
%TO.C,SW1*%
X100440000Y-100340000D02*
X113460000Y-100340000D01*
X113460000Y-100340000D02*
X113460000Y-107660000D01*
X113460000Y-107660000D02*
X100440000Y-107660000D01*
X100440000Y-107660000D02*
X100440000Y-100340000D01*
%TD*%
D13*
X100000000Y-100000000D02*
X114000000Y-100000000D01*
X114000000Y-116000000D01*
X100000000Y-116000000D01*
X100000000Y-100000000D01*
M02*
