G04 #@! TF.GenerationSoftware,KiCad,Pcbnew,5.1.5-52549c5~86~ubuntu18.04.1*
G04 #@! TF.CreationDate,2020-06-01T01:22:30-05:00*
G04 #@! TF.ProjectId,adap_127_254,61646170-5f31-4323-975f-3235342e6b69,rev?*
G04 #@! TF.SameCoordinates,Original*
G04 #@! TF.FileFunction,Legend,Bot*
G04 #@! TF.FilePolarity,Positive*
%FSLAX46Y46*%
G04 Gerber Fmt 4.6, Leading zero omitted, Abs format (unit mm)*
G04 Created by KiCad (PCBNEW 5.1.5-52549c5~86~ubuntu18.04.1) date 2020-06-01 01:22:30*
%MOMM*%
%LPD*%
G04 APERTURE LIST*
%ADD10C,0.150000*%
G04 APERTURE END LIST*
D10*
X111330714Y-113831666D02*
X110854523Y-113831666D01*
X111425952Y-114117380D02*
X111092619Y-113117380D01*
X110759285Y-114117380D01*
X110425952Y-114117380D02*
X110425952Y-113117380D01*
X110187857Y-113117380D01*
X110045000Y-113165000D01*
X109949761Y-113260238D01*
X109902142Y-113355476D01*
X109854523Y-113545952D01*
X109854523Y-113688809D01*
X109902142Y-113879285D01*
X109949761Y-113974523D01*
X110045000Y-114069761D01*
X110187857Y-114117380D01*
X110425952Y-114117380D01*
X109473571Y-113831666D02*
X108997380Y-113831666D01*
X109568809Y-114117380D02*
X109235476Y-113117380D01*
X108902142Y-114117380D01*
X108568809Y-114117380D02*
X108568809Y-113117380D01*
X108187857Y-113117380D01*
X108092619Y-113165000D01*
X108045000Y-113212619D01*
X107997380Y-113307857D01*
X107997380Y-113450714D01*
X108045000Y-113545952D01*
X108092619Y-113593571D01*
X108187857Y-113641190D01*
X108568809Y-113641190D01*
X107806904Y-114212619D02*
X107045000Y-114212619D01*
X106283095Y-114117380D02*
X106854523Y-114117380D01*
X106568809Y-114117380D02*
X106568809Y-113117380D01*
X106664047Y-113260238D01*
X106759285Y-113355476D01*
X106854523Y-113403095D01*
X105902142Y-113212619D02*
X105854523Y-113165000D01*
X105759285Y-113117380D01*
X105521190Y-113117380D01*
X105425952Y-113165000D01*
X105378333Y-113212619D01*
X105330714Y-113307857D01*
X105330714Y-113403095D01*
X105378333Y-113545952D01*
X105949761Y-114117380D01*
X105330714Y-114117380D01*
X104997380Y-113117380D02*
X104330714Y-113117380D01*
X104759285Y-114117380D01*
X104187857Y-114212619D02*
X103425952Y-114212619D01*
X103235476Y-113212619D02*
X103187857Y-113165000D01*
X103092619Y-113117380D01*
X102854523Y-113117380D01*
X102759285Y-113165000D01*
X102711666Y-113212619D01*
X102664047Y-113307857D01*
X102664047Y-113403095D01*
X102711666Y-113545952D01*
X103283095Y-114117380D01*
X102664047Y-114117380D01*
X101759285Y-113117380D02*
X102235476Y-113117380D01*
X102283095Y-113593571D01*
X102235476Y-113545952D01*
X102140238Y-113498333D01*
X101902142Y-113498333D01*
X101806904Y-113545952D01*
X101759285Y-113593571D01*
X101711666Y-113688809D01*
X101711666Y-113926904D01*
X101759285Y-114022142D01*
X101806904Y-114069761D01*
X101902142Y-114117380D01*
X102140238Y-114117380D01*
X102235476Y-114069761D01*
X102283095Y-114022142D01*
X100854523Y-113450714D02*
X100854523Y-114117380D01*
X101092619Y-113069761D02*
X101330714Y-113784047D01*
X100711666Y-113784047D01*
M02*
