%TF.GenerationSoftware,KiCad,Pcbnew,7.0.11+dfsg-1build4*%
%TF.CreationDate,2026-09-17T16:14:44-05:00*%
%TF.ProjectId,ds-402-5mm-push-button-to-screw,64732d34-3032-42d3-956d-6d2d70757368,rev?*%
%TF.SameCoordinates,Original*%
%TF.FileFunction,Legend,Bot*%
%TF.FilePolarity,Positive*%
%FSLAX46Y46*%
G04 Gerber Fmt 4.6, Leading zero omitted, Abs format (unit mm)*
G04 Created by KiCad (PCBNEW 7.0.11+dfsg-1build4) date 2026-09-17 16:14:44*
%MOMM*%
%LPD*%
G01*
G04 APERTURE LIST*
%ADD10C,0.200000*%
%ADD11C,0.150000*%
%ADD12C,0.120000*%
%TA.AperFunction,Profile*%
%ADD13C,0.050000*%
%TD*%
G04 APERTURE END LIST*
D10*
X101103695Y-100322054D02*
X100303695Y-100322054D01*
X100303695Y-100322054D02*
X100303695Y-100512530D01*
X100303695Y-100512530D02*
X100341790Y-100626816D01*
X100341790Y-100626816D02*
X100417980Y-100703006D01*
X100417980Y-100703006D02*
X100494171Y-100741101D01*
X100494171Y-100741101D02*
X100646552Y-100779197D01*
X100646552Y-100779197D02*
X100760838Y-100779197D01*
X100760838Y-100779197D02*
X100913219Y-100741101D01*
X100913219Y-100741101D02*
X100989409Y-100703006D01*
X100989409Y-100703006D02*
X101065600Y-100626816D01*
X101065600Y-100626816D02*
X101103695Y-100512530D01*
X101103695Y-100512530D02*
X101103695Y-100322054D01*
X101065600Y-101083958D02*
X101103695Y-101198244D01*
X101103695Y-101198244D02*
X101103695Y-101388720D01*
X101103695Y-101388720D02*
X101065600Y-101464911D01*
X101065600Y-101464911D02*
X101027504Y-101503006D01*
X101027504Y-101503006D02*
X100951314Y-101541101D01*
X100951314Y-101541101D02*
X100875123Y-101541101D01*
X100875123Y-101541101D02*
X100798933Y-101503006D01*
X100798933Y-101503006D02*
X100760838Y-101464911D01*
X100760838Y-101464911D02*
X100722742Y-101388720D01*
X100722742Y-101388720D02*
X100684647Y-101236339D01*
X100684647Y-101236339D02*
X100646552Y-101160149D01*
X100646552Y-101160149D02*
X100608457Y-101122054D01*
X100608457Y-101122054D02*
X100532266Y-101083958D01*
X100532266Y-101083958D02*
X100456076Y-101083958D01*
X100456076Y-101083958D02*
X100379885Y-101122054D01*
X100379885Y-101122054D02*
X100341790Y-101160149D01*
X100341790Y-101160149D02*
X100303695Y-101236339D01*
X100303695Y-101236339D02*
X100303695Y-101426816D01*
X100303695Y-101426816D02*
X100341790Y-101541101D01*
X100570361Y-102226816D02*
X101103695Y-102226816D01*
X100265600Y-102036340D02*
X100837028Y-101845863D01*
X100837028Y-101845863D02*
X100837028Y-102341102D01*
X100303695Y-102798245D02*
X100303695Y-102874435D01*
X100303695Y-102874435D02*
X100341790Y-102950626D01*
X100341790Y-102950626D02*
X100379885Y-102988721D01*
X100379885Y-102988721D02*
X100456076Y-103026816D01*
X100456076Y-103026816D02*
X100608457Y-103064911D01*
X100608457Y-103064911D02*
X100798933Y-103064911D01*
X100798933Y-103064911D02*
X100951314Y-103026816D01*
X100951314Y-103026816D02*
X101027504Y-102988721D01*
X101027504Y-102988721D02*
X101065600Y-102950626D01*
X101065600Y-102950626D02*
X101103695Y-102874435D01*
X101103695Y-102874435D02*
X101103695Y-102798245D01*
X101103695Y-102798245D02*
X101065600Y-102722054D01*
X101065600Y-102722054D02*
X101027504Y-102683959D01*
X101027504Y-102683959D02*
X100951314Y-102645864D01*
X100951314Y-102645864D02*
X100798933Y-102607768D01*
X100798933Y-102607768D02*
X100608457Y-102607768D01*
X100608457Y-102607768D02*
X100456076Y-102645864D01*
X100456076Y-102645864D02*
X100379885Y-102683959D01*
X100379885Y-102683959D02*
X100341790Y-102722054D01*
X100341790Y-102722054D02*
X100303695Y-102798245D01*
X100379885Y-103369673D02*
X100341790Y-103407769D01*
X100341790Y-103407769D02*
X100303695Y-103483959D01*
X100303695Y-103483959D02*
X100303695Y-103674435D01*
X100303695Y-103674435D02*
X100341790Y-103750626D01*
X100341790Y-103750626D02*
X100379885Y-103788721D01*
X100379885Y-103788721D02*
X100456076Y-103826816D01*
X100456076Y-103826816D02*
X100532266Y-103826816D01*
X100532266Y-103826816D02*
X100646552Y-103788721D01*
X100646552Y-103788721D02*
X101103695Y-103331578D01*
X101103695Y-103331578D02*
X101103695Y-103826816D01*
X101103695Y-104779198D02*
X100303695Y-104779198D01*
X100303695Y-104779198D02*
X100303695Y-105083960D01*
X100303695Y-105083960D02*
X100341790Y-105160150D01*
X100341790Y-105160150D02*
X100379885Y-105198245D01*
X100379885Y-105198245D02*
X100456076Y-105236341D01*
X100456076Y-105236341D02*
X100570361Y-105236341D01*
X100570361Y-105236341D02*
X100646552Y-105198245D01*
X100646552Y-105198245D02*
X100684647Y-105160150D01*
X100684647Y-105160150D02*
X100722742Y-105083960D01*
X100722742Y-105083960D02*
X100722742Y-104779198D01*
X100303695Y-105579198D02*
X100951314Y-105579198D01*
X100951314Y-105579198D02*
X101027504Y-105617293D01*
X101027504Y-105617293D02*
X101065600Y-105655388D01*
X101065600Y-105655388D02*
X101103695Y-105731579D01*
X101103695Y-105731579D02*
X101103695Y-105883960D01*
X101103695Y-105883960D02*
X101065600Y-105960150D01*
X101065600Y-105960150D02*
X101027504Y-105998245D01*
X101027504Y-105998245D02*
X100951314Y-106036341D01*
X100951314Y-106036341D02*
X100303695Y-106036341D01*
X101065600Y-106379197D02*
X101103695Y-106493483D01*
X101103695Y-106493483D02*
X101103695Y-106683959D01*
X101103695Y-106683959D02*
X101065600Y-106760150D01*
X101065600Y-106760150D02*
X101027504Y-106798245D01*
X101027504Y-106798245D02*
X100951314Y-106836340D01*
X100951314Y-106836340D02*
X100875123Y-106836340D01*
X100875123Y-106836340D02*
X100798933Y-106798245D01*
X100798933Y-106798245D02*
X100760838Y-106760150D01*
X100760838Y-106760150D02*
X100722742Y-106683959D01*
X100722742Y-106683959D02*
X100684647Y-106531578D01*
X100684647Y-106531578D02*
X100646552Y-106455388D01*
X100646552Y-106455388D02*
X100608457Y-106417293D01*
X100608457Y-106417293D02*
X100532266Y-106379197D01*
X100532266Y-106379197D02*
X100456076Y-106379197D01*
X100456076Y-106379197D02*
X100379885Y-106417293D01*
X100379885Y-106417293D02*
X100341790Y-106455388D01*
X100341790Y-106455388D02*
X100303695Y-106531578D01*
X100303695Y-106531578D02*
X100303695Y-106722055D01*
X100303695Y-106722055D02*
X100341790Y-106836340D01*
X101103695Y-107179198D02*
X100303695Y-107179198D01*
X100684647Y-107179198D02*
X100684647Y-107636341D01*
X101103695Y-107636341D02*
X100303695Y-107636341D01*
X100684647Y-108893483D02*
X100722742Y-109007769D01*
X100722742Y-109007769D02*
X100760838Y-109045864D01*
X100760838Y-109045864D02*
X100837028Y-109083960D01*
X100837028Y-109083960D02*
X100951314Y-109083960D01*
X100951314Y-109083960D02*
X101027504Y-109045864D01*
X101027504Y-109045864D02*
X101065600Y-109007769D01*
X101065600Y-109007769D02*
X101103695Y-108931579D01*
X101103695Y-108931579D02*
X101103695Y-108626817D01*
X101103695Y-108626817D02*
X100303695Y-108626817D01*
X100303695Y-108626817D02*
X100303695Y-108893483D01*
X100303695Y-108893483D02*
X100341790Y-108969674D01*
X100341790Y-108969674D02*
X100379885Y-109007769D01*
X100379885Y-109007769D02*
X100456076Y-109045864D01*
X100456076Y-109045864D02*
X100532266Y-109045864D01*
X100532266Y-109045864D02*
X100608457Y-109007769D01*
X100608457Y-109007769D02*
X100646552Y-108969674D01*
X100646552Y-108969674D02*
X100684647Y-108893483D01*
X100684647Y-108893483D02*
X100684647Y-108626817D01*
X100303695Y-109426817D02*
X100951314Y-109426817D01*
X100951314Y-109426817D02*
X101027504Y-109464912D01*
X101027504Y-109464912D02*
X101065600Y-109503007D01*
X101065600Y-109503007D02*
X101103695Y-109579198D01*
X101103695Y-109579198D02*
X101103695Y-109731579D01*
X101103695Y-109731579D02*
X101065600Y-109807769D01*
X101065600Y-109807769D02*
X101027504Y-109845864D01*
X101027504Y-109845864D02*
X100951314Y-109883960D01*
X100951314Y-109883960D02*
X100303695Y-109883960D01*
X100303695Y-110150626D02*
X100303695Y-110607769D01*
X101103695Y-110379197D02*
X100303695Y-110379197D01*
X100303695Y-110760150D02*
X100303695Y-111217293D01*
X101103695Y-110988721D02*
X100303695Y-110988721D01*
X100303695Y-111636341D02*
X100303695Y-111788722D01*
X100303695Y-111788722D02*
X100341790Y-111864912D01*
X100341790Y-111864912D02*
X100417980Y-111941103D01*
X100417980Y-111941103D02*
X100570361Y-111979198D01*
X100570361Y-111979198D02*
X100837028Y-111979198D01*
X100837028Y-111979198D02*
X100989409Y-111941103D01*
X100989409Y-111941103D02*
X101065600Y-111864912D01*
X101065600Y-111864912D02*
X101103695Y-111788722D01*
X101103695Y-111788722D02*
X101103695Y-111636341D01*
X101103695Y-111636341D02*
X101065600Y-111560150D01*
X101065600Y-111560150D02*
X100989409Y-111483960D01*
X100989409Y-111483960D02*
X100837028Y-111445864D01*
X100837028Y-111445864D02*
X100570361Y-111445864D01*
X100570361Y-111445864D02*
X100417980Y-111483960D01*
X100417980Y-111483960D02*
X100341790Y-111560150D01*
X100341790Y-111560150D02*
X100303695Y-111636341D01*
X101103695Y-112322055D02*
X100303695Y-112322055D01*
X100303695Y-112322055D02*
X101103695Y-112779198D01*
X101103695Y-112779198D02*
X100303695Y-112779198D01*
X101591695Y-100207768D02*
X101591695Y-100664911D01*
X102391695Y-100436339D02*
X101591695Y-100436339D01*
X101591695Y-101083959D02*
X101591695Y-101236340D01*
X101591695Y-101236340D02*
X101629790Y-101312530D01*
X101629790Y-101312530D02*
X101705980Y-101388721D01*
X101705980Y-101388721D02*
X101858361Y-101426816D01*
X101858361Y-101426816D02*
X102125028Y-101426816D01*
X102125028Y-101426816D02*
X102277409Y-101388721D01*
X102277409Y-101388721D02*
X102353600Y-101312530D01*
X102353600Y-101312530D02*
X102391695Y-101236340D01*
X102391695Y-101236340D02*
X102391695Y-101083959D01*
X102391695Y-101083959D02*
X102353600Y-101007768D01*
X102353600Y-101007768D02*
X102277409Y-100931578D01*
X102277409Y-100931578D02*
X102125028Y-100893482D01*
X102125028Y-100893482D02*
X101858361Y-100893482D01*
X101858361Y-100893482D02*
X101705980Y-100931578D01*
X101705980Y-100931578D02*
X101629790Y-101007768D01*
X101629790Y-101007768D02*
X101591695Y-101083959D01*
X102353600Y-102341101D02*
X102391695Y-102455387D01*
X102391695Y-102455387D02*
X102391695Y-102645863D01*
X102391695Y-102645863D02*
X102353600Y-102722054D01*
X102353600Y-102722054D02*
X102315504Y-102760149D01*
X102315504Y-102760149D02*
X102239314Y-102798244D01*
X102239314Y-102798244D02*
X102163123Y-102798244D01*
X102163123Y-102798244D02*
X102086933Y-102760149D01*
X102086933Y-102760149D02*
X102048838Y-102722054D01*
X102048838Y-102722054D02*
X102010742Y-102645863D01*
X102010742Y-102645863D02*
X101972647Y-102493482D01*
X101972647Y-102493482D02*
X101934552Y-102417292D01*
X101934552Y-102417292D02*
X101896457Y-102379197D01*
X101896457Y-102379197D02*
X101820266Y-102341101D01*
X101820266Y-102341101D02*
X101744076Y-102341101D01*
X101744076Y-102341101D02*
X101667885Y-102379197D01*
X101667885Y-102379197D02*
X101629790Y-102417292D01*
X101629790Y-102417292D02*
X101591695Y-102493482D01*
X101591695Y-102493482D02*
X101591695Y-102683959D01*
X101591695Y-102683959D02*
X101629790Y-102798244D01*
X102315504Y-103598245D02*
X102353600Y-103560149D01*
X102353600Y-103560149D02*
X102391695Y-103445864D01*
X102391695Y-103445864D02*
X102391695Y-103369673D01*
X102391695Y-103369673D02*
X102353600Y-103255387D01*
X102353600Y-103255387D02*
X102277409Y-103179197D01*
X102277409Y-103179197D02*
X102201219Y-103141102D01*
X102201219Y-103141102D02*
X102048838Y-103103006D01*
X102048838Y-103103006D02*
X101934552Y-103103006D01*
X101934552Y-103103006D02*
X101782171Y-103141102D01*
X101782171Y-103141102D02*
X101705980Y-103179197D01*
X101705980Y-103179197D02*
X101629790Y-103255387D01*
X101629790Y-103255387D02*
X101591695Y-103369673D01*
X101591695Y-103369673D02*
X101591695Y-103445864D01*
X101591695Y-103445864D02*
X101629790Y-103560149D01*
X101629790Y-103560149D02*
X101667885Y-103598245D01*
X102391695Y-104398245D02*
X102010742Y-104131578D01*
X102391695Y-103941102D02*
X101591695Y-103941102D01*
X101591695Y-103941102D02*
X101591695Y-104245864D01*
X101591695Y-104245864D02*
X101629790Y-104322054D01*
X101629790Y-104322054D02*
X101667885Y-104360149D01*
X101667885Y-104360149D02*
X101744076Y-104398245D01*
X101744076Y-104398245D02*
X101858361Y-104398245D01*
X101858361Y-104398245D02*
X101934552Y-104360149D01*
X101934552Y-104360149D02*
X101972647Y-104322054D01*
X101972647Y-104322054D02*
X102010742Y-104245864D01*
X102010742Y-104245864D02*
X102010742Y-103941102D01*
X101972647Y-104741102D02*
X101972647Y-105007768D01*
X102391695Y-105122054D02*
X102391695Y-104741102D01*
X102391695Y-104741102D02*
X101591695Y-104741102D01*
X101591695Y-104741102D02*
X101591695Y-105122054D01*
X101591695Y-105388721D02*
X102391695Y-105579197D01*
X102391695Y-105579197D02*
X101820266Y-105731578D01*
X101820266Y-105731578D02*
X102391695Y-105883959D01*
X102391695Y-105883959D02*
X101591695Y-106074436D01*
D11*
X108583332Y-107657200D02*
X108440475Y-107704819D01*
X108440475Y-107704819D02*
X108202380Y-107704819D01*
X108202380Y-107704819D02*
X108107142Y-107657200D01*
X108107142Y-107657200D02*
X108059523Y-107609580D01*
X108059523Y-107609580D02*
X108011904Y-107514342D01*
X108011904Y-107514342D02*
X108011904Y-107419104D01*
X108011904Y-107419104D02*
X108059523Y-107323866D01*
X108059523Y-107323866D02*
X108107142Y-107276247D01*
X108107142Y-107276247D02*
X108202380Y-107228628D01*
X108202380Y-107228628D02*
X108392856Y-107181009D01*
X108392856Y-107181009D02*
X108488094Y-107133390D01*
X108488094Y-107133390D02*
X108535713Y-107085771D01*
X108535713Y-107085771D02*
X108583332Y-106990533D01*
X108583332Y-106990533D02*
X108583332Y-106895295D01*
X108583332Y-106895295D02*
X108535713Y-106800057D01*
X108535713Y-106800057D02*
X108488094Y-106752438D01*
X108488094Y-106752438D02*
X108392856Y-106704819D01*
X108392856Y-106704819D02*
X108154761Y-106704819D01*
X108154761Y-106704819D02*
X108011904Y-106752438D01*
X107678570Y-106704819D02*
X107440475Y-107704819D01*
X107440475Y-107704819D02*
X107249999Y-106990533D01*
X107249999Y-106990533D02*
X107059523Y-107704819D01*
X107059523Y-107704819D02*
X106821428Y-106704819D01*
X105916666Y-107704819D02*
X106488094Y-107704819D01*
X106202380Y-107704819D02*
X106202380Y-106704819D01*
X106202380Y-106704819D02*
X106297618Y-106847676D01*
X106297618Y-106847676D02*
X106392856Y-106942914D01*
X106392856Y-106942914D02*
X106488094Y-106990533D01*
D12*
%TO.C,SW1*%
X108650000Y-115700000D02*
X107150000Y-115700000D01*
X108650000Y-113960000D02*
X108650000Y-115700000D01*
X108410000Y-115460000D02*
X100590000Y-115460000D01*
X108410000Y-113900000D02*
X100590000Y-113900000D01*
X108410000Y-108340000D02*
X108410000Y-115460000D01*
X108410000Y-108340000D02*
X100590000Y-108340000D01*
X100590000Y-108340000D02*
X100590000Y-115460000D01*
X107682109Y-112407742D02*
G75*
G03*
X107682000Y-111192000I-1432109J607742D01*
G01*
X106222989Y-113355492D02*
G75*
G03*
X106858000Y-113231999I27013J1555480D01*
G01*
X105642413Y-113231385D02*
G75*
G03*
X106250000Y-113355000I607587J1431385D01*
G01*
X106857742Y-110367891D02*
G75*
G03*
X105642000Y-110368000I-607742J-1432109D01*
G01*
X104817892Y-111192258D02*
G75*
G03*
X104818001Y-112408000I1432111J-607743D01*
G01*
X104305000Y-111800000D02*
G75*
G03*
X101195000Y-111800000I-1555000J0D01*
G01*
X101195000Y-111800000D02*
G75*
G03*
X104305000Y-111800000I1555000J0D01*
G01*
%TD*%
D13*
X100000000Y-100000000D02*
X109000000Y-100000000D01*
X109000000Y-116000000D01*
X100000000Y-116000000D01*
X100000000Y-100000000D01*
M02*
