G04 #@! TF.GenerationSoftware,KiCad,Pcbnew,5.1.5-52549c5~86~ubuntu18.04.1*
G04 #@! TF.CreationDate,2020-06-01T01:22:30-05:00*
G04 #@! TF.ProjectId,adap_127_254,61646170-5f31-4323-975f-3235342e6b69,rev?*
G04 #@! TF.SameCoordinates,Original*
G04 #@! TF.FileFunction,Soldermask,Bot*
G04 #@! TF.FilePolarity,Negative*
%FSLAX46Y46*%
G04 Gerber Fmt 4.6, Leading zero omitted, Abs format (unit mm)*
G04 Created by KiCad (PCBNEW 5.1.5-52549c5~86~ubuntu18.04.1) date 2020-06-01 01:22:30*
%MOMM*%
%LPD*%
G04 APERTURE LIST*
%ADD10C,0.100000*%
G04 APERTURE END LIST*
D10*
G36*
X111873512Y-107053927D02*
G01*
X112022812Y-107083624D01*
X112186784Y-107151544D01*
X112334354Y-107250147D01*
X112459853Y-107375646D01*
X112558456Y-107523216D01*
X112626376Y-107687188D01*
X112661000Y-107861259D01*
X112661000Y-108038741D01*
X112626376Y-108212812D01*
X112558456Y-108376784D01*
X112459853Y-108524354D01*
X112334354Y-108649853D01*
X112186784Y-108748456D01*
X112022812Y-108816376D01*
X111873512Y-108846073D01*
X111848742Y-108851000D01*
X111671258Y-108851000D01*
X111646488Y-108846073D01*
X111497188Y-108816376D01*
X111333216Y-108748456D01*
X111185646Y-108649853D01*
X111060147Y-108524354D01*
X110961544Y-108376784D01*
X110893624Y-108212812D01*
X110859000Y-108038741D01*
X110859000Y-107861259D01*
X110893624Y-107687188D01*
X110961544Y-107523216D01*
X111060147Y-107375646D01*
X111185646Y-107250147D01*
X111333216Y-107151544D01*
X111497188Y-107083624D01*
X111646488Y-107053927D01*
X111671258Y-107049000D01*
X111848742Y-107049000D01*
X111873512Y-107053927D01*
G37*
G36*
X105041000Y-108851000D02*
G01*
X103239000Y-108851000D01*
X103239000Y-107049000D01*
X105041000Y-107049000D01*
X105041000Y-108851000D01*
G37*
G36*
X106793512Y-107053927D02*
G01*
X106942812Y-107083624D01*
X107106784Y-107151544D01*
X107254354Y-107250147D01*
X107379853Y-107375646D01*
X107478456Y-107523216D01*
X107546376Y-107687188D01*
X107581000Y-107861259D01*
X107581000Y-108038741D01*
X107546376Y-108212812D01*
X107478456Y-108376784D01*
X107379853Y-108524354D01*
X107254354Y-108649853D01*
X107106784Y-108748456D01*
X106942812Y-108816376D01*
X106793512Y-108846073D01*
X106768742Y-108851000D01*
X106591258Y-108851000D01*
X106566488Y-108846073D01*
X106417188Y-108816376D01*
X106253216Y-108748456D01*
X106105646Y-108649853D01*
X105980147Y-108524354D01*
X105881544Y-108376784D01*
X105813624Y-108212812D01*
X105779000Y-108038741D01*
X105779000Y-107861259D01*
X105813624Y-107687188D01*
X105881544Y-107523216D01*
X105980147Y-107375646D01*
X106105646Y-107250147D01*
X106253216Y-107151544D01*
X106417188Y-107083624D01*
X106566488Y-107053927D01*
X106591258Y-107049000D01*
X106768742Y-107049000D01*
X106793512Y-107053927D01*
G37*
G36*
X109333512Y-107053927D02*
G01*
X109482812Y-107083624D01*
X109646784Y-107151544D01*
X109794354Y-107250147D01*
X109919853Y-107375646D01*
X110018456Y-107523216D01*
X110086376Y-107687188D01*
X110121000Y-107861259D01*
X110121000Y-108038741D01*
X110086376Y-108212812D01*
X110018456Y-108376784D01*
X109919853Y-108524354D01*
X109794354Y-108649853D01*
X109646784Y-108748456D01*
X109482812Y-108816376D01*
X109333512Y-108846073D01*
X109308742Y-108851000D01*
X109131258Y-108851000D01*
X109106488Y-108846073D01*
X108957188Y-108816376D01*
X108793216Y-108748456D01*
X108645646Y-108649853D01*
X108520147Y-108524354D01*
X108421544Y-108376784D01*
X108353624Y-108212812D01*
X108319000Y-108038741D01*
X108319000Y-107861259D01*
X108353624Y-107687188D01*
X108421544Y-107523216D01*
X108520147Y-107375646D01*
X108645646Y-107250147D01*
X108793216Y-107151544D01*
X108957188Y-107083624D01*
X109106488Y-107053927D01*
X109131258Y-107049000D01*
X109308742Y-107049000D01*
X109333512Y-107053927D01*
G37*
G36*
X114413512Y-107053927D02*
G01*
X114562812Y-107083624D01*
X114726784Y-107151544D01*
X114874354Y-107250147D01*
X114999853Y-107375646D01*
X115098456Y-107523216D01*
X115166376Y-107687188D01*
X115201000Y-107861259D01*
X115201000Y-108038741D01*
X115166376Y-108212812D01*
X115098456Y-108376784D01*
X114999853Y-108524354D01*
X114874354Y-108649853D01*
X114726784Y-108748456D01*
X114562812Y-108816376D01*
X114413512Y-108846073D01*
X114388742Y-108851000D01*
X114211258Y-108851000D01*
X114186488Y-108846073D01*
X114037188Y-108816376D01*
X113873216Y-108748456D01*
X113725646Y-108649853D01*
X113600147Y-108524354D01*
X113501544Y-108376784D01*
X113433624Y-108212812D01*
X113399000Y-108038741D01*
X113399000Y-107861259D01*
X113433624Y-107687188D01*
X113501544Y-107523216D01*
X113600147Y-107375646D01*
X113725646Y-107250147D01*
X113873216Y-107151544D01*
X114037188Y-107083624D01*
X114186488Y-107053927D01*
X114211258Y-107049000D01*
X114388742Y-107049000D01*
X114413512Y-107053927D01*
G37*
G36*
X111873512Y-104513927D02*
G01*
X112022812Y-104543624D01*
X112186784Y-104611544D01*
X112334354Y-104710147D01*
X112459853Y-104835646D01*
X112558456Y-104983216D01*
X112626376Y-105147188D01*
X112661000Y-105321259D01*
X112661000Y-105498741D01*
X112626376Y-105672812D01*
X112558456Y-105836784D01*
X112459853Y-105984354D01*
X112334354Y-106109853D01*
X112186784Y-106208456D01*
X112022812Y-106276376D01*
X111873512Y-106306073D01*
X111848742Y-106311000D01*
X111671258Y-106311000D01*
X111646488Y-106306073D01*
X111497188Y-106276376D01*
X111333216Y-106208456D01*
X111185646Y-106109853D01*
X111060147Y-105984354D01*
X110961544Y-105836784D01*
X110893624Y-105672812D01*
X110859000Y-105498741D01*
X110859000Y-105321259D01*
X110893624Y-105147188D01*
X110961544Y-104983216D01*
X111060147Y-104835646D01*
X111185646Y-104710147D01*
X111333216Y-104611544D01*
X111497188Y-104543624D01*
X111646488Y-104513927D01*
X111671258Y-104509000D01*
X111848742Y-104509000D01*
X111873512Y-104513927D01*
G37*
G36*
X109333512Y-104513927D02*
G01*
X109482812Y-104543624D01*
X109646784Y-104611544D01*
X109794354Y-104710147D01*
X109919853Y-104835646D01*
X110018456Y-104983216D01*
X110086376Y-105147188D01*
X110121000Y-105321259D01*
X110121000Y-105498741D01*
X110086376Y-105672812D01*
X110018456Y-105836784D01*
X109919853Y-105984354D01*
X109794354Y-106109853D01*
X109646784Y-106208456D01*
X109482812Y-106276376D01*
X109333512Y-106306073D01*
X109308742Y-106311000D01*
X109131258Y-106311000D01*
X109106488Y-106306073D01*
X108957188Y-106276376D01*
X108793216Y-106208456D01*
X108645646Y-106109853D01*
X108520147Y-105984354D01*
X108421544Y-105836784D01*
X108353624Y-105672812D01*
X108319000Y-105498741D01*
X108319000Y-105321259D01*
X108353624Y-105147188D01*
X108421544Y-104983216D01*
X108520147Y-104835646D01*
X108645646Y-104710147D01*
X108793216Y-104611544D01*
X108957188Y-104543624D01*
X109106488Y-104513927D01*
X109131258Y-104509000D01*
X109308742Y-104509000D01*
X109333512Y-104513927D01*
G37*
G36*
X106793512Y-104513927D02*
G01*
X106942812Y-104543624D01*
X107106784Y-104611544D01*
X107254354Y-104710147D01*
X107379853Y-104835646D01*
X107478456Y-104983216D01*
X107546376Y-105147188D01*
X107581000Y-105321259D01*
X107581000Y-105498741D01*
X107546376Y-105672812D01*
X107478456Y-105836784D01*
X107379853Y-105984354D01*
X107254354Y-106109853D01*
X107106784Y-106208456D01*
X106942812Y-106276376D01*
X106793512Y-106306073D01*
X106768742Y-106311000D01*
X106591258Y-106311000D01*
X106566488Y-106306073D01*
X106417188Y-106276376D01*
X106253216Y-106208456D01*
X106105646Y-106109853D01*
X105980147Y-105984354D01*
X105881544Y-105836784D01*
X105813624Y-105672812D01*
X105779000Y-105498741D01*
X105779000Y-105321259D01*
X105813624Y-105147188D01*
X105881544Y-104983216D01*
X105980147Y-104835646D01*
X106105646Y-104710147D01*
X106253216Y-104611544D01*
X106417188Y-104543624D01*
X106566488Y-104513927D01*
X106591258Y-104509000D01*
X106768742Y-104509000D01*
X106793512Y-104513927D01*
G37*
G36*
X104253512Y-104513927D02*
G01*
X104402812Y-104543624D01*
X104566784Y-104611544D01*
X104714354Y-104710147D01*
X104839853Y-104835646D01*
X104938456Y-104983216D01*
X105006376Y-105147188D01*
X105041000Y-105321259D01*
X105041000Y-105498741D01*
X105006376Y-105672812D01*
X104938456Y-105836784D01*
X104839853Y-105984354D01*
X104714354Y-106109853D01*
X104566784Y-106208456D01*
X104402812Y-106276376D01*
X104253512Y-106306073D01*
X104228742Y-106311000D01*
X104051258Y-106311000D01*
X104026488Y-106306073D01*
X103877188Y-106276376D01*
X103713216Y-106208456D01*
X103565646Y-106109853D01*
X103440147Y-105984354D01*
X103341544Y-105836784D01*
X103273624Y-105672812D01*
X103239000Y-105498741D01*
X103239000Y-105321259D01*
X103273624Y-105147188D01*
X103341544Y-104983216D01*
X103440147Y-104835646D01*
X103565646Y-104710147D01*
X103713216Y-104611544D01*
X103877188Y-104543624D01*
X104026488Y-104513927D01*
X104051258Y-104509000D01*
X104228742Y-104509000D01*
X104253512Y-104513927D01*
G37*
G36*
X114413512Y-104513927D02*
G01*
X114562812Y-104543624D01*
X114726784Y-104611544D01*
X114874354Y-104710147D01*
X114999853Y-104835646D01*
X115098456Y-104983216D01*
X115166376Y-105147188D01*
X115201000Y-105321259D01*
X115201000Y-105498741D01*
X115166376Y-105672812D01*
X115098456Y-105836784D01*
X114999853Y-105984354D01*
X114874354Y-106109853D01*
X114726784Y-106208456D01*
X114562812Y-106276376D01*
X114413512Y-106306073D01*
X114388742Y-106311000D01*
X114211258Y-106311000D01*
X114186488Y-106306073D01*
X114037188Y-106276376D01*
X113873216Y-106208456D01*
X113725646Y-106109853D01*
X113600147Y-105984354D01*
X113501544Y-105836784D01*
X113433624Y-105672812D01*
X113399000Y-105498741D01*
X113399000Y-105321259D01*
X113433624Y-105147188D01*
X113501544Y-104983216D01*
X113600147Y-104835646D01*
X113725646Y-104710147D01*
X113873216Y-104611544D01*
X114037188Y-104543624D01*
X114186488Y-104513927D01*
X114211258Y-104509000D01*
X114388742Y-104509000D01*
X114413512Y-104513927D01*
G37*
M02*
